<svg xmlns="http://www.w3.org/2000/svg" viewBox="0 0 16 16" fill="currentColor"><path fill-rule="evenodd" d="M11.16.027a3.4 3.4 0 0 0-2.121 1.012 3.36 3.36 0 0 0-.964 1.801 4 4 0 0 0-.012 1.266 3.48 3.48 0 0 0 1.531 2.313 3.35 3.35 0 0 0 2.033.558c.409-.015.627-.053.973-.166A3.53 3.53 0 0 0 14.811 4.6c.113-.346.151-.564.166-.973.047-1.205-.484-2.273-1.487-2.992-.632-.453-1.543-.691-2.33-.608M2.2.557a1.53 1.53 0 0 0-.72.44 1.5 1.5 0 0 0-.431.736C1.002 1.899 1 2.179 1 8v6.093l.062.2c.183.587.611.998 1.194 1.148.201.051.316.052 5.182.052 5.513-.001 5.161.011 5.545-.178.153-.075.257-.154.417-.314.244-.244.356-.442.44-.772.052-.205.053-.298.053-3.553 0-1.839-.003-3.343-.007-3.343s-.157.076-.34.168a4.37 4.37 0 0 1-2.213.491C9.25 7.911 7.536 6.458 7.088 4.391c-.081-.374-.087-1.305-.012-1.711.131-.702.47-1.44.915-1.993l.145-.18-2.888.002C2.579.51 2.348.514 2.2.557m9.607 3.036.007 1.82h-.8l-.007-1.452L11 2.509l-.4.252c-.22.138-.409.252-.42.252s-.02-.153-.02-.34v-.34l.447-.285.446-.285.374.005.373.005zm-1.044 5.464c.15.071.21.181.21.383 0 .204-.059.311-.219.39-.096.048-.233.05-3.181.058-1.694.004-3.142.001-3.218-.008a.6.6 0 0 1-.226-.075.44.44 0 0 1 .003-.732l.089-.06h3.226c2.92 0 3.234.004 3.316.044m-1.116 1.77c.13.079.193.2.193.373 0 .18-.08.314-.232.39-.097.048-.211.05-2.634.057-1.819.006-2.574-.001-2.679-.023a.434.434 0 0 1-.152-.8c.081-.049.172-.05 2.75-.05 2.614 0 2.669.001 2.754.053m.59 1.746a.39.39 0 0 1 .21.343.41.41 0 0 1-.208.415l-.101.056-2.969-.007-2.969-.007-.087-.062c-.299-.213-.202-.692.157-.778.049-.012 1.392-.02 2.983-.017 2.842.004 2.895.005 2.984.057"/></svg>