<svg xmlns="http://www.w3.org/2000/svg" viewBox="0 0 16 16" fill="currentColor"><path fill-rule="evenodd" d="M5.777 1.378a.7.7 0 0 0-.244.16l-.114.114-.945 2.834-.945 2.834-1.185.013c-1.328.015-1.29.01-1.488.214A.72.72 0 0 0 .667 8c0 .158.08.343.202.465.203.203.19.202 1.796.202.941-.001 1.437-.01 1.508-.03a.73.73 0 0 0 .38-.271c.029-.049.363-1.022.743-2.161A94 94 0 0 1 6 4.133c.007 0 .779 2.298 1.716 5.107l1.702 5.107.116.116c.275.275.742.255.977-.042.064-.08.273-.679 1.02-2.921l.94-2.82 1.185-.013c1.328-.015 1.29-.01 1.488-.214A.72.72 0 0 0 15.333 8a.7.7 0 0 0-.202-.465c-.203-.203-.19-.202-1.796-.202-.941.001-1.437.01-1.508.03a.73.73 0 0 0-.38.271c-.029.049-.363 1.022-.743 2.161A94 94 0 0 1 10 11.867c-.007 0-.779-2.295-1.714-5.1-1.857-5.57-1.729-5.225-1.984-5.354a.72.72 0 0 0-.525-.035"/></svg>