<svg xmlns="http://www.w3.org/2000/svg" viewBox="0 0 16 16" fill="currentColor"><path fill-rule="evenodd" d="M2.474 1.065c-.451.145-.835.599-.941 1.115-.035.169-.04.885-.033 5.653l.007 5.46.062.187c.173.514.601.913 1.075 1.001.097.018.912.025 2.333.02l2.183-.008.125-.073a.73.73 0 0 0 .368-.658c0-.301-.124-.537-.352-.667l-.141-.081H5.02l-2.14-.001V2.507h9.573v2.888c0 3.206-.01 3.024.178 3.243a.58.58 0 0 0 .502.227.59.59 0 0 0 .499-.219c.194-.215.183-.017.175-3.435-.007-3.052-.007-3.065-.064-3.212a1.4 1.4 0 0 0-.362-.575 1.2 1.2 0 0 0-.392-.298l-.202-.099-5.08-.006c-4.869-.005-5.087-.003-5.233.044m2.272 2.958a.7.7 0 0 0-.329.219A.805.805 0 0 0 4.46 5.3a.6.6 0 0 0 .46.193.6.6 0 0 0 .449-.181.68.68 0 0 0 .225-.502c.029-.439-.236-.773-.632-.799a.8.8 0 0 0-.216.012m2.675.021a.78.78 0 0 0-.365.341c-.175.369-.059.816.262 1.014l.131.081 1.547.007 1.548.008.14-.069c.43-.211.529-.83.191-1.199-.214-.235-.15-.227-1.86-.225-1.239.002-1.5.009-1.594.042M4.592 7.095c-.299.171-.424.546-.31.93.059.2.246.383.451.443a.63.63 0 0 0 .689-.204c.302-.352.214-.947-.174-1.169a.5.5 0 0 0-.328-.081.5.5 0 0 0-.328.081m2.775-.026c-.241.12-.389.377-.389.678 0 .304.142.552.395.689.106.057.119.057 1.654.057s1.547 0 1.653-.057c.255-.138.393-.38.393-.689 0-.307-.146-.561-.389-.679-.111-.053-.152-.055-1.659-.055-1.514 0-1.547.001-1.658.056m-2.621 2.954a.7.7 0 0 0-.329.219.805.805 0 0 0 .043 1.058.6.6 0 0 0 .46.193.6.6 0 0 0 .449-.181.68.68 0 0 0 .225-.502c.029-.439-.236-.773-.632-.799a.8.8 0 0 0-.216.012m2.675.019c-.31.115-.503.505-.431.873.066.335.311.555.638.574.233.013.352-.028.51-.176.369-.345.29-1.015-.148-1.238a.86.86 0 0 0-.569-.033m4.105.001a.8.8 0 0 0-.395.403c-.042.111-.05.238-.058.974l-.01.847h-.765c-.688.001-.775.006-.871.05-.45.209-.538.905-.16 1.254.187.172.287.189 1.096.189h.7l.01.833c.011.941.021.999.208 1.191.158.163.249.202.479.202.172.001.218-.01.328-.074a.8.8 0 0 0 .207-.185c.145-.201.158-.297.158-1.17v-.793l.767-.009c.868-.009.883-.013 1.084-.236.147-.163.186-.271.186-.519s-.039-.356-.186-.519c-.192-.213-.2-.214-1.076-.214h-.775v-.809c0-.889-.012-.984-.158-1.185a.69.69 0 0 0-.769-.23"/></svg>