<svg xmlns="http://www.w3.org/2000/svg" viewBox="0 0 16 16" fill="currentColor"><path fill-rule="evenodd" d="m6.427 2.015-.227.041c-.945.171-1.793.99-2.057 1.986-.062.233-.071.315-.071.691 0 .377.009.458.071.694.205.776.73 1.422 1.444 1.775.423.209.605.248 1.16.248.432 0 .484-.006.706-.073a2.67 2.67 0 0 0 1.222-.764c.33-.357.536-.727.664-1.195.047-.17.057-.283.059-.671.002-.409-.006-.495-.06-.693a2.64 2.64 0 0 0-.723-1.256c-.521-.521-1.068-.761-1.788-.784a4 4 0 0 0-.4.001m.647 1.198c.27.057.482.181.727.426.343.343.486.715.457 1.188-.026.41-.173.738-.459 1.023-.288.288-.57.414-.972.435a1.4 1.4 0 0 1-1.12-.409c-.333-.313-.483-.663-.486-1.13-.002-.319.042-.507.175-.759.105-.199.408-.51.608-.623a1.57 1.57 0 0 1 1.07-.151m4.663 3.907a.52.52 0 0 0-.347.262 1.8 1.8 0 0 0-.095.391c-.059.388-.053.374-.182.413a3 3 0 0 0-.691.364 1 1 0 0 1-.176.117c-.014 0-.153-.048-.309-.107-.322-.121-.472-.134-.628-.055-.13.067-.217.171-.324.388-.073.148-.083.193-.073.321.016.184.05.232.373.516l.254.223-.035.164c-.046.21-.046.65-.001.864l.035.168-.273.225c-.316.26-.374.36-.353.609.017.202.192.497.349.587.188.107.267.107.566.001.476-.171.41-.169.603-.021.185.141.481.304.65.357.059.018.12.044.136.056s.043.128.062.257c.087.621.226.778.684.779.407.002.569-.151.638-.599l.054-.35c.012-.07.033-.091.14-.131.228-.085.477-.221.662-.361.205-.155.137-.157.611.013.277.099.371.104.52.028.188-.097.406-.456.406-.671 0-.217-.056-.303-.353-.546-.265-.218-.27-.224-.254-.315a2.6 2.6 0 0 0 .001-1.014c-.015-.09-.008-.099.238-.306.283-.24.362-.361.362-.556 0-.216-.173-.535-.352-.647-.183-.116-.288-.112-.648.027-.176.067-.33.122-.343.122a.8.8 0 0 1-.16-.121c-.127-.113-.677-.412-.757-.412-.05 0-.08-.09-.114-.347a3 3 0 0 0-.056-.327.62.62 0 0 0-.266-.327c-.094-.049-.403-.07-.554-.039M5.573 8.788a10 10 0 0 0-2.266.55c-.469.176-1.097.465-1.347.621a2.03 2.03 0 0 0-.897 1.211c-.067.26-.096.889-.054 1.199.058.423.297.762.666.944l.177.087 2.454.007c2.743.009 2.591.019 2.771-.18a.58.58 0 0 0 .082-.659.54.54 0 0 0-.41-.301c-.09-.017-.973-.027-2.366-.027H2.16v-.355c0-.435.033-.55.218-.751.106-.116.199-.179.47-.317a8 8 0 0 1 3.419-.886c.542-.017.644-.041.786-.183.285-.285.202-.788-.158-.959-.114-.054-.823-.054-1.322-.001m6.718.32c.481.113.908.528 1.053 1.024.062.21.057.642-.01.859-.141.456-.523.849-.957.984a1.7 1.7 0 0 1-.861 0c-.452-.141-.865-.584-.98-1.052a2.2 2.2 0 0 1 .012-.79c.146-.491.572-.91 1.042-1.024.208-.05.491-.051.701-.001"/></svg>