<svg xmlns="http://www.w3.org/2000/svg" viewBox="0 0 16 16" fill="currentColor"><path fill-rule="evenodd" d="m12.876.271-.316.673-.2.424-.66.307c-.363.169-.66.315-.66.325s.297.156.66.325l.66.307.319.672.32.673.087-.182.323-.675.235-.493.658-.307c.361-.169.657-.313.657-.32s-.297-.152-.66-.322l-.659-.309-.309-.658c-.17-.362-.316-.665-.324-.673s-.068.096-.131.233M6.757.877a1.05 1.05 0 0 0-.634.503c-.037.074-.296.986-.588 2.069-.301 1.121-.549 1.994-.589 2.073a1.1 1.1 0 0 1-.413.425c-.062.031-1.002.297-2.089.589-2.135.575-2.166.586-2.354.813l-.09.11v1.082l.09.11c.188.227.219.238 2.354.813 1.087.292 2.027.558 2.089.589.152.078.329.26.413.425.04.079.288.951.59 2.074.289 1.076.55 1.995.588 2.068.087.173.267.346.457.438.136.066.182.074.419.074s.283-.008.419-.074c.189-.092.37-.265.456-.435.036-.071.301-1.003.588-2.07.3-1.114.552-1.998.592-2.075.083-.165.26-.347.412-.425.062-.031 1.002-.297 2.089-.589 2.132-.575 2.168-.587 2.351-.811a1 1 0 0 0 .224-.49.985.985 0 0 0-.455-1.008c-.115-.07-.52-.188-2.12-.619-1.087-.292-2.027-.558-2.089-.589a1.1 1.1 0 0 1-.412-.425c-.04-.077-.292-.961-.592-2.075-.287-1.067-.552-1.999-.588-2.07A1.04 1.04 0 0 0 7.42.945a.8.8 0 0 0-.365-.081 1.4 1.4 0 0 0-.298.013m.617 3.615a33 33 0 0 0 .414 1.455c.238.617.806 1.131 1.479 1.34.117.036.744.208 1.393.382s1.18.323 1.18.331-.531.157-1.18.331c-1.38.37-1.553.422-1.767.529-.483.242-.919.712-1.105 1.193a33 33 0 0 0-.414 1.455 67 67 0 0 1-.358 1.305c-.019.045-.028.035-.055-.066l-.352-1.307c-.175-.653-.358-1.283-.406-1.402a2.32 2.32 0 0 0-1.47-1.325 84 84 0 0 0-1.393-.382A27 27 0 0 1 2.16 8c0-.008.531-.157 1.18-.331a84 84 0 0 0 1.393-.382 2.32 2.32 0 0 0 1.47-1.325c.048-.119.231-.749.406-1.402l.352-1.307c.027-.101.036-.111.055-.066.012.029.173.616.358 1.305M12 10.025a.66.66 0 0 0-.485.644c0 .272.049.341.743 1.041l.632.637h-1.505c-.911 0-1.543.01-1.6.026-.126.035-.306.192-.378.33a.57.57 0 0 0-.059.297c0 .212.055.343.203.485.18.173.132.168 1.808.168.837 0 1.521.009 1.521.021 0 .011-.283.302-.63.646-.689.686-.735.75-.735 1.013 0 .361.256.634.62.661.292.023.282.031 1.684-1.375 1.023-1.026 1.275-1.293 1.303-1.379a.78.78 0 0 0-.024-.523c-.04-.083-.427-.486-1.317-1.375-1.21-1.207-1.267-1.259-1.406-1.3a.63.63 0 0 0-.375-.017"/></svg>