<svg xmlns="http://www.w3.org/2000/svg" viewBox="0 0 16 16" fill="currentColor"><path fill-rule="evenodd" d="M13.707.631c-.154.332-.3.635-.323.674-.033.054-.202.145-.7.376-.361.168-.657.312-.657.319s.271.139.604.293.635.3.674.323c.053.032.147.204.375.687.167.354.311.644.32.644s.153-.29.32-.644c.235-.496.321-.654.378-.689.04-.024.338-.169.661-.321s.588-.284.588-.293c0-.008-.29-.153-.644-.32-.483-.228-.655-.322-.687-.375a20 20 0 0 1-.323-.674A10 10 0 0 0 14 .027c-.007 0-.139.271-.293.604M7.72.889a1 1 0 0 0-.608.518c-.038.084-.297 1.005-.577 2.046C6.256 4.495 6 5.407 5.967 5.48a1.07 1.07 0 0 1-.466.475c-.085.04-1.006.301-2.048.58-1.041.28-1.962.539-2.046.577a1.02 1.02 0 0 0-.469.482C.876 7.726.867 7.781.867 8s.009.274.071.406c.099.21.282.399.469.482.084.037 1.005.297 2.046.576 1.042.28 1.954.536 2.027.569.188.085.388.281.475.466.04.085.301 1.006.58 2.048.28 1.041.539 1.962.577 2.046.083.187.272.371.482.469.132.062.187.071.406.071s.274-.009.406-.071c.21-.099.399-.282.482-.469.037-.084.297-1.005.576-2.046.28-1.042.536-1.954.569-2.027.085-.188.281-.388.466-.475.085-.04 1.006-.301 2.048-.581 1.041-.279 1.962-.539 2.046-.576.187-.083.37-.272.469-.482.062-.132.071-.187.071-.406s-.009-.274-.071-.406a1.02 1.02 0 0 0-.469-.482c-.084-.038-1.005-.297-2.046-.576-1.042-.28-1.963-.541-2.048-.581a1.07 1.07 0 0 1-.466-.475c-.033-.073-.289-.985-.569-2.027-.279-1.041-.539-1.962-.576-2.046A1 1 0 0 0 8.406.94C8.224.856 7.893.832 7.72.889m.638 3.545c.189.707.387 1.394.44 1.526.219.547.69 1.017 1.242 1.241.132.053.819.252 1.526.441.708.19 1.287.351 1.287.358s-.579.168-1.287.358c-.707.189-1.394.387-1.526.44a2.3 2.3 0 0 0-1.242 1.242c-.053.132-.251.819-.44 1.526-.19.708-.351 1.287-.358 1.287s-.168-.579-.358-1.287c-.189-.707-.388-1.394-.441-1.526A2.3 2.3 0 0 0 5.96 8.798c-.132-.053-.819-.251-1.526-.44A37 37 0 0 1 3.147 8c0-.007.579-.168 1.287-.358.707-.189 1.394-.388 1.526-.441A2.3 2.3 0 0 0 7.201 5.96c.053-.132.252-.819.441-1.526.19-.708.351-1.287.358-1.287s.168.579.358 1.287"/></svg>