<svg xmlns="http://www.w3.org/2000/svg" viewBox="0 0 16 16" fill="currentColor"><path fill-rule="evenodd" d="M2.338 1.361c-.431.073-.733.234-1.072.572-.346.346-.499.638-.572 1.089-.037.224-.037 7.065 0 7.289.073.451.226.743.572 1.089.474.474.829.599 1.696.6.544 0 .662-.029.836-.202A.7.7 0 0 0 4 11.333a.72.72 0 0 0-.189-.452c-.175-.181-.235-.196-.824-.213-.51-.014-.523-.016-.648-.09a.72.72 0 0 1-.313-.393c-.018-.066-.024-1.293-.02-3.576l.007-3.476.074-.125a.7.7 0 0 1 .36-.303c.148-.053 10.958-.053 11.106 0a.7.7 0 0 1 .36.303l.074.125.007 3.476c.004 2.283-.002 3.51-.02 3.576a.72.72 0 0 1-.313.393c-.125.074-.138.076-.648.09-.589.017-.649.032-.824.213a.72.72 0 0 0-.189.452.7.7 0 0 0 .202.465c.174.173.292.202.836.202.867-.001 1.222-.126 1.696-.6.346-.346.499-.638.572-1.089.037-.224.037-7.065 0-7.289-.073-.451-.226-.743-.572-1.089s-.638-.499-1.089-.573c-.201-.032-11.113-.031-11.307.001m5.449 8.013a.7.7 0 0 0-.206.112c-.143.124-3.479 4.147-3.522 4.247a.66.66 0 0 0 .143.731c.216.216-.04.203 3.791.203 2.302 0 3.433-.009 3.509-.029a.7.7 0 0 0 .421-.336c.08-.164.086-.426.012-.577-.055-.114-3.384-4.125-3.517-4.237a.65.65 0 0 0-.631-.114m1.174 2.819L9.9 13.32l-.95.007c-.522.004-1.378.004-1.9 0l-.95-.007.939-1.127c.516-.619.949-1.126.961-1.126s.445.507.961 1.126"/></svg>