<svg xmlns="http://www.w3.org/2000/svg" viewBox="0 0 16 16" fill="currentColor"><path fill-rule="evenodd" d="M5 .721c-.117.045-.38.298-2.191 2.112C.81 4.834.75 4.898.709 5.038.672 5.166.667 5.513.667 8c0 2.485.005 2.834.042 2.962.041.141.1.203 2.113 2.216s2.075 2.072 2.216 2.113c.128.037.477.042 2.962.042s2.834-.005 2.962-.042c.141-.041.203-.1 2.216-2.113s2.072-2.075 2.113-2.216c.037-.128.042-.479.042-2.98 0-2.769-.001-2.838-.053-2.975-.048-.127-.248-.335-2.1-2.187C11.316.956 11.121.768 10.992.72c-.137-.052-.211-.053-3-.052C5.234.669 5.129.671 5 .721m7.247 3.032L14 5.507v4.986l-1.753 1.754L10.493 14H5.507l-1.754-1.753L2 10.493V5.507l1.753-1.754L5.507 2h4.986zm-4.465.956a.69.69 0 0 0-.408.417c-.06.204-.06 2.878 0 3.081.075.252.358.46.626.46a.7.7 0 0 0 .465-.202c.203-.204.202-.191.202-1.798 0-1.608.001-1.595-.202-1.798a.64.64 0 0 0-.683-.16m0 5.333c-.241.074-.449.364-.449.625 0 .344.322.666.667.666a.83.83 0 0 0 .437-.164c.392-.324.255-.983-.235-1.13a.62.62 0 0 0-.42.003"/></svg>