<svg xmlns="http://www.w3.org/2000/svg" viewBox="0 0 16 16" fill="currentColor"><path fill-rule="evenodd" d="M7.499 1.334c-.383.1-.804.371-1.045.671-.161.201-5.852 9.709-5.938 9.92-.24.59-.173 1.282.175 1.815.221.339.467.553.836.727.429.203-.156.186 6.473.186 5.602 0 5.943-.002 6.107-.047.205-.056.512-.197.68-.313.28-.193.589-.585.707-.901a2.1 2.1 0 0 0-.007-1.464c-.082-.203-5.784-9.727-5.941-9.923a2.13 2.13 0 0 0-1.056-.673 2.35 2.35 0 0 0-.991.002m.738 1.312c.049.015.138.07.196.123.078.07.86 1.354 2.932 4.813a599 599 0 0 1 2.877 4.827.64.64 0 0 1-.023.554.72.72 0 0 1-.4.342c-.138.039-11.5.039-11.638 0a.72.72 0 0 1-.4-.342.64.64 0 0 1-.023-.554c.114-.25 5.708-9.547 5.793-9.626.193-.18.405-.223.686-.137m-.455 2.729a.69.69 0 0 0-.408.418c-.06.203-.06 2.877 0 3.081A.69.69 0 0 0 8 9.333c.158 0 .343-.08.465-.202.203-.203.202-.19.202-1.798 0-1.607.001-1.594-.202-1.798a.65.65 0 0 0-.683-.16m0 5.334c-.241.074-.449.364-.449.624A.7.7 0 0 0 8 12a1 1 0 0 0 .202-.039c.607-.181.617-1.048.015-1.254a.65.65 0 0 0-.435.002"/></svg>