<svg xmlns="http://www.w3.org/2000/svg" viewBox="0 0 16 16" fill="currentColor"><path fill-rule="evenodd" d="M5.117 1.375a.7.7 0 0 0-.236.147c-.205.199-.199.16-.214 1.491L4.653 4.2l-.074.126a.8.8 0 0 1-.166.196c-.183.139-.21.142-1.388.143-1.265.002-1.291.005-1.49.204a.7.7 0 0 0-.202.464c0 .159.081.343.202.465.199.199.224.202 1.503.202 1.35 0 1.548-.027 1.949-.259.224-.13.624-.53.754-.754.232-.401.259-.599.259-1.949 0-1.279-.003-1.304-.202-1.503a.64.64 0 0 0-.681-.16m5.331 0a.64.64 0 0 0-.246.16c-.199.199-.202.223-.202 1.503 0 1.35.027 1.548.259 1.949.13.224.53.624.754.754.401.232.599.259 1.949.259 1.279 0 1.304-.003 1.503-.202a.7.7 0 0 0 .202-.465.7.7 0 0 0-.202-.464c-.199-.199-.225-.202-1.49-.204-1.178-.001-1.205-.004-1.388-.143a.8.8 0 0 1-.166-.196l-.074-.126-.014-1.187c-.015-1.331-.009-1.292-.214-1.491a.65.65 0 0 0-.671-.147m-8.666 8.667c-.241.074-.449.364-.449.625 0 .148.08.34.189.452.199.205.16.199 1.491.214l1.187.014.126.074c.069.04.157.115.196.166.139.183.142.21.143 1.388.002 1.265.005 1.291.204 1.49a.7.7 0 0 0 .464.202.7.7 0 0 0 .465-.202c.199-.199.202-.224.202-1.503 0-1.35-.027-1.548-.259-1.949-.13-.224-.53-.624-.754-.754-.403-.233-.598-.259-1.96-.257-.896.001-1.145.009-1.245.04m9.889-.014c-.431.072-.733.234-1.071.572-.346.346-.5.638-.573 1.089-.015.091-.027.66-.027 1.273 0 1.279.003 1.304.202 1.503a.7.7 0 0 0 .465.202.7.7 0 0 0 .464-.202c.199-.199.202-.225.204-1.49.001-1.178.004-1.205.143-1.388a.8.8 0 0 1 .196-.166l.126-.074 1.187-.014c1.331-.015 1.292-.009 1.491-.214a.72.72 0 0 0 .189-.452.7.7 0 0 0-.202-.465c-.2-.2-.22-.202-1.53-.199a23 23 0 0 0-1.264.025"/></svg>