<svg xmlns="http://www.w3.org/2000/svg" viewBox="0 0 16 16" fill="currentColor"><path fill-rule="evenodd" d="M4.375 1.056c-.391.105-.798.425-.981.773-.159.302-.167.376-.167 1.722v1.217l-.727.013c-.806.014-.972.041-1.305.208A2.1 2.1 0 0 0 .077 6.28l-.063.187L.005 8.36c-.006 1.339.001 1.94.022 2.053.098.515.53.987 1.066 1.166.163.055.234.059 1.154.068l.98.01v1.005c0 .802.009 1.039.041 1.176.114.485.522.913 1.039 1.089L4.52 15h6.96l.213-.073c.517-.176.925-.604 1.039-1.089.032-.137.041-.374.041-1.176v-1.005l.98-.01c.848-.009 1-.017 1.127-.058.257-.083.46-.209.67-.416q.343-.337.423-.76c.021-.113.028-.715.022-2.053l-.008-1.893-.087-.256a1.95 1.95 0 0 0-.469-.765 1.9 1.9 0 0 0-.598-.445c-.363-.182-.516-.207-1.333-.221l-.727-.012V3.551c0-.992-.008-1.249-.041-1.389-.12-.511-.581-.968-1.119-1.108-.231-.06-7.013-.059-7.238.002m7.014 1.289.078.078v2.35H4.533v-2.35l.078-.078.078-.078h6.622zm2.677 3.723c.276.071.528.31.6.567.038.139.037 3.527-.001 3.612-.062.136-.082.139-1.014.148l-.87.008-.016-.158c-.051-.485-.418-.978-.89-1.197-.317-.146-.228-.143-3.963-.135l-3.445.007-.176.06c-.565.192-.997.711-1.056 1.268l-.016.155-.87-.008c-.932-.009-.952-.012-1.014-.148-.038-.085-.039-3.473-.001-3.612a.95.95 0 0 1 .322-.44c.247-.176-.185-.165 6.332-.167 5.238-.001 5.939.003 6.078.04m-1.253.409a.83.83 0 0 0-.63.781c-.002.294.063.453.257.632a.89.89 0 0 0 1.115.081.84.84 0 0 0 .286-1.027.95.95 0 0 0-.414-.408 1.2 1.2 0 0 0-.614-.059m-1.411 3.771.065.075v1.614c0 1.657-.002 1.683-.105 1.762-.061.047-6.663.047-6.724 0-.103-.079-.105-.106-.105-1.758 0-1.744-.004-1.695.143-1.755.032-.013 1.532-.021 3.36-.018l3.302.005z"/></svg>