<svg xmlns="http://www.w3.org/2000/svg" viewBox="0 0 16 16" fill="currentColor"><path fill-rule="evenodd" d="M7.64.017a3.32 3.32 0 0 0-2.441 1.481 2.94 2.94 0 0 0-.187 2.841c.144.303.294.514.56.792.401.418.816.689 1.309.853.385.129.685.176 1.119.176.979 0 1.757-.33 2.428-1.029.266-.278.416-.489.56-.792.287-.606.356-1.34.186-2.003C10.892 1.232 9.862.292 8.688.067A5.7 5.7 0 0 0 7.64.017m.799 1.357a1.89 1.89 0 0 1 1.259.987c.186.391.215.858.079 1.261-.185.545-.706 1.015-1.297 1.17a2.5 2.5 0 0 1-.96 0c-.591-.155-1.112-.625-1.297-1.17a1.7 1.7 0 0 1 .305-1.613 1.96 1.96 0 0 1 1.021-.634c.227-.05.66-.05.89-.001M7.067 7.456l-.387.039c-1.092.105-2.351.417-3.495.865-.527.206-.944.401-1.149.537-.475.316-.816.79-.975 1.356l-.06.214-.008 2.766L.985 16h1.414l.007-2.727.007-2.726.078-.154c.162-.319.409-.482 1.216-.801.791-.312 1.661-.566 2.346-.682 1.288-.219 2.742-.209 3.954.028.157.031.286.063.285.072 0 .009-.315.629-.7 1.377l-.699 1.36-1.56.014c-1.687.016-1.746.02-2.103.171-.833.351-1.337 1.084-1.337 1.948 0 .57.182 1.017.585 1.436.282.295.564.467.98.597l.235.074h7.974l.228-.082a1.66 1.66 0 0 0 1.046-1.065c.059-.186.059-.194.059-2.28-.001-2.089-.001-2.094-.061-2.307a2.35 2.35 0 0 0-1.154-1.463c-.766-.42-2.339-.944-3.454-1.15-.812-.15-1.156-.179-2.198-.187a30 30 0 0 0-1.066.003m4.94 2.014c.427.156.943.388 1.107.496q.267.177.403.461l.07.146v1.98c0 1.974 0 1.979-.056 2.035a.4.4 0 0 1-.16.08c-.095.022-4.411.038-4.411.016 0-.007 1.834-3.596 2.67-5.224a.3.3 0 0 1 .064-.1c.007 0 .148.049.313.11m-3.794 3.634c0 .006-.182.367-.405.803l-.404.791-.722-.011c-.833-.013-.889-.025-1.119-.236-.456-.416-.299-1.107.301-1.321.072-.026.371-.035 1.223-.035.619-.001 1.126.003 1.126.009"/></svg>