<svg xmlns="http://www.w3.org/2000/svg" viewBox="0 0 16 16" fill="currentColor"><path fill-rule="evenodd" d="M1.782 3.375c-.241.074-.449.364-.449.625 0 .268.208.551.46.626.121.036.85.041 6.207.041s6.086-.005 6.207-.041a.69.69 0 0 0 .46-.626.69.69 0 0 0-.46-.626c-.121-.036-.848-.04-6.219-.039-5.215.002-6.099.008-6.206.04m2.666 2.667c-.24.074-.448.364-.448.625 0 .268.208.551.46.626.12.035.71.04 4.873.04s4.754-.005 4.874-.04a.69.69 0 0 0 .46-.626c0-.268-.208-.552-.46-.626-.201-.06-9.565-.059-9.759.001M1.782 8.709c-.241.074-.449.364-.449.624 0 .268.208.552.46.626.121.036.85.041 6.207.041s6.086-.005 6.207-.041c.252-.074.46-.358.46-.626a.69.69 0 0 0-.46-.626c-.121-.036-.848-.04-6.219-.038-5.215.001-6.099.007-6.206.04m2.666 2.666c-.24.074-.448.364-.448.625 0 .268.208.551.46.626.12.036.71.041 4.873.041s4.754-.005 4.874-.041a.69.69 0 0 0 .46-.626.69.69 0 0 0-.46-.626c-.201-.06-9.565-.058-9.759.001"/></svg>