<svg xmlns="http://www.w3.org/2000/svg" viewBox="0 0 16 16" fill="currentColor"><path fill-rule="evenodd" d="M2.067 1.052c-.673.147-1.234.656-1.472 1.335L.52 2.6v10.133l.075.214c.11.315.265.558.509.8.343.339.699.51 1.193.572.241.03 7.143.041 7.143.011 0-.009-.083-.114-.184-.233a5 5 0 0 1-.587-.868l-.111-.215-3.099-.007C2.38 13 2.359 13 2.24 12.944a.8.8 0 0 1-.341-.313c-.043-.079-.046-.399-.046-4.964v-4.88l.06-.097a.74.74 0 0 1 .314-.293c.099-.046.211-.049 1.682-.05h1.575l.602.9c.435.65.63.918.699.964.209.138.145.136 3.456.136h3.083l.144.073c.178.09.303.249.343.433.018.084.029.49.029 1.051v.914l.266.087c.26.085.8.341.958.453.042.03.085.055.093.055.009 0 .016-.575.016-1.277 0-1.379-.009-1.494-.144-1.853-.211-.558-.649-.97-1.269-1.194l-.173-.062-3.027-.008-3.027-.008-.56-.844a26 26 0 0 0-.637-.934.8.8 0 0 0-.206-.155l-.128-.065-1.888.002c-1.449.002-1.924.011-2.047.037M12.16 7.51c-.258.033-.57.101-.779.171A3.5 3.5 0 0 0 9.596 9.05a3.3 3.3 0 0 0-.532 1.278c-.08.38-.08.964 0 1.344.105.505.254.862.532 1.278a3.5 3.5 0 0 0 2.198 1.481c.354.076 1.037.082 1.366.012 1.432-.305 2.475-1.342 2.778-2.763.036-.168.048-.343.048-.68s-.012-.512-.048-.68c-.303-1.421-1.365-2.476-2.777-2.76-.211-.042-.821-.073-1.001-.05m1.077.847a2.7 2.7 0 0 1 1.235.745c.243.254.373.443.515.746a2.72 2.72 0 0 1 0 2.304 2.5 2.5 0 0 1-.515.746c-.345.361-.722.588-1.235.746-.222.069-.268.073-.73.073-.425 0-.523-.008-.703-.058a3.5 3.5 0 0 1-.861-.4A2.74 2.74 0 0 1 9.76 11c0-1.293.894-2.403 2.16-2.683.349-.077.993-.057 1.317.04m-1.157.428a2.29 2.29 0 0 0-1.764 1.655c-.08.301-.08.819 0 1.12.17.639.597 1.159 1.191 1.451.377.186.562.228 1 .228.517-.001.858-.105 1.267-.388.478-.331.815-.834.93-1.39a2.264 2.264 0 0 0-1.611-2.634c-.258-.074-.766-.095-1.013-.042m1.598 1.12c.088.046.148.174.125.267-.019.075-1.314 1.59-1.417 1.658a.2.2 0 0 1-.157.025c-.077-.014-.143-.076-.395-.369-.37-.43-.394-.465-.394-.561 0-.102.13-.232.231-.231.114.002.171.045.382.293a3 3 0 0 0 .213.234c.01.004.256-.269.546-.607s.563-.644.606-.681c.091-.076.153-.083.26-.028"/></svg>