<svg xmlns="http://www.w3.org/2000/svg" viewBox="0 0 16 16" fill="currentColor"><path fill-rule="evenodd" d="M3.004 1.361c-.43.073-.733.234-1.071.572-.346.346-.499.638-.573 1.089-.014.091-.026.661-.026 1.273-.001 1.28.003 1.304.201 1.503A.7.7 0 0 0 2 6c.158 0 .343-.08.465-.202.198-.198.201-.225.203-1.49.001-1.178.004-1.205.143-1.387a.8.8 0 0 1 .197-.167l.125-.074 1.187-.013c1.331-.015 1.292-.01 1.491-.214A.72.72 0 0 0 6 2a.7.7 0 0 0-.202-.465c-.2-.2-.22-.202-1.53-.199a23 23 0 0 0-1.264.025m7.444.014c-.24.074-.448.364-.448.625 0 .149.08.34.189.453.199.204.16.199 1.491.214l1.187.013.125.074c.07.041.158.116.197.167.139.182.142.209.143 1.387.002 1.265.005 1.292.203 1.49A.7.7 0 0 0 14 6c.158 0 .343-.08.465-.202.198-.199.202-.223.201-1.503 0-1.35-.026-1.547-.258-1.948-.131-.225-.53-.624-.755-.755-.402-.233-.597-.259-1.96-.257-.896.002-1.145.01-1.245.04m-8.666 8.667a.6.6 0 0 0-.246.16c-.199.199-.203.223-.202 1.503 0 1.35.026 1.547.258 1.948.131.225.53.624.755.755.401.232.598.258 1.948.258 1.28.001 1.304-.003 1.503-.201A.7.7 0 0 0 6 14a.7.7 0 0 0-.202-.465c-.198-.198-.225-.201-1.49-.203-1.178-.001-1.205-.004-1.387-.143a.8.8 0 0 1-.167-.197l-.074-.125-.013-1.187c-.015-1.331-.01-1.292-.214-1.491a.65.65 0 0 0-.671-.147m12.001 0a.64.64 0 0 0-.235.147c-.205.199-.2.16-.215 1.491l-.013 1.187-.074.125a.8.8 0 0 1-.167.197c-.182.139-.209.142-1.387.143-1.265.002-1.292.005-1.49.203A.7.7 0 0 0 10 14c0 .158.08.343.202.465.199.198.223.202 1.503.201 1.35 0 1.547-.026 1.948-.258.225-.131.624-.53.755-.755.232-.401.258-.598.258-1.948.001-1.28-.003-1.304-.201-1.503a.64.64 0 0 0-.682-.16"/></svg>