<svg xmlns="http://www.w3.org/2000/svg" viewBox="0 0 16 16" fill="currentColor"><path fill-rule="evenodd" d="M2.12 1.063c-.485.139-.902.555-1.061 1.057L1 2.307v11.386l.059.187c.158.502.558.902 1.061 1.061l.187.059h11.386l.187-.059a1.63 1.63 0 0 0 1.061-1.061l.059-.187V2.307l-.059-.187c-.163-.513-.598-.937-1.092-1.064-.147-.038-.745-.042-5.866-.041-5.316.002-5.714.005-5.863.048M13.44 8v5.44H2.56V2.56h10.88zM7.781 4.142a.78.78 0 0 0-.529.529c-.017.063-.024 1.275-.019 3.387l.007 3.289.083.146a.777.777 0 0 0 1.354 0l.083-.146V4.653l-.079-.142a.79.79 0 0 0-.9-.369M4.623 6.484a.84.84 0 0 0-.423.382l-.08.157-.007 2.093c-.009 2.428-.022 2.286.232 2.539.123.124.185.163.309.2a.794.794 0 0 0 .957-.44c.055-.12.056-.152.063-2.171.009-2.245.007-2.265-.147-2.469-.169-.222-.323-.302-.607-.312a1.2 1.2 0 0 0-.297.021m6.308 2.313a.82.82 0 0 0-.542.456c-.053.115-.056.162-.056 1.08 0 .92.003.965.056 1.082a.794.794 0 0 0 .957.44.84.84 0 0 0 .505-.495c.061-.205.062-1.842.002-2.046a.87.87 0 0 0-.4-.458 1 1 0 0 0-.522-.059"/></svg>