<svg xmlns="http://www.w3.org/2000/svg" viewBox="0 0 16 16" fill="currentColor"><path fill-rule="evenodd" d="M2.12 1.063c-.485.139-.902.555-1.061 1.057L1 2.307v11.386l.059.187c.158.502.558.902 1.061 1.061l.187.059h11.386l.187-.059a1.63 1.63 0 0 0 1.061-1.061l.059-.187V2.307l-.059-.187c-.163-.513-.598-.937-1.092-1.064-.147-.038-.745-.042-5.866-.041-5.316.002-5.714.005-5.863.048m6.189 3.11a.77.77 0 0 1 .372.338l.079.142v6.694l-.083.146a.777.777 0 0 1-1.354 0l-.083-.146-.007-3.289c-.005-2.112.002-3.324.019-3.387a.78.78 0 0 1 .529-.529.96.96 0 0 1 .528.031M5.24 6.526a.8.8 0 0 1 .351.371l.064.137-.008 2.17c-.006 2.016-.01 2.175-.054 2.256a.8.8 0 0 1-.932.397.87.87 0 0 1-.478-.41l-.063-.127V7.023l.08-.157a.84.84 0 0 1 .423-.382c.137-.046.493-.022.617.042m6.183 2.314a.93.93 0 0 1 .395.381c.062.125.062.132.062 1.112 0 .984 0 .987-.063 1.114-.294.592-1.147.581-1.42-.019-.045-.099-.049-.192-.049-1.095 0-.898.004-.996.048-1.093a.81.81 0 0 1 .535-.443c.132-.028.371-.007.492.043"/></svg>