<svg xmlns="http://www.w3.org/2000/svg" viewBox="0 0 16 16" fill="currentColor"><path fill-rule="evenodd" d="M7.586.705A2.67 2.67 0 0 0 5.357 3.05c-.142 1.215.619 2.408 1.785 2.802l.178.06.007 4.029.007 4.029-.101-.014a6.4 6.4 0 0 1-1.886-.582 5.6 5.6 0 0 1-1.585-1.136 5.6 5.6 0 0 1-1.136-1.585 6.4 6.4 0 0 1-.582-1.886l-.014-.1h.687c.813 0 .894-.015 1.081-.202A.7.7 0 0 0 4 8a.69.69 0 0 0-.46-.626c-.201-.06-2.212-.06-2.414 0-.281.084-.459.357-.459.707 0 .459.099 1.207.228 1.719.549 2.177 2.117 4.026 4.163 4.911 2.741 1.187 5.878.63 8.006-1.42a7.28 7.28 0 0 0 2.242-4.719c.054-.67.026-.836-.175-1.037-.198-.198-.227-.202-1.464-.202-1.238 0-1.267.004-1.465.202A.7.7 0 0 0 12 8c0 .158.08.343.202.465.187.187.268.202 1.081.202h.687l-.014.1a6.4 6.4 0 0 1-.582 1.886 5.6 5.6 0 0 1-1.136 1.585 5.6 5.6 0 0 1-1.585 1.136 6.4 6.4 0 0 1-1.886.582l-.101.014.007-4.029.007-4.029.178-.06c1.164-.393 1.926-1.589 1.785-2.802A2.66 2.66 0 0 0 7.586.705m.742 1.335c.24.062.417.166.608.357.269.269.397.572.397.936s-.128.668-.397.936A1.26 1.26 0 0 1 8 4.667c-.364 0-.668-.129-.936-.398a1.26 1.26 0 0 1-.397-.936c0-.364.128-.667.397-.936a1.24 1.24 0 0 1 .924-.395c.103-.001.256.016.34.038"/></svg>