<svg xmlns="http://www.w3.org/2000/svg" viewBox="0 0 16 16" fill="currentColor"><path fill-rule="evenodd" d="M7.38.693c-1.258.122-2.418.525-3.398 1.181a6 6 0 0 0-1.157.951c-.457.457-.642.683-.964 1.173A7.4 7.4 0 0 0 .743 6.96a8.5 8.5 0 0 0 0 2.08q.23 1.495.945 2.686c1.025 1.708 2.626 2.905 4.525 3.38.675.169 1.025.21 1.774.21.756 0 1.154-.047 1.8-.209 1.93-.487 3.53-1.695 4.563-3.444.443-.749.76-1.668.907-2.623a8.5 8.5 0 0 0 0-2.08c-.201-1.305-.648-2.364-1.454-3.44-.218-.292-.922-1.011-1.216-1.242A7.3 7.3 0 0 0 8.16.68c-.301-.005-.652 0-.78.013m-.621 2.791L5.507 5.653l-.496.859c-.076.133-.092.147-.118.107-.017-.025-.352-.601-.743-1.28l-.712-1.234.141-.161c.17-.195.574-.56.832-.754a6.3 6.3 0 0 1 2.147-1.015c.319-.08.989-.182 1.037-.157.005.002-.371.662-.836 1.466m2.678-1.311a6.06 6.06 0 0 1 3.406 2.282l.147.198-2.672.007a164 164 0 0 1-2.684-.004c-.008-.008 1.278-2.26 1.423-2.489.047-.075.062-.075.38.006M3.614 7.067a601 601 0 0 0 1.645 2.847l.052.086-1.486-.006-1.487-.007-.05-.147a7 7 0 0 1-.226-.947c-.067-.412-.067-1.374 0-1.786.09-.546.261-1.125.462-1.56l.092-.2.049.08c.028.044.455.782.949 1.64m6.113-.084c.311.541.566.998.566 1.017s-.255.476-.566 1.017l-.567.982H6.84l-.567-.982c-.311-.541-.566-.998-.566-1.017s.255-.476.566-1.017l.567-.982h2.32zm3.985-.823c.078.23.173.627.226.947.067.412.067 1.374 0 1.786a6.4 6.4 0 0 1-.462 1.56l-.092.2-.049-.08c-.028-.044-.455-.782-.949-1.64a601 601 0 0 0-1.645-2.847L10.689 6l1.486.006 1.487.007zm-1.862 4.501.712 1.234-.162.181c-.18.201-.576.558-.833.751a6.1 6.1 0 0 1-2.66 1.103c-.384.056-.51.064-.497.031.006-.015.385-.676.843-1.468l1.301-2.253.495-.858c.027-.042.03-.042.059 0 .017.024.351.6.742 1.279m-3.477.685c0 .024-1.42 2.48-1.457 2.519-.031.034-.069.031-.296-.023a6.07 6.07 0 0 1-3.079-1.832 7 7 0 0 1-.511-.643c-.016-.027.524-.034 2.662-.034 1.475 0 2.681.006 2.681.013"/></svg>