<svg xmlns="http://www.w3.org/2000/svg" viewBox="0 0 16 16" fill="currentColor"><path fill-rule="evenodd" d="M.448 1.375a.64.64 0 0 0-.246.16C-.005 1.743 0 1.688 0 3.667c0 1.978-.005 1.924.202 2.131C.37 5.965.5 6 .965 6h.368v4.035c0 4.543-.015 4.212.202 4.43.22.22-.352.202 6.465.202s6.245.018 6.465-.202c.217-.218.202.113.202-4.43V6h.368c.465 0 .595-.035.763-.202.207-.207.202-.153.202-2.131 0-1.979.005-1.924-.202-2.132-.221-.221.512-.202-7.81-.2-6.376.002-7.432.007-7.54.04m14.219 2.292v1H1.333v-2h13.334zm-1.334 6v3.666H2.667V6h10.666zM6.448 7.375C6.208 7.449 6 7.739 6 8c0 .268.208.551.46.626.203.06 2.877.06 3.08 0A.69.69 0 0 0 10 8a.69.69 0 0 0-.46-.626c-.196-.059-2.901-.057-3.092.001"/></svg>