<svg xmlns="http://www.w3.org/2000/svg" viewBox="0 0 16 16" fill="currentColor"><path fill-rule="evenodd" d="M4.448 4.042a.69.69 0 0 0-.407.418C4.005 4.579 4 5.034 4 8.038l.001 3.442.063.133a.63.63 0 0 0 .336.332c.119.053.157.054 3.562.054 3.005.001 3.459-.004 3.578-.04.252-.074.46-.358.46-.626a.7.7 0 0 0-.202-.464c-.213-.213-.058-.202-2.956-.202H6.281l2.817-2.82c2.747-2.75 2.819-2.824 2.86-2.965a.6.6 0 0 0 .001-.422.67.67 0 0 0-.419-.419.6.6 0 0 0-.422.001c-.141.041-.215.113-2.965 2.86l-2.82 2.817V7.158c0-2.898.011-2.743-.202-2.956a.64.64 0 0 0-.683-.16"/></svg>