<svg xmlns="http://www.w3.org/2000/svg" viewBox="0 0 16 16" fill="currentColor"><path fill-rule="evenodd" d="M4.448 4.042a.69.69 0 0 0-.407.418.6.6 0 0 0 .001.422c.041.141.113.215 2.86 2.965l2.817 2.82H7.158c-2.898 0-2.743-.011-2.956.202a.7.7 0 0 0-.202.464c0 .268.208.552.46.626.119.036.575.041 3.58.041h3.443l.138-.069a.67.67 0 0 0 .329-.344c.046-.102.049-.276.049-3.549.001-3.005-.004-3.459-.04-3.578-.074-.252-.358-.46-.626-.46a.7.7 0 0 0-.464.202c-.213.213-.202.058-.202 2.956v2.561l-2.82-2.817c-2.75-2.747-2.824-2.819-2.965-2.86a.64.64 0 0 0-.434 0"/></svg>