<svg xmlns="http://www.w3.org/2000/svg" viewBox="0 0 16 16" fill="currentColor"><path fill-rule="evenodd" d="M7.773 2.711c-.125.037-.286.192-2.556 2.458C2.587 7.793 2.667 7.704 2.667 8s-.08.207 2.55 2.831c2.357 2.351 2.427 2.419 2.568 2.46a.6.6 0 0 0 .422.002.67.67 0 0 0 .419-.419.6.6 0 0 0-.002-.422c-.041-.141-.1-.204-1.859-1.965l-1.817-1.82h3.894c3.409 0 3.912-.005 4.032-.041A.69.69 0 0 0 13.333 8a.69.69 0 0 0-.459-.626c-.12-.036-.623-.041-4.032-.041H4.948l1.817-1.82c1.759-1.761 1.818-1.824 1.859-1.965a.6.6 0 0 0 .002-.422.67.67 0 0 0-.853-.415"/></svg>