<svg xmlns="http://www.w3.org/2000/svg" viewBox="0 0 16 16" fill="currentColor"><path fill-rule="evenodd" d="M4.448 4.042c-.24.074-.448.364-.448.625a.7.7 0 0 0 .202.464c.213.213.058.202 2.956.202h2.561l-2.817 2.82c-2.747 2.75-2.819 2.824-2.86 2.965a.6.6 0 0 0-.001.422.67.67 0 0 0 .419.419.6.6 0 0 0 .422-.001c.141-.041.215-.113 2.965-2.86l2.82-2.817v2.561c0 2.898-.011 2.743.202 2.956a.7.7 0 0 0 .464.202c.268 0 .552-.208.626-.46.036-.119.041-.573.04-3.578 0-3.273-.003-3.447-.049-3.549a.68.68 0 0 0-.336-.35l-.134-.062-3.453.001c-2.928.001-3.473.008-3.579.04"/></svg>