<svg xmlns="http://www.w3.org/2000/svg" viewBox="0 0 16 16" fill="currentColor"><path fill-rule="evenodd" d="M7.72 2.731c-.107.051-.605.536-2.551 2.486-2.351 2.357-2.419 2.427-2.46 2.568a.6.6 0 0 0-.002.422.67.67 0 0 0 .419.419.6.6 0 0 0 .422-.002c.141-.041.204-.1 1.965-1.859l1.82-1.817v3.894c0 3.409.005 3.912.041 4.032a.69.69 0 0 0 .626.459.69.69 0 0 0 .626-.459c.036-.12.041-.623.041-4.032V4.948l1.82 1.817c1.761 1.759 1.824 1.818 1.965 1.859a.6.6 0 0 0 .422.002.67.67 0 0 0 .419-.419.6.6 0 0 0-.002-.422c-.041-.141-.109-.211-2.46-2.568C8.207 2.587 8.296 2.667 8 2.667a.6.6 0 0 0-.28.064"/></svg>