<svg xmlns="http://www.w3.org/2000/svg" viewBox="0 0 16 16" fill="currentColor"><path fill-rule="evenodd" d="M7.782 2.709a.69.69 0 0 0-.408.417.6.6 0 0 0 .002.422c.041.141.1.204 1.859 1.965l1.817 1.82H7.158c-3.409 0-3.912.005-4.032.041A.69.69 0 0 0 2.667 8c0 .268.208.551.459.626.12.036.623.041 4.032.041h3.894l-1.817 1.82c-1.759 1.761-1.818 1.824-1.859 1.965a.6.6 0 0 0-.002.422.67.67 0 0 0 .419.419.6.6 0 0 0 .422-.002c.141-.041.211-.108 2.566-2.46 1.873-1.87 2.435-2.448 2.486-2.55a.63.63 0 0 0 .002-.561c-.051-.107-.536-.605-2.486-2.551-2.357-2.351-2.427-2.419-2.568-2.46a.63.63 0 0 0-.433 0"/></svg>