<svg xmlns="http://www.w3.org/2000/svg" viewBox="0 0 16 16" fill="currentColor"><path fill-rule="evenodd" d="M7.38.693a7.47 7.47 0 0 0-3.967 1.585c-.257.204-.931.878-1.135 1.135A7.46 7.46 0 0 0 .743 6.96a8.5 8.5 0 0 0 0 2.08c.32 2.083 1.427 3.855 3.137 5.018a7.2 7.2 0 0 0 3.08 1.199 8.6 8.6 0 0 0 2.08 0c2.257-.345 4.143-1.618 5.3-3.577a7.4 7.4 0 0 0 .917-2.64 8.5 8.5 0 0 0 0-2.08 7.45 7.45 0 0 0-1.535-3.547 11.5 11.5 0 0 0-1.135-1.135A7.44 7.44 0 0 0 9.053.747C8.631.684 7.759.656 7.38.693m1.58 1.382a5.8 5.8 0 0 1 1.693.55 6 6 0 0 1 2.008 1.594 6.3 6.3 0 0 1 1.164 2.339c.128.511.161.801.161 1.442s-.033.931-.161 1.442c-.212.849-.658 1.733-1.194 2.371a6.07 6.07 0 0 1-3.189 2.012c-.511.128-.801.161-1.442.161s-.931-.033-1.442-.161c-.849-.212-1.733-.658-2.371-1.194a5.9 5.9 0 0 1-1.561-1.978 6 6 0 0 1-.564-1.76c-.067-.412-.067-1.374 0-1.786.176-1.072.627-2.091 1.277-2.888a6 6 0 0 1 2.008-1.593 6 6 0 0 1 2.133-.61c.27-.028 1.183.009 1.48.059M7.782 4.709a.69.69 0 0 0-.408.417.6.6 0 0 0 .002.422c.041.137.09.192.859.965l.816.82H7.157c-2.153 0-2.08-.006-2.288.202A.7.7 0 0 0 4.667 8c0 .158.08.343.202.465.208.208.135.202 2.288.202h1.894l-.816.82c-.769.773-.818.828-.859.965a.6.6 0 0 0-.002.422.67.67 0 0 0 .419.419.6.6 0 0 0 .422-.002c.14-.041.199-.096 1.566-1.46 1.544-1.541 1.553-1.551 1.552-1.83 0-.288 0-.287-1.55-1.832-1.369-1.363-1.429-1.419-1.568-1.46a.63.63 0 0 0-.433 0"/></svg>