<svg xmlns="http://www.w3.org/2000/svg" viewBox="0 0 16 16" fill="currentColor"><path fill-rule="evenodd" d="M7.782 2.709a.69.69 0 0 0-.408.417c-.036.12-.041.623-.041 4.032v3.894l-1.82-1.817C3.752 7.476 3.689 7.417 3.548 7.376a.6.6 0 0 0-.422-.002.67.67 0 0 0-.419.419.6.6 0 0 0 .002.422c.041.141.109.211 2.46 2.568 1.946 1.95 2.444 2.435 2.551 2.486a.63.63 0 0 0 .561-.002c.102-.051.68-.613 2.55-2.486 2.352-2.355 2.419-2.425 2.46-2.566a.6.6 0 0 0 .002-.422.67.67 0 0 0-.419-.419.6.6 0 0 0-.422.002c-.141.041-.204.1-1.965 1.859l-1.82 1.817V7.158c0-4.387.014-4.072-.202-4.289a.64.64 0 0 0-.683-.16"/></svg>