<svg xmlns="http://www.w3.org/2000/svg" viewBox="0 0 16 16" fill="currentColor"><path fill-rule="evenodd" d="M4.387 4.064a.63.63 0 0 0-.332.336c-.053.119-.054.157-.054 3.562-.001 3.005.004 3.459.04 3.578.074.252.358.46.626.46a.7.7 0 0 0 .464-.202c.213-.213.202-.058.202-2.956V6.281l2.82 2.817c2.75 2.747 2.824 2.819 2.965 2.86a.6.6 0 0 0 .422.001.67.67 0 0 0 .419-.419.6.6 0 0 0-.001-.422c-.041-.141-.113-.215-2.86-2.965l-2.817-2.82h2.561c2.898 0 2.743.011 2.956-.202A.7.7 0 0 0 12 4.667c0-.268-.208-.552-.46-.626C11.421 4.005 10.966 4 7.962 4l-3.442.001z"/></svg>