<svg xmlns="http://www.w3.org/2000/svg" viewBox="0 0 16 16" fill="currentColor"><path fill-rule="evenodd" d="M7.387.696a7.45 7.45 0 0 0-3.007.933 7.35 7.35 0 0 0-3.308 3.984 7.32 7.32 0 0 0 1.661 7.477c1.149 1.184 2.57 1.912 4.23 2.167.311.047.5.058.997.059.337 0 .727-.015.867-.033 1.193-.154 2.267-.544 3.193-1.158.595-.396.684-.504.686-.832.001-.156-.011-.207-.073-.311-.148-.253-.349-.356-.652-.337-.155.01-.184.023-.434.196-.491.34-.865.546-1.326.729a5.99 5.99 0 0 1-7.593-2.913 5.9 5.9 0 0 1-.554-1.719c-.078-.455-.084-1.391-.011-1.818.232-1.35.783-2.438 1.7-3.358.93-.932 2.095-1.511 3.45-1.713.394-.059 1.367-.043 1.76.028.792.142 1.576.44 2.205.837a6.2 6.2 0 0 1 1.96 1.993c.608 1.016.862 2.005.862 3.361 0 .623-.021.763-.15 1.019a1.7 1.7 0 0 1-.563.563 1.36 1.36 0 0 1-1.241 0c-.179-.091-.472-.384-.562-.563-.151-.297-.151-.291-.151-2.234 0-2.038.006-1.976-.202-2.184a.7.7 0 0 0-.464-.202c-.268 0-.552.208-.626.459a1 1 0 0 0-.041.172c0 .02-.074-.014-.18-.082a3.5 3.5 0 0 0-1.26-.499 4.7 4.7 0 0 0-1.12 0 3.36 3.36 0 0 0-2.712 2.669c-.06.306-.06.922 0 1.228.239 1.214 1.117 2.202 2.273 2.556.393.12.571.146.999.146s.606-.026.999-.146a3.36 3.36 0 0 0 1.297-.762l.202-.194.141.174c.522.643 1.464 1.021 2.302.923a2.67 2.67 0 0 0 2.364-2.306c.036-.262.036-1.159.002-1.565-.212-2.475-1.552-4.586-3.694-5.815A7.4 7.4 0 0 0 7.387.696M8.573 6.08a2.06 2.06 0 0 1 1.351 1.36c.053.168.063.257.063.56s-.01.392-.063.56A2.06 2.06 0 0 1 8.56 9.924c-.289.09-.831.09-1.12 0A2.06 2.06 0 0 1 6.076 8.56c-.053-.168-.063-.257-.063-.56s.01-.392.063-.56a2.06 2.06 0 0 1 1.553-1.413c.205-.043.734-.014.944.053"/></svg>