<svg xmlns="http://www.w3.org/2000/svg" viewBox="0 0 16 16" fill="currentColor"><path fill-rule="evenodd" d="M2.675 1.052a1 1 0 0 0-.587.535l-.075.16v11.386l.057.12c.139.293.343.475.63.564.149.047.295.05 2.456.049h2.297l-.133-.063a1.7 1.7 0 0 1-.779-.783l-.065-.14H3.013V2h6.185l.007.727c.008.723.009.727.079.878.1.212.264.38.473.482l.176.086.727.009.727.008v4.494l.144.1c.284.195.575.556.751.932l.089.191.001-3.248c.001-2.86-.004-3.259-.04-3.347-.05-.122-2.083-2.17-2.231-2.247-.096-.05-.191-.052-3.707-.05-2.889.002-3.629.009-3.719.037m8.152 2.128c0 .012-.141.018-.314.014l-.313-.007-.007-.334-.008-.333.321.32c.176.175.321.329.321.34m-6.94 3.009c-.355.187-.328.711.045.881.103.046.259.049 3.255.049 2.986 0 3.152-.003 3.253-.049.308-.14.4-.519.186-.772-.147-.176.082-.165-3.443-.163-3.133.001-3.198.002-3.296.054m.135 2.423a.525.525 0 0 0-.394.481.6.6 0 0 0 .162.366c.155.142.137.141 1.84.141h1.577l.208-.198a4 4 0 0 1 .918-.661l.294-.153-2.254.002c-1.239.002-2.297.011-2.351.022m5.457.627a2.68 2.68 0 0 0-2.162 1.974 2 2 0 0 0-.072.614c-.003.475.072.804.279 1.224.328.665.938 1.163 1.69 1.381.187.054.269.061.679.06.565-.001.741-.041 1.196-.268l.302-.151.444.44c.55.544.633.592.895.516a.48.48 0 0 0 .312-.669c-.03-.064-.226-.282-.493-.546a8 8 0 0 1-.442-.458c0-.011.042-.09.094-.178a2.8 2.8 0 0 0 .346-1.469 2.665 2.665 0 0 0-3.068-2.47m.808 1.014a1.66 1.66 0 0 1 1.208 1.207 1.64 1.64 0 0 1-.863 1.873c-.498.246-.981.245-1.484-.003a1.64 1.64 0 0 1-.899-1.37 1.64 1.64 0 0 1 .596-1.376c.156-.13.464-.286.654-.332a2.2 2.2 0 0 1 .788.001m-6.22.587a1 1 0 0 1-.098.024c-.169.037-.341.274-.341.469 0 .207.165.423.366.479.061.017.532.028 1.222.028h1.123l.017-.199c.014-.17.04-.307.143-.754l.014-.06-1.21.002c-.665.001-1.222.006-1.236.011"/></svg>