<svg xmlns="http://www.w3.org/2000/svg" viewBox="0 0 16 16" fill="currentColor"><path fill-rule="evenodd" d="M7.613.015c-.044.007-.194.025-.333.041a6 6 0 0 0-1.2.304 5.34 5.34 0 0 0-3.352 4.187 6.7 6.7 0 0 0 0 1.573q.21 1.35 1.025 2.434c.19.254.597.68.824.864.127.104.17.155.17.205 0 .037-.169 1.334-.375 2.882-.207 1.548-.37 2.86-.363 2.915a.666.666 0 0 0 .794.558c.098-.023.557-.284 1.666-.95L8 14.109l1.509.906c.83.498 1.569.925 1.641.949a.657.657 0 0 0 .825-.479c.028-.126-.003-.393-.346-2.967a274 274 0 0 1-.376-2.895c0-.05.043-.102.17-.205a6.3 6.3 0 0 0 .824-.864 5.36 5.36 0 0 0 1.025-2.434 6.7 6.7 0 0 0 0-1.573C12.91 2.223 11.117.422 8.812.066 8.553.026 7.773-.007 7.613.015m.869 1.347c.489.064.928.203 1.379.438.372.194.651.4.962.711a3.99 3.99 0 0 1-1.029 6.392 4 4 0 0 1-2.276.401c-2.393-.31-3.975-2.607-3.397-4.931.121-.486.353-.986.643-1.389.196-.273.613-.69.887-.887.242-.175.674-.407.948-.509a4.1 4.1 0 0 1 1.883-.226m-2.29 8.987c.209.082.799.227 1.088.268a7.7 7.7 0 0 0 1.427.001 6.3 6.3 0 0 0 1.035-.248c.13-.044.24-.077.245-.071.019.018.499 3.703.485 3.718-.008.008-.507-.28-1.107-.641-1.19-.714-1.255-.744-1.501-.687-.097.022-.45.22-1.229.687-.6.361-1.099.649-1.107.641s.089-.804.217-1.769c.276-2.089.256-1.955.284-1.955.012 0 .086.025.163.056"/></svg>