<svg xmlns="http://www.w3.org/2000/svg" viewBox="0 0 16 16" fill="currentColor"><path fill-rule="evenodd" d="M7.587 1.063a1.56 1.56 0 0 0-1.066 1.085c-.052.2-.053.569-.001.773.131.513.551.945 1.067 1.095.235.068.616.064.853-.01.429-.133.731-.399.97-.852.092-.175.175-.297.234-.342a.68.68 0 0 1 1.025.233c.115.225.094.418-.083.774a2.5 2.5 0 0 1-.545.755 2.7 2.7 0 0 1-.863.601 2.9 2.9 0 0 1-3.971-1.916c-.062-.23-.07-.31-.071-.712-.001-.346.01-.497.045-.638a.7.7 0 0 0 .034-.196c-.007-.007-.118.051-.247.128-.991.592-1.807 1.459-2.296 2.439a5.8 5.8 0 0 0-.499 1.373c-.04.169-.101.358-.137.419-.122.215-.35.328-.658.328-.362 0-.656.116-.923.364a1.31 1.31 0 0 0-.031 1.905c.349.349.768.463 1.296.354.199-.041.224-.041.368.001.239.07.337.177.558.614.798 1.573 2.179 2.694 3.848 3.123.554.142.887.183 1.493.184.731.001 1.286-.087 1.923-.307a5.96 5.96 0 0 0 3.463-3.039c.274-.549.473-.669.949-.572.512.105.99-.049 1.32-.423a1.33 1.33 0 0 0-.201-1.939c-.248-.186-.397-.236-.788-.263-.323-.023-.44-.065-.595-.218-.123-.121-.145-.174-.244-.584a5.98 5.98 0 0 0-5.049-4.546c-.425-.055-.97-.051-1.178.009M6.071 6.6c.221.109.38.27.486.493.061.129.07.18.07.427 0 .248-.008.297-.072.433a1.16 1.16 0 0 1-.468.483 1.03 1.03 0 0 1-1.405-.489c-.074-.156-.082-.199-.082-.427 0-.229.008-.27.085-.432A1.01 1.01 0 0 1 6.071 6.6m4.521-.09c.372.079.644.323.768.69.243.718-.4 1.472-1.139 1.336a1.05 1.05 0 0 1-.769-.576c-.072-.146-.079-.184-.079-.44 0-.247.009-.298.07-.427.096-.203.258-.375.445-.475.252-.134.443-.163.704-.108m-6.597 6.283a4.4 4.4 0 0 0-.77 1.793 4 4 0 0 0-.052.322c0 .051.047.052 4.827.052h4.827v-.069c0-.267-.238-1.075-.428-1.454-.204-.406-.521-.866-.571-.826a7.3 7.3 0 0 1-2.055.855c-.669.17-.937.201-1.773.201s-1.104-.031-1.773-.201a7.4 7.4 0 0 1-1.24-.427 8 8 0 0 1-.788-.416c-.054-.035-.065-.025-.204.17"/></svg>