<svg xmlns="http://www.w3.org/2000/svg" viewBox="0 0 16 16" fill="currentColor"><path fill-rule="evenodd" d="M11.782 2.042a.69.69 0 0 0-.408.418c-.036.12-.041.78-.041 5.54s.005 5.42.041 5.54c.075.252.358.46.626.46a.69.69 0 0 0 .626-.46c.036-.12.041-.78.041-5.54 0-6.072.017-5.579-.202-5.798a.64.64 0 0 0-.683-.16m-4 4a.69.69 0 0 0-.408.418c-.035.119-.041.571-.041 3.54s.006 3.421.041 3.54c.075.252.358.46.626.46a.69.69 0 0 0 .626-.46c.035-.119.041-.571.041-3.54 0-3.838.013-3.582-.202-3.798a.64.64 0 0 0-.683-.16m-4 4a.69.69 0 0 0-.408.418c-.06.203-.06 2.877 0 3.08.075.252.358.46.626.46.158 0 .343-.08.465-.202.203-.204.202-.191.202-1.798s.001-1.594-.202-1.798a.64.64 0 0 0-.683-.16"/></svg>