<svg xmlns="http://www.w3.org/2000/svg" viewBox="0 0 16 16" fill="currentColor"><path fill-rule="evenodd" d="M1.671 3.361c-.429.072-.732.234-1.073.572-.274.271-.411.49-.517.827l-.068.213L.006 7.88c-.005 1.881.002 2.969.019 3.083.071.459.225.754.575 1.104.346.346.638.499 1.089.573.225.036 9.73.036 9.956 0 .451-.074.743-.227 1.089-.573s.499-.638.572-1.089c.036-.223.036-5.733 0-5.956-.073-.451-.226-.743-.572-1.089s-.638-.499-1.089-.573c-.2-.032-9.78-.031-9.974.001m9.882 1.344a.7.7 0 0 1 .36.303l.074.125v5.734l-.074.125a.7.7 0 0 1-.36.303c-.148.053-9.625.053-9.773 0a.7.7 0 0 1-.359-.303l-.074-.125V5.133l.074-.125a.7.7 0 0 1 .359-.303c.148-.053 9.625-.053 9.773 0m3.562 2.004a.69.69 0 0 0-.408.417c-.059.199-.059 1.549 0 1.748a.69.69 0 0 0 .626.459.7.7 0 0 0 .465-.202C15.987 8.942 16 8.868 16 8s-.013-.942-.202-1.131a.64.64 0 0 0-.683-.16"/></svg>