<svg xmlns="http://www.w3.org/2000/svg" viewBox="0 0 16 16" fill="currentColor"><path fill-rule="evenodd" d="M1.671 3.361c-.432.074-.732.234-1.073.572-.274.271-.411.49-.517.827l-.068.213L.006 7.88c-.005 1.881.002 2.969.019 3.083.071.459.225.754.575 1.104.346.346.638.499 1.089.573.09.014.513.026.939.026.911.001.98-.011 1.17-.201A.7.7 0 0 0 4 12c0-.149-.08-.34-.189-.453-.191-.197-.199-.198-1.158-.213L1.8 11.32l-.126-.074a.7.7 0 0 1-.303-.359c-.052-.148-.052-5.626 0-5.774a.7.7 0 0 1 .303-.359L1.8 4.68l1.253-.013c1.219-.013 1.257-.015 1.361-.071A.65.65 0 0 0 4.779 4a.65.65 0 0 0-.365-.596c-.105-.056-.133-.057-1.361-.061-.689-.003-1.311.006-1.382.018m5.458.009a1 1 0 0 0-.195.096c-.082.059-2.824 4.135-2.885 4.29a.676.676 0 0 0 .339.845c.1.05.182.053 1.565.066l1.46.013-1.011 1.517c-.643.966-1.022 1.56-1.043 1.634-.096.343.128.717.489.813.162.043.384 0 .534-.103.083-.058.401-.516 1.49-2.15a107 107 0 0 0 1.411-2.145.67.67 0 0 0-.138-.698c-.203-.209-.128-.2-1.765-.215L5.92 7.32l1.01-1.515c.555-.834 1.023-1.561 1.04-1.617a.666.666 0 0 0-.841-.818m2.653.005c-.241.074-.449.364-.449.625 0 .149.08.34.189.453.192.197.199.198 1.158.213l.853.014.126.074c.142.083.25.212.303.359.053.148.053 5.626 0 5.774a.7.7 0 0 1-.303.359l-.126.074-1.253.013c-1.218.013-1.256.015-1.36.071a.664.664 0 0 0 0 1.192c.104.056.137.058 1.32.065.737.005 1.282-.003 1.389-.02.46-.071.755-.224 1.105-.574.346-.346.499-.638.572-1.089.036-.223.036-5.733 0-5.956-.073-.451-.226-.743-.572-1.089s-.638-.499-1.089-.573c-.266-.043-1.712-.031-1.863.015m5.333 3.334a.69.69 0 0 0-.408.417c-.059.199-.059 1.549 0 1.748a.69.69 0 0 0 .626.459.7.7 0 0 0 .465-.202C15.987 8.942 16 8.868 16 8s-.013-.942-.202-1.131a.64.64 0 0 0-.683-.16"/></svg>