<svg xmlns="http://www.w3.org/2000/svg" viewBox="0 0 16 16" fill="currentColor"><path fill-rule="evenodd" d="M7.565.695a4.67 4.67 0 0 0-3.584 2.284c-.443.752-.646 1.562-.648 2.581 0 .577-.081 1.456-.185 2.016-.154.832-.347 1.418-.684 2.081-.229.449-.433.73-.77 1.059-.239.233-.285.291-.32.409a1 1 0 0 0-.041.223c0 .21.151.449.356.562l.138.077 6.119.007c6.877.007 6.298.025 6.519-.196a.645.645 0 0 0 .12-.762 2.2 2.2 0 0 0-.303-.343 3.6 3.6 0 0 1-.746-1.036c-.337-.663-.53-1.249-.684-2.081a13 13 0 0 1-.185-2.016 9 9 0 0 0-.028-.623A4.646 4.646 0 0 0 8.396.694a3.8 3.8 0 0 0-.831.001m1.102 1.372c.42.092.845.272 1.21.512.244.161.717.633.877.878.345.522.543 1.112.568 1.69l.039.887c.063 1.433.277 2.538.695 3.587.135.337.327.737.44.916a1 1 0 0 1 .064.116c0 .007-2.052.014-4.56.014s-4.56-.007-4.56-.014c0-.008.029-.06.064-.116.113-.179.305-.579.44-.916.415-1.043.632-2.16.694-3.581l.04-.893a3.4 3.4 0 0 1 .567-1.69c.16-.245.634-.718.878-.879.461-.302.82-.436 1.504-.562.14-.026.847.009 1.04.051M6.64 13.374a.7.7 0 0 0-.38.315c-.045.086-.059.157-.059.312-.001.183.008.215.092.358.186.312.496.593.85.772.486.247 1.228.247 1.714 0 .354-.179.664-.46.85-.772.084-.142.093-.176.093-.358 0-.165-.012-.222-.067-.32a.68.68 0 0 0-.723-.325c-.172.039-.307.137-.434.312-.159.22-.354.332-.576.332q-.336 0-.577-.334c-.208-.287-.477-.387-.783-.292"/></svg>