<svg xmlns="http://www.w3.org/2000/svg" viewBox="0 0 16 16" fill="currentColor"><path fill-rule="evenodd" d="M.448.042A.69.69 0 0 0 .041.46a.6.6 0 0 0 .001.422c.041.14.1.201 1.724 1.829.924.926 1.673 1.696 1.664 1.71-.036.059-.097.734-.097 1.086a13 13 0 0 1-.185 2.069c-.154.832-.347 1.418-.684 2.081a3.6 3.6 0 0 1-.771 1.058c-.24.232-.282.285-.318.407a1 1 0 0 0-.042.226c0 .21.151.449.356.562l.138.077 4.613.007 4.613.007 1.96 1.957c1.9 1.897 1.965 1.959 2.105 2a.6.6 0 0 0 .422.001.67.67 0 0 0 .419-.419c.052-.172.051-.241-.001-.422-.041-.142-.167-.269-7.487-7.589S1.024.083.882.042a.63.63 0 0 0-.434 0m7.019.654a4.6 4.6 0 0 0-1.867.637c-.284.171-.339.222-.417.387a.658.658 0 0 0 .944.838C6.894 2.127 7.319 2 7.994 2c.565.001.968.093 1.466.337a3.33 3.33 0 0 1 1.726 2.013c.101.319.147.671.148 1.13 0 .424.034 1.034.081 1.453.077.693.3 1.778.415 2.02.238.499.932.495 1.191-.006.077-.151.069-.361-.029-.747-.213-.835-.291-1.456-.326-2.587-.031-1.01-.088-1.372-.305-1.933A4.68 4.68 0 0 0 9.112.798 5 5 0 0 0 7.467.696m-.885 9.964c-1.718.004-3.129.002-3.135-.004s.019-.058.055-.115c.201-.319.499-1.011.668-1.554.245-.789.421-1.824.456-2.694.009-.212.023-.451.031-.531l.015-.144 2.517 2.518 2.518 2.517zm.058 2.714a.7.7 0 0 0-.38.315c-.045.086-.059.157-.059.312-.001.183.008.215.092.358.186.312.496.593.85.772.486.247 1.228.247 1.714 0 .354-.179.664-.46.85-.772.084-.142.093-.176.093-.358 0-.165-.012-.222-.067-.32a.68.68 0 0 0-.723-.325c-.172.039-.307.137-.434.312-.159.22-.354.332-.576.332q-.336 0-.577-.334c-.208-.287-.477-.387-.783-.292"/></svg>