<svg xmlns="http://www.w3.org/2000/svg" viewBox="0 0 16 16" fill="currentColor"><path fill-rule="evenodd" d="M7.782.041a.7.7 0 0 0-.408.419c-.035.118-.041.517-.041 3.031v2.894L6.02 5.076C4.56 3.62 4.614 3.664 4.284 3.685a.616.616 0 0 0-.599.599c-.022.334-.099.241 1.725 2.069L7.052 8 5.41 9.647c-1.824 1.828-1.747 1.735-1.725 2.069.021.339.26.578.599.599.33.021.276.065 1.736-1.391l1.312-1.309.008 2.946c.006 2.866.008 2.949.059 3.051.079.16.24.302.396.348.17.051.24.05.42-.002.14-.041.205-.102 2.059-1.954 1.471-1.468 1.93-1.941 1.98-2.043a.7.7 0 0 0 .011-.574c-.041-.092-.437-.504-1.686-1.754L8.947 8l1.632-1.633c1.249-1.25 1.645-1.662 1.686-1.754a.7.7 0 0 0-.011-.574c-.051-.102-.506-.571-1.967-2.028Q8.387.116 8.285.069a.77.77 0 0 0-.503-.028M9.7 3.313l1.02 1.021L9.693 5.36 8.667 6.386V4.34c0-1.126.003-2.047.006-2.047.004 0 .466.459 1.027 1.02m0 7.334 1.02 1.02-1.027 1.026-1.026 1.027v-2.047c0-1.125.003-2.046.006-2.046.004 0 .466.459 1.027 1.02"/></svg>