<svg xmlns="http://www.w3.org/2000/svg" viewBox="0 0 16 16" fill="currentColor"><path fill-rule="evenodd" d="M3.782 2.042a.69.69 0 0 0-.408.418c-.036.12-.041.78-.041 5.54 0 6.073-.017 5.579.203 5.798.217.218-.022.205 3.654.195 3.008-.009 3.265-.013 3.449-.057.737-.176 1.296-.482 1.756-.961.445-.464.725-1.003.873-1.682.065-.294.065-.959 0-1.252-.199-.915-.685-1.65-1.408-2.131l-.234-.156.157-.167c.399-.427.677-.98.819-1.628.064-.293.064-.958 0-1.252-.148-.679-.428-1.218-.873-1.682-.46-.479-1.02-.786-1.756-.961-.184-.044-.427-.048-3.133-.054-2.512-.006-2.951-.002-3.058.032m6.125 1.367c.66.222 1.148.714 1.35 1.364.09.29.09.831 0 1.12a2.08 2.08 0 0 1-1.35 1.364l-.187.063-2.527.007-2.526.008V3.332l2.526.007 2.527.008zm.666 5.334a2.07 2.07 0 0 1 1.351 1.364c.09.289.09.83 0 1.12a2.08 2.08 0 0 1-1.351 1.364l-.186.062-2.86.008-2.86.007V8.665l2.86.008 2.86.007z"/></svg>