<svg xmlns="http://www.w3.org/2000/svg" viewBox="0 0 16 16" fill="currentColor"><path fill-rule="evenodd" d="M3.916.708A2.35 2.35 0 0 0 2.061 2.48c-.045.188-.048.524-.048 5.52s.003 5.332.048 5.52c.198.841.83 1.492 1.686 1.738l.213.062 4.718.007c5.313.008 4.9.024 5.12-.195.221-.221.202.432.202-7.132 0-7.562.018-6.911-.202-7.131-.219-.219.186-.203-5.036-.2-3.834.002-4.678.009-4.846.039m8.751 5.625v4.334h-4.25c-4.618 0-4.486-.004-4.886.146a3 3 0 0 1-.188.067c-.006 0-.007-1.827-.003-4.06l.007-4.06.082-.173q.195-.41.638-.55c.084-.026 1.001-.034 4.353-.035L12.667 2zm0 6.667v1.001l-4.287-.007-4.287-.007-.173-.083a1 1 0 0 1-.491-.491c-.073-.154-.082-.2-.082-.413s.009-.259.082-.413q.195-.41.638-.55c.084-.026 1.001-.034 4.353-.035L12.667 12z"/></svg>