<svg xmlns="http://www.w3.org/2000/svg" viewBox="0 0 16 16" fill="currentColor"><path fill-rule="evenodd" d="M1.115 1.375a.69.69 0 0 0-.408.418c-.035.12-.04.745-.04 5.207 0 5.7-.017 5.246.202 5.465.212.212.07.202 2.85.202 2.671 0 2.597-.004 2.901.15.179.091.472.384.563.563.095.187.15.41.151.606 0 .113.018.2.063.294.307.65 1.266.428 1.269-.294.001-.196.056-.42.151-.606.091-.179.384-.472.563-.563.304-.154.23-.15 2.901-.15 2.78 0 2.638.01 2.85-.202.219-.219.202.235.202-5.465s.017-5.246-.202-5.465c-.21-.21-.112-.202-2.481-.202-1.343 0-2.186.011-2.362.03a3.45 3.45 0 0 0-1.596.627c-.199.142-.55.481-.647.623L8 2.679l-.045-.066a3.4 3.4 0 0 0-2.254-1.251c-.161-.018-1.05-.028-2.36-.027-1.75.002-2.122.008-2.226.04m4.792 1.368a2.1 2.1 0 0 1 1.35 1.35l.063.187.007 3.7c.004 2.035.001 3.7-.007 3.7s-.078-.032-.154-.071a2.6 2.6 0 0 0-.766-.237c-.205-.031-.651-.038-2.327-.039H2V2.665l1.86.008 1.86.007zM14 7v4.333h-2.073c-1.676.001-2.122.008-2.327.039a2.6 2.6 0 0 0-.766.237 1 1 0 0 1-.154.071c-.008 0-.011-1.665-.007-3.7l.007-3.7.063-.187c.243-.726.832-1.256 1.552-1.397.065-.013.925-.025 1.912-.026L14 2.667z"/></svg>