<svg xmlns="http://www.w3.org/2000/svg" viewBox="0 0 16 16" fill="currentColor"><path fill-rule="evenodd" d="M4.338 1.361c-.431.073-.733.234-1.072.572-.35.35-.504.646-.574 1.104-.017.116-.024 2.067-.019 5.656.007 5.384.008 5.482.059 5.586.166.333.574.478.887.315a124 124 0 0 0 2.221-1.569C7.006 12.192 7.978 11.51 8 11.51s.994.682 2.16 1.515c1.166.834 2.162 1.538 2.214 1.565a.65.65 0 0 0 .757-.125c.22-.22.202.28.202-5.837 0-3.509-.01-5.5-.027-5.606-.073-.451-.226-.743-.572-1.089s-.638-.499-1.089-.573c-.2-.032-7.114-.031-7.307.001m7.323 1.394a.7.7 0 0 1 .312.392c.018.065.025 1.737.02 4.825l-.006 4.725-1.8-1.286a92 92 0 0 0-1.907-1.342.7.7 0 0 0-.56.001c-.059.031-.892.616-1.85 1.301a440 440 0 0 1-1.807 1.287l-.064.042.007-4.783.007-4.784.074-.125a.7.7 0 0 1 .36-.303c.082-.03.721-.035 3.593-.031l3.493.006z"/></svg>