<svg xmlns="http://www.w3.org/2000/svg" viewBox="0 0 16 16" fill="currentColor"><path fill-rule="evenodd" d="M3.999 1.074c-.437.149-.797.546-.95 1.048-.045.15-.048.476-.055 6.515-.008 6.068-.006 6.356.039 6.343.026-.008 1.154-.531 2.507-1.163L8 12.668l2.46 1.149c1.353.632 2.481 1.155 2.507 1.163.045.013.047-.275.039-6.343-.007-6.039-.01-6.365-.055-6.515a1.6 1.6 0 0 0-.613-.871c-.367-.258.005-.238-4.347-.237l-3.818.001zm6.481 3.049c0 .009-.234.356-.52.771s-.52.763-.52.773.234.358.52.773.52.762.52.771c0 .008-.72.016-1.6.016h-1.6v2.32H6.213v-5.44h2.134c1.173 0 2.133.007 2.133.016"/></svg>