<svg xmlns="http://www.w3.org/2000/svg" viewBox="0 0 16 16" fill="currentColor"><path fill-rule="evenodd" d="M7.711.694a1.9 1.9 0 0 0-.604.193c-.25.125-4.615 2.622-4.846 2.772-.227.147-.536.454-.646.642-.111.19-.223.527-.255.769-.02.154-.027 1.107-.021 3.077.008 2.633.013 2.865.056 3.013.15.508.462.927.898 1.205.294.186 4.668 2.678 4.867 2.771q.268.126.726.23c.122.028.164.024.36-.03.379-.105.482-.141.647-.223.209-.105 4.587-2.604 4.814-2.748.436-.278.748-.697.898-1.205.043-.148.048-.38.056-3.013.006-1.97-.001-2.923-.021-3.077a2.4 2.4 0 0 0-.255-.769c-.11-.188-.419-.495-.646-.642C13.454 3.473 9.07.972 8.84.863a2.5 2.5 0 0 0-.337-.127 2.6 2.6 0 0 0-.792-.042m.548 1.367c.212.09 4.381 2.483 4.36 2.502A442 442 0 0 1 8 7.227c-.02 0-4.582-2.63-4.619-2.664-.02-.018 4.359-2.525 4.446-2.545a.77.77 0 0 1 .432.043M5.015 7.047l2.318 1.34v2.66c0 1.463-.006 2.66-.013 2.66-.053 0-4.383-2.505-4.455-2.577-.2-.2-.184.032-.192-2.843-.004-1.419 0-2.58.008-2.58s1.059.603 2.334 1.34m8.312 1.24c-.008 2.875.008 2.643-.192 2.843-.072.072-4.402 2.577-4.455 2.577-.007 0-.013-1.197-.013-2.66v-2.66l2.313-1.339a211 211 0 0 1 2.334-1.34c.011-.001.017 1.16.013 2.579"/></svg>