<svg xmlns="http://www.w3.org/2000/svg" viewBox="0 0 16 16" fill="currentColor"><path fill-rule="evenodd" d="M6.338 1.361c-.431.073-.733.234-1.072.572-.467.468-.599.832-.599 1.66V4H3.593c-.59 0-1.147.012-1.238.027-.451.073-.743.227-1.089.573s-.499.638-.572 1.089c-.037.224-.037 7.065 0 7.289.073.451.226.743.572 1.089s.638.499 1.089.573c.226.036 11.064.036 11.29 0 .451-.074.743-.227 1.089-.573s.499-.638.572-1.089c.037-.224.037-7.065 0-7.289-.073-.451-.226-.743-.572-1.089s-.638-.5-1.089-.573C13.554 4.012 12.997 4 12.407 4h-1.074v-.407c0-.828-.132-1.192-.599-1.66-.346-.346-.638-.499-1.089-.573-.197-.031-3.117-.031-3.307.001m3.215 1.344a.7.7 0 0 1 .36.303c.071.121.074.141.083.559l.009.433h-4.01l.009-.433c.009-.418.012-.438.083-.559a.7.7 0 0 1 .36-.303c.146-.052 2.96-.052 3.106 0M4.667 9.334v4.002l-1.1-.008-1.1-.008-.128-.075a.72.72 0 0 1-.313-.393c-.018-.066-.024-1.294-.02-3.576L2.013 5.8l.074-.126a.8.8 0 0 1 .167-.196c.182-.139.212-.142 1.353-.143l1.06-.002zM10 9.333v4H6v-8h4zm3.659-3.912a.7.7 0 0 1 .303.359c.053.148.053 6.959 0 7.107a.7.7 0 0 1-.303.359l-.126.074-1.1.008-1.1.008V5.331l1.1.008 1.1.008z"/></svg>