<svg xmlns="http://www.w3.org/2000/svg" viewBox="0 0 16 16" fill="currentColor"><path fill-rule="evenodd" d="M5.115.709a.6.6 0 0 0-.246.159c-.168.168-.202.299-.202.764V2h-.74c-.407 0-.814.012-.905.027-.451.073-.743.227-1.089.573s-.499.638-.573 1.089c-.036.225-.036 9.73 0 9.956.074.451.227.743.573 1.089s.638.499 1.089.572c.226.037 9.73.037 9.956 0 .451-.073.743-.226 1.089-.572s.499-.638.573-1.089c.036-.226.036-9.731 0-9.956-.074-.451-.227-.743-.573-1.089s-.638-.5-1.089-.573A10 10 0 0 0 12.073 2h-.74v-.368c0-.465-.034-.596-.202-.763a.7.7 0 0 0-.464-.202.7.7 0 0 0-.465.202c-.167.167-.202.298-.202.763V2H6v-.368c0-.465-.035-.596-.202-.763a.64.64 0 0 0-.683-.16m-.448 2.993c0 .464.034.595.202.763a.7.7 0 0 0 .464.202.7.7 0 0 0 .465-.202c.167-.168.202-.299.202-.763v-.369h4v.369c0 .464.035.595.202.763a.7.7 0 0 0 .465.202.7.7 0 0 0 .464-.202c.168-.168.202-.299.202-.765v-.37l.767.008.767.009.125.074c.07.04.158.115.197.166.139.182.142.213.143 1.353L13.333 6H2.664l.008-1.1.008-1.1.074-.126a.8.8 0 0 1 .167-.196c.174-.133.238-.142 1.019-.143l.727-.002zm8.66 6.731-.007 3.1-.074.126a.7.7 0 0 1-.359.303c-.149.053-9.625.053-9.774 0a.7.7 0 0 1-.359-.303l-.074-.126-.007-3.1-.007-3.1h10.668z"/></svg>