<svg xmlns="http://www.w3.org/2000/svg" viewBox="0 0 16 16" fill="currentColor"><path fill-rule="evenodd" d="M5.849 1.359a1 1 0 0 0-.207.092c-.108.063-.192.177-.727.977l-.604.905-1.229.001c-.693 0-1.301.011-1.393.026-.45.073-.742.227-1.091.573-.274.271-.411.49-.517.827l-.068.213L.006 8.88c-.005 2.55.002 3.968.019 4.083.071.458.225.754.575 1.104.346.346.638.499 1.089.573.226.036 12.396.036 12.622 0 .451-.074.743-.227 1.089-.573s.5-.638.573-1.089c.036-.225.036-7.731 0-7.956-.073-.451-.227-.743-.573-1.089s-.638-.499-1.089-.573c-.093-.015-.7-.026-1.394-.026l-1.229-.001-.565-.848c-.31-.466-.598-.885-.64-.931a1 1 0 0 0-.193-.145l-.117-.062-2.12-.005c-1.166-.002-2.158.005-2.204.017m4.361 2.156c.311.466.599.885.64.931a1 1 0 0 0 .193.145l.117.062 1.52.014 1.52.013.128.075a.7.7 0 0 1 .312.393c.018.066.025 1.405.02 3.91l-.007 3.809-.074.125a.7.7 0 0 1-.359.303c-.082.03-1.175.036-6.22.036s-6.138-.006-6.22-.036a.7.7 0 0 1-.359-.303l-.074-.125-.007-3.809c-.005-2.505.002-3.844.02-3.91a.7.7 0 0 1 .312-.393L1.8 4.68l1.52-.013 1.52-.014.117-.062a1 1 0 0 0 .193-.145c.041-.046.329-.465.64-.931l.565-.848h3.29zM7.72 5.349c-.378.052-.513.08-.733.15a3.35 3.35 0 0 0-2.259 2.553c-.053.273-.06.917-.011 1.175A3.36 3.36 0 0 0 7.44 11.95c.224.042.896.042 1.12 0 1.248-.234 2.251-1.112 2.61-2.284a2.8 2.8 0 0 0 .147-.986 2.9 2.9 0 0 0-.15-1.027A3.34 3.34 0 0 0 8.63 5.4c-.217-.041-.762-.072-.91-.051m.853 1.397a2.06 2.06 0 0 1 1.351 1.361c.053.168.063.257.063.56 0 .302-.01.391-.063.56a2.06 2.06 0 0 1-1.364 1.364c-.289.09-.831.09-1.12 0a2.06 2.06 0 0 1-1.364-1.364c-.053-.169-.063-.258-.063-.56s.01-.392.063-.56a2.06 2.06 0 0 1 1.553-1.413c.205-.043.734-.014.944.052"/></svg>