<svg xmlns="http://www.w3.org/2000/svg" viewBox="0 0 16 16" fill="currentColor"><path fill-rule="evenodd" d="M.448.042A.69.69 0 0 0 .041.46a.6.6 0 0 0 .002.422c.04.138.093.195 1.192 1.298l1.15 1.153-.266.001c-.676 0-1.079.159-1.519.599-.346.346-.5.638-.573 1.089-.036.225-.036 7.731 0 7.956.073.451.227.743.573 1.089s.638.499 1.089.573c.106.017 2.259.026 6.096.026l5.932.001.628.623c.584.579.64.627.774.667a.58.58 0 0 0 .421.002.67.67 0 0 0 .419-.419c.052-.172.051-.241-.001-.422-.041-.142-.167-.269-7.487-7.589S1.024.083.882.042a.63.63 0 0 0-.434 0m5.334 1.333c-.241.075-.449.364-.449.625 0 .158.081.343.202.465.209.208.139.202 2.252.202h1.858l.565.848c.311.466.599.885.64.931a1 1 0 0 0 .193.145l.117.062 1.52.014c1.221.01 1.533.02 1.587.05.143.079.242.17.312.291l.074.125.014 3.307.013 3.307.058.109a.8.8 0 0 0 .346.321.9.9 0 0 0 .464.01c.125-.035.306-.192.38-.33l.059-.11.007-3.267c.005-2.108-.002-3.329-.02-3.443-.07-.458-.224-.754-.574-1.104-.346-.346-.638-.499-1.089-.573-.093-.015-.7-.026-1.394-.026l-1.229-.001-.565-.848c-.31-.466-.598-.885-.64-.931a1 1 0 0 0-.193-.145l-.117-.062-2.133-.006c-1.803-.004-2.153.001-2.258.034M4.613 5.559l.892.893-.059.074a3.54 3.54 0 0 0-.701 1.394c-.081.326-.101.992-.039 1.319.26 1.386 1.216 2.372 2.627 2.712.231.056 1.051.048 1.332-.013a3.55 3.55 0 0 0 1.476-.717l.074-.059 1.086 1.086 1.086 1.085-5.254-.001c-4.319-.001-5.271-.007-5.353-.037a.7.7 0 0 1-.359-.303l-.074-.125V5.133l.074-.125a.8.8 0 0 1 .166-.197c.18-.137.224-.142 1.213-.143l.92-.001zm3.254 3.256 1.4 1.401-.08.067c-.126.104-.541.297-.747.347a2.2 2.2 0 0 1-.958-.014 1.99 1.99 0 0 1-1.487-1.923 1.8 1.8 0 0 1 .176-.839c.092-.201.243-.441.277-.441.01 0 .649.631 1.419 1.402"/></svg>