<svg xmlns="http://www.w3.org/2000/svg" viewBox="0 0 16 16" fill="currentColor"><path fill-rule="evenodd" d="M1.671 2.028C1.24 2.1.938 2.262.6 2.6c-.346.346-.5.638-.573 1.089-.036.225-.036 8.397 0 8.622.073.451.227.743.573 1.089s.638.5 1.089.573c.226.037 12.396.037 12.622 0 .451-.073.743-.227 1.089-.573s.5-.638.573-1.089c.036-.225.036-8.397 0-8.622-.073-.451-.227-.743-.573-1.089s-.638-.5-1.089-.573c-.2-.032-12.446-.032-12.64.001M14.22 3.371a.7.7 0 0 1 .359.303l.074.126.008 1.1.008 1.1H1.331l.008-1.1.008-1.1.074-.126a.7.7 0 0 1 .359-.303c.149-.053 12.291-.053 12.44 0m.441 6.396-.008 2.433-.074.126a.7.7 0 0 1-.359.303c-.149.053-12.291.053-12.44 0a.7.7 0 0 1-.359-.303l-.074-.126-.008-2.433-.007-2.434h13.336z"/></svg>