<svg xmlns="http://www.w3.org/2000/svg" viewBox="0 0 16 16" fill="currentColor"><path fill-rule="evenodd" d="M2.338 2.028c-.431.072-.733.234-1.072.572-.346.346-.499.638-.572 1.089-.015.09-.027.513-.027.939 0 .911.011.98.202 1.17A.7.7 0 0 0 1.333 6c.149 0 .34-.08.453-.189.197-.191.198-.199.214-1.158l.013-.853.074-.126a.7.7 0 0 1 .36-.303c.148-.053 10.958-.053 11.106 0a.7.7 0 0 1 .36.303l.074.126.007 4.143c.004 2.725-.003 4.176-.02 4.242a.72.72 0 0 1-.313.393l-.128.075-2.186.014c-2.451.015-2.284 0-2.491.214a.72.72 0 0 0-.189.452.7.7 0 0 0 .202.465c.21.21.11.202 2.503.202 1.281 0 2.173-.011 2.273-.027.451-.073.743-.227 1.089-.573s.499-.638.572-1.089c.037-.225.037-8.397 0-8.622-.073-.451-.226-.743-.572-1.089s-.638-.5-1.089-.573c-.201-.032-11.113-.032-11.307.001M1.2 7.385a.665.665 0 0 0-.507.799c.077.32.264.456.737.533a5.5 5.5 0 0 1 2.157.815 5.8 5.8 0 0 1 1.548 1.548c.421.655.682 1.348.814 2.156.06.369.126.508.297.632a.666.666 0 0 0 1.037-.401c.027-.12-.034-.574-.137-1.014a6.65 6.65 0 0 0-4.876-4.92c-.256-.062-.907-.177-.956-.17zm-.152 2.751a.677.677 0 0 0-.303.901.7.7 0 0 0 .426.335c.671.18 1.063.4 1.447.811.311.332.516.714.648 1.207.07.262.149.389.307.497.266.181.636.13.853-.117.187-.214.207-.424.079-.877a4 4 0 0 0-2.731-2.732c-.351-.098-.564-.106-.726-.025m.067 2.573c-.24.074-.448.364-.448.624 0 .268.208.552.459.626a.58.58 0 0 0 .409.002c.607-.181.618-1.048.015-1.254a.65.65 0 0 0-.435.002"/></svg>