<svg xmlns="http://www.w3.org/2000/svg" viewBox="0 0 16 16" fill="currentColor"><path fill-rule="evenodd" d="M1.94 1.065c-.416.133-.762.518-.893.991C1.003 2.217 1 2.579 1 8.307c0 5.065.006 6.101.036 6.205.097.332.484.554.801.46.165-.049.174-.058 1.083-1.061l.693-.764h5.141c5.134 0 5.141 0 5.305-.056.426-.143.764-.516.894-.987.044-.16.047-.469.047-5.024s-.003-4.864-.047-5.024c-.132-.479-.48-.861-.902-.992-.157-.049-.345-.051-6.06-.049-5.644.001-5.904.003-6.051.05m11.876 1.231.077.083v4.676c0 3.568-.007 4.692-.032 4.746-.07.155.285.146-5.456.146H3.127l-.501.546c-.275.301-.505.547-.51.547s-.009-2.401-.009-5.335V2.369l.078-.078.078-.078h11.476zM4.093 4.091c-.188.085-.334.33-.332.559.003.232.143.468.329.552.106.048.256.05 3.91.05s3.804-.002 3.91-.05c.186-.084.326-.32.329-.552.002-.232-.146-.477-.338-.56-.126-.054-7.687-.053-7.808.001m0 2.431c-.215.112-.318.293-.318.558q.001.417.338.559c.087.036.528.041 3.887.041s3.8-.005 3.887-.041q.337-.142.339-.559a.58.58 0 0 0-.235-.504l-.103-.083-3.857-.006c-3.458-.006-3.866-.003-3.938.035m.014 2.427q-.33.144-.333.558a.58.58 0 0 0 .235.504l.103.082 2.379.007 2.379.008.118-.063c.328-.173.396-.709.124-.98-.167-.166-.039-.158-2.584-.157-2.019.001-2.34.006-2.421.041"/></svg>