<svg xmlns="http://www.w3.org/2000/svg" viewBox="0 0 16 16" fill="currentColor"><path fill-rule="evenodd" d="M3.004 1.361c-.43.073-.733.234-1.071.572-.346.346-.499.638-.573 1.089-.036.226-.036 9.73 0 9.956.074.451.227.743.573 1.089s.638.499 1.089.573c.226.036 9.73.036 9.956 0 .451-.074.743-.227 1.089-.573s.499-.638.573-1.089c.016-.101.026-1.103.026-2.606.001-2.765.011-2.624-.201-2.837A.7.7 0 0 0 14 7.333c-.149 0-.34.08-.453.189-.215.209-.199.001-.214 2.825l-.013 2.52-.074.125a.7.7 0 0 1-.359.303c-.149.053-9.625.053-9.774 0a.7.7 0 0 1-.359-.303l-.074-.125V3.133l.074-.125a.7.7 0 0 1 .359-.303c.082-.029.789-.036 3.862-.037 3.288-.001 3.779-.006 3.899-.042A.69.69 0 0 0 11.333 2a.69.69 0 0 0-.459-.626c-.12-.036-.607-.04-3.939-.038-2.091.002-3.86.013-3.931.025m11.436.683c-.125.038-.32.226-3.286 3.191l-3.153 3.15-.821-.816c-.773-.77-.828-.819-.965-.859a.6.6 0 0 0-.422-.003.67.67 0 0 0-.419.419.6.6 0 0 0 .002.422c.04.139.089.193 1.153 1.256 1.064 1.064 1.117 1.113 1.256 1.154a.6.6 0 0 0 .43 0c.142-.041.221-.118 3.59-3.487s3.445-3.448 3.486-3.589a.6.6 0 0 0 .002-.422.67.67 0 0 0-.853-.416"/></svg>