<svg xmlns="http://www.w3.org/2000/svg" viewBox="0 0 16 16" fill="currentColor"><path fill-rule="evenodd" d="m7.467.682-.347.04C5.286.935 3.544 1.889 2.332 3.347c-.457.548-.935 1.383-1.195 2.084-.318.857-.453 1.634-.452 2.596q.001 2.633 1.718 4.693a7.26 7.26 0 0 0 3.833 2.384 7.3 7.3 0 0 0 4.905-.491 6.8 6.8 0 0 0 1.259-.762 7.25 7.25 0 0 0 2.783-4.427c.099-.501.123-.751.142-1.451.014-.538.01-.648-.028-.778a.69.69 0 0 0-.63-.475.7.7 0 0 0-.465.202c-.177.177-.202.288-.202.882 0 .722-.067 1.253-.233 1.836a6.03 6.03 0 0 1-2.46 3.357 5.99 5.99 0 0 1-6.947-.234 8 8 0 0 1-.985-.95 6 6 0 0 1-1.279-4.88A6.03 6.03 0 0 1 5.6 2.502a5.6 5.6 0 0 1 2.227-.494 5.8 5.8 0 0 1 2.46.443c.332.132.506.143.713.046a.58.58 0 0 0 .309-.308.68.68 0 0 0-.132-.759c-.145-.139-.911-.428-1.497-.565A7 7 0 0 0 8.12.681a11 11 0 0 0-.653.001m6.973 1.362c-.125.038-.32.226-3.286 3.191l-3.153 3.15-.795-.791c-.872-.87-.921-.906-1.206-.906a.653.653 0 0 0-.627.862c.044.134.121.217 1.13 1.233C7.686 9.973 7.719 9.999 8 9.999c.299 0 .125.162 3.831-3.55 3.34-3.344 3.419-3.426 3.46-3.567a.6.6 0 0 0 .002-.422.67.67 0 0 0-.853-.416"/></svg>