<svg xmlns="http://www.w3.org/2000/svg" viewBox="0 0 16 16" fill="currentColor"><path fill-rule="evenodd" d="M3.782 5.375a.69.69 0 0 0-.408.418.6.6 0 0 0 .001.422c.041.141.102.205 2.154 2.256 2.051 2.052 2.115 2.113 2.256 2.154.08.023.176.042.215.042s.135-.019.215-.042c.141-.041.205-.102 2.256-2.154 2.052-2.051 2.113-2.115 2.154-2.256a.6.6 0 0 0 .001-.422.67.67 0 0 0-.419-.419.6.6 0 0 0-.422.002c-.14.041-.203.1-1.965 1.859L8 9.052 6.18 7.235C4.418 5.476 4.355 5.417 4.215 5.376a.64.64 0 0 0-.433-.001"/></svg>