<svg xmlns="http://www.w3.org/2000/svg" viewBox="0 0 16 16" fill="currentColor"><path fill-rule="evenodd" d="M7.773.71c-.125.038-.267.175-2.244 2.152-2.052 2.052-2.113 2.115-2.154 2.256a.6.6 0 0 0-.001.422.67.67 0 0 0 .419.419.6.6 0 0 0 .422-.001c.14-.041.203-.101 1.965-1.86L8 2.281l1.82 1.817c1.762 1.759 1.825 1.819 1.965 1.86a.6.6 0 0 0 .422.001.67.67 0 0 0 .419-.419.6.6 0 0 0-.001-.422c-.041-.141-.102-.204-2.154-2.256S8.356.75 8.215.709a.65.65 0 0 0-.442.001m-3.991 9.332a.69.69 0 0 0-.408.418.6.6 0 0 0 .001.422c.041.141.102.204 2.154 2.256s2.115 2.112 2.256 2.153c.08.023.176.042.215.042s.135-.019.215-.042c.141-.041.205-.101 2.256-2.153 2.052-2.052 2.113-2.115 2.154-2.256a.6.6 0 0 0 .001-.422.67.67 0 0 0-.419-.419.6.6 0 0 0-.422.001c-.14.041-.203.101-1.965 1.86L8 13.719l-1.82-1.817c-1.762-1.759-1.825-1.819-1.965-1.86a.63.63 0 0 0-.433 0"/></svg>