<svg xmlns="http://www.w3.org/2000/svg" viewBox="0 0 16 16" fill="currentColor"><path fill-rule="evenodd" d="M3.782 4.042a.69.69 0 0 0-.408.418.6.6 0 0 0 .002.422c.041.139.097.199 1.526 1.631L6.385 8 4.902 9.487c-1.429 1.432-1.485 1.492-1.526 1.631a.6.6 0 0 0-.002.422.67.67 0 0 0 .419.419.6.6 0 0 0 .422-.001c.14-.041.2-.098 1.923-1.82 1.722-1.723 1.779-1.783 1.82-1.923C7.981 8.135 8 8.039 8 8s-.019-.135-.042-.215c-.041-.14-.098-.2-1.82-1.923-1.723-1.722-1.783-1.779-1.923-1.82a.63.63 0 0 0-.433 0m4.666 0a.69.69 0 0 0-.407.418.6.6 0 0 0 .001.422c.041.139.097.199 1.526 1.631L11.052 8 9.568 9.487c-1.429 1.432-1.485 1.492-1.526 1.631a.6.6 0 0 0-.001.422.67.67 0 0 0 .419.419c.172.052.241.051.422-.001.14-.041.2-.098 1.922-1.82 1.723-1.723 1.78-1.783 1.82-1.923.024-.08.043-.176.043-.215s-.019-.135-.043-.215c-.04-.14-.097-.2-1.82-1.923-1.722-1.722-1.782-1.779-1.922-1.82a.63.63 0 0 0-.434 0"/></svg>