<svg xmlns="http://www.w3.org/2000/svg" viewBox="0 0 16 16" fill="currentColor"><path fill-rule="evenodd" d="M7.773 3.377c-.124.038-.252.159-1.911 1.818-1.722 1.723-1.779 1.783-1.82 1.923-.052.181-.053.25-.001.422a.67.67 0 0 0 .419.419.6.6 0 0 0 .422-.001c.139-.041.199-.097 1.631-1.526L8 4.948l1.487 1.484c1.432 1.429 1.492 1.485 1.631 1.526a.6.6 0 0 0 .422.001.67.67 0 0 0 .419-.419c.052-.172.051-.241-.001-.422-.041-.14-.098-.2-1.82-1.922-1.723-1.723-1.783-1.78-1.923-1.82a.65.65 0 0 0-.442.001m0 4.667c-.124.037-.252.159-1.911 1.818-1.722 1.722-1.779 1.783-1.82 1.923a.6.6 0 0 0-.001.422.67.67 0 0 0 .419.419.6.6 0 0 0 .422-.002c.139-.041.199-.097 1.631-1.526L8 9.615l1.487 1.483c1.432 1.429 1.492 1.485 1.631 1.526a.6.6 0 0 0 .422.002.67.67 0 0 0 .419-.419.6.6 0 0 0-.001-.422c-.041-.14-.098-.2-1.82-1.923-1.723-1.722-1.783-1.779-1.923-1.82a.65.65 0 0 0-.442.002"/></svg>