<svg xmlns="http://www.w3.org/2000/svg" viewBox="0 0 16 16" fill="currentColor"><path fill-rule="evenodd" d="M7.107 4.044c-.125.037-.252.159-1.911 1.818-1.723 1.722-1.78 1.783-1.82 1.923a.6.6 0 0 0 0 .43c.04.14.097.2 1.82 1.923 1.722 1.722 1.782 1.779 1.922 1.82.181.052.25.053.422.001a.67.67 0 0 0 .419-.419.6.6 0 0 0-.001-.422c-.041-.139-.097-.199-1.526-1.631L4.948 8l1.484-1.487c1.429-1.432 1.485-1.492 1.526-1.631a.6.6 0 0 0 .001-.422.666.666 0 0 0-.852-.416m4.666 0c-.124.037-.252.159-1.911 1.818-1.722 1.722-1.779 1.783-1.82 1.923a.6.6 0 0 0 0 .43c.041.14.098.2 1.82 1.923 1.723 1.722 1.783 1.779 1.923 1.82a.6.6 0 0 0 .422.001.67.67 0 0 0 .419-.419.6.6 0 0 0-.002-.422c-.041-.139-.097-.199-1.526-1.631L9.615 8l1.483-1.487c1.429-1.432 1.485-1.492 1.526-1.631a.6.6 0 0 0 .002-.422.666.666 0 0 0-.853-.416"/></svg>