<svg xmlns="http://www.w3.org/2000/svg" viewBox="0 0 16 16" fill="currentColor"><path fill-rule="evenodd" d="M9.773 3.377c-.125.038-.267.175-2.244 2.152C5.477 7.58 5.416 7.644 5.375 7.785c-.023.08-.042.176-.042.215s.019.135.042.215c.041.141.102.205 2.154 2.256 2.051 2.052 2.115 2.113 2.256 2.154.18.052.25.052.422.001a.67.67 0 0 0 .419-.419.6.6 0 0 0-.002-.422c-.041-.14-.1-.203-1.859-1.965L6.948 8l1.817-1.82c1.759-1.762 1.818-1.825 1.859-1.965a.6.6 0 0 0 .002-.422.666.666 0 0 0-.853-.416"/></svg>