<svg xmlns="http://www.w3.org/2000/svg" viewBox="0 0 16 16" fill="currentColor"><path fill-rule="evenodd" d="M4.448 3.375a.69.69 0 0 0-.407.418.6.6 0 0 0 .001.422c.041.14.098.2 1.82 1.923 1.723 1.722 1.783 1.779 1.923 1.82a.6.6 0 0 0 .43 0c.14-.041.2-.098 1.923-1.82 1.722-1.723 1.779-1.783 1.82-1.923a.6.6 0 0 0 .001-.422.67.67 0 0 0-.419-.419.6.6 0 0 0-.422.002c-.139.041-.199.097-1.631 1.526L8 6.385 6.513 4.902C5.081 3.473 5.021 3.417 4.882 3.376a.64.64 0 0 0-.434-.001m0 4.667a.69.69 0 0 0-.407.418c-.052.172-.051.241.001.422.041.14.098.2 1.82 1.922 1.723 1.723 1.783 1.78 1.923 1.82a.6.6 0 0 0 .43 0c.14-.04.2-.097 1.923-1.82 1.722-1.722 1.779-1.782 1.82-1.922.052-.181.053-.25.001-.422a.67.67 0 0 0-.419-.419.6.6 0 0 0-.422.001c-.139.041-.199.097-1.631 1.526L8 11.052 6.513 9.568C5.081 8.139 5.021 8.083 4.882 8.042a.64.64 0 0 0-.434 0"/></svg>