<svg xmlns="http://www.w3.org/2000/svg" viewBox="0 0 16 16" fill="currentColor"><path fill-rule="evenodd" d="M3.926 1.054c-.351.076-.741.319-1.005.626-.171.2-.347.572-.403.852-.081.407-.013.834.197 1.241.139.269.509.634.778.768.62.308 1.371.266 1.916-.107a1.88 1.88 0 0 0 .145-3.002 2.1 2.1 0 0 0-.771-.379 2.6 2.6 0 0 0-.857.001m7.381-.024a1.93 1.93 0 0 0-1.351 1.037c-.135.287-.179.49-.177.826.003.53.172.931.554 1.31.757.752 1.945.725 2.679-.061.33-.353.49-.763.493-1.262a1.53 1.53 0 0 0-.186-.813 1.8 1.8 0 0 0-.786-.835c-.268-.149-.459-.197-.826-.206a4 4 0 0 0-.4.004M.514 3.812a.76.76 0 0 0-.442.361.7.7 0 0 0-.006.534c.033.07.469.528 1.285 1.347l1.235 1.24.007 3.613.007 3.613.058.107a.75.75 0 0 0 .334.318.7.7 0 0 0 .488-.008.9.9 0 0 0 .341-.345c.024-.053.036-.61.046-2.143.013-2.054.013-2.072.069-2.147a.452.452 0 0 1 .715 0c.055.075.056.093.069 2.16.011 1.723.02 2.096.051 2.151a.68.68 0 0 0 .312.309c.285.14.601.054.789-.216a.8.8 0 0 0 .101-.25c.017-.091.027-1.421.028-3.68V7.24l.964-.92c.53-.506.972-.924.983-.928.018-.007 1.972 1.879 1.972 1.904 0 .006-.288.898-.64 1.982s-.64 1.978-.64 1.987c0 .008.288.015.639.015h.639l.008 1.62c.007 1.603.008 1.621.065 1.727.124.23.33.36.569.36s.445-.13.569-.36c.057-.106.058-.124.065-1.727l.008-1.62h.851v1.601c0 1.735-.004 1.679.148 1.878a.7.7 0 0 0 .215.163c.286.14.602.054.79-.216a.8.8 0 0 0 .1-.25c.017-.085.027-.754.027-1.66V11.28h.642c.599 0 .641-.003.627-.047l-.642-1.978c-.345-1.063-.627-1.94-.627-1.949s.429-.442.954-.961c1.662-1.646 1.565-1.544 1.615-1.69a.54.54 0 0 0-.011-.442c-.11-.245-.336-.406-.571-.408-.274-.003-.278 0-1.241.958l-.894.89h-3.09l-.894-.89c-.965-.96-.966-.961-1.246-.958a.46.46 0 0 0-.246.065c-.059.035-.503.45-.986.923l-.879.86H2.761l-.88-.878c-.562-.561-.915-.893-.974-.917a.7.7 0 0 0-.393-.046"/></svg>