<svg xmlns="http://www.w3.org/2000/svg" viewBox="0 0 16 16" fill="currentColor"><path fill-rule="evenodd" d="M7.38.693c-1.257.122-2.418.525-3.398 1.181a6 6 0 0 0-1.157.951c-.457.457-.642.683-.964 1.173A7.4 7.4 0 0 0 .743 6.96a8.5 8.5 0 0 0 0 2.08c.253 1.651.976 3.068 2.141 4.201 1.137 1.105 2.448 1.755 4.063 2.015.536.087 1.531.087 2.093.001 2.259-.346 4.143-1.618 5.3-3.577a7.4 7.4 0 0 0 .917-2.64 8.5 8.5 0 0 0 0-2.08c-.25-1.627-.92-2.965-2.057-4.109-.467-.469-.656-.626-1.182-.977A7.3 7.3 0 0 0 9.053.747C8.631.684 7.759.656 7.38.693m1.58 1.382a6.04 6.04 0 0 1 3.883 2.38l.147.198-2.701.014c-2.973.016-2.844.009-3.367.186a3.38 3.38 0 0 0-1.898 1.66.6.6 0 0 1-.09.154c-.008 0-.348-.577-.755-1.281l-.741-1.281.141-.161c.17-.195.574-.56.832-.754.862-.647 1.929-1.055 3.069-1.174.27-.028 1.183.009 1.48.059M3.836 7.454c.66 1.144 1.275 2.198 1.368 2.344a3.38 3.38 0 0 0 2.236 1.485c.095.018.35.034.565.035.386.002.392.003.359.055-.019.03-.344.594-.723 1.254s-.705 1.217-.725 1.238c-.03.033-.062.032-.242-.009-.871-.2-1.828-.671-2.487-1.225a6.07 6.07 0 0 1-2.012-3.189c-.128-.511-.161-.801-.161-1.442 0-.796.078-1.276.321-1.975.103-.298.271-.681.29-.662.007.006.551.947 1.211 2.091M8.573 6.08a2.06 2.06 0 0 1 1.351 1.36c.054.171.062.253.061.573-.002.33-.01.398-.072.587A2.08 2.08 0 0 1 8.56 9.924c-.289.09-.831.09-1.12 0a2.07 2.07 0 0 1-1.364-1.365c-.053-.168-.063-.256-.063-.559s.01-.392.063-.56a2.06 2.06 0 0 1 1.553-1.413c.205-.043.734-.014.944.053m5.139.08c.078.23.173.627.226.947.067.412.067 1.374 0 1.786-.18 1.092-.646 2.134-1.307 2.92a6.07 6.07 0 0 1-3.189 2.012c-.419.106-1.053.188-1.032.135.013-.035 2.297-3.994 2.378-4.122a4.1 4.1 0 0 0 .495-1.278c.044-.233.043-.872 0-1.12a3.5 3.5 0 0 0-.499-1.26L10.667 6l1.498.006 1.497.007z"/></svg>