<svg xmlns="http://www.w3.org/2000/svg" viewBox="0 0 16 16" fill="currentColor"><path fill-rule="evenodd" d="M1.96 1.051a1.37 1.37 0 0 0-.949 1.143c-.017.14-.023 2.049-.019 5.299.008 4.854.01 5.087.057 5.227.157.469.553.838.999.931.092.019.624.029 1.536.029h1.395l.016-.46a5 5 0 0 1 .041-.56l.025-.1H2.238l-.066-.065-.065-.066V7.34c0-5.085 0-5.09.054-5.148l.054-.059h9.996l.055.059c.053.057.054.087.054 1.316v1.258l.153.056c.233.085.395.2.687.488.146.145.27.263.274.263s.005-.777 0-1.726c-.01-1.891-.004-1.818-.174-2.153-.105-.208-.367-.451-.611-.568l-.209-.099-5.187-.005c-4.142-.004-5.208.001-5.293.029m2.107 2.88a.53.53 0 0 0-.319.511.55.55 0 0 0 .28.491L4.147 5l2.42.007 2.421.008.202-.123a3 3 0 0 1 1.264-.405l.226-.021-.006-.099a.55.55 0 0 0-.32-.437c-.125-.054-6.167-.052-6.287.001m6.32 2.36a1.84 1.84 0 0 0-.935.568c-.331.357-.489.741-.512 1.248-.028.632.15 1.091.593 1.533.22.218.45.36.747.459.191.064.253.071.587.071s.396-.007.586-.071c.302-.1.528-.241.762-.472.387-.384.556-.774.578-1.335.017-.405-.037-.663-.21-1.007-.213-.424-.658-.812-1.097-.955-.3-.097-.817-.116-1.099-.039m-6.214.507a.51.51 0 0 0-.369.286.55.55 0 0 0 .084.628c.17.188.101.181 1.801.181H7.22l.018-.184c.021-.217.103-.572.176-.77.029-.078.053-.147.053-.153 0-.021-3.208-.009-3.294.012m7.067.635a1 1 0 0 1 .382.394c.061.115.071.165.071.373 0 .189-.012.266-.057.363a.96.96 0 0 1-.394.419c-.117.061-.167.071-.375.071-.199 0-.26-.01-.355-.061a.93.93 0 0 1-.398-.401c-.065-.132-.074-.181-.073-.391.001-.206.011-.259.071-.373a.97.97 0 0 1 .468-.43c.149-.056.523-.036.66.036M4.067 9.731a.6.6 0 0 0-.334.508c0 .225.184.475.392.532.062.018.447.029.995.029h.893l.216-.155c.119-.085.316-.206.437-.27l.221-.115-.015-.14a1 1 0 0 0-.069-.247c-.098-.192-.105-.193-1.45-.192-1.091 0-1.188.004-1.286.05m5 1.627c-.679.132-1.102.287-1.614.591-.313.187-.456.326-.572.558-.135.268-.148.375-.148 1.213 0 .657.007.788.044.869.065.143.197.28.338.349L7.24 15h3.613c4.071 0 3.762.016 3.961-.205.185-.204.186-.212.186-1.088 0-.738-.004-.799-.059-.974-.134-.424-.343-.625-.994-.958-.499-.256-1.202-.446-1.667-.452-.364-.005-.389.014-.92.696-.242.311-.454.579-.47.595-.022.022-.146-.115-.471-.525a15 15 0 0 0-.503-.614c-.165-.153-.457-.194-.849-.117m.798 1.802c.294.381.534.702.535.713 0 .011-.582.02-1.293.02H7.813l.001-.433v-.433l.18-.098c.492-.267 1.245-.552 1.305-.494.018.018.273.344.566.725m2.98-.623c.182.061.49.19.683.287l.352.176.007.447.008.446h-1.283c-.818 0-1.28-.009-1.274-.026.025-.074 1.102-1.44 1.136-1.44.021 0 .188.049.371.11"/></svg>