<svg xmlns="http://www.w3.org/2000/svg" viewBox="0 0 16 16" fill="currentColor"><path fill-rule="evenodd" d="m7.773.015-.198.042c-.21.042-5.472 1.874-5.663 1.972-.34.172-.643.478-.779.784-.135.306-.133.269-.132 2.72 0 2.496.006 2.626.161 3.4.428 2.137 1.694 4.19 3.395 5.504.768.594 1.638 1.053 2.671 1.407l.412.142h.72l.412-.142c.227-.078.485-.172.574-.208 1.865-.774 3.268-1.988 4.342-3.761a9.06 9.06 0 0 0 1.276-3.782c.053-.475.052-4.791-.001-5-.117-.462-.427-.837-.882-1.066C13.912 1.942 8.702.121 8.44.055 8.3.02 7.864-.006 7.773.015"/></svg>