<svg xmlns="http://www.w3.org/2000/svg" viewBox="0 0 16 16" fill="currentColor"><path fill-rule="evenodd" d="M11.791.028C10.188.23 8.91 1.413 8.568 3.013c-.068.321-.068 1.12 0 1.44.141.658.442 1.265.86 1.734a3.75 3.75 0 0 0 2.069 1.204c.363.08 1.08.088 1.444.014a3.66 3.66 0 0 0 1.966-1.057c.547-.548.865-1.142 1.031-1.921.068-.318.068-1.069 0-1.387-.166-.779-.484-1.373-1.031-1.922-.558-.56-1.165-.89-1.919-1.041a5 5 0 0 0-1.197-.049M7.093 1.105C6.835 1.16 2.016 2.869 1.8 2.982c-.36.188-.68.595-.759.965-.024.108-.029.742-.022 2.44.01 2.216.013 2.305.07 2.666.353 2.214 1.572 4.274 3.298 5.573a8.1 8.1 0 0 0 2.353 1.232c.356.122.376.126.687.126.311.001.33-.002.681-.122 1.989-.677 3.449-1.877 4.564-3.753a8.4 8.4 0 0 0 1.019-2.642c.062-.311.149-.965.149-1.123v-.07l-.26.073a4.93 4.93 0 0 1-3.067-.134 4.83 4.83 0 0 1-3.07-4.153 4.75 4.75 0 0 1 .517-2.509c.095-.184.17-.337.166-.34a1.96 1.96 0 0 0-1.033-.106m5.68 2.575v1.813H12l-.006-1.452-.007-1.453-.387.243c-.213.133-.402.248-.42.255-.026.01-.033-.064-.033-.32v-.333l.446-.282.447-.283.367-.001h.366z"/></svg>