<svg xmlns="http://www.w3.org/2000/svg" viewBox="0 0 16 16" fill="currentColor"><path fill-rule="evenodd" d="M5.687.707c-.234.051-.419.157-.622.359a1.23 1.23 0 0 0-.376.727L4.657 2h-.402c-.823.001-1.188.133-1.655.6-.346.346-.5.638-.573 1.089-.036.225-.036 9.73 0 9.956.073.451.227.743.573 1.089s.638.499 1.089.572c.225.037 8.397.037 8.622 0 .451-.073.743-.226 1.089-.572s.5-.638.573-1.089c.036-.226.036-9.731 0-9.956-.073-.451-.227-.743-.573-1.089-.467-.467-.832-.599-1.655-.6h-.402l-.032-.207a1.23 1.23 0 0 0-.376-.727c-.207-.206-.388-.308-.634-.36-.258-.055-4.362-.054-4.614.001M10 2.667v.666H6V2h4zm-5.311.869a1.34 1.34 0 0 0 1.056 1.102c.218.04 4.292.04 4.51 0 .253-.046.483-.171.68-.369.217-.217.332-.441.377-.731l.032-.209.428.009c.412.008.433.011.554.083a.7.7 0 0 1 .303.359c.053.148.053 9.625 0 9.773a.7.7 0 0 1-.303.36l-.126.074H3.8l-.128-.075a.72.72 0 0 1-.312-.393c-.018-.066-.025-1.74-.02-4.91L3.347 3.8l.074-.126a.7.7 0 0 1 .359-.303c.065-.023.234-.036.489-.036l.388-.002z"/></svg>