<svg xmlns="http://www.w3.org/2000/svg" viewBox="0 0 16 16" fill="currentColor"><path fill-rule="evenodd" d="M5.56.683c-.059.005-.241.029-.405.051C2.542 1.095.472 3.145.067 5.773a7.2 7.2 0 0 0-.043 1.44c.154 1.525.876 2.961 1.973 3.923.341.299.482.369.71.351.481-.039.764-.529.548-.949-.027-.054-.201-.239-.385-.412-.66-.62-1.042-1.211-1.32-2.039a4.2 4.2 0 0 1-.209-1.274 4.4 4.4 0 0 1 .33-1.893A4.666 4.666 0 0 1 8.093 2.5c1.174.586 2.035 1.64 2.412 2.955a.74.74 0 0 0 .358.472c.103.055.158.06.844.075.801.019.929.039 1.338.21.511.213 1.016.671 1.295 1.175.188.338.326.888.327 1.296 0 .618-.263 1.291-.697 1.782a2.8 2.8 0 0 1-.746.563c-.417.209-.542.37-.542.692 0 .225.061.361.229.504.136.116.277.159.481.144.474-.035 1.46-.787 1.909-1.458a4.02 4.02 0 0 0 .603-3.069 4.05 4.05 0 0 0-1.686-2.49c-.656-.436-1.31-.64-2.186-.68l-.382-.018-.079-.2a6 6 0 0 0-.552-1.054A6 6 0 0 0 6.864.732C6.607.693 5.774.661 5.56.683m-.445 9.359c-.24.074-.448.364-.448.625 0 .344.322.666.666.666a.83.83 0 0 0 .437-.164c.393-.324.256-.983-.235-1.13a.62.62 0 0 0-.42.003m5.333 0c-.24.074-.448.364-.448.625 0 .344.322.666.667.666.124 0 .33-.076.431-.159.397-.328.264-.988-.23-1.135a.62.62 0 0 0-.42.003m-2.666 1.333c-.241.074-.449.364-.449.625a.7.7 0 0 0 .667.667.83.83 0 0 0 .437-.164c.392-.325.255-.984-.235-1.13a.62.62 0 0 0-.42.002m-2.667 1.334c-.24.074-.448.364-.448.624 0 .268.208.552.459.626a.58.58 0 0 0 .409.002c.607-.181.618-1.048.015-1.254a.65.65 0 0 0-.435.002m5.333 0c-.24.074-.448.364-.448.624 0 .268.208.552.46.626.17.051.243.051.408.002a.654.654 0 0 0 .396-.916c-.154-.309-.475-.441-.816-.336m-2.666 1.333c-.241.074-.449.364-.449.625a.694.694 0 0 0 .667.666.83.83 0 0 0 .437-.164c.392-.324.255-.983-.235-1.13a.62.62 0 0 0-.42.003"/></svg>