<svg xmlns="http://www.w3.org/2000/svg" viewBox="0 0 16 16" fill="currentColor"><path fill-rule="evenodd" d="M5.6.017C3.492.173 1.655 1.369.691 3.213A6 6 0 0 0 .11 7.141 6 6 0 0 0 2.845 11.1c.409.253.612.286.888.144a.69.69 0 0 0 .336-.656c-.03-.223-.118-.347-.351-.5-.631-.412-1.005-.729-1.325-1.121A4.8 4.8 0 0 1 1.41 6.88c-.055-.268-.063-.38-.063-.88.001-.642.028-.838.189-1.355.39-1.258 1.224-2.244 2.384-2.821a4.65 4.65 0 0 1 5.173.69c.688.61 1.145 1.348 1.412 2.274a.75.75 0 0 0 .358.472c.103.055.158.06.857.076.705.016.76.021.987.088.945.281 1.651 1.001 1.885 1.924.086.337.086 1.017 0 1.326a2.8 2.8 0 0 1-.652 1.156c-.393.42-.74.609-1.482.809-.137.037-.307.183-.386.333a.75.75 0 0 0 .001.591.8.8 0 0 0 .344.32c.406.17 1.496-.261 2.216-.874.691-.589 1.193-1.526 1.327-2.476a3.99 3.99 0 0 0-1.773-3.873c-.692-.449-1.345-.634-2.355-.667l-.181-.006-.139-.334A6.05 6.05 0 0 0 8.533.567 6.7 6.7 0 0 0 6.76.054 9 9 0 0 0 5.6.017m2.862 6.687a.8.8 0 0 0-.195.096c-.082.058-2.824 4.134-2.885 4.289a.68.68 0 0 0 .339.845c.1.05.184.053 1.565.066l1.46.013-1.012 1.52c-.723 1.087-1.021 1.556-1.045 1.647a.67.67 0 0 0 .272.698.61.61 0 0 0 .497.101c.291-.061.247-.003 1.748-2.255.761-1.142 1.396-2.107 1.41-2.145a.67.67 0 0 0-.138-.698c-.202-.208-.128-.199-1.764-.214l-1.46-.014 1.009-1.515c.555-.833 1.023-1.561 1.04-1.616a.666.666 0 0 0-.841-.818"/></svg>