<svg xmlns="http://www.w3.org/2000/svg" viewBox="0 0 16 16" fill="currentColor"><path fill-rule="evenodd" d="M5.573 2.017c-.863.083-1.54.27-2.253.622a5.8 5.8 0 0 0-2.318 2.053c-.5.752-.797 1.52-.938 2.428-.059.374-.067 1.362-.015 1.693.222 1.406.881 2.68 1.84 3.559.948.87 2.021 1.379 3.324 1.578.296.045 6.658.067 7.124.024a3.95 3.95 0 0 0 2.483-1.151 3.96 3.96 0 0 0 1.155-2.486 3.98 3.98 0 0 0-2.843-4.163c-.345-.1-.65-.147-1.094-.169l-.392-.018-.075-.196a5.8 5.8 0 0 0-1.26-1.944c-.892-.921-1.915-1.48-3.158-1.725-.536-.106-1.142-.146-1.58-.105m1.032 1.356a4.67 4.67 0 0 1 2.491 1.143q1.015.898 1.409 2.272a.74.74 0 0 0 .358.472c.103.055.157.06.83.075.79.017.942.041 1.345.213a2.665 2.665 0 0 1 1.574 2.967 2.66 2.66 0 0 1-2.097 2.097c-.264.053-.341.055-3.547.055-3.756 0-3.708.002-4.435-.239a4.68 4.68 0 0 1-3.172-3.85 5.7 5.7 0 0 1 .014-1.219c.138-.995.561-1.857 1.276-2.607A4.68 4.68 0 0 1 5.36 3.374c.314-.047.92-.047 1.245-.001"/></svg>