<svg xmlns="http://www.w3.org/2000/svg" viewBox="0 0 16 16" fill="currentColor"><path fill-rule="evenodd" d="M5.56.016C4.023.171 2.776.744 1.76 1.76A6 6 0 0 0 .122 7.194c.247 1.238.949 2.463 1.875 3.276.341.298.482.368.71.35.481-.039.764-.529.548-.949-.027-.054-.201-.239-.385-.412-.66-.62-1.042-1.21-1.32-2.039-.196-.585-.268-1.403-.179-2.036a4.66 4.66 0 0 1 2.542-3.556 4.66 4.66 0 0 1 6.217 2.015c.159.307.277.603.375.944a.7.7 0 0 0 .344.46l.124.073.734.016c.801.018.928.038 1.338.209.511.213 1.016.672 1.295 1.175.188.339.326.889.327 1.297 0 .378-.105.803-.288 1.17-.265.532-.608.88-1.154 1.173a2.4 2.4 0 0 0-.353.221.657.657 0 0 0 .027.965c.308.271.66.207 1.341-.244.333-.22.836-.722 1.061-1.059a4.01 4.01 0 0 0-.038-4.544 4.8 4.8 0 0 0-1.044-1.016c-.662-.436-1.312-.639-2.187-.679l-.382-.017-.079-.2a6 6 0 0 0-.552-1.055A6 6 0 0 0 6.864.066c-.257-.04-1.09-.072-1.304-.05m-.445 8.026a.69.69 0 0 0-.408.418c-.059.198-.059 1.549 0 1.747.075.252.358.46.626.46a.7.7 0 0 0 .465-.202c.189-.189.202-.263.202-1.132s-.013-.942-.202-1.131a.64.64 0 0 0-.683-.16m5.333 0a.64.64 0 0 0-.246.16c-.189.189-.202.263-.202 1.131 0 .869.013.943.202 1.132a.7.7 0 0 0 .465.202.7.7 0 0 0 .464-.202c.189-.189.202-.263.202-1.132s-.013-.942-.202-1.131a.64.64 0 0 0-.683-.16M7.782 9.375a.6.6 0 0 0-.246.16c-.189.189-.203.263-.203 1.132s.014.942.202 1.131A.7.7 0 0 0 8 12c.158 0 .343-.08.465-.202.188-.189.202-.263.202-1.131 0-.869-.014-.943-.202-1.132a.65.65 0 0 0-.683-.16m-2.667 2.667a.69.69 0 0 0-.408.418c-.059.198-.059 1.549 0 1.747.075.252.358.46.626.46a.7.7 0 0 0 .465-.202c.189-.189.202-.263.202-1.132s-.013-.942-.202-1.131a.64.64 0 0 0-.683-.16m5.333 0a.64.64 0 0 0-.246.16c-.189.189-.202.263-.202 1.131 0 .869.013.943.202 1.132a.7.7 0 0 0 .465.202.7.7 0 0 0 .464-.202c.189-.189.202-.263.202-1.132s-.013-.942-.202-1.131a.64.64 0 0 0-.683-.16m-2.666 1.333a.6.6 0 0 0-.246.16c-.189.189-.203.263-.203 1.132s.014.942.202 1.131A.7.7 0 0 0 8 16c.158 0 .343-.08.465-.202.188-.189.202-.263.202-1.131 0-.869-.014-.943-.202-1.132a.65.65 0 0 0-.683-.16"/></svg>