<svg xmlns="http://www.w3.org/2000/svg" viewBox="0 0 16 16" fill="currentColor"><path fill-rule="evenodd" d="M.448.042A.69.69 0 0 0 .041.46a.6.6 0 0 0 .002.422c.04.138.092.195 1.139 1.245l1.096 1.1-.105.087A6.1 6.1 0 0 0 .229 6.107C.012 6.763 0 6.866 0 8.012c0 .975.002 1.013.067 1.3a6 6 0 0 0 1.348 2.648c.986 1.144 2.456 1.882 4.012 2.013.42.035 6.634.036 6.96.001.132-.015.309-.04.395-.057l.155-.032 1.018 1.015c.969.966 1.025 1.017 1.163 1.057.18.053.25.054.422.002a.67.67 0 0 0 .419-.419c.052-.172.051-.241-.001-.422-.041-.142-.167-.269-7.487-7.589S1.024.083.882.042a.63.63 0 0 0-.434 0m5.765 2.013c-.263.12-.409.338-.409.612a.59.59 0 0 0 .222.489c.141.128.191.145.542.192a4.6 4.6 0 0 1 1.525.467c.407.203.751.447 1.103.785.672.645 1.046 1.269 1.309 2.188a.74.74 0 0 0 .358.472c.103.055.161.06.83.077.396.011.756.027.8.037.854.192 1.503.68 1.88 1.414.339.66.385 1.41.131 2.132-.101.289-.111.479-.032.653a.65.65 0 0 0 .907.304c.191-.098.273-.212.394-.549.162-.455.212-.767.212-1.315-.001-.55-.042-.828-.186-1.261a3.95 3.95 0 0 0-2.026-2.327c-.577-.282-1.022-.392-1.703-.42l-.424-.018-.076-.2a6.3 6.3 0 0 0-1.428-2.134 6.03 6.03 0 0 0-3.355-1.614c-.353-.05-.431-.048-.574.016M7.48 8.427l4.24 4.241-3.173-.008c-3.534-.009-3.324.002-3.98-.196a4.67 4.67 0 0 1-3.206-3.451 4.8 4.8 0 0 1 .056-2.253c.247-.863.7-1.601 1.349-2.196.215-.198.428-.371.461-.376.007-.001 1.921 1.907 4.253 4.239"/></svg>