<svg xmlns="http://www.w3.org/2000/svg" viewBox="0 0 16 16" fill="currentColor"><path fill-rule="evenodd" d="M7.711.694c-.363.05-.43.082-1.789.859-.563.322-1.072.603-1.131.624-.059.02-.168.083-.243.14-.074.056-.585.358-1.135.67s-1.084.625-1.186.694c-.21.141-.507.442-.612.621a2.4 2.4 0 0 0-.255.768c-.02.154-.027 1.107-.021 3.077.008 2.633.013 2.865.056 3.013.145.493.447.907.858 1.178.088.058.61.362 1.16.675.55.312 1.061.614 1.135.67s.184.12.243.14.574.305 1.145.632c1.147.656 1.318.744 1.611.824.445.123.457.124.699.057.558-.155.49-.122 1.832-.889a25 25 0 0 1 1.131-.624c.059-.02.168-.083.243-.14.074-.056.585-.358 1.135-.67s1.072-.617 1.16-.675c.411-.271.713-.685.858-1.178.043-.148.048-.38.056-3.013.006-1.97-.001-2.923-.021-3.077a2.4 2.4 0 0 0-.255-.768c-.105-.179-.402-.48-.612-.621a37 37 0 0 0-1.186-.694 24 24 0 0 1-1.135-.67 1 1 0 0 0-.243-.14 25 25 0 0 1-1.145-.632C8.946.905 8.735.796 8.503.736a2.6 2.6 0 0 0-.792-.042m.496 1.344c.092.032.516.267 1.241.688l.182.105-.804.465c-.442.255-.814.464-.826.464s-.384-.209-.826-.464l-.804-.465.182-.105c.73-.423 1.155-.661 1.235-.69a.66.66 0 0 1 .42.002M6.369 4.365c.729.421 1.366.781 1.418.799a.7.7 0 0 0 .426 0c.052-.018.691-.379 1.421-.801s1.337-.763 1.349-.758c.111.043 1.65.946 1.636.958A442 442 0 0 1 8 7.227c-.02 0-4.582-2.63-4.619-2.664-.017-.015 1.589-.955 1.642-.961.012-.001.618.342 1.346.763M5.015 7.047l2.318 1.34v2.66c0 1.463-.006 2.66-.013 2.66-.024 0-1.571-.887-1.62-.929-.043-.037-.047-.148-.047-1.627 0-1.555-.001-1.59-.055-1.703a.7.7 0 0 0-.158-.201c-.056-.048-.703-.434-1.438-.858l-1.335-.771v-.955c0-.526.007-.956.015-.956s1.058.603 2.333 1.34m8.318-.384v.955l-1.335.771c-.735.424-1.382.81-1.438.858a.7.7 0 0 0-.158.201c-.054.113-.055.148-.055 1.703 0 1.479-.004 1.59-.047 1.627-.049.042-1.596.929-1.62.929-.007 0-.013-1.197-.013-2.66v-2.66l2.313-1.339a217 217 0 0 1 2.333-1.34c.011-.001.02.429.02.955M3.448 9.602c.384.222.744.432.799.468l.1.064v.933c0 .513-.007.933-.014.933-.05 0-1.396-.798-1.469-.871-.186-.186-.183-.172-.192-1.112-.007-.772-.004-.849.035-.834.023.009.357.198.741.419m9.88.418c-.009.937-.007.923-.192 1.109-.073.073-1.419.871-1.469.871-.007 0-.014-.419-.014-.93 0-.712.008-.937.034-.958a52 52 0 0 1 1.628-.938c.011 0 .017.38.013.846"/></svg>