<svg xmlns="http://www.w3.org/2000/svg" viewBox="0 0 16 16" fill="currentColor"><path fill-rule="evenodd" d="M5.107 3.377c-.125.038-.268.175-2.245 2.152C.811 7.58.75 7.644.709 7.785a.6.6 0 0 0 0 .43c.041.141.101.205 2.153 2.256 2.052 2.052 2.115 2.113 2.256 2.154.181.052.25.052.422.001a.67.67 0 0 0 .419-.419.6.6 0 0 0-.001-.422c-.041-.14-.101-.203-1.86-1.965L2.281 8l1.817-1.82c1.759-1.762 1.819-1.825 1.86-1.965a.6.6 0 0 0 .001-.422.69.69 0 0 0-.637-.458 1 1 0 0 0-.215.042m5.341-.002a.69.69 0 0 0-.407.418.6.6 0 0 0 .001.422c.041.14.101.203 1.86 1.965L13.719 8l-1.817 1.82c-1.759 1.762-1.819 1.825-1.86 1.965a.6.6 0 0 0-.001.422.67.67 0 0 0 .419.419.6.6 0 0 0 .422-.001c.141-.041.204-.102 2.256-2.154s2.112-2.115 2.153-2.256c.023-.08.042-.176.042-.215s-.019-.135-.042-.215c-.041-.141-.101-.205-2.153-2.256-2.052-2.052-2.115-2.113-2.256-2.154a.65.65 0 0 0-.434 0"/></svg>