<svg xmlns="http://www.w3.org/2000/svg" viewBox="0 0 16 16" fill="currentColor"><path fill-rule="evenodd" d="M7.787.701a6 6 0 0 0-.547.333c-.249.163-1.755 1.141-3.347 2.172C1.988 4.442.954 5.127.866 5.214a.65.65 0 0 0-.166.243c-.048.158-.048 4.928-.001 5.087a.7.7 0 0 0 .167.243c.09.089 1.216.836 3.421 2.266a582 582 0 0 0 3.4 2.2c.093.055.148.067.313.067s.22-.012.313-.067c.063-.036 1.593-1.026 3.4-2.2 2.205-1.43 3.331-2.177 3.421-2.266a.7.7 0 0 0 .167-.243c.047-.159.047-4.929 0-5.088a.7.7 0 0 0-.167-.243c-.09-.089-1.216-.836-3.421-2.266A652 652 0 0 0 8.318.75a.76.76 0 0 0-.531-.049m-.454 3.24v1.382l-1.312.918c-.722.506-1.332.919-1.354.919-.069 0-2.137-1.461-2.109-1.489a838 838 0 0 1 4.769-3.109c.003-.001.006.62.006 1.379m3.92.297c1.181.767 2.162 1.409 2.181 1.426.026.025-.189.187-1.013.764-.576.403-1.065.732-1.088.732-.022 0-.632-.413-1.354-.919l-1.312-.918V2.56l.22.142zM9.091 7.24c.588.411 1.068.753 1.068.76s-.486.353-1.079.768L8 9.523l-1.08-.755A43 43 0 0 1 5.841 8c0-.021 2.143-1.518 2.164-1.512.01.003.499.341 1.086.752m-6.323.24c.399.279.725.513.725.52a52 52 0 0 1-1.471 1.036C2.01 9.04 2 8.574 2 8s.01-1.04.022-1.036.348.237.746.516M14 8.002c0 .573-.01 1.038-.022 1.034A51 51 0 0 1 12.507 8a43 43 0 0 1 1.473-1.038c.011-.001.02.467.02 1.04M6.022 9.759l1.311.918v2.763l-.22-.142a772 772 0 0 1-4.547-2.962c-.026-.025.191-.189 1.014-.769.576-.405 1.065-.734 1.088-.732s.632.418 1.354.924m6.4-.187c.823.577 1.038.739 1.012.764-.026.024-3.028 1.98-4.547 2.962l-.22.142v-2.763l1.313-.923c.722-.508 1.332-.921 1.355-.919s.512.334 1.087.737"/></svg>