<svg xmlns="http://www.w3.org/2000/svg" viewBox="0 0 16 16" fill="currentColor"><path fill-rule="evenodd" d="M3.782.042a.69.69 0 0 0-.408.418c-.06.201-.06 2.212 0 2.414A.69.69 0 0 0 4 3.333c.158 0 .343-.08.465-.202.198-.198.202-.227.202-1.464C4.667.429 4.663.4 4.465.202a.64.64 0 0 0-.683-.16m2.666 0a.64.64 0 0 0-.246.16C6.004.4 6 .429 6 1.667s.004 1.266.202 1.464a.7.7 0 0 0 .465.202.7.7 0 0 0 .464-.202c.198-.198.202-.227.202-1.464C7.333.429 7.329.4 7.131.202a.64.64 0 0 0-.683-.16m2.667 0a.69.69 0 0 0-.408.418c-.06.201-.06 2.212 0 2.414a.69.69 0 0 0 .626.459.7.7 0 0 0 .465-.202c.198-.198.202-.227.202-1.464C10 .429 9.996.4 9.798.202a.64.64 0 0 0-.683-.16m-8 4.667a.6.6 0 0 0-.246.16c-.218.218-.206-.022-.195 3.655.01 3.571-.002 3.313.172 3.862.3.954 1.154 1.807 2.104 2.103.553.173.358.164 3.717.164 2.843 0 3.068-.003 3.276-.048.32-.069.628-.17.844-.278 1.081-.539 1.765-1.554 1.867-2.771l.018-.218.217-.018c1.047-.087 1.981-.624 2.529-1.453.4-.607.564-1.147.564-1.867 0-.751-.199-1.365-.64-1.978-.517-.718-1.406-1.229-2.308-1.327-.174-.019-2.138-.028-6.026-.026-4.942.001-5.786.007-5.893.04M11.327 8.86l-.007 2.86-.063.187a2.08 2.08 0 0 1-1.364 1.351l-.2.062H3.64l-.2-.062a2.08 2.08 0 0 1-1.364-1.351l-.063-.187-.007-2.86L1.999 6h9.336zm1.914-2.778a2.06 2.06 0 0 1 1.35 1.358c.09.289.09.831 0 1.12-.246.789-.932 1.357-1.723 1.429l-.201.018V5.992l.194.017c.107.009.278.042.38.073"/></svg>