<svg xmlns="http://www.w3.org/2000/svg" viewBox="0 0 16 16" fill="currentColor"><path fill-rule="evenodd" d="M3.004 1.361c-.43.073-.733.234-1.071.572-.346.346-.499.638-.573 1.089-.036.226-.036 9.73 0 9.956.074.451.227.743.573 1.089s.638.499 1.089.573c.226.036 9.73.036 9.956 0 .451-.074.743-.227 1.089-.573s.499-.638.573-1.089c.036-.226.036-9.73 0-9.956-.074-.451-.227-.743-.573-1.089s-.638-.499-1.089-.573c-.2-.032-9.78-.031-9.974.001m4.329 6.64v5.334l-2.1-.008-2.1-.007-.127-.075a.72.72 0 0 1-.313-.393c-.018-.066-.025-1.74-.02-4.909l.007-4.81.074-.125a.7.7 0 0 1 .359-.303c.08-.029.509-.036 2.16-.037l2.06-.001zm5.659-5.247a.7.7 0 0 1 .303.359c.053.149.053 9.625 0 9.774a.7.7 0 0 1-.303.359l-.125.074-2.1.007-2.1.008V2.665l2.1.008 2.1.007z"/></svg>