<svg xmlns="http://www.w3.org/2000/svg" viewBox="0 0 16 16" fill="currentColor"><path fill-rule="evenodd" d="M3.586 1.372a2.68 2.68 0 0 0-1.944 1.401 2.664 2.664 0 0 0 2.02 3.866c.115.015.538.028.94.028h.731v2.666h-.74c-1.024.001-1.33.054-1.839.318a2.66 2.66 0 0 0 .939 4.991c.864.113 1.82-.278 2.373-.969a3 3 0 0 0 .513-1.02c.067-.255.07-.302.081-1.126l.012-.86h2.661v.74c.001 1.032.055 1.343.326 1.85.481.903 1.505 1.474 2.508 1.399a2.684 2.684 0 0 0 2.489-2.489c.075-1.003-.496-2.027-1.399-2.508-.507-.271-.818-.325-1.85-.326h-.74V6.672l.86-.012c.824-.011.871-.014 1.126-.081a2.69 2.69 0 0 0 2.003-2.412c.076-1.014-.512-2.053-1.429-2.525a2.663 2.663 0 0 0-3.75 1.513c-.114.33-.143.629-.144 1.438v.74H6.667v-.731c0-.402-.013-.825-.028-.94a2.67 2.67 0 0 0-3.053-2.29m.742 1.334c.084.022.216.072.292.111.179.091.472.384.563.563.136.268.15.382.15 1.199v.754h-.754c-.817 0-.931-.014-1.199-.15a1.7 1.7 0 0 1-.563-.563 1.4 1.4 0 0 1-.111-.948c.063-.24.167-.417.358-.608.269-.27.556-.392.924-.396a1.6 1.6 0 0 1 .34.038m8 0c.084.022.216.072.292.111.179.091.472.384.563.563.199.393.199.847 0 1.24a1.7 1.7 0 0 1-.563.563c-.268.136-.382.15-1.199.15h-.754v-.754c0-.817.014-.931.15-1.199.091-.18.384-.472.564-.564a1.4 1.4 0 0 1 .947-.11M9.333 8v1.333H6.667V6.667h2.666zm-4 3.421c0 .817-.014.931-.15 1.199a1.7 1.7 0 0 1-.563.563 1.36 1.36 0 0 1-1.24 0 1.7 1.7 0 0 1-.563-.563 1.4 1.4 0 0 1-.111-.948 2 2 0 0 1 .111-.292c.091-.18.384-.472.564-.564.264-.134.36-.146 1.186-.148l.766-.001zm6.995-.715c.24.063.417.167.608.358.269.268.397.572.397.936s-.128.668-.397.936a1.6 1.6 0 0 1-.316.247 1.36 1.36 0 0 1-1.24 0 1.7 1.7 0 0 1-.563-.563c-.136-.268-.15-.382-.15-1.199v-.754h.754c.583 0 .789.009.907.039"/></svg>