<svg xmlns="http://www.w3.org/2000/svg" viewBox="0 0 16 16" fill="currentColor"><path fill-rule="evenodd" d="M4.173 1.397c-.247.117-.347.28-.425.697l-.046.241-.2.09c-.111.05-.272.137-.359.193a1 1 0 0 1-.185.102c-.014 0-.148-.036-.296-.08-.324-.096-.446-.099-.623-.017-.163.076-.291.22-.422.473-.079.154-.097.219-.097.343 0 .229.05.316.327.572l.248.229-.018.213c-.01.118-.01.31 0 .428l.019.215-.239.218c-.276.252-.336.358-.336.597-.001.14.014.193.1.354.14.265.222.358.383.439.185.092.343.09.663-.011.139-.043.269-.079.288-.079a.5.5 0 0 1 .147.076c.061.042.221.132.356.199l.245.123.03.154c.093.479.207.672.457.78.122.052.175.058.421.05.251-.009.297-.018.408-.083.22-.129.276-.246.405-.849.012-.055.051-.084.19-.143.096-.041.255-.127.354-.19.098-.064.192-.117.209-.117s.147.035.29.079c.323.1.465.102.647.012.156-.078.247-.182.396-.452.091-.164.103-.207.102-.36-.001-.239-.067-.352-.338-.583l-.221-.188.002-.454.001-.453.22-.191c.27-.235.334-.347.336-.585.001-.148-.013-.203-.092-.36-.12-.239-.247-.378-.413-.456-.18-.084-.334-.08-.636.017-.137.044-.264.08-.282.08s-.13-.059-.25-.131a4 4 0 0 0-.359-.19q-.14-.059-.154-.116l-.066-.291c-.066-.29-.098-.352-.248-.491-.147-.135-.256-.167-.565-.167-.197 0-.264.011-.374.063m.701 1.977c.237.055.405.148.602.333.546.51.563 1.337.039 1.882-.89.928-2.44.162-2.261-1.116a1.327 1.327 0 0 1 1.62-1.099m5.471 2.661a.84.84 0 0 0-.423.276c-.131.148-.185.292-.283.749-.041.194-.088.353-.104.353-.066 0-.578.273-.767.409l-.204.146-.369-.119c-.341-.11-.385-.118-.595-.109-.378.017-.567.15-.819.577-.169.285-.221.433-.221.627 0 .319.104.495.499.847l.288.256-.002.621-.003.62-.091.079c-.571.495-.658.615-.685.941-.018.227.025.38.188.665.18.316.325.468.533.561.254.114.443.104.913-.049.362-.119.374-.121.426-.074.118.106.408.282.668.406l.274.131.045.206c.141.652.19.772.389.951.211.191.3.215.798.215s.587-.024.798-.215c.199-.179.248-.299.389-.951l.045-.206.274-.131c.26-.124.55-.3.668-.406.052-.047.064-.045.426.074.467.152.662.163.908.051.213-.097.335-.221.511-.52.169-.285.221-.433.221-.627 0-.319-.104-.495-.499-.846l-.288-.257.002-.617.003-.618.29-.26c.16-.142.318-.3.352-.349a.97.97 0 0 0 .104-.754c-.052-.17-.313-.603-.435-.719-.169-.16-.311-.217-.569-.229-.21-.009-.254-.001-.595.109l-.369.119-.204-.146c-.189-.136-.701-.409-.767-.409-.016 0-.063-.159-.104-.353a5 5 0 0 0-.127-.492.96.96 0 0 0-.442-.48c-.143-.07-.176-.075-.539-.081-.252-.004-.429.006-.508.028m.975 2.698a2.05 2.05 0 0 1 1.418 1.427c.064.238.064.775 0 1.013a2.04 2.04 0 0 1-1.378 1.418c-.289.09-.831.09-1.12 0a2.04 2.04 0 0 1-1.378-1.418 2 2 0 0 1-.047-.506c0-.372.04-.565.174-.854a2.1 2.1 0 0 1 1.129-1.032c.321-.117.859-.138 1.202-.048"/></svg>