<svg xmlns="http://www.w3.org/2000/svg" viewBox="0 0 16 16" fill="currentColor"><path fill-rule="evenodd" d="M2.338.695c-.431.072-.733.233-1.072.571-.346.346-.499.638-.572 1.089-.037.224-.037 6.399 0 6.623.073.451.226.743.572 1.089.474.474.829.599 1.696.599.544.001.662-.028.836-.201A.7.7 0 0 0 4 10c0-.149-.08-.34-.189-.453-.175-.18-.235-.196-.824-.212-.508-.015-.523-.017-.646-.089a.7.7 0 0 1-.303-.359c-.053-.148-.053-6.292 0-6.44a.7.7 0 0 1 .303-.36l.126-.074 3.142-.007c2.061-.004 3.177.002 3.242.02.148.04.308.168.394.313.074.125.075.138.09.648.016.589.032.649.212.824A.72.72 0 0 0 10 4c.158 0 .343-.08.465-.202.173-.174.202-.292.201-.836 0-.867-.125-1.222-.599-1.696C9.721.92 9.429.767 8.978.694 8.779.661 2.531.662 2.338.695m4.666 4.666c-.43.073-.733.234-1.071.572-.346.346-.499.638-.573 1.089-.036.224-.036 6.399 0 6.623.074.451.227.743.573 1.089s.638.499 1.089.572c.224.037 6.399.037 6.623 0 .451-.073.743-.226 1.089-.572s.499-.638.572-1.089c.037-.224.037-6.399 0-6.623-.073-.451-.226-.743-.572-1.089s-.638-.499-1.089-.573c-.2-.032-6.448-.031-6.641.001m6.549 1.344a.7.7 0 0 1 .36.303l.074.125v6.4l-.074.126a.7.7 0 0 1-.36.303c-.148.053-6.292.053-6.44 0a.7.7 0 0 1-.359-.303l-.074-.126v-6.4l.074-.125a.7.7 0 0 1 .359-.303c.148-.053 6.292-.053 6.44 0"/></svg>