<svg xmlns="http://www.w3.org/2000/svg" viewBox="0 0 16 16" fill="currentColor"><path fill-rule="evenodd" d="M5.72 2.064c-.106.051-.487.418-1.884 1.82-1.693 1.698-1.753 1.761-1.794 1.901a.6.6 0 0 0-.001.422.67.67 0 0 0 .419.419.6.6 0 0 0 .422-.002c.138-.041.195-.093 1.298-1.192l1.153-1.15v3.247c0 2.103.01 3.338.029 3.505a3.4 3.4 0 0 0 .909 1.941c.46.479 1.021.787 1.756.961.183.043.422.048 2.782.057 2.931.011 2.773.021 2.989-.195a.7.7 0 0 0 .202-.465.72.72 0 0 0-.189-.452c-.209-.216.011-.199-2.918-.215l-2.613-.013-.187-.062a2.1 2.1 0 0 1-1.35-1.351l-.063-.187-.007-3.386-.008-3.386 1.154 1.15c1.104 1.1 1.161 1.152 1.299 1.193a.6.6 0 0 0 .422.002.67.67 0 0 0 .419-.419.6.6 0 0 0-.001-.422c-.041-.14-.1-.203-1.794-1.899-1.342-1.344-1.781-1.77-1.883-1.82a.63.63 0 0 0-.561-.002"/></svg>