<svg xmlns="http://www.w3.org/2000/svg" viewBox="0 0 16 16" fill="currentColor"><path fill-rule="evenodd" d="M2.448 2.042a.69.69 0 0 0-.407.418C2.006 2.578 2 2.928 2 5.017c0 1.587.01 2.515.03 2.695a3.45 3.45 0 0 0 .628 1.599 3.4 3.4 0 0 0 1.623 1.177c.55.173.272.162 4.024.172l3.411.009-1.149 1.152c-1.098 1.102-1.15 1.159-1.191 1.297a.6.6 0 0 0-.002.422.67.67 0 0 0 .419.419.6.6 0 0 0 .422-.001c.14-.041.203-.1 1.899-1.794C14.018 10.264 14 10.285 14 10s.018-.264-1.886-2.164c-1.696-1.694-1.759-1.753-1.899-1.794a.6.6 0 0 0-.422-.001.67.67 0 0 0-.419.419.6.6 0 0 0 .002.422c.041.138.093.195 1.193 1.299l1.15 1.154-3.386-.008-3.386-.007-.187-.063a2.1 2.1 0 0 1-1.351-1.35l-.062-.187-.013-2.613c-.016-2.929.001-2.709-.215-2.918a.65.65 0 0 0-.671-.147"/></svg>