<svg xmlns="http://www.w3.org/2000/svg" viewBox="0 0 16 16" fill="currentColor"><path fill-rule="evenodd" d="M2.448 2.041c-.24.076-.448.365-.448.626 0 .148.08.34.189.452.209.216-.011.199 2.918.215l2.613.013.187.062a2.1 2.1 0 0 1 1.35 1.351l.063.187.007 3.386.008 3.386-1.154-1.15c-1.104-1.1-1.161-1.152-1.299-1.193a.6.6 0 0 0-.422-.002.67.67 0 0 0-.419.419.6.6 0 0 0 .001.422c.041.14.101.203 1.794 1.901C9.74 14.027 9.709 13.999 10.001 14c.283 0 .264.017 2.163-1.886 1.694-1.696 1.753-1.759 1.794-1.899a.6.6 0 0 0 .001-.422.67.67 0 0 0-.419-.419.6.6 0 0 0-.422.002c-.138.041-.195.093-1.297 1.191l-1.152 1.149-.009-3.411c-.01-3.752.001-3.474-.172-4.024a3.4 3.4 0 0 0-1.177-1.623c-.403-.29-.8-.466-1.338-.594-.183-.043-.417-.048-2.8-.054-2.222-.007-2.618-.002-2.725.031"/></svg>