<svg xmlns="http://www.w3.org/2000/svg" viewBox="0 0 16 16" fill="currentColor"><path fill-rule="evenodd" d="M9.72 2.064c-.106.051-.487.418-1.884 1.82-1.693 1.698-1.753 1.761-1.794 1.901a.6.6 0 0 0-.001.422.67.67 0 0 0 .419.419.6.6 0 0 0 .422-.002c.138-.041.195-.093 1.299-1.193l1.154-1.15-.008 3.386-.007 3.386-.063.187a2.09 2.09 0 0 1-1.35 1.35l-.187.063-2.613.013c-2.929.016-2.709 0-2.918.215a.72.72 0 0 0-.189.452.7.7 0 0 0 .202.465c.216.216.058.206 2.989.195 2.828-.011 2.654-.001 3.195-.172a3.4 3.4 0 0 0 1.622-1.176c.29-.403.466-.798.595-1.339.044-.185.048-.446.057-3.611l.009-3.411 1.152 1.149c1.102 1.098 1.159 1.15 1.297 1.191a.6.6 0 0 0 .422.002.67.67 0 0 0 .419-.419.6.6 0 0 0-.001-.422c-.041-.14-.1-.203-1.794-1.899-1.342-1.344-1.781-1.77-1.883-1.82a.63.63 0 0 0-.561-.002"/></svg>