<svg xmlns="http://www.w3.org/2000/svg" viewBox="0 0 16 16" fill="currentColor"><path fill-rule="evenodd" d="M5.773 2.044c-.124.038-.254.162-1.889 1.792C1.974 5.739 2.001 5.709 2.001 6s-.027.261 1.883 2.164c1.698 1.693 1.761 1.753 1.901 1.794a.6.6 0 0 0 .422.001.67.67 0 0 0 .419-.419.6.6 0 0 0-.002-.422c-.041-.138-.093-.195-1.193-1.299l-1.15-1.154 3.386.008 3.386.007.187.063a2.09 2.09 0 0 1 1.35 1.35l.063.187.013 2.613c.016 2.929 0 2.709.215 2.918a.72.72 0 0 0 .452.189.7.7 0 0 0 .465-.202c.216-.216.206-.058.195-2.989-.009-2.36-.014-2.599-.057-2.782-.174-.735-.482-1.296-.961-1.756a3.4 3.4 0 0 0-1.941-.909c-.167-.019-1.402-.029-3.505-.029H4.282l1.15-1.153c1.099-1.103 1.151-1.16 1.192-1.298a.6.6 0 0 0 .002-.422.666.666 0 0 0-.853-.416"/></svg>