<svg xmlns="http://www.w3.org/2000/svg" viewBox="0 0 16 16" fill="currentColor"><path fill-rule="evenodd" d="M9.782 2.042a.69.69 0 0 0-.408.418.6.6 0 0 0 .002.422c.041.138.093.195 1.192 1.298l1.15 1.153H8.473c-2.188 0-3.334.01-3.519.03a3.4 3.4 0 0 0-1.929.908 3.53 3.53 0 0 0-.975 1.801c-.022.11-.034.907-.042 2.737-.012 2.931-.022 2.773.194 2.989a.7.7 0 0 0 .465.202.72.72 0 0 0 .452-.189c.216-.209.199.011.215-2.918l.013-2.613.062-.187a2.1 2.1 0 0 1 1.351-1.35l.187-.063 3.386-.007 3.386-.008-1.15 1.154c-1.1 1.104-1.152 1.161-1.193 1.299a.6.6 0 0 0-.002.422.67.67 0 0 0 .419.419.6.6 0 0 0 .422-.001c.14-.041.203-.1 1.899-1.794C14.018 6.264 14 6.285 14 6s.018-.264-1.886-2.164c-1.696-1.694-1.759-1.753-1.899-1.794a.63.63 0 0 0-.433 0"/></svg>