<svg xmlns="http://www.w3.org/2000/svg" viewBox="0 0 16 16" fill="currentColor"><path fill-rule="evenodd" d="M8.274 2.029A3.36 3.36 0 0 0 5.67 3.885a3.7 3.7 0 0 0-.307 1.069c-.02.185-.03 1.331-.03 3.519v3.245l-1.153-1.15C3.077 9.469 3.02 9.417 2.882 9.376a.6.6 0 0 0-.422-.002.67.67 0 0 0-.419.419.6.6 0 0 0 .001.422c.041.14.101.203 1.794 1.901C5.74 14.027 5.709 13.999 6.001 14c.283 0 .264.017 2.163-1.886 1.694-1.696 1.753-1.759 1.794-1.899a.6.6 0 0 0 .001-.422.67.67 0 0 0-.419-.419.6.6 0 0 0-.422.002c-.138.041-.195.093-1.299 1.193l-1.154 1.15.008-3.386.007-3.386.063-.187a2.1 2.1 0 0 1 1.35-1.351l.187-.062 2.613-.013c2.929-.016 2.709.001 2.918-.215A.72.72 0 0 0 14 2.667a.7.7 0 0 0-.202-.465c-.213-.213-.068-.202-2.863-.199-1.358.002-2.555.014-2.661.026"/></svg>