<svg xmlns="http://www.w3.org/2000/svg" viewBox="0 0 16 16" fill="currentColor"><path fill-rule="evenodd" d="M13.117 2.042a.7.7 0 0 0-.236.147c-.216.209-.199-.011-.215 2.918l-.013 2.613-.063.187a2.09 2.09 0 0 1-1.35 1.35l-.187.063-3.386.007-3.386.008 1.15-1.154c1.1-1.104 1.152-1.161 1.193-1.299a.6.6 0 0 0 .002-.422.67.67 0 0 0-.419-.419.6.6 0 0 0-.422.001c-.14.041-.203.101-1.901 1.794C1.974 9.739 2.001 9.709 2.001 10s-.027.261 1.883 2.164c1.698 1.693 1.761 1.753 1.901 1.794a.6.6 0 0 0 .422.001.67.67 0 0 0 .419-.419.6.6 0 0 0-.002-.422c-.041-.138-.093-.195-1.191-1.297l-1.149-1.152 3.411-.009c3.752-.01 3.474.001 4.024-.172a3.4 3.4 0 0 0 1.623-1.177c.29-.403.466-.8.594-1.338.043-.183.048-.422.057-2.782.011-2.931.021-2.773-.195-2.989a.64.64 0 0 0-.681-.16"/></svg>