<svg xmlns="http://www.w3.org/2000/svg" viewBox="0 0 16 16" fill="currentColor"><path fill-rule="evenodd" d="M5.782.042a.6.6 0 0 0-.246.16c-.188.188-.203.266-.203 1.096V2h-.74c-.954 0-1.205.042-1.58.259-.224.13-.624.53-.754.754-.217.375-.259.626-.259 1.58v.74h-.702c-.829 0-.908.015-1.096.202A.7.7 0 0 0 0 6c0 .158.08.343.202.465.188.187.267.202 1.096.202H2v2h-.702c-.829 0-.908.014-1.096.202A.7.7 0 0 0 0 9.333a.7.7 0 0 0 .202.465C.39 9.985.469 10 1.298 10H2v1.073c0 1.312.028 1.515.259 1.914.13.224.53.624.754.754.375.217.626.259 1.58.259h.74v.702c0 .829.015.908.202 1.096A.7.7 0 0 0 6 16c.158 0 .343-.08.465-.202.187-.188.202-.267.202-1.096V14h2.666v.702c0 .829.015.908.202 1.096A.7.7 0 0 0 10 16c.158 0 .343-.08.465-.202.187-.188.202-.267.202-1.096V14h.74c.954 0 1.205-.042 1.58-.259.224-.13.624-.53.754-.754.231-.399.259-.602.259-1.914V10h.702c.829 0 .908-.015 1.096-.202A.7.7 0 0 0 16 9.333a.7.7 0 0 0-.202-.464c-.188-.188-.267-.202-1.096-.202H14v-2h.702c.829 0 .908-.015 1.096-.202A.7.7 0 0 0 16 6a.7.7 0 0 0-.202-.465c-.188-.187-.267-.202-1.096-.202H14v-.74c0-.954-.042-1.205-.259-1.58-.13-.224-.53-.624-.754-.754-.375-.217-.626-.259-1.58-.259h-.74v-.702c0-.829-.015-.908-.202-1.096A.7.7 0 0 0 10 0a.7.7 0 0 0-.465.202c-.187.188-.202.267-.202 1.096V2H6.667v-.702c0-.829-.015-.908-.202-1.096a.64.64 0 0 0-.683-.16m6.438 3.329a.7.7 0 0 1 .359.303l.074.126v8.4l-.074.126a.7.7 0 0 1-.359.303c-.148.053-8.292.053-8.44 0a.7.7 0 0 1-.359-.303l-.074-.126V3.8l.074-.126a.7.7 0 0 1 .359-.303c.148-.053 8.292-.053 8.44 0M5.782 5.375a.69.69 0 0 0-.408.418c-.061.205-.061 4.209 0 4.414a.67.67 0 0 0 .419.419c.205.061 4.209.061 4.414 0a.67.67 0 0 0 .419-.419c.061-.205.061-4.209 0-4.414a.67.67 0 0 0-.419-.419c-.199-.059-4.233-.058-4.425.001M9.333 8v1.333H6.667V6.667h2.666z"/></svg>