<svg xmlns="http://www.w3.org/2000/svg" viewBox="0 0 16 16" fill="currentColor"><path fill-rule="evenodd" d="M3.886.038a.7.7 0 0 0-.339.247c-.127.185-.134.274-.134 1.702 0 1.028-.007 1.346-.033 1.381-.03.04-.165.045-1.447.051C.561 3.426.517 3.428.4 3.483a.654.654 0 0 0-.364.786.64.64 0 0 0 .353.414l.149.072 1.424-.016 1.425-.016-.001.339c0 .186-.012 1.553-.027 3.037-.018 1.849-.018 2.753 0 2.871.074.457.226.749.574 1.097.346.346.638.499 1.089.573.103.016 1.312.026 3.238.026l3.073.001v1.368c0 1.569-.001 1.56.202 1.763A.7.7 0 0 0 12 16c.158 0 .343-.08.465-.202.203-.203.202-.194.202-1.763v-1.368h1.368c1.569 0 1.56.001 1.763-.202A.7.7 0 0 0 16 12a.7.7 0 0 0-.202-.465c-.203-.203-.194-.202-1.763-.202h-1.368l-.001-3.073c0-1.926-.01-3.135-.026-3.238-.074-.451-.227-.743-.573-1.089-.349-.348-.64-.5-1.098-.574-.119-.019-1.016-.019-2.884 0-1.492.015-2.858.027-3.037.027l-.325.001.016-1.425.016-1.424-.072-.149a.65.65 0 0 0-.401-.35.57.57 0 0 0-.396-.001m7.077 4.703c.159.083.3.248.342.4.019.065.028 1.129.028 3.146v3.046H8.287c-2.017 0-3.081-.009-3.146-.028a.7.7 0 0 1-.404-.351l-.077-.15.028-3.031c.016-1.668.035-3.038.042-3.045.014-.014 3.053-.048 5.06-.057l1.031-.004z"/></svg>