<svg xmlns="http://www.w3.org/2000/svg" viewBox="0 0 16 16" fill="currentColor"><path fill-rule="evenodd" d="M7.38.693a7.47 7.47 0 0 0-3.967 1.585c-.257.204-.931.878-1.135 1.135A7.46 7.46 0 0 0 .743 6.96a8.5 8.5 0 0 0 0 2.08c.32 2.083 1.427 3.855 3.137 5.018a7.2 7.2 0 0 0 3.08 1.199 8.6 8.6 0 0 0 2.08 0c2.257-.345 4.143-1.618 5.3-3.577a7.4 7.4 0 0 0 .917-2.64 8.5 8.5 0 0 0 0-2.08 7.45 7.45 0 0 0-1.535-3.547 11.5 11.5 0 0 0-1.135-1.135A7.44 7.44 0 0 0 9.053.747C8.631.684 7.759.656 7.38.693m-.047 2.355c0 1.184.005 1.22.202 1.417A.7.7 0 0 0 8 4.667a.7.7 0 0 0 .465-.202c.197-.197.202-.233.202-1.417V2.026l.06.012c.033.007.15.027.26.043.943.143 2.022.629 2.793 1.258.264.215.666.617.881.88.628.77 1.115 1.853 1.258 2.794.016.11.036.227.043.26l.012.06h-1.022c-1.184 0-1.22.005-1.417.202a.7.7 0 0 0-.202.465c0 .158.081.343.202.465.197.197.233.202 1.417.202h1.022l-.012.06c-.007.033-.027.15-.043.26-.146.961-.65 2.067-1.288 2.826-.243.288-.53.575-.818.818-.759.638-1.865 1.142-2.826 1.288-.11.016-.227.036-.26.043l-.06.012v-1.022c0-1.184-.005-1.22-.202-1.417A.7.7 0 0 0 8 11.333a.7.7 0 0 0-.465.202c-.197.197-.202.233-.202 1.417v1.022l-.06-.012a6 6 0 0 0-.26-.043c-.961-.146-2.067-.65-2.826-1.288a7 7 0 0 1-.818-.818c-.638-.759-1.142-1.865-1.288-2.826a6 6 0 0 0-.043-.26l-.012-.06h1.022c1.184 0 1.22-.005 1.417-.202A.7.7 0 0 0 4.667 8a.7.7 0 0 0-.202-.465c-.197-.197-.233-.202-1.417-.202H2.026l.012-.06c.007-.033.027-.15.043-.26.143-.941.63-2.024 1.258-2.794A6.08 6.08 0 0 1 7.013 2.08l.3-.051c.011-.001.02.457.02 1.019"/></svg>