<svg xmlns="http://www.w3.org/2000/svg" viewBox="0 0 16 16" fill="currentColor"><path fill-rule="evenodd" d="M7.441 1.522a6.7 6.7 0 0 0-1.758.388c-.32.118-.907.409-1.043.517-.3.237-.323.734-.046.977.128.113.256.15.468.138.154-.008.23-.034.555-.19.765-.365 1.36-.515 2.156-.543.461-.017.837.013 1.274.1a5.3 5.3 0 0 1 2.454 1.27c.216.205.499.512.499.541 0 .017-.237.027-.633.027-.72.001-.769.012-.946.208a.637.637 0 0 0 .059.919c.06.051.159.107.221.124.08.022.48.029 1.406.023 1.439-.009 1.365.001 1.557-.197.177-.182.179-.201.17-1.629l-.007-1.279-.081-.131a.7.7 0 0 0-.211-.211c-.118-.073-.153-.081-.348-.081-.196 0-.231.008-.348.081a.7.7 0 0 0-.21.208c-.067.109-.081.162-.091.352l-.011.225-.19-.177c-.722-.671-1.731-1.212-2.756-1.477a7.3 7.3 0 0 0-2.14-.183M2.813 4.224c-.073.034-.565.31-1.093.613-1.019.585-1.145.677-1.208.89A.74.74 0 0 0 .53 6.2c.105.232.419.412.653.375.06-.01.186-.059.278-.11.092-.05.172-.092.177-.092.004 0-.013.093-.039.207-.121.523-.146.773-.144 1.447 0 .553.01.704.06.986.247 1.392.839 2.544 1.804 3.508.489.49 1.231 1.031 1.519 1.109a.676.676 0 0 0 .815-.481.4.4 0 0 0-.014-.281c-.061-.196-.185-.332-.476-.527a5 5 0 0 1-.826-.66 5.2 5.2 0 0 1-1.204-1.75 5 5 0 0 1-.278-2.958c.058-.272.235-.84.261-.839.01.001.149.23.311.511.185.321.327.537.385.584.318.263.813.179.99-.167a.68.68 0 0 0 .075-.464c-.034-.133-1.183-2.11-1.299-2.235a.68.68 0 0 0-.765-.139M13.587 7.37a.77.77 0 0 0-.324.301c-.062.105-.073.163-.093.484-.057.882-.207 1.47-.55 2.152a5.1 5.1 0 0 1-1.068 1.429 5.08 5.08 0 0 1-2.826 1.372 8 8 0 0 1 .317-.562c.302-.509.328-.566.339-.71a.67.67 0 0 0-.353-.644c-.222-.117-.587-.06-.754.119-.078.083-1.23 2.06-1.278 2.192a.67.67 0 0 0 .144.653c.065.067.446.3 1.099.671.55.312 1.048.59 1.107.617a.68.68 0 0 0 .666-.09c.152-.126.212-.267.213-.501.001-.259-.082-.412-.295-.549a1 1 0 0 1-.144-.102 1 1 0 0 1 .193-.068c.696-.21 1.491-.643 2.127-1.158 1.054-.854 1.886-2.178 2.195-3.496.139-.591.212-1.362.152-1.609-.077-.322-.33-.538-.627-.536a.8.8 0 0 0-.24.035"/></svg>