<svg xmlns="http://www.w3.org/2000/svg" viewBox="0 0 16 16" fill="currentColor"><path d="m5.505 1.547-.534.533H1.635l-.163.082a.86.86 0 0 0-.424.46C1.002 2.753 1 2.988 1 7.147c0 4.185.002 4.393.049 4.527a.97.97 0 0 0 .45.489l.141.064 2.26.007c1.243.004 2.26.014 2.26.022s-.155.332-.345.719l-.344.705h-.542c-.514.001-.549.004-.678.063a.655.655 0 0 0-.15 1.089C4.299 15.011 4.054 15 8 15s3.701.011 3.899-.168a.65.65 0 0 0-.144-1.083c-.136-.067-.151-.069-.682-.069h-.544l-.344-.705c-.19-.387-.345-.711-.345-.719s1.017-.018 2.26-.022l2.26-.007.141-.064a.97.97 0 0 0 .45-.489c.047-.134.049-.342.049-4.527 0-4.159-.002-4.394-.048-4.525a.88.88 0 0 0-.396-.45l-.143-.079-1.293-.013-1.293-.013-.014-.489c-.012-.445-.018-.493-.065-.527-.044-.032-.481-.038-2.88-.037H6.04zm5.908 4.226v4.36H4.587V3.147h.81c.758 0 .814-.004.873-.051l.063-.051.008-.816.008-.816h5.064zM5.92 2.24v.507h-.507c-.278 0-.506-.007-.506-.015 0-.014.99-.995 1.006-.998.004 0 .007.227.007.506m1.069.097q-.104.132-.005.253l.051.063h3.663l.051-.063q.1-.121-.004-.253l-.056-.07H7.044zm-2.618.353-.198.21-1.113.003c-1.075.004-1.115.005-1.167.057s-.053.089-.053 4.184c0 4.027.001 4.132.051 4.193l.051.063h12.116l.051-.063c.05-.061.051-.166.051-4.188 0-3.52-.006-4.133-.038-4.177-.036-.05-.088-.053-1.166-.065l-1.129-.014-.008-.207-.008-.208 1.253.008c1.217.007 1.254.009 1.326.062.04.031.098.088.128.129l.055.074v8.792l-.055.075a.8.8 0 0 1-.144.135l-.089.06H1.715l-.089-.06a.8.8 0 0 1-.144-.135l-.055-.075-.008-4.325c-.004-2.379-.001-4.363.008-4.411a.46.46 0 0 1 .238-.289c.064-.028.38-.036 1.493-.037L4.57 2.48zm-.184 4.168v3.552l.058.062.058.061h7.387l.062-.058.061-.058v-7.11h1.947v7.68H2.24v-7.68h1.947zm1.078-3.326a.23.23 0 0 0-.065.135c0 .038.029.098.065.134l.066.066h5.338l.066-.066a.23.23 0 0 0 .065-.134.23.23 0 0 0-.065-.135l-.066-.065H5.331zm0 .933-.065.066v4.805l.065.065.066.066h5.338l.066-.066.065-.065V4.531l-.065-.066-.066-.065H5.331zm1.002.588v.254h-.64V4.8h.64zm4.106 0v.254H6.667V4.8h3.706zm-4.112.927-.008.273-.313.008-.313.007v-.561h.642zm4.112.007v.28L8.527 6.26 6.68 6.253l-.008-.273-.007-.273h3.708zm-4.106.946V7.2h-.64v-.533h.64zm4.106 0V7.2H6.667v-.533h3.706zm-4.106.96v.267h-.64v-.533h.64zm4.106 0v.267H6.667v-.533h3.706zm-4.106.92v.254h-.64V8.56h.64zm4.106 0v.254H6.667V8.56h3.706zm-.664 4.135c.189.389.344.713.344.72 0 .006-.924.012-2.053.012a74 74 0 0 1-2.053-.014c0-.008.155-.332.344-.72l.345-.706h2.728zm1.933 1.22a.24.24 0 0 1-.013.341l-.078.078H4.449l-.078-.078c-.125-.126-.091-.339.065-.403.032-.013 1.637-.021 3.6-.018l3.542.005z"/></svg>