<svg xmlns="http://www.w3.org/2000/svg" viewBox="0 0 16 16" fill="currentColor"><path fill-rule="evenodd" d="M7.213.682c-.514.031-1.028.073-1.32.107-1.963.235-3.481.796-4.136 1.528a1.8 1.8 0 0 0-.351.581l-.059.155-.008 4.84c-.005 3.547.001 4.889.023 5.024.2 1.2 2.121 2.086 5.105 2.354.706.063 2.36.063 3.066 0 2.864-.257 4.703-1.057 5.074-2.208.043-.134.046-.469.046-5.063 0-4.729-.002-4.926-.049-5.067q-.273-.807-1.407-1.344c-.921-.437-2.137-.722-3.664-.857-.425-.038-1.966-.071-2.32-.05m1.8 1.345c1.644.098 3.089.434 3.873.9.201.119.447.343.447.406s-.246.287-.447.407c-1.129.671-3.556 1.04-5.913.899-1.633-.098-3.078-.435-3.859-.899-.199-.119-.447-.344-.447-.405 0-.054.201-.251.36-.355.771-.5 2.372-.878 4.08-.962.406-.02 1.509-.015 1.906.009M3.392 5.321c.954.332 1.897.516 3.235.63.522.044 2.222.044 2.746 0 1.519-.129 2.817-.415 3.7-.815l.26-.117v3.027l-.14.132c-.607.573-2.238 1.015-4.163 1.128-2.691.157-5.378-.33-6.223-1.128l-.14-.132V5.017l.225.104c.124.057.349.147.5.2m.145 4.72c.861.284 1.767.459 2.93.563.371.033.781.046 1.533.046 1.111 0 1.64-.034 2.506-.158 1.048-.152 2.092-.44 2.696-.746l.131-.067v3.033l-.14.132c-.607.574-2.238 1.016-4.163 1.128-2.691.157-5.378-.33-6.223-1.128l-.14-.132V9.684l.253.118c.14.065.417.173.617.239"/></svg>