<svg xmlns="http://www.w3.org/2000/svg" viewBox="0 0 16 16" fill="currentColor"><path fill-rule="evenodd" d="M4.573 1.049a.7.7 0 0 0-.157.114c-.147.147-.16.213-.171.828l-.01.565-.645.009-.646.008-.199.099a1.3 1.3 0 0 0-.668.741l-.064.174V13.96l.064.173c.145.4.454.699.843.818.153.047.38.049 5.08.049s4.927-.002 5.08-.049c.381-.117.685-.407.843-.804l.064-.16.007-5.134c.005-3.624-.002-5.174-.022-5.273a1.37 1.37 0 0 0-.717-.908l-.199-.099-.648-.008-.648-.009-.001-.498c0-.274-.013-.552-.028-.618-.065-.289-.261-.44-.546-.422a.49.49 0 0 0-.414.231c-.062.09-.065.114-.078.696l-.013.602H5.347l-.014-.587c-.015-.657-.023-.69-.221-.85-.087-.07-.127-.083-.28-.09a.7.7 0 0 0-.259.029m8.295 2.67.065.065v9.37l-.209-.201a7.1 7.1 0 0 0-2.922-1.647 7.24 7.24 0 0 0-3.604 0 7.1 7.1 0 0 0-2.922 1.647l-.209.201v-9.37l.065-.065.066-.066h9.604zm-5.188.87a2.18 2.18 0 0 0-1.21.586 2.3 2.3 0 0 0-.674 1.084c-.065.213-.071.274-.072.674 0 .371.009.474.058.652.19.69.724 1.313 1.341 1.565.55.224 1.204.224 1.754 0 .617-.252 1.152-.876 1.341-1.565.084-.307.084-.97-.001-1.278a2.37 2.37 0 0 0-.679-1.124c-.514-.484-1.146-.686-1.858-.594m.686 1.134c.307.084.655.418.781.748.038.101.064.241.073.396.023.412-.095.721-.381 1.003-.254.25-.488.346-.839.346s-.585-.096-.839-.346a1.23 1.23 0 0 1-.388-.923c0-.368.123-.667.377-.923.322-.323.75-.429 1.216-.301m.327 6.492a5.67 5.67 0 0 1 3.027 1.319c.189.162.24.221.24.276v.07H4.04l-.008-.07c-.006-.055.021-.095.128-.192a6.2 6.2 0 0 1 1.344-.886c.977-.467 2.035-.638 3.189-.517"/></svg>