<svg xmlns="http://www.w3.org/2000/svg" viewBox="0 0 16 16" fill="currentColor"><path fill-rule="evenodd" d="M1.84 1.067A2.01 2.01 0 0 0 .345 2.82C.327 2.994.321 4.665.326 7.853c.01 5.341-.007 4.883.204 5.331.193.411.542.76.953.953.441.208.131.193 4.177.203 1.991.005 3.62.002 3.62-.006 0-.007-.093-.125-.207-.26a4.6 4.6 0 0 1-.576-.867l-.097-.193-3.113-.007L2.173 13l-.144-.08a.68.68 0 0 1-.324-.384c-.018-.065-.025-1.651-.02-4.925l.008-4.829.081-.13a.7.7 0 0 1 .211-.211l.131-.081 1.602-.006 1.602-.007.507.765c.7 1.057.706 1.065.888 1.15l.152.071 3.175.014 3.176.013.13.081c.081.05.161.13.211.211l.081.13.013 1.015.014 1.016.252.086c.272.092.739.31.937.436a.7.7 0 0 0 .142.078c.011 0 .015-.609.009-1.353l-.01-1.353-.073-.24c-.218-.713-.746-1.226-1.442-1.401-.204-.051-.306-.053-3.161-.053H7.37L6.758 2.1c-.548-.818-.625-.921-.743-.993l-.131-.08-1.922-.006c-1.825-.005-1.932-.003-2.122.046m10.311 6.455a3.51 3.51 0 0 0-3.036 2.598c-.083.311-.085.335-.085.88 0 .543.002.569.083.874a3.52 3.52 0 0 0 2.031 2.346 3.55 3.55 0 0 0 2.102.195c1.156-.244 2.142-1.114 2.55-2.249.135-.375.187-.699.187-1.166s-.052-.791-.187-1.166A3.55 3.55 0 0 0 13.6 7.68a3.9 3.9 0 0 0-1.449-.158m.65.772c1.533.188 2.607 1.57 2.397 3.083a2.8 2.8 0 0 1-.834 1.602 2.7 2.7 0 0 1-3.347.299 2.7 2.7 0 0 1-.978-1.126c-.201-.425-.236-.594-.236-1.152 0-.574.037-.742.262-1.2.174-.354.42-.669.696-.891.459-.369.851-.532 1.506-.626q.205-.029.534.011m-.699.519c-.112.022-.286.07-.386.108-.189.07-.511.249-.564.312-.023.029.291.357 1.528 1.593l1.557 1.557.053-.065c.101-.123.293-.518.349-.718.12-.426.099-.947-.053-1.367a2.26 2.26 0 0 0-1.546-1.391 2.7 2.7 0 0 0-.938-.029m-1.432.929a2.26 2.26 0 0 0-.377 1.493c.051.407.148.674.361.994a2.214 2.214 0 0 0 2.826.764c.188-.094.387-.227.387-.259 0-.03-3.069-3.107-3.099-3.107a.4.4 0 0 0-.098.115"/></svg>