<svg xmlns="http://www.w3.org/2000/svg" viewBox="0 0 16 16" fill="currentColor"><path fill-rule="evenodd" d="M5.147 2.031a.8.8 0 0 0-.194.097c-.055.04-1.174 1.301-2.487 2.803C.349 7.353.075 7.677.04 7.796a.57.57 0 0 0 0 .408c.035.119.311.444 2.451 2.891 2.013 2.3 2.433 2.768 2.54 2.824l.129.068 4.48.007c2.92.005 4.541-.002 4.656-.02.458-.07.754-.224 1.104-.574.346-.346.5-.638.573-1.089.036-.225.036-8.397 0-8.622-.073-.451-.227-.743-.573-1.089s-.638-.5-1.089-.573c-.218-.035-9.034-.032-9.164.004m9.073 1.34a.7.7 0 0 1 .359.303l.074.126v8.4l-.074.126a.7.7 0 0 1-.359.303c-.082.029-.868.036-4.343.036l-4.244.002-2.03-2.32C2.487 9.071 1.573 8.015 1.573 8s.914-1.071 2.03-2.347l2.03-2.32 4.244.002c3.475 0 4.261.007 4.343.036M7.782 5.375a.69.69 0 0 0-.408.418.6.6 0 0 0 .002.422c.041.137.09.192.859.965l.816.82-.816.82c-.769.773-.818.828-.859.965a.6.6 0 0 0-.002.422.67.67 0 0 0 .419.419.6.6 0 0 0 .422-.002c.137-.041.192-.09.965-.859l.82-.816.82.816c.773.769.828.818.965.859a.6.6 0 0 0 .422.002.67.67 0 0 0 .419-.419.6.6 0 0 0-.002-.422c-.041-.137-.09-.192-.859-.965L10.949 8l.816-.82c.769-.773.818-.828.859-.965a.6.6 0 0 0 .002-.422.67.67 0 0 0-.419-.419.6.6 0 0 0-.422.002c-.137.041-.192.09-.965.859l-.82.816-.82-.816c-.773-.769-.828-.818-.965-.859a.64.64 0 0 0-.433-.001"/></svg>