<svg xmlns="http://www.w3.org/2000/svg" viewBox="0 0 16 16" fill="currentColor"><path fill-rule="evenodd" d="M7.671 2.028a2.1 2.1 0 0 0-.658.231c-.224.13-.624.53-.754.754a2.05 2.05 0 0 0 0 1.974c.13.224.53.624.754.754a2.05 2.05 0 0 0 1.974 0c.224-.13.624-.53.754-.754a2.03 2.03 0 0 0 .24-1.22c-.065-.501-.214-.8-.581-1.167a2.6 2.6 0 0 0-.413-.341 2.07 2.07 0 0 0-1.316-.231m.67 1.403c.42.258.428.867.016 1.128a.667.667 0 0 1-.93-.224c-.071-.115-.08-.155-.08-.333 0-.173.01-.22.074-.328a.64.64 0 0 1 .627-.331c.126.008.2.03.293.088M3.115 7.375c-.24.074-.448.364-.448.625 0 .268.208.551.459.626.12.036.711.041 4.874.041s4.754-.005 4.874-.041A.69.69 0 0 0 13.333 8a.69.69 0 0 0-.459-.626c-.201-.06-9.565-.058-9.759.001m4.556 2.653a2.1 2.1 0 0 0-.658.231c-.224.13-.624.53-.754.754a2.05 2.05 0 0 0 0 1.974c.13.224.53.624.754.754a2.03 2.03 0 0 0 1.22.24c.501-.065.8-.214 1.167-.581s.516-.666.581-1.167a1.7 1.7 0 0 0 0-.466c-.065-.501-.214-.8-.581-1.167a2.6 2.6 0 0 0-.413-.341 2.07 2.07 0 0 0-1.316-.231m.67 1.403c.42.258.428.867.016 1.128a.667.667 0 0 1-.93-.224c-.071-.115-.08-.155-.08-.333 0-.173.01-.22.074-.328a.64.64 0 0 1 .627-.331c.126.008.2.03.293.088"/></svg>