<svg xmlns="http://www.w3.org/2000/svg" viewBox="0 0 16 16" fill="currentColor"><path fill-rule="evenodd" d="M3.004 1.361c-.43.073-.733.234-1.071.572-.346.346-.499.638-.573 1.089-.036.226-.036 9.73 0 9.956.074.451.227.743.573 1.089s.638.499 1.089.573c.226.036 9.73.036 9.956 0 .451-.074.743-.227 1.089-.573s.499-.638.573-1.089c.036-.226.036-9.73 0-9.956-.074-.451-.227-.743-.573-1.089s-.638-.499-1.089-.573c-.2-.032-9.78-.031-9.974.001m9.883 1.344a.7.7 0 0 1 .359.303l.074.125v9.734l-.074.125a.7.7 0 0 1-.359.303c-.149.053-9.625.053-9.774 0a.7.7 0 0 1-.359-.303l-.074-.125V3.133l.074-.125a.7.7 0 0 1 .359-.303c.149-.053 9.625-.053 9.774 0M7.778 4.71c-.239.073-.445.361-.445.623A.7.7 0 0 0 8 6a.7.7 0 0 0 .667-.667.68.68 0 0 0-.456-.625.63.63 0 0 0-.433.002M5.115 7.375c-.24.074-.448.364-.448.625 0 .268.208.551.459.626.206.061 5.542.061 5.748 0A.69.69 0 0 0 11.333 8a.69.69 0 0 0-.459-.626c-.2-.059-5.566-.058-5.759.001m2.663 2.668c-.239.074-.445.362-.445.624 0 .344.322.666.667.666s.667-.322.667-.666c0-.269-.205-.551-.456-.625a.63.63 0 0 0-.433.001"/></svg>