<svg xmlns="http://www.w3.org/2000/svg" viewBox="0 0 16 16" fill="currentColor"><path fill-rule="evenodd" d="M7.38.693a7.47 7.47 0 0 0-3.967 1.585c-.257.204-.931.878-1.135 1.135A7.46 7.46 0 0 0 .743 6.96a8.5 8.5 0 0 0 0 2.08c.32 2.083 1.427 3.855 3.137 5.018a7.2 7.2 0 0 0 3.08 1.199 8.6 8.6 0 0 0 2.08 0c2.257-.345 4.143-1.618 5.3-3.577a7.4 7.4 0 0 0 .917-2.64 8.5 8.5 0 0 0 0-2.08 7.45 7.45 0 0 0-1.535-3.547 11.5 11.5 0 0 0-1.135-1.135A7.44 7.44 0 0 0 9.053.747C8.631.684 7.759.656 7.38.693m1.58 1.382a5.8 5.8 0 0 1 1.693.55 6 6 0 0 1 2.008 1.594 6.3 6.3 0 0 1 1.164 2.339c.128.511.161.801.161 1.442s-.033.931-.161 1.442c-.212.849-.658 1.733-1.194 2.371a6.07 6.07 0 0 1-3.189 2.012c-.511.128-.801.161-1.442.161s-.931-.033-1.442-.161c-.849-.212-1.733-.658-2.371-1.194a5.9 5.9 0 0 1-1.561-1.978 6 6 0 0 1-.564-1.76c-.067-.412-.067-1.374 0-1.786.176-1.072.627-2.091 1.277-2.888a6 6 0 0 1 2.008-1.593 6 6 0 0 1 2.133-.61c.27-.028 1.183.009 1.48.059M7.778 4.71c-.239.073-.445.361-.445.623A.7.7 0 0 0 8 6a.7.7 0 0 0 .667-.667.68.68 0 0 0-.456-.625.63.63 0 0 0-.433.002M5.115 7.375c-.24.074-.448.364-.448.625 0 .268.208.551.459.626.206.061 5.542.061 5.748 0A.69.69 0 0 0 11.333 8a.69.69 0 0 0-.459-.626c-.2-.059-5.566-.058-5.759.001m2.663 2.668c-.239.074-.445.362-.445.624 0 .344.322.666.667.666s.667-.322.667-.666c0-.269-.205-.551-.456-.625a.63.63 0 0 0-.433.001"/></svg>