<svg xmlns="http://www.w3.org/2000/svg" viewBox="0 0 16 16" fill="currentColor"><path fill-rule="evenodd" d="M7.138 1.054a7.07 7.07 0 0 0-4 1.906c-.962.911-1.699 2.236-1.988 3.576a7.8 7.8 0 0 0-.098 2.328 7 7 0 0 0 3.818 5.397 6.8 6.8 0 0 0 3.13.732 6.7 6.7 0 0 0 2.56-.478 7 7 0 0 0 3.955-3.955A6.7 6.7 0 0 0 14.993 8a6.7 6.7 0 0 0-.478-2.56 6.97 6.97 0 0 0-3.408-3.707 6.5 6.5 0 0 0-2.273-.68 10 10 0 0 0-1.696.001m1.409 1.374c1.373.118 2.538.684 3.52 1.709.928.968 1.411 2.065 1.511 3.43.13 1.757-.455 3.291-1.714 4.5a5.36 5.36 0 0 1-3.037 1.483c-.334.047-1.32.047-1.654 0a5.36 5.36 0 0 1-3.029-1.475c-1.068-1.026-1.615-2.183-1.722-3.642-.141-1.916.59-3.612 2.085-4.834 1.084-.887 2.517-1.302 4.04-1.171M7.413 3.532v.439L7.3 4c-.492.127-.869.342-1.186.676a1.94 1.94 0 0 0-.468.776c-.077.223-.083.269-.084.601-.001.295.01.398.059.569.217.757.711 1.16 2.046 1.67 1.125.431 1.581.713 1.755 1.09.049.105.058.173.058.431-.001.28-.007.32-.074.457-.198.405-.776.666-1.393.629-.699-.043-1.229-.466-1.511-1.209l-.082-.217-.257.101-.562.221c-.169.067-.31.132-.315.146-.012.037.122.396.228.606.197.394.501.759.823.989a3.2 3.2 0 0 0 .842.402l.18.047.007.454.007.454.607.008.607.007v-.876l.193-.046c.8-.193 1.463-.638 1.727-1.16.14-.278.191-.507.205-.933.015-.439-.014-.624-.152-.982-.282-.731-.809-1.13-2.12-1.605-1.391-.504-1.651-.705-1.652-1.279 0-.255.066-.442.22-.617.111-.126.363-.257.585-.304a2.5 2.5 0 0 1 .812-.009c.361.077.669.324.859.69l.109.207c.008.01 1.064-.422 1.089-.446.031-.03-.111-.359-.237-.549-.359-.541-.908-.915-1.485-1.011l-.1-.017v-.878H7.413z"/></svg>