<svg xmlns="http://www.w3.org/2000/svg" viewBox="0 0 16 16" fill="currentColor"><path fill-rule="evenodd" d="M7.782.042a.6.6 0 0 0-.246.16c-.198.197-.203.231-.203 1.43v1.035h-.566c-.337 0-.681.016-.847.039a2.97 2.97 0 0 0-1.843.993 3.01 3.01 0 0 0-.502 3.131 3 3 0 0 0 1.998 1.73c.319.081.613.107 1.206.107h.554V12H5.632c-1.94 0-1.89-.005-2.097.202a.7.7 0 0 0-.202.465c0 .158.081.342.202.464.207.207.157.202 2.097.202h1.701v1.035c0 1.199.005 1.233.202 1.43A.7.7 0 0 0 8 16c.158 0 .343-.08.465-.202.197-.197.202-.232.202-1.426V13.34l.7-.014c.723-.015.896-.036 1.26-.157a3.02 3.02 0 0 0 1.876-1.878c.201-.599.2-1.312-.001-1.918a3 3 0 0 0-1.529-1.733c-.484-.234-.888-.305-1.74-.306l-.566-.001V4h1.368c1.569 0 1.56.001 1.763-.202A.7.7 0 0 0 12 3.333a.7.7 0 0 0-.202-.464c-.203-.203-.194-.202-1.763-.202H8.667V1.632c0-1.199-.005-1.233-.202-1.43a.64.64 0 0 0-.683-.16m-.449 5.627v1.669l-.673-.01c-.65-.009-.68-.012-.87-.081a1.66 1.66 0 0 1-1.115-1.486 1.65 1.65 0 0 1 .946-1.604c.269-.13.433-.153 1.106-.155L7.333 4zm2.88 3.085c.485.175.886.584 1.043 1.064.092.281.092.75 0 1.031-.157.48-.558.889-1.043 1.064-.193.07-.221.072-.873.082l-.673.01V8.662l.673.01c.652.009.68.012.873.082"/></svg>