<svg xmlns="http://www.w3.org/2000/svg" viewBox="0 0 16 16" fill="currentColor"><path fill-rule="evenodd" d="M5.28 1.373A6 6 0 0 0 .399 5.165a7 7 0 0 0-.334 1.261A7.4 7.4 0 0 0 .024 7.88a6.1 6.1 0 0 0 1.329 3.24c.231.284.37.374.605.393a.47.47 0 0 0 .321-.058.64.64 0 0 0 .352-.412c.076-.263.027-.419-.239-.75a4.8 4.8 0 0 1-.979-2.066c-.073-.344-.1-1.072-.054-1.445a4.64 4.64 0 0 1 1.324-2.738c.663-.668 1.45-1.093 2.414-1.302.239-.052.357-.06.876-.061.395-.001.664.011.787.035.751.143 1.44.438 2.013.86.305.225.8.729 1.019 1.038.301.424.558.968.713 1.507a.75.75 0 0 0 .358.473c.103.054.158.059.844.075.785.018.924.039 1.309.195.612.247 1.183.81 1.434 1.413.168.404.2.57.2 1.056 0 .485-.032.653-.198 1.053a2.8 2.8 0 0 1-.847 1.08c-.309.231-.414.503-.311.804a.64.64 0 0 0 .574.443c.193.017.303-.02.512-.172.847-.62 1.384-1.505 1.568-2.586.05-.29.056-.404.043-.755a3.97 3.97 0 0 0-2.236-3.457c-.509-.254-1.022-.375-1.71-.406l-.394-.017-.117-.288c-.749-1.838-2.428-3.209-4.397-3.591a6.4 6.4 0 0 0-1.857-.068m2.502 6.002a.69.69 0 0 0-.408.418c-.035.118-.041.448-.041 2.364v2.227l-.82-.816c-.773-.769-.828-.818-.965-.858a.6.6 0 0 0-.422-.003.67.67 0 0 0-.419.419.6.6 0 0 0 .002.422c.041.14.097.2 1.46 1.568 1.545 1.551 1.544 1.55 1.832 1.55.279.001.289-.007 1.83-1.552 1.364-1.367 1.419-1.426 1.46-1.566a.6.6 0 0 0 .002-.422.67.67 0 0 0-.419-.419.6.6 0 0 0-.422.003c-.137.04-.192.089-.965.858l-.82.816v-2.227c0-2.525.008-2.411-.202-2.622a.65.65 0 0 0-.683-.16"/></svg>