<svg xmlns="http://www.w3.org/2000/svg" viewBox="0 0 16 16" fill="currentColor"><path fill-rule="evenodd" d="M7.782 1.375a.69.69 0 0 0-.408.418c-.035.119-.041.552-.041 3.364v3.228L6.18 7.235C5.077 6.136 5.02 6.083 4.882 6.043a.6.6 0 0 0-.422-.002.67.67 0 0 0-.419.419.6.6 0 0 0 .001.422c.041.14.101.203 1.794 1.901 1.904 1.91 1.873 1.883 2.165 1.883.283.001.264.017 2.163-1.885 1.694-1.697 1.753-1.759 1.794-1.899a.6.6 0 0 0 .001-.422.67.67 0 0 0-.419-.419.6.6 0 0 0-.422.002c-.138.04-.195.093-1.298 1.192l-1.153 1.15V5.157c0-3.641.013-3.406-.202-3.622a.65.65 0 0 0-.683-.16m-6 8a.6.6 0 0 0-.246.16c-.205.205-.203.186-.202 1.837 0 .835.011 1.511.026 1.606.074.451.227.743.573 1.089s.638.499 1.089.573c.226.036 9.73.036 9.956 0 .451-.074.743-.227 1.089-.573s.499-.638.573-1.089c.015-.095.026-.771.026-1.606.001-1.65.003-1.632-.201-1.837A.7.7 0 0 0 14 9.333c-.149 0-.34.08-.453.189-.208.203-.199.121-.214 1.825l-.013 1.52-.074.125a.7.7 0 0 1-.359.303c-.149.053-9.625.053-9.774 0a.7.7 0 0 1-.359-.303l-.074-.125-.013-1.52c-.015-1.704-.006-1.622-.214-1.825a.65.65 0 0 0-.671-.147"/></svg>