<svg xmlns="http://www.w3.org/2000/svg" viewBox="0 0 16 16" fill="currentColor"><path fill-rule="evenodd" d="M2.716 1.05c-.273.098-.51.313-.632.572l-.071.151v12.454l.072.153c.147.313.442.542.78.604.157.029 4.762.045 4.762.016 0-.007-.093-.136-.207-.286a5 5 0 0 1-.327-.493l-.12-.219-1.98-.001L3.013 14V2h6.849l.01.78c.01.736.014.789.072.934.11.28.334.508.608.619.115.046.211.053.921.061l.793.01.007 1.641.007 1.642.173.058c.214.073.571.23.695.305.05.031.101.057.112.057s.02-1.011.019-2.247c0-2.141-.003-2.252-.05-2.353-.062-.132-2.353-2.424-2.464-2.466-.121-.045-7.922-.036-8.049.009m8.604 1.91.426.427h-.866V2.96c0-.235.003-.427.007-.427s.199.192.433.427M4.093 6.653a.47.47 0 0 0-.293.456q0 .309.26.434l.117.057h2.931c2.5-.001 2.967-.007 3.172-.042a7 7 0 0 1 .634-.056c.394-.017.395-.017.46-.094a.47.47 0 0 0 .096-.393.48.48 0 0 0-.207-.313l-.099-.075-3.495-.006c-2.967-.005-3.508 0-3.576.032m6.374 1.891c-1.504.253-2.65 1.376-2.912 2.854a4.4 4.4 0 0 0 0 1.204c.252 1.421 1.328 2.523 2.765 2.829.317.068 1.043.068 1.36 0 1.437-.306 2.513-1.408 2.765-2.829a4.4 4.4 0 0 0 0-1.204 3.52 3.52 0 0 0-2.738-2.824c-.275-.059-.965-.076-1.24-.03m-6.42.631a.51.51 0 0 0-.25.387c-.018.163.061.329.212.45l.103.081 1.405.008 1.406.007.065-.14c.083-.177.322-.561.441-.706a1 1 0 0 0 .091-.126c0-.009-.759-.015-1.687-.015-1.628.001-1.69.003-1.786.054m7.088.89.065.066v1.988l.358-.357c.307-.306.37-.358.442-.358.109 0 .196.088.196.197 0 .074-.068.151-.56.642-.47.469-.571.557-.636.557s-.166-.088-.636-.557c-.492-.491-.56-.568-.56-.642 0-.109.087-.197.196-.197.072 0 .135.052.442.358l.358.357v-1.988l.065-.066A.23.23 0 0 1 11 10a.23.23 0 0 1 .135.065m-6.96 1.565a.52.52 0 0 0-.388.471.55.55 0 0 0 .28.455c.07.039.223.045 1.277.052l1.197.008-.017-.125a6 6 0 0 1-.017-.508V11.6l-1.114.003c-.612.001-1.16.013-1.218.027m5.117.787c.1.038.121.149.121.62v.452l.071.056c.069.054.093.055 1.516.055s1.447-.001 1.516-.055l.071-.056v-.452c0-.353.009-.47.04-.531a.195.195 0 0 1 .346 0c.055.107.057.869.003 1.051a.58.58 0 0 1-.32.379l-.136.063H9.48l-.136-.063c-.285-.133-.357-.321-.357-.928 0-.517.028-.599.204-.606a.3.3 0 0 1 .101.015"/></svg>