<svg xmlns="http://www.w3.org/2000/svg" viewBox="0 0 16 16" fill="currentColor"><path fill-rule="evenodd" d="M7.38.693a7.47 7.47 0 0 0-3.967 1.585c-.257.204-.931.878-1.135 1.135A7.46 7.46 0 0 0 .743 6.96a8.5 8.5 0 0 0 0 2.08c.32 2.083 1.427 3.855 3.137 5.018a7.2 7.2 0 0 0 3.08 1.199 8.6 8.6 0 0 0 2.08 0c2.257-.345 4.143-1.618 5.3-3.577a7.4 7.4 0 0 0 .917-2.64 8.5 8.5 0 0 0 0-2.08 7.45 7.45 0 0 0-1.535-3.547 11.5 11.5 0 0 0-1.135-1.135A7.44 7.44 0 0 0 9.053.747C8.631.684 7.759.656 7.38.693m1.58 1.382a5.8 5.8 0 0 1 1.693.55c.399.196.856.482 1.076.674l.117.101-.237.228a9 9 0 0 1-1.494 1.154c-.349.211-1.189.631-1.263.631-.011 0-.077-.099-.147-.22a35 35 0 0 0-1.91-2.978c-.027-.035-.041-.073-.029-.083.018-.017.422-.081.727-.116.245-.029 1.173.009 1.467.059M5.821 3.14c.728 1.043 1.726 2.618 1.726 2.726 0 .027-.79.219-1.32.319-1.015.193-2.213.327-3.572.401a7 7 0 0 1-.487.017 2 2 0 0 1 .059-.243 6.05 6.05 0 0 1 2.437-3.348c.22-.147.71-.424.753-.425.009 0 .191.249.404.553m7.165 1.52a6.2 6.2 0 0 1 1.001 2.896c.017.195.015.208-.031.194-.062-.019-.55-.11-.796-.148a12.7 12.7 0 0 0-3.154-.064l-.14.016-.073-.17c-.04-.094-.133-.302-.207-.463l-.134-.293.534-.268c.976-.49 1.705-.992 2.467-1.698.169-.157.315-.286.325-.287a2 2 0 0 1 .208.285M8.368 7.455c.091.199.165.372.165.383s-.111.061-.246.109c-1.658.592-3.252 1.838-4.646 3.631l-.224.288-.119-.14c-.209-.244-.469-.66-.672-1.073a5.8 5.8 0 0 1-.618-2.36l-.016-.341.251-.015c.138-.009.394-.023.57-.031a28 28 0 0 0 3.614-.402 17 17 0 0 0 1.506-.355c.27-.086.25-.1.435.306m3.859 1.374c.535.045 1.607.222 1.659.275.026.026-.065.39-.2.801a6.1 6.1 0 0 1-1.055 1.908c-.359.426-1.035 1.05-1.082.998a2 2 0 0 1-.094-.318 47 47 0 0 0-.924-3.174c-.088-.26-.155-.477-.148-.484.023-.023.82-.052 1.177-.042.191.005.491.021.667.036m-2.975.864c.413 1.209 1.13 3.776 1.071 3.834-.037.037-.599.228-.877.297-.515.129-.804.162-1.446.162-.452 0-.672-.012-.893-.048a6 6 0 0 1-1.787-.577c-.388-.195-.92-.524-.92-.57 0-.03.289-.404.61-.791.345-.415 1.204-1.271 1.563-1.558a8.5 8.5 0 0 1 1.44-.926c.426-.211.998-.434 1.031-.4.01.009.103.269.208.577"/></svg>