<svg xmlns="http://www.w3.org/2000/svg" viewBox="0 0 16 16" fill="currentColor"><path fill-rule="evenodd" d="M7.834 1.157a1 1 0 0 0-.23.107c-.14.097-4.081 4.081-4.289 4.336-1.078 1.321-1.537 3.203-1.195 4.893.271 1.339.981 2.56 1.973 3.393 1.129.948 2.476 1.447 3.907 1.447 1.278 0 2.442-.376 3.507-1.131a5.98 5.98 0 0 0 2.484-5.069 6 6 0 0 0-1.384-3.638c-.104-.126-1.09-1.131-2.192-2.234-2.101-2.105-2.08-2.087-2.348-2.124a.7.7 0 0 0-.233.02m1.956 3.37c1.809 1.814 1.99 2.013 2.258 2.475.241.417.437.949.543 1.479.052.26.061.39.062.866 0 .478-.008.603-.06.857a5.1 5.1 0 0 1-.736 1.769c-.266.402-.827.956-1.25 1.237a4.8 4.8 0 0 1-1.717.715c-.254.054-.365.061-.89.061-.52-.001-.639-.009-.893-.062-1.421-.294-2.624-1.203-3.255-2.46-.585-1.165-.674-2.372-.267-3.637.038-.118.153-.382.255-.587.32-.644.411-.748 2.384-2.727a155 155 0 0 1 1.775-1.766c.009 0 .815.801 1.791 1.78"/></svg>