<svg xmlns="http://www.w3.org/2000/svg" viewBox="0 0 16 16" fill="currentColor"><path fill-rule="evenodd" d="M10.08 1.032c-.578.066-1.289.325-1.807.658-.342.22-.585.44-1.7 1.544l-1.12 1.109 3.102 3.102 3.102 3.102L12.792 9.4c.771-.78 1.201-1.235 1.342-1.424.98-1.301 1.142-3.115.411-4.576-.447-.894-1.291-1.686-2.203-2.066-.545-.227-1.064-.322-1.729-.316-.242.002-.482.009-.533.014M3.226 6.58a45 45 0 0 0-1.253 1.3c-1.22 1.493-1.3 3.701-.192 5.266.23.325.748.843 1.073 1.073 1.31.928 3.072 1.038 4.536.283.517-.266.755-.469 2.01-1.71l1.147-1.135-3.094-3.095a415 415 0 0 0-3.11-3.095c-.01 0-.512.501-1.117 1.113"/></svg>