<svg xmlns="http://www.w3.org/2000/svg" viewBox="0 0 16 16" fill="currentColor"><path fill-rule="evenodd" d="M4.844 1.532a.6.6 0 0 0-.169.099c-.137.128-.153.191-.164.666l-.01.444-.11.042-1.324.48c-.668.241-1.244.45-1.282.465-.169.066-.316.343-.276.521.01.046.685 1.896 1.5 4.111l1.483 4.027.014.884.014.885.08.113a.7.7 0 0 0 .187.169c.106.055.114.055 3.231.055h3.124l.114-.08c.224-.157.222-.15.238-1.146l.014-.88 1.489-4.04c1.582-4.294 1.549-4.196 1.449-4.388a.57.57 0 0 0-.227-.224 58 58 0 0 0-1.28-.471l-1.332-.482-.114-.043V2.35c0-.215-.013-.438-.029-.496a.55.55 0 0 0-.331-.331c-.075-.021-1.007-.029-3.146-.028-2.506 0-3.058.007-3.143.037M10.5 7.993l.006 5.5H5.52V2.48l2.487.007 2.486.006zM6.306 3.837a.54.54 0 0 0-.273.292c-.011.039-.02.623-.02 1.298v1.226l.067.116a.54.54 0 0 0 .175.18l.11.064h1.632c1.584 0 1.635-.001 1.737-.054a.6.6 0 0 0 .179-.164l.074-.111.008-1.208c.005-.801-.002-1.243-.021-1.314a.51.51 0 0 0-.28-.325c-.1-.046-.212-.049-1.694-.049s-1.594.003-1.694.049M4.507 6.671c0 1.572-.005 2.853-.011 2.847A665 665 0 0 1 2.661 4.51c-.005-.027.251-.132.886-.365.491-.18.908-.328.926-.329.027-.002.034.585.034 2.855m7.933-2.528c.649.236.904.34.899.366-.011.05-1.823 4.994-1.836 5.009-.005.006-.01-1.275-.01-2.847s.009-2.858.02-2.857.428.148.927.329M8.987 5.4v.627H7.013V4.773h1.974zM7.08 8.306c-.382.135-.423.693-.065.894l.118.067h1.24c1.397 0 1.37.003 1.52-.204.198-.273.063-.679-.254-.767-.169-.047-2.422-.038-2.559.01m-.694 1.479a.493.493 0 0 0-.355.592.46.46 0 0 0 .245.324l.111.059H8c1.537 0 1.618-.002 1.716-.051a.55.55 0 0 0 .27-.36.52.52 0 0 0-.347-.559c-.12-.034-3.116-.038-3.253-.005m0 1.492a.498.498 0 0 0-.226.83c.157.157.226.163 1.551.154 1.077-.007 1.163-.011 1.259-.059a.504.504 0 0 0 .159-.762c-.149-.178-.109-.173-1.449-.178-.667-.002-1.25.005-1.294.015"/></svg>