<svg xmlns="http://www.w3.org/2000/svg" viewBox="0 0 16 16" fill="currentColor"><path fill-rule="evenodd" d="M11.552.029a3.52 3.52 0 0 0-2.653 1.857 3.5 3.5 0 0 0-.228 2.684c.165.519.425.948.827 1.365a3.476 3.476 0 0 0 5.004 0 3.2 3.2 0 0 0 .616-.851 3.52 3.52 0 0 0-.3-3.655A3.46 3.46 0 0 0 12.093.013a4 4 0 0 0-.541.016M7.834 1.375c-.245.059-4.843 1.662-5.034 1.754-.363.176-.691.589-.771.972-.038.185-.04 3.756-.002 4.235.123 1.543.668 2.955 1.648 4.266a7.7 7.7 0 0 0 3.498 2.633c.905.346 1.15.346 2.045.004 1.179-.451 2.257-1.182 3.041-2.062a8.9 8.9 0 0 0 1.732-2.95c.272-.8.427-1.805.404-2.618l-.008-.298-.174.105a5 5 0 0 1-.966.408 4.2 4.2 0 0 1-1.074.168 4.43 4.43 0 0 1-2.68-.758 5.1 5.1 0 0 1-1.222-1.217c-.885-1.327-1.018-2.996-.352-4.408.072-.152.116-.275.099-.273a2 2 0 0 0-.184.039m4.673 2.012v1.6h-.693l-.007-1.281-.007-1.281-.333.209-.367.229c-.026.016-.033-.047-.033-.281V2.28l.393-.247.392-.246h.655z"/></svg>