<svg xmlns="http://www.w3.org/2000/svg" viewBox="0 0 16 16" fill="currentColor"><path fill-rule="evenodd" d="M11.733 1.269c-.377.065-.621.156-.88.329-.237.158-8.699 8.61-8.772 8.762-.029.059-.209.737-.402 1.507-.381 1.525-.382 1.533-.261 1.777.1.2.35.356.57.356.084 0 2.62-.62 2.905-.71.125-.04.408-.316 4.343-4.246 2.315-2.312 4.281-4.293 4.368-4.401.19-.235.321-.486.401-.769.078-.27.083-.784.012-1.047a2.13 2.13 0 0 0-1.462-1.494c-.188-.053-.669-.091-.822-.064m.592 1.396a.76.76 0 0 1 .346.348.8.8 0 0 1 0 .643c-.046.09-1.19 1.249-4.214 4.27l-4.15 4.148-.675.166c-.371.092-.681.16-.69.151-.008-.008.061-.322.154-.696l.169-.681 4.174-4.171c3.618-3.614 4.19-4.176 4.294-4.213a.86.86 0 0 1 .592.035M7.782 12.709c-.241.074-.449.364-.449.624 0 .268.208.552.46.626.119.036.536.041 3.207.041s3.088-.005 3.207-.041c.252-.074.46-.358.46-.626a.69.69 0 0 0-.46-.626c-.2-.059-6.232-.058-6.425.002"/></svg>