<svg xmlns="http://www.w3.org/2000/svg" viewBox="0 0 16 16" fill="currentColor"><path fill-rule="evenodd" d="M12.412.802a2.6 2.6 0 0 0-1.164.412c-.154.101-1.166 1.098-4.803 4.73-2.535 2.531-4.637 4.651-4.672 4.709-.04.067-.256.808-.576 1.974-.567 2.067-.574 2.1-.451 2.342a.7.7 0 0 0 .161.204c.13.104.347.171.488.152.238-.033 3.846-1.035 3.952-1.098.134-.08 9.251-9.206 9.377-9.387a2.5 2.5 0 0 0 .48-1.507c0-.353-.051-.635-.168-.929A2.54 2.54 0 0 0 12.412.802m.471 1.331c.369.069.722.341.88.678q.251.536-.014 1.069c-.088.176-.353.446-4.598 4.69l-4.504 4.503-1.166.318c-.642.175-1.172.313-1.179.307-.006-.007.132-.537.307-1.179l.318-1.166L7.43 6.849c4.249-4.25 4.514-4.51 4.69-4.597.274-.136.489-.17.763-.119"/></svg>