<svg xmlns="http://www.w3.org/2000/svg" viewBox="0 0 16 16" fill="currentColor"><path fill-rule="evenodd" d="M2.054 1.056a1.51 1.51 0 0 0-.992.937L1 2.173v11.654l.062.18c.155.449.504.782.978.933.187.06.188.06 2.24.06h2.053l.14-.063a.9.9 0 0 0 .236-.17c.183-.203.182-.196.198-1.274.016-1.081.014-1.073.215-1.383.104-.16 4.191-4.062 4.478-4.275.182-.135.54-.329.752-.408a1 1 0 0 0 .234-.14c.196-.167.2-.183.209-.895.006-.399-.002-.703-.022-.818a1.7 1.7 0 0 0-.244-.594c-.099-.138-3.806-3.645-3.951-3.738a2 2 0 0 0-.298-.151l-.16-.064-2.96-.006c-2.547-.004-2.98.001-3.106.035m7.438 3.111 1.817 1.728-1.595-.008L8.12 5.88l-.125-.073a1 1 0 0 1-.207-.174c-.159-.191-.161-.22-.161-1.787 0-.827.01-1.42.024-1.415.013.005.841.786 1.841 1.736m3.561 4.544a1.4 1.4 0 0 0-.446.16c-.106.067-3.273 3.045-3.836 3.607-.262.263-.342.359-.366.445-.021.072-.032.356-.032.828v.719l.069.138c.073.146.207.27.376.346.089.04.199.046.889.046h.786l.147-.07c.118-.057.532-.437 2.123-1.95 1.087-1.035 2.008-1.922 2.046-1.972.143-.187.219-.52.174-.762-.053-.285-.157-.441-.553-.828-.425-.415-.619-.568-.811-.64a1.5 1.5 0 0 0-.566-.067m.541 1.4.293.283-.342.341-.341.341-.329-.315c-.181-.173-.328-.328-.328-.345s.147-.171.327-.344c.296-.284.332-.311.377-.279.028.019.182.162.343.318"/></svg>