<svg xmlns="http://www.w3.org/2000/svg" viewBox="0 0 16 16" fill="currentColor"><path fill-rule="evenodd" d="M13.067.602c-.379.066-.622.157-.88.329-.238.159-6.7 6.61-6.773 6.762-.028.059-.209.737-.402 1.507-.381 1.526-.382 1.534-.26 1.777.099.2.349.356.57.356.122 0 2.853-.683 2.985-.747.152-.073 6.603-6.535 6.762-6.773.238-.356.33-.676.33-1.146 0-.195-.015-.395-.037-.48-.19-.758-.761-1.333-1.535-1.545a3.7 3.7 0 0 0-.76-.04m.521 1.363c.177.06.387.27.447.447a.8.8 0 0 1 .002.51c-.04.121-.302.39-3.214 3.305l-3.17 3.174-.681.17c-.375.093-.688.162-.696.153-.009-.008.06-.321.153-.696l.17-.681 3.174-3.17c3.456-3.453 3.235-3.25 3.549-3.255a1 1 0 0 1 .266.043m-11.25.063c-.431.072-.733.234-1.072.572-.346.346-.499.638-.572 1.089-.037.225-.037 9.73 0 9.956.073.451.226.743.572 1.089s.638.499 1.089.572c.226.037 9.731.037 9.956 0 .451-.073.743-.226 1.089-.572s.5-.638.573-1.089c.016-.102.027-1.103.027-2.607 0-2.764.01-2.624-.202-2.836A.7.7 0 0 0 13.333 8a.72.72 0 0 0-.452.189c-.215.209-.199.001-.214 2.824l-.014 2.52-.075.128a.72.72 0 0 1-.393.313c-.065.017-1.74.024-4.909.02l-4.809-.007-.126-.074a.7.7 0 0 1-.303-.36c-.053-.148-.053-9.625 0-9.773a.7.7 0 0 1 .303-.359l.126-.074 2.52-.014c2.823-.015 2.615.001 2.824-.214A.72.72 0 0 0 8 2.667a.7.7 0 0 0-.202-.465C7.585 1.99 7.73 2 4.935 2.003c-1.358.002-2.526.013-2.597.025"/></svg>