<svg xmlns="http://www.w3.org/2000/svg" viewBox="0 0 16 16" fill="currentColor"><path fill-rule="evenodd" d="M9.947 1.037c-.792.256-1.007 1.292-.383 1.841a.98.98 0 0 0 .82.242c.347-.067.616-.279.772-.609.077-.163.084-.2.084-.446 0-.256-.004-.277-.101-.471a1 1 0 0 0-.499-.497c-.119-.057-.192-.071-.387-.076a1.5 1.5 0 0 0-.306.016m-6.414.065a1.06 1.06 0 0 0-.71.717A1.08 1.08 0 0 0 3.382 3.1c.16.078.2.087.417.087.214-.001.261-.01.414-.083.221-.104.4-.283.512-.511.083-.168.088-.196.088-.459 0-.26-.006-.294-.084-.459a1.02 1.02 0 0 0-.887-.599 1 1 0 0 0-.309.026M2.978 3.52a.7.7 0 0 0-.164.091c-.123.094-1.383 1.897-1.512 2.165-.135.278-.17.488-.207 1.224-.016.323-.042.765-.058.982a6 6 0 0 0-.019.57c.011.164.018.181.121.276.237.221.578.151.685-.142.03-.08.062-.431.111-1.205a23 23 0 0 1 .085-1.12c.009-.015.126-.178.258-.361l.242-.333.02 1.2.019 1.2-.187 1.8-.187 1.8-.309 1.315c-.178.761-.307 1.369-.307 1.444.005.575.811.773 1.072.264.027-.053.19-.689.361-1.413.331-1.403.332-1.41.48-2.883.048-.476.067-.564.114-.514.013.015.064.381.113.813.088.779.089.803.103 2.32l.015 1.534.066.133a.52.52 0 0 0 .454.302c.298.021.543-.143.61-.409.02-.077.03-.57.03-1.465v-1.349l-.218-1.966c-.21-1.893-.218-1.994-.228-2.7-.011-.855-.045-.841.311-.137.161.319.257.473.364.589.192.207 1.243 1.04 1.356 1.075.18.055.41-.057.509-.249a.5.5 0 0 0-.008-.397c-.029-.059-.286-.299-.698-.653l-.651-.561-.356-.84c-.875-2.064-.899-2.118-.994-2.224-.166-.184-.237-.202-.814-.2a5 5 0 0 0-.582.024m6.327.047c-.127.064-.172.111-.358.378l-.661.933c-.508.715-.641.953-.681 1.219-.016.101-.041.665-.058 1.254-.033 1.201-.033 1.205.143 1.314.125.077.317.08.414.008.153-.114.157-.135.234-1.248l.071-1.038.256-.36.255-.359.015.653.016.652-.516 2.523a207 207 0 0 0-.515 2.566c0 .041.147.045 1.877.045 1.788 0 1.88-.003 1.938-.05l.061-.049-.047-.504a18 18 0 0 0-.667-3.497l-.122-.406V6.387l.22.407c.121.224.271.473.333.553.07.09.335.323.696.609.69.549.681.543.819.565.324.052.524-.288.328-.558-.034-.048-.315-.312-.623-.587l-.56-.499-.647-1.538c-.357-.845-.679-1.578-.717-1.627a.7.7 0 0 0-.206-.155c-.129-.06-.165-.063-.645-.063-.502-.001-.51 0-.653.073m4.529 4.858a.4.4 0 0 0-.103.159c-.025.085-.023.118.016.2.053.111.136.162.298.183a.42.42 0 0 1 .331.244c.047.104.05.235.05 2.852l.001 2.742.094.094c.087.088.103.093.219.08.092-.01.141-.033.186-.085l.062-.071-.008-2.858-.007-2.858-.071-.152a.98.98 0 0 0-.807-.575c-.163-.011-.198-.005-.261.045m-5.258 3.968a56 56 0 0 0-.443 2.082c0 .11.071.299.141.373a.42.42 0 0 0 .339.139c.203 0 .337-.088.436-.284.023-.045.157-.567.296-1.16l.268-1.136.015-.06h-.519c-.471 0-.52.004-.533.046m1.786.56c.04 1.459.051 1.639.111 1.754.098.188.236.28.423.28.2 0 .406-.163.462-.366.018-.063.028-.512.029-1.188v-1.086h-1.041z"/></svg>