<svg xmlns="http://www.w3.org/2000/svg" viewBox="0 0 16 16" fill="currentColor"><path fill-rule="evenodd" d="M9.782 1.375c-.241.074-.449.364-.449.625 0 .158.081.343.202.465.201.201.21.202 1.623.202h1.228L9.235 5.82C6.159 8.899 6.083 8.977 6.042 9.118c-.052.181-.053.25-.001.422a.67.67 0 0 0 .419.419c.172.052.241.051.422-.001.141-.041.219-.117 3.298-3.193l3.153-3.151v1.228c0 1.413.001 1.422.202 1.623a.7.7 0 0 0 .465.202.7.7 0 0 0 .465-.202c.21-.211.202-.11.201-2.503 0-1.983-.003-2.115-.049-2.215a.67.67 0 0 0-.33-.345l-.137-.069-2.122.002c-1.767.002-2.142.008-2.246.04M3.004 3.361c-.43.073-.733.234-1.071.572-.346.346-.499.638-.573 1.089-.036.225-.036 7.731 0 7.956.074.451.227.743.573 1.089s.638.499 1.089.573c.225.036 7.731.036 7.956 0 .451-.074.743-.227 1.089-.573s.499-.638.573-1.089c.016-.1.026-.992.026-2.273.001-2.393.009-2.293-.201-2.503A.7.7 0 0 0 12 8c-.149 0-.34.08-.453.189-.213.207-.199.041-.214 2.491l-.013 2.187-.074.125a.7.7 0 0 1-.359.303c-.148.053-7.626.053-7.774 0a.7.7 0 0 1-.359-.303l-.074-.125-.007-3.809c-.005-2.505.002-3.844.02-3.91a.72.72 0 0 1 .313-.393l.127-.075 2.187-.013c2.45-.015 2.284-.001 2.491-.214A.72.72 0 0 0 8 4a.7.7 0 0 0-.202-.465c-.211-.21-.106-.202-2.53-.199-1.174.002-2.193.013-2.264.025"/></svg>