<svg xmlns="http://www.w3.org/2000/svg" viewBox="0 0 16 16" fill="currentColor"><path fill-rule="evenodd" d="M.448.042A.69.69 0 0 0 .041.46a.6.6 0 0 0 .001.422c.041.139.097.199 1.522 1.627l1.479 1.482-.362.327C1.809 5.105.911 6.237.269 7.357c-.35.61-.35.698.003 1.3.698 1.194 1.591 2.305 2.541 3.163 1.236 1.116 2.699 1.86 4.097 2.084 1.58.254 3.269-.078 4.717-.927l.253-.149 1.547 1.544c1.491 1.488 1.551 1.545 1.691 1.586a.6.6 0 0 0 .422.001.67.67 0 0 0 .419-.419c.052-.172.051-.241-.001-.422-.041-.142-.167-.269-7.487-7.589S1.024.083.882.042a.63.63 0 0 0-.434 0m7.099 1.976c-.643.063-1.047.134-1.236.218a.74.74 0 0 0-.328.341.9.9 0 0 0 0 .499.8.8 0 0 0 .314.339c.163.083.304.09.607.028a5.54 5.54 0 0 1 3.016.241c1.631.601 3.213 2.025 4.49 4.041.11.174.15.26.138.298-.05.158-.611.982-1.005 1.477-.244.306-.285.377-.307.537a.64.64 0 0 0 .156.51c.151.171.287.234.501.234.289 0 .412-.09.793-.581.462-.597.981-1.393 1.219-1.872.143-.289.115-.474-.136-.915-.833-1.464-2.05-2.876-3.28-3.807-.533-.404-1.406-.904-1.919-1.1a8 8 0 0 0-1.463-.41c-.465-.077-1.195-.114-1.56-.078M5.564 6.883a2.63 2.63 0 0 0 .01 2.358c.27.531.654.915 1.185 1.185a2.64 2.64 0 0 0 2.358.01l.251-.121.775.774.774.775-.378.185a6.3 6.3 0 0 1-1.859.568c-.347.052-1.186.044-1.52-.013-1.643-.281-3.149-1.245-4.546-2.911A15 15 0 0 1 1.56 8.23l-.13-.21.073-.139c.1-.191.473-.752.702-1.056q.656-.868 1.435-1.577l.347-.315.849.85.849.849zm1.968 1.596c.454.454.818.833.809.842-.047.047-.377.075-.567.048a1.34 1.34 0 0 1-1.151-1.218c-.016-.184.026-.498.066-.498.01 0 .389.372.843.826"/></svg>