<svg xmlns="http://www.w3.org/2000/svg" viewBox="0 0 16 16" fill="currentColor"><path fill-rule="evenodd" d="M7.44 2.029c-.911.077-1.669.296-2.573.743C3.124 3.634 1.49 5.26.272 7.343c-.353.603-.353.711 0 1.314 1.206 2.064 2.837 3.693 4.558 4.555a6.8 6.8 0 0 0 3.611.764 6.9 6.9 0 0 0 2.129-.482 10.6 10.6 0 0 0 1.372-.72c.66-.432 1.073-.771 1.686-1.385a13.5 13.5 0 0 0 2.142-2.803c.292-.513.292-.659 0-1.172-.835-1.465-2.052-2.878-3.281-3.808-.533-.404-1.406-.904-1.919-1.1-1.082-.413-2.085-.566-3.13-.477M8.907 3.41c2.026.359 3.954 1.87 5.5 4.311.084.133.153.258.153.279 0 .08-.528.866-.933 1.39-1.382 1.785-3.004 2.886-4.72 3.203-.443.081-1.371.081-1.814 0-1.622-.3-3.102-1.258-4.479-2.9-.346-.412-.975-1.297-1.133-1.594-.053-.099-.053-.099 0-.198.158-.297.787-1.182 1.133-1.594 1.471-1.753 3.062-2.73 4.799-2.946.327-.04 1.142-.014 1.494.049M7.586 5.372a2.658 2.658 0 0 0 .131 5.271c1.663.194 3.12-1.263 2.926-2.926a2.66 2.66 0 0 0-3.057-2.345m.742 1.334c.084.022.216.072.292.111.179.091.472.384.563.563.199.393.199.847 0 1.24a1.7 1.7 0 0 1-.563.563 1.36 1.36 0 0 1-1.24 0 1.7 1.7 0 0 1-.563-.563 1.36 1.36 0 0 1 0-1.24c.091-.18.384-.472.564-.564a1.4 1.4 0 0 1 .947-.11"/></svg>