<svg xmlns="http://www.w3.org/2000/svg" viewBox="0 0 16 16" fill="currentColor"><path fill-rule="evenodd" d="M9.707.684C8.67.786 7.838 1.172 7.154 1.87a3.8 3.8 0 0 0-.944 1.55c-.166.506-.188.691-.203 1.693L5.994 6h-.699c-.826 0-.905.015-1.093.202C3.999 6.406 4 6.393 4 8s-.001 1.594.202 1.798c.188.187.267.202 1.096.202H6v2.368c0 2.683-.01 2.552.202 2.763.204.204.191.202 1.798.202s1.594.002 1.798-.202c.212-.211.202-.08.202-2.763V10h.7c.74 0 .84-.013 1.009-.125.206-.136.215-.162.6-1.701.197-.786.358-1.464.358-1.507a.86.86 0 0 0-.161-.428.8.8 0 0 0-.204-.16l-.129-.066-1.086-.007L10 5.998V4.667h1.035c1.198 0 1.232-.005 1.43-.202.203-.204.202-.191.202-1.798 0-1.608.001-1.595-.202-1.798-.201-.201-.22-.203-1.53-.198-.624.002-1.177.008-1.228.013m1.626 1.983v.666l-.726.001c-.802 0-.988.023-1.228.151a1.8 1.8 0 0 0-.561.561c-.137.258-.15.398-.151 1.596 0 1.265.003 1.291.202 1.489.195.195.241.202 1.339.202.744 0 .942.007.932.034-.006.018-.082.318-.169.666l-.157.634h-.775c-.911 0-.98.012-1.17.202-.212.211-.202.08-.202 2.763V14H7.333v-2.368c0-2.683.01-2.552-.202-2.763-.187-.188-.266-.202-1.096-.202h-.702V7.333h.702c.815 0 .906-.015 1.084-.189.206-.2.199-.146.217-1.611.015-1.231.019-1.318.073-1.511.142-.503.363-.888.711-1.236.352-.352.76-.584 1.236-.704.293-.074.285-.074 1.171-.078L11.333 2z"/></svg>