<svg xmlns="http://www.w3.org/2000/svg" viewBox="0 0 16 16" fill="currentColor"><path fill-rule="evenodd" d="M1.128 2.704a.68.68 0 0 0-.382.327L.68 3.16.673 7.946c-.008 5.387-.024 4.966.196 5.185.204.205.51.255.759.125.139-.073 6.101-4.709 6.206-4.826a.7.7 0 0 0 .124-.217c.034-.105.039.156.04 2.202.002 2.631-.007 2.505.204 2.717a.655.655 0 0 0 .744.133c.146-.069 6.154-4.751 6.246-4.867a.656.656 0 0 0 0-.791c-.09-.119-6.049-4.768-6.236-4.865a.66.66 0 0 0-.876.287l-.067.131L8 5.533c-.007 1.306-.022 2.336-.032 2.291a.8.8 0 0 0-.076-.18c-.041-.069-.932-.778-3.114-2.476-1.682-1.309-3.105-2.403-3.162-2.432a.72.72 0 0 0-.488-.032M6.238 8c0 .007-.954.754-2.119 1.659L2 11.305v-6.61l2.119 1.646C5.284 7.246 6.238 7.993 6.238 8m7.333 0c0 .007-.953.754-2.119 1.659l-2.119 1.646v-6.61l2.119 1.646c1.166.905 2.119 1.652 2.119 1.659"/></svg>