<svg xmlns="http://www.w3.org/2000/svg" viewBox="0 0 16 16" fill="currentColor"><path fill-rule="evenodd" d="M4.109 1.055a2 2 0 0 0-.28.111c-.193.103-.547.465-.636.652-.149.31-.153.357-.153 1.664v1.205l-.673.014c-.763.016-.893.037-1.234.207A2.05 2.05 0 0 0 .076 6.16c-.061.199-.061.209-.07 2.071-.007 1.604-.002 1.897.033 2.047.113.488.517.928.999 1.088.163.054.238.058 1.089.068l.913.01v.993c0 1.094.008 1.163.167 1.482.114.229.404.519.634.635.329.165.326.165 2.679.165h2.133l.136-.062a.612.612 0 0 0-.002-1.114c-.101-.046-.227-.049-2.208-.049-2.255-.001-2.213.002-2.285-.133-.018-.033-.027-.601-.027-1.641v-1.591l.078-.078.078-.078h2.102c1.454 0 2.135-.009 2.208-.029.223-.062.413-.331.413-.584s-.19-.522-.413-.584c-.074-.02-.768-.029-2.266-.029-2.382 0-2.346-.002-2.665.167-.208.11-.485.387-.595.595a1.6 1.6 0 0 0-.167.591v.087H1.365l-.07-.083-.07-.084.007-1.75.008-1.75.071-.133a.9.9 0 0 1 .396-.385c.119-.054.147-.054 5.826-.054l5.707-.001.136.063c.163.076.308.22.388.385.046.095.062.19.076.446.015.284.026.34.087.444.108.185.33.315.536.315.234 0 .517-.204.574-.413.042-.155.036-.651-.011-.878a2.03 2.03 0 0 0-1.443-1.539c-.178-.048-.31-.059-.882-.07l-.672-.013-.008-1.27c-.008-1.243-.009-1.274-.068-1.429-.15-.4-.481-.735-.889-.902l-.144-.059-3.333-.006c-2.851-.004-3.354.001-3.478.034m6.626 1.25.065.066v2.322H4.267V3.558c0-1.161.003-1.207.104-1.284.033-.025.753-.032 3.17-.033l3.128-.001zm1.772 6.511c-.745.139-1.281.413-1.754.894a3.08 3.08 0 0 0-.886 2.181c0 1.002.448 1.905 1.239 2.497.521.39 1.037.567 1.721.59.355.012.452.006.693-.044a3.1 3.1 0 0 0 2.172-4.37 2.97 2.97 0 0 0-1.439-1.459c-.44-.215-.729-.282-1.253-.293a6 6 0 0 0-.493.004m1.391 1.952a.45.45 0 0 1 .153.175c.053.108.056.159.056.95 0 .792-.003.843-.056.951a.42.42 0 0 1-.332.236c-.136.021-.32-.069-.405-.197-.054-.08-.061-.124-.061-.38 0-.159-.01-.29-.022-.29s-.204.186-.427.413c-.331.337-.424.417-.513.441a.43.43 0 0 1-.478-.193.52.52 0 0 1-.022-.402c.017-.032.209-.247.427-.476l.397-.418-.292-.009c-.323-.01-.385-.036-.503-.209a.45.45 0 0 1 .069-.543c.126-.113.215-.123 1.084-.117.81.007.829.008.925.068"/></svg>