<svg xmlns="http://www.w3.org/2000/svg" viewBox="0 0 16 16" fill="currentColor"><path fill-rule="evenodd" d="M4.109 1.055a2 2 0 0 0-.28.111c-.193.103-.547.465-.636.652-.149.31-.153.357-.153 1.664v1.205l-.673.014c-.747.015-.887.038-1.207.191-.52.251-.913.711-1.084 1.268-.061.199-.061.209-.07 2.071-.007 1.604-.002 1.897.033 2.047.113.488.517.928.999 1.088.163.054.238.058 1.089.068l.913.01v.993c0 1.094.008 1.163.167 1.482.114.229.404.519.634.635.329.165.326.165 2.679.165h2.133l.136-.062a.612.612 0 0 0-.002-1.114c-.101-.046-.227-.049-2.208-.049-2.255-.001-2.213.002-2.285-.133-.018-.033-.027-.601-.027-1.641v-1.591l.078-.078.078-.078h2.102c1.454 0 2.135-.009 2.208-.029.223-.062.413-.331.413-.584s-.19-.522-.413-.584c-.074-.02-.768-.029-2.266-.029-1.833 0-2.186.007-2.331.041-.54.127-.99.613-1.072 1.159-.017.11-.035.215-.04.235-.008.028-.169.033-.826.026l-.816-.008-.078-.088-.079-.088.007-1.752.008-1.752.071-.133a.9.9 0 0 1 .396-.385c.119-.054.147-.054 5.826-.054l5.707-.001.136.063c.163.076.308.22.388.385.046.095.062.191.076.449.016.3.024.338.096.454a.624.624 0 0 0 .695.274c.164-.046.366-.237.406-.385.042-.155.036-.651-.011-.878a2.03 2.03 0 0 0-1.443-1.539c-.178-.048-.31-.059-.882-.07l-.672-.013-.008-1.27c-.008-1.243-.009-1.274-.068-1.429-.15-.4-.481-.735-.889-.902l-.144-.059-3.333-.006c-2.851-.004-3.354.001-3.478.034m6.626 1.25.065.066v2.322H4.267V3.558c0-1.161.003-1.207.104-1.284.033-.025.753-.032 3.17-.033l3.128-.001zm1.772 6.511c-.745.139-1.281.413-1.754.894a3.08 3.08 0 0 0-.886 2.181c0 1.123.561 2.109 1.531 2.691.426.256.863.377 1.429.396.355.012.452.006.693-.044 1.231-.253 2.147-1.175 2.417-2.433.059-.275.066-.943.013-1.181-.229-1.025-.808-1.781-1.697-2.215-.44-.215-.729-.282-1.253-.293a6 6 0 0 0-.493.004m-.212 1.904a.53.53 0 0 1 .29.275c.016.041.028.191.028.332v.257l.42-.416c.348-.345.44-.422.534-.447a.43.43 0 0 1 .503.255c.096.231.036.342-.451.831l-.405.406.28.001c.239 0 .295.009.386.06a.5.5 0 0 1 .227.377.5.5 0 0 1-.205.362l-.098.067-.842.008c-.832.007-.843.007-.962-.054a.45.45 0 0 1-.254-.375 14 14 0 0 1-.008-.886c.007-.632.015-.759.053-.826a.43.43 0 0 1 .254-.215c.124-.044.132-.045.25-.012"/></svg>