<svg xmlns="http://www.w3.org/2000/svg" viewBox="0 0 16 16" fill="currentColor"><path fill-rule="evenodd" d="M10.267.682c-.957.111-1.699.395-2.414.927-.134.1-1.113 1.058-2.658 2.601C2.812 6.592 2.75 6.657 2.709 6.798c-.037.128-.042.47-.042 2.866v2.72l-.958.962c-.909.912-.959.968-1 1.106a.6.6 0 0 0-.002.422.67.67 0 0 0 .419.419.6.6 0 0 0 .422-.002c.138-.041.194-.091 1.106-1l.962-.958h2.72c2.392 0 2.739-.005 2.866-.041.141-.041.205-.102 2.561-2.46 1.526-1.528 2.477-2.5 2.581-2.639a4.7 4.7 0 0 0 .928-2.153c.05-.297.056-1.063.01-1.36-.317-2.054-1.835-3.604-3.869-3.951-.222-.038-.963-.068-1.146-.047m.943 1.36a3.3 3.3 0 0 1 1.849.981c.452.468.738 1.012.879 1.67.067.315.067.967 0 1.279-.105.487-.329.99-.598 1.344-.08.105-.555.602-1.056 1.104l-.91.913H7.615l1.817-1.82c1.758-1.761 1.818-1.824 1.859-1.965a.6.6 0 0 0 .002-.422.67.67 0 0 0-.419-.419.6.6 0 0 0-.422.002c-.142.041-.22.116-3.299 3.193L4 11.053V7.265l2.233-2.229c1.455-1.452 2.308-2.284 2.448-2.387a3.5 3.5 0 0 1 1.559-.631c.178-.028.754-.014.97.024M9.972 10.74c-.035.04-.328.34-.651.667L8.734 12H4.947l.666-.667.667-.666h3.756z"/></svg>