<svg xmlns="http://www.w3.org/2000/svg" viewBox="0 0 16 16" fill="currentColor"><path fill-rule="evenodd" d="M5.24.706a2.99 2.99 0 0 0-2.332 1.798 2.99 2.99 0 0 0 .681 3.316l.183.18-.183.18a2.986 2.986 0 0 0 0 4.307l.183.18-.183.18c-1.099 1.083-1.223 2.761-.294 3.98 1.087 1.425 3.215 1.562 4.488.29.431-.432.696-.936.837-1.597.014-.066.033-.698.043-1.405l.017-1.286.133.084a3 3 0 0 0 3.637-.463 3 3 0 0 0 .255-3.943 4 4 0 0 0-.294-.327L12.228 6l.183-.18c1.099-1.083 1.223-2.762.294-3.98A3 3 0 0 0 10.68.695C10.319.653 5.554.662 5.24.706m2.093 2.962v1.669l-1.006-.009L5.32 5.32l-.197-.072a1.67 1.67 0 0 1-1.115-1.487 1.65 1.65 0 0 1 .946-1.604c.291-.14.409-.153 1.439-.155L7.333 2zm3.397-1.615c.896.229 1.442 1.131 1.217 2.011a1.67 1.67 0 0 1-1.217 1.217c-.185.047-.297.052-1.134.052h-.929V2h.929c.837 0 .949.005 1.134.053M7.333 8.335v1.668l-1.006-.008-1.007-.008-.197-.072a1.67 1.67 0 0 1-1.115-1.487 1.65 1.65 0 0 1 .946-1.604c.291-.14.409-.153 1.439-.155l.94-.002zm3.397-1.616c.896.229 1.442 1.132 1.217 2.011a1.67 1.67 0 0 1-1.217 1.217c-.879.225-1.782-.321-2.011-1.217-.306-1.197.814-2.317 2.011-2.011M7.328 12.34l-.008 1.007-.073.199a1.74 1.74 0 0 1-1.065 1.043c-.162.053-.25.064-.515.064-.266 0-.353-.011-.516-.064a1.66 1.66 0 0 1-1.143-1.494 1.655 1.655 0 0 1 .946-1.605c.291-.14.409-.152 1.441-.155l.942-.002z"/></svg>