<svg xmlns="http://www.w3.org/2000/svg" viewBox="0 0 16 16" fill="currentColor"><path fill-rule="evenodd" d="M3.671.695a2.02 2.02 0 0 0-1.412.989 1.9 1.9 0 0 0-.232.671c-.037.226-.037 11.064 0 11.29.073.451.227.743.573 1.089s.638.499 1.089.572c.225.037 8.397.037 8.622 0 .451-.073.743-.226 1.089-.572.35-.351.504-.647.574-1.105.018-.114.025-1.63.02-4.336l-.007-4.16-.072-.12c-.041-.068-.964-1.011-2.133-2.178C10.192 1.247 9.693.763 9.6.722 9.482.669 9.436.668 6.64.67 5.078.672 3.742.683 3.671.695m4.996 3.007c0 1.939-.005 1.889.202 2.096S9.025 6 10.965 6h1.702l-.002 3.727c0 3.043-.007 3.745-.036 3.826a.7.7 0 0 1-.303.36l-.126.074H3.8l-.128-.075a.72.72 0 0 1-.312-.393c-.018-.066-.025-1.964-.02-5.576l.007-5.476.074-.126a.7.7 0 0 1 .359-.303c.081-.029.564-.036 2.493-.037L8.667 2zm2.2.111.853.854H10v-.854c0-.469.003-.853.007-.853s.391.384.86.853M7.782 7.375a.6.6 0 0 0-.246.16c-.188.188-.203.267-.203 1.097v.701h-.701c-.83 0-.909.015-1.097.202a.7.7 0 0 0-.202.465c0 .158.081.343.202.465.188.187.267.202 1.097.202h.701v.701c0 .83.015.909.202 1.097a.7.7 0 0 0 .465.202.7.7 0 0 0 .465-.202c.187-.188.202-.267.202-1.097v-.701h.701c.83 0 .909-.015 1.097-.202a.7.7 0 0 0 .202-.465.7.7 0 0 0-.202-.465c-.188-.187-.267-.202-1.097-.202h-.701v-.701c0-.83-.015-.909-.202-1.097a.65.65 0 0 0-.683-.16"/></svg>