<svg xmlns="http://www.w3.org/2000/svg" viewBox="0 0 16 16" fill="currentColor"><path fill-rule="evenodd" d="M3.671.695a2.02 2.02 0 0 0-1.412.989 1.9 1.9 0 0 0-.232.671c-.037.226-.037 11.064 0 11.29.073.451.227.743.573 1.089s.638.499 1.089.572c.225.037 8.397.037 8.622 0 .451-.073.743-.226 1.089-.572.35-.35.504-.647.574-1.105.018-.114.025-1.519.02-4.002L13.987 5.8l-.072-.12c-.041-.069-1.098-1.145-2.467-2.512C9.593 1.315 9.026.764 8.933.722 8.816.669 8.768.668 6.307.67 4.928.672 3.742.683 3.671.695M8 4.035c0 2.311-.008 2.22.202 2.43s.119.202 2.43.202h2.035l-.002 3.393c0 2.765-.007 3.412-.036 3.493a.7.7 0 0 1-.303.36l-.126.074H3.8l-.128-.075a.72.72 0 0 1-.312-.393c-.018-.066-.025-1.964-.02-5.576l.007-5.476.074-.126a.7.7 0 0 1 .359-.303c.08-.029.509-.036 2.16-.037L8 2zm2.533.112 1.187 1.186H9.333V4.147c0-.653.003-1.187.007-1.187s.541.534 1.193 1.187"/></svg>