<svg xmlns="http://www.w3.org/2000/svg" viewBox="0 0 16 16" fill="currentColor"><path fill-rule="evenodd" d="m2.52.683-.2.04C1.68.85 1.063 1.375.82 2c-.148.382-.14.026-.14 6.013v5.547l.06.208a2.16 2.16 0 0 0 1.488 1.491l.212.061h11.12l.212-.061a2.16 2.16 0 0 0 1.488-1.491l.06-.208V8.013c0-4.599-.006-5.571-.036-5.693a2.2 2.2 0 0 0-.574-1.027 2.14 2.14 0 0 0-.926-.552L13.587.68 8.08.676a732 732 0 0 0-5.56.007M4 3v1H1.998l.007-.713c.008-.688.011-.718.071-.834a.84.84 0 0 1 .471-.418q.08-.032.766-.033L4 2zm6.667 1.667v2.666H5.333V2h5.334zm2.885-2.59a.9.9 0 0 1 .372.376c.06.116.063.146.071.834l.007.713H12V1.998l.713.007c.693.008.717.01.839.072M4 6.333v1H2v-2h2zm10 0v1h-2v-2h2zM4 9.667v1H2v-2h2zm6.667 1.666V14H5.333V8.667h5.334zM14 9.667v1h-2v-2h2zM4 13.001v1.001l-.713-.007c-.688-.008-.718-.011-.834-.071a.9.9 0 0 1-.376-.372c-.062-.122-.064-.146-.072-.839L1.998 12H4zm9.995-.288c-.008.688-.011.718-.071.834a.9.9 0 0 1-.372.376c-.122.062-.146.064-.839.072l-.713.007V12h2.002z"/></svg>