<svg xmlns="http://www.w3.org/2000/svg" viewBox="0 0 16 16" fill="currentColor"><path fill-rule="evenodd" d="M1.452 3.076c-.583.272-.604 1.183-.034 1.499l.142.078 6.383.007c4.122.005 6.418-.002 6.48-.019a.83.83 0 0 0 .541-.546 1.1 1.1 0 0 0-.014-.566.85.85 0 0 0-.402-.453l-.135-.062H1.587zm2.441 4.122a.82.82 0 0 0-.485.442c-.048.106-.061.18-.061.36s.013.254.061.36c.08.174.226.324.392.403l.133.063h8.134l.133-.063a.85.85 0 0 0 .392-.403 1.04 1.04 0 0 0 0-.72.9.9 0 0 0-.365-.396l-.107-.057-4.08-.005c-2.244-.002-4.11.005-4.147.016m3.134 4.16c-.14.035-.243.103-.368.242-.164.182-.216.343-.2.623.018.337.162.565.443.703l.151.074h1.894l.151-.074c.281-.138.425-.366.443-.703.016-.281-.036-.441-.2-.624-.232-.257-.203-.252-1.288-.257-.52-.003-.982.004-1.026.016"/></svg>