<svg xmlns="http://www.w3.org/2000/svg" viewBox="0 0 16 16" fill="currentColor"><path fill-rule="evenodd" d="M1.115 1.375c-.24.075-.448.364-.448.626 0 .148.078.324.222.5C.97 2.599 2.153 4 3.518 5.613l2.481 2.934L6 10.642c0 1.786.006 2.115.04 2.23.078.261.114.284 1.662 1.058.949.475 1.45.712 1.533.724a.68.68 0 0 0 .685-.35l.067-.131.007-2.813.007-2.813 2.549-3.014a970 970 0 0 0 2.629-3.114.8.8 0 0 0 .154-.418.7.7 0 0 0-.204-.47c-.221-.215.42-.198-7.141-.196-5.795.002-6.766.007-6.873.04m12.078 1.338c-.351.393-4.391 5.2-4.442 5.287l-.071.12-.007 2.393a113 113 0 0 1-.02 2.394c-.007 0-.306-.147-.666-.326l-.652-.327-.008-2.067L7.32 8.12 7.249 8c-.053-.091-4.139-4.954-4.43-5.273l-.055-.06h5.235c4.985 0 5.234.002 5.194.046"/></svg>