<svg xmlns="http://www.w3.org/2000/svg" viewBox="0 0 16 16" fill="currentColor"><path fill-rule="evenodd" d="M7.413.523c-1.835.165-3.434.906-4.709 2.181C1.546 3.862.836 5.268.583 6.907.532 7.235.523 7.401.523 8s.009.765.06 1.093c.253 1.639.963 3.045 2.121 4.203s2.564 1.868 4.203 2.121c.328.051.494.06 1.093.06s.765-.009 1.093-.06c1.639-.253 3.045-.963 4.203-2.121s1.868-2.564 2.121-4.203c.051-.328.06-.494.06-1.093s-.009-.765-.06-1.093c-.253-1.639-.963-3.045-2.121-4.203A7.4 7.4 0 0 0 9.107.586C8.746.532 7.736.494 7.413.523m1.48 1.036c2.357.355 4.269 1.856 5.148 4.043.314.781.45 1.509.45 2.398 0 .553-.024.81-.121 1.293a6.52 6.52 0 0 1-5.077 5.077c-.483.097-.74.121-1.293.121s-.81-.024-1.293-.121A6.52 6.52 0 0 1 1.63 9.293 5.5 5.5 0 0 1 1.509 8c0-.553.024-.81.121-1.293.381-1.903 1.659-3.597 3.374-4.474a6.6 6.6 0 0 1 2.543-.724c.235-.021 1.084.011 1.346.05M7.846 4.048a.64.64 0 0 0-.288.25 1 1 0 0 0-.06.308l-.018.226-.17.064a1.67 1.67 0 0 0-.99 1.051c-.08.239-.1.67-.043.913.115.488.413.809 1.038 1.117l.178.088v2.102l-.086-.016A3 3 0 0 1 7 9.973c-.344-.173-.463-.196-.634-.123a.54.54 0 0 0-.258.265.57.57 0 0 0 .033.432c.118.208.703.51 1.139.589l.203.036c.002.001.009.101.017.223.015.254.057.352.198.468a.49.49 0 0 0 .622-.014c.128-.108.167-.209.181-.48l.013-.244.163-.059a2.1 2.1 0 0 0 1.012-.819c.212-.349.335-.844.301-1.207a1.72 1.72 0 0 0-.521-1.094c-.211-.209-.451-.353-.796-.479l-.166-.06v-.784c0-.43.006-.783.014-.783.032 0 .223.108.24.136.034.054.238.129.354.13a.487.487 0 0 0 .485-.493.6.6 0 0 0-.053-.227c-.095-.184-.461-.415-.844-.532l-.189-.057-.014-.212c-.017-.239-.062-.338-.209-.457a.37.37 0 0 0-.24-.088.7.7 0 0 0-.205.008m-.358 2.637-.008.259-.096-.085c-.212-.186-.202-.595.022-.861l.074-.088.008.258c.004.142.004.375 0 .517m1.126 1.839c.26.173.372.378.372.676a.97.97 0 0 1-.376.776l-.103.082v-.789c0-.434.009-.789.02-.789s.051.02.087.044"/></svg>