<svg xmlns="http://www.w3.org/2000/svg" viewBox="0 0 16 16" fill="currentColor"><path fill-rule="evenodd" d="M7.413.523c-1.856.167-3.528.954-4.788 2.254C1.521 3.915.831 5.313.583 6.91c-.087.557-.087 1.623 0 2.18.248 1.597.938 2.995 2.042 4.133 1.144 1.18 2.62 1.936 4.285 2.194.322.05.495.06 1.077.061.843.001 1.274-.054 2.018-.254l.213-.058-.199-.203c-.176-.18-.428-.488-.492-.602-.018-.033-.04-.035-.115-.014-.05.015-.26.053-.465.085-.499.077-1.366.082-1.84.01-2.349-.353-4.272-1.864-5.148-4.044-.314-.781-.45-1.509-.45-2.398 0-.553.024-.81.121-1.293A6.53 6.53 0 0 1 6.707 1.63c.49-.099.74-.122 1.306-.121.651.001.988.043 1.602.198a6.5 6.5 0 0 1 4.688 4.715c.149.595.188.926.187 1.578-.001.558-.058 1.118-.143 1.412-.021.075-.019.097.014.115.114.064.422.316.602.492l.203.199.058-.213c.2-.744.255-1.175.254-2.018-.001-.582-.011-.755-.061-1.077-.247-1.596-.938-2.995-2.042-4.133A7.5 7.5 0 0 0 9.104.586C8.745.532 7.736.494 7.413.523m.433 3.525a.64.64 0 0 0-.288.25 1 1 0 0 0-.06.308l-.018.226-.17.064a1.67 1.67 0 0 0-.99 1.051c-.08.239-.1.67-.043.913.115.488.413.809 1.038 1.117l.178.088v2.102l-.086-.016A3 3 0 0 1 7 9.973c-.344-.173-.463-.196-.634-.123a.54.54 0 0 0-.258.265.57.57 0 0 0 .033.432c.118.208.703.51 1.139.589l.203.036c.002.001.009.101.017.223.015.254.057.352.198.468a.49.49 0 0 0 .622-.014c.128-.108.167-.209.181-.48l.013-.244.163-.059a2.1 2.1 0 0 0 1.012-.819c.212-.349.335-.844.301-1.207a1.72 1.72 0 0 0-.521-1.094c-.211-.209-.451-.353-.796-.479l-.166-.06v-.784c0-.43.006-.783.014-.783.032 0 .223.108.24.136.034.054.238.129.354.13a.487.487 0 0 0 .485-.493.6.6 0 0 0-.053-.227c-.095-.184-.461-.415-.844-.532l-.189-.057-.014-.212c-.017-.239-.062-.338-.209-.457a.37.37 0 0 0-.24-.088.7.7 0 0 0-.205.008m-.358 2.637-.008.259-.096-.085c-.212-.186-.202-.595.022-.861l.074-.088.008.258c.004.142.004.375 0 .517m1.126 1.839c.26.173.372.378.372.676a.97.97 0 0 1-.376.776l-.103.082v-.789c0-.434.009-.789.02-.789s.051.02.087.044m3.679 1.208c-.285.086-.532.386-.533.646 0 .204-.075.235-.25.102a.746.746 0 0 0-1.127.259c-.134.273-.084.606.128.868.052.064.055.078.021.11a.6.6 0 0 1-.196.066.74.74 0 0 0-.478.288.67.67 0 0 0-.149.451.6.6 0 0 0 .08.328c.127.254.284.358.637.422.151.027.165.079.057.214a.74.74 0 0 0 .057.985.65.65 0 0 0 .459.215.72.72 0 0 0 .52-.141c.19-.131.22-.118.26.106.061.336.281.566.597.625.448.082.828-.209.891-.685.01-.078.034-.147.053-.155.019-.007.098.032.175.087a.8.8 0 0 0 .292.132c.357.074.664-.072.825-.394a.74.74 0 0 0-.082-.802c-.113-.141-.095-.187.08-.212a.79.79 0 0 0 .619-.438.82.82 0 0 0-.002-.615c-.103-.239-.372-.432-.605-.433-.111-.001-.195-.052-.195-.118 0-.019.029-.061.064-.094.103-.097.18-.306.181-.495.003-.619-.672-.96-1.187-.599-.183.129-.216.117-.24-.083a.75.75 0 0 0-.75-.663 1 1 0 0 0-.202.023m.318.632a.3.3 0 0 1 .056.166c0 .138.109.353.228.451a.66.66 0 0 0 .851.018c.139-.106.263-.122.306-.041.047.087.032.149-.063.27-.24.303-.18.771.125.982a.8.8 0 0 0 .404.137c.1 0 .175.069.175.161 0 .099-.049.132-.235.158-.369.052-.591.3-.591.66 0 .19.042.312.159.46.091.115.1.175.037.245-.066.073-.155.06-.29-.043a.676.676 0 0 0-1.024.22 1 1 0 0 0-.07.254c-.02.164-.063.231-.149.231-.109 0-.151-.047-.17-.193a.9.9 0 0 0-.152-.394.9.9 0 0 0-.323-.212c-.227-.073-.504-.01-.718.164-.06.048-.087.054-.146.033-.1-.035-.138-.146-.078-.229l.11-.15a.7.7 0 0 0 .093-.513c-.067-.282-.275-.463-.591-.516-.164-.028-.201-.044-.233-.102-.034-.06-.034-.076.006-.136.034-.052.075-.072.171-.085.3-.039.532-.221.608-.477.074-.25.044-.418-.113-.636-.11-.151-.11-.252-.002-.312.067-.038.078-.036.147.019.041.032.134.091.208.13.235.125.55.089.755-.086a.66.66 0 0 0 .238-.471c.011-.117.028-.166.07-.195.081-.057.139-.048.201.032m-.358 1.192a.84.84 0 0 0-.441.256.86.86 0 0 0-.266.501.95.95 0 0 0 .303.905c.211.193.388.256.684.244.279-.012.473-.093.654-.275.182-.181.263-.375.275-.654.012-.3-.051-.475-.25-.69a.98.98 0 0 0-.959-.287m.413.611c.368.189.219.74-.191.705-.164-.014-.255-.077-.319-.221-.111-.25.068-.525.352-.542a.5.5 0 0 1 .158.058"/></svg>