<svg xmlns="http://www.w3.org/2000/svg" viewBox="0 0 16 16" fill="currentColor"><path fill-rule="evenodd" d="M4.653.694c-1.276.114-2.345.538-2.587 1.027-.052.104-.053.203-.06 6.558-.006 5.699-.002 6.469.034 6.592a.69.69 0 0 0 .627.462.7.7 0 0 0 .464-.202c.211-.21.202-.1.202-2.586v-2.193l.167-.066c.503-.201 1.223-.305 1.935-.279.667.024 1.155.152 2.306.604 1.498.589 2.01.708 3.019.706 1.016-.002 1.821-.158 2.48-.479.424-.207.664-.426.73-.666.021-.074.03-1.301.03-4.174 0-4.58.015-4.245-.202-4.463-.243-.243-.576-.264-.869-.054-.495.354-1.396.549-2.366.512-.671-.026-1.084-.133-2.216-.572C7.156.958 6.722.824 6.12.732A8.7 8.7 0 0 0 4.653.694M6.12 2.079c.364.073.899.249 1.621.532 1.075.422 1.535.563 2.153.66.407.063 1.312.063 1.786-.001.31-.042.833-.148.94-.19.044-.018.047.148.047 3.274v3.294l-.167.066c-.504.201-1.229.306-1.937.279-.671-.026-1.083-.132-2.216-.572-1.208-.469-1.614-.594-2.241-.692-.41-.064-1.315-.063-1.786.001-.311.042-.833.148-.94.19-.044.018-.047-.148-.047-3.274V2.352l.167-.066c.516-.205 1.063-.286 1.833-.274.378.006.562.022.787.067"/></svg>