<svg xmlns="http://www.w3.org/2000/svg" viewBox="0 0 16 16" fill="currentColor"><path fill-rule="evenodd" d="M1.787 2.042c-.417.114-.71.442-.777.873-.016.102-.023.807-.018 1.78.008 1.597.009 1.613.068 1.758.108.268.352.51.625.622.14.058.163.058 1.648.058 1.486 0 1.509 0 1.648-.058.275-.112.52-.356.624-.622.051-.131.059-.211.069-.753l.012-.607h1.781v2.902c0 2.578.004 2.918.042 3.047.107.362.407.673.798.827.155.061.187.063 1.084.072l.923.009.012.605c.012.661.031.756.199 1 .107.154.356.328.56.391.165.051.247.054 1.582.054s1.416-.003 1.581-.054c.318-.098.563-.326.693-.643.058-.141.059-.164.067-1.754.005-.994-.002-1.678-.019-1.784a1.07 1.07 0 0 0-.85-.882c-.195-.041-2.75-.041-2.944 0a1.08 1.08 0 0 0-.849.865 7 7 0 0 0-.026.659v.5H8.664l-.065-.066-.066-.065V5.093h1.781l.012.607c.01.542.018.622.069.753.104.266.349.51.624.622.139.058.162.058 1.648.058s1.508 0 1.648-.058c.273-.112.516-.354.625-.622.06-.146.06-.147.06-1.866 0-1.587-.004-1.731-.048-1.858a1.04 1.04 0 0 0-.37-.504c-.296-.218-.242-.212-1.915-.212s-1.62-.005-1.914.211a1 1 0 0 0-.359.473c-.051.127-.058.209-.068.75l-.012.606H5.686l-.012-.606c-.01-.547-.017-.622-.07-.758a1.04 1.04 0 0 0-.381-.483c-.292-.2-.216-.192-1.836-.198-1.219-.005-1.477.001-1.6.034m2.8 2.531v1.534H2.08V3.04h2.507zm9.333 0v1.534h-2.507V3.04h2.507zm0 6.867v1.547h-2.507V9.893h2.507z"/></svg>