<svg xmlns="http://www.w3.org/2000/svg" viewBox="0 0 16 16" fill="currentColor"><path fill-rule="evenodd" d="M1.907 1.053A1.99 1.99 0 0 0 .4 2.518c-.052.206-.053.311-.053 5.149s.001 4.942.053 5.149a2 2 0 0 0 1.451 1.451c.199.05.303.053 1.927.053 1.879 0 1.802.006 1.992-.161.155-.136.215-.273.215-.492 0-.265-.098-.434-.344-.59-.074-.048-.173-.051-1.773-.064L2.173 13l-.133-.071a.63.63 0 0 1-.31-.316l-.063-.12V2.84l.07-.133a.63.63 0 0 1 .316-.311l.12-.063 1.278-.008c.773-.005 1.346.003 1.451.019.22.034.418.131.563.276.063.062.329.434.591.825.421.63.49.72.603.787l.128.075 3.186.013 3.187.013.12.064c.066.035.22.159.341.275.278.266.378.313.659.313.385 0 .627-.19.627-.492 0-.283-.349-.815-.721-1.102a2.6 2.6 0 0 0-.599-.302l-.187-.062-2.853-.013L7.693 3l-.141-.058a1.1 1.1 0 0 1-.419-.298 20 20 0 0 1-.546-.789c-.447-.664-.473-.697-.61-.768l-.143-.074-1.884.002c-1.457.002-1.92.011-2.043.038m8.529 4.15a4.87 4.87 0 0 0-3.284 1.885 4.9 4.9 0 0 0-.926 2.182 6 6 0 0 0 0 1.46 4.87 4.87 0 0 0 2.248 3.382 4.82 4.82 0 0 0 5.052 0 5 5 0 0 0 1.603-1.612c.828-1.343.924-3.113.245-4.545a4.85 4.85 0 0 0-3.841-2.754 6.3 6.3 0 0 0-1.097.002m1.137 1.345c.983.159 1.899.78 2.418 1.639.222.368.398.842.468 1.264.04.243.04.855 0 1.098a3.53 3.53 0 0 1-2.363 2.771 3.48 3.48 0 0 1-3.545-.83 3.44 3.44 0 0 1-.911-1.519c-.1-.346-.13-.571-.13-.971s.03-.625.13-.971a3.56 3.56 0 0 1 1.807-2.166c.249-.125.683-.268.956-.313.305-.051.86-.052 1.17-.002m-.81 1.063a.8.8 0 0 0-.366.349c-.043.094-.049.179-.05.738v.632l-.647.008c-.602.008-.654.013-.754.066a.665.665 0 0 0 0 1.192c.1.053.152.058.754.066l.647.008v.632c.001.724.01.764.22.956.144.132.293.18.502.161a.56.56 0 0 0 .395-.183c.177-.174.188-.229.189-.934v-.632l.647-.008c.602-.008.654-.013.754-.066q.366-.197.367-.596a.6.6 0 0 0-.196-.474c-.175-.171-.213-.178-.925-.188l-.647-.008v-.632c-.001-.554-.007-.644-.05-.738a.8.8 0 0 0-.309-.326c-.112-.058-.402-.071-.531-.023"/></svg>