<svg xmlns="http://www.w3.org/2000/svg" viewBox="0 0 16 16" fill="currentColor"><path fill-rule="evenodd" d="M1.907 1.053A1.99 1.99 0 0 0 .4 2.518c-.052.206-.053.311-.053 5.149s.001 4.942.053 5.149a2 2 0 0 0 1.451 1.451c.199.05.303.053 1.927.053 1.879 0 1.802.006 1.992-.161.155-.136.215-.273.215-.492 0-.265-.098-.434-.344-.59-.074-.048-.173-.051-1.773-.064L2.173 13l-.133-.071a.63.63 0 0 1-.31-.316l-.063-.12V2.84l.07-.133a.63.63 0 0 1 .316-.311l.12-.063 1.278-.008c.773-.005 1.346.003 1.451.019.22.034.418.131.563.276.063.062.329.434.591.825.421.63.49.72.603.787l.128.075 3.186.013 3.187.013.12.064c.066.035.22.159.341.275.278.266.378.313.659.313.385 0 .627-.19.627-.492 0-.283-.349-.815-.721-1.102a2.6 2.6 0 0 0-.599-.302l-.187-.062-2.853-.013L7.693 3l-.141-.058a1.1 1.1 0 0 1-.419-.298 20 20 0 0 1-.546-.789c-.447-.664-.473-.697-.61-.768l-.143-.074-1.884.002c-1.457.002-1.92.011-2.043.038"/></svg>