<svg xmlns="http://www.w3.org/2000/svg" viewBox="0 0 16 16" fill="currentColor"><path fill-rule="evenodd" d="M2.338 1.361c-.434.074-.734.234-1.072.572-.346.346-.499.638-.572 1.089-.037.226-.037 9.73 0 9.956.073.451.226.743.572 1.089s.638.499 1.089.573c.226.036 11.064.036 11.29 0 .451-.074.743-.227 1.089-.573s.499-.638.572-1.089c.037-.225.037-7.731 0-7.956-.073-.451-.226-.743-.572-1.089s-.638-.499-1.089-.573c-.103-.016-1.254-.026-3.061-.026l-2.896-.001-.565-.848c-.31-.466-.598-.885-.64-.931a1 1 0 0 0-.193-.145l-.117-.062-1.853-.004c-1.019-.002-1.911.006-1.982.018M6.21 3.515c.311.466.599.885.64.931a1 1 0 0 0 .193.145l.117.062 3.187.014 3.186.013.128.075a.72.72 0 0 1 .313.393c.017.066.024 1.405.02 3.91l-.007 3.809-.074.125a.7.7 0 0 1-.36.303c-.148.053-10.958.053-11.106 0a.7.7 0 0 1-.36-.303l-.074-.125V3.133l.074-.125a.7.7 0 0 1 .36-.303c.079-.029.425-.036 1.649-.037l1.549-.001zm1.572 3.194a.6.6 0 0 0-.246.159c-.188.188-.203.267-.203 1.097v.702h-.701c-.83 0-.909.014-1.097.202a.7.7 0 0 0-.202.464c0 .159.081.343.202.465.188.187.267.202 1.097.202h.701v.702c0 .829.015.908.202 1.096A.7.7 0 0 0 8 12c.158 0 .343-.08.465-.202.187-.188.202-.267.202-1.096V10h.701c.83 0 .909-.015 1.097-.202a.7.7 0 0 0 .202-.465.7.7 0 0 0-.202-.464c-.188-.188-.267-.202-1.097-.202h-.701v-.702c0-.83-.015-.909-.202-1.096a.64.64 0 0 0-.683-.16"/></svg>