<svg xmlns="http://www.w3.org/2000/svg" viewBox="0 0 16 16" fill="currentColor"><path fill-rule="evenodd" d="M1.84 1.067A2.01 2.01 0 0 0 .345 2.82C.327 2.994.321 4.665.326 7.853c.01 5.341-.007 4.883.204 5.331.193.411.542.76.953.953.424.2.38.196 2.277.196 1.869 0 1.814.005 2.008-.17.346-.312.292-.825-.115-1.078-.092-.058-.104-.058-1.786-.072L2.173 13l-.144-.08a.68.68 0 0 1-.324-.384c-.018-.065-.025-1.651-.02-4.925l.008-4.829.081-.13a.7.7 0 0 1 .211-.211l.131-.081h1.469c1.457 0 1.469 0 1.594.059.22.102.359.263.802.928.543.814.558.833.738.917l.148.069 3.173.014c3.649.015 3.215-.024 3.574.32.247.237.376.312.58.336.269.031.568-.107.674-.312.069-.133.049-.302-.064-.54a2.01 2.01 0 0 0-1.322-1.085c-.203-.051-.306-.053-2.893-.053-1.614 0-2.746-.01-2.841-.026a1 1 0 0 1-.545-.274c-.06-.062-.322-.431-.582-.819-.417-.621-.49-.716-.606-.787l-.131-.08-1.922-.006c-1.825-.005-1.932-.003-2.122.046m12.213 5.654c-.08.03-1.909.672-4.063 1.427-2.154.754-3.954 1.395-4 1.423-.254.157-.368.472-.282.781a.7.7 0 0 0 .139.221c.107.117.199.162 1.846.893l1.734.77.746 1.676c.411.922.773 1.72.805 1.774a.67.67 0 0 0 .627.305c.225-.027.457-.195.533-.387.015-.039.663-1.883 1.44-4.097 1.178-3.357 1.413-4.051 1.415-4.174.007-.476-.472-.788-.94-.612m-3.257 3.217-1.004 1.004-.796-.353a26 26 0 0 1-.816-.372c-.016-.016 3.514-1.274 3.593-1.281.015-.002-.425.449-.977 1.002m1.311 1.747c-.341.973-.627 1.783-.637 1.8-.009.018-.181-.336-.382-.786l-.364-.819.99-.992c.545-.546.995-.988 1.001-.982s-.268.806-.608 1.779"/></svg>