<svg xmlns="http://www.w3.org/2000/svg" viewBox="0 0 16 16" fill="currentColor"><path fill-rule="evenodd" d="M3.115.709a.6.6 0 0 0-.246.16.66.66 0 0 0-.132.753c.029.063.695.75 1.847 1.905l1.802 1.806H4.824c-1.783 0-1.75-.003-1.955.202-.212.212-.202.077-.202 2.798 0 2.112.005 2.422.042 2.549.041.141.105.208 2.486 2.589s2.449 2.446 2.59 2.487a.6.6 0 0 0 .42.002.7.7 0 0 0 .396-.348c.05-.102.053-.18.06-2.191l.007-2.086 2.086-.008c2.011-.007 2.09-.009 2.192-.059a.7.7 0 0 0 .347-.396.6.6 0 0 0-.002-.42c-.041-.141-.101-.204-1.859-1.965l-1.817-1.82h1.561c1.783 0 1.75.003 1.955-.202.212-.212.202-.077.202-2.798s.01-2.586-.202-2.798c-.218-.219.198-.203-5.143-.2-4.054.001-4.766.007-4.873.04M12 3.667v1.666H8.28L6.613 3.667 4.947 2H12zM9.387 8.333 11.053 10H4V6.667h3.72zM7.333 12.52c0 .653-.003 1.187-.006 1.187-.004 0-.541-.534-1.194-1.187l-1.186-1.187h2.386z"/></svg>