<svg xmlns="http://www.w3.org/2000/svg" viewBox="0 0 16 16" fill="currentColor"><path fill-rule="evenodd" d="M4.582.708a2.34 2.34 0 0 0-1.836 1.708q-.19.742.121 1.537c.018.044-.031.047-.793.047-.95 0-1.014.011-1.205.202-.208.207-.202.153-.202 2.131 0 1.979-.006 1.924.202 2.132.167.167.298.202.763.202H2v3.035c0 3.426-.012 3.215.202 3.429.219.22-.274.202 5.798.202s5.579.018 5.798-.202c.214-.214.202-.003.202-3.429V8.667h.368c.465 0 .596-.035.763-.202.208-.208.202-.153.202-2.132 0-1.978.006-1.924-.202-2.131C14.94 4.011 14.876 4 13.926 4c-.762 0-.811-.003-.793-.047.209-.534.248-1.045.118-1.543a2.344 2.344 0 0 0-2.59-1.719c-1.025.137-1.865.737-2.497 1.784a7 7 0 0 0-.149.253c-.012.025-.018.025-.03 0a7 7 0 0 0-.468-.719C6.77 1.023 5.631.519 4.582.708m.713 1.321c.483.089.928.425 1.305.984.153.228.433.77.48.928l.018.061-1.169-.008-1.169-.007-.173-.083a1 1 0 0 1-.491-.491c-.073-.154-.083-.2-.083-.413s.01-.259.083-.413c.217-.456.653-.659 1.199-.558m6.12.068c.218.103.384.269.489.49.073.154.083.2.083.413s-.01.259-.083.413a1 1 0 0 1-.491.491l-.173.083-1.169.007-1.169.008.018-.061c.047-.158.327-.7.48-.928.465-.689 1.011-1.026 1.628-1.004a.8.8 0 0 1 .387.088M7.333 6.333v1H2v-2h5.333zm6.667 0v1H8.667v-2H14zm-6.667 5V14h-4V8.667h4zm5.334 0V14h-4V8.667h4z"/></svg>