<svg xmlns="http://www.w3.org/2000/svg" viewBox="0 0 16 16" fill="currentColor"><path fill-rule="evenodd" d="M3.783 1.375a.64.64 0 0 0-.235.147c-.219.212-.2-.154-.215 4.102L3.32 9.422l-.178.06c-1.166.393-1.927 1.586-1.785 2.801a2.66 2.66 0 0 0 4.311 1.788c.373-.294.727-.805.854-1.231.026-.088.055-.168.063-.179s.183-.043.388-.073A6.665 6.665 0 0 0 12.516 7.4c.031-.144.124-.74.124-.799 0-.005.081-.036.18-.069a2.77 2.77 0 0 0 1.247-.859 2.66 2.66 0 0 0-1.784-4.316 2.66 2.66 0 0 0-2.641 1.416 2.66 2.66 0 0 0 .291 2.9c.29.367.791.715 1.221.849l.154.048-.016.122a5.53 5.53 0 0 1-1.151 2.668 7 7 0 0 1-.874.857 5.6 5.6 0 0 1-2.575 1.075l-.122.016-.048-.154c-.231-.743-.899-1.414-1.664-1.672l-.178-.06-.013-3.798c-.015-4.256.004-3.89-.214-4.102a.65.65 0 0 0-.67-.147m8.545 1.331c.24.063.417.167.608.358.269.268.397.572.397.936s-.128.668-.397.936a1.26 1.26 0 0 1-.936.397c-.364 0-.668-.128-.936-.397A1.26 1.26 0 0 1 10.667 4c0-.364.128-.668.397-.936.269-.27.556-.392.924-.396a1.6 1.6 0 0 1 .34.038m-8 8c.24.063.417.167.608.358s.295.368.358.608c.078.303.037.656-.111.948a1.7 1.7 0 0 1-.563.563 1.36 1.36 0 0 1-1.24 0 1.7 1.7 0 0 1-.563-.563 1.36 1.36 0 0 1 0-1.24c.091-.18.384-.472.564-.564a1.4 1.4 0 0 1 .947-.11"/></svg>