<svg xmlns="http://www.w3.org/2000/svg" viewBox="0 0 16 16" fill="currentColor"><path fill-rule="evenodd" d="M3.586 1.372a2.67 2.67 0 0 0-2.229 2.345c-.142 1.215.619 2.408 1.785 2.801l.178.06.013 3.798c.015 4.256-.004 3.89.214 4.102a.72.72 0 0 0 .453.189c.149 0 .34-.08.453-.189.212-.207.199-.054.214-2.381l.013-2.076.219.264c.871 1.055 2.124 1.837 3.496 2.182.215.054.896.172.996.173.01 0 .044.081.077.18a2.67 2.67 0 0 0 2.249 1.823 2.658 2.658 0 1 0-2.239-3.489l-.048.154-.122-.016a5.6 5.6 0 0 1-2.575-1.075 7 7 0 0 1-.874-.857 5.53 5.53 0 0 1-1.151-2.668l-.016-.122.154-.048c.245-.076.59-.266.827-.456a2.66 2.66 0 0 0-2.087-4.694m.742 1.334c.24.063.417.167.608.358.269.268.397.572.397.936s-.128.668-.397.936A1.26 1.26 0 0 1 4 5.333c-.364 0-.668-.128-.936-.397A1.26 1.26 0 0 1 2.667 4c0-.364.128-.668.397-.936.269-.27.556-.392.924-.396a1.6 1.6 0 0 1 .34.038m8 8c.24.063.417.167.608.358.269.268.397.572.397.936s-.128.668-.397.936a1.26 1.26 0 0 1-.936.397c-.364 0-.668-.128-.936-.397a1.26 1.26 0 0 1-.397-.936c0-.364.128-.668.397-.936.269-.27.556-.392.924-.396a1.6 1.6 0 0 1 .34.038"/></svg>