<svg xmlns="http://www.w3.org/2000/svg" viewBox="0 0 16 16" fill="currentColor"><path fill-rule="evenodd" d="M3.586 1.372a2.67 2.67 0 0 0-2.229 2.345c-.142 1.215.619 2.408 1.785 2.801l.178.06.013 3.798c.015 4.256-.004 3.89.214 4.102a.72.72 0 0 0 .453.189c.149 0 .34-.08.453-.189.218-.212.199.154.214-4.102l.013-3.798.178-.06c1.164-.392 1.926-1.588 1.785-2.801a2.66 2.66 0 0 0-3.057-2.345m.742 1.334c.24.063.417.167.608.358.269.268.397.572.397.936s-.128.668-.397.936A1.26 1.26 0 0 1 4 5.333c-.364 0-.668-.128-.936-.397A1.26 1.26 0 0 1 2.667 4c0-.364.128-.668.397-.936.269-.27.556-.392.924-.396a1.6 1.6 0 0 1 .34.038m4.12.669C8.208 3.449 8 3.739 8 4c0 .149.08.34.189.453.199.204.16.199 1.491.214l1.187.013.127.075a.72.72 0 0 1 .313.393c.017.063.024.852.02 2.186l-.007 2.088-.178.06a2.73 2.73 0 0 0-1.209.845 2.66 2.66 0 0 0 1.784 4.316c1.249.146 2.455-.651 2.827-1.869a2.67 2.67 0 0 0-1.686-3.292l-.178-.06-.014-2.224c-.014-2.211-.015-2.226-.074-2.421a1.9 1.9 0 0 0-.57-.897 1.85 1.85 0 0 0-1.044-.52c-.093-.015-.654-.026-1.285-.025-.896.002-1.145.01-1.245.04m3.88 7.331c.24.063.417.167.608.358.269.268.397.572.397.936s-.128.668-.397.936a1.26 1.26 0 0 1-.936.397c-.364 0-.668-.128-.936-.397a1.26 1.26 0 0 1-.397-.936c0-.364.128-.668.397-.936.269-.27.556-.392.924-.396a1.6 1.6 0 0 1 .34.038"/></svg>