<svg xmlns="http://www.w3.org/2000/svg" viewBox="0 0 16 16" fill="currentColor"><path fill-rule="evenodd" d="M7.72 4.682c-.378.053-.513.08-.733.151a3.34 3.34 0 0 0-2.158 2.161 3 3 0 0 0-.082.299c0 .034-.279.04-2.114.046-2.104.008-2.113.008-2.22.065A.65.65 0 0 0 .048 8c0 .261.127.469.365.596.107.057.116.057 2.22.065 1.835.006 2.114.012 2.114.046 0 .021.037.156.083.299.378 1.182 1.365 2.044 2.61 2.277.224.042.896.042 1.12 0 1.271-.238 2.284-1.143 2.629-2.347l.078-.269h2.055c2.333 0 2.239.007 2.449-.202A.7.7 0 0 0 15.973 8a.7.7 0 0 0-.202-.465c-.21-.209-.115-.202-2.456-.202-1.807 0-2.062-.005-2.062-.039a2.4 2.4 0 0 0-.083-.3 3.34 3.34 0 0 0-2.54-2.261c-.217-.041-.762-.072-.91-.051m.853 1.398a2.06 2.06 0 0 1 1.351 1.36c.053.168.063.257.063.56s-.01.392-.063.56A2.06 2.06 0 0 1 8.56 9.924c-.289.09-.831.09-1.12 0A2.06 2.06 0 0 1 6.076 8.56c-.053-.168-.063-.257-.063-.56s.01-.392.063-.56a2.06 2.06 0 0 1 1.553-1.413c.205-.043.734-.014.944.053"/></svg>