<svg xmlns="http://www.w3.org/2000/svg" viewBox="0 0 16 16" fill="currentColor"><path fill-rule="evenodd" d="M3.226.025c-.223.068-.374.218-.479.475a4.07 4.07 0 0 0-.198 2.337l.04.183-.101.143c-.262.372-.44.719-.585 1.144-.161.471-.2.711-.215 1.333-.04 1.609.39 2.937 1.237 3.828.631.663 1.372 1.064 2.507 1.358l.111.029-.038.093c-.083.196-.147.542-.163.869l-.016.338-.198.029c-.314.047-.716.037-.952-.023-.443-.114-.669-.296-1.263-1.021-.564-.69-.826-.909-1.264-1.062-.251-.087-.366-.096-.528-.038-.325.114-.526.492-.428.803.074.235.218.373.493.476.177.067.329.213.744.721.192.235.429.506.526.602.663.656 1.408.937 2.375.897.21-.009.409-.025.442-.034l.06-.018v.625c0 .745.018.835.202 1.019a.7.7 0 0 0 .465.202c.158 0 .343-.08.465-.202.204-.205.202-.178.202-1.904 0-1.669-.001-1.661.172-2.014.051-.102.147-.249.214-.325.162-.184.226-.331.226-.522.001-.192-.044-.302-.186-.456-.133-.145-.224-.177-.72-.256-.839-.134-1.523-.373-2.026-.707-.724-.481-1.165-1.317-1.309-2.48-.05-.408-.04-1.081.022-1.374.1-.473.317-.929.612-1.282.335-.403.379-.542.274-.883a2.8 2.8 0 0 1-.15-.774c-.019-.317.029-.763.086-.785.047-.018.473.129.762.265.137.064.393.204.569.312.688.419.673.415 1.174.297a8.16 8.16 0 0 1 3.893 0c.501.118.485.122 1.173-.297.176-.108.432-.248.569-.312.293-.137.715-.283.764-.264.057.021.103.448.084.777a2.7 2.7 0 0 1-.15.782.7.7 0 0 0-.042.33c.024.177.056.235.269.489.301.36.518.776.628 1.204.161.631.097 1.7-.146 2.442-.444 1.356-1.387 2.005-3.302 2.271-.322.045-.453.1-.58.245a.56.56 0 0 0-.16.416c0 .218.039.309.235.557.1.126.207.29.239.364.138.319.139.337.139 1.967 0 1.74-.003 1.712.202 1.917a.7.7 0 0 0 .465.202c.158 0 .342-.08.465-.202.21-.21.206-.17.195-2.043l-.009-1.635-.072-.253-.087-.307c-.014-.048.011-.06.233-.116a7 7 0 0 0 1.127-.41c1.36-.683 2.14-1.833 2.402-3.54.059-.384.082-1.371.04-1.688a4.4 4.4 0 0 0-.782-1.976l-.102-.144.039-.169c.17-.751.096-1.63-.197-2.35-.085-.208-.197-.342-.359-.428-.165-.088-.666-.097-1.031-.019-.497.106-1.109.365-1.702.719l-.28.167-.134-.031a9.3 9.3 0 0 0-2.08-.221c-.756 0-1.215.046-1.947.196l-.267.055-.28-.167c-.587-.35-1.2-.61-1.685-.715-.266-.057-.784-.075-.928-.031m.664.362c.164.267.187.348.138.477l-.026.067-.19-.084-.191-.084.015-.122c.008-.066.023-.221.033-.343s.027-.212.038-.2.094.142.183.289"/></svg>