<svg xmlns="http://www.w3.org/2000/svg" viewBox="0 0 16 16" fill="currentColor"><path fill-rule="evenodd" d="M3.199.622a.97.97 0 0 0-.634.49c-.028.056-.46 1.361-.96 2.901C.173 8.428.055 8.799.026 8.978c-.051.321.061.705.282.963.087.102 7.001 5.155 7.356 5.377.117.073.154.082.336.082s.219-.009.336-.082c.34-.212 7.264-5.272 7.366-5.383a1.4 1.4 0 0 0 .2-.304c.075-.159.085-.208.093-.471l.009-.293-.39-1.147c-.214-.631-.786-2.365-1.27-3.853-.485-1.489-.91-2.756-.944-2.816-.237-.408-.792-.568-1.232-.355a1.07 1.07 0 0 0-.421.423c-.029.064-.384 1.137-.79 2.385l-.737 2.269H5.779l-.504-1.546-.755-2.322c-.166-.51-.281-.817-.335-.899a.96.96 0 0 0-.986-.384M4.064 4.8c.436 1.339.652 1.965.703 2.037.04.057.139.141.22.187l.146.083h5.734l.146-.083a.8.8 0 0 0 .22-.187c.052-.073.263-.687.704-2.05.347-1.071.638-1.955.647-1.966s.213.59.454 1.334c.24.743.705 2.155 1.032 3.138.467 1.399.589 1.792.563 1.816-.119.109-6.601 4.795-6.633 4.795-.03 0-6.492-4.669-6.622-4.785-.012-.01.157-.576.377-1.256 1.135-3.521 1.644-5.061 1.661-5.03.01.018.302.904.648 1.967"/></svg>