<svg xmlns="http://www.w3.org/2000/svg" viewBox="0 0 16 16" fill="currentColor"><path fill-rule="evenodd" d="M7.38.693a7.47 7.47 0 0 0-3.967 1.585c-.257.204-.931.878-1.135 1.135A7.46 7.46 0 0 0 .743 6.96a8.5 8.5 0 0 0 0 2.08c.32 2.083 1.427 3.855 3.137 5.018a7.2 7.2 0 0 0 3.08 1.199 8.6 8.6 0 0 0 2.08 0c2.257-.345 4.143-1.618 5.3-3.577a7.4 7.4 0 0 0 .917-2.64 8.5 8.5 0 0 0 0-2.08 7.45 7.45 0 0 0-1.535-3.547 11.5 11.5 0 0 0-1.135-1.135A7.44 7.44 0 0 0 9.053.747C8.631.684 7.759.656 7.38.693m-.948 1.58c-.34.556-.441.735-.629 1.114-.561 1.13-.941 2.415-1.059 3.58a5 5 0 0 1-.04.333c-.007.026-.299.033-1.344.033H2.026l.012-.06c.007-.033.027-.15.043-.26.143-.941.63-2.024 1.258-2.794.215-.263.617-.665.88-.88a6.4 6.4 0 0 1 1.888-1.032c.198-.066.364-.12.369-.12s-.015.039-.044.086m3.593.077c.329.114.986.443 1.289.646.488.327.982.776 1.347 1.223.628.77 1.115 1.853 1.258 2.794.016.11.036.227.043.26l.012.06H12.64c-1.045 0-1.337-.007-1.344-.033a5 5 0 0 1-.04-.333c-.118-1.165-.498-2.45-1.059-3.58a12 12 0 0 0-.629-1.113l-.052-.086.14.042c.078.023.244.077.369.12m-1.919.151c1.006 1.365 1.668 3.033 1.835 4.626l.022.206H6.037l.022-.206c.131-1.251.602-2.648 1.272-3.774.235-.396.633-.978.669-.978.007 0 .055.057.106.126M4.704 8.7c.006.018.023.168.04.333.118 1.162.5 2.453 1.059 3.58.188.378.291.56.629 1.113l.052.086-.14-.042a6.8 6.8 0 0 1-1.664-.771 6.4 6.4 0 0 1-1.311-1.186c-.638-.759-1.142-1.865-1.288-2.826a6 6 0 0 0-.043-.26l-.012-.06H3.36c1.045 0 1.337.007 1.344.033m5.237.173c-.133 1.27-.608 2.668-1.296 3.814-.198.33-.616.939-.645.939s-.447-.609-.645-.939c-.688-1.146-1.163-2.544-1.296-3.814l-.022-.206h3.926zm4.021-.146c-.007.033-.027.15-.043.26-.146.961-.65 2.067-1.288 2.826a6.1 6.1 0 0 1-2.975 1.957l-.14.042.052-.086c.338-.553.441-.735.629-1.113.559-1.127.941-2.418 1.059-3.58.017-.165.034-.315.04-.333.007-.026.299-.033 1.344-.033h1.334z"/></svg>