<svg xmlns="http://www.w3.org/2000/svg" viewBox="0 0 16 16" fill="currentColor"><path fill-rule="evenodd" d="M1.782 1.375a.69.69 0 0 0-.408.418c-.061.206-.061 4.875 0 5.081a.67.67 0 0 0 .419.419c.206.061 4.875.061 5.081 0a.67.67 0 0 0 .419-.419c.061-.206.061-4.875 0-5.081a.67.67 0 0 0-.419-.419c-.199-.059-4.9-.058-5.092.001m7.333 0a.69.69 0 0 0-.408.418c-.061.206-.061 4.875 0 5.081a.67.67 0 0 0 .419.419c.206.061 4.875.061 5.081 0a.67.67 0 0 0 .419-.419c.061-.206.061-4.875 0-5.081a.67.67 0 0 0-.419-.419c-.199-.059-4.899-.058-5.092.001M6 4.333V6H2.667V2.667H6zm7.333 0V6H10V2.667h3.333zM1.782 8.709a.69.69 0 0 0-.408.417c-.061.206-.061 4.875 0 5.081a.67.67 0 0 0 .419.419c.206.061 4.875.061 5.081 0a.67.67 0 0 0 .419-.419c.061-.206.061-4.875 0-5.081a.67.67 0 0 0-.419-.419c-.199-.059-4.9-.057-5.092.002m7.333 0a.69.69 0 0 0-.408.417c-.061.206-.061 4.875 0 5.081a.67.67 0 0 0 .419.419c.206.061 4.875.061 5.081 0a.67.67 0 0 0 .419-.419c.061-.206.061-4.875 0-5.081a.67.67 0 0 0-.419-.419c-.199-.059-4.899-.057-5.092.002M6 11.667v1.666H2.667V10H6zm7.333 0v1.666H10V10h3.333z"/></svg>