<svg xmlns="http://www.w3.org/2000/svg" viewBox="0 0 16 16" fill="currentColor"><path fill-rule="evenodd" d="M4.521 2.029a2.03 2.03 0 0 0-1.419.973c-.06.101-.633 1.232-1.272 2.512L.667 7.841v2.153c0 1.31.011 2.217.027 2.317.073.451.226.743.572 1.089s.638.5 1.089.573c.226.037 11.064.037 11.29 0 .451-.073.743-.227 1.089-.573s.499-.638.572-1.089c.016-.1.027-1.007.027-2.317V7.841L14.17 5.514a144 144 0 0 0-1.272-2.512 2.04 2.04 0 0 0-.88-.803c-.42-.199-.123-.184-3.925-.189-1.877-.002-3.485.006-3.572.019m6.845 1.332a.8.8 0 0 1 .213.113c.106.08.18.217 1.053 1.953.516 1.026.939 1.875.94 1.886s-2.507.02-5.572.02-5.573-.009-5.572-.02.424-.859.94-1.885c1.008-2.004.985-1.966 1.235-2.056.086-.03.664-.037 3.384-.037 2.18-.001 3.313.008 3.379.026m2.628 7.072-.007 1.767-.074.126a.7.7 0 0 1-.36.303c-.148.053-10.958.053-11.106 0a.7.7 0 0 1-.36-.303l-.074-.126-.007-1.767-.007-1.766h12.002zm-10.212-.391c-.241.074-.449.364-.449.625 0 .344.322.666.667.666a.83.83 0 0 0 .437-.164c.392-.324.255-.983-.235-1.13a.62.62 0 0 0-.42.003m2.666 0c-.24.074-.448.364-.448.625 0 .344.322.666.667.666.124 0 .33-.076.431-.159.397-.328.264-.988-.23-1.135a.62.62 0 0 0-.42.003"/></svg>