<svg xmlns="http://www.w3.org/2000/svg" viewBox="0 0 16 16" fill="currentColor"><path fill-rule="evenodd" d="M6.47 1.361a.7.7 0 0 0-.442.479c-.015.066-.106.834-.201 1.707a165 165 0 0 1-.19 1.686l-.015.1H4.109c-1.729 0-1.702-.003-1.907.202A.7.7 0 0 0 2 6c0 .158.08.343.202.465.204.204.187.202 1.83.202h1.435l-.002.086c-.001.048-.064.645-.14 1.327l-.139 1.24-1.347.013c-1.509.015-1.449.008-1.65.214A.72.72 0 0 0 2 10c0 .158.08.343.202.465.201.2.211.202 1.617.202h1.223l-.014.086c-.008.048-.094.801-.19 1.674-.192 1.734-.192 1.729-.05 1.944.194.292.61.379.899.188a.67.67 0 0 0 .285-.399c.015-.066.106-.834.201-1.707.096-.872.181-1.631.19-1.686l.015-.1h2.664l-.014.086c-.008.048-.094.801-.19 1.674-.192 1.734-.192 1.729-.05 1.944.194.292.61.379.899.188a.67.67 0 0 0 .285-.399c.015-.066.106-.834.201-1.707.096-.872.181-1.631.19-1.686l.015-.1h1.513c1.729 0 1.702.003 1.907-.202A.7.7 0 0 0 14 10a.7.7 0 0 0-.202-.465c-.204-.204-.187-.202-1.83-.202h-1.435l.002-.086c.001-.048.064-.645.14-1.327l.139-1.24 1.347-.013c1.509-.015 1.449-.008 1.65-.214A.72.72 0 0 0 14 6a.7.7 0 0 0-.202-.465c-.201-.2-.211-.202-1.617-.202h-1.223l.014-.086c.008-.048.094-.801.19-1.674.192-1.734.192-1.729.05-1.944a.664.664 0 0 0-.899-.188.67.67 0 0 0-.285.399c-.015.066-.106.834-.201 1.707a165 165 0 0 1-.19 1.686l-.015.1H6.958l.014-.086c.008-.048.094-.801.19-1.674.192-1.734.192-1.729.05-1.944a.685.685 0 0 0-.742-.268m2.995 5.392c-.001.048-.064.645-.14 1.327l-.139 1.24-1.327.007-1.326.007v-.06c0-.079.268-2.53.282-2.574.008-.026.297-.033 1.331-.033h1.321z"/></svg>