<svg xmlns="http://www.w3.org/2000/svg" viewBox="0 0 16 16" fill="currentColor"><path fill-rule="evenodd" d="M6.488 1.093a4.5 4.5 0 0 0-2.85 3.592c-.033.241-.04.425-.029.782.009.256.023.498.032.536.017.069.013.072-.192.117C2.077 6.425.854 7.474.337 8.787.092 9.41.016 9.82.015 10.507c0 .956.109 1.267.456 1.299.104.01.147 0 .22-.05.178-.123.196-.17.217-.575.022-.422.068-.624.214-.937q.196-.421.498-.7c.437-.405.947-.611 1.511-.611h.248l.016.367c.03.689.19 1.308.5 1.929.212.424.686 1.055.984 1.31l.111.096-.181.192c-.443.47-.922.687-1.569.711-.309.011-.375.006-.605-.054-.235-.061-.331-.102-.76-.324-.182-.095-.315-.077-.46.063a.38.38 0 0 0-.109.402c.036.133.277.358.664.618a4.4 4.4 0 0 0 1.857.718c.272.041.897.041 1.173 0a4.46 4.46 0 0 0 2.247-1.019l.221-.186.529-.002.53-.002.223.187a4.4 4.4 0 0 0 1.823.936c.292.072.36.083.718.109a4.4 4.4 0 0 0 3.133-1.037c.325-.28.378-.517.161-.724-.141-.136-.278-.157-.447-.071l-.32.165a2.7 2.7 0 0 1-.453.167c-.23.06-.296.065-.605.054-.492-.018-.853-.137-1.224-.402-.156-.111-.523-.474-.523-.517 0-.011.079-.098.176-.193.837-.822 1.327-1.938 1.389-3.169l.017-.33.349.013c.258.01.398.029.536.073a2.26 2.26 0 0 1 1.401 1.236c.143.308.19.511.211.932.016.306.028.379.072.438.099.134.189.181.343.181.159 0 .261-.057.338-.19.115-.196.189-1.079.131-1.569a4.4 4.4 0 0 0-.218-.986 4.15 4.15 0 0 0-1.089-1.749c-.613-.61-1.278-.988-2.062-1.175-.207-.049-.258-.07-.248-.103.007-.023.025-.194.039-.381a4.51 4.51 0 0 0-2.855-4.543 1.1 1.1 0 0 0-.37-.091c-.12 0-.147.012-.245.103-.101.094-.112.117-.122.26-.015.213.047.298.352.486a2.35 2.35 0 0 1 .959 2.828 2 2 0 0 1-.075.184.5.5 0 0 1-.139-.055A4.8 4.8 0 0 0 8.8 4.466a6 6 0 0 0-1.35-.041 5 5 0 0 0-1.15.296c-.143.06-.279.116-.303.123-.048.015-.124-.151-.202-.444-.066-.247-.065-.823.002-1.093a3 3 0 0 1 .353-.793 2.4 2.4 0 0 1 .703-.653c.299-.167.407-.338.348-.548q-.128-.445-.713-.22m2.157 4.173c.248.043.581.141.78.229l.123.055-.141.118a2.4 2.4 0 0 1-.865.427 2.26 2.26 0 0 1-1.39-.1c-.213-.089-.543-.296-.64-.402l-.062-.067.208-.079c.242-.093.618-.184.895-.219a4.8 4.8 0 0 1 1.092.038m-.39 3.133c.163.07.293.2.384.38a.63.63 0 0 1 .08.365c-.001.406-.223.692-.615.792a.5.5 0 0 1-.336.001c-.394-.097-.618-.388-.62-.806a.6.6 0 0 1 .081-.353.79.79 0 0 1 1.026-.379M4.58 9.427c.358.285.66.758.783 1.226.07.264.083.794.026 1.048l-.037.168-.065-.061c-.131-.121-.412-.493-.552-.728a3.9 3.9 0 0 1-.538-1.689l-.018-.223.106.054c.059.03.192.122.295.205m7.174.031c-.064.794-.449 1.672-.983 2.239-.144.154-.138.158-.183-.124-.139-.874.285-1.821 1.024-2.289.072-.046.139-.084.147-.084.009 0 .007.116-.005.258"/></svg>