<svg xmlns="http://www.w3.org/2000/svg" viewBox="0 0 16 16" fill="currentColor"><path fill-rule="evenodd" d="m7.547 1.349-.347.039A6.7 6.7 0 0 0 2.927 3.68a6.7 6.7 0 0 0-1.52 3.342c-.056.339-.058.444-.067 3.056-.006 1.777 0 2.766.018 2.883.072.461.225.756.575 1.106.48.48.825.599 1.734.599.908 0 1.253-.119 1.733-.599.346-.346.5-.638.573-1.089.035-.215.035-2.408 0-2.623-.073-.451-.227-.743-.573-1.089s-.638-.499-1.089-.572c-.09-.015-.497-.027-.904-.027h-.74v-.481c0-.759.07-1.245.268-1.848a5.3 5.3 0 0 1 1.362-2.165A4.9 4.9 0 0 1 5.686 3.2a5.33 5.33 0 0 1 5.674.659 7 7 0 0 1 .857.874 5.5 5.5 0 0 1 1.088 2.713c.016.142.028.475.028.74v.481h-.74c-.407 0-.814.012-.904.027-.451.073-.743.226-1.089.572s-.5.638-.573 1.089c-.035.215-.035 2.408 0 2.623.073.451.227.743.573 1.089.48.48.825.599 1.733.599s1.254-.119 1.734-.599c.35-.351.503-.645.575-1.107.018-.118.024-1.098.018-2.882-.009-2.61-.012-2.717-.067-3.056a6.56 6.56 0 0 0-1.062-2.729 6.62 6.62 0 0 0-4.553-2.882c-.333-.05-1.208-.088-1.431-.062m-3.221 8.738c.142.084.25.212.303.36.051.145.051 2.295 0 2.44a.7.7 0 0 1-.303.359l-.126.074H3.133l-.125-.074a.7.7 0 0 1-.303-.359c-.028-.079-.036-.4-.037-1.495l-.001-1.395.766.008.767.008zm9.006 1.306c-.001 1.094-.009 1.415-.037 1.494a.7.7 0 0 1-.303.359l-.125.074H11.8l-.128-.075a.7.7 0 0 1-.313-.396c-.018-.066-.025-.514-.02-1.243l.008-1.139.074-.126a.8.8 0 0 1 .166-.197c.175-.133.238-.142 1.02-.143l.726-.001z"/></svg>