<svg xmlns="http://www.w3.org/2000/svg" viewBox="0 0 16 16" fill="currentColor"><path fill-rule="evenodd" d="M7.76.016c-.037.007-.12.024-.184.039-.131.031-5.249 1.777-5.523 1.884-.348.137-.692.42-.861.707a2 2 0 0 0-.13.288L1 3.107.992 5.093c-.011 2.494.016 3.051.184 3.88.279 1.38.943 2.76 1.911 3.978.297.373 1.005 1.08 1.379 1.378.834.663 1.75 1.16 2.841 1.539.329.115.337.116.693.116.359 0 .361 0 .709-.122a9.6 9.6 0 0 0 2.825-1.533 12 12 0 0 0 1.383-1.382c.96-1.206 1.624-2.588 1.907-3.976.163-.8.188-1.296.188-3.718-.001-2.13-.005-2.204-.159-2.517-.165-.334-.518-.645-.906-.797A623 623 0 0 0 8.48.068c-.145-.043-.592-.076-.72-.052m2.899 2.147c1.42.485 2.644.906 2.721.935.099.037.153.076.18.129.034.066.04.369.04 2.153 0 1.179-.012 2.231-.028 2.435a7.4 7.4 0 0 1-.784 2.838c-.27.532-.458.834-.805 1.294-.994 1.316-2.187 2.189-3.683 2.696l-.3.101-.3-.101c-1.499-.508-2.685-1.376-3.683-2.696a7.4 7.4 0 0 1-.805-1.294 7.4 7.4 0 0 1-.784-2.838C2.412 7.611 2.4 6.559 2.4 5.38c0-2.212-.001-2.194.126-2.247.263-.11 5.402-1.851 5.466-1.852.048 0 1.248.396 2.667.882m-3.36 2.221a.73.73 0 0 0-.384.302l-.075.127-.008.832-.008.831-.912.009L5 6.493l-.137.072a.7.7 0 0 0-.32.334c-.027.063-.036.238-.036.655 0 .556.001.572.068.705.037.075.111.17.164.21.194.148.24.155 1.201.165l.887.01v.76c0 .47.011.804.029.877.038.151.198.334.363.416.124.061.147.063.781.063.631 0 .658-.002.78-.062.164-.081.326-.266.364-.417.018-.073.029-.407.029-.877v-.759l.9-.01c.768-.009.915-.017 1-.055a.67.67 0 0 0 .352-.321c.067-.133.068-.149.068-.705 0-.417-.009-.592-.036-.655a.7.7 0 0 0-.32-.334L11 6.493l-.913-.008-.914-.009-.001-.791c-.001-.847-.009-.909-.139-1.079a.8.8 0 0 0-.21-.167L8.68 4.36l-.64-.006c-.492-.005-.663.002-.741.03"/></svg>