<svg xmlns="http://www.w3.org/2000/svg" viewBox="0 0 16 16" fill="currentColor"><path fill-rule="evenodd" d="M4.268 1.36A4.33 4.33 0 0 0 .785 3.827C.089 5.31.276 6.986 1.288 8.333c.099.133 1.32 1.375 3.229 3.286C7.865 14.97 7.685 14.805 8 14.805s.135.165 3.483-3.186c1.909-1.911 3.13-3.153 3.229-3.286q.918-1.22.914-2.67a4.33 4.33 0 0 0-2.113-3.718 4.4 4.4 0 0 0-2.593-.587c-1.031.097-1.894.498-2.679 1.246L8 2.833l-.241-.229c-.707-.673-1.429-1.043-2.356-1.206a5.6 5.6 0 0 0-1.135-.038m.922 1.348c.13.023.341.076.47.119.523.176.762.341 1.411.979.58.569.664.626.929.626s.349-.057.929-.626c.649-.638.888-.803 1.411-.979a2.97 2.97 0 0 1 3.071.717c.388.386.64.823.795 1.38.068.242.073.301.073.743 0 .441-.005.501-.073.742-.04.144-.116.36-.168.48-.221.504-.171.449-3.215 3.498L8 13.213l-2.823-2.826C2.133 7.338 2.183 7.393 1.962 6.889a5 5 0 0 1-.168-.48c-.068-.241-.073-.301-.073-.742 0-.442.005-.501.073-.743.155-.557.407-.994.795-1.38a2.98 2.98 0 0 1 2.601-.836"/></svg>