<svg xmlns="http://www.w3.org/2000/svg" viewBox="0 0 16 16" fill="currentColor"><path fill-rule="evenodd" d="M7.711.694a1.9 1.9 0 0 0-.604.193C6.898.992 2.52 3.491 2.293 3.635a2.1 2.1 0 0 0-.899 1.218c-.044.162-.047.376-.047 3.147s.003 2.985.047 3.147c.139.507.456.936.899 1.218.29.184 4.667 2.677 4.867 2.772.286.135.489.178.84.178s.554-.043.84-.178c.2-.095 4.577-2.588 4.867-2.772a2.1 2.1 0 0 0 .899-1.218c.044-.162.047-.376.047-3.147s-.003-2.985-.047-3.147a2.1 2.1 0 0 0-.899-1.218C13.416 3.451 9.04.958 8.84.863a2.5 2.5 0 0 0-.337-.127 2.6 2.6 0 0 0-.792-.042m.494 1.343c.183.065 4.835 2.738 4.93 2.833.201.201.185-.068.185 3.13s.016 2.929-.185 3.13c-.095.095-4.747 2.768-4.93 2.833a.6.6 0 0 1-.41 0c-.183-.065-4.835-2.738-4.93-2.833-.201-.201-.185.068-.185-3.13s-.016-2.929.185-3.13c.09-.09 4.803-2.801 4.943-2.844a.73.73 0 0 1 .397.011"/></svg>