<svg xmlns="http://www.w3.org/2000/svg" viewBox="0 0 16 16" fill="currentColor"><path fill-rule="evenodd" d="M5.3 2.026a1.7 1.7 0 0 0-1.088.723c-.351.546-.256 1.294.226 1.77.33.325.695.474 1.162.474s.832-.149 1.162-.474c.316-.312.463-.698.43-1.127-.03-.374-.158-.642-.437-.917a1.6 1.6 0 0 0-.648-.397 2.3 2.3 0 0 0-.807-.052m4.8 0a1.7 1.7 0 0 0-1.088.723c-.351.546-.256 1.294.226 1.77.33.325.695.474 1.162.474s.832-.149 1.162-.474c.316-.312.463-.698.43-1.127-.03-.374-.158-.642-.437-.917a1.6 1.6 0 0 0-.648-.397 2.3 2.3 0 0 0-.807-.052m-4.888 4.52a1.64 1.64 0 0 0-1.136.987c-.048.131-.059.217-.059.467s.011.336.059.467c.129.354.446.699.793.867.5.241 1.182.204 1.621-.088.876-.582.953-1.714.161-2.37a1.71 1.71 0 0 0-1.439-.33m4.8 0a1.64 1.64 0 0 0-1.136.987c-.085.231-.085.704 0 .934.16.433.546.802.995.949.164.054.249.064.529.064.388 0 .619-.06.875-.226.889-.576.973-1.717.176-2.378a1.71 1.71 0 0 0-1.439-.33m-4.845 4.509a1.6 1.6 0 0 0-.589.298 1.43 1.43 0 0 0-.57 1.255c.031.389.165.658.472.948a1.64 1.64 0 0 0 2.232.009c.306-.286.45-.572.48-.957a1.43 1.43 0 0 0-.57-1.255 1.55 1.55 0 0 0-.601-.299 2.5 2.5 0 0 0-.854.001m4.8 0a1.6 1.6 0 0 0-.589.298 1.43 1.43 0 0 0-.57 1.255c.031.389.165.658.472.948a1.64 1.64 0 0 0 2.232.009c.306-.286.45-.572.48-.957a1.43 1.43 0 0 0-.57-1.255 1.55 1.55 0 0 0-.601-.299 2.5 2.5 0 0 0-.854.001"/></svg>