<svg xmlns="http://www.w3.org/2000/svg" viewBox="0 0 16 16" fill="currentColor"><path fill-rule="evenodd" d="M7.8.698c-.044.017-.111.05-.148.073-.038.023-1.436 1.107-3.107 2.407-1.975 1.538-3.059 2.398-3.098 2.46a.8.8 0 0 0-.086.208c-.036.157-.037 7.576-.001 7.799.074.451.227.743.573 1.089s.638.499 1.089.572c.226.037 9.73.037 9.956 0 .451-.073.743-.226 1.089-.572s.499-.638.573-1.089c.037-.231.036-7.624-.001-7.797a.7.7 0 0 0-.113-.241C14.435 5.488 8.477.839 8.289.742 8.168.678 7.912.656 7.8.698m2.873 3.558 2.66 2.068-.001 3.565c-.001 2.908-.008 3.583-.037 3.664a.7.7 0 0 1-.303.36l-.125.074-1.1.007-1.1.008v-3.036c0-3.428.012-3.216-.202-3.431-.21-.209-.115-.202-2.465-.202s-2.255-.007-2.465.202c-.214.215-.202.003-.202 3.431v3.036l-1.1-.008-1.1-.007-.125-.074a.7.7 0 0 1-.303-.36c-.029-.081-.036-.756-.037-3.664l-.001-3.565 2.66-2.068A364 364 0 0 1 8 2.187c.007 0 1.21.931 2.673 2.069m-1.34 7.077V14H6.667V8.667h2.666z"/></svg>