<svg xmlns="http://www.w3.org/2000/svg" viewBox="0 0 16 16" fill="currentColor"><path fill-rule="evenodd" d="M3.004 1.361c-.43.073-.733.234-1.071.572-.346.346-.499.638-.573 1.089-.036.226-.036 9.73 0 9.956.074.451.227.743.573 1.089s.638.499 1.089.573c.226.036 9.73.036 9.956 0 .451-.074.743-.227 1.089-.573s.499-.638.573-1.089c.036-.226.036-9.73 0-9.956-.074-.451-.227-.743-.573-1.089s-.638-.499-1.089-.573c-.2-.032-9.78-.031-9.974.001m9.883 1.344a.7.7 0 0 1 .359.303l.074.125.007 2.627.007 2.626-1.153-1.151c-1.104-1.099-1.161-1.152-1.299-1.192a.6.6 0 0 0-.43-.001c-.142.041-.225.122-3.753 3.647l-3.607 3.604-.099-.056a.74.74 0 0 1-.299-.382c-.019-.07-.026-1.651-.021-4.912l.007-4.81.074-.125a.7.7 0 0 1 .359-.303c.149-.053 9.625-.053 9.774 0m-7.58 1.336A1.69 1.69 0 0 0 4.04 5.32a1.666 1.666 0 0 0 1.973 1.973 1.69 1.69 0 0 0 1.28-1.28 1.67 1.67 0 0 0-1.986-1.972m.592 1.396c.134.151.131.338-.008.472-.069.066-.102.078-.226.078-.127 0-.154-.011-.231-.088-.077-.076-.087-.104-.087-.231 0-.116.012-.157.066-.215.091-.098.153-.121.293-.109.092.008.136.03.193.093m6.109 3.517 1.327 1.328-.007 1.292-.008 1.293-.074.125a.7.7 0 0 1-.359.303c-.082.029-.815.036-4.02.037l-3.92.001L7.8 10.48a410 410 0 0 1 2.867-2.853c.007 0 .611.597 1.341 1.327"/></svg>