<svg xmlns="http://www.w3.org/2000/svg" viewBox="0 0 16 16" fill="currentColor"><path fill-rule="evenodd" d="M3.518 1.075c-.221.117-.334.399-.265.659.04.148.242.356.373.382.048.009.212.017.364.017h.277v1.224l-1.198.008-1.198.008-.115.08a.59.59 0 0 0-.253.517c.02.211.127.371.309.463a.7.7 0 0 0 .246.074h.102v2.887c0 3.145-.005 3.033.15 3.343.152.302.476.575.802.676.147.046.248.054.663.054h.49l.007 1.42.008 1.42.067.112c.066.111.561.522.688.571.08.03.218-.027.294-.124l.058-.073v-3.326h.488c.525 0 .65-.021.912-.154.165-.083.455-.375.552-.555.16-.297.154-.181.154-3.347V4.513l.131-.012a.57.57 0 0 0 .525-.666.55.55 0 0 0-.252-.381l-.115-.081-1.198-.008-1.197-.008V2.139l.342-.01c.326-.009.347-.013.453-.086.342-.237.315-.786-.048-.97-.118-.059-.127-.06-1.309-.06h-1.19zm8.042 2.686a2.3 2.3 0 0 0-.853.239 2.6 2.6 0 0 0-.82.611 2.6 2.6 0 0 0-.554.879c-.179.495-.168.269-.179 3.643-.007 2.17-.002 3.144.02 3.331a2.73 2.73 0 0 0 1.933 2.326c.223.068.272.073.72.073s.496-.005.72-.073a2.73 2.73 0 0 0 1.523-1.153c.216-.329.348-.69.409-1.117.016-.115.027-1.337.027-3.2 0-2.517-.006-3.056-.039-3.273-.095-.632-.346-1.103-.839-1.573-.578-.553-1.252-.785-2.068-.713M6.373 5.173v.667l-.713.001c-.637 0-.725.005-.822.05a.44.44 0 0 0-.158.691c.132.157.177.165.971.165h.722v1.329l-.74.009c-.718.008-.743.01-.838.07a.44.44 0 0 0-.111.671c.132.158.151.161.955.161h.734V9.6c0 .572-.003.617-.052.665a.3.3 0 0 1-.14.068c-.048.009-.69.013-1.426.008l-1.337-.008-.069-.064-.069-.065V4.507h3.093zm5.794-.254c.515.109.999.563 1.152 1.081.024.081.05.264.059.407l.017.26h-3.136l.017-.247c.021-.291.064-.466.163-.662a1.55 1.55 0 0 1 1.728-.839m1.22 4.401v1.507h-3.12V7.813h3.12zm-.001 2.82c-.001.416-.157.81-.438 1.108-.331.351-.653.492-1.121.491-.446 0-.808-.157-1.11-.48-.286-.305-.41-.596-.44-1.034l-.018-.252h3.128z"/></svg>