<svg xmlns="http://www.w3.org/2000/svg" viewBox="0 0 16 16" fill="currentColor"><path fill-rule="evenodd" d="M4.521 2.029a2.03 2.03 0 0 0-1.419.973c-.06.101-.633 1.232-1.272 2.512L.667 7.841v2.153c0 1.31.011 2.217.027 2.317.073.451.226.743.572 1.089s.638.5 1.089.573c.226.037 11.064.037 11.29 0 .451-.073.743-.227 1.089-.573s.499-.638.572-1.089c.016-.1.027-1.007.027-2.317V7.841L14.17 5.514a144 144 0 0 0-1.272-2.512 2.04 2.04 0 0 0-.88-.803c-.42-.199-.123-.184-3.925-.189-1.877-.002-3.485.006-3.572.019m6.845 1.332a.8.8 0 0 1 .213.113c.106.08.18.217 1.053 1.953.516 1.026.939 1.875.94 1.885s-.692.023-1.539.027l-1.54.008-.117.062a1 1 0 0 0-.192.145c-.042.046-.33.465-.641.931l-.565.848H7.022l-.565-.848a23 23 0 0 0-.641-.931 1 1 0 0 0-.192-.145l-.117-.062-1.54-.008c-.847-.004-1.54-.016-1.539-.027s.424-.858.94-1.884c1.008-2.004.985-1.966 1.235-2.056.086-.03.664-.037 3.384-.037 2.18-.001 3.313.008 3.379.026M5.543 9.515c.311.466.599.885.641.931a1 1 0 0 0 .192.145l.117.062h3.014l.117-.062a1 1 0 0 0 .192-.145c.042-.046.33-.465.641-.931l.565-.848h2.979l-.007 1.766-.007 1.767-.074.126a.7.7 0 0 1-.36.303c-.148.053-10.958.053-11.106 0a.7.7 0 0 1-.36-.303l-.074-.126-.007-1.767-.007-1.766h2.979z"/></svg>