<svg xmlns="http://www.w3.org/2000/svg" viewBox="0 0 16 16" fill="currentColor"><path fill-rule="evenodd" d="M7.38.693a7.47 7.47 0 0 0-3.967 1.585c-.257.204-.931.878-1.135 1.135A7.46 7.46 0 0 0 .743 6.96a8.5 8.5 0 0 0 0 2.08c.32 2.083 1.427 3.855 3.137 5.018a7.2 7.2 0 0 0 3.08 1.199 8.6 8.6 0 0 0 2.08 0c2.257-.345 4.143-1.618 5.3-3.577a7.4 7.4 0 0 0 .917-2.64 8.5 8.5 0 0 0 0-2.08 7.45 7.45 0 0 0-1.535-3.547 11.5 11.5 0 0 0-1.135-1.135A7.44 7.44 0 0 0 9.053.747C8.631.684 7.759.656 7.38.693m1.58 1.382a5.8 5.8 0 0 1 1.693.55 6 6 0 0 1 2.008 1.594 6.3 6.3 0 0 1 1.164 2.339c.128.511.161.801.161 1.442s-.033.931-.161 1.442c-.212.849-.658 1.733-1.194 2.371a6.07 6.07 0 0 1-3.189 2.012c-.511.128-.801.161-1.442.161s-.931-.033-1.442-.161c-.849-.212-1.733-.658-2.371-1.194a5.9 5.9 0 0 1-1.561-1.978 6 6 0 0 1-.564-1.76c-.067-.412-.067-1.374 0-1.786.176-1.072.627-2.091 1.277-2.888a6 6 0 0 1 2.008-1.593 6 6 0 0 1 2.133-.61c.27-.028 1.183.009 1.48.059M7.782 4.709c-.241.074-.449.364-.449.624 0 .268.208.552.46.626.17.051.243.051.409.002.606-.181.617-1.048.015-1.254a.65.65 0 0 0-.435.002m0 2.666a.69.69 0 0 0-.408.418c-.06.203-.06 2.877 0 3.081a.69.69 0 0 0 .626.459c.158 0 .343-.08.465-.202.203-.203.202-.19.202-1.798 0-1.607.001-1.594-.202-1.798a.65.65 0 0 0-.683-.16"/></svg>