<svg xmlns="http://www.w3.org/2000/svg" viewBox="0 0 16 16" fill="currentColor"><path fill-rule="evenodd" d="M4.373.683a4.3 4.3 0 0 0-1.381.358A3.97 3.97 0 0 0 .845 3.52C.675 4.087.68 3.941.68 8s-.005 3.913.165 4.48a3.96 3.96 0 0 0 2.675 2.675c.567.17.421.165 4.48.165s3.913.005 4.48-.165a3.96 3.96 0 0 0 2.675-2.675c.17-.567.165-.421.165-4.48s.005-3.913-.165-4.48a3.95 3.95 0 0 0-2.57-2.641c-.636-.21-.347-.197-4.452-.201-2.016-.002-3.708 0-3.76.005m7.605 1.391c.515.149.886.363 1.236.712.351.352.572.739.713 1.25l.06.217v7.494l-.06.217a2.7 2.7 0 0 1-.713 1.25 2.6 2.6 0 0 1-1.365.731c-.266.054-.336.055-3.849.055s-3.583-.001-3.849-.055a2.6 2.6 0 0 1-1.365-.731 2.7 2.7 0 0 1-.713-1.25l-.06-.217V4.253l.06-.217c.141-.511.362-.898.713-1.25q.378-.377.818-.562c.201-.085.525-.18.703-.205.044-.006 1.742-.01 3.773-.008l3.693.004zm-.614 1.674c-.244.124-.364.346-.346.638.022.34.263.577.607.596.409.023.702-.249.701-.649a.62.62 0 0 0-.308-.565c-.088-.056-.153-.073-.311-.081-.177-.01-.217-.003-.343.061m-3.657.909c-.492.07-.746.142-1.109.314A3.35 3.35 0 0 0 5.053 6.48a3.1 3.1 0 0 0-.344 1.48c.001.583.11 1.046.36 1.533.409.798 1.166 1.427 2.004 1.665.83.237 1.604.177 2.382-.184.35-.163.63-.361.921-.652a3.36 3.36 0 0 0 .922-1.686c.033-.143.045-.319.045-.649 0-.395-.009-.492-.069-.75a3.23 3.23 0 0 0-.956-1.678 3.3 3.3 0 0 0-1.875-.89 3.7 3.7 0 0 0-.736-.012M8.6 6.053a2.03 2.03 0 0 1 1.351 1.36c.053.171.062.255.061.574-.001.337-.008.394-.075.586-.308.892-1.117 1.45-2.016 1.391-.56-.036-.963-.227-1.348-.635a1.8 1.8 0 0 1-.427-.68 2.01 2.01 0 0 1 1.467-2.638c.239-.055.749-.033.987.042"/></svg>