<svg xmlns="http://www.w3.org/2000/svg" viewBox="0 0 16 16" fill="currentColor"><path fill-rule="evenodd" d="M11.053 1.031c-.203.025-.608.13-.821.214a3.4 3.4 0 0 0-1.207.794 3.48 3.48 0 0 0-.68 3.95c.486 1.022 1.375 1.712 2.508 1.948.309.064.966.065 1.285.001a3.54 3.54 0 0 0 2.636-2.21c.192-.494.264-1.245.174-1.795a3.5 3.5 0 0 0-2.868-2.878 5.5 5.5 0 0 0-1.027-.024m.828 1.505c.382.07.745.27 1.044.574.181.184.243.27.354.496.177.358.224.578.207.981a1.8 1.8 0 0 1-.079.511 2.03 2.03 0 0 1-1.395 1.334 2.25 2.25 0 0 1-.997.011c-1.53-.418-2.025-2.271-.902-3.376.269-.265.594-.44.963-.521.203-.044.596-.049.805-.01M2.253 4.027a1.63 1.63 0 0 0-.827.488 2.2 2.2 0 0 0-.379.738C1.003 5.415 1 5.7 1 9.507c0 3.866.003 4.089.049 4.253.161.576.553 1.009 1.062 1.176l.196.064h7.386l.196-.064c.504-.165.895-.594 1.06-1.163.041-.141.048-.336.057-1.696.012-1.602-.001-1.876-.097-2.184a1.64 1.64 0 0 0-1.014-1.045c-.17-.057-.216-.059-1.7-.069l-1.525-.01-.01-1.684c-.01-1.657-.011-1.688-.07-1.885-.165-.545-.503-.925-1.003-1.123l-.16-.064-1.534-.004c-.843-.002-1.581.006-1.64.018m3.015 1.478.065.066v3.202H2.32V5.551l.07-.056c.069-.054.095-.055 1.441-.055h1.371zm.065 6.389v1.681l-1.455-.008-1.456-.007-.051-.063c-.049-.06-.051-.128-.051-1.673v-1.611h3.013zm4.282-1.615.065.065v1.545c0 1.481-.002 1.548-.051 1.608l-.051.063-1.456.007-1.455.008v-3.362h2.882z"/></svg>