<svg xmlns="http://www.w3.org/2000/svg" viewBox="0 0 16 16" fill="currentColor"><path fill-rule="evenodd" d="M1.512 1.053c-.34.094-.739.411-.871.694C.5 2.05.507 1.705.507 8.084c0 5.871 0 5.939.053 6.111.104.334.39.662.707.808.324.149.203.144 3.423.137l2.967-.007-.157-.11a4.6 4.6 0 0 1-.785-.761l-.188-.235H1.836l-.078-.078-.078-.078V2.264l.065-.065.066-.066h5.736v3.334h3.52v.626c0 .446.008.627.03.627.174 0 .936.154 1.123.227.044.018.047-.041.046-1.004V4.92l-2.057-1.953-2.056-1.954-3.257.003c-2.612.002-3.281.009-3.384.037m8.539 7.335c-1.133.205-2.109 1.024-2.465 2.066-.196.577-.197 1.367-.001 1.941.303.889 1.074 1.638 2.01 1.951.339.114.659.163 1.072.163.642 0 1.193-.143 1.688-.436l.182-.108.111.106.925.876c.448.423.88.833.961.911l.147.142.4-.38c.219-.209.399-.388.399-.399 0-.01-.432-.428-.96-.928-.528-.501-1.006-.955-1.061-1.01l-.102-.1.099-.145c.676-.995.637-2.416-.093-3.385a4.1 4.1 0 0 0-.841-.787 3 3 0 0 0-1.227-.48c-.301-.049-.969-.048-1.244.002m1.189 1.134a2.01 2.01 0 0 1 1.358 1.122c.226.49.205 1.185-.052 1.673a2.08 2.08 0 0 1-1.306 1.018 2.47 2.47 0 0 1-1.407-.097c-.531-.223-.991-.727-1.152-1.265-.061-.202-.083-.664-.043-.894.147-.846.906-1.53 1.782-1.607.311-.028.561-.012.82.05"/></svg>