<svg xmlns="http://www.w3.org/2000/svg" viewBox="0 0 16 16" fill="currentColor"><path fill-rule="evenodd" d="M6.594 1.054c-.399.108-.822.462-1.002.839-.085.18-.111.26-.164.514l-.016.073H3.765c-1.752 0-1.803.003-2.054.131-.244.125-.508.419-.623.694l-.061.148-.007 5.226c-.007 4.722-.003 5.239.035 5.373.119.412.456.764.847.886.146.046.309.049 2.565.049h2.41l-.118-.247a6 6 0 0 1-.215-.547l-.097-.3H2.209l-.078-.078-.078-.078V3.729l.078-.078.078-.078h9.575l.075.065.074.064.014 2.006.013 2.006.267.072c.253.068.434.13.66.226l.101.043-.007-2.301-.008-2.301-.061-.148c-.115-.275-.379-.569-.623-.694-.251-.128-.302-.131-2.054-.131H8.588l-.015-.073a2.2 2.2 0 0 0-.158-.509 1.6 1.6 0 0 0-1.016-.844 2.2 2.2 0 0 0-.805 0M7.3 2.086q.236.155.216.498c-.012.206-.075.324-.229.43a.63.63 0 0 1-.469.054c-.126-.041-.303-.237-.326-.36-.054-.287.048-.545.259-.652a.59.59 0 0 1 .549.03M3.653 5.88v.547h6.694V5.333H3.653zm0 2.853v.547h3.849l.296-.288c.309-.302.57-.508.88-.694l.185-.111h-5.21zm8.46 3.007L10 13.853l-1.067-1.066-1.066-1.067-.394.393-.393.394 1.46 1.46 1.46 1.46 2.513-2.514 2.513-2.513-.386-.387a8 8 0 0 0-.4-.386c-.007 0-.964.951-2.127 2.113m-8.46-.14v.56l1.326-.006 1.325-.007.058-.347c.052-.311.118-.606.161-.719.014-.037-.142-.041-1.427-.041H3.653z"/></svg>