<svg xmlns="http://www.w3.org/2000/svg" viewBox="0 0 16 16" fill="currentColor"><path fill-rule="evenodd" d="M6.36.613 2.307.627l-.147.07a1 1 0 0 0-.464.476l-.083.174v13.306l.083.174c.101.211.269.383.464.476l.147.07H12.76l.147-.072c.199-.098.364-.266.463-.474l.083-.174.008-5.64c.004-3.102 0-5.682-.008-5.733-.014-.079-.202-.279-1.262-1.342-.684-.687-1.274-1.264-1.311-1.283a1 1 0 0 0-.267-.045C10.503.604 8.589.605 6.36.613m3.721 1.567c0 .866.017 1.064.109 1.254.083.172.286.368.47.454l.153.072.927.008.927.008v10.522l-.056.051c-.055.05-.177.051-5.078.051-4.9 0-5.022-.001-5.077-.051l-.056-.051V8c0-6.156.002-6.501.047-6.539a.3.3 0 0 1 .086-.055c.022-.009 1.729-.016 3.794-.017l3.753-.002zm1.519.287.706.706h-.66c-.624 0-.662-.003-.713-.053s-.053-.089-.053-.707c0-.359.003-.653.007-.653s.325.318.713.707M7.566 3.473c-.054.041-.099.159-.099.258 0 .064-.018.082-.114.118-.338.13-.536.524-.448.892.042.174.162.312.385.443l.177.103V6.35l-.06-.017a2 2 0 0 1-.222-.096c-.118-.058-.182-.075-.234-.062a.205.205 0 0 0-.151.192c0 .124.24.285.507.34l.146.031.019.131c.013.093.039.148.088.191.086.075.146.076.236.005.061-.048.071-.076.071-.198v-.142L8 6.678a.93.93 0 0 0 .485-.458.66.66 0 0 0 .088-.379.63.63 0 0 0-.079-.358.83.83 0 0 0-.457-.401l-.157-.064-.007-.402c-.006-.286.001-.403.022-.403.017 0 .088.033.159.073.107.06.142.068.203.046a.205.205 0 0 0 .133-.235c-.021-.085-.198-.207-.394-.272-.128-.042-.129-.044-.129-.156 0-.182-.172-.294-.301-.196m-.099 1.061c0 .284-.002.294-.052.267-.124-.067-.168-.229-.106-.393.031-.082.1-.168.135-.168.013 0 .023.132.023.294m.563.99c.15.103.195.323.107.517-.047.102-.193.252-.246.252-.014 0-.024-.183-.024-.425 0-.47-.005-.46.163-.344m-4.258 3.82a.45.45 0 0 0-.239.308.4.4 0 0 0 .197.396l.104.059h7.399l.099-.056c.263-.148.271-.487.018-.676-.074-.055-.083-.055-3.785-.061-3.048-.005-3.726.001-3.793.03m-.057 2.495a.36.36 0 0 0-.182.272.43.43 0 0 0 .179.395c.087.053.123.054 3.168.054 3.026 0 3.082-.001 3.167-.053.243-.148.258-.46.032-.65l-.083-.07H6.898c-3.024 0-3.1.001-3.183.052"/></svg>