<svg xmlns="http://www.w3.org/2000/svg" viewBox="0 0 16 16" fill="currentColor"><path fill-rule="evenodd" d="M6.448 2.042c-.24.074-.448.364-.448.625 0 .148.08.34.189.452.2.206.15.199 1.575.214l1.271.014-1.747 4.66-1.748 4.66H4.402c-1.313 0-1.334.002-1.533.202a.7.7 0 0 0-.202.464c0 .268.208.552.459.626.119.036.536.041 3.207.041s3.088-.005 3.207-.041c.252-.074.46-.358.46-.626a.72.72 0 0 0-.189-.452c-.2-.206-.15-.199-1.575-.214l-1.271-.014 1.747-4.66 1.748-4.66h1.138c1.313 0 1.334-.002 1.533-.202a.7.7 0 0 0 .202-.464c0-.268-.208-.552-.459-.626-.2-.06-6.232-.058-6.426.001"/></svg>