<svg xmlns="http://www.w3.org/2000/svg" viewBox="0 0 16 16" fill="currentColor"><path fill-rule="evenodd" d="M7.133.03c-1.754.166-3.1 1.152-3.621 2.652-.191.55-.276 1.1-.307 1.971l-.018.534-.155.019a.75.75 0 0 0-.647.543c-.044.133-.052.234-.051.651 0 .552.03.748.188 1.224.161.485.331.737.632.942.056.038.07.075.085.213.079.734.278 1.392.572 1.886.139.235.482.7.625.849l.11.114-.077.144a4 4 0 0 1-.254.377l-.175.233-.453.193c-.25.105-.862.339-1.36.518-.865.312-1.078.401-1.172.496-.063.063-.052.19.024.266.099.099.216.086.489-.055.215-.111 2.384-.92 2.468-.92.024 0 .108.204.244.593.474 1.353.941 2.403 1.113 2.499.062.035.08.035.159-.003s.543-.423 1.088-.902c.109-.096.367-.339.573-.54.207-.202.39-.367.407-.367s.209.165.426.367.502.457.634.566c.132.11.406.341.609.514.573.491.618.498.801.132.115-.228.625-1.382.894-2.024a8 8 0 0 0 .219-.579l.082-.253.211.079.417.155c.114.042.629.246 1.144.453.516.207.972.377 1.014.377a.219.219 0 0 0 .2-.324c-.035-.07-.078-.101-.204-.148-.61-.228-2.705-1.034-2.754-1.059-.075-.039-.343-.411-.463-.641l-.088-.17.199-.209c.202-.213.479-.624.646-.959.234-.47.373-.987.441-1.649l.019-.185.159-.108c.192-.131.323-.311.454-.624.234-.558.366-1.444.282-1.888a1.2 1.2 0 0 0-.234-.542c-.115-.134-.323-.24-.475-.241a.4.4 0 0 1-.136-.02c-.019-.013-.035-.229-.045-.62-.025-.906-.126-1.469-.374-2.08-.357-.878-.979-1.536-1.875-1.983C9.006.089 8.124-.064 7.133.03m.897.462c.243.015.616.085.903.171 1.385.409 2.254 1.344 2.533 2.721.069.343.101.682.123 1.331l.019.541-.064-.014a12 12 0 0 0-.357-.055c-.17-.024-.3-.056-.311-.076-.145-.259-.353-.443-.565-.5-.205-.056-.977.028-1.533.168-.341.085-.445.214-.339.419l.039.076-.153.068a1.7 1.7 0 0 1-.685.155 1.4 1.4 0 0 1-.656-.142l-.175-.079.05-.102c.046-.093.047-.11.011-.196a.3.3 0 0 0-.115-.133c-.126-.066-1.241-.241-1.542-.243-.229-.002-.283.007-.386.06a1 1 0 0 0-.377.356q-.08.125-.152.14c-.088.018-.571.095-.598.095-.029 0-.024-.644.008-1.08.067-.921.253-1.522.658-2.131C4.86 1.3 5.707.768 6.729.558c.275-.057.77-.102.964-.088.059.005.21.015.337.022m-2.278 5.03c.568.047.914.099 1.004.151.2.116.214.29.071.847-.106.411-.193.601-.335.731-.174.161-.305.189-.89.189-.861-.001-1.083-.051-1.216-.279-.091-.154-.193-.687-.215-1.121-.016-.302-.014-.323.039-.379.075-.078.195-.107.563-.136.441-.035.595-.035.979-.003m4.816.025c.224.016.398.042.445.066.121.063.143.172.106.54-.089.91-.194 1.141-.561 1.246-.137.039-.272.05-.678.052-.886.004-1.077-.062-1.266-.438-.184-.364-.316-1.024-.238-1.186.075-.158.176-.192.851-.29.146-.021.995-.015 1.341.01m-7.398.169c.022.027.029.348.024 1.14L3.187 7.96l-.078-.147c-.289-.549-.431-1.614-.26-1.946a.6.6 0 0 1 .105-.154c.057-.044.179-.042.216.003m9.184.011a1 1 0 0 1 .1.193c.054.135.057.18.045.547a3.3 3.3 0 0 1-.255 1.208c-.171.401-.164.436-.164-.81 0-.836.008-1.129.032-1.153.048-.048.194-.039.242.015m-7.194.11a.7.7 0 0 0-.217.055c-.12.078-.183.271-.111.343.045.045.123.04.328-.024a.8.8 0 0 1 .189-.044 1 1 0 0 1 .037.148c.031.164.084.252.176.294.096.044.256.038.328-.013.074-.051.162-.233.163-.334s.031-.11.173-.049c.173.074.249.07.281-.014.036-.094-.024-.227-.137-.308-.086-.062-.109-.064-.57-.068a8 8 0 0 0-.64.014m3.882.002c-.195.032-.317.218-.252.385.021.057.087.054.256-.011q.229-.086.196-.029a.5.5 0 0 0 .002.153c.014.098.04.152.108.22.084.084.098.089.221.075q.347-.041.347-.386v-.103l.189.063a1 1 0 0 0 .26.056c.061-.008.072-.023.079-.111.011-.131-.042-.21-.188-.281-.107-.052-.159-.056-.608-.053a8 8 0 0 0-.61.022m2.549.781c-.025 1.241-.124 1.838-.392 2.367a2 2 0 0 1-.695.789c-.158.103-.446.238-.465.218a2 2 0 0 1-.052-.181 1.25 1.25 0 0 0-.345-.627c-.279-.276-.584-.398-1.17-.467-.285-.033-.408-.079-.214-.079a1 1 0 0 0 .201-.028c.303-.084.407-.421.202-.654-.07-.08-.097-.093-.178-.086l-.096.008-.014.173-.013.174-.107.022a5 5 0 0 0-.307.087c-.251.08-.355.08-.609 0a4 4 0 0 0-.31-.087l-.107-.023.006-.159c.006-.168-.013-.199-.121-.2-.245-.002-.375.336-.226.589.063.107.18.161.39.182.209.021.212.019-.196.082-.894.138-1.278.421-1.466 1.077-.028.101-.059.19-.067.198s-.128-.043-.267-.113c-.566-.287-.916-.763-1.105-1.503-.118-.462-.14-.702-.152-1.632-.013-.994.008-1.077.099-.396.09.68.177.924.411 1.158.24.24.553.316 1.294.313.706-.002 1.024-.091 1.279-.356.216-.226.414-.69.482-1.13.032-.21.057-.267.14-.321.106-.068.385-.065.469.005.04.034.086.159.161.447.057.22.129.472.16.56.119.338.354.577.688.698.314.114 1.139.144 1.604.058.623-.115.856-.468.978-1.48.041-.343.07-.463.11-.463.009 0 .009.351 0 .78M7.773 9.371c.125.085.357.159.72.229.572.111.665.158.761.379a.8.8 0 0 1 .062.369c.002.197-.008.248-.072.379a.8.8 0 0 1-.172.233.72.72 0 0 1-.495.148q-.32-.052-.19-.281c.041-.072.051-.209.019-.256-.045-.068-.136-.092-.253-.066a2.7 2.7 0 0 1-.827.029c-.327-.037-.401-.027-.461.065-.039.06-.038.074.014.192.076.172.057.234-.092.29a.57.57 0 0 1-.46-.038c-.233-.119-.326-.31-.326-.67 0-.304.028-.437.108-.522q.124-.13.069.018c-.029.075-.025.088.04.144.129.11.68.181 1.409.179.735-.001 1.349-.079 1.453-.183.053-.053.051-.155-.005-.21-.049-.049.012-.05-.902.016-.36.026-.581.026-1.08 0a17 17 0 0 1-.733-.051l-.107-.018.24-.072c.132-.04.33-.09.44-.111s.32-.087.467-.146l.272-.109a1 1 0 0 1 .101.063m2.539 2.699c-.083.157-.84.753-1.363 1.072-.477.29-.986.485-1.27.485-.256 0-.889-.232-1.288-.472-.334-.2-1.175-.856-1.3-1.013-.043-.054-.067-.068.282.158a4.25 4.25 0 0 0 1.574.611c.273.047.393.053.826.041.552-.016.723-.044 1.198-.197.372-.12.787-.332 1.109-.567.139-.102.257-.186.261-.186.004-.001-.009.029-.029.068m.478.429c.07.163.047.301-.133.774-.363.955-.813 2.009-.894 2.094-.043.045-.05.044-.141-.026-.053-.041-.384-.33-.736-.642-.567-.502-.751-.684-.721-.712.004-.005.12-.051.255-.103a6.1 6.1 0 0 0 2.033-1.335c.249-.252.249-.252.337-.05m-5.821.176c.779.671 1.343 1.026 1.959 1.233l.221.075-.128.131c-.265.272-1.436 1.327-1.471 1.325-.022-.001-.254-.507-.383-.837a53 53 0 0 1-.673-1.875c-.024-.112.053-.354.112-.354.007 0 .17.136.363.302"/></svg>