<svg xmlns="http://www.w3.org/2000/svg" viewBox="0 0 16 16" fill="currentColor"><path fill-rule="evenodd" d="M13.773.711c-.125.037-.314.221-3.18 3.084C7.64 6.746 7.545 6.838 7.487 6.801c-.814-.517-1.571-.749-2.442-.747A4.32 4.32 0 0 0 .758 9.813a4.29 4.29 0 0 0 2.255 4.371 4.4 4.4 0 0 0 1.36.445c.34.055.998.049 1.367-.015a4.335 4.335 0 0 0 3.566-3.676 5.2 5.2 0 0 0-.024-1.316 4.6 4.6 0 0 0-.655-1.661l-.122-.185.914-.915.914-.914.8.798c.877.876.919.907 1.202.908.291.001.303-.009 1.669-1.379 1.193-1.196 1.246-1.253 1.287-1.392a.6.6 0 0 0-.001-.43c-.04-.137-.089-.192-.858-.965l-.815-.82.482-.488c.438-.444.487-.502.525-.632a.6.6 0 0 0 .002-.421.67.67 0 0 0-.853-.415M13.2 4.147l.52.52-.693.693-.693.693-.527-.526L11.28 5l.686-.686c.378-.378.693-.687.701-.687.007 0 .247.234.533.52M5.511 7.414c.997.162 1.861.826 2.252 1.733.277.642.327 1.37.14 2.025a3.4 3.4 0 0 1-.546 1.049 2.993 2.993 0 0 1-4.573.126c-.265-.291-.518-.767-.639-1.201a3.5 3.5 0 0 1-.053-1.292 3.01 3.01 0 0 1 2.349-2.413c.27-.057.803-.071 1.07-.027"/></svg>