<svg xmlns="http://www.w3.org/2000/svg" viewBox="0 0 16 16" fill="currentColor"><path fill-rule="evenodd" d="M7.834.694c-.055.014-1.635.793-3.512 1.732C1.028 4.073.906 4.137.816 4.255a.66.66 0 0 0 .167.968c.068.044 1.632.832 3.475 1.753L7.81 8.651h.381l3.45-1.725c3.332-1.667 3.452-1.729 3.543-1.847a.66.66 0 0 0-.167-.969c-.068-.043-1.63-.83-3.47-1.748C7.983.584 8.087.631 7.834.694m2.739 2.673c1.416.707 2.574 1.292 2.574 1.3 0 .007-1.158.592-2.574 1.3L8 7.253 5.427 5.967a182 182 0 0 1-2.574-1.3c0-.01 5.104-2.577 5.14-2.586.004 0 1.165.578 2.58 1.286M1.128 7.37a.667.667 0 0 0-.311 1.043c.089.117.223.187 3.542 1.846l3.45 1.725h.382l3.45-1.725C14.96 8.6 15.094 8.53 15.183 8.413c.364-.477-.026-1.155-.615-1.067-.086.013-1.101.507-3.345 1.629L8 10.586 4.767 8.971c-3.524-1.76-3.365-1.69-3.639-1.601m0 3.334a.667.667 0 0 0-.311 1.043c.089.116.223.186 3.542 1.846l3.45 1.725h.382l3.45-1.725c3.319-1.66 3.453-1.73 3.542-1.846.364-.478-.026-1.156-.615-1.068-.086.013-1.101.508-3.345 1.63L8 13.92l-3.233-1.615c-3.524-1.761-3.365-1.691-3.639-1.601"/></svg>