<svg xmlns="http://www.w3.org/2000/svg" viewBox="0 0 16 16" fill="currentColor"><path fill-rule="evenodd" d="M7.38.693c-1.653.161-3.133.808-4.313 1.888C1.799 3.741 1.008 5.231.743 6.96a8.5 8.5 0 0 0 0 2.08q.37 2.412 2.052 4.115c1.122 1.138 2.541 1.854 4.165 2.102a8.6 8.6 0 0 0 2.08 0c1.624-.248 3.043-.964 4.165-2.102q1.682-1.703 2.052-4.115a8.5 8.5 0 0 0 0-2.08c-.23-1.496-.853-2.816-1.838-3.893A7.3 7.3 0 0 0 9.053.747C8.631.684 7.759.656 7.38.693m1.58 1.382a5.8 5.8 0 0 1 1.693.55c.353.173.836.47 1.025.63l.065.055-.956.956-.955.956-.098-.061a3.6 3.6 0 0 0-1.174-.444A4 4 0 0 0 8 4.682c-.198 0-.45.016-.56.035-.39.069-.864.247-1.174.444l-.098.061-.956-.956-.956-.957.076-.061a6.4 6.4 0 0 1 1.015-.622 6 6 0 0 1 2.133-.61c.27-.028 1.183.009 1.48.059M4.271 5.218l.951.95-.061.098c-.197.31-.375.784-.444 1.174a4.7 4.7 0 0 0 0 1.12c.069.39.247.864.444 1.174l.061.098-.956.956-.957.956-.061-.076c-.306-.377-.738-1.177-.914-1.693-.244-.71-.32-1.181-.32-1.975 0-.641.033-.931.161-1.442a6.3 6.3 0 0 1 .996-2.124c.067-.091.128-.166.136-.167.007 0 .441.428.964.951m8.558-.784c.444.602.811 1.383.996 2.124.128.511.161.801.161 1.442 0 .794-.076 1.265-.32 1.975-.176.516-.608 1.316-.914 1.693l-.061.076-.957-.956-.956-.956.061-.098c.191-.302.369-.773.444-1.174.044-.233.043-.872 0-1.12a3.6 3.6 0 0 0-.452-1.187l-.052-.08.95-.953c.523-.524.957-.953.964-.953.008.001.069.076.136.167M8.573 6.08c.346.109.538.229.828.519.293.293.412.483.523.841.053.168.063.257.063.56 0 .408-.047.609-.222.947-.134.259-.559.684-.818.818-.337.174-.538.221-.947.221s-.61-.047-.947-.221c-.259-.134-.684-.559-.818-.818-.175-.338-.222-.539-.222-.947s.047-.609.222-.947c.135-.26.559-.684.818-.817.366-.188.587-.237 1.014-.224.235.007.369.025.506.068m-2.024 4.914c.205.104.622.239.891.289.224.042.896.042 1.12 0a3.7 3.7 0 0 0 1.174-.444l.098-.061.956.956.956.957-.076.061c-.377.306-1.177.738-1.693.914-.71.244-1.181.32-1.975.32s-1.265-.076-1.975-.32c-.516-.176-1.316-.608-1.693-.914l-.076-.061.956-.957.956-.956.098.061c.053.034.181.104.283.155"/></svg>