<svg xmlns="http://www.w3.org/2000/svg" viewBox="0 0 16 16" fill="currentColor"><path fill-rule="evenodd" d="M2.338.695a2.1 2.1 0 0 0-.658.231c-.225.13-.624.53-.754.754a2.05 2.05 0 0 0 0 1.973c.13.225.529.624.754.755a2.06 2.06 0 0 0 1.973 0c.225-.131.624-.53.755-.755a2.06 2.06 0 0 0 0-1.973c-.131-.225-.53-.624-.755-.754A2.06 2.06 0 0 0 2.338.695m.67 1.403c.42.258.428.866.016 1.128a.666.666 0 0 1-.93-.224c-.071-.116-.081-.155-.081-.333 0-.173.011-.221.074-.328a.64.64 0 0 1 .628-.331c.126.008.199.03.293.088m7.224 2.597c-.65.058-1.35.283-1.92.62a4.64 4.64 0 0 0-2.285 3.622C6.012 9.112 6 10.257 6 11.655c0 2.735-.01 2.598.202 2.81.204.203.191.202 1.798.202 1.589 0 1.591-.001 1.786-.189.215-.209.199-.001.214-2.827l.013-2.522.081-.131a.665.665 0 0 1 1.145 0l.081.131.013 2.522c.015 2.826-.001 2.618.214 2.827.195.188.197.189 1.786.189 1.608 0 1.595.001 1.799-.203.216-.217.206-.053.193-3.029-.012-2.836-.006-2.726-.162-3.313a4.65 4.65 0 0 0-1.175-2.052 4.64 4.64 0 0 0-3.756-1.375m-9.117.68a.69.69 0 0 0-.408.418c-.035.12-.04.641-.04 4.207 0 4.583-.016 4.247.202 4.465.203.203.19.202 1.798.202 1.607 0 1.594.001 1.798-.202.217-.218.202.118.202-4.465s.015-4.247-.202-4.465c-.205-.204-.189-.202-1.81-.2-1.152.002-1.438.009-1.54.04m10.218.692a3.27 3.27 0 0 1 1.682.918c.39.39.635.78.806 1.282.168.492.162.391.172 2.833l.009 2.233h-1.335l-.001-2.073c0-1.257-.01-2.138-.026-2.238a2 2 0 0 0-.232-.675c-.131-.225-.53-.624-.755-.755a2.05 2.05 0 0 0-1.561-.172 2.03 2.03 0 0 0-1.344 1.34l-.067.213-.008 2.18-.008 2.18H7.331L7.34 11.1c.009-2.024.014-2.252.057-2.433.164-.694.443-1.204.921-1.682.298-.298.528-.465.872-.635.341-.167.562-.234 1.103-.334.141-.026.847.009 1.04.051m-8 3.933v3.333H2V6.667h1.333z"/></svg>