<svg xmlns="http://www.w3.org/2000/svg" viewBox="0 0 16 16" fill="currentColor"><path fill-rule="evenodd" d="M10.707.76a4.1 4.1 0 0 0-1.728.699c-.209.147-1.478 1.35-1.649 1.562-.216.27-.212.622.012.866a.6.6 0 0 0 .485.218c.274 0 .333-.042 1.066-.769.367-.363.738-.712.826-.776.216-.159.565-.329.854-.417.223-.068.274-.073.72-.073.447-.001.497.004.72.071 1.254.378 2.071 1.573 1.933 2.826a2.74 2.74 0 0 1-.507 1.326c-.071.096-.649.691-1.284 1.324-1.199 1.194-1.321 1.299-1.716 1.479a4 4 0 0 1-.405.149c-.215.066-.271.071-.687.071-.507 0-.682-.033-1.081-.206-.396-.172-.627-.353-1.099-.863-.127-.138-.178-.173-.304-.209a.64.64 0 0 0-.503.045.66.66 0 0 0-.276.891c.03.057.117.176.192.265a4 4 0 0 0 5.05.891c.431-.249.623-.419 1.836-1.633 1.29-1.291 1.419-1.441 1.688-1.971.284-.558.401-1.024.422-1.677.016-.471-.008-.725-.102-1.102A3.99 3.99 0 0 0 12.337.856a4.4 4.4 0 0 0-1.63-.096M6.12 5.372c-.48.067-.986.238-1.413.477-.44.247-.62.406-1.856 1.642C1.546 8.796 1.42 8.942 1.15 9.474c-.284.558-.401 1.024-.422 1.677-.016.471.008.725.102 1.102a3.994 3.994 0 0 0 6.197 2.285c.259-.18 1.644-1.541 1.728-1.698a.75.75 0 0 0-.001-.589.8.8 0 0 0-.345-.321.9.9 0 0 0-.508.004c-.061.026-.348.289-.779.715-.375.371-.753.727-.841.791a3.2 3.2 0 0 1-.854.417c-.223.068-.274.073-.72.073-.447.001-.497-.004-.72-.071-1.254-.378-2.071-1.573-1.933-2.826.054-.491.233-.959.507-1.326.071-.096.649-.691 1.284-1.324 1.199-1.194 1.321-1.299 1.716-1.479.094-.042.276-.109.405-.149.215-.066.271-.071.687-.071.507 0 .682.033 1.081.206.397.172.621.349 1.098.864.127.136.177.171.304.208.184.054.334.04.504-.045a.66.66 0 0 0 .276-.891c-.08-.149-.298-.399-.557-.637A4 4 0 0 0 6.12 5.372"/></svg>