<svg xmlns="http://www.w3.org/2000/svg" viewBox="0 0 16 16" fill="currentColor"><path fill-rule="evenodd" d="M3.587 4.029C2.214 4.17 1.034 4.999.4 6.265A5 5 0 0 0 .064 7.31a5 5 0 0 0 0 1.38 4 4 0 0 0 2.804 3.136c.504.146.577.153 1.924.166 1.456.015 1.465.014 1.672-.194a.7.7 0 0 0 .203-.465.72.72 0 0 0-.189-.452c-.2-.206-.147-.199-1.611-.217-1.229-.015-1.319-.019-1.51-.073-.841-.237-1.477-.777-1.798-1.528-.17-.396-.21-.599-.21-1.063 0-.343.01-.45.059-.631A2.66 2.66 0 0 1 2.12 6.12a2.7 2.7 0 0 1 1.236-.711c.192-.054.28-.058 1.511-.073 1.464-.018 1.411-.011 1.611-.217a.72.72 0 0 0 .189-.452.7.7 0 0 0-.202-.465c-.201-.2-.22-.203-1.53-.198-.624.001-1.231.013-1.348.025m6.195.013c-.241.074-.449.364-.449.625 0 .148.08.34.189.452.2.206.147.199 1.611.217 1.445.017 1.449.018 1.906.212a2.666 2.666 0 0 1 1.573 2.968 2.67 2.67 0 0 1-1.626 1.958c-.11.045-.322.107-.471.138-.248.05-.363.055-1.428.055-1.334 0-1.352.002-1.552.202a.7.7 0 0 0-.202.464c0 .159.081.343.202.465.199.198.226.202 1.48.202 1.405 0 1.74-.035 2.345-.246 1.031-.359 1.95-1.248 2.35-2.274a4.01 4.01 0 0 0-.89-4.303 3.96 3.96 0 0 0-2.443-1.149c-.152-.015-.77-.027-1.373-.026-.876.001-1.123.009-1.222.04M5.115 7.375c-.24.074-.448.364-.448.625 0 .268.208.551.459.626.206.061 5.542.061 5.748 0A.69.69 0 0 0 11.333 8a.69.69 0 0 0-.459-.626c-.2-.059-5.566-.058-5.759.001"/></svg>