<svg xmlns="http://www.w3.org/2000/svg" viewBox="0 0 16 16" fill="currentColor"><path fill-rule="evenodd" d="M1.782 3.375c-.241.074-.449.364-.449.625A.7.7 0 0 0 2 4.667a.83.83 0 0 0 .437-.164c.392-.325.255-.984-.235-1.13a.62.62 0 0 0-.42.002m3.333 0c-.24.074-.448.364-.448.625 0 .268.208.551.459.626.12.036.676.041 4.541.041 3.864 0 4.42-.005 4.54-.041a.69.69 0 0 0 .46-.626.69.69 0 0 0-.46-.626c-.201-.06-8.898-.058-9.092.001m-3.333 4c-.241.074-.449.364-.449.625A.7.7 0 0 0 2 8.667a.83.83 0 0 0 .437-.164c.392-.325.255-.984-.235-1.13a.62.62 0 0 0-.42.002m3.333 0c-.24.074-.448.364-.448.625 0 .268.208.551.459.626.12.036.676.041 4.541.041 3.864 0 4.42-.005 4.54-.041a.69.69 0 0 0 .46-.626.69.69 0 0 0-.46-.626c-.201-.06-8.898-.058-9.092.001m-3.333 4c-.241.074-.449.364-.449.625a.7.7 0 0 0 .667.667.83.83 0 0 0 .437-.164c.392-.325.255-.984-.235-1.13a.62.62 0 0 0-.42.002m3.333 0c-.24.074-.448.364-.448.625 0 .268.208.551.459.626.12.036.676.041 4.541.041 3.864 0 4.42-.005 4.54-.041a.69.69 0 0 0 .46-.626.69.69 0 0 0-.46-.626c-.201-.06-8.898-.058-9.092.001"/></svg>