<svg xmlns="http://www.w3.org/2000/svg" viewBox="0 0 16 16" fill="currentColor"><path fill-rule="evenodd" d="M7.782.709a.69.69 0 0 0-.408.417c-.06.204-.06 2.878 0 3.081.075.252.358.46.626.46a.7.7 0 0 0 .465-.202c.203-.204.202-.191.202-1.798 0-1.608.001-1.595-.202-1.798a.64.64 0 0 0-.683-.16M3.155 2.642c-.319.062-.521.316-.522.655 0 .276.04.325 1.163 1.444.968.965 1.024 1.016 1.162 1.056.18.053.25.054.422.002a.67.67 0 0 0 .419-.419.6.6 0 0 0-.002-.422c-.04-.138-.091-.194-1.056-1.162-.674-.676-1.055-1.04-1.137-1.083a.66.66 0 0 0-.449-.071m9.429-.004a1 1 0 0 0-.213.088c-.065.039-.569.524-1.122 1.079-.954.959-1.006 1.015-1.046 1.153a.6.6 0 0 0-.002.422.67.67 0 0 0 .419.419.6.6 0 0 0 .422-.002c.138-.04.194-.091 1.162-1.056.706-.703 1.04-1.054 1.09-1.147a.69.69 0 0 0 .02-.583.68.68 0 0 0-.73-.373M1.115 7.375c-.24.074-.448.364-.448.625 0 .268.208.551.459.626.204.06 2.878.06 3.081 0A.69.69 0 0 0 4.667 8a.69.69 0 0 0-.46-.626c-.197-.059-2.901-.057-3.092.001m10.667 0c-.241.074-.449.364-.449.625 0 .158.081.343.202.465.204.203.191.202 1.798.202 1.608 0 1.595.001 1.798-.202A.7.7 0 0 0 15.333 8a.69.69 0 0 0-.459-.626c-.197-.059-2.902-.057-3.092.001m-6.835 2.829c-.122.038-.22.127-1.151 1.055-1.125 1.121-1.163 1.168-1.163 1.446 0 .391.271.661.664.662.276 0 .325-.04 1.444-1.163.965-.968 1.016-1.024 1.056-1.162a.6.6 0 0 0 .002-.422.69.69 0 0 0-.637-.458 1 1 0 0 0-.215.042m5.661-.002a.69.69 0 0 0-.407.418.6.6 0 0 0 .002.422c.04.138.091.194 1.056 1.162 1.123 1.127 1.167 1.163 1.449 1.163.385 0 .658-.276.659-.664 0-.276-.04-.325-1.163-1.444-.968-.965-1.024-1.016-1.162-1.056a.63.63 0 0 0-.434-.001m-2.826 1.173a.69.69 0 0 0-.408.418c-.06.203-.06 2.877 0 3.081a.69.69 0 0 0 .626.459c.158 0 .343-.08.465-.202.203-.203.202-.19.202-1.798 0-1.607.001-1.594-.202-1.798a.65.65 0 0 0-.683-.16"/></svg>