<svg xmlns="http://www.w3.org/2000/svg" viewBox="0 0 16 16" fill="currentColor"><path fill-rule="evenodd" d="M7.707.682c-1.097.13-1.866.487-2.553 1.188a3.8 3.8 0 0 0-.944 1.55c-.179.545-.19.658-.203 2.027l-.012 1.22h-.404c-.826 0-1.191.132-1.658.599-.346.346-.499.638-.573 1.089-.036.223-.036 5.067 0 5.29.074.451.227.743.573 1.089s.638.499 1.089.572c.226.037 9.73.037 9.956 0 .451-.073.743-.226 1.089-.572s.499-.638.573-1.089c.036-.223.036-5.067 0-5.29-.074-.451-.227-.743-.573-1.089-.468-.467-.832-.599-1.66-.599H12V5.616c0-.578-.013-1.175-.028-1.327a3.98 3.98 0 0 0-1.124-2.418A3.94 3.94 0 0 0 8.672.733c-.229-.04-.8-.07-.965-.051m.923 1.394c1.028.269 1.772 1.048 1.982 2.076.05.247.055.363.055 1.392v1.123H5.33l.01-1.22c.01-1.154.014-1.231.069-1.425.143-.505.364-.888.711-1.236.352-.352.76-.584 1.236-.704.295-.075.329-.078.711-.07.247.005.408.024.563.064m4.257 5.962a.7.7 0 0 1 .359.303l.074.126v5.066l-.074.126a.7.7 0 0 1-.359.303c-.149.053-9.625.053-9.774 0a.7.7 0 0 1-.359-.303l-.074-.126V8.467l.074-.126a.7.7 0 0 1 .359-.303c.149-.053 9.625-.053 9.774 0"/></svg>