<svg xmlns="http://www.w3.org/2000/svg" viewBox="0 0 16 16" fill="currentColor"><path fill-rule="evenodd" d="M9.782 1.375c-.241.074-.449.364-.449.625 0 .149.08.34.189.453.203.208.121.199 1.825.214l1.52.013.125.074a.7.7 0 0 1 .303.359c.053.149.053 9.625 0 9.774a.7.7 0 0 1-.303.359l-.125.074-1.52.013c-1.704.015-1.622.006-1.825.214a.72.72 0 0 0-.189.453c0 .158.081.343.202.465.205.204.187.202 1.837.201.835 0 1.511-.011 1.606-.026.451-.074.743-.227 1.089-.573s.499-.638.573-1.089c.036-.226.036-9.73 0-9.956-.074-.451-.227-.743-.573-1.089s-.638-.499-1.089-.573c-.097-.015-.765-.026-1.618-.025-1.186.002-1.476.009-1.578.04M6.448 4.042a.69.69 0 0 0-.407.418.6.6 0 0 0 .002.422c.04.138.093.195 1.192 1.298l1.15 1.153H5.157c-2.812 0-3.245.006-3.364.041a.69.69 0 0 0-.46.626c0 .268.208.551.46.626.119.035.552.041 3.364.041h3.228L7.235 9.82c-1.099 1.103-1.152 1.16-1.192 1.298a.6.6 0 0 0-.002.422.67.67 0 0 0 .419.419.6.6 0 0 0 .422-.001c.14-.041.202-.1 1.899-1.794 1.903-1.9 1.886-1.879 1.886-2.164s.017-.264-1.886-2.164C7.084 4.142 7.022 4.083 6.882 4.042a.64.64 0 0 0-.434 0"/></svg>