<svg xmlns="http://www.w3.org/2000/svg" viewBox="0 0 16 16" fill="currentColor"><path fill-rule="evenodd" d="M2.338 2.028c-.431.072-.733.234-1.071.572-.347.346-.5.638-.573 1.089-.037.225-.037 8.397 0 8.622.073.451.226.743.573 1.089.341.341.644.501 1.08.572.234.037 11.065.039 11.298.001.45-.073.742-.227 1.088-.573s.5-.638.573-1.089c.037-.225.037-8.397 0-8.622-.073-.451-.226-.743-.573-1.089-.346-.346-.638-.5-1.088-.573-.201-.032-11.113-.032-11.307.001m11.283 1.367c.103.056.3.251.298.295-.002.039-5.865 4.137-5.919 4.137-.052 0-5.917-4.097-5.918-4.134-.001-.029.114-.163.203-.237.153-.126-.089-.121 5.755-.115 5.237.005 5.497.008 5.581.054M4.88 7.294a214 214 0 0 0 2.84 1.97c.136.071.41.076.547.008.051-.025 1.359-.932 2.906-2.016l2.814-1.969.007 3.363c.005 1.85.001 3.413-.008 3.474-.033.235-.294.496-.529.529-.061.009-2.558.012-5.55.008-5.143-.007-5.445-.01-5.527-.055a1 1 0 0 1-.32-.32c-.044-.081-.047-.296-.054-3.548l-.007-3.462.074.052z"/></svg>