<svg xmlns="http://www.w3.org/2000/svg" viewBox="0 0 16 16" fill="currentColor"><path fill-rule="evenodd" d="M2.675 1.052a1 1 0 0 0-.587.535l-.075.16v11.386l.057.12c.139.293.343.475.63.564.149.047.299.05 2.555.05h2.397l-.116-.167a3.3 3.3 0 0 1-.364-.707l-.034-.113H3.013V2h6.185l.007.727c.008.723.009.727.079.878.1.212.264.38.473.482l.176.086.727.009.727.008v5.161l.07.033c.21.095.601.409.796.638l.12.142V6.788c0-2.975-.005-3.388-.041-3.476-.05-.122-2.083-2.17-2.231-2.247-.096-.05-.191-.052-3.707-.05-2.889.002-3.629.009-3.719.037m8.152 2.128c0 .012-.141.018-.314.014l-.313-.007-.007-.334-.008-.333.321.32c.176.175.321.329.321.34m-6.94 3.009c-.355.187-.328.711.045.881.103.046.259.049 3.255.049 2.986 0 3.152-.003 3.253-.049.308-.14.4-.519.186-.772-.147-.176.082-.165-3.443-.163-3.133.001-3.198.002-3.296.054m.135 2.423a.525.525 0 0 0-.394.481.6.6 0 0 0 .162.366c.158.145.093.141 2.336.141H8.2l.12-.082c.272-.184.608-.334.96-.429.273-.073.941-.095 1.24-.041.117.021.218.034.224.029.025-.022-.057-.227-.121-.303-.158-.187.107-.174-3.37-.178-1.723-.002-3.177.005-3.231.016m6.271 1.12c-.285.086-.532.386-.533.646 0 .204-.075.235-.25.102a.746.746 0 0 0-1.127.259c-.134.273-.084.606.128.868.052.064.055.078.021.11a.6.6 0 0 1-.196.066.74.74 0 0 0-.478.288.67.67 0 0 0-.149.451.6.6 0 0 0 .08.328c.127.254.284.358.637.422.151.027.165.079.057.214a.74.74 0 0 0 .057.985.65.65 0 0 0 .459.215.72.72 0 0 0 .52-.141c.19-.131.22-.118.26.106.061.336.281.566.597.625.448.082.828-.209.891-.685.01-.078.034-.147.053-.155.019-.007.098.032.175.087a.8.8 0 0 0 .292.132c.357.074.664-.072.825-.394a.74.74 0 0 0-.082-.802c-.113-.141-.095-.187.08-.212a.79.79 0 0 0 .619-.438.82.82 0 0 0-.002-.615c-.103-.239-.372-.432-.605-.433-.111-.001-.195-.052-.195-.118 0-.019.029-.061.064-.094.103-.097.18-.306.181-.495.003-.619-.672-.96-1.187-.599-.183.129-.216.117-.24-.083a.75.75 0 0 0-.75-.663 1 1 0 0 0-.202.023m.318.632a.3.3 0 0 1 .056.166c0 .138.109.353.228.451a.66.66 0 0 0 .851.018c.139-.106.263-.122.306-.041.047.087.032.149-.063.27-.24.303-.18.771.125.982a.8.8 0 0 0 .404.137c.1 0 .175.069.175.161 0 .099-.049.132-.235.158-.369.052-.591.3-.591.66 0 .19.042.312.159.46.091.115.1.175.037.245-.066.073-.155.06-.29-.043a.676.676 0 0 0-1.024.22 1 1 0 0 0-.07.254c-.02.164-.063.231-.149.231-.109 0-.151-.047-.17-.193a.9.9 0 0 0-.152-.394.9.9 0 0 0-.323-.212c-.227-.073-.504-.01-.718.164-.06.048-.087.054-.146.033-.1-.035-.138-.146-.078-.229l.11-.15a.7.7 0 0 0 .093-.513c-.067-.282-.275-.463-.591-.516-.164-.028-.201-.044-.233-.102-.034-.06-.034-.076.006-.136.034-.052.075-.072.171-.085.3-.039.532-.221.608-.477.074-.25.044-.418-.113-.636-.11-.151-.11-.252-.002-.312.067-.038.078-.036.147.019.041.032.134.091.208.13.235.125.55.089.755-.086a.66.66 0 0 0 .238-.471c.011-.117.028-.166.07-.195.081-.057.139-.048.201.032m-6.544.476a1 1 0 0 1-.098.024c-.169.037-.341.274-.341.469 0 .207.165.423.366.479.063.018.636.028 1.554.028h1.454l.034-.253c.018-.139.069-.364.112-.5s.078-.25.078-.254c.001-.01-3.129-.003-3.159.007m6.186.716a.84.84 0 0 0-.441.256.86.86 0 0 0-.266.501.95.95 0 0 0 .303.905c.211.193.388.256.684.244.279-.012.473-.093.654-.275.182-.181.263-.375.275-.654.012-.3-.051-.475-.25-.69a.98.98 0 0 0-.959-.287m.413.611c.368.189.219.74-.191.705-.164-.014-.255-.077-.319-.221-.111-.25.068-.525.352-.542a.5.5 0 0 1 .158.058"/></svg>