<svg xmlns="http://www.w3.org/2000/svg" viewBox="0 0 16 16" fill="currentColor"><path fill-rule="evenodd" d="M7.547.016 7.2.055C4.252.388 1.847 2.729 1.412 5.688c-.206 1.404.024 2.733.722 4.174.861 1.776 2.375 3.563 4.413 5.208 1.036.837 1.284.978 1.59.907.372-.085 1.912-1.331 3.023-2.444 1.874-1.877 3.048-3.847 3.386-5.678a6.63 6.63 0 0 0-1.461-5.495A6.67 6.67 0 0 0 8.978.077C8.645.027 7.77-.011 7.547.016m1.007 1.346a5.44 5.44 0 0 1 2.806 1.164 7 7 0 0 1 .857.874 5.34 5.34 0 0 1 1.108 3.44c-.061 1.557-.813 3.147-2.327 4.92-.674.789-2.08 2.09-2.911 2.694L8 14.517l-.087-.063a28 28 0 0 1-1.185-.968c-.458-.399-1.398-1.341-1.748-1.753-1.351-1.587-2.087-3.026-2.274-4.448-.175-1.331.223-2.767 1.077-3.885a7 7 0 0 1 .857-.874 5.5 5.5 0 0 1 2.773-1.163 6.6 6.6 0 0 1 1.141-.001m-.968 2.677c-1.39.216-2.391 1.523-2.229 2.911.171 1.47 1.483 2.528 2.926 2.36 1.469-.171 2.528-1.484 2.36-2.927a2.66 2.66 0 0 0-3.057-2.344m.742 1.334c.24.063.417.167.608.358.269.268.397.571.397.936 0 .364-.128.667-.397.936A1.27 1.27 0 0 1 8 8c-.364 0-.668-.129-.936-.397a1.26 1.26 0 0 1-.397-.936c0-.365.128-.668.397-.936.269-.27.556-.392.924-.396.103-.001.256.016.34.038"/></svg>