<svg xmlns="http://www.w3.org/2000/svg" viewBox="0 0 16 16" fill="currentColor"><path fill-rule="evenodd" d="M5.146.692C5.109.703 4 1.329 2.68 2.083 1.033 3.024.25 3.486.181 3.556-.014 3.756 0 3.323 0 9.333c0 6.073-.017 5.579.202 5.798a.63.63 0 0 0 .636.173c.057-.016 1.096-.596 2.309-1.289l2.204-1.259 2.584 1.292 2.585 1.292.177-.013.178-.013 2.369-1.354a282 282 0 0 0 2.458-1.414.75.75 0 0 0 .268-.373c.021-.076.03-1.654.03-5.508 0-6.07.017-5.577-.202-5.796a.63.63 0 0 0-.636-.173c-.057.016-1.096.596-2.309 1.289l-2.204 1.259-2.578-1.288C5.621.731 5.485.667 5.353.669a1 1 0 0 0-.207.023M8.013 3.42 10 4.413v4.58c0 2.519-.006 4.58-.013 4.58-.008 0-.908-.447-2-.993L6 11.587v-4.58c0-2.519.006-4.58.013-4.58.008 0 .908.447 2 .993M4.667 7.048v4.567l-1.607.917c-.884.505-1.634.935-1.667.956l-.06.038V4.385l1.66-.951c.913-.523 1.663-.952 1.667-.952.004-.001.007 2.053.007 4.566m10 0v4.567l-1.607.917c-.884.505-1.634.935-1.667.956l-.06.038V4.385l1.66-.951c.913-.523 1.663-.952 1.667-.952.004-.001.007 2.053.007 4.566"/></svg>