<svg xmlns="http://www.w3.org/2000/svg" viewBox="0 0 16 16" fill="currentColor"><path fill-rule="evenodd" d="M9.782 1.375c-.241.074-.449.364-.449.625 0 .158.081.343.202.465.201.201.21.202 1.623.202h1.227l-1.817 1.82C8.81 6.248 8.75 6.311 8.709 6.452a.6.6 0 0 0-.002.422.67.67 0 0 0 .419.419.6.6 0 0 0 .422-.002c.141-.041.204-.101 1.965-1.859l1.82-1.817v1.227c0 1.413.001 1.422.202 1.623a.7.7 0 0 0 .465.202.7.7 0 0 0 .465-.202c.21-.211.202-.111.201-2.503V1.853l-.063-.133a.63.63 0 0 0-.336-.331c-.118-.053-.163-.054-2.24-.053-1.768.001-2.141.007-2.245.039M6.44 8.711c-.124.037-.257.163-1.953 1.857l-1.82 1.817v-1.227c0-1.413-.001-1.422-.202-1.623A.7.7 0 0 0 2 9.333a.7.7 0 0 0-.465.202c-.21.211-.202.11-.201 2.503 0 2.064.002 2.111.055 2.229.073.161.171.26.331.336l.133.063h2.109c2.392.001 2.292.009 2.503-.201A.7.7 0 0 0 6.667 14a.7.7 0 0 0-.202-.465c-.201-.201-.21-.202-1.623-.202H3.615l1.817-1.82C7.19 9.752 7.25 9.689 7.291 9.548a.6.6 0 0 0 .002-.422.67.67 0 0 0-.419-.419.64.64 0 0 0-.434.004"/></svg>