<svg xmlns="http://www.w3.org/2000/svg" viewBox="0 0 16 16" fill="currentColor"><path fill-rule="evenodd" d="M6.862.029c-.614.103-1.158.65-1.292 1.298l-.034.166-1.628.001c-.993 0-1.696.011-1.801.027-.246.04-.482.158-.668.335-.19.182-.294.339-.377.571L1 2.6v5.24c0 5.035.002 5.247.05 5.421.126.457.545.855.998.95.096.02.813.029 2.232.029h2.091l-.019-.14a4 4 0 0 1 .001-.773l.02-.207h-4.13l-.075-.064-.075-.065V2.748l.061-.061.061-.06h9.896l.065.074.064.075v4.318l.153-.02c.193-.026.739-.026.854-.001l.086.019V4.885c0-2.405.004-2.342-.153-2.667a1.5 1.5 0 0 0-.596-.586 1.5 1.5 0 0 0-.345-.11c-.107-.018-.792-.028-1.805-.028l-1.633-.001-.015-.073-.043-.193C8.65.81 8.272.352 7.865.163A1.65 1.65 0 0 0 6.862.029m.552 1.044a.6.6 0 0 1 .199.176c.072.104.08.136.08.32 0 .176-.01.22-.072.314a.51.51 0 0 1-.389.241.52.52 0 0 1-.434-.142c-.118-.107-.165-.229-.164-.422a.52.52 0 0 1 .233-.458.55.55 0 0 1 .547-.029M3.707 4.96v.56h6.906V4.4H3.707zm0 2.907v.56h6.201l.213-.215a5 5 0 0 1 .352-.323l.14-.109v-.473H3.707zm8.71 1.003c-.373.08-.698.254-.996.533-.315.296-2.852 2.943-2.959 3.087a2.1 2.1 0 0 0-.406 1.09c-.117 1.359.923 2.48 2.236 2.413a1.93 1.93 0 0 0 1.109-.399c.193-.142 2.983-3.017 3.173-3.27.552-.733.568-1.788.039-2.564-.213-.312-.627-.656-.943-.782a2.34 2.34 0 0 0-1.253-.108m.844 1.164c.199.091.438.33.541.539.072.148.078.183.078.454 0 .431-.025.473-.701 1.178l-.546.57-.537-.554-.731-.758-.195-.204.515-.536c.542-.564.646-.652.862-.73.196-.07.51-.052.714.041m-9.537.197a5 5 0 0 0-.017.56v.542h1.726l1.727-.001.093-.124c.052-.069.277-.314.5-.545.224-.23.407-.426.407-.435 0-.021-4.414-.018-4.436.003m8.061 3.237.078.095-.546.564c-.474.49-.569.576-.724.652-.162.079-.201.088-.419.088-.307 0-.478-.074-.709-.305-.354-.353-.431-.835-.203-1.269.062-.119.221-.299.617-.702l.534-.542.647.662c.355.364.682.705.725.757"/></svg>