<svg xmlns="http://www.w3.org/2000/svg" viewBox="0 0 16 16" fill="currentColor"><path fill-rule="evenodd" d="M7.788.55c-.305.066-.546.207-.818.476-.2.198-.262.281-.353.467-.06.125-.125.308-.143.407l-.033.18H4.614c-2.017.001-2.048.003-2.355.165a1.66 1.66 0 0 0-.599.603c-.179.359-.169-.028-.161 6.032l.008 5.48.06.158c.174.458.498.775.931.913l.197.062h5.517c5.432 0 5.518 0 5.685-.053.454-.142.811-.488.964-.933l.059-.174.008-5.4c.005-3.572-.002-5.47-.02-5.607a1.46 1.46 0 0 0-.949-1.173c-.159-.06-.163-.06-2.072-.067l-1.914-.008v-.063c0-.087-.1-.403-.173-.549A1.8 1.8 0 0 0 8.615.547a2.3 2.3 0 0 0-.827.003m.679 1.073c.47.214.428.926-.064 1.093a.6.6 0 0 1-.727-.302.66.66 0 0 1 .111-.677c.151-.157.468-.21.68-.114m3.189 3.586a.52.52 0 0 1 .286.456c.018.294-.084.478-.328.592l-.134.062-3.257.001c-3.564 0-3.395.007-3.565-.154-.243-.231-.25-.658-.014-.878.157-.146-.026-.139 3.572-.14l3.322-.001zm0 3.066a.52.52 0 0 1 .286.456c.018.294-.084.479-.328.593l-.134.062H8.223c-3.564.001-3.395.008-3.565-.154-.243-.231-.25-.657-.014-.877.157-.147-.026-.139 3.572-.141l3.322-.001zm-.04 2.42a.38.38 0 0 1 .137.35.32.32 0 0 1-.076.199c-.136.149-1.962 1.671-2.047 1.708a.39.39 0 0 1-.362-.049c-.071-.056-.392-.427-.557-.645-.083-.11-.098-.149-.097-.267 0-.239.149-.391.386-.391.163 0 .233.043.4.247a1 1 0 0 0 .143.153c.009 0 .379-.305.822-.677s.821-.684.84-.693a.8.8 0 0 1 .188-.008c.119.006.169.023.223.073m-3.907.647a.7.7 0 0 1 .198.176c.073.104.08.132.08.335s-.007.232-.08.338a.6.6 0 0 1-.225.189l-.145.073H6.252c-1.403 0-1.435-.003-1.594-.154-.243-.231-.25-.657-.014-.878.15-.139.148-.139 1.598-.14l1.35-.001z"/></svg>