<svg xmlns="http://www.w3.org/2000/svg" viewBox="0 0 16 16" fill="currentColor"><path fill-rule="evenodd" d="M4.653.019c-.088.004-.322.027-.52.05C1.838.336.131 1.44.011 2.735c-.114 1.225 1.254 2.35 3.365 2.77a10 10 0 0 0 3.458.042c1.906-.332 3.268-1.24 3.499-2.334.263-1.244-.95-2.444-2.987-2.955A9.3 9.3 0 0 0 4.653.019M0 5.375c.001.533.036.734.182 1.038.467.971 1.86 1.724 3.671 1.985.331.048 1.343.125 1.359.103.004-.004.066-.134.139-.288.244-.514.6-1.043.98-1.457.097-.105.176-.196.176-.202a.8.8 0 0 0-.18.011c-.353.044-1.121.066-1.601.045-1.506-.065-2.877-.438-3.91-1.062a5 5 0 0 1-.716-.53L0 4.923zm10.453.333a5 5 0 0 0-1.88.518c-.543.267-.9.521-1.342.955a4.8 4.8 0 0 0-1.004 1.383 5.1 5.1 0 0 0-.16 4.211A5.17 5.17 0 0 0 10.84 16a5.17 5.17 0 0 0 5.037-4.057c.552-2.49-.821-5.012-3.226-5.925a5.3 5.3 0 0 0-2.198-.31m.854 2.368v.503l.176.087c.414.204.756.719.757 1.141v.114l-.457-.007-.457-.007-.035-.117a.463.463 0 1 0-.721.49c.08.06.138.077.33.097.409.041.689.167.94.422a1.41 1.41 0 0 1 .25 1.624 1.6 1.6 0 0 1-.616.606l-.167.078v1.026h-.934v-1.028l-.166-.083a1.4 1.4 0 0 1-.755-1.072l-.019-.163h.934l.018.094c.02.106.146.263.258.32.112.059.312.048.436-.022.157-.089.232-.234.22-.426-.014-.24-.171-.403-.414-.432-.53-.061-.763-.158-1.033-.428a1.393 1.393 0 0 1-.113-1.847 1.7 1.7 0 0 1 .538-.42l.096-.04V7.573h.934zM0 8.188c0 .651.07.916.35 1.321.521.753 1.72 1.372 3.172 1.636.311.056.973.134 1.145.135h.093l.001-.487A4.8 4.8 0 0 1 4.87 9.67c.031-.157.034-.215.011-.23a2.4 2.4 0 0 0-.369-.035C2.839 9.325 1.12 8.726.178 7.897a2 2 0 0 0-.166-.137c-.007 0-.012.193-.012.428m0 2.819c.001.52.036.727.175 1.019.472.997 1.925 1.77 3.785 2.014.55.072 1.72.104 1.72.047 0-.007-.065-.128-.145-.27-.247-.436-.422-.873-.615-1.539-.005-.017-.187-.042-.451-.061-1.784-.133-3.274-.651-4.262-1.483L0 10.56z"/></svg>