<svg xmlns="http://www.w3.org/2000/svg" viewBox="0 0 16 16" fill="currentColor"><path fill-rule="evenodd" d="M2.375.029a1.35 1.35 0 0 0-1.012 1.006c-.042.2-.042 13.73 0 13.93.045.219.181.471.344.637.168.172.464.33.694.372.097.017 2.107.024 5.854.02l5.705-.007.158-.06c.418-.16.7-.462.826-.885.039-.131.043-.657.043-5.554V4.08h-1.354c-1.486-.001-1.57-.008-1.894-.16-.227-.106-.551-.428-.655-.65-.149-.32-.151-.336-.151-1.862V0l-4.22.003C4.392.005 2.44.016 2.375.029m9.439 1.403c0 1.234.004 1.336.05 1.437.059.13.208.259.347.301.104.031 2.669.046 2.669.016a1 1 0 0 0-.056-.127C14.75 2.91 12.087.249 11.927.164l-.114-.061zm-4.68.444c.23.074.472.21.665.371.1.085 2.501 2.917 2.864 3.378.265.338.404.742.403 1.173 0 .316-.051.539-.185.815-.245.504-.69.872-1.228 1.017a2.4 2.4 0 0 1-.933.002 2 2 0 0 1-.769-.408c-.145-.131-2.603-3.028-2.893-3.409a2 2 0 0 1-.315-.629 2 2 0 0 1 0-1.012c.221-.711.727-1.189 1.43-1.35.249-.057.697-.032.961.052m-.86.829a1.1 1.1 0 0 0-.643.57c-.061.131-.07.185-.069.405.001.214.011.276.069.402.057.125.568.763 1.094 1.369l.091.103.772-.647.778-.652c.022-.018-1.082-1.3-1.189-1.383a1.05 1.05 0 0 0-.903-.167m1.878 2.869a25 25 0 0 0-.765.654c0 .008.251.311.557.675.605.718.695.797.99.873.463.118.94-.105 1.162-.543.071-.14.077-.177.077-.433 0-.251-.007-.295-.072-.428-.063-.128-1.106-1.412-1.164-1.433-.011-.003-.364.282-.785.635m3.733 4.388c.272.202.263.578-.018.743-.093.055-.11.055-3.707.055H4.547l-.101-.063a.442.442 0 0 1-.091-.667c.13-.142-.054-.135 3.836-.129l3.618.006zm-.044 1.725c.305.154.328.54.044.751l-.076.055H8.16c-3.644 0-3.65 0-3.723-.055a.43.43 0 0 1-.19-.325.426.426 0 0 1 .311-.461c.038-.011 1.665-.022 3.616-.023l3.548-.002zm.026 1.756c.286.161.286.587 0 .756-.093.054-.11.054-3.707.054H4.547l-.095-.058a.446.446 0 0 1-.097-.672c.129-.14-.048-.134 3.815-.135l3.596-.001z"/></svg>