<svg xmlns="http://www.w3.org/2000/svg" viewBox="0 0 16 16" fill="currentColor"><path fill-rule="evenodd" d="M1.371.04a1.73 1.73 0 0 0-1.343 1.4C.006 1.564 0 3.454.006 8.107c.007 6.242.009 6.499.057 6.64.205.607.61 1.007 1.204 1.19.153.048.363.05 4.826.05 4.464 0 4.674-.002 4.827-.05a1.76 1.76 0 0 0 1.202-1.19c.04-.124.049-.271.058-.93l.011-.784-.062.015c-.36.087-1.131.089-1.516.005a3.75 3.75 0 0 1-1.908-1.041 3.77 3.77 0 0 1-1.042-1.99 4.5 4.5 0 0 1 .002-1.302c.291-1.523 1.401-2.67 2.919-3.016.409-.094 1.077-.096 1.528-.006l.075.015V4.054l-1.889-.007-1.889-.007-.094-.072c-.19-.145-.182-.046-.182-2.112V0l-3.3.002C2.198.004 1.501.011 1.371.04m7.696 1.667V3.12h2.839l-1.413-1.413A190 190 0 0 0 9.073.293c-.003 0-.006.636-.006 1.414M7.745 5.012a.48.48 0 0 1 .364.58.55.55 0 0 1-.301.319c-.114.041-5.45.05-5.597.009-.204-.057-.371-.318-.333-.521a.53.53 0 0 1 .365-.386c.127-.03 5.373-.031 5.502-.001M11 6.587a2.83 2.83 0 0 0-2.279 1.832 2.9 2.9 0 0 0-.018 1.864 2.82 2.82 0 0 0 3.364 1.809c.235-.061.541-.19.728-.307a1.3 1.3 0 0 1 .186-.105c.01 0 .528.509 1.152 1.132s1.167 1.144 1.209 1.16c.394.148.775-.226.617-.606-.028-.068-.403-.463-1.171-1.233L13.659 11l.129-.223c.277-.478.387-.939.364-1.524a2.5 2.5 0 0 0-.207-.973 3.4 3.4 0 0 0-.53-.82 3 3 0 0 0-1.367-.806A3.4 3.4 0 0 0 11 6.587m-4.405.329a.5.5 0 0 1 .274.505.48.48 0 0 1-.255.332l-.119.06H2.251l-.118-.06c-.346-.174-.338-.679.014-.835.119-.053 4.321-.055 4.448-.002m.007 1.881a.455.455 0 0 1 .166.708c-.152.184-.033.175-2.395.175-2.331 0-2.243.006-2.379-.156a.458.458 0 0 1 .144-.72c.115-.057.121-.057 2.235-.057 2.006.001 2.126.003 2.229.05m.025 1.891a.46.46 0 0 1-.109.856c-.147.041-4.143.04-4.291 0-.156-.043-.325-.227-.348-.38a.5.5 0 0 1 .155-.413c.151-.138.114-.136 2.379-.13l2.107.006z"/></svg>