<svg xmlns="http://www.w3.org/2000/svg" viewBox="0 0 16 16" fill="currentColor"><path fill-rule="evenodd" d="M2.507 1.068A1.99 1.99 0 0 0 1.215 2.12C.98 2.604 1 2.052 1 8s-.02 5.396.215 5.88c.195.402.503.71.905.905.484.235-.068.215 5.88.215s5.396.02 5.88-.215a1.92 1.92 0 0 0 .905-.905c.235-.484.215.068.215-5.88s.02-5.396-.215-5.88a1.99 1.99 0 0 0-1.303-1.054c-.207-.052-.309-.053-5.493-.051-5.128.001-5.288.003-5.482.053m8.446 2.826c.189.108.281.25.295.456.023.308.1.219-1.852 2.149-.976.965-1.822 1.787-1.88 1.826a.72.72 0 0 1-.723.031c-.104-.053-1.857-1.764-1.958-1.91-.067-.097-.075-.131-.075-.328 0-.201.007-.23.08-.336a.6.6 0 0 1 .227-.191c.129-.066.168-.074.326-.063.133.008.205.028.273.075.05.035.401.365.78.734l.689.671L8.7 5.463c1.127-1.112 1.598-1.56 1.68-1.597a.64.64 0 0 1 .573.028m-.131 6.246a.8.8 0 0 1 .184.185c.066.098.074.136.074.328 0 .193-.008.23-.074.329a.62.62 0 0 1-.424.272c-.098.018-1.019.025-2.679.02-2.371-.007-2.536-.01-2.636-.055a.58.58 0 0 1-.36-.56c-.001-.259.117-.455.333-.555.102-.048.223-.05 2.789-.044l2.682.007z"/></svg>