<svg xmlns="http://www.w3.org/2000/svg" viewBox="0 0 16 16" fill="currentColor"><path fill-rule="evenodd" d="M2.44 1.066a1.8 1.8 0 0 0-.892.517c-.258.263-.39.503-.504.91C1.004 2.64 1 3.09 1 8c0 5.024.003 5.357.047 5.517.111.402.257.659.523.922.272.269.51.402.923.517.147.04.597.044 5.507.044s5.36-.004 5.507-.044c.413-.115.651-.248.923-.517.266-.263.412-.52.523-.922.044-.16.047-.493.047-5.517 0-5.837.011-5.401-.144-5.813-.174-.464-.644-.905-1.152-1.082l-.224-.078-1.473-.008-1.474-.008v2.62c0 2.601 0 2.62-.055 2.734a.64.64 0 0 1-.586.355c-.074 0-.424-.103-1.003-.295L8 6.13l-.889.295c-.579.192-.929.295-1.003.295a.64.64 0 0 1-.586-.355c-.055-.114-.055-.133-.055-2.733V1.013l-1.42.002c-1.295.001-1.437.006-1.607.051m4.28 2.041c0 1.151.009 2.093.021 2.093.011 0 .272-.084.579-.187.365-.122.601-.186.68-.186s.315.064.68.186c.307.103.568.187.579.187s.021-.942.021-2.093V1.013H6.72zm0 8.08v.626H4.187V10.56H6.72z"/></svg>