<svg xmlns="http://www.w3.org/2000/svg" viewBox="0 0 16 16" fill="currentColor"><path fill-rule="evenodd" d="M1.689 1.051c-.062.02-.154.062-.205.093a1.3 1.3 0 0 0-.422.503L1 1.8v4.4l.064.16c.089.221.355.487.576.576L1.8 7h4.4l.16-.064a1 1 0 0 0 .336-.24 1 1 0 0 0 .24-.336L7 6.2V1.8l-.062-.154a1.2 1.2 0 0 0-.507-.545l-.151-.074-2.24-.006c-1.79-.004-2.262.002-2.351.03m8.004-.001a1.1 1.1 0 0 0-.601.537l-.065.133v4.56l.076.151c.095.187.278.369.47.467l.147.075h4.56l.151-.076c.187-.095.369-.278.467-.47l.075-.147V1.72l-.075-.147a1.14 1.14 0 0 0-.467-.47l-.151-.076-2.24-.006c-1.748-.004-2.263.003-2.347.029m-8 8a1.1 1.1 0 0 0-.601.537l-.065.133v4.56l.076.151c.095.187.278.369.47.467l.147.075h4.56l.151-.076c.187-.095.369-.278.467-.47l.075-.147V9.72l-.076-.151a1.14 1.14 0 0 0-.47-.467l-.147-.075-2.24-.006c-1.748-.004-2.263.003-2.347.029M11.8 9.036a.64.64 0 0 0-.301.228l-.072.105-.014 1.015L11.4 11.4l-1 .013c-1.107.015-1.084.011-1.247.197a.62.62 0 0 0 .118.897l.098.066 1.016.014 1.015.013.013 1c.015 1.107.011 1.084.197 1.247a.62.62 0 0 0 .897-.118l.066-.098.014-1.016.013-1.015 1-.013c1.107-.015 1.084-.011 1.247-.197a.62.62 0 0 0-.118-.897l-.098-.066-1.016-.014L12.6 11.4l-.013-1c-.012-.865-.02-1.011-.058-1.08a.64.64 0 0 0-.295-.265.85.85 0 0 0-.434-.019"/></svg>