<svg xmlns="http://www.w3.org/2000/svg" viewBox="0 0 16 16" fill="currentColor"><path d="M7.647 1.042a1.05 1.05 0 0 0-.789.878l-.018.12-.294.013c-.264.012-.312.023-.471.101-.815.401-.752 1.559.104 1.904l.154.062 1.549.008c1.311.007 1.578.002 1.744-.033.439-.091.741-.401.831-.851.084-.42-.167-.897-.577-1.099-.143-.07-.192-.079-.46-.087a4 4 0 0 1-.3-.015l-.029-.165a1.04 1.04 0 0 0-.743-.822 1.9 1.9 0 0 0-.701-.014m.456.756c.187.097.173.388-.023.469-.264.109-.482-.242-.269-.433.092-.082.181-.093.292-.036m-4.992.979c-.13.075-.124-.196-.124 6.09 0 6.509-.014 6.03.171 6.107.081.034.732.039 4.829.039 5.081 0 4.872.006 4.944-.129.021-.038.029-1.797.029-6.018V2.903l-.078-.078-.078-.078h-1.94l.011.248c.013.307-.024.496-.148.744-.18.36-.54.648-.942.755-.218.058-3.383.058-3.606 0-.701-.183-1.175-.866-1.09-1.57l.021-.177h-.975c-.644.001-.992.011-1.024.03M5.02 5.785c.121.136.088.365-.064.444-.159.082-.33.031-.409-.123-.051-.097-.051-.168 0-.267a.29.29 0 0 1 .473-.054m6.588-.021c.09.048.124.107.124.217.002.134-.086.222-.242.245-.064.009-1.327.013-2.806.009l-2.688-.008-.078-.087q-.156-.173 0-.329l.078-.078h2.777c2.06 0 2.792.008 2.835.031M5.015 7.998a.292.292 0 0 1-.119.481c-.118.039-.206.015-.3-.083-.061-.063-.076-.104-.076-.2 0-.102.013-.132.087-.198.124-.111.298-.111.408 0m6.654.037a.245.245 0 0 1 0 .33l-.064.075H5.969l-.052-.063q-.109-.133-.049-.274c.067-.162-.061-.155 2.968-.149l2.769.006zM4.96 10.178c.091.053.133.138.133.266 0 .127-.143.276-.265.276-.168 0-.321-.14-.321-.293 0-.079.068-.203.139-.252.077-.054.22-.053.314.003m6.708.074a.257.257 0 0 1 0 .349l-.066.066H5.996l-.078-.078q-.079-.078-.078-.162c0-.058.025-.109.078-.162l.078-.078h5.606zm-6.735 2.135c.109.056.16.141.16.266a.277.277 0 0 1-.373.27c-.098-.032-.213-.174-.213-.263 0-.095.082-.228.168-.27.107-.053.161-.054.258-.003m6.718.082c.107.09.114.238.018.35l-.064.074-2.743.008c-1.915.006-2.772-.001-2.842-.021-.215-.062-.241-.371-.037-.454.031-.012 1.301-.023 2.822-.024l2.764-.002z"/></svg>