<svg xmlns="http://www.w3.org/2000/svg" viewBox="0 0 16 16" fill="currentColor"><path d="M2.413.043c-.102.021-.3.094-.439.162-.349.17-.639.457-.795.783C.985 1.395 1 .827 1 8c0 5.367.006 6.519.036 6.64a1.84 1.84 0 0 0 1.057 1.219c.351.148.014.141 6.733.141h6.188l-.007-7.273c-.008-6.764-.011-7.284-.053-7.42a1.8 1.8 0 0 0-.928-1.102c-.452-.221.008-.205-6.045-.203C3.407.004 2.572.01 2.413.043M5.56 2.717c.191.088.28.229.28.442v.116l.255.124c.195.095.298.166.44.305.203.2.265.315.265.491 0 .288-.338.512-.621.412a1.1 1.1 0 0 1-.281-.212c-.149-.146-.208-.185-.338-.223-.629-.183-1.129.516-.716.999.132.154.282.215.6.245q.733.069 1.153.534c.267.296.39.615.389 1.014 0 .596-.325 1.095-.889 1.37l-.257.125v.118a.47.47 0 0 1-.388.478.483.483 0 0 1-.571-.496l-.001-.122-.137-.049a1.9 1.9 0 0 1-.631-.435c-.159-.191-.2-.288-.186-.436.028-.288.302-.468.599-.393.094.024.162.071.302.211.143.144.21.19.322.223a.58.58 0 0 0 .421 0 .62.62 0 0 0 .455-.598c0-.372-.307-.64-.732-.64-.528 0-1.132-.369-1.379-.843-.42-.802-.085-1.713.773-2.107l.193-.089v-.108a.6.6 0 0 1 .128-.356.6.6 0 0 1 .352-.149c.051 0 .141.022.2.049m6.721.244a.52.52 0 0 1 .301.462.52.52 0 0 1-.173.449c-.167.159-.114.155-2.009.155s-1.842.004-2.009-.155a.563.563 0 0 1 .276-.963c.066-.013.876-.022 1.8-.02l1.681.004zm-.001 2.283a.53.53 0 0 1 .307.502c0 .244-.113.412-.347.518-.117.053-.166.055-1.84.055s-1.723-.002-1.84-.055c-.234-.106-.347-.274-.347-.518 0-.269.151-.463.427-.548.037-.012.847-.019 1.8-.016 1.719.005 1.734.005 1.84.062m-.093 2.249a.65.65 0 0 1 .35.301c.044.085.053.144.045.277a.52.52 0 0 1-.302.461l-.132.068H8.652l-.133-.068a.53.53 0 0 1-.306-.483c0-.179.057-.312.182-.431.158-.15.138-.149 1.992-.15 1.029-.001 1.743.009 1.8.025m.047 2.842a.62.62 0 0 1 .305.289.6.6 0 0 1-.033.533.62.62 0 0 1-.373.254c-.194.045-8.11.039-8.282-.006-.447-.116-.591-.643-.26-.957.172-.163-.126-.152 4.403-.154 3.685-.001 4.152.004 4.24.041m.085 2.338a.554.554 0 0 1-.085.992c-.088.037-.556.042-4.234.042s-4.146-.005-4.234-.042a.57.57 0 0 1-.353-.526c0-.208.086-.356.268-.466l.143-.086h8.352z"/></svg>