<svg xmlns="http://www.w3.org/2000/svg" viewBox="0 0 16 16" fill="currentColor"><path fill-rule="evenodd" d="M12.151.029a3.496 3.496 0 0 0-3.114 3.034c-.038.286-.017.852.041 1.13.147.692.459 1.267.961 1.768.653.654 1.417.985 2.348 1.018a3.465 3.465 0 0 0 3.424-2.382c.121-.359.17-.687.169-1.117a3.34 3.34 0 0 0-1.019-2.441A3.33 3.33 0 0 0 13.173.08a3.8 3.8 0 0 0-1.022-.051M1.545 1.622a1.5 1.5 0 0 0-.33.139c-.197.118-.468.405-.557.589-.161.333-.151-.105-.151 6.546 0 6.623-.01 6.19.146 6.394.037.05.143.13.234.178.224.12.453.127.633.021.068-.04.476-.435.942-.913l.822-.842 5.525-.007 5.524-.007.178-.06c.454-.155.82-.549.94-1.013.038-.144.042-.484.036-2.966l-.007-2.804-.187.15a4.53 4.53 0 0 1-2.546.964c-.288.015-.312.02-.387.089a1 1 0 0 1-.173.124c-.09.047-.246.049-4.187.049H3.907l-.11-.058a.61.61 0 0 1-.256-.838.6.6 0 0 1 .194-.224l.118-.08 2.925-.013 2.926-.013-.174-.147a4.8 4.8 0 0 1-.782-.9l-.113-.167H6.271c-2.66-.001-2.489.012-2.667-.203a.654.654 0 0 1 .067-.869c.145-.13.104-.128 2.358-.128h2.11l-.015-.06a4 4 0 0 1-.108-1.033c-.001-.726.106-1.236.402-1.913.011-.027-.666-.033-3.342-.032-3.083.001-3.37.005-3.531.047m11.462 2.065L13 5.507h-.773L12.22 4.06a47 47 0 0 0-.019-1.447c-.007 0-.193.114-.413.254-.22.139-.407.253-.414.253s-.014-.155-.014-.343v-.344l.447-.282.446-.283.381-.001h.38zM8.96 9.493a.66.66 0 0 1 .352.303c.066.128.078.416.022.525a.7.7 0 0 1-.276.299l-.111.06-2.44.008c-1.777.006-2.479 0-2.583-.022-.377-.082-.569-.512-.388-.874a.54.54 0 0 1 .328-.289c.12-.043 4.943-.053 5.096-.01"/></svg>