<svg xmlns="http://www.w3.org/2000/svg" viewBox="0 0 16 16" fill="currentColor"><path fill-rule="evenodd" d="M2.813.525a1.8 1.8 0 0 0-.902.517 1.95 1.95 0 0 0-.378.758c-.058.28-.059 12.12 0 12.397a1.69 1.69 0 0 0 1.094 1.21l.213.073h5.093c4.869 0 5.101-.002 5.253-.049.329-.102.642-.313.836-.563.136-.176.28-.478.322-.676.021-.101.029-1.53.029-4.979V4.375l-1.593-.008-1.593-.007-.147-.07a1.06 1.06 0 0 1-.587-.767c-.015-.085-.026-.73-.026-1.58V.507L6.647.51a293 293 0 0 0-3.834.015m8.494 1.55c0 1.204.003 1.31.046 1.363.047.056.047.056 1.398.049l1.352-.007-1.374-1.347A88 88 0 0 0 11.331.778c-.015-.006-.024.512-.024 1.297M8.92 3.312c.44.162.839.323.887.359a.6.6 0 0 1 .142.174c.054.105.055.138.045.992-.011.851-.014.892-.082 1.145a3.8 3.8 0 0 1-.448.981c-.162.24-.509.581-.743.732C8.469 7.858 8.132 8 8 8s-.469-.143-.721-.306a3.2 3.2 0 0 1-.744-.731 3.8 3.8 0 0 1-.447-.981c-.068-.253-.071-.294-.082-1.145-.01-.854-.009-.887.045-.992a.6.6 0 0 1 .142-.174c.079-.059 1.521-.613 1.714-.659.118-.028.144-.02 1.013.3M8.267 5.24c-.287.286-.534.52-.548.52s-.128-.102-.252-.227c-.192-.192-.239-.226-.313-.226a.186.186 0 0 0-.194.192c0 .074.045.13.328.413.466.466.378.487 1.145-.279.57-.571.607-.614.607-.705 0-.108-.094-.208-.195-.208-.036 0-.238.182-.578.52m2.865 3.883c.222.062.375.318.312.527a.5.5 0 0 1-.226.291c-.079.043-.302.046-3.298.046s-3.219-.003-3.298-.046a.447.447 0 0 1-.121-.69c.146-.162-.006-.155 3.406-.156 2.186-.001 3.151.007 3.225.028m-1.091 1.78a.5.5 0 0 1 .266.298.48.48 0 0 1-.207.479c-.085.052-.139.053-2.736.053-2.921 0-2.764.009-2.887-.164a.433.433 0 0 1 .174-.665c.104-.047.235-.049 2.696-.049 2.452 0 2.592.002 2.694.048m.691 1.801a.43.43 0 0 1 .109.605c-.129.197.089.184-3.186.184-2.869 0-2.94-.001-3.04-.052a.43.43 0 0 1-.216-.479.44.44 0 0 1 .252-.298c.104-.048.231-.05 3.044-.044l2.936.007z"/></svg>