<svg xmlns="http://www.w3.org/2000/svg" viewBox="0 0 16 16" fill="currentColor"><path d="m1.453 2.689-1.274.713c-.039.023.022.065.369.258l.415.231 1.205-.669a180 180 0 0 0 1.28-.714l.076-.046-.417-.231c-.229-.127-.419-.23-.422-.229zm6.267-.171a.7.7 0 0 0-.155.105c-.162.153-.152-.229-.152 5.508 0 3.646.009 5.275.029 5.327a.56.56 0 0 0 .278.278c.102.047.267.05 3.981.05 3.437.001 3.885-.004 3.973-.041a.5.5 0 0 0 .276-.265c.047-.103.049-.309.049-5.352.001-3.642-.008-5.267-.027-5.32a.6.6 0 0 0-.271-.277c-.096-.05-.213-.051-4-.05-3.186.001-3.916.008-3.981.037m-5.28.838-1.333.742-.007.344-.007.345.213.114.214.115v-.305c0-.252.008-.315.047-.36.025-.03.58-.35 1.233-.712.653-.361 1.239-.687 1.303-.724l.117-.068-.21-.116a3 3 0 0 0-.223-.116c-.008 0-.614.333-1.347.741m.8.327-1.263.702c-.06.032-.045.044.326.25l.39.217L3.9 4.183c.664-.368 1.24-.69 1.28-.714l.074-.046-.37-.205a3.4 3.4 0 0 0-.407-.204c-.02 0-.577.301-1.237.669m11.826-.407a.7.7 0 0 1 .173.149l.081.1v1.826l-.066.096a.6.6 0 0 1-.174.158l-.107.062H8.44l-.124-.073a.43.43 0 0 1-.18-.189c-.053-.109-.056-.157-.056-.958 0-.531.011-.871.028-.919a.56.56 0 0 1 .252-.264c.065-.029.677-.035 3.347-.036 3.132-.001 3.271.001 3.359.048M0 5.071l.001 1.422 1.262.7c.695.385 1.27.7 1.28.7s.014-.638.011-1.419l-.007-1.42-.374-.206-.373-.207-.013.334c-.014.34-.029.383-.13.385-.048 0-.722-.372-.783-.433-.041-.041-.047-.1-.048-.44l-.001-.394-.388-.213c-.214-.117-.4-.217-.413-.222C.01 3.653 0 4.247 0 5.071m4.093-.713-1.253.7-.007 1.418c-.004.779.001 1.417.011 1.417s.585-.315 1.279-.7l1.263-.7v-1.42c0-.781-.008-1.419-.019-1.417-.011.001-.584.317-1.274.702m1.56 1.031v.269l.087-.052.243-.139.155-.087-.232-.13a4 4 0 0 0-.243-.13c-.005 0-.01.121-.01.269m.301.379-.299.165-.001.324c-.001.27-.008.333-.047.377-.026.029-.464.283-.974.565l-.926.512V8.79c0 .594.009 1.075.02 1.068l1.28-.71 1.26-.699V7.024c0-.783-.003-1.423-.007-1.423zm3.907.933c.178.097.192.154.192.766 0 .495-.005.554-.052.632-.105.172-.139.18-.76.189-.63.008-.691-.005-.807-.179-.058-.086-.061-.113-.061-.634 0-.66.016-.708.26-.798.075-.027.231-.035.62-.03.442.005.533.014.608.054m2.502.007c.177.133.183.153.192.722.008.485.004.528-.048.637a.33.33 0 0 1-.17.171c-.103.05-.163.055-.635.055-.49 0-.527-.003-.635-.06-.197-.105-.214-.164-.214-.766.001-.483.005-.527.057-.613.12-.197.183-.212.841-.206.498.005.544.009.612.06m2.485-.007c.177.097.192.155.192.76 0 .599-.01.646-.166.757-.083.059-.112.062-.621.071-.611.01-.693-.005-.812-.149l-.081-.099V6.88l.105-.105a.45.45 0 0 1 .18-.117c.041-.006.309-.01.595-.008.446.003.533.01.608.051m-6.193.248c-.059.058-.062.96-.004 1.039.035.048.074.052.562.052s.527-.004.562-.052c.059-.079.055-.981-.004-1.039-.035-.036-.124-.042-.558-.042-.433 0-.523.006-.558.042m2.488.002c-.028.034-.036.156-.036.522 0 .623-.044.58.597.58.383 0 .482-.007.53-.041.058-.041.059-.055.059-.542 0-.353-.009-.509-.032-.531-.022-.023-.184-.032-.556-.032-.456 0-.53.005-.562.044m2.485.007c-.045.084-.036.967.01 1.03.034.047.079.053.497.06.253.005.488.002.521-.006.137-.035.144-.064.144-.573 0-.425-.005-.479-.049-.518-.042-.038-.122-.044-.572-.044-.491 0-.526.003-.551.051M.88 7.862v.581l1.273.708 1.274.707.007-.504c.004-.277.004-.725 0-.995l-.007-.49-.368.202-.367.202-.894-.497a45 45 0 0 0-.906-.496c-.007 0-.012.262-.012.582m.22 1.287a1.4 1.4 0 0 0-.246.153c.001.022.77.445.81.445.036 0 .522-.261.522-.28 0-.017-.789-.454-.818-.453-.012 0-.132.061-.268.135m8.787-.034c.156.112.166.158.166.757 0 .496-.004.549-.054.63-.099.163-.21.19-.786.19-.575 0-.686-.027-.786-.19-.049-.081-.053-.134-.054-.63 0-.568.011-.627.128-.734.093-.083.192-.095.752-.09.526.005.55.008.634.067m2.45-.02c.083.04.128.086.17.172.052.109.056.152.048.636-.009.569-.015.589-.192.722-.068.051-.117.056-.62.063-.507.008-.555.004-.66-.046a.4.4 0 0 1-.171-.159c-.055-.097-.059-.138-.059-.62 0-.598.017-.658.214-.762.108-.057.145-.061.635-.061.472 0 .532.005.635.055m2.482-.003c.066.03.136.089.167.14.053.086.054.13.054 1.835 0 1.685-.002 1.749-.052 1.832-.1.162-.169.18-.753.19-.479.008-.536.004-.646-.045a.4.4 0 0 1-.175-.142c-.053-.087-.054-.129-.054-1.854V9.282l.083-.094a.45.45 0 0 1 .166-.119c.047-.013.312-.025.591-.026.445-.002.52.004.619.049m-10.232.575c-.536.299-.989.544-1.008.545a1 1 0 0 1-.222-.105A2 2 0 0 0 3.155 10c-.023 0-.515.28-.515.293 0 .008.17.108.377.223l.377.21.096-.054 1.163-.645c.587-.325 1.12-.622 1.184-.659l.118-.068-.158-.09a.7.7 0 0 0-.197-.088c-.022.001-.478.246-1.013.545m4.054-.309c-.032.06-.038.958-.007 1.007.043.067.184.088.579.088.396 0 .537-.021.579-.088.031-.049.025-.947-.006-1.007-.026-.048-.061-.051-.573-.051-.511 0-.546.003-.572.051m2.502-.007c-.028.034-.036.155-.036.519 0 .42.005.48.047.522s.104.048.55.048c.385 0 .511-.008.545-.037.038-.031.044-.103.044-.534 0-.352-.009-.508-.032-.53-.022-.023-.184-.032-.556-.032-.456 0-.53.005-.562.044m2.485.007c-.019.034-.028.621-.028 1.718 0 1.48.005 1.672.042 1.709.035.035.124.042.558.042.504 0 .518-.002.558-.06.037-.052.042-.259.042-1.718 0-1.472-.005-1.663-.042-1.7-.035-.036-.126-.042-.572-.042-.497 0-.533.003-.558.051M.693 10.939v1.424l1.269.705c.698.388 1.28.709 1.293.714.015.006.025-.552.025-1.406v-1.415l-.06-.039c-.033-.021-.21-.122-.393-.225l-.334-.186-.007.323c-.004.182-.02.338-.037.358-.053.064-.14.035-.516-.173l-.373-.206-.007-.414-.008-.413-.246-.137-.426-.235-.18-.099zm4.1-.703-1.273.708v2.844l.085-.044c.183-.094 2.436-1.35 2.455-1.368.011-.011.017-.655.014-1.433l-.007-1.414zm-2.669-.44-.337.188v.671l.193.106c.106.058.208.11.227.114.025.007.033-.071.033-.324v-.334l.322-.178c.177-.098.312-.188.3-.199a3 3 0 0 0-.211-.126l-.189-.106zm7.715 1.691a.5.5 0 0 1 .154.137c.058.087.06.113.06.64 0 .504-.004.557-.054.638-.099.163-.21.19-.786.19-.575 0-.686-.027-.786-.19-.049-.081-.053-.134-.054-.646v-.558l.07-.092c.116-.151.176-.164.77-.165.456-.001.547.006.626.046m2.5.009a.34.34 0 0 1 .17.162c.05.098.053.147.046.635-.009.58-.014.599-.192.732-.069.052-.109.055-.656.055-.649 0-.659-.003-.794-.2-.057-.084-.06-.112-.06-.611 0-.609.017-.668.215-.769.109-.056.15-.06.636-.06.473 0 .529.005.635.056m-3.619.202c-.096.036-.107.091-.107.572 0 .394.007.48.042.515s.124.042.556.042c.464 0 .518-.005.558-.049.038-.042.044-.119.044-.515 0-.36-.008-.478-.037-.518-.035-.048-.077-.052-.527-.057a5 5 0 0 0-.529.01m2.486.009c-.099.041-.117.141-.108.602.006.315.018.441.045.474.032.038.106.044.562.044.372 0 .534-.01.556-.032.023-.023.032-.179.032-.53 0-.431-.006-.503-.044-.535-.053-.044-.945-.064-1.043-.023"/></svg>