<svg xmlns="http://www.w3.org/2000/svg" viewBox="0 0 16 16" fill="currentColor"><path d="M4.52 1.063a.38.38 0 0 0-.197.257c-.04.147-.042 13.154-.002 13.341.02.092.056.158.122.222l.093.09h6.926l.072-.066a.7.7 0 0 0 .115-.147c.041-.074.044-.594.044-6.76V1.32l-.054-.093a.6.6 0 0 0-.144-.154l-.09-.06H8.003c-3.266.001-3.406.003-3.483.05m-2.16 1.96c-.616.223-1.154.428-1.195.455q-.151.102-.152.318c0 .089.29.907 1.2 3.386a578 578 0 0 0 1.237 3.356c.034.078.039-.399.041-3.918.001-2.204-.001-4.006-.004-4.005zm10.147 3.608c0 2.195.004 3.986.01 3.98s.566-1.522 1.243-3.369c1.112-3.03 1.231-3.37 1.221-3.482a.38.38 0 0 0-.181-.302c-.075-.044-2.215-.818-2.263-.818-.023 0-.03 1.015-.03 3.991M8.108 2.789a.6.6 0 0 1 .28.181c.183.187.206.28.195.782-.009.39-.012.402-.09.53a.8.8 0 0 1-.218.222l-.137.09.189.256.37.502.181.245.235-.239c.223-.226.241-.238.35-.238.158 0 .27.109.27.262 0 .097-.022.13-.253.382a4 4 0 0 0-.253.29c0 .008.114.169.253.359.217.295.253.359.253.448 0 .205-.251.336-.419.218a2.5 2.5 0 0 1-.263-.32 2.5 2.5 0 0 0-.222-.279c-.009 0-.13.124-.269.276-.306.334-.366.376-.516.355-.137-.018-.231-.116-.231-.242 0-.107.06-.189.418-.569l.271-.288-.506-.686-.506-.686H6.8v.583c0 .577-.001.583-.064.651a.284.284 0 0 1-.335.06c-.161-.083-.161-.086-.161-1.588 0-1.487-.001-1.473.154-1.558.111-.06 1.509-.059 1.714.001m-1.296.526a3 3 0 0 0-.006.406l.007.372.534.007c.39.005.551-.003.6-.028.065-.033.067-.042.074-.363.01-.459.056-.429-.639-.429-.432 0-.56.008-.57.035m3.05 5.192a.4.4 0 0 1 .143.177c.089.202.033.375-.165.509l-.088.06H8.42c-1.174 0-1.343-.005-1.423-.043-.272-.129-.295-.526-.04-.696l.091-.061h1.363c1.32.001 1.365.002 1.451.054m-.006 1.641c.137.102.184.191.183.342a.38.38 0 0 1-.236.366c-.103.047-.209.049-1.803.049s-1.7-.002-1.803-.049c-.252-.115-.324-.412-.151-.619.136-.161.072-.156 1.985-.15 1.723.006 1.753.007 1.825.061m-.813 1.646c.179.12.232.347.123.537-.121.21-.072.204-1.606.196-1.312-.007-1.363-.009-1.433-.06a.55.55 0 0 1-.18-.343c0-.109.097-.279.194-.338.082-.05.143-.052 1.448-.053h1.363z"/></svg>