<svg xmlns="http://www.w3.org/2000/svg" viewBox="0 0 16 16" fill="currentColor"><path d="M2.173 1.066a.45.45 0 0 0-.126.14C2.003 1.288 2 1.663 2 7.996c0 7.465-.017 6.819.183 6.944l.097.06 2.473.007 2.474.007v-4.361c0-4.705-.007-4.471.132-4.546.034-.018.823-.027 2.346-.027H12V3.691c0-2.647.009-2.512-.173-2.624-.086-.053-.121-.054-4.83-.053-4.678 0-4.745 0-4.824.052M5.142 2.28a1.54 1.54 0 0 1 1.204 1.485c.001.418-.143.758-.45 1.063-.233.23-.439.349-.739.426A1.594 1.594 0 0 1 3.21 4.086a1.64 1.64 0 0 1 .043-.796 1.62 1.62 0 0 1 1.115-1.009c.203-.049.566-.049.774-.001m4.478 0c.364.086.768.371.969.683.383.598.29 1.369-.228 1.88a1.58 1.58 0 0 1-1.518.411 1.5 1.5 0 0 1-.739-.426 1.46 1.46 0 0 1-.41-1.409c.129-.548.587-1 1.152-1.137.205-.05.568-.051.774-.002m-5.077.814a.82.82 0 0 0-.42.347.5.5 0 0 0-.082.332c.001.225.058.351.234.513a.78.78 0 0 0 .485.194.8.8 0 0 0 .658-.409c.228-.446-.095-.968-.615-.994a1 1 0 0 0-.26.017m4.467.009c-.236.085-.388.229-.463.442-.15.425.146.87.617.926.441.052.858-.358.799-.787-.059-.431-.544-.727-.953-.581m-3.827 3.42A1.56 1.56 0 0 1 6.347 8a1.55 1.55 0 0 1-.814 1.339 1.46 1.46 0 0 1-.773.192c-.448 0-.823-.154-1.137-.466a1.493 1.493 0 0 1 .003-2.131c.411-.406.971-.553 1.557-.411m2.548.052-.064.069-.008 4.045c-.006 2.902 0 4.073.021 4.146.055.189-.099.18 2.869.172L13.205 15l.064-.075.064-.075V6.638l-.065-.066-.066-.065H7.796zm1.882.765a.94.94 0 0 1 .413 1.265c-.331.673-1.244.675-1.59.003-.103-.2-.12-.554-.038-.772a.94.94 0 0 1 .571-.546c.175-.057.483-.033.644.05m2.541.003c.18.092.331.248.425.439.065.132.074.183.074.392 0 .218-.008.257-.087.418a.879.879 0 0 1-1.596.016 1.13 1.13 0 0 1-.052-.732c.053-.158.192-.352.323-.452a.91.91 0 0 1 .913-.081m-7.722.033c-.234.116-.405.38-.405.624 0 .14.08.34.185.459.334.38.968.3 1.21-.152.081-.151.08-.463-.001-.616a.83.83 0 0 0-.366-.334.82.82 0 0 0-.623.019m4.614.428q-.196.097-.214.354c-.008.123.001.165.052.24.104.151.195.202.355.201a.38.38 0 0 0 .375-.264c.137-.357-.229-.698-.568-.531m2.533 0q-.196.097-.213.354c-.009.123 0 .165.052.24.102.149.195.202.351.202q.261 0 .37-.247c.16-.362-.208-.722-.56-.549M9.501 9.867a.88.88 0 0 1 .531.474c.079.159.088.202.088.405a.86.86 0 0 1-.291.689.872.872 0 0 1-1.391-.254c-.066-.131-.079-.192-.087-.404-.009-.242-.007-.255.087-.445.209-.423.62-.602 1.063-.465m2.612.023c.175.075.357.252.455.442.076.147.084.184.085.415 0 .224-.008.27-.074.404a.97.97 0 0 1-.446.446 1 1 0 0 1-.726.011 1.1 1.1 0 0 1-.448-.448c-.057-.116-.065-.17-.065-.413-.001-.255.006-.293.074-.421.228-.434.717-.619 1.145-.436m-3.034.468a.5.5 0 0 0-.242.272.54.54 0 0 0 .079.394.42.42 0 0 0 .548.076.6.6 0 0 0 .189-.353.5.5 0 0 0-.226-.366.36.36 0 0 0-.348-.023m2.548-.009c-.422.177-.308.824.145.824.393 0 .554-.541.229-.772a.45.45 0 0 0-.374-.052m-6.52.384c.584.123 1.094.621 1.21 1.182.164.79-.331 1.578-1.124 1.792a1.83 1.83 0 0 1-.953-.025 1.62 1.62 0 0 1-.987-.972 1.5 1.5 0 0 1 .384-1.55 1.59 1.59 0 0 1 1.47-.427m-.507.81c-.326.085-.573.386-.573.697a.724.724 0 0 0 .699.688c.163.011.198.004.353-.072.469-.231.554-.79.173-1.134a1 1 0 0 0-.2-.137.96.96 0 0 0-.452-.042m5.023.934c.165.086.343.275.425.451.06.129.071.189.072.392 0 .212-.009.259-.078.4-.272.553-.95.703-1.383.307a.93.93 0 0 1-.307-.861.92.92 0 0 1 .528-.699c.131-.062.172-.069.387-.06.183.008.267.024.356.07m2.558.016a.93.93 0 0 1 .402.437c.06.127.07.186.07.39 0 .207-.01.262-.075.4a.88.88 0 0 1-1.457.236.86.86 0 0 1-.241-.636c0-.374.193-.688.519-.846.148-.071.18-.076.401-.068.204.008.261.021.381.087m-3.161.467a.4.4 0 0 0-.193.36c0 .39.444.567.702.281.246-.272.072-.694-.286-.694a.43.43 0 0 0-.223.053m2.524.007q-.196.13-.177.387a.401.401 0 0 0 .767.151.5.5 0 0 0 .053-.185.52.52 0 0 0-.199-.359.45.45 0 0 0-.444.006"/></svg>