<svg xmlns="http://www.w3.org/2000/svg" viewBox="0 0 16 16" fill="currentColor"><path d="M1.052 1.051c-.051.037-.052.14-.059 6.663l-.007 6.625.056.071.055.07h5.061c4.885 0 5.064.002 5.125.049.113.088.541.369.648.426.094.051.112.052.194.018.117-.049.522-.321.808-.543.878-.681 1.523-1.575 1.852-2.566.114-.344.203-.712.207-.851.002-.082-.661-1.645-.73-1.723-.043-.047-.091-.058-.323-.071-.417-.022-1.296-.212-1.626-.351l-.1-.042V4.964c0-3.708-.002-3.864-.048-3.907-.045-.04-.469-.044-5.555-.044-4.714 0-5.514.006-5.558.038m3.615 1.136c.041.041.053.089.053.209v.157l.134.015c.178.022.283.088.347.22.104.216.044.445-.118.445-.103 0-.153-.06-.169-.204L4.9 2.907h-.767v.56h.401c.35 0 .415.007.507.053.174.089.212.2.212.606 0 .303-.007.352-.061.447a.4.4 0 0 1-.359.2H4.72v.154c0 .189-.05.273-.162.273-.128 0-.185-.081-.185-.267v-.16h-.14c-.268 0-.419-.16-.42-.446 0-.146.008-.171.064-.208.077-.05.192-.029.23.042a.4.4 0 0 1 .026.157v.109h.774v-.614h-.394c-.445 0-.533-.025-.639-.184-.055-.082-.061-.121-.061-.434 0-.382.022-.456.161-.556a.5.5 0 0 1 .24-.072l.159-.014v-.14c0-.237.16-.36.294-.226m2.154-.012c.05.035.059.066.059.209v.169l.146.015q.387.039.387.426c0 .167-.043.239-.143.239-.113 0-.177-.076-.177-.21v-.116H6.32v.56h.393c.445 0 .534.025.64.184.056.083.06.12.06.466 0 .328-.007.387-.053.463a.4.4 0 0 1-.353.193H6.88v.165c0 .186-.045.262-.155.262-.121 0-.165-.069-.165-.257v-.17h-.14c-.273 0-.445-.172-.446-.444-.001-.118.01-.147.07-.194.091-.071.131-.069.211.01.047.048.065.095.065.174v.108h.773v-.614h-.391c-.478 0-.583-.035-.676-.228-.051-.104-.056-.154-.048-.436.007-.272.017-.329.064-.392.095-.128.181-.174.354-.19l.164-.014v-.157c0-.229.113-.325.261-.221m2.192.012c.042.041.054.089.054.209v.157l.134.015c.256.031.399.187.399.438q-.001.226-.172.227c-.102 0-.145-.051-.164-.196l-.018-.13H8.48v.56h.407c.468 0 .551.025.653.202.053.093.059.141.06.451 0 .288-.008.363-.049.44-.073.135-.167.194-.337.208l-.147.012v.151q.001.27-.157.269c-.132 0-.173-.055-.185-.25l-.011-.177H8.59a.43.43 0 0 1-.369-.184c-.047-.07-.061-.128-.061-.259 0-.149.008-.174.064-.211.076-.05.192-.029.23.042a.4.4 0 0 1 .026.157v.109h.773v-.614H8.86c-.445 0-.534-.025-.639-.184-.056-.082-.061-.121-.061-.44 0-.303.007-.361.054-.437.065-.107.237-.191.393-.191l.113-.001v-.143c0-.24.159-.365.293-.23m1.285 3.91a.2.2 0 0 1 .049.132c0 .184.275.171-3.741.171H2.984l-.065-.065q-.12-.12-.012-.228c.052-.053.089-.054 3.698-.054 3.353 0 3.648.004 3.693.044m.007 1.092c.052.052.054.171.004.239-.037.051-.109.052-3.66.058-2.874.006-3.636 0-3.689-.027-.095-.049-.127-.157-.07-.244l.045-.068h3.664c3.295 0 3.668.004 3.706.042m.01 1.083c.045.046.039.197-.01.246-.038.038-.411.042-3.705.042H2.936l-.041-.059a.23.23 0 0 1-.042-.101.23.23 0 0 1 .042-.101l.041-.059H6.61c2.821 0 3.68.007 3.705.032m2.218 1.026c.364.108.841.207 1.226.256l.28.035.306.714.306.715-.047.231c-.219 1.076-.888 2.123-1.844 2.883-.268.213-.667.481-.715.481-.02 0-.161-.085-.314-.19-1.176-.805-1.928-1.853-2.223-3.097l-.062-.261.311-.725.312-.725.345-.049c.514-.071 1.319-.281 1.559-.406.056-.03.082-.028.16.006.052.023.231.083.4.132m-3.328.053c.065.059.061.176-.008.238-.054.049-.149.051-3.113.057-2.421.006-3.071 0-3.124-.027-.095-.049-.127-.157-.07-.244l.045-.068h3.11c2.857 0 3.115.003 3.16.044m2.223.842c-.033.047-.041.138-.041.44v.38l-.38.001c-.209 0-.394.009-.41.02-.077.051-.09.149-.09.646s.013.595.09.646c.016.011.201.02.41.02l.38.001v.383c0 .546-.047.51.663.51.503 0 .566-.005.609-.048.041-.04.049-.106.056-.446l.009-.399h.38c.517 0 .483.048.483-.667s.034-.667-.483-.667h-.38l-.009-.402c-.007-.362-.014-.406-.06-.44-.041-.03-.172-.038-.619-.038-.555 0-.567.002-.608.06m-2.228.26a.184.184 0 0 1 .009.245c-.042.047-.174.049-3.14.048-1.703 0-3.109-.009-3.125-.02a.3.3 0 0 1-.091-.165c0-.017.03-.06.066-.096l.065-.065h3.081c3.046 0 3.082.001 3.135.053m-3.089 1.084c.065.059.062.183-.004.25-.052.052-.089.053-1.574.053-1.484 0-1.521-.001-1.573-.053a.184.184 0 0 1-.009-.245c.042-.046.126-.049 1.578-.049 1.389 0 1.538.004 1.582.044m0 1.094c.098.088.044.256-.093.29-.032.008-.728.011-1.547.007-1.438-.008-1.49-.01-1.526-.06a.19.19 0 0 1 .006-.233c.042-.046.126-.048 1.578-.048 1.389 0 1.538.004 1.582.044"/></svg>