<svg xmlns="http://www.w3.org/2000/svg" viewBox="0 0 16 16" fill="currentColor"><path fill-rule="evenodd" d="M1.689 1.051c-.062.02-.154.062-.205.093a1.3 1.3 0 0 0-.422.503L1 1.8v4.4l.064.16c.089.221.355.487.576.576L1.8 7h4.4l.16-.064a1 1 0 0 0 .336-.24 1 1 0 0 0 .24-.336L7 6.2V1.8l-.062-.154a1.2 1.2 0 0 0-.507-.545l-.151-.074-2.24-.006c-1.79-.004-2.262.002-2.351.03m8.004-.001a1.1 1.1 0 0 0-.601.537l-.065.133v4.56l.076.151c.095.187.278.369.47.467l.147.075h4.56l.151-.076c.187-.095.369-.278.467-.47l.075-.147V1.72l-.075-.147a1.14 1.14 0 0 0-.467-.47l-.151-.076-2.24-.006c-1.748-.004-2.263.003-2.347.029m-8 8a1.1 1.1 0 0 0-.601.537l-.065.133v4.56l.076.151c.095.187.278.369.47.467l.147.075h4.56l.151-.076c.187-.095.369-.278.467-.47l.075-.147V9.72l-.076-.151a1.14 1.14 0 0 0-.47-.467l-.147-.075-2.24-.006c-1.748-.004-2.263.003-2.347.029m8 0a1.1 1.1 0 0 0-.601.537l-.065.133v4.56l.076.151c.095.187.278.369.47.467l.147.075h4.56l.151-.076c.187-.095.369-.278.467-.47l.075-.147V9.72l-.075-.147a1.14 1.14 0 0 0-.467-.47l-.151-.076-2.24-.006c-1.748-.004-2.263.003-2.347.029"/></svg>