<svg xmlns="http://www.w3.org/2000/svg" viewBox="0 0 16 16" fill="currentColor"><path fill-rule="evenodd" d="M6.972 1.063c-.126.077-.168.165-.256.544-.046.194-.096.366-.113.382a1.3 1.3 0 0 1-.256.09c-.456.125-.922.323-1.48.629l-.134.073-.326-.193c-.36-.213-.478-.247-.625-.177-.051.024-.382.335-.735.69-.813.817-.791.754-.446 1.328.095.157.172.295.172.306s-.063.135-.141.276c-.254.457-.492 1.052-.58 1.449-.021.096-.049.157-.076.164-.024.007-.197.049-.385.094-.36.086-.473.143-.538.269-.059.114-.059 1.912 0 2.026.065.126.178.183.538.269.188.045.361.087.385.094.027.007.055.068.076.164.04.179.231.724.334.951l.071.159.96-.961.96-.96-.032-.278c-.042-.361-.017-.951.052-1.251.168-.72.479-1.28 1.001-1.801.331-.329.581-.511.967-.703a3.55 3.55 0 0 1 1.648-.379q1.552 0 2.638 1.124A3.56 3.56 0 0 1 11.68 8c0 .614-.117 1.115-.389 1.667-.182.37-.414.679-.75 1.001a3.53 3.53 0 0 1-1.792.935c-.33.067-1.013.095-1.281.053l-.199-.032-.959.96-.96.959.159.071c.227.103.772.294.951.334.095.021.157.05.165.076.007.024.049.197.094.385.045.19.106.377.136.42.111.156.121.158 1.15.158 1.207-.001 1.128.036 1.284-.6.05-.206.107-.381.128-.392.02-.01.15-.051.29-.091.464-.13.936-.333 1.454-.625l.108-.061.319.189c.562.335.495.358 1.325-.468.689-.687.735-.746.705-.93-.012-.074-.169-.371-.373-.705-.02-.032.011-.109.126-.313.205-.365.398-.824.512-1.214.052-.178.103-.341.114-.362.012-.022.172-.075.39-.127.403-.097.469-.128.548-.256.048-.08.051-.141.051-1.032 0-1.213.036-1.135-.599-1.288-.218-.052-.378-.105-.39-.127a5 5 0 0 1-.114-.362 6.2 6.2 0 0 0-.512-1.214c-.115-.204-.146-.281-.126-.313l.189-.323c.302-.52.324-.464-.495-1.286-.688-.691-.746-.735-.933-.704-.052.008-.235.099-.408.203a4 4 0 0 1-.332.187c-.01 0-.137-.066-.281-.148a6.2 6.2 0 0 0-1.204-.506 5 5 0 0 1-.364-.115c-.021-.01-.077-.184-.128-.391-.1-.406-.129-.47-.257-.548-.08-.048-.141-.051-1.032-.051-.875 0-.953.003-1.028.049m.535 3.694a3.4 3.4 0 0 0-1.829.921c-.31.31-.632.82-.766 1.215-.233.687-.248 1.448-.041 2.077l.042.131-2.04 2.029C.657 13.336.72 13.264.628 13.656c-.117.495.014.96.371 1.318.205.206.426.331.684.387.192.042.582.021.757-.04.326-.114.384-.167 2.456-2.234l2.003-1.998.177.054c.611.189 1.37.171 2.044-.05 1.062-.347 1.87-1.296 2.094-2.46.112-.585.05-1.406-.125-1.653a.5.5 0 0 0-.355-.18c-.189 0-.278.068-.933.717-.578.573-.656.641-.795.693a1.04 1.04 0 0 1-.678 0 1.05 1.05 0 0 1-.54-.543.76.76 0 0 1-.049-.374c.019-.354.047-.396.753-1.106.342-.345.643-.668.668-.718a.467.467 0 0 0-.205-.596c-.259-.122-1.037-.184-1.448-.116"/></svg>