<svg xmlns="http://www.w3.org/2000/svg" viewBox="0 0 16 16" fill="currentColor"><path fill-rule="evenodd" d="M4.064.051a.6.6 0 0 0-.187.151L3.8.303v15.394l.077.102a.6.6 0 0 0 .191.151c.111.049.236.05 3.981.044l3.866-.007.103-.082a.7.7 0 0 0 .149-.174c.044-.086.046-.51.046-7.731S12.211.355 12.167.269a.7.7 0 0 0-.149-.174l-.103-.082L8.044.007C4.308.001 4.17.003 4.064.051M1.56 2.308c-.66.24-1.248.461-1.307.491a.6.6 0 0 0-.17.148c-.142.208-.222-.045 1.33 4.186a710 710 0 0 0 1.43 3.878c.006.006.01-2.049.01-4.567 0-4.343-.002-4.577-.046-4.574a34 34 0 0 0-1.247.438m11.613 4.095c0 2.496.005 4.534.011 4.528a859 859 0 0 0 2.798-7.643.33.33 0 0 0-.018-.229c-.085-.222-.101-.23-1.436-.712a143 143 0 0 0-1.295-.465l-.06-.019zm-3.128-3.495a.54.54 0 0 1 .265.258c.03.069.037.371.037 1.585 0 1.467-.002 1.501-.056 1.614a.43.43 0 0 1-.18.189l-.124.073h-1.96c-1.078 0-1.993-.01-2.033-.021a.62.62 0 0 1-.305-.278c-.028-.069-.036-.384-.036-1.568 0-1.597 0-1.589.142-1.743.127-.138.076-.135 2.197-.136 1.335-.001 2.002.008 2.053.027M6.587 4.747v.933h2.826V3.813H6.587zm3.458 3.788a.49.49 0 0 1 .302.439.55.55 0 0 1-.152.338c-.14.127-.154.128-1.732.128-1.46 0-1.488-.001-1.603-.057a.5.5 0 0 1-.259-.334c-.038-.182.092-.43.264-.505.106-.046 3.06-.054 3.18-.009m.002 1.879a.43.43 0 0 1 .249.232.464.464 0 0 1-.251.632c-.051.019-.719.029-2.048.029-2.157 0-2.08.005-2.218-.158a.453.453 0 0 1 .14-.716l.119-.06h1.955c1.699 0 1.968.006 2.054.041m-.855 1.911a.463.463 0 0 1-.032.8l-.107.062h-3.04l-.107-.062c-.223-.128-.308-.38-.203-.598a.52.52 0 0 1 .294-.262c.038-.012.749-.019 1.578-.016l1.509.004z"/></svg>