<svg xmlns="http://www.w3.org/2000/svg" viewBox="0 0 16 16" fill="currentColor"><path fill-rule="evenodd" d="M2.813.525a1.8 1.8 0 0 0-.902.517 1.95 1.95 0 0 0-.378.758c-.058.28-.059 12.12 0 12.397a1.69 1.69 0 0 0 1.094 1.21l.213.073h5.093c4.869 0 5.101-.002 5.253-.049.329-.102.642-.313.836-.563.136-.176.28-.478.322-.676.021-.101.029-1.53.029-4.979V4.375l-1.593-.008-1.593-.007-.147-.07a1.06 1.06 0 0 1-.587-.767c-.015-.085-.026-.73-.026-1.58V.507L6.647.51a293 293 0 0 0-3.834.015m8.494 1.55c0 1.204.003 1.31.046 1.363.047.056.047.056 1.399.049l1.352-.007-1.374-1.347A90 90 0 0 0 11.331.778c-.015-.006-.024.508-.024 1.297m-.153 5.428a.433.433 0 0 1 .16.686c-.14.166.05.158-3.418.158-2.177 0-3.196-.009-3.248-.029-.161-.061-.301-.254-.301-.415 0-.128.102-.297.222-.369l.111-.067h3.194c2.654 0 3.209.006 3.28.036m-1.096 1.783c.23.129.296.429.139.626-.167.209.05.195-2.871.195-2.13 0-2.624-.007-2.694-.036a.54.54 0 0 1-.274-.324.46.46 0 0 1 .225-.467c.094-.049.182-.051 2.733-.052l2.637-.001zm.606 1.756c.121.074.18.15.211.271.052.203-.038.393-.236.494l-.117.06H7.641c-1.865-.001-2.915-.01-2.978-.028a.48.48 0 0 1-.304-.354.46.46 0 0 1 .281-.479c.022-.008 1.366-.016 2.987-.017 2.937-.002 2.947-.002 3.037.053"/></svg>