<svg xmlns="http://www.w3.org/2000/svg" viewBox="0 0 16 16" fill="currentColor"><path d="M6.897 1.054a4.64 4.64 0 0 0-3.236 2.222c-.538.913-.782 2.134-.595 2.975.167.75.612 1.818 1.412 3.389.511 1.003.726 1.401 1.828 3.387.473.85.9 1.623.949 1.717.075.142.11.18.205.222.097.043.13.046.207.02a.36.36 0 0 0 .148-.101c.063-.082 1.653-2.943 2.231-4.016 1.036-1.924 1.762-3.532 2.012-4.456.218-.808.076-1.864-.378-2.8A4.6 4.6 0 0 0 8.471 1.09c-.354-.075-1.215-.094-1.574-.036m1.091 2.587c.584.152 1.043.62 1.187 1.212.053.218.042.645-.022.845a1.7 1.7 0 0 1-1.26 1.145c-.38.08-.859-.012-1.19-.229-.358-.235-.659-.67-.728-1.052a1.76 1.76 0 0 1 .176-1.133 1.75 1.75 0 0 1 1.028-.79c.2-.049.618-.047.809.002"/></svg>