<svg xmlns="http://www.w3.org/2000/svg" viewBox="0 0 16 16" fill="currentColor"><path fill-rule="evenodd" d="M5.473.041a1.5 1.5 0 0 0-.224.081 1.3 1.3 0 0 0-.432.451l-.084.16v6.054l.079.16c.097.198.285.385.488.484l.153.076h6.027l.15-.074c.304-.15.513-.414.58-.734.021-.099.03-.996.03-2.948 0-3.097.006-2.976-.168-3.267a1 1 0 0 0-.461-.397l-.158-.074-.806-.008-.806-.009-.007 1.441-.007 1.44-.078.081c-.152.159-.194.157-.742-.023a6 6 0 0 0-.543-.162 6 6 0 0 0-.53.16c-.421.141-.489.157-.574.134a.36.36 0 0 1-.238-.222c-.019-.05-.029-.544-.029-1.46V0l-.74.002c-.55.001-.776.011-.88.039m2.314 1.091v1.131l.312-.105c.171-.057.337-.105.368-.105s.196.048.368.105l.312.105V0h-1.36zm0 4.335v.346h-1.36V5.12h1.36zM.728 8.519a1.1 1.1 0 0 0-.644.57l-.071.151-.007 2.933C-.001 15.052 0 15.11.053 15.28a1 1 0 0 0 .667.667c.17.053.229.054 3.093.047l2.92-.007.154-.062c.213-.087.424-.287.532-.507l.088-.177V9.213l-.075-.153a1.13 1.13 0 0 0-.482-.481l-.163-.086-.834-.008-.833-.008v1.417c0 1.265-.005 1.426-.044 1.492a.34.34 0 0 1-.268.161c-.042 0-.292-.072-.555-.16l-.479-.161-.48.161c-.265.088-.517.159-.561.159q-.167 0-.272-.157l-.061-.09V8.48l-.78.002c-.566.001-.811.011-.892.037M3.067 9.6c0 .903.006 1.12.034 1.12.02 0 .16-.042.312-.093.153-.052.315-.094.36-.094.046 0 .208.042.36.094.153.051.287.093.299.093s.021-.504.021-1.12V8.48H3.067zm6.146-1.083a1.02 1.02 0 0 0-.637.55l-.083.173v6l.071.15c.133.284.383.494.68.57.142.036.509.04 3.066.034l2.903-.007.179-.085c.227-.108.402-.283.51-.51l.085-.179.007-2.903c.006-2.557.002-2.924-.034-3.066a1.04 1.04 0 0 0-.57-.68l-.15-.071-.819-.008-.82-.008-.007 1.444-.007 1.443-.1.091c-.139.128-.214.121-.774-.066l-.473-.158-.473.158c-.259.087-.513.158-.563.158a.37.37 0 0 1-.299-.18c-.031-.06-.04-.328-.046-1.48l-.007-1.407-.766.002c-.54.001-.797.012-.873.035M11.547 9.6c0 .616.009 1.12.021 1.12s.146-.042.299-.093c.152-.052.32-.094.373-.094s.221.042.373.094c.153.051.281.093.286.093s.008-.504.008-1.12V8.48h-1.36zm-8.48 4.347v.346h-1.36V13.6h1.36zm8.48 0v.346h-1.36V13.6h1.36z"/></svg>