<svg xmlns="http://www.w3.org/2000/svg" viewBox="0 0 16 16" fill="currentColor"><path fill-rule="evenodd" d="M2.271.548c-.572.124-1.07.613-1.217 1.198-.036.139-.041.908-.041 6.254 0 6.762-.014 6.222.18 6.613.138.278.427.566.704.702.375.184.231.177 3.655.178h3.086l-.312-.313a6 6 0 0 1-.492-.567 5.4 5.4 0 0 1-.607-1.195 4.51 4.51 0 0 1 2.265-5.444 4.5 4.5 0 0 1 1.661-.459 4.5 4.5 0 0 1 1.24.073c.427.087 1.065.331 1.387.531l.113.071V4.4h-1.501c-1.595 0-1.659-.004-1.909-.132a1.1 1.1 0 0 1-.438-.475l-.085-.18-.007-1.553L9.945.507 6.193.509C3.115.511 2.41.517 2.271.548m8.582 1.527c0 1.204.004 1.31.047 1.363.047.056.047.056 1.395.049l1.349-.007-1.371-1.347A88 88 0 0 0 10.877.778c-.014-.005-.024.529-.024 1.297M6.221 7.636a.54.54 0 0 1 .274.323c.022.118-.001.215-.081.337-.125.191-.053.184-1.946.184-1.876 0-1.813.005-1.949-.172a.434.434 0 0 1 .154-.652c.112-.055.137-.056 1.788-.056 1.346 0 1.691.007 1.76.036m4.832.889c-.792.099-1.443.423-2.027 1.007-.431.43-.677.824-.854 1.362a3.7 3.7 0 0 0 0 2.212c.164.498.398.888.775 1.289a3.47 3.47 0 0 0 1.653.994c.273.071.384.085.763.097.494.016.822-.023 1.21-.145a3.57 3.57 0 0 0 2.239-2.179 3.75 3.75 0 0 0 0-2.324 3.51 3.51 0 0 0-2.745-2.291 5.6 5.6 0 0 0-1.014-.022m-5.932.896a.48.48 0 0 1 .239.378.5.5 0 0 1-.227.38c-.105.06-.116.06-1.236.061-.992 0-1.14-.005-1.221-.044a.434.434 0 0 1-.01-.776c.117-.059.131-.06 1.229-.06 1.107 0 1.11 0 1.226.061m6.719 1.359v1.073l.72.721.72.72-.24.239-.24.24-.827-.827-.826-.826V9.707h.693zm-6.122.393a.43.43 0 0 1 0 .774c-.104.051-.165.053-1.533.053l-1.425-.001-.106-.06a.435.435 0 0 1 0-.758l.106-.06 1.425-.001c1.368 0 1.429.002 1.533.053"/></svg>