<svg xmlns="http://www.w3.org/2000/svg" viewBox="0 0 16 16" fill="currentColor"><path fill-rule="evenodd" d="M7.653.817C6.454.969 5.498 1.591 4.912 2.6c-.335.577-.478 1.189-.451 1.931.028.739.24 1.516.631 2.309.632 1.282 1.458 2.099 2.394 2.366.308.088.761.081 1.082-.016.885-.267 1.72-1.094 2.319-2.297.644-1.292.823-2.551.51-3.584A3.56 3.56 0 0 0 8.713.878C8.448.824 7.863.79 7.653.817M5.04 8.774c-1.561.275-2.859 1.436-3.322 2.97a4.2 4.2 0 0 0-.168 1.518c.093 1.156.661 1.683 2.023 1.877.308.044.646.048 4.427.048 4.494 0 4.388.003 5.013-.162 1.078-.285 1.535-1.039 1.436-2.367-.144-1.947-1.601-3.56-3.511-3.886-.369-.063-.351-.063-.351-.002 0 .091-.183.414-.356.63-.347.431-1.299 1.307-2.032 1.869L8 11.421l-.199-.152c-.762-.584-1.766-1.514-2.074-1.922-.163-.215-.314-.494-.314-.58 0-.057-.015-.057-.373.007m6.581 2.618c.022.022.032.152.032.413v.382h.382c.261 0 .391.01.413.032.045.044.045.798 0 .842-.022.022-.152.032-.413.032h-.382v.382c0 .261-.01.391-.032.413s-.154.032-.421.032-.399-.01-.421-.032-.032-.152-.032-.413v-.382h-.382c-.261 0-.391-.01-.413-.032-.045-.044-.045-.798 0-.842.022-.022.152-.032.413-.032h.382v-.382c0-.261.01-.391.032-.413s.154-.032.421-.032.399.01.421.032"/></svg>