<svg xmlns="http://www.w3.org/2000/svg" viewBox="0 0 16 16" fill="currentColor"><path fill-rule="evenodd" d="M7.301.375c-.365.035-.531.104-.73.303-.238.238-.267.333-.332 1.105-.03.346-.067.67-.083.719-.098.306-.489.469-.781.324-.06-.029-.318-.229-.575-.443-.577-.482-.668-.53-1.013-.53-.223 0-.272.009-.4.073-.175.087-.367.247-.756.629-.361.356-.677.728-.742.876a.95.95 0 0 0 .018.836c.034.066.244.336.468.6.223.264.423.521.445.572a.6.6 0 0 1-.165.662c-.129.114-.207.131-.895.193-.651.06-.784.09-.967.22-.263.189-.381.416-.419.809a9 9 0 0 0 0 1.351c.037.395.101.552.304.755.238.238.333.267 1.105.332.346.03.67.067.719.083.303.097.467.492.325.781-.03.06-.23.318-.444.575-.447.533-.523.668-.538.95-.021.385.089.579.657 1.163.397.407.77.728.929.798.278.123.57.117.836-.018.066-.034.336-.244.6-.468s.52-.424.57-.444a.6.6 0 0 1 .625.122c.138.128.154.193.222.889.068.707.106.867.246 1.043.194.244.418.355.793.391a9 9 0 0 0 1.37-.001c.379-.038.537-.103.736-.303.238-.238.267-.333.332-1.105.03-.346.067-.67.083-.719.097-.303.492-.467.781-.324.06.029.318.229.575.443.534.446.67.523.95.538.385.021.579-.089 1.163-.657.406-.396.728-.77.798-.928a.97.97 0 0 0-.017-.835c-.035-.067-.245-.338-.469-.602s-.424-.522-.445-.573a.59.59 0 0 1 .165-.661c.125-.111.192-.125.901-.19.65-.06.815-.1.989-.239.244-.194.355-.418.391-.793.06-.612.018-1.516-.081-1.783a1 1 0 0 0-.628-.572 9 9 0 0 0-.727-.082c-.649-.055-.758-.081-.893-.208a.585.585 0 0 1-.123-.657c.029-.06.229-.318.443-.575.482-.577.53-.668.53-1.013 0-.223-.009-.272-.073-.4-.174-.351-1.15-1.322-1.503-1.496-.113-.056-.168-.064-.411-.064-.365 0-.405.022-1.039.558-.411.348-.516.424-.635.458a.52.52 0 0 1-.518-.118c-.171-.154-.183-.198-.252-.91a8 8 0 0 0-.093-.748.97.97 0 0 0-.743-.666C8.692.36 7.638.343 7.301.375M8.83 3.944c1.644.354 2.87 1.584 3.229 3.239.049.229.058.354.058.817 0 .618-.038.86-.212 1.362a4.14 4.14 0 0 1-2.536 2.54c-.518.18-.755.218-1.369.218s-.851-.038-1.369-.218a4.14 4.14 0 0 1-2.536-2.54c-.174-.5-.212-.744-.213-1.362 0-.466.009-.587.059-.816.378-1.735 1.698-2.995 3.435-3.277.343-.056 1.112-.036 1.454.037m-1.225.697A3.41 3.41 0 0 0 4.96 6.52a3.37 3.37 0 0 0 .652 3.868 3.366 3.366 0 0 0 4.776 0c1.59-1.591 1.221-4.23-.748-5.342a3.53 3.53 0 0 0-2.035-.405m.889.332c.988.16 1.829.793 2.269 1.707a3 3 0 0 1 0 2.64c-.906 1.881-3.353 2.339-4.864.91a3.08 3.08 0 0 1-.83-3.144c.072-.243.313-.714.475-.927.166-.22.503-.543.718-.689.217-.147.612-.338.844-.407a3.3 3.3 0 0 1 1.388-.09m-.66.775c-.092.05-.154.168-.154.29 0 .088-.01.1-.153.172-.652.33-.843 1.129-.403 1.686.2.253.443.381.804.427.25.031.337.07.432.194a.43.43 0 0 1-.035.574c-.205.215-.451.202-.69-.037-.163-.163-.272-.198-.42-.137a.36.36 0 0 0-.202.298c0 .175.237.437.527.582.129.065.14.078.14.165 0 .19.136.331.32.331s.32-.141.32-.33c0-.089.01-.099.188-.192.214-.113.389-.291.492-.502.341-.697-.122-1.507-.908-1.586a1.1 1.1 0 0 1-.296-.065.45.45 0 0 1-.156-.674c.093-.122.196-.171.36-.171.166 0 .247.041.392.197.133.142.244.175.39.114a.36.36 0 0 0 .205-.299c0-.175-.213-.413-.511-.572-.145-.077-.156-.09-.156-.176a.324.324 0 0 0-.486-.289"/></svg>