<svg xmlns="http://www.w3.org/2000/svg" viewBox="0 0 16 16" fill="currentColor"><path fill-rule="evenodd" d="M9.522.028A3.97 3.97 0 0 0 6.37 2.414c-.789 1.889-.007 4.044 1.818 5.01.276.145.688.29 1.048.368.39.084 1.138.084 1.529 0a3.8 3.8 0 0 0 1.997-1.084 3.85 3.85 0 0 0 1.097-2.018c.068-.318.068-1.195 0-1.513a4.1 4.1 0 0 0-.597-1.428c-.224-.341-.727-.849-1.051-1.064a4.2 4.2 0 0 0-1.504-.618A5.5 5.5 0 0 0 9.522.028m.639 1.346c.099.051.14.126.158.289l.014.13.214.07c.566.186.912.529 1 .991.035.188.011.304-.085.399-.205.206-.51.087-.559-.218-.03-.192-.134-.33-.33-.439-.267-.148-.253-.174-.253.467v.557l.18.045c.544.137.971.551 1.047 1.016.095.585-.354 1.156-1.052 1.339l-.175.046v.115c0 .233-.145.37-.366.345-.186-.021-.3-.171-.301-.394 0-.063-.018-.074-.214-.131a2 2 0 0 1-.367-.153c-.182-.109-.411-.327-.497-.475a1.2 1.2 0 0 1-.148-.505c0-.192.156-.361.333-.361.163 0 .333.168.333.329 0 .1.065.233.155.318.073.07.322.206.376.206.02 0 .029-.169.029-.559v-.56l-.073-.016a1.77 1.77 0 0 1-.829-.45c-.625-.661-.301-1.595.659-1.898.234-.074.243-.08.245-.157.006-.294.264-.471.506-.346m-.683 1.183c-.218.099-.385.302-.385.468 0 .196.223.421.5.507l.06.018v-.522c0-.4-.007-.521-.033-.521a.7.7 0 0 0-.142.05m.842 2.28c0 .592-.011.57.213.456.365-.184.465-.495.236-.729a1 1 0 0 0-.376-.232l-.073-.018zm4 4.131c-.051.02-.74.41-1.531.868-.79.457-1.447.831-1.46.831s-.022.011-.022.024c0 .054-.32.34-.456.408-.298.15-.349.154-1.751.154s-1.416-.001-1.512-.149a.41.41 0 0 1-.017-.352.4.4 0 0 1 .117-.113c.081-.05.145-.052 1.352-.052.766-.001 1.305-.011 1.363-.027a.65.65 0 0 0 .355-.262c.066-.093.082-.146.09-.292a.48.48 0 0 0-.067-.326.5.5 0 0 0-.221-.233l-.144-.087h-5.18l-.718.495c-.395.273-.735.505-.756.517-.03.017.172.387.929 1.698.532.922.976 1.686.987 1.698.011.011.114-.037.228-.107l.209-.128 1.737-.013 1.736-.013 2.613-1.703c1.685-1.099 2.657-1.748 2.737-1.83.222-.225.26-.507.102-.756-.143-.225-.48-.342-.72-.25M1.793 10.501c-.502.289-.912.536-.913.549 0 .017 2.801 4.894 2.84 4.944.013.017 1.84-1.055 1.835-1.077a755 755 0 0 0-2.804-4.869l-.045-.072z"/></svg>