<svg xmlns="http://www.w3.org/2000/svg" viewBox="0 0 16 16" fill="currentColor"><path fill-rule="evenodd" d="M7.138 1.054c-.805.097-1.474.3-2.245.679a7 7 0 0 0-3.841 5.4 8.6 8.6 0 0 0 0 1.731 7.01 7.01 0 0 0 5.017 5.866 6.6 6.6 0 0 0 1.944.262 6.7 6.7 0 0 0 2.604-.499c2.41-.987 4.041-3.139 4.345-5.733a9 9 0 0 0-.014-1.624 7 7 0 0 0-3.668-5.319 7 7 0 0 0-2.545-.775 10.5 10.5 0 0 0-1.597.012m3.409 3.743c.297.136.413.45.278.749-.042.091-.431.498-1.607 1.676-.853.856-1.603 1.592-1.667 1.636a.5.5 0 0 1-.273.095c-.285.026-.293.021-1.256-.946-.911-.914-.928-.935-.929-1.161a.6.6 0 0 1 .155-.349c.159-.17.446-.226.64-.126.054.029.375.329.712.667l.613.615 1.414-1.412c.897-.897 1.447-1.427 1.506-1.452a.53.53 0 0 1 .414.008m-4.513 5.559c.245.103.378.31.378.591 0 .379-.251.632-.624.631a.59.59 0 0 1-.553-.318c-.061-.104-.074-.156-.074-.313 0-.272.111-.455.348-.573a.8.8 0 0 1 .525-.018m2.214 0c.244.103.377.31.377.591 0 .379-.25.632-.625.632s-.625-.253-.625-.632c0-.278.13-.485.372-.59.105-.046.392-.046.501-.001m2.209.002c.136.057.229.14.309.276.06.104.073.156.073.313s-.013.209-.074.313a.59.59 0 0 1-.555.318.615.615 0 0 1-.597-.415.656.656 0 0 1 .347-.806.9.9 0 0 1 .497.001"/></svg>