<svg xmlns="http://www.w3.org/2000/svg" viewBox="0 0 16 16" fill="currentColor"><path fill-rule="evenodd" d="M7.542.556c-.167.068-.274.147-.339.253-.03.049-.452 1.029-.937 2.18-.485 1.15-.896 2.104-.914 2.12s-.933.106-2.139.209c-2.469.212-2.5.215-2.644.285-.231.111-.436.435-.436.69 0 .178.092.374.247.525.077.076.884.781 1.793 1.568 1.087.94 1.652 1.446 1.648 1.476-.003.024-.241 1.053-.529 2.285-.42 1.797-.521 2.262-.508 2.355.061.451.579.781.994.634.057-.02.986-.568 2.063-1.217a88 88 0 0 1 1.988-1.181c.016 0 .916.534 2 1.188s2.018 1.202 2.075 1.221c.145.046.379.019.541-.063.243-.123.435-.408.435-.647 0-.047-.233-1.086-.518-2.308a461 461 0 0 1-.527-2.266c-.006-.03.522-.503 1.632-1.463 1.814-1.57 1.9-1.648 1.978-1.798a.75.75 0 0 0 .032-.553c-.075-.211-.298-.432-.49-.485-.087-.024-1.063-.119-2.374-.231a85 85 0 0 1-2.28-.211c-.04-.017-.274-.546-.933-2.111-.484-1.15-.916-2.143-.96-2.208-.121-.179-.315-.277-.57-.288a.7.7 0 0 0-.328.041"/></svg>