<svg xmlns="http://www.w3.org/2000/svg" viewBox="0 0 16 16" fill="currentColor"><path fill-rule="evenodd" d="M7.138 1.054a7.07 7.07 0 0 0-4 1.906c-.962.911-1.699 2.236-1.988 3.576a7.8 7.8 0 0 0-.098 2.328 7 7 0 0 0 3.818 5.397 6.8 6.8 0 0 0 3.13.732 6.7 6.7 0 0 0 2.56-.478 7 7 0 0 0 3.955-3.955A6.7 6.7 0 0 0 14.993 8a6.7 6.7 0 0 0-.478-2.56 6.97 6.97 0 0 0-3.408-3.707 6.5 6.5 0 0 0-2.273-.68 10 10 0 0 0-1.696.001M8.64 3.532v.439l.1.017c.555.093 1.102.453 1.443.952.127.186.309.579.281.606-.026.025-1.083.459-1.091.448l-.109-.207c-.19-.366-.498-.613-.859-.69a2.5 2.5 0 0 0-.812.009c-.236.05-.478.181-.609.33-.206.234-.267.649-.138.94.15.338.457.518 1.594.93 1.32.479 1.828.867 2.128 1.627.121.308.161.581.144.986-.029.708-.246 1.154-.74 1.52a3.3 3.3 0 0 1-1.192.547l-.193.046v.875H7.388l-.007-.458-.008-.457-.186-.051a3.4 3.4 0 0 1-.85-.404c-.325-.233-.63-.604-.837-1.017-.094-.188-.225-.544-.214-.579.005-.014.146-.079.315-.146l.562-.221.257-.101.082.217c.282.743.812 1.166 1.511 1.209.576.035 1.152-.204 1.36-.563.088-.154.125-.312.125-.547 0-.626-.393-.947-1.831-1.497-1.491-.569-1.992-1.049-2.099-2.008C5.449 5.222 6.151 4.296 7.3 4l.113-.029v-.878H8.64z"/></svg>