<svg xmlns="http://www.w3.org/2000/svg" viewBox="0 0 16 16" fill="currentColor"><path fill-rule="evenodd" d="M2.44 1.066a1.8 1.8 0 0 0-.892.517c-.258.263-.39.503-.504.91C1.004 2.64 1 3.09 1 8c0 5.024.003 5.357.047 5.517.111.402.257.659.523.922.267.264.489.39.91.516.133.039.485.044 3.667.052l3.52.007-.241-.233c-.832-.81-1.286-1.734-1.401-2.855a4.6 4.6 0 0 1 .271-2.027c.577-1.459 1.775-2.476 3.313-2.811.236-.052.35-.06.884-.06.538 0 .648.008.894.061.511.111 1.086.338 1.47.58a.5.5 0 0 0 .13.064c.02 0 .026-.757.02-2.553-.01-2.761-.001-2.594-.151-2.994-.174-.462-.644-.904-1.152-1.081l-.224-.078-1.473-.008-1.474-.008v2.62c0 2.601 0 2.62-.055 2.734a.64.64 0 0 1-.586.355c-.074 0-.424-.103-1.003-.295L8 6.13l-.889.295c-.579.192-.929.295-1.003.295a.64.64 0 0 1-.586-.355c-.055-.114-.055-.133-.055-2.733V1.013l-1.42.002c-1.295.001-1.437.006-1.607.051m4.28 2.041c0 1.151.009 2.093.021 2.093.011 0 .272-.084.579-.187.365-.122.601-.186.68-.186s.315.064.68.186c.307.103.568.187.579.187s.021-.942.021-2.093V1.013H6.72zm5.6 4.934a.7.7 0 0 0-.156.1c-.131.123-.15.195-.164.627l-.013.408-.24.08a3 3 0 0 0-.383.16l-.142.081-.264-.257c-.366-.354-.539-.422-.788-.309a.51.51 0 0 0-.253.619c.017.051.149.217.305.382l.274.291-.081.149a3 3 0 0 0-.164.388l-.084.24-.424.013c-.443.014-.48.024-.601.151a.498.498 0 0 0 .09.749c.107.071.124.074.529.082l.419.009.047.173c.025.095.098.273.16.395l.113.222-.252.25c-.285.282-.355.394-.355.569 0 .293.202.494.496.494.173 0 .286-.071.567-.355l.25-.252.222.113c.122.062.3.135.395.16l.173.047.009.419c.008.405.011.422.082.529a.498.498 0 0 0 .749.09c.127-.121.137-.158.151-.601l.013-.424.24-.084c.132-.046.306-.12.387-.165l.146-.081.273.263c.294.284.392.341.581.341a.47.47 0 0 0 .452-.3c.095-.227.028-.402-.265-.687a4 4 0 0 1-.258-.273l-.053-.074.08-.14c.044-.077.116-.248.161-.38l.08-.24.408-.013c.446-.015.516-.035.643-.185a.485.485 0 0 0 .031-.594c-.112-.17-.185-.193-.663-.208L14.819 11l-.047-.169a3 3 0 0 0-.158-.396l-.112-.226.278-.285c.304-.312.357-.409.33-.607a.5.5 0 0 0-.427-.427c-.2-.028-.297.025-.607.33l-.284.278-.227-.112a2.6 2.6 0 0 0-.396-.158L13 9.181l-.013-.424c-.016-.482-.037-.55-.215-.668a.5.5 0 0 0-.452-.048m.53 2.131c.352.094.713.379.865.685.266.532.185 1.152-.204 1.564a1.35 1.35 0 0 1-.921.45c-.813.06-1.521-.648-1.461-1.458.028-.369.163-.649.439-.913a1.25 1.25 0 0 1 .912-.365c.125-.001.291.016.37.037m-6.13 1.015v.626H4.187V10.56H6.72z"/></svg>