<svg xmlns="http://www.w3.org/2000/svg" viewBox="0 0 16 16" fill="currentColor"><path fill-rule="evenodd" d="M1.547 1.053a1.45 1.45 0 0 0-.91.775c-.136.307-.13-.025-.13 6.489 0 4.704.007 6.115.032 6.2.075.253.418.481.717.477.251-.003.253-.004 1.444-1.227l.604-.62h5.505c5.42 0 5.508-.001 5.675-.053.423-.133.772-.467.936-.896l.06-.158.008-4.88c.006-3.601 0-4.918-.022-5.027a1.48 1.48 0 0 0-1.022-1.083C14.246.998 1.729 1 1.547 1.053M12.21 4.105a.8.8 0 0 1 .183.144.614.614 0 0 1-.176.93l-.143.074H3.926l-.143-.074c-.349-.183-.429-.693-.149-.958.19-.18-.179-.165 4.36-.167 4.022-.001 4.117.001 4.216.051M12.2 6.53c.407.184.448.795.071 1.057l-.116.08h-8.31l-.116-.08c-.377-.262-.336-.873.071-1.057.102-.047.298-.049 4.2-.049s4.098.002 4.2.049M9.027 8.957a.57.57 0 0 1 .343.55.56.56 0 0 1-.162.427c-.178.183-.013.173-2.787.172-2.829-.001-2.639.013-2.817-.203-.257-.312-.133-.819.237-.967.041-.016.99-.026 2.572-.027 2.373-.001 2.513.001 2.614.048"/></svg>