<svg xmlns="http://www.w3.org/2000/svg" viewBox="0 0 16 16" fill="currentColor"><path d="M7.667 1.049c-.397.131-.708.493-.758.882a1.1 1.1 0 0 0 .214.796l.08.101-.08.08a.305.305 0 0 0-.073.354c.043.104.179.204.277.205.055 0 .06.012.06.153 0 .084.012.567.027 1.073.027.886.03.922.083.96.031.022.157.097.28.165L8 5.943l.223-.125c.123-.068.249-.143.279-.165.054-.038.057-.074.084-.999.015-.527.027-1.01.027-1.073 0-.101.007-.114.06-.114.097-.001.234-.101.276-.202a.32.32 0 0 0-.073-.358l-.078-.078.092-.119c.147-.193.19-.338.19-.643 0-.238-.008-.285-.077-.433a1.23 1.23 0 0 0-.542-.534c-.129-.06-.198-.073-.421-.079a1.4 1.4 0 0 0-.373.028m-1.43 1.75c-.324.1-.806.491-.99.803-.258.437-.236 1.122.057 1.745.323.686.941 1.203 2.296 1.92.904.478 1.264.732 1.391.982.104.204.024.6-.156.769-.057.053-.062.079-.061.327l.001.268.251.14c.137.077.261.14.275.14.05 0 .421-.396.509-.543.256-.427.325-.956.18-1.368-.21-.594-.656-.974-1.937-1.65a19 19 0 0 1-.728-.402c-.922-.553-1.326-1.063-1.369-1.727-.013-.206-.009-.225.078-.403.05-.103.187-.313.304-.468.332-.442.35-.541.099-.55a.8.8 0 0 0-.2.017m3.177.027c-.045.084-.002.172.249.506.116.155.254.369.305.476.088.184.092.207.078.4-.046.666-.455 1.172-1.411 1.746l-.285.171.309.17c.17.094.397.228.505.299l.195.129.158-.108c.902-.612 1.36-1.317 1.408-2.164.03-.536-.096-.851-.493-1.227-.273-.259-.588-.428-.831-.445-.139-.011-.159-.006-.187.047m-4.601.718c-.379.268-1.459.838-2.107 1.114-.678.288-1.469.531-2.198.675-.529.105-.598.162-.429.355.222.253.982.49 1.894.591.195.022.359.044.364.049.024.024-.504.133-.706.146-.156.01-.227.025-.237.051-.051.134.572.445 1.214.606.482.122.725.154 1.285.169l.547.016-.2.062a4 4 0 0 1-.513.108c-.212.031-.314.057-.314.08 0 .052.196.182.411.271.437.182.989.279 1.508.265l.305-.009.044-.146a2.2 2.2 0 0 1 .57-.902l.12-.111-.259-.191c-.698-.515-1.105-1.081-1.303-1.81-.035-.129-.047-.277-.048-.586-.001-.432.027-.582.148-.794.06-.105.043-.106-.096-.009m6.278.009c.121.213.149.362.148.794-.002.496-.052.722-.251 1.133-.233.48-.568.864-1.106 1.268l-.255.192.118.104c.237.209.481.592.574.903l.044.146.305.009a3.8 3.8 0 0 0 1.508-.265c.215-.089.411-.219.411-.271q.002-.034-.314-.08a4 4 0 0 1-.513-.108l-.2-.062.547-.016c.56-.015.803-.047 1.285-.168.637-.161 1.265-.474 1.214-.607-.01-.026-.081-.041-.237-.051-.202-.013-.73-.122-.706-.146.005-.005.169-.027.364-.049.912-.101 1.672-.338 1.894-.591.169-.193.1-.25-.429-.355-1.396-.277-2.854-.873-4.195-1.718a4 4 0 0 0-.246-.148c-.005 0 .013.039.04.086m-4.66 3.774c-.333.338-.495.707-.493 1.126.003.675.374 1.243 1.083 1.659.106.062.431.218.722.347 1.032.458 1.207.571 1.284.831.059.196.018.316-.164.486l-.145.137-.016.225-.016.225.138.101.137.101.188-.111c.345-.205.58-.487.663-.798.08-.295.007-.688-.18-.978-.206-.319-.474-.509-1.33-.942-.325-.165-.68-.359-.79-.431-.249-.163-.453-.383-.509-.549-.085-.25-.038-.522.114-.66.051-.046.056-.079.056-.375v-.325l-.252-.138a3 3 0 0 0-.269-.138c-.009 0-.108.093-.221.207m1.075.876c.009.351.022.661.028.69.006.03.082.099.168.154.213.137.725.402.742.385.008-.008.021-.298.029-.644.014-.597.013-.632-.036-.669a9 9 0 0 0-.712-.424l-.236-.128zm-.951 2.244a1.32 1.32 0 0 0-.398.942c.001.351.146.641.444.887.204.169.382.266.899.494.734.325 1.042.513 1.429.873.331.307.506.573.658 1.005.103.289.165.247.17-.115.008-.522-.351-1.149-.957-1.672-.248-.213-.517-.391-1-.66-.447-.249-.649-.384-.741-.492-.174-.208-.151-.435.066-.647.128-.125.128-.126.128-.301 0-.143-.008-.179-.046-.193a3 3 0 0 1-.253-.132 1.3 1.3 0 0 0-.241-.116.5.5 0 0 0-.158.127m1.028.56c.009.143.017.363.017.489v.229l.273.15c.151.083.322.18.38.216.076.046.112.056.126.034.011-.018.02-.255.021-.528v-.496l-.399-.177a7 7 0 0 0-.418-.177c-.01 0-.01.117 0 .26m-.689 2.146c-.398.436-.621.879-.646 1.287-.014.22.012.389.064.406.016.006.056-.071.089-.171s.114-.29.18-.422c.106-.208.163-.281.437-.552l.315-.312v-.132a1 1 0 0 0-.016-.176c-.018-.047-.144-.121-.207-.121-.021 0-.118.087-.216.193m.771.814c.02.826.032.892.169.982a.31.31 0 0 0 .441-.131c.028-.061.044-.242.058-.662l.019-.577-.116-.079c-.114-.078-.537-.3-.573-.3-.01 0-.009.345.002.767"/></svg>