<svg xmlns="http://www.w3.org/2000/svg" viewBox="0 0 16 16" fill="currentColor"><path fill-rule="evenodd" d="M1.782 3.375c-.241.074-.449.364-.449.625 0 .268.208.551.46.626.121.036.85.041 6.207.041s6.086-.005 6.207-.041a.69.69 0 0 0 .46-.626.69.69 0 0 0-.46-.626c-.121-.036-.848-.04-6.219-.039-5.215.002-6.099.008-6.206.04m0 4c-.241.074-.449.364-.449.625 0 .268.208.551.46.626.121.036.85.041 6.207.041s6.086-.005 6.207-.041a.69.69 0 0 0 .46-.626.69.69 0 0 0-.46-.626c-.121-.036-.848-.04-6.219-.039-5.215.002-6.099.008-6.206.04m0 4c-.241.074-.449.364-.449.625 0 .268.208.551.46.626.121.036.85.041 6.207.041s6.086-.005 6.207-.041a.69.69 0 0 0 .46-.626.69.69 0 0 0-.46-.626c-.121-.036-.848-.04-6.219-.039-5.215.002-6.099.008-6.206.04"/></svg>