<svg xmlns="http://www.w3.org/2000/svg" viewBox="0 0 16 16" fill="currentColor"><path fill-rule="evenodd" d="M7.253.854a3.72 3.72 0 0 0-2.878 2.021 3.8 3.8 0 0 0-.337 2.138c.069.473.28 1.055.517 1.425A3.75 3.75 0 0 0 6.96 8.097c.32.069 1.093.069 1.413 0 1.144-.249 2.064-.951 2.575-1.967.143-.283.297-.773.344-1.093a3.67 3.67 0 0 0-2.484-4.022A4 4 0 0 0 7.253.854m4.301 7.332a.5.5 0 0 0-.292.205c-.074.096-.076.107-.089.525l-.013.428-.16.046a3 3 0 0 0-.392.16l-.233.113-.287-.28c-.242-.236-.308-.285-.414-.312a.488.488 0 0 0-.602.605c.026.104.077.171.311.412l.28.287-.113.233a3 3 0 0 0-.16.392l-.046.16-.43.013-.429.014-.103.082c-.147.119-.203.229-.203.398 0 .168.056.278.203.397l.103.083.429.013.43.013.046.16c.026.088.098.265.16.393l.113.232-.28.288c-.234.24-.285.308-.311.412a.488.488 0 0 0 .602.604c.106-.027.172-.076.414-.312l.287-.28.206.103c.113.057.29.129.392.161l.187.057.013.429.014.429.082.102c.119.146.23.203.395.203a.43.43 0 0 0 .345-.137c.127-.118.137-.156.151-.602l.013-.424.187-.057c.103-.032.279-.104.392-.161l.206-.103.288.28c.242.236.307.285.413.312a.488.488 0 0 0 .603-.604c-.026-.104-.078-.172-.312-.412l-.28-.288.103-.206c.057-.113.129-.289.161-.392l.057-.187.429-.013.429-.013.102-.083c.147-.119.203-.229.203-.397 0-.169-.056-.279-.203-.398l-.102-.082-.429-.014-.429-.013-.057-.187a3 3 0 0 0-.161-.392l-.103-.206.28-.287c.234-.241.286-.308.312-.412a.489.489 0 0 0-.603-.605c-.106.027-.171.076-.413.312l-.288.28-.232-.113a3 3 0 0 0-.393-.16l-.16-.046-.013-.426c-.014-.445-.023-.483-.151-.601a.48.48 0 0 0-.455-.131m-4.661.578c-.768.061-1.093.102-1.586.198-2.402.467-4.042 1.554-4.403 2.918-.046.177-.058.318-.07.827-.009.399-.003.681.017.81.055.352.225.617.516.805.298.193.127.185 3.882.185h3.359l-.092-.18c-.232-.454-.164-.963.176-1.323.074-.078.135-.15.135-.16 0-.009-.082-.017-.183-.017-.56 0-1.032-.417-1.132-1-.081-.473.203-.994.662-1.215a.9.9 0 0 1 .419-.1c.129-.007.234-.018.234-.026s-.059-.076-.131-.152a1.07 1.07 0 0 1-.287-.527 1.18 1.18 0 0 1 .176-.92l.077-.106-.218-.017a24 24 0 0 0-1.551 0m5.059 1.559c.504.105.953.554 1.059 1.058a1.33 1.33 0 0 1-.382 1.248c-.553.553-1.372.553-1.924 0-.28-.28-.411-.587-.411-.962 0-.376.131-.683.411-.962a1.32 1.32 0 0 1 1.247-.382"/></svg>