<svg xmlns="http://www.w3.org/2000/svg" viewBox="0 0 16 16" fill="currentColor"><path d="M1.378.027a.6.6 0 0 0-.318.275L1 .413v14.919l.061.061.06.06H9.08l.013-4.213.014-4.213.072-.123a.95.95 0 0 1 .348-.337c.079-.043.207-.048 1.506-.055l1.42-.007V3.2h-.057c-.031 0-.554.031-1.162.068-1.229.076-1.281.073-1.53-.076a1 1 0 0 1-.24-.215c-.184-.244-.184-.246-.184-1.687V0L5.367.002C3.214.004 1.42.015 1.378.027m8.435 1.44c.001 1.212-.002 1.195.198 1.29.092.044.144.043 1.096-.016l1-.061-1.147-1.147L9.813.387zm-5.12-.373c.446.098.738.377.801.765.031.186-.002.419-.082.584a.97.97 0 0 1-.396.396c-.061.027-.108.059-.103.07.004.012.15.203.325.426.254.323.324.397.347.366.366-.491.86-1.089.922-1.114.201-.084.423.108.38.328-.006.034-.232.334-.501.668l-.49.605.492.605q.492.606.508.689a.32.32 0 0 1-.128.29.34.34 0 0 1-.29.013c-.029-.015-.247-.271-.485-.568a10 10 0 0 0-.457-.548c-.013-.004-.215.236-.448.535-.234.298-.451.557-.483.575-.112.062-.23.042-.328-.056-.099-.1-.115-.194-.053-.314.02-.039.247-.328.504-.643l.467-.573-.444-.549-.444-.55h-.394l-.393-.001v.503c0 .464-.004.509-.054.572a.36.36 0 0 1-.147.099c-.078.026-.109.023-.192-.018-.199-.097-.195-.062-.187-1.614.007-1.351.008-1.379.062-1.453.099-.132.175-.144.891-.132.372.006.717.025.8.044m-1.173.973v.44h.466c.517 0 .667-.033.819-.178a.385.385 0 0 0-.013-.559c-.126-.116-.283-.143-.82-.143H3.52zM9.724 7.07c-.128.075-.124-.075-.124 4.429 0 2.843.009 4.254.028 4.321.053.192-.15.18 3.103.18h2.919l.075-.064.075-.065V7.169l-.075-.065-.075-.064-2.938.001c-2.04 0-2.954.009-2.988.029m1.973.827a.99.99 0 0 1 .038 1.803c-.13.064-.18.073-.402.073-.218 0-.274-.009-.404-.071a1 1 0 0 1-.482-.472c-.08-.161-.087-.197-.087-.429 0-.223.009-.273.072-.402.04-.081.114-.196.165-.255.104-.122.359-.268.529-.304.154-.032.398-.008.571.057m2.573-.057a.99.99 0 0 1 .707.538c.059.116.075.186.084.382.015.337-.047.498-.285.736-.148.148-.205.185-.359.236-.468.156-.953-.042-1.193-.485-.086-.158-.091-.181-.091-.434 0-.233.009-.285.072-.419.128-.274.408-.496.699-.553a.74.74 0 0 1 .366-.001m-3.059.531c-.351.087-.449.569-.16.789.183.14.45.116.6-.055a.44.44 0 0 0 .027-.582.48.48 0 0 0-.467-.152m2.775 0a.41.41 0 0 0-.277.218c-.05.088-.06.137-.05.255.019.226.16.378.375.402.16.018.293-.03.39-.141.295-.336-.007-.842-.438-.734m-6.355 1.95c.191.053.247.285.104.428l-.078.078H2.183l-.078-.078c-.147-.147-.086-.366.122-.433.091-.03 5.296-.025 5.404.005m4.003.268c.29.097.526.331.621.616.054.162.055.477.002.625a.99.99 0 0 1-1.165.639.976.976 0 0 1-.74-1.015.968.968 0 0 1 1.282-.865m2.867.037c.217.098.431.323.513.54.048.127.056.195.047.394-.009.211-.021.261-.1.408a.978.978 0 0 1-1.767-.063c-.05-.109-.061-.177-.061-.398 0-.248.007-.279.085-.428.127-.245.337-.42.609-.51.173-.057.476-.032.674.057m-3.386.495a.42.42 0 0 0-.23.362.43.43 0 0 0 .243.434c.141.069.239.07.381.006.2-.091.312-.318.253-.514-.086-.287-.392-.423-.647-.288m2.768.006c-.15.086-.21.179-.224.351-.01.123-.001.165.057.265.077.13.242.23.38.23a.6.6 0 0 0 .364-.188c.279-.384-.168-.892-.577-.658m-6.202.887c.157.081.184.285.054.415l-.078.078-2.751-.007-2.751-.007-.064-.074a.27.27 0 0 1 .082-.415c.038-.02.838-.029 2.742-.03 2.346-.001 2.698.004 2.766.04m4.099 1.344a.983.983 0 0 1 .402 1.341.99.99 0 0 1-1.267.422c-.165-.073-.375-.283-.468-.466a1 1 0 0 1-.051-.744c.096-.272.314-.498.583-.607.102-.041.179-.05.381-.043.229.007.27.017.42.097m2.732-.02c.185.087.366.262.466.453.068.13.075.167.075.422 0 .248-.008.298-.071.432a.98.98 0 0 1-1.836-.67c.068-.281.315-.554.61-.672.19-.076.554-.059.756.035m-6.777.393a.28.28 0 0 1 .051.324c-.073.136.018.132-2.866.132-1.924 0-2.7-.009-2.742-.03a.263.263 0 0 1-.073-.426l.078-.078h5.474zm3.358.116c-.155.105-.2.19-.2.38 0 .189.045.274.2.38a.46.46 0 0 0 .45.005.436.436 0 0 0 .008-.766c-.143-.081-.339-.08-.458.001m2.772 0a.7.7 0 0 0-.153.154c-.053.077-.062.118-.053.246a.41.41 0 0 0 .207.36c.17.115.448.064.59-.109a.48.48 0 0 0 0-.543c-.142-.173-.42-.224-.591-.108"/></svg>