<svg xmlns="http://www.w3.org/2000/svg" viewBox="0 0 16 16" fill="currentColor"><path fill-rule="evenodd" d="M7.653.817C6.454.969 5.498 1.591 4.912 2.6c-.335.577-.478 1.189-.451 1.931.028.739.24 1.516.631 2.309.632 1.282 1.458 2.099 2.394 2.366.308.088.761.081 1.082-.016.885-.267 1.72-1.094 2.319-2.297.644-1.292.823-2.551.51-3.584A3.56 3.56 0 0 0 8.713.878C8.448.824 7.863.79 7.653.817M5.173 8.75a7 7 0 0 0-.339.065c-.173.037-.203.054-.299.163-.201.228-.327.591-.362 1.041-.018.228-.016.244.036.272.03.016.077.066.103.111a.6.6 0 0 0 .174.159c.371.229.793.81.794 1.095 0 .067.024.192.053.277.169.491.198 1.303.057 1.58a.56.56 0 0 1-.312.274 2 2 0 0 0-.167.069c-.094.049-.459.049-.577-.001-.155-.064-.216-.256-.134-.416.067-.128.168-.163.461-.157.305.006.292.022.296-.366.005-.395-.108-.884-.236-1.031a1 1 0 0 1-.128-.192c-.172-.34-.458-.6-.659-.6-.218 0-.484.252-.683.644a.7.7 0 0 1-.141.202c-.155.122-.278.856-.208 1.246l.018.105.271-.007c.206-.005.29.003.353.035.217.113.21.445-.012.537-.162.068-.458.05-.703-.044-.397-.152-.469-.315-.448-1.021.011-.395.022-.491.086-.71.041-.139.082-.313.091-.387.043-.328.42-.864.782-1.111a.6.6 0 0 0 .153-.128c0-.014.041-.064.09-.113.087-.085.091-.098.122-.402.028-.274.087-.557.15-.721.018-.046.01-.045-.098.01-.363.184-.891.612-1.187.961a4.28 4.28 0 0 0-1.019 3.086c.089 1.139.666 1.671 2.022 1.864.308.044.646.048 4.427.048s4.119-.004 4.427-.048c1.36-.193 1.932-.724 2.023-1.876.088-1.122-.308-2.271-1.085-3.146-.298-.337-.778-.715-1.14-.898l-.134-.068.062.184c.055.165.118.499.155.826.013.12.015.122.188.197.23.1.415.282.525.515.078.164.086.204.085.434 0 .227-.008.271-.082.426a1.025 1.025 0 0 1-1.633.334 1.024 1.024 0 0 1 .257-1.698l.188-.092c.02-.014-.054-.486-.105-.676-.07-.26-.212-.525-.352-.66-.101-.097-.136-.113-.339-.15-.442-.081-.453-.082-.453-.024 0 .094-.181.415-.356.633-.347.431-1.299 1.307-2.032 1.868l-.198.152-.205-.157c-.732-.56-1.679-1.43-2.027-1.863-.173-.216-.356-.539-.356-.63 0-.055-.015-.056-.24-.02m6.702 2.128c-.243.111-.345.458-.197.674.106.154.227.22.402.22a.462.462 0 0 0 .43-.665.4.4 0 0 0-.25-.239.45.45 0 0 0-.385.01"/></svg>