<svg xmlns="http://www.w3.org/2000/svg" viewBox="0 0 16 16" fill="currentColor"><path fill-rule="evenodd" d="M1.762 1.057c-.346.122-.627.446-.725.836-.054.215-.054 3.997 0 4.214.088.355.379.706.688.83L1.88 7h2.907l.155-.063c.192-.077.458-.319.563-.511.139-.257.155-.357.168-1.113l.012-.7h1.782v3.381c0 2.94.005 3.402.04 3.54.142.555.571.973 1.08 1.052.095.015.523.027.95.027h.778l.012.7c.013.756.029.856.168 1.113.105.192.371.434.563.511l.155.063h2.907l.155-.063c.309-.124.6-.475.688-.83.054-.217.054-3.999 0-4.214-.084-.332-.325-.645-.61-.789l-.153-.077h-3.067l-.153.077c-.176.09-.412.324-.501.497-.125.244-.139.348-.152 1.099l-.012.713h-.754c-.415 0-.793-.007-.84-.017a.2.2 0 0 1-.137-.1c-.049-.08-.05-.192-.051-3.383v-3.3h1.782l.012.7c.013.756.029.856.168 1.113.105.192.371.434.563.511l.155.063h2.907l.155-.063c.309-.124.6-.475.688-.83.054-.217.054-3.999 0-4.214-.084-.332-.325-.645-.61-.789l-.153-.077h-3.067l-.153.077c-.176.09-.412.324-.501.497-.125.244-.139.348-.152 1.099l-.012.713h-4.63L5.673 2.7c-.013-.751-.027-.855-.152-1.099a1.4 1.4 0 0 0-.501-.497l-.153-.077-1.494-.006c-1.296-.005-1.509-.001-1.611.036"/></svg>