<svg xmlns="http://www.w3.org/2000/svg" viewBox="0 0 16 16" fill="currentColor"><path fill-rule="evenodd" d="M2.083 1.055c-.32.087-.654.328-.84.609a2 2 0 0 0-.169.352L1 2.227v11.546l.073.207c.167.471.476.78.943.946l.211.074h11.546l.211-.074a1.47 1.47 0 0 0 .943-.946l.073-.207V2.227l-.074-.211a1.48 1.48 0 0 0-.704-.836c-.336-.179.122-.167-6.234-.165-4.943.002-5.782.007-5.905.04m2.994 3.091c.257.125.388.346.388.654 0 .44-.275.721-.704.719-.408-.001-.696-.26-.728-.655a.72.72 0 0 1 .5-.76c.115-.038.431-.013.544.042m6.536.106c.231.149.317.296.317.548 0 .278-.166.519-.403.585-.138.039-3.716.039-3.854 0a.64.64 0 0 1-.347-.302.7.7 0 0 1 .001-.567.7.7 0 0 1 .34-.301c.044-.014.923-.022 1.973-.02 1.822.005 1.896.007 1.973.057M5.077 7.346c.257.125.388.346.388.654 0 .235-.051.371-.196.516-.14.139-.244.184-.463.198-.314.021-.536-.096-.694-.364-.063-.108-.072-.151-.072-.35 0-.166.013-.25.047-.313a.84.84 0 0 1 .353-.346c.111-.053.166-.062.333-.054a.8.8 0 0 1 .304.059m6.443.067c.241.067.41.309.41.587s-.166.519-.403.585c-.065.018-.734.028-1.927.028s-1.862-.01-1.927-.028a.64.64 0 0 1-.347-.302.7.7 0 0 1 .001-.567.7.7 0 0 1 .34-.301c.112-.033 3.735-.035 3.853-.002m-6.502 3.104a.73.73 0 0 1 .38.342c.056.112.069.176.068.34-.001.243-.054.378-.211.53-.277.269-.785.253-1.035-.032-.152-.174-.18-.249-.179-.497 0-.256.046-.374.203-.525a.8.8 0 0 1 .774-.158m6.502.096c.241.067.41.309.41.587s-.166.519-.403.585c-.065.018-.734.028-1.927.028s-1.862-.01-1.927-.028a.6.6 0 0 1-.195-.111.635.635 0 0 1-.017-.936c.159-.151.127-.149 2.126-.15 1.115-.001 1.876.009 1.933.025"/></svg>