<svg xmlns="http://www.w3.org/2000/svg" viewBox="0 0 16 16" fill="currentColor"><path fill-rule="evenodd" d="M7.372 1.055c-1.038.174-2.013.908-2.506 1.886a3.2 3.2 0 0 0-.359 1.549c0 .893.262 1.61.832 2.274a3.47 3.47 0 0 0 1.968 1.174c.318.068 1.068.068 1.386 0a3.4 3.4 0 0 0 1.276-.545c.827-.593 1.333-1.385 1.487-2.322.052-.312.036-1.036-.028-1.32-.151-.667-.454-1.207-.959-1.713-.547-.547-1.16-.871-1.864-.985a5 5 0 0 0-1.233.002M7.28 8.896a12.6 12.6 0 0 0-4.522 1.168c-.513.242-.687.35-.937.586a2.6 2.6 0 0 0-.725 1.192c-.093.332-.111.687-.103 1.958L1 15h14l.007-1.2c.008-1.271-.01-1.626-.103-1.958a2.6 2.6 0 0 0-.725-1.192c-.25-.236-.424-.344-.937-.586A12.6 12.6 0 0 0 9.28 8.945c-.343-.039-1.67-.072-2-.049"/></svg>