<svg xmlns="http://www.w3.org/2000/svg" viewBox="0 0 16 16" fill="currentColor"><path fill-rule="evenodd" d="M2.053 1.032c-.144.024-.42.123-.56.2-.446.25-.762.636-.911 1.115l-.062.2V13.32l.073.213c.218.64.678 1.07 1.354 1.263.129.037.56.043 3.635.05l3.488.009-.259-.248a4.43 4.43 0 0 1-.943-5.154c.928-1.942 3.17-2.944 5.246-2.344.319.093.749.278 1.013.437l.22.132v-2.48c0-2.77.004-2.703-.185-3.105a1.86 1.86 0 0 0-1.24-1.027c-.197-.049-.301-.053-1.593-.053H9.947v2.556c0 2.864.01 2.704-.195 2.905a.65.65 0 0 1-.442.193c-.053 0-.498-.134-.99-.298l-.893-.297-.906.3c-.831.276-.917.3-1.05.286a.63.63 0 0 1-.47-.297l-.081-.13-.007-2.609-.007-2.609-1.393.004c-.766.002-1.423.009-1.46.015M6.16 3.08c0 1.137.008 2.067.018 2.067.011 0 .273-.084.584-.187s.61-.187.665-.187.354.084.664.187.574.187.584.187.018-.93.018-2.067V1.013H6.16zm5.373 4.949c-.411.051-.83.183-1.181.372-.847.457-1.507 1.29-1.741 2.199-.071.273-.085.384-.097.763-.016.494.023.822.145 1.21a3.57 3.57 0 0 0 2.179 2.239 3.75 3.75 0 0 0 2.324 0c1.006-.345 1.863-1.225 2.179-2.239.198-.633.205-1.419.018-2.093a4 4 0 0 0-.472-.974c-.544-.764-1.387-1.307-2.256-1.453a5.7 5.7 0 0 0-1.098-.024m.814 2.271v1.073l.713.713.713.714-.24.24-.239.24-.82-.82-.821-.82V9.227h.694zm-6.187.767v.64H3.653v-1.28H6.16z"/></svg>