<svg xmlns="http://www.w3.org/2000/svg" viewBox="0 0 16 16" fill="currentColor"><path fill-rule="evenodd" d="M3.004 1.361c-.43.073-.733.234-1.071.572-.35.35-.504.646-.574 1.104-.018.116-.024 2.067-.02 5.656.008 5.384.009 5.482.06 5.586.079.16.24.301.396.348.171.05.24.05.42-.003.139-.041.197-.094 1.439-1.333L4.948 12h3.933c2.5 0 3.992-.01 4.097-.027.451-.073.743-.227 1.089-.573s.499-.638.573-1.089c.036-.224.036-7.065 0-7.289-.074-.451-.227-.743-.573-1.089s-.638-.499-1.089-.573c-.2-.032-9.78-.031-9.974.001m9.883 1.344a.7.7 0 0 1 .359.303l.074.125.007 3.476c.005 2.283-.002 3.51-.02 3.576a.72.72 0 0 1-.313.393l-.127.075-4.187.014c-4.059.013-4.19.015-4.293.064-.067.032-.412.354-.914.853l-.807.801.007-4.626.007-4.626.074-.125a.7.7 0 0 1 .359-.303c.149-.053 9.625-.053 9.774 0"/></svg>