<svg xmlns="http://www.w3.org/2000/svg" viewBox="0 0 16 16" fill="currentColor"><path fill-rule="evenodd" d="M7.867 1.351c-.907.091-1.614.286-2.321.639a6.33 6.33 0 0 0-3.388 7.074c.053.242.229.796.331 1.043l.061.146-.608 1.827c-.335 1.005-.608 1.864-.609 1.909 0 .238.152.491.358.594.273.136.209.151 2.229-.523l1.827-.61.146.061c.081.033.309.114.507.179a6.3 6.3 0 0 0 4.75-.36 6.3 6.3 0 0 0 1.59-1.126 6.38 6.38 0 0 0 1.75-6.056 6.5 6.5 0 0 0-1.102-2.322 8 8 0 0 0-1.214-1.214c-1.134-.846-2.465-1.289-3.827-1.274a10 10 0 0 0-.48.013m1.426 1.396a5.2 5.2 0 0 1 2.113.954c.261.2.734.677.929.939.451.606.775 1.335.918 2.067a6 6 0 0 1 .056 1.454 5.06 5.06 0 0 1-1.174 2.751 5.1 5.1 0 0 1-2.483 1.578c-.77.207-1.609.23-2.372.066a4.4 4.4 0 0 1-.965-.319c-.293-.126-.393-.157-.507-.157-.112 0-.413.09-1.43.429-.708.237-1.295.423-1.302.415-.008-.007.178-.594.415-1.302.339-1.017.429-1.318.429-1.43 0-.113-.031-.215-.156-.507-.18-.419-.221-.541-.298-.868A5 5 0 0 1 6.04 3.23a5 5 0 0 1 1.638-.525c.385-.055 1.236-.033 1.615.042"/></svg>