<svg xmlns="http://www.w3.org/2000/svg" viewBox="0 0 16 16" fill="currentColor"><path fill-rule="evenodd" d="M.448.042A.69.69 0 0 0 .041.46a.6.6 0 0 0 .001.422c.041.141.111.213 2.665 2.771L5.33 6.28l.011 1.067c.011 1.13.017 1.188.155 1.56a2.7 2.7 0 0 0 2.321 1.748c.412.033.979-.078 1.353-.267l.181-.091.485.485c.266.267.484.493.484.503 0 .032-.381.257-.641.378-.577.269-1.055.364-1.772.352-.521-.009-.727-.041-1.145-.179a4.02 4.02 0 0 1-2.671-2.943c-.072-.312-.075-.346-.09-1.36-.017-1.166-.014-1.149-.215-1.344A.72.72 0 0 0 3.333 6a.7.7 0 0 0-.464.202c-.192.192-.202.253-.202 1.227 0 .885.021 1.216.109 1.663.237 1.217.99 2.423 1.984 3.179.608.462 1.498.862 2.213.994.132.024.267.05.3.057l.06.012v1.333H6.298c-1.198 0-1.232.004-1.429.202a.7.7 0 0 0-.202.464c0 .268.208.552.459.626.206.062 5.542.062 5.748 0 .251-.074.459-.358.459-.626a.7.7 0 0 0-.202-.464c-.197-.198-.231-.202-1.43-.202H8.666l.007-.672.007-.672.253-.045a5.2 5.2 0 0 0 2.131-.884l.224-.159 1.842 1.84c1.785 1.782 1.848 1.842 1.988 1.883a.6.6 0 0 0 .422.001.67.67 0 0 0 .419-.419.6.6 0 0 0-.001-.422c-.049-.166.439.327-9.524-9.629C1.131.189 1.024.084.882.042a.63.63 0 0 0-.434 0M7.512.041c-.85.161-1.625.781-1.956 1.565-.166.393-.213.718-.132.912a.7.7 0 0 0 .673.407c.294-.03.502-.216.595-.534.084-.289.168-.447.336-.628.414-.447 1.021-.554 1.577-.28.306.152.565.456.678.797.027.083.038.553.049 2.12l.015 2.013.059.111c.201.376.7.478 1.017.207a.9.9 0 0 0 .171-.207l.059-.111v-2.04c0-1.631-.007-2.077-.037-2.226A2.69 2.69 0 0 0 8.68.091c-.338-.087-.854-.11-1.168-.05m4.936 6.001a.64.64 0 0 0-.246.16c-.192.192-.202.252-.203 1.236 0 .568-.013.933-.038 1.122-.045.337-.022.484.103.648a.63.63 0 0 0 .392.257.6.6 0 0 0 .483-.088c.317-.19.366-.417.387-1.806.016-1.113.009-1.165-.194-1.369a.65.65 0 0 0-.684-.16M8.315 9.294a1 1 0 0 1-.204.031 1.28 1.28 0 0 1-1.044-.389c-.291-.296-.399-.579-.4-1.043v-.28l.832.833c.458.457.825.839.816.848"/></svg>