<svg xmlns="http://www.w3.org/2000/svg" viewBox="0 0 16 16" fill="currentColor"><path fill-rule="evenodd" d="M7.586.039a2.68 2.68 0 0 0-2.109 1.782c-.141.411-.143.472-.143 3.512s.002 3.102.143 3.512c.405 1.181 1.585 1.94 2.797 1.799a2.68 2.68 0 0 0 2.306-1.991l.073-.266.008-2.907c.006-1.99-.001-2.978-.021-3.133A2.67 2.67 0 0 0 7.586.039m.742 1.334c.084.022.216.072.292.111.179.09.472.383.563.562.155.307.15.194.15 3.287s.005 2.981-.15 3.287a1.7 1.7 0 0 1-.563.563 1.36 1.36 0 0 1-1.24 0 1.7 1.7 0 0 1-.563-.563c-.155-.306-.15-.194-.15-3.287s-.005-2.98.15-3.287c.091-.179.384-.472.564-.563a1.4 1.4 0 0 1 .947-.11M3.115 6.042a.64.64 0 0 0-.246.16c-.203.203-.21.251-.195 1.381.013 1.048.033 1.248.18 1.798A5.32 5.32 0 0 0 6.68 13.16c.191.049.416.097.5.107l.153.019v1.381H6.298c-1.198 0-1.232.004-1.429.202a.7.7 0 0 0-.202.464c0 .268.208.552.459.626.206.062 5.542.062 5.748 0 .251-.074.459-.358.459-.626a.7.7 0 0 0-.202-.464c-.197-.198-.231-.202-1.429-.202H8.667v-1.381l.153-.019c.084-.01.309-.058.5-.107a5.32 5.32 0 0 0 3.826-3.779c.147-.55.167-.75.18-1.798.015-1.129.008-1.178-.194-1.381A.7.7 0 0 0 12.667 6a.7.7 0 0 0-.465.202c-.192.192-.202.252-.202 1.236-.001.876-.025 1.173-.129 1.562a4.3 4.3 0 0 1-.635 1.349 4.8 4.8 0 0 1-.887.887 3.99 3.99 0 0 1-5.178-.419A4 4 0 0 1 4.129 9c-.104-.389-.128-.686-.129-1.562 0-.984-.01-1.044-.202-1.236a.64.64 0 0 0-.683-.16"/></svg>