<svg xmlns="http://www.w3.org/2000/svg" viewBox="0 0 16 16" fill="currentColor"><path fill-rule="evenodd" d="M13.773 1.377c-.124.038-.257.164-1.953 1.858L10 5.052V3.824c0-1.412-.001-1.421-.202-1.622A.7.7 0 0 0 9.333 2a.7.7 0 0 0-.464.202c-.21.21-.202.11-.202 2.503.001 2.063.002 2.111.055 2.228a.63.63 0 0 0 .331.337l.134.063h2.108c2.393 0 2.293.008 2.503-.202A.7.7 0 0 0 14 6.667a.7.7 0 0 0-.202-.465c-.201-.201-.21-.202-1.622-.202h-1.228l1.817-1.82c1.759-1.762 1.818-1.825 1.859-1.965a.6.6 0 0 0 .002-.422.666.666 0 0 0-.853-.416M2.448 8.709c-.24.074-.448.364-.448.624a.7.7 0 0 0 .202.465c.201.201.21.202 1.622.202h1.228l-1.817 1.82c-1.759 1.762-1.818 1.825-1.859 1.965a.6.6 0 0 0-.002.422.67.67 0 0 0 .419.419.6.6 0 0 0 .422-.002c.14-.041.203-.1 1.965-1.859L6 10.948v1.228c0 1.412.001 1.421.202 1.622a.7.7 0 0 0 .465.202.7.7 0 0 0 .464-.202c.21-.21.202-.11.202-2.503V9.187l-.063-.134a.63.63 0 0 0-.337-.331c-.117-.053-.162-.054-2.24-.053-1.767.001-2.14.008-2.245.04"/></svg>