<svg xmlns="http://www.w3.org/2000/svg" viewBox="0 0 16 16" fill="currentColor"><path fill-rule="evenodd" d="M2.338 1.361c-.431.073-.733.234-1.072.572-.346.346-.499.638-.572 1.089-.037.224-.037 7.065 0 7.289.073.451.226.743.572 1.089s.638.5 1.089.573c.102.016 1.091.027 2.572.027h2.406v1.333H6.298c-1.198 0-1.232.005-1.429.202a.7.7 0 0 0-.202.465c0 .268.208.551.459.626.206.061 5.542.061 5.748 0a.69.69 0 0 0 .459-.626.7.7 0 0 0-.202-.465c-.197-.197-.231-.202-1.429-.202H8.667V12h2.406c1.481 0 2.47-.011 2.572-.027.451-.073.743-.227 1.089-.573s.499-.638.572-1.089c.037-.224.037-7.065 0-7.289-.073-.451-.226-.743-.572-1.089s-.638-.499-1.089-.573c-.201-.032-11.113-.031-11.307.001m11.215 1.344a.7.7 0 0 1 .36.303l.074.125V10.2l-.074.126a.7.7 0 0 1-.36.303c-.148.053-10.958.053-11.106 0a.7.7 0 0 1-.36-.303l-.074-.126V3.133l.074-.125a.7.7 0 0 1 .36-.303c.148-.053 10.958-.053 11.106 0"/></svg>