<svg xmlns="http://www.w3.org/2000/svg" viewBox="0 0 16 16" fill="currentColor"><path fill-rule="evenodd" d="M7.133 1.371c-1.508.219-2.781.855-3.84 1.92-.865.869-1.436 1.893-1.743 3.122-.258 1.037-.25 2.125.024 3.222.543 2.169 2.225 3.97 4.359 4.667a9 9 0 0 0 1.187.276c.383.059 1.326.066 1.72.012 1.961-.265 3.643-1.302 4.719-2.91a6.5 6.5 0 0 0 1.071-2.846c.048-.368.027-.526-.097-.697a.71.71 0 0 0-.673-.26c-.051.01-.213.095-.36.189a4.3 4.3 0 0 1-1.54.643c-.337.068-1.106.069-1.44.003a4 4 0 0 1-1.04-.351 3.7 3.7 0 0 1-1.076-.765 3.7 3.7 0 0 1-.765-1.076 3.75 3.75 0 0 1-.405-1.59c-.038-.86.194-1.663.708-2.445.23-.351.252-.59.076-.85-.177-.264-.407-.333-.885-.264m-.92 1.598c0 .005-.024.08-.054.167-.272.785-.33 1.795-.155 2.677.287 1.449 1.138 2.678 2.409 3.485a5.37 5.37 0 0 0 3.298.781 5.5 5.5 0 0 0 1.072-.213c.133-.042.246-.073.251-.068.014.014-.116.317-.253.589-.421.838-1.218 1.702-1.975 2.142-1.45.844-3.024 1.006-4.566.471-.782-.272-1.433-.696-2.054-1.337a4.9 4.9 0 0 1-1.214-1.996 5 5 0 0 1-.271-1.877c.028-.91.278-1.755.765-2.589.357-.61 1.022-1.289 1.681-1.714.368-.237 1.066-.576 1.066-.518"/></svg>