<svg xmlns="http://www.w3.org/2000/svg" viewBox="0 0 16 16" fill="currentColor"><path fill-rule="evenodd" d="M3.02 6.707c-.092.02-.23.07-.307.111a1.6 1.6 0 0 0-.575.595 1.38 1.38 0 0 0 0 1.174c.112.23.378.496.609.608a1.335 1.335 0 0 0 1.898-.992 1.29 1.29 0 0 0-.376-1.137c-.208-.206-.388-.308-.635-.36a1.34 1.34 0 0 0-.614.001m4.667 0c-.234.051-.419.157-.622.359a1.303 1.303 0 0 0-.001 1.87 1.31 1.31 0 0 0 1.872 0 1.325 1.325 0 0 0 .259-1.523 1.63 1.63 0 0 0-.574-.595 1.4 1.4 0 0 0-.934-.111m4.666 0c-.091.02-.229.07-.306.111a1.6 1.6 0 0 0-.576.595 1.39 1.39 0 0 0 0 1.174c.115.235.379.497.613.609a1.332 1.332 0 0 0 1.894-.993 1.28 1.28 0 0 0-.376-1.137c-.208-.206-.388-.308-.635-.36a1.34 1.34 0 0 0-.614.001"/></svg>