<svg xmlns="http://www.w3.org/2000/svg" viewBox="0 0 16 16" fill="currentColor"><path fill-rule="evenodd" d="M7.687 2.04c-.234.051-.419.158-.622.36a1.22 1.22 0 0 0-.376.727 1.28 1.28 0 0 0 .376 1.142c.215.216.44.331.728.376.436.066.829-.063 1.142-.376a1.28 1.28 0 0 0 .376-1.142 1.22 1.22 0 0 0-.376-.727c-.207-.206-.388-.309-.634-.361a1.35 1.35 0 0 0-.614.001m0 4.667c-.234.051-.419.157-.622.359a1.303 1.303 0 0 0-.001 1.87 1.31 1.31 0 0 0 1.872 0 1.325 1.325 0 0 0 .259-1.523 1.63 1.63 0 0 0-.574-.595 1.4 1.4 0 0 0-.934-.111m0 4.667c-.234.051-.419.157-.622.359a1.23 1.23 0 0 0-.376.727c-.067.436.062.829.376 1.142.215.216.44.332.728.376.272.042.555 0 .794-.116.23-.112.496-.378.608-.609a1.38 1.38 0 0 0 0-1.173 1.63 1.63 0 0 0-.574-.595 1.4 1.4 0 0 0-.934-.111"/></svg>