<svg xmlns="http://www.w3.org/2000/svg" viewBox="0 0 16 16" fill="currentColor"><path fill-rule="evenodd" d="M1.799 1.367c-.313.126-.496.411-.455.708.013.098 4.649 11.278 4.789 11.551.226.438.888.462 1.135.041.035-.06.347-.943.692-1.962.345-1.018.647-1.904.67-1.968l.043-.116 1.817 1.814c1.758 1.755 1.821 1.815 1.962 1.856a.6.6 0 0 0 .422.002.67.67 0 0 0 .419-.419.6.6 0 0 0-.002-.422c-.041-.141-.101-.204-1.856-1.962L9.621 8.673l.116-.043c.064-.023.95-.325 1.968-.67s1.904-.658 1.967-.695c.415-.243.387-.909-.046-1.132-.052-.026-2.65-1.113-5.774-2.415-6.058-2.525-5.835-2.439-6.053-2.351M7.36 4.952c2.207.919 4.023 1.678 4.034 1.688.011.009-.72.268-1.626.575-.971.329-1.689.587-1.75.628a.8.8 0 0 0-.175.175c-.041.061-.299.779-.628 1.75-.307.906-.566 1.637-.575 1.626a1818 1818 0 0 1-3.377-8.099c-.016-.042-.01-.048.032-.032z"/></svg>