<svg xmlns="http://www.w3.org/2000/svg" viewBox="0 0 16 16" fill="currentColor"><path fill-rule="evenodd" d="M7.72.731c-.104.049-.368.299-1.217 1.153C5.469 2.923 5.417 2.98 5.376 3.118a.6.6 0 0 0-.002.422.67.67 0 0 0 .419.419.58.58 0 0 0 .42-.002c.13-.038.189-.087.632-.524l.488-.482v4.382H2.951l.482-.488c.437-.443.486-.502.524-.632a.58.58 0 0 0 .002-.42.67.67 0 0 0-.419-.419.6.6 0 0 0-.422.002c-.138.041-.195.093-1.234 1.127C.694 7.686.667 7.719.667 8s.027.314 1.217 1.497c1.039 1.034 1.096 1.086 1.234 1.127a.6.6 0 0 0 .422.002.67.67 0 0 0 .419-.419.58.58 0 0 0-.002-.42c-.038-.13-.087-.189-.524-.632l-.482-.488h4.382v4.382l-.488-.482c-.443-.437-.502-.486-.632-.524a.58.58 0 0 0-.42-.002.67.67 0 0 0-.419.419.6.6 0 0 0 .002.422c.041.138.093.195 1.127 1.234 1.184 1.191 1.215 1.217 1.498 1.217.274.001.314-.032 1.497-1.219 1.034-1.037 1.085-1.094 1.126-1.232a.6.6 0 0 0 .002-.422.67.67 0 0 0-.419-.419.58.58 0 0 0-.42.002c-.13.038-.189.087-.632.524l-.488.482V8.667h4.382l-.482.488c-.437.443-.486.502-.524.632a.58.58 0 0 0-.002.42.67.67 0 0 0 .419.419.6.6 0 0 0 .422-.002c.138-.041.195-.092 1.232-1.126C15.302 8.314 15.333 8.275 15.333 8s-.031-.314-1.219-1.498c-1.037-1.034-1.094-1.085-1.232-1.126a.6.6 0 0 0-.422-.002.67.67 0 0 0-.419.419.58.58 0 0 0 .002.42c.038.13.087.189.524.632l.482.488H8.667V2.951l.488.482c.443.437.502.486.632.524a.58.58 0 0 0 .42.002.67.67 0 0 0 .419-.419.6.6 0 0 0-.002-.422c-.041-.138-.093-.195-1.127-1.234C8.314.694 8.281.667 8 .667a.6.6 0 0 0-.28.064"/></svg>