<svg xmlns="http://www.w3.org/2000/svg" viewBox="0 0 16 16" fill="currentColor"><path fill-rule="evenodd" d="M9.874 2.012c-2.218.372-4.075.691-4.126.708a.7.7 0 0 0-.212.148c-.217.217-.203-.035-.203 3.59 0 1.772-.006 3.222-.014 3.222s-.083-.035-.166-.077a2.663 2.663 0 0 0-3.796 2.114 2.66 2.66 0 0 0 1.416 2.641 2.663 2.663 0 0 0 3.866-2.02c.018-.138.028-1.592.028-4.325V3.896l.086-.016 3.334-.557 3.246-.541v2.782c0 1.531-.006 2.783-.014 2.783s-.083-.035-.166-.077a2.67 2.67 0 0 0-1.436-.247 2.656 2.656 0 0 0-2.36 2.36 2.66 2.66 0 0 0 1.416 2.642 2.663 2.663 0 0 0 3.866-2.02q.027-.209.028-4.642c0-4.934.012-4.608-.182-4.808a.65.65 0 0 0-.445-.212c-.082-.004-1.696.255-4.166.669m2.454 7.361c.24.063.417.167.608.358.269.268.397.571.397.936 0 .364-.128.667-.397.936A1.27 1.27 0 0 1 12 12c-.364 0-.668-.129-.936-.397a1.26 1.26 0 0 1-.397-.936c0-.365.128-.668.397-.936.269-.27.556-.392.924-.396.103-.001.256.016.34.038m-8 1.333c.24.063.417.167.608.358s.295.368.358.608c.078.303.037.656-.111.948a1.7 1.7 0 0 1-.563.563 1.36 1.36 0 0 1-1.24 0 1.7 1.7 0 0 1-.563-.563 1.36 1.36 0 0 1 0-1.24c.091-.18.384-.472.564-.564a1.4 1.4 0 0 1 .947-.11"/></svg>