<svg xmlns="http://www.w3.org/2000/svg" viewBox="0 0 16 16" fill="currentColor"><path fill-rule="evenodd" d="M7.82.696a.7.7 0 0 0-.34.226c-.081.107-4.779 12.828-4.804 13.009-.062.456.425.848.861.692.075-.027 1.11-.606 2.3-1.287L8 12.099l2.163 1.237c1.19.681 2.219 1.258 2.287 1.283a.56.56 0 0 0 .412.011.63.63 0 0 0 .456-.63c-.002-.162-.153-.583-2.351-6.543C9.675 3.954 8.583 1.032 8.541.964a.53.53 0 0 0-.244-.21C8.121.663 7.991.647 7.82.696m1.889 7.191c.933 2.534 1.694 4.61 1.691 4.613s-.694-.386-1.536-.867a75 75 0 0 0-1.624-.913.8.8 0 0 0-.48 0c-.051.021-.782.432-1.624.913s-1.533.871-1.536.867c-.009-.012 3.386-9.219 3.4-9.219.007 0 .777 2.073 1.709 4.606"/></svg>