<svg xmlns="http://www.w3.org/2000/svg" viewBox="0 0 16 16" fill="currentColor"><path fill-rule="evenodd" d="M14.44.716C14.295.768 1.776 6.697 1.632 6.781c-.208.123-.341.462-.276.706a.7.7 0 0 0 .283.401c.082.052.71.219 2.626.698l2.519.63.63 2.519c.68 2.718.664 2.666.877 2.807a.62.62 0 0 0 .581.081c.211-.071.31-.17.443-.443.505-1.04 5.932-12.519 5.972-12.633a.657.657 0 0 0-.408-.841.6.6 0 0 0-.439.01M13.245 2.78c-.007.018-.958 2.025-2.112 4.46s-2.137 4.51-2.184 4.613l-.086.186-.455-1.821c-.356-1.419-.472-1.844-.526-1.926-.137-.208-.139-.209-2.099-.699-1.319-.33-1.805-.462-1.768-.479.028-.013 2.11-.999 4.625-2.193a977 977 0 0 1 4.596-2.172c.013-.001.017.013.009.031"/></svg>