<svg xmlns="http://www.w3.org/2000/svg" viewBox="0 0 16 16" fill="currentColor"><path fill-rule="evenodd" d="M10.667.015c-.037.007-.157.025-.267.041a3.5 3.5 0 0 0-.938.306 3.1 3.1 0 0 0-.964.698 3.47 3.47 0 0 0-.858 3.433c.326 1.122 1.254 2.041 2.395 2.372.32.092.603.13.978.129a3.5 3.5 0 0 0 2.758-1.364c.524-.683.797-1.614.711-2.431-.166-1.587-1.271-2.817-2.815-3.132-.206-.042-.863-.076-1-.052m-3.53.68a4.67 4.67 0 0 0-3.884 3.142c-.182.546-.211.744-.253 1.739-.041.961-.085 1.428-.19 1.997-.151.824-.353 1.443-.677 2.079a3.9 3.9 0 0 1-.767 1.057c-.15.149-.291.315-.313.367a.8.8 0 0 0-.04.252c0 .307.216.58.507.643.096.02 1.902.029 6.147.029 4.244 0 6.05-.009 6.146-.029a.664.664 0 0 0 .507-.622c0-.253-.039-.33-.292-.576a6 6 0 0 1-.354-.373c-.451-.545-.874-1.508-1.076-2.447-.026-.121-.056-.22-.066-.22s-.071.019-.135.041c-.217.077-.541.15-.835.189-.16.021-.297.043-.303.049-.016.016.166.74.262 1.041.171.537.437 1.149.653 1.5l.069.114H3.092l.082-.14c.705-1.207 1.085-2.804 1.145-4.82.019-.607.035-.817.081-1.04a3.35 3.35 0 0 1 2.15-2.479c.15-.055.165-.068.195-.167.098-.325.336-.783.598-1.148l.148-.206-.085.003a5 5 0 0 0-.269.025M11.28 3.6v1.813h-.747V3.96c0-.892-.009-1.453-.025-1.453-.014 0-.206.114-.428.253a10 10 0 0 1-.416.253c-.007 0-.009-.151-.005-.337l.008-.337.426-.274.427-.274.38-.002.38-.002zm-4.8 9.776a.66.66 0 0 0-.442.536c-.066.416.461 1.039 1.077 1.272.274.104.42.129.738.13.425.001.798-.114 1.147-.354.25-.172.549-.529.622-.744a.66.66 0 0 0-.445-.847c-.29-.084-.514.004-.749.294-.183.225-.321.311-.531.33a.45.45 0 0 1-.3-.055c-.179-.085-.197-.101-.348-.298-.199-.261-.496-.363-.769-.264"/></svg>