<svg xmlns="http://www.w3.org/2000/svg" viewBox="0 0 16 16" fill="currentColor"><path fill-rule="evenodd" d="M1.553 1.055c-.432.116-.803.463-.974.909L.52 2.12.513 7.768c-.008 6.235-.019 5.822.16 6.163.11.209.388.486.6.598.323.169.171.163 4.084.164h3.558l-.253-.246a4.4 4.4 0 0 1-.666-.806l-.088-.148H4.912c-2.154 0-3.012-.008-3.054-.029a.4.4 0 0 1-.104-.087c-.043-.054-.046-.385-.047-5.532V2.369l.078-.078.078-.078h2.644v3c0 1.65.006 3 .013 3s.637-.312 1.4-.693l1.386-.693.889.444.889.444.254-.159c.139-.087.369-.212.511-.277l.258-.118V2.213h2.636l.082.069.082.069v4.682l.206.073c.275.098.593.247.814.381l.18.11V4.916c0-2.958.006-2.838-.169-3.167a1.6 1.6 0 0 0-.567-.568c-.339-.18.104-.168-6.077-.166-4.738.002-5.622.008-5.741.04M8.907 4.24v2.027l-.8-.4-.8-.401-.8.401-.8.4V2.213h3.2zm2.625 3.626a3.45 3.45 0 0 0-2.173 1.012c-.565.558-.895 1.172-1.026 1.909a4.1 4.1 0 0 0 .111 1.729c.234.746.769 1.445 1.454 1.9 1.034.688 2.49.775 3.608.217a3.6 3.6 0 0 0 1.95-2.632 4.2 4.2 0 0 0-.099-1.61c-.325-1.094-1.249-2.033-2.34-2.375a4.3 4.3 0 0 0-1.485-.15m.708 2.314v1.086l.74.74.74.741-.245.244-.244.244-.842-.824-.842-.824V9.093h.693zm-8.933.9v.6h4v-1.2h-4z"/></svg>