<svg xmlns="http://www.w3.org/2000/svg" viewBox="0 0 16 16" fill="currentColor"><path fill-rule="evenodd" d="M2.083 1.055c-.32.087-.654.328-.84.609a2 2 0 0 0-.169.352L1 2.227v11.546l.073.207c.167.471.476.78.943.946l.211.074h11.546l.211-.074a1.47 1.47 0 0 0 .943-.946l.073-.207V2.227l-.074-.211a1.48 1.48 0 0 0-.704-.836c-.336-.179.122-.167-6.234-.165-4.943.002-5.782.007-5.905.04m11.599 1.263.078.078v11.208l-.078.078-.078.078H2.396l-.078-.078-.078-.078V2.396l.078-.078.078-.078h11.208zM4.533 4.105a.77.77 0 0 0-.443.375c-.074.14-.07.509.008.655a.8.8 0 0 0 .39.344c.192.074.48.05.648-.053.52-.321.431-1.116-.147-1.315a1.1 1.1 0 0 0-.456-.006m2.72.695v.613h4.694V4.187H7.253zm-2.8 2.535a.8.8 0 0 0-.355.332c-.046.085-.057.152-.057.333s.011.248.057.333a.71.71 0 0 0 .649.385q.467 0 .657-.391a.73.73 0 0 0-.399-1.012.93.93 0 0 0-.552.02m2.8.665v.613h4.694V7.387H7.253zm-2.8 2.535a.8.8 0 0 0-.355.332c-.046.085-.057.152-.057.333s.011.248.057.333c.13.242.367.385.637.386a.7.7 0 0 0 .52-.19c.383-.372.252-1.037-.237-1.212a.93.93 0 0 0-.565.018m2.8.665v.613h4.694v-1.226H7.253z"/></svg>