<svg xmlns="http://www.w3.org/2000/svg" viewBox="0 0 16 16" fill="currentColor"><path fill-rule="evenodd" d="M1.557 1.064a1.52 1.52 0 0 0-.976.931l-.061.178v11.654l.061.178c.155.447.561.825 1.01.94.145.037.587.042 3.853.042h3.689l-.333-.34a5 5 0 0 1-.518-.614l-.185-.273h-3.09c-2.069 0-3.107-.009-3.142-.027-.139-.075-.132.258-.132-5.733s-.007-5.658.132-5.733c.033-.017.526-.027 1.4-.027h1.348v3.067c0 2.034.009 3.066.027 3.066.015 0 .666-.319 1.447-.71l1.419-.71.912.456.912.456.275-.172c.151-.095.386-.222.522-.284l.246-.112V2.24h2.719l.088.078.087.078.007 2.395.008 2.396.192.061c.221.07.621.255.846.392.084.051.161.093.171.093s.014-1.239.009-2.753c-.009-3.054.001-2.889-.186-3.219-.114-.202-.425-.504-.612-.594-.339-.164.083-.154-6.221-.152-5.399.002-5.771.005-5.924.049m7.59 3.243c0 1.136-.006 2.066-.014 2.066-.007 0-.379-.183-.826-.406l-.814-.407-.813.407c-.448.223-.82.406-.827.406s-.013-.93-.013-2.066V2.24h3.307zm2.413 3.721a3.5 3.5 0 0 0-2.879 2.383c-.135.416-.161.593-.161 1.096.001.33.013.512.047.671.155.72.465 1.29.976 1.796.687.678 1.498 1.013 2.457 1.013s1.77-.335 2.457-1.013a3.44 3.44 0 0 0 .971-1.774c.064-.292.079-.911.029-1.214a3.8 3.8 0 0 0-.286-.958 3.53 3.53 0 0 0-2.512-1.962 4.7 4.7 0 0 0-1.099-.038m1.715 1.503a.6.6 0 0 1 .138.109l.067.071.007 1.758c.008 1.944.015 1.865-.162 1.972-.081.05-.142.052-1.32.052-1.362 0-1.342.003-1.446-.168-.05-.082-.052-.146-.052-1.835V9.741l.057-.074a.6.6 0 0 1 .14-.123c.078-.047.155-.05 1.291-.051.985 0 1.221.007 1.28.038m-2.457.3c-.01.01-.018.495-.018 1.079v1.061l.835.008.836.008.106.07c.065.043.203.204.358.418l.252.348.007-1.472c.003-.809.001-1.486-.006-1.504-.01-.026-.272-.034-1.183-.034-.643 0-1.177.008-1.187.018m1.88.506c.064.058.062.156-.005.223-.05.05-.089.053-.693.053s-.643-.003-.693-.053c-.065-.065-.069-.152-.01-.218.041-.045.099-.049.698-.049.571 0 .66.006.703.044m-9.311.956v.627h4.106v-1.253H3.387zm9.332-.095c.04.074.034.152-.014.2-.036.036-.138.042-.705.042s-.669-.006-.705-.042c-.048-.048-.054-.126-.014-.2.026-.049.063-.051.719-.051s.693.002.719.051m-1.913 1.529.007.433 1.114.007c.612.004 1.113-.001 1.113-.01 0-.045-.582-.811-.635-.835-.038-.018-.347-.029-.834-.029h-.772z"/></svg>