<svg xmlns="http://www.w3.org/2000/svg" viewBox="0 0 24 24" fill="currentColor"><path fill-rule="evenodd" d="M7.096.059C6.344.223 5.721.844 5.54 1.61c-.047.201-.059.606-.059 2.06L5.48 5.48l-1.79.001c-1.987 0-2.143.015-2.581.247-.321.17-.737.586-.879.879-.245.506-.23-.006-.23 8.133s-.014 7.638.229 8.14c.139.287.604.752.891.891.489.237.314.229 4.928.229h4.232v-5.48h3.44V24h4.232c4.62 0 4.443.008 4.928-.231.126-.063.34-.229.5-.389.301-.301.46-.573.559-.958.091-.357.091-9.469-.001-9.858a2.1 2.1 0 0 0-1.372-1.491c-.256-.085-.336-.089-2.156-.104l-1.89-.015-.001-4.547c0-3.868-.009-4.584-.059-4.797-.181-.768-.811-1.391-1.569-1.551-.385-.082-9.419-.081-9.795 0M10.96 3.78v1.7h-3.4v-3.4h3.4zm5.48 0v1.7h-3.4v-3.4h3.4zM5.48 9.26v1.7h-3.4v-3.4h3.4zm5.48 0v1.7h-3.4v-3.4h3.4zm5.48 0v1.7h-3.4v-3.4h3.4zm-10.96 5.5v1.72h-3.4v-3.44h3.4zm5.48 0v1.72h-3.4v-3.44h3.4zm5.48 0v1.72h-3.4v-3.44h3.4zm5.48 0v1.72h-3.4v-3.44h3.4zM5.48 20.24v1.72h-3.4v-3.44h3.4zm16.44 0v1.72h-3.4v-3.44h3.4z"/></svg>