<svg xmlns="http://www.w3.org/2000/svg" viewBox="0 0 16 16" fill="currentColor"><path fill-rule="evenodd" d="M2.083 1.055c-.32.087-.654.328-.84.609a2 2 0 0 0-.169.352L1 2.227v11.546l.073.207c.167.471.476.78.943.946l.211.074h11.546l.211-.074a1.47 1.47 0 0 0 .943-.946l.073-.207V2.227l-.074-.211a1.48 1.48 0 0 0-.704-.836c-.336-.179.122-.167-6.234-.165-4.943.002-5.782.007-5.905.04M5.12 5.32V8.4l1.44-.72L8 6.96l1.44.72 1.44.72V2.24h2.724l.078.078.078.078v11.208l-.078.078-.078.078H2.396l-.078-.078-.078-.078V2.396l.078-.078.078-.078H5.12zm4.533-1.013c0 1.136-.006 2.066-.013 2.066s-.379-.183-.827-.406L8 5.56l-.813.407c-.448.223-.82.406-.827.406s-.013-.93-.013-2.066V2.24h3.306zm-5.774 6.394a7 7 0 0 0-.006.62l.007.586 2.06.006L8 11.92v-1.253H5.946c-1.639 0-2.057.007-2.067.034"/></svg>