<svg xmlns="http://www.w3.org/2000/svg" viewBox="0 0 16 16" fill="currentColor"><path fill-rule="evenodd" d="M7.711.694c-.363.05-.43.082-1.789.859-.563.322-1.072.603-1.131.624-.059.02-.168.083-.243.14-.074.056-.585.358-1.135.67s-1.084.625-1.186.694c-.21.141-.507.442-.612.621a2.4 2.4 0 0 0-.255.768c-.02.154-.027 1.107-.021 3.077.008 2.633.013 2.865.056 3.013.15.508.462.927.898 1.205.294.186 4.668 2.678 4.867 2.771q.268.126.726.23c.122.028.164.024.36-.03.379-.105.482-.141.647-.223.209-.105 4.587-2.604 4.814-2.748.436-.278.748-.697.898-1.205.043-.148.048-.38.056-3.013.006-1.97-.001-2.923-.021-3.077a2.4 2.4 0 0 0-.255-.769c-.11-.188-.419-.495-.646-.642C13.454 3.473 9.07.972 8.84.863a2.5 2.5 0 0 0-.337-.127 2.6 2.6 0 0 0-.792-.042m.494 1.343c.077.027 4.376 2.463 4.43 2.51.004.004-.361.22-.813.481-.793.458-.822.472-.888.434L8.633 4.135C7.405 3.427 6.4 2.839 6.4 2.829c0-.024 1.357-.795 1.427-.811a.8.8 0 0 1 .378.019m-.857 2.89c1.267.729 2.304 1.333 2.305 1.341 0 .017-1.588.94-1.639.953-.025.006-4.57-2.601-4.633-2.658-.016-.015 1.589-.955 1.641-.961.013-.001 1.06.595 2.326 1.325m-2.333 2.12 2.318 1.34v2.66c0 1.463-.006 2.66-.013 2.66-.053 0-4.383-2.505-4.455-2.577-.2-.2-.184.032-.192-2.843-.004-1.419 0-2.58.008-2.58s1.059.603 2.334 1.34m8.312 1.24c-.008 2.875.008 2.643-.192 2.843-.072.072-4.402 2.577-4.455 2.577-.007 0-.013-1.197-.013-2.66v-2.66l.993-.574 1.459-.843 1.321-.765c.469-.273.863-.496.874-.497s.017 1.16.013 2.579"/></svg>