<svg xmlns="http://www.w3.org/2000/svg" viewBox="0 0 16 16" fill="currentColor"><path fill-rule="evenodd" d="M10.12.283a9 9 0 0 1-.267.053c-.418.08-.796.24-1.213.511-.195.126-.694.615-3.536 3.457-2.096 2.095-3.369 3.388-3.47 3.523a4.8 4.8 0 0 0-.916 2.186c-.046.297-.04 1.064.01 1.36q.26 1.532 1.313 2.586c.7.7 1.567 1.14 2.586 1.313.296.05 1.063.056 1.36.01a4.8 4.8 0 0 0 2.186-.916c.32-.24 6.637-6.556 6.714-6.713a.7.7 0 0 0 .001-.573.64.64 0 0 0-.595-.365c-.314 0-.122-.177-3.653 3.349-2.485 2.481-3.284 3.263-3.43 3.358-.38.248-.797.422-1.237.516-.314.067-.966.067-1.279 0a3.37 3.37 0 0 1-2.632-2.632c-.067-.313-.067-.965 0-1.279.094-.44.268-.856.515-1.237.096-.147.886-.952 3.46-3.527l3.336-3.337.254-.124c.305-.149.538-.201.893-.201a1.8 1.8 0 0 1 .884.198c.379.187.726.534.915.914.139.28.196.541.194.887-.002.481-.115.826-.388 1.187-.067.088-1.541 1.577-3.277 3.31-3.016 3.012-3.161 3.152-3.298 3.197-.553.178-1.063-.372-.828-.894.042-.093.703-.77 2.983-3.053 3.182-3.186 2.999-2.986 2.995-3.294-.005-.359-.24-.608-.599-.634-.354-.025-.11-.242-3.336 2.978C5.169 7.99 3.808 9.365 3.741 9.453a2.5 2.5 0 0 0-.358.734 2.6 2.6 0 0 0-.034.506c.002.31.012.389.07.565.121.368.334.684.631.936a1.99 1.99 0 0 0 2.377.137c.115-.078 1.259-1.2 3.403-3.338 2.491-2.483 3.263-3.268 3.377-3.433.289-.419.428-.721.543-1.173.091-.358.116-.979.053-1.337C13.565 1.68 12.565.636 11.2.333c-.193-.043-.962-.079-1.08-.05"/></svg>