<svg xmlns="http://www.w3.org/2000/svg" viewBox="0 0 16 16" fill="currentColor"><path fill-rule="evenodd" d="M3.782 2.042a.69.69 0 0 0-.408.418c-.036.12-.041.78-.041 5.54 0 6.072-.017 5.579.202 5.798.204.203.191.202 1.798.202 1.608 0 1.595.001 1.798-.202.22-.219.202.274.202-5.798s.018-5.579-.202-5.798c-.204-.204-.188-.202-1.809-.2-1.153.001-1.439.009-1.54.04m5.333 0a.69.69 0 0 0-.408.418c-.035.12-.04.78-.04 5.54 0 6.072-.018 5.579.202 5.798.203.203.19.202 1.798.202 1.607 0 1.594.001 1.798-.202.219-.219.202.274.202-5.798s.017-5.579-.202-5.798c-.205-.204-.189-.202-1.81-.2-1.152.001-1.438.009-1.54.04M6 8v4.667H4.667V3.333H6zm5.333 0v4.667H10V3.333h1.333z"/></svg>