<svg xmlns="http://www.w3.org/2000/svg" viewBox="0 0 16 16" fill="currentColor"><path fill-rule="evenodd" d="M7.48 1.656c-.612.106-1.029.266-1.493.572a3.654 3.654 0 0 0 .467 6.354c.532.247.933.333 1.546.333.486 0 .8-.05 1.21-.193 1.82-.63 2.836-2.606 2.297-4.466a3.67 3.67 0 0 0-2.596-2.523c-.383-.098-1.09-.137-1.431-.077m1.246.752a2.98 2.98 0 0 1 2.192 2.379 2.94 2.94 0 0 1-.782 2.527 2.94 2.94 0 0 1-4.16.113 2.95 2.95 0 0 1-.896-1.686c-.224-1.28.505-2.629 1.707-3.161.26-.115.351-.144.648-.209.341-.074.933-.057 1.291.037m-.859 1.085c-.038.038-.054.089-.054.174 0 .12 0 .121-.142.183-.299.133-.455.376-.455.71 0 .315.116.482.457.66l.141.073-.007.52-.007.52-.067-.007a1 1 0 0 1-.231-.091c-.148-.075-.172-.08-.244-.05a.195.195 0 0 0-.114.249c.044.114.279.232.596.298.068.015.073.025.073.147 0 .109.012.139.071.186.088.069.144.069.232 0 .061-.048.071-.076.071-.2 0-.135.004-.145.073-.161.128-.03.29-.138.417-.28a.85.85 0 0 0 .137-.945c-.101-.207-.283-.348-.581-.448-.041-.014-.046-.059-.046-.417 0-.303.008-.401.033-.401a.5.5 0 0 1 .14.066c.136.084.212.084.295.002.146-.147.02-.336-.294-.441l-.174-.058v-.118c0-.141-.069-.224-.187-.224a.22.22 0 0 0-.133.053m-.054 1.04c0 .192-.01.294-.028.294-.016 0-.064-.035-.107-.078-.083-.084-.102-.202-.052-.333.028-.076.12-.176.161-.176.016 0 .026.116.026.293m.51.968a.425.425 0 0 1 .132.55c-.051.1-.194.242-.244.242-.014 0-.024-.183-.024-.426 0-.235.01-.427.022-.427.013 0 .064.027.114.061M2.152 7.77a.72.72 0 0 0-.472.467c-.017.061-.026.897-.027 2.272 0 2.387-.005 2.309.161 2.51a.8.8 0 0 0 .218.165c.136.068.148.069.713.069.547 0 .582-.003.709-.063a.66.66 0 0 0 .373-.478c.011-.054.025-.099.031-.099.007 0 .405.176.884.39s.96.412 1.069.44c.117.03.289.05.42.05.315 0 4.283-.391 4.476-.442.088-.022.238-.08.333-.127.218-.107 2.916-1.863 3.035-1.974a1.1 1.1 0 0 0 .173-.256c.076-.153.085-.198.085-.4a.84.84 0 0 0-.262-.651.87.87 0 0 0-.474-.257c-.296-.065-.347-.047-1.574.562-1.067.531-1.3.63-1.658.706-.173.037-.161.047-.205-.156a1.3 1.3 0 0 0-.513-.747c-.248-.171-.376-.199-1.473-.326a104 104 0 0 1-1.121-.134c-.191-.031-.431-.133-.792-.338-.745-.424-1.304-.579-2.081-.58-.306 0-.34-.004-.34-.046-.001-.084-.124-.311-.217-.399-.17-.161-.247-.179-.823-.186-.37-.005-.557.003-.648.028m.995 2.723v2.067h-.8v-2.049c0-1.127.008-2.057.017-2.067.01-.009.19-.017.4-.017h.383zM4.73 9.107a3.3 3.3 0 0 1 1.017.36c.556.303.757.399.951.452.111.031.642.106 1.235.174.572.066 1.093.134 1.158.152a.61.61 0 0 1 .377.362c.019.062.029.118.023.123s-.557.042-1.224.082c-1.309.078-1.34.084-1.452.237-.12.163-.049.406.147.503.087.043.158.041 1.411-.034 2.391-.142 2.324-.126 3.957-.937 1.132-.563 1.147-.568 1.26-.444.067.074.065.247-.004.312-.079.075-2.699 1.777-2.853 1.854-.073.037-.211.08-.307.097-.257.044-3.98.4-4.184.4-.096 0-.229-.017-.295-.038s-.564-.235-1.107-.478l-.987-.441-.007-1.388-.006-1.388h.33c.181 0 .433.018.56.04"/></svg>