<svg xmlns="http://www.w3.org/2000/svg" viewBox="0 0 16 16" fill="currentColor"><path fill-rule="evenodd" d="M1.078.716c-.271.126-.425.37-.405.641.007.082.542 2.34 1.19 5.016.968 3.997 1.191 4.888 1.252 4.986.146.238.101.225 2.286.664 1.414.283 1.97.405 1.965.429a.8.8 0 0 0 .006.417c.045.156.059.171 1.157 1.269 1.064 1.063 1.117 1.113 1.256 1.153a.6.6 0 0 0 .43 0c.141-.041.209-.105 2.59-2.486s2.445-2.449 2.486-2.59a.6.6 0 0 0 0-.43c-.04-.139-.09-.192-1.153-1.256-1.098-1.098-1.113-1.112-1.269-1.157a.8.8 0 0 0-.417-.006c-.024.005-.146-.551-.429-1.965-.439-2.185-.425-2.14-.664-2.287-.098-.06-.975-.281-4.986-1.252C3.616 1.195 1.437.68 1.347.675a.5.5 0 0 0-.269.041m5.989 2.683c1.796.433 3.29.798 3.319.81.046.02.105.284.473 2.127l.421 2.104-1.42 1.418-1.42 1.419-2.101-.422a91 91 0 0 1-2.117-.437 264 264 0 0 1-.838-3.424l-.835-3.46c-.008-.028.657.62 1.477 1.44l1.491 1.493-.068.198a2.1 2.1 0 0 0-.096.902c.064.5.213.8.58 1.167s.666.515 1.167.58c.408.053.873-.039 1.22-.24.225-.13.624-.529.754-.754a2.05 2.05 0 0 0 0-1.973c-.13-.225-.529-.624-.754-.755-.474-.275-1.106-.329-1.655-.143l-.198.068-1.493-1.491-1.492-1.491.159.038zm.608 3.365a.667.667 0 0 1 .015 1.129.665.665 0 0 1-.929-.224c-.071-.116-.081-.155-.081-.334 0-.172.011-.22.074-.327a.64.64 0 0 1 .627-.331c.126.008.2.03.294.087M13.2 9.48l.52.52-1.86 1.86L10 13.72l-.527-.527-.526-.526 1.853-1.854a174 174 0 0 1 1.867-1.853c.007 0 .247.234.533.52"/></svg>