<svg xmlns="http://www.w3.org/2000/svg" viewBox="0 0 16 16" fill="currentColor"><path fill-rule="evenodd" d="M7.133.037c-.4.076-.725.253-1.039.563a1.7 1.7 0 0 0-.439.687l-.032.1-1.938.001c-2.162.002-2.133 0-2.444.186a1.8 1.8 0 0 0-.568.578c-.178.336-.166-.105-.166 6.133 0 4.988.004 5.669.04 5.807.124.474.52.877 1.026 1.045.138.045.321.049 2.927.057 1.529.004 2.78.003 2.78-.004s-.043-.076-.095-.154a4.4 4.4 0 0 1-.403-.843l-.075-.22H4.328c-1.449 0-2.404-.01-2.445-.025-.16-.061-.15.332-.15-5.68V2.774l.078-.087.078-.087.949-.008.949-.007V4.72h7.44V2.585l.949.007.948.008.078.087.078.087v4.5l.26.089c.143.049.422.17.62.269.198.1.363.181.368.181.004 0 .004-1.173-.001-2.606-.01-2.895.003-2.695-.19-3.06-.154-.294-.525-.602-.857-.711-.082-.027-.556-.038-2.09-.049l-1.983-.014-.054-.145C9.153.691 8.654.242 8.08.08a2.5 2.5 0 0 0-.947-.043m.724 1.264c.141.073.312.267.352.401.055.185.04.43-.038.585-.253.508-1.02.534-1.307.045a.86.86 0 0 1-.05-.643.75.75 0 0 1 .466-.439c.122-.04.457-.01.577.051m3.383 7.421a3.74 3.74 0 0 0-2.825 2.081 3.72 3.72 0 0 0-.002 3.083c.243.515.708 1.07 1.187 1.42.28.204.789.457 1.1.545.771.221 1.685.19 2.419-.082.509-.188.896-.445 1.335-.887a3.43 3.43 0 0 0 1-1.944c.056-.339.042-1.05-.027-1.365-.157-.711-.449-1.236-.986-1.775-.562-.563-1.114-.872-1.841-1.029-.281-.061-1.063-.088-1.36-.047m.92 2.356v1.131l.759.743.76.743-.247.246a2 2 0 0 1-.272.246c-.015 0-.407-.381-.873-.847l-.847-.846V9.947h.72z"/></svg>