<svg xmlns="http://www.w3.org/2000/svg" viewBox="0 0 16 16" fill="currentColor"><path fill-rule="evenodd" d="M3.974 2.029c-.905.139-1.651.818-1.9 1.729-.079.288-.079.863 0 1.151.227.83.854 1.46 1.674 1.681.311.084.846.084 1.159.001a2.34 2.34 0 0 0 1.684-1.689 2.6 2.6 0 0 0 0-1.142 2.35 2.35 0 0 0-1.682-1.683 3 3 0 0 0-.935-.048m8.466.681c-.126.038-.394.301-4.911 4.819-4.686 4.686-4.779 4.78-4.82 4.923a.6.6 0 0 0-.002.422.67.67 0 0 0 .419.419.6.6 0 0 0 .422-.002c.143-.041.237-.134 4.923-4.82s4.779-4.78 4.82-4.923a.6.6 0 0 0 .002-.422.67.67 0 0 0-.853-.416m-7.691.722q.327.155.488.488c.074.155.083.199.083.413s-.009.26-.083.414c-.104.22-.27.386-.49.49-.154.074-.2.083-.414.083s-.259-.009-.413-.083a1 1 0 0 1-.491-.49c-.073-.154-.082-.2-.082-.414s.009-.259.082-.413c.243-.509.822-.724 1.32-.488m6.559 5.931c-.906.139-1.654.819-1.901 1.728-.078.287-.078.864 0 1.151a2.35 2.35 0 0 0 1.686 1.682c.18.048.299.06.574.06s.393-.012.573-.06a2.34 2.34 0 0 0 1.685-1.688 2.6 2.6 0 0 0-.001-1.143 2.34 2.34 0 0 0-1.682-1.683 3 3 0 0 0-.934-.047m.774 1.402c.218.102.384.268.489.488.073.154.082.2.082.414s-.009.259-.082.413q-.16.332-.491.491c-.154.073-.2.082-.413.082-.214 0-.26-.009-.414-.082a1 1 0 0 1-.49-.491c-.074-.154-.083-.2-.083-.413 0-.214.009-.26.083-.414.242-.509.82-.723 1.319-.488"/></svg>