<svg xmlns="http://www.w3.org/2000/svg" viewBox="0 0 16 16" fill="currentColor"><path fill-rule="evenodd" d="M2.28.544c-.19.06-.339.152-.475.292a1.02 1.02 0 0 0-.287.584c-.031.22-.031 12.94 0 13.16.052.358.276.657.608.814l.181.086H12.76l.175-.083c.212-.1.42-.301.515-.496.041-.083.081-.229.097-.354.019-.145.026-2.008.021-5.76L13.56 3.24l-.071-.12C13.384 2.944 11.025.6 10.901.548c-.088-.037-.563-.041-4.307-.04-3.32.002-4.23.009-4.314.036M10 2.4l.013.893.071.15c.141.302.424.532.737.598.131.028.388.038.959.039h.78l-.007 5.207-.006 5.206H2.52l-.007-6.466c-.004-3.557-.001-6.482.006-6.5.01-.027.772-.032 3.74-.027l3.728.007zm2.053.673c0 .024-.963.028-1.024.004-.037-.014-.042-.088-.042-.553v-.537l.533.533c.293.293.533.542.533.553m-4.671.339a.54.54 0 0 0-.29.208c-.063.092-.066.115-.074.609l-.008.512-.445.01c-.482.011-.537.026-.677.173a.45.45 0 0 0-.128.329c0 .134.039.235.128.329.14.148.195.162.679.173l.446.01v.423c0 .45.016.528.129.648a.44.44 0 0 0 .365.151c.161 0 .259-.039.352-.138.119-.128.141-.234.141-.672v-.412l.5-.009c.562-.01.606-.023.764-.218.074-.093.083-.121.083-.285s-.009-.192-.083-.284c-.158-.195-.202-.208-.762-.218l-.498-.009-.009-.515-.008-.516-.083-.102a.8.8 0 0 0-.16-.146.55.55 0 0 0-.362-.051M3.67 9.29a.46.46 0 0 0-.23.417c0 .185.063.307.212.413l.113.08h7.532l.111-.073c.303-.201.29-.669-.023-.845l-.099-.055H3.773zm.063 2.42a.6.6 0 0 0-.255.242c-.048.092-.049.317-.002.43.046.11.178.222.305.259.069.019 1.039.026 3.168.02l3.068-.008.094-.064a.45.45 0 0 0 .222-.415q0-.312-.26-.437l-.117-.057-3.078.002c-1.973.001-3.102.011-3.145.028"/></svg>