<svg xmlns="http://www.w3.org/2000/svg" viewBox="0 0 16 16" fill="currentColor"><path fill-rule="evenodd" d="M9.866.025a.65.65 0 0 0-.488.642.56.56 0 0 0 .178.449c.125.133.253.186.556.233a5.5 5.5 0 0 1 2.565 1.098c.243.193.683.633.876.876.569.719.95 1.608 1.099 2.567.049.315.103.438.244.563.134.117.247.16.419.16.26 0 .445-.1.58-.313.104-.165.117-.294.065-.635-.297-1.915-1.324-3.534-2.907-4.584A6.5 6.5 0 0 0 10.4.052c-.327-.054-.427-.059-.534-.027M2.413.696C1.386.892.695 1.763.755 2.786c.019.316.1.883.194 1.347A13.3 13.3 0 0 0 2.104 7.52C3.215 9.747 4.83 11.607 6.8 12.925c1.878 1.256 3.767 1.987 5.92 2.289.545.077.728.081 1.008.024.83-.17 1.435-.808 1.579-1.665q.03-.175.02-1.427c-.009-1.094-.016-1.273-.057-1.413-.157-.542-.551-1.026-1.03-1.266-.22-.11-.373-.153-.813-.228a8 8 0 0 1-1.399-.355l-.441-.15-.4.001c-.362.001-.421.008-.614.072-.344.115-.586.276-.957.635l-.333.321-.075-.047C8.24 9.098 7.213 8.112 6.53 7.147a14 14 0 0 1-.245-.355l-.048-.075.324-.337c.36-.375.517-.612.632-.953.065-.195.071-.249.07-.614l-.001-.4-.15-.448a8 8 0 0 1-.351-1.392c-.079-.46-.119-.599-.244-.84a2.03 2.03 0 0 0-.904-.867C5.242.683 5.246.683 3.827.677 3.099.674 2.489.682 2.413.696m2.644 1.376a.75.75 0 0 1 .324.374c.016.056.055.251.086.434.077.462.193.927.353 1.413.229.699.228.702-.447 1.387-.573.581-.632.667-.635.925-.001.19.042.288.33.749a11.5 11.5 0 0 0 3.578 3.578c.438.274.56.328.75.329.253.002.341-.058.912-.623.329-.325.544-.518.611-.546.18-.075.34-.057.788.089.488.159.953.275 1.413.352.183.031.378.07.434.086.13.039.299.185.374.324.058.109.059.122.059 1.324 0 1.2-.001 1.214-.059 1.323a.7.7 0 0 1-.574.356c-.16.001-.625-.063-1.087-.149-2.11-.392-4.221-1.424-5.92-2.894C4.448 9.262 3.008 6.928 2.4 4.507c-.169-.672-.321-1.558-.319-1.864a.66.66 0 0 1 .386-.58l.133-.064 1.173.007c1.154.007 1.176.008 1.284.066m4.784.626c-.47.135-.622.761-.268 1.107.101.099.202.143.534.234.904.25 1.604.95 1.854 1.854.091.332.135.433.234.534.254.26.683.264.934.011.194-.196.234-.399.15-.758a3.85 3.85 0 0 0-1.064-1.895 3.8 3.8 0 0 0-1.838-1.051c-.283-.072-.388-.079-.536-.036"/></svg>