<svg xmlns="http://www.w3.org/2000/svg" viewBox="0 0 16 16" fill="currentColor"><path fill-rule="evenodd" d="M15.107.044c-.127.038-.52.426-7.578 7.485-7.32 7.32-7.446 7.447-7.487 7.589-.052.181-.053.25-.001.422a.67.67 0 0 0 .419.419.6.6 0 0 0 .422-.001c.14-.041.207-.104 2.257-2.152l2.113-2.11.061.054a14.5 14.5 0 0 0 5.02 2.898c.983.32 2.406.605 3.021.605.741 0 1.436-.435 1.764-1.104.204-.416.202-.398.202-1.896 0-1.483 0-1.483-.187-1.865a2 2 0 0 0-.866-.905c-.241-.125-.38-.165-.84-.244a8 8 0 0 1-1.399-.355l-.441-.15-.4.001c-.362.001-.421.008-.614.072-.344.115-.586.276-.957.635l-.333.321-.075-.047a13 13 0 0 1-.841-.62l-.286-.229 3.918-3.92c3.833-3.836 3.918-3.923 3.959-4.065.052-.181.053-.25.001-.422a.666.666 0 0 0-.852-.416M2.368.706A1.99 1.99 0 0 0 .789 2.272c-.056.271-.053.463.012.942a13.8 13.8 0 0 0 1.932 5.413c.219.357.282.429.454.509.389.185.821-.039.918-.476.046-.205 0-.332-.301-.834a12.5 12.5 0 0 1-1.563-4.042c-.094-.492-.161-.966-.161-1.138a.68.68 0 0 1 .431-.604c.103-.039.246-.043 1.276-.036 1.139.007 1.162.008 1.27.066a.75.75 0 0 1 .324.374c.016.056.055.251.086.434.077.462.193.927.353 1.413.229.7.229.7-.459 1.4-.307.313-.544.577-.572.638a.8.8 0 0 0-.004.536.65.65 0 0 0 .617.393c.262 0 .364-.072.956-.675.568-.578.703-.765.835-1.158.065-.195.071-.249.07-.614l-.001-.4-.15-.448a8 8 0 0 1-.351-1.392c-.079-.46-.119-.599-.244-.84a2.03 2.03 0 0 0-.904-.867c-.37-.183-.368-.182-1.786-.19-.997-.005-1.32.002-1.459.03m5.051 9.337c.493.412 1.319.979 1.673 1.148a.68.68 0 0 0 .588.01c.073-.037.318-.257.628-.563.329-.325.544-.518.611-.546.18-.075.34-.057.788.089.488.159.953.275 1.413.352.183.031.378.07.434.086.13.039.299.185.374.324.058.108.059.131.066 1.27.009 1.28.008 1.292-.159 1.482-.208.237-.359.266-.95.183-1.927-.27-3.625-.93-5.338-2.073-.453-.302-1.334-.998-1.334-1.054 0-.015.911-.938.926-.938.004 0 .13.104.28.23"/></svg>