<svg xmlns="http://www.w3.org/2000/svg" viewBox="0 0 16 16" fill="currentColor"><path fill-rule="evenodd" d="M2.368.706A1.99 1.99 0 0 0 .789 2.272c-.053.257-.053.466-.002.867a13.7 13.7 0 0 0 1.382 4.514c1.115 2.173 2.705 3.983 4.631 5.272 1.878 1.256 3.767 1.987 5.92 2.289.545.077.728.081 1.008.024.83-.17 1.435-.808 1.579-1.665q.03-.175.02-1.427c-.009-1.094-.016-1.273-.057-1.413-.157-.542-.551-1.026-1.03-1.266-.22-.11-.373-.153-.813-.228a8 8 0 0 1-1.399-.355l-.441-.15-.4.001c-.362.001-.421.008-.614.072-.344.115-.586.276-.957.635l-.333.321-.075-.047C8.24 9.098 7.213 8.112 6.53 7.147a14 14 0 0 1-.245-.355l-.048-.075.324-.337c.36-.375.517-.612.632-.953.065-.195.071-.249.07-.614l-.001-.4-.15-.448a8 8 0 0 1-.351-1.392c-.079-.46-.119-.599-.244-.84a2.03 2.03 0 0 0-.904-.867c-.37-.183-.368-.182-1.786-.19-.997-.005-1.32.002-1.459.03m2.689 1.366a.75.75 0 0 1 .324.374c.016.056.055.251.086.434.077.462.193.927.353 1.413.229.699.228.702-.447 1.387-.573.581-.632.667-.635.925-.001.19.042.288.33.749a11.5 11.5 0 0 0 3.578 3.578c.438.274.56.328.75.329.253.002.341-.058.912-.623.329-.325.544-.518.611-.546.18-.075.34-.057.788.089.488.159.953.275 1.413.352.183.031.378.07.434.086.13.039.299.185.374.324.058.109.059.122.059 1.324 0 1.2-.001 1.214-.059 1.323a.7.7 0 0 1-.574.356c-.16.001-.625-.063-1.087-.149-2.11-.392-4.221-1.424-5.92-2.894C4.448 9.262 3.008 6.928 2.4 4.507c-.169-.672-.321-1.558-.319-1.864a.66.66 0 0 1 .386-.58l.133-.064 1.173.007c1.154.007 1.176.008 1.284.066"/></svg>