<svg xmlns="http://www.w3.org/2000/svg" viewBox="0 0 16 16" fill="currentColor"><path fill-rule="evenodd" d="M1.57 1.05a.83.83 0 0 0-.559.686c-.03.183.008.931.071 1.424.31 2.406 1.537 4.929 3.425 7.04.644.72 1.604 1.604 2.36 2.173 1.822 1.371 4.014 2.303 5.993 2.547.535.066 1.236.098 1.42.064a.84.84 0 0 0 .651-.503l.069-.148v-3.041l-.088-.178a.93.93 0 0 0-.419-.427c-.128-.066-2.489-.554-2.681-.554a1.3 1.3 0 0 0-.572.14c-.135.067-.31.231-1.137 1.07l-.977.99-.116-.064a17 17 0 0 1-.477-.289c-1.837-1.15-3.52-2.836-4.581-4.592l-.249-.412.435-.428 1.019-1.001c.679-.666.713-.718.731-1.094.009-.202-.018-.368-.244-1.525-.139-.714-.277-1.352-.307-1.418a1 1 0 0 0-.438-.431l-.139-.065-1.547.001c-1.195 0-1.568.009-1.643.035m9.71 1.19v1.227H8.827V4.72h2.453v2.453h1.253V4.721l1.234-.007L15 4.707V3.48l-1.233-.007-1.234-.007V1.013H11.28zm-7.058.033c.033.025.092.276.231.994.103.528.187.986.187 1.018 0 .041-.213.261-.74.765-.407.389-.752.709-.766.711-.07.011-.434-1.018-.601-1.694-.17-.695-.315-1.678-.262-1.78.022-.043.096-.047.965-.047.71 0 .952.008.986.033m8.551 9.289c.477.097.894.194.927.215l.061.038-.007.936c-.007.845-.012.939-.052.965-.032.02-.148.019-.401-.004a10.2 10.2 0 0 1-2.168-.459c-.291-.1-.809-.308-.838-.337-.007-.006.329-.353.746-.77.487-.487.778-.759.812-.76.03 0 .444.079.92.176"/></svg>