<svg xmlns="http://www.w3.org/2000/svg" viewBox="0 0 16 16" fill="currentColor"><path fill-rule="evenodd" d="M7.782.707a.7.7 0 0 0-.408.419c-.035.12-.041.571-.041 3.541 0 3.838-.013 3.582.202 3.798.216.215-.04.202 3.798.202s3.582.013 3.799-.203c.179-.179.214-.322.19-.783-.078-1.531-.563-2.871-1.494-4.128-.278-.374-1.007-1.103-1.381-1.381C11.179 1.233 9.8.738 8.293.681 7.99.67 7.88.675 7.782.707m-2.824.622C3.73 1.876 2.674 2.783 1.88 3.973 1.267 4.892.893 5.898.729 7.069c-.071.508-.065 1.465.014 1.967a7.4 7.4 0 0 0 1.54 3.551c.23.29.837.897 1.13 1.13 1.187.945 2.588 1.484 4.139 1.592a7.3 7.3 0 0 0 4.003-.905 7.33 7.33 0 0 0 3.116-3.373c.123-.267.153-.444.105-.62-.125-.464-.741-.631-1.092-.296-.055.051-.151.214-.245.412a6 6 0 0 1-7.656 3.045 5.8 5.8 0 0 1-2.057-1.375 5.4 5.4 0 0 1-1.089-1.522 6 6 0 0 1-.449-4.174 6.1 6.1 0 0 1 .973-2.047 5.96 5.96 0 0 1 2.187-1.835c.204-.103.406-.221.448-.262a.65.65 0 0 0 .168-.653.64.64 0 0 0-.343-.408c-.206-.103-.375-.095-.663.033m4.236.794c.47.092.999.275 1.459.503a5.6 5.6 0 0 1 1.586 1.135c.492.493.823.955 1.135 1.586a6.4 6.4 0 0 1 .582 1.886l.014.1H8.667V2.03l.1.014c.055.008.247.044.427.079"/></svg>