<svg xmlns="http://www.w3.org/2000/svg" viewBox="0 0 16 16" fill="currentColor"><path fill-rule="evenodd" d="M7.138 1.054a7.07 7.07 0 0 0-4 1.906c-.962.911-1.699 2.236-1.988 3.576a7.8 7.8 0 0 0-.098 2.328 7 7 0 0 0 3.818 5.397 6.8 6.8 0 0 0 3.13.732 6.7 6.7 0 0 0 2.56-.478 7 7 0 0 0 3.955-3.955A6.7 6.7 0 0 0 14.993 8a6.7 6.7 0 0 0-.478-2.56 6.97 6.97 0 0 0-3.408-3.707 6.5 6.5 0 0 0-2.273-.68 10 10 0 0 0-1.696.001M8.7 6.427c1.324.851 2.41 1.557 2.414 1.57.007.02-4.792 3.123-4.831 3.123-.009 0-.016-1.404-.016-3.12s.006-3.12.013-3.12 1.096.696 2.42 1.547"/></svg>