<svg xmlns="http://www.w3.org/2000/svg" viewBox="0 0 16 16" fill="currentColor"><path fill-rule="evenodd" d="M7.782 2.709a.69.69 0 0 0-.408.417c-.035.117-.041.428-.041 2.172v2.035H5.298c-2.311 0-2.22-.007-2.429.202A.7.7 0 0 0 2.667 8c0 .158.08.343.202.465.209.209.118.202 2.429.202h2.035v2.035c0 2.311-.007 2.22.202 2.429a.7.7 0 0 0 .465.202c.158 0 .343-.08.465-.202.209-.209.202-.118.202-2.429V8.667h2.035c2.311 0 2.22.007 2.429-.202A.7.7 0 0 0 13.333 8a.7.7 0 0 0-.202-.465c-.209-.209-.118-.202-2.429-.202H8.667V5.298c0-2.311.007-2.22-.202-2.429a.64.64 0 0 0-.683-.16"/></svg>