<svg xmlns="http://www.w3.org/2000/svg" viewBox="0 0 16 16" fill="currentColor"><path fill-rule="evenodd" d="M3.004 1.361c-.43.073-.733.234-1.071.572-.346.346-.499.638-.573 1.089-.036.226-.036 9.73 0 9.956.074.451.227.743.573 1.089s.638.499 1.089.573c.226.036 9.73.036 9.956 0 .451-.074.743-.227 1.089-.573s.499-.638.573-1.089c.036-.226.036-9.73 0-9.956-.074-.451-.227-.743-.573-1.089s-.638-.499-1.089-.573c-.2-.032-9.78-.031-9.974.001m9.883 1.344a.7.7 0 0 1 .359.303l.074.125v9.734l-.074.125a.7.7 0 0 1-.359.303c-.149.053-9.625.053-9.774 0a.7.7 0 0 1-.359-.303l-.074-.125V3.133l.074-.125a.7.7 0 0 1 .359-.303c.149-.053 9.625-.053 9.774 0M7.782 4.709a.6.6 0 0 0-.246.159c-.198.198-.203.232-.203 1.43v1.035H6.298c-1.198 0-1.232.005-1.429.202A.7.7 0 0 0 4.667 8c0 .158.08.343.202.465.197.197.231.202 1.429.202h1.035v1.035c0 1.198.005 1.232.202 1.429a.7.7 0 0 0 .465.202c.158 0 .343-.08.465-.202.197-.197.202-.231.202-1.429V8.667h1.035c1.198 0 1.232-.005 1.429-.202A.7.7 0 0 0 11.333 8a.7.7 0 0 0-.202-.465c-.197-.197-.231-.202-1.429-.202H8.667V6.298c0-1.198-.005-1.232-.202-1.429a.64.64 0 0 0-.683-.16"/></svg>