<svg xmlns="http://www.w3.org/2000/svg" viewBox="0 0 16 16" fill="currentColor"><path fill-rule="evenodd" d="M2.338 1.361c-.431.073-.733.234-1.072.572-.35.351-.503.644-.575 1.109-.018.119-.024.987-.018 2.576C.683 7.901.686 8.03.74 8.36c.142.876.339 1.507.701 2.24a7.38 7.38 0 0 0 3.613 3.443 7.3 7.3 0 0 0 6.213-.15 6.9 6.9 0 0 0 1.907-1.385c1.157-1.157 1.812-2.459 2.086-4.148.054-.33.057-.459.067-2.742.006-1.589 0-2.457-.018-2.576-.072-.465-.225-.758-.575-1.109-.346-.346-.638-.499-1.089-.573-.201-.032-11.113-.031-11.307.001m11.215 1.344a.7.7 0 0 1 .36.303l.074.125.008 2.227c.008 2.365 0 2.592-.116 3.167-.313 1.551-1.244 2.925-2.594 3.828-.334.223-.975.53-1.394.67a6 6 0 0 1-5.627-.998 7 7 0 0 1-.957-.958 6.2 6.2 0 0 1-1.185-2.538c-.117-.58-.125-.804-.117-3.171l.008-2.227.074-.125a.7.7 0 0 1 .36-.303c.148-.053 10.958-.053 11.106 0M5.115 6.042a.69.69 0 0 0-.408.418.6.6 0 0 0 .002.422c.041.14.093.196 1.487 1.589 1.393 1.393 1.449 1.446 1.589 1.487a.6.6 0 0 0 .43 0c.14-.041.196-.094 1.589-1.487s1.446-1.449 1.487-1.589a.6.6 0 0 0 .002-.422.67.67 0 0 0-.419-.419.6.6 0 0 0-.422.002c-.139.04-.196.093-1.299 1.192L8 8.385l-1.153-1.15c-1.103-1.099-1.16-1.152-1.299-1.192a.63.63 0 0 0-.433-.001"/></svg>