<svg xmlns="http://www.w3.org/2000/svg" viewBox="0 0 16 16" fill="currentColor"><path fill-rule="evenodd" d="M7.782.709a.69.69 0 0 0-.408.417c-.035.12-.041.571-.041 3.541s.006 3.421.041 3.54c.075.252.358.46.626.46a.69.69 0 0 0 .626-.46c.035-.119.041-.571.041-3.54 0-3.838.013-3.583-.202-3.798a.64.64 0 0 0-.683-.16M3.533 3.803c-.104.033-.177.087-.334.246a6.7 6.7 0 0 0-1.69 3.111c-.132.587-.162.864-.161 1.533.001.702.034.984.184 1.58.431 1.708 1.438 3.091 2.95 4.05 1.429.908 3.2 1.217 4.918.859a6.64 6.64 0 0 0 3.333-1.833 6.2 6.2 0 0 0 1.215-1.696c.643-1.297.851-2.649.623-4.04-.225-1.374-.838-2.603-1.777-3.564-.165-.169-.225-.212-.342-.247a.58.58 0 0 0-.419-.001.67.67 0 0 0-.419.419c-.085.285-.031.468.219.742.671.736 1.031 1.356 1.276 2.198a5.26 5.26 0 0 1-.322 3.84 4.9 4.9 0 0 1-1.07 1.482c-.453.44-.867.728-1.437.999a5 5 0 0 1-1.413.455c-.414.075-1.358.07-1.789-.009-1.683-.31-3.097-1.362-3.837-2.856-.434-.875-.595-1.599-.567-2.546.039-1.341.514-2.509 1.416-3.482.247-.267.315-.4.315-.616a.654.654 0 0 0-.872-.624"/></svg>