<svg xmlns="http://www.w3.org/2000/svg" viewBox="0 0 16 16" fill="currentColor"><path fill-rule="evenodd" d="M1.783.568a1.1 1.1 0 0 0-.673.602l-.083.177-.007 6.532c-.006 5.968-.003 6.544.036 6.667.097.3.32.548.619.69l.178.084 2.783.007 2.783.007-.152-.138a6 6 0 0 1-.701-.829l-.12-.18H2.16V1.653h7.227v.7c0 .385.012.771.026.857.06.37.294.683.634.849l.18.088.853.013.853.013.007 1.096.007 1.095.28.07c.154.039.408.12.564.179.157.059.289.107.294.107.004 0 .008-.78.008-1.734 0-1.469-.006-1.749-.039-1.829C12.997 3.02 10.629.678 10.449.58l-.135-.073H6.137L1.96.508zm9.164 2.072.372.373h-.759V2.64c0-.205.003-.373.007-.373s.175.168.38.373M3.318 6.438a.54.54 0 0 0-.345.292.56.56 0 0 0 .259.766c.095.049.185.051 2.168.051h2.07l.178-.144a5.5 5.5 0 0 1 1.659-.881l.36-.119h-3.12c-2.457.001-3.143.008-3.229.035M10.6 7.442a3.86 3.86 0 0 0-2.307.92 3.97 3.97 0 0 0-1.406 2.398c-.068.37-.061 1.088.015 1.473.177.896.602 1.628 1.307 2.255a3.93 3.93 0 0 0 1.842.928c.367.08 1.086.099 1.489.039.879-.128 1.579-.476 2.23-1.106.828-.802 1.224-1.736 1.223-2.882-.001-.823-.193-1.51-.597-2.136-.71-1.099-1.889-1.817-3.086-1.88a13 13 0 0 1-.337-.02 4 4 0 0 0-.373.011m.706 2.618-.001 1.233.848.833.847.832-.28.267a4 4 0 0 1-.295.267 38 38 0 0 1-.967-.934l-.951-.936V8.827h.8zm-7.853-.793a1 1 0 0 1-.122.025c-.123.02-.311.18-.374.32a.57.57 0 0 0 0 .456c.062.136.248.298.374.325.053.011.622.02 1.266.02h1.17l.085-.306a5.5 5.5 0 0 1 .265-.754l.044-.1-1.341.002a56 56 0 0 0-1.367.012m-.137 2.611a.51.51 0 0 0-.34.287.555.555 0 0 0 .107.667c.166.155.161.155 1.545.155 1.196 0 1.268-.003 1.255-.047a5.6 5.6 0 0 1-.19-.947l-.017-.153-1.125.002c-.844.001-1.152.01-1.235.036"/></svg>