<svg xmlns="http://www.w3.org/2000/svg" viewBox="0 0 16 16" fill="currentColor"><path fill-rule="evenodd" d="M2.716 1.05c-.273.098-.51.313-.632.572l-.071.151v12.454l.072.153c.147.313.442.542.78.604.157.029 4.762.045 4.762.016 0-.007-.093-.136-.207-.286a5 5 0 0 1-.327-.493l-.12-.219-1.98-.001L3.013 14V2h6.849l.01.78c.01.736.014.789.072.934.11.28.334.508.608.619.115.046.211.053.921.061l.793.01.007 1.641.007 1.642.173.058c.214.073.571.23.695.305.05.031.101.057.112.057s.02-1.011.019-2.247c0-2.141-.003-2.252-.05-2.353-.062-.132-2.353-2.424-2.464-2.466-.121-.045-7.922-.036-8.049.009m8.604 1.91.426.427h-.866V2.96c0-.235.003-.427.007-.427s.199.192.433.427M4.093 6.653a.47.47 0 0 0-.293.456q0 .309.26.434l.117.057h2.931c2.5-.001 2.967-.007 3.172-.042a7 7 0 0 1 .634-.056c.394-.017.395-.017.46-.094a.47.47 0 0 0 .096-.393.48.48 0 0 0-.207-.313l-.099-.075-3.495-.006c-2.967-.005-3.508 0-3.576.032m6.374 1.891c-1.504.253-2.65 1.376-2.912 2.854a4.4 4.4 0 0 0 0 1.204c.252 1.421 1.328 2.523 2.765 2.829.317.068 1.043.068 1.36 0 1.437-.306 2.513-1.408 2.765-2.829a4.4 4.4 0 0 0 0-1.204 3.52 3.52 0 0 0-2.738-2.824c-.275-.059-.965-.076-1.24-.03m-6.42.631a.51.51 0 0 0-.25.387c-.018.163.061.329.212.45l.103.081 1.405.008 1.406.007.065-.14c.083-.177.322-.561.441-.706a1 1 0 0 0 .091-.126c0-.009-.759-.015-1.687-.015-1.628.001-1.69.003-1.786.054m7.102.396.078.078v.537c0 .534-.001.537-.066.602a.21.21 0 0 1-.161.065.21.21 0 0 1-.161-.065c-.065-.065-.066-.068-.066-.602v-.537l.078-.078c.047-.047.106-.078.149-.078s.102.031.149.078m-1.277.983c.347.347.395.405.395.482 0 .123-.101.217-.234.217-.096 0-.124-.022-.481-.382-.341-.344-.379-.391-.379-.475 0-.099.035-.159.12-.205.129-.071.172-.044.579.363m2.83-.363c.088.047.123.106.124.208.001.084-.035.128-.38.473-.355.355-.388.381-.482.381-.13 0-.231-.095-.231-.217 0-.077.048-.135.395-.482.405-.405.446-.431.574-.363M4.175 11.63a.52.52 0 0 0-.388.471.55.55 0 0 0 .28.455c.07.039.223.045 1.277.052l1.197.008-.017-.125a6 6 0 0 1-.017-.508V11.6l-1.114.003c-.612.001-1.16.013-1.218.027m5.578.183c.15.091.15.282 0 .375-.08.049-.126.053-.598.046-.499-.007-.512-.009-.58-.072-.123-.116-.074-.322.092-.383.022-.008.256-.016.52-.017.432-.002.488.003.566.051m3.672.025a.2.2 0 0 1 .068.162.2.2 0 0 1-.068.162c-.068.063-.081.065-.58.072-.472.007-.518.003-.598-.046a.22.22 0 0 1-.103-.255.25.25 0 0 1 .103-.121c.08-.049.126-.053.598-.046.499.007.512.009.58.072m-3.224.974a.2.2 0 0 1 .066.151c0 .075-.049.136-.379.468-.208.21-.401.389-.429.398-.135.043-.286-.076-.286-.225 0-.084.037-.131.379-.475.357-.36.385-.382.481-.382.074 0 .121.018.168.065m2.247.317c.342.344.379.391.379.475 0 .147-.138.261-.276.226-.032-.008-.229-.187-.438-.398-.33-.333-.38-.394-.38-.469 0-.122.102-.216.234-.216.096 0 .124.022.481.382m-1.287.083c.065.065.066.068.066.602v.537l-.078.078c-.047.047-.106.078-.149.078s-.102-.031-.149-.078l-.078-.078v-.537c0-.534.001-.537.066-.602a.23.23 0 0 1 .322 0"/></svg>