<svg xmlns="http://www.w3.org/2000/svg" viewBox="0 0 16 16" fill="currentColor"><path fill-rule="evenodd" d="M2.716 1.05c-.273.098-.51.313-.632.572l-.071.151v12.454l.072.153c.15.321.451.549.797.605.18.029 4.745.042 4.745.013a3 3 0 0 0-.171-.233c-.17-.218-.427-.619-.457-.715-.015-.048-.079-.05-2.001-.05H3.013V2h6.849l.01.78c.01.736.014.789.072.934.11.28.334.508.608.619.115.046.211.053.921.061l.794.01v1.639c0 1.538.003 1.64.046 1.653.158.047.633.244.771.32.091.05.172.091.18.091s.016-1.011.015-2.247c0-2.141-.003-2.252-.05-2.353-.062-.132-2.353-2.424-2.464-2.466-.121-.045-7.922-.036-8.049.009m8.604 1.91.426.427h-.866V2.96c0-.235.003-.427.007-.427s.199.192.433.427M4.058 6.67q-.258.129-.258.437 0 .31.261.437l.118.057 3.024-.009c2.127-.007 3.071-.019 3.184-.04.088-.017.333-.036.545-.042.382-.011.387-.012.444-.084a.65.65 0 0 0 .117-.337c0-.11-.125-.324-.231-.396l-.098-.066-3.495-.007-3.496-.007zm6.439 1.866a3.7 3.7 0 0 0-1.393.528q-1.193.78-1.524 2.197c-.06.258-.069.359-.069.739s.009.481.069.739c.113.484.29.891.546 1.254.668.952 1.72 1.5 2.874 1.5a3.49 3.49 0 0 0 3.303-2.34c.133-.373.186-.701.186-1.153s-.053-.78-.186-1.153a3.48 3.48 0 0 0-3.33-2.337c-.176.002-.39.013-.476.026m-6.43.628a.46.46 0 0 0-.243.267.5.5 0 0 0 .198.598l.094.064 1.402.007 1.402.007.133-.255c.073-.14.208-.356.3-.48s.167-.232.167-.239-.759-.013-1.687-.012c-1.485.001-1.696.006-1.766.043m7.556.863c.208.058.457.174.63.294.059.04.269.225.467.41l.36.336.013-.398c.012-.341.021-.405.064-.453.067-.073.211-.074.283-.003.051.051.053.089.053.731 0 .626-.003.681-.051.74-.05.062-.053.063-.72.071l-.67.008-.079-.08c-.094-.093-.1-.157-.024-.253.055-.07.056-.07.442-.07.213 0 .383-.01.378-.021-.025-.061-.712-.672-.848-.755a1.46 1.46 0 0 0-.801-.222c-.294.001-.484.041-.704.149a1.56 1.56 0 0 0-.753.742c-.126.257-.158.294-.265.294a.16.16 0 0 1-.143-.071c-.073-.092-.07-.138.022-.34a2.01 2.01 0 0 1 1.536-1.164c.198-.033.589-.006.81.055m-7.396 1.59-.112.024c-.155.033-.327.277-.327.466a.6.6 0 0 0 .162.365c.151.139.174.141 1.426.141h1.165l-.017-.164a6 6 0 0 1-.017-.506V11.6l-1.114.003c-.612.002-1.137.008-1.166.014m6.013.596c.067.068.068.189.002.271-.048.059-.071.063-.431.076l-.381.013.339.32c.547.517.802.64 1.324.64.254 0 .342-.011.507-.065.406-.133.755-.444.95-.848.132-.271.227-.328.366-.218.101.079.092.19-.035.442a2 2 0 0 1-1.228 1.027c-.265.083-.83.089-1.08.011-.415-.128-.61-.255-1.106-.722l-.36-.338-.014.409c-.007.225-.023.425-.036.444-.04.062-.153.09-.232.058-.121-.051-.132-.114-.132-.797 0-.603.003-.639.056-.706l.055-.07h.691c.656 0 .694.003.745.053"/></svg>