<svg xmlns="http://www.w3.org/2000/svg" viewBox="0 0 16 16" fill="currentColor"><path fill-rule="evenodd" d="M3.446.053a.5.5 0 0 0-.139.14c-.053.086-.053.144-.054 4.814v4.726H1.771c-1.33 0-1.493.005-1.577.045a.336.336 0 0 0-.144.477c.033.054 1.393 1.047 3.978 2.903 2.16 1.551 3.948 2.824 3.972 2.829.058.011 7.862-5.588 7.94-5.698a.33.33 0 0 0 .006-.364c-.102-.167-.083-.165-1.732-.165H12.72V5.02c0-4.683-.001-4.741-.053-4.827a.5.5 0 0 0-.14-.14C12.441.001 12.383 0 7.987 0 3.59 0 3.532.001 3.446.053m8.581 5.38c0 4.654.001 4.742.052 4.826.103.169.095.168 1.333.168.617 0 1.121.009 1.12.02-.003.033-6.501 4.686-6.544 4.686-.039 0-6.451-4.605-6.482-4.655-.01-.015.412-.025 1.095-.025 1.23 0 1.246-.002 1.349-.171.048-.079.05-.232.05-4.835V.693h8.027zM7.56 3.682a3.37 3.37 0 0 0-2.855 2.745c-.06.343-.041 1.038.037 1.346a3.35 3.35 0 0 0 1.959 2.305c1.966.837 4.223-.39 4.591-2.496a4.3 4.3 0 0 0 0-1.169 3.4 3.4 0 0 0-.779-1.618 3.37 3.37 0 0 0-1.86-1.075 4.6 4.6 0 0 0-1.093-.038m.877.705c.288.05.505.123.768.258.274.141.424.251.655.48.342.338.547.684.69 1.161.094.315.118.877.052 1.205a2.7 2.7 0 0 1-.587 1.222c-.798.928-2.099 1.201-3.175.667-.705-.35-1.193-.954-1.417-1.753-.039-.137-.049-.27-.049-.627s.01-.49.049-.627c.138-.494.365-.897.688-1.224a2.63 2.63 0 0 1 2.326-.762m-.49.939c-.093.033-.134.097-.134.208 0 .108-.004.114-.117.157-.357.136-.536.605-.365.958.06.124.107.163.409.348l.073.044v.438c0 .272-.01.444-.027.455-.015.009-.107-.02-.203-.065-.208-.098-.222-.099-.313-.027a.185.185 0 0 0-.01.284c.088.08.266.163.419.196l.134.029v.114c0 .135.067.211.187.211.121 0 .187-.076.187-.214 0-.115.001-.117.153-.188a.82.82 0 0 0 .487-.776c0-.321-.141-.522-.474-.678l-.166-.078v-.345c0-.189.009-.344.02-.344s.062.026.113.058c.174.106.347.039.347-.136 0-.119-.153-.236-.434-.331-.033-.011-.046-.044-.046-.119 0-.139-.123-.241-.24-.199m-.146 1.229c-.008.008-.044-.014-.081-.048-.098-.093-.084-.273.031-.388.048-.047.049-.042.057.186.004.129.001.242-.007.25m.545.724c.09.096.114.201.077.338-.026.096-.166.276-.215.276-.012 0-.021-.156-.021-.346 0-.389.018-.419.159-.268"/></svg>