<svg xmlns="http://www.w3.org/2000/svg" viewBox="0 0 16 16" fill="currentColor"><path d="M2.17 1.061c-.108.087-.117.142-.117.723v.562l.078.087.078.087 2.563.007c2.822.008 2.673.016 2.762-.156.035-.067.041-.172.034-.641l-.008-.561-.087-.078-.087-.078-2.58.001c-2.404 0-2.583.004-2.636.047m.523.712v.36h-.4v-.72h.4zm.934 0v.36h-.4v-.72h.4zm.933 0v.36h-.4v-.72h.4zm.907 0v.36h-.4v-.72h.4zm.933 0v.36H6v-.72h.4zm.907 0v.36h-.4v-.72h.4zM2.693 3.942c0 .766-.008 1.018-.033 1.051-.018.023-.399.332-.847.687-.702.557-.813.654-.813.715v.072l3.808.006 3.809.007-.009-.086c-.007-.078-.084-.146-.821-.73-.448-.355-.828-.673-.847-.708-.024-.046-.033-.317-.033-1.043v-.98H2.693zM.987 9.893v3.014h5.268l.865-1.5c1.108-1.924 1.112-1.93 1.32-2.121l.173-.159V6.88H.987zm4.266-1.31c0 .684.003.72.056.787l.055.07h1.489v.907H5.364l-.055.07c-.053.067-.056.102-.056.8v.73h-.877l-.008-.749-.008-.749-.063-.051c-.058-.048-.114-.051-.793-.051h-.731V9.44h.743c.721 0 .744-.002.793-.056.047-.052.052-.112.059-.787l.008-.73h.877zm4.042.729a1.3 1.3 0 0 0-.328.1c-.282.132-.395.275-.874 1.108-.234.408-.43.757-.434.774-.007.028 1.914 1.161 1.963 1.158.038-.002.909-1.566.949-1.704a1.16 1.16 0 0 0-.313-1.141 1.15 1.15 0 0 0-.963-.295m-2.307 3.13c-.241.419-.461.83-.489.913a1.153 1.153 0 0 0 .983 1.483c.172.024.477-.039.653-.135.252-.137.359-.278.835-1.102.248-.427.445-.782.439-.787-.02-.02-1.954-1.134-1.969-1.134-.008 0-.212.343-.452.762m2.94.311c-.014.019-.22.372-.458.785l-.433.752.057.111c.122.239.38.452.666.549.132.045.239.05 1.08.05h.933l.007-1.14.007-1.14h-.917c-.702 0-.923.008-.942.033m2.238 1.106L12.173 15h.934c.842 0 .947-.005 1.08-.05.719-.245 1.023-1.039.647-1.689-.088-.153-.322-.361-.507-.452l-.154-.076-1.007-.008-1.007-.007zM.998 13.336c-.026.042.011.385.059.556.142.501.542.88 1.059 1.002.136.032.534.039 2.341.039h2.177l-.153-.159c-.309-.32-.44-.683-.422-1.167l.011-.3H3.543c-1.806 0-2.532.008-2.545.029"/></svg>