<svg xmlns="http://www.w3.org/2000/svg" viewBox="0 0 16 16" fill="currentColor"><path fill-rule="evenodd" d="M7.227 1.043a6.6 6.6 0 0 0-2.28.677A7 7 0 0 0 1.04 7.227a10 10 0 0 0-.002 1.533 7.05 7.05 0 0 0 1.384 3.453c.297.4.965 1.068 1.365 1.365a7.05 7.05 0 0 0 3.453 1.384c.343.04 1.176.04 1.52 0 1.609-.185 3.016-.869 4.175-2.027a6.5 6.5 0 0 0 1.305-1.79 6.7 6.7 0 0 0 .746-2.745c.025-.421.009-.565-.082-.711-.157-.254-.567-.309-.81-.11-.141.117-.199.259-.2.488a6.1 6.1 0 0 1-.454 2.245c-.293.692-.68 1.251-1.278 1.85-.546.546-.968.856-1.562 1.146a5.7 5.7 0 0 1-1.669.524c-.39.063-1.472.063-1.862 0a5.7 5.7 0 0 1-2.628-1.12c-.308-.232-.956-.891-1.205-1.226-.669-.898-1.023-1.867-1.108-3.039-.07-.971.079-1.925.429-2.752.296-.699.681-1.257 1.281-1.857s1.158-.985 1.857-1.281a6 6 0 0 1 2.233-.45c.305 0 .512-.132.594-.38.084-.253-.032-.546-.261-.656-.103-.051-.16-.057-.463-.054a8 8 0 0 0-.571.026"/></svg>