<svg xmlns="http://www.w3.org/2000/svg" viewBox="0 0 16 16" fill="currentColor"><path fill-rule="evenodd" d="M2 2.048c-.447.117-.817.503-.953.995C1.003 3.203 1 3.508 1 8c0 5.331-.014 4.925.18 5.288.105.197.361.461.542.558C2.029 14.01 1.616 14 8 14c5.151 0 5.847-.005 5.986-.041.454-.118.831-.509.967-1.002.044-.16.047-.465.047-4.957 0-5.331.014-4.925-.18-5.288a1.64 1.64 0 0 0-.543-.558c-.302-.162.07-.153-6.29-.152-5.382.001-5.827.004-5.987.046m11.893 6.674v3.922l-.078.078-.078.078H2.263l-.078-.078-.078-.078V4.8h11.786zM4.467 6.184a.61.61 0 0 0-.279.806c.031.059.403.484.827.944s.772.85.772.865-.339.401-.753.857c-.415.455-.776.863-.803.906-.179.282-.07.696.222.847.097.05.149.059.27.049a.6.6 0 0 0 .225-.061c.041-.027.512-.523 1.047-1.103 1.07-1.16 1.098-1.198 1.098-1.494a.65.65 0 0 0-.063-.307c-.085-.179-1.971-2.229-2.123-2.306a.51.51 0 0 0-.44-.003m4.053 4.467c-.416.184-.449.825-.054 1.069l.13.08 1.518.008c1.065.005 1.563-.001 1.666-.023.443-.092.611-.673.292-1.008-.161-.169-.1-.164-1.864-.163-1.278.001-1.624.009-1.688.037"/></svg>