<svg xmlns="http://www.w3.org/2000/svg" viewBox="0 0 16 16" fill="currentColor"><path fill-rule="evenodd" d="M7.199 2.066a3.2 3.2 0 0 0-1.611.851 3.14 3.14 0 0 0-.426 3.964c.157.239.518.621.758.802.51.384 1.199.61 1.861.61a3.14 3.14 0 0 0 3.152-3.158c0-1.392-.972-2.65-2.333-3.017-.232-.063-.327-.073-.733-.081-.325-.006-.528.003-.668.029m1.17 1.026c.937.267 1.55 1.085 1.551 2.07a2.13 2.13 0 0 1-2.64 2.077 3 3 0 0 1-.443-.172 2.14 2.14 0 0 1-1.145-1.492c-.061-.301-.042-.764.042-1.028a2.18 2.18 0 0 1 1.683-1.505c.224-.041.726-.014.952.05M4.84 9.469a3.15 3.15 0 0 0-2.151 1.165c-.289.364-.468.73-.603 1.23-.066.246-.069.29-.08 1.175-.007.64-.002.95.019 1.021.125.414.692.473.909.095.066-.114.066-.119.082-1.048.013-.714.026-.965.056-1.067.145-.484.439-.911.81-1.176.167-.119.501-.288.631-.319l.074-.017-.001.862v.863l-.146.063c-.178.078-.39.284-.479.468a1.045 1.045 0 0 0 .477 1.375c.731.354 1.577-.278 1.45-1.084-.051-.324-.284-.636-.568-.759l-.146-.063v-.9l-.001-.9h4.694v.4c0 .323-.007.4-.037.4-.021 0-.132.048-.249.106a1.35 1.35 0 0 0-.727 1.001c-.037.264-.032 1.204.008 1.318.045.13.142.19.331.208.338.03.547-.058.582-.248.033-.174-.109-.358-.278-.358h-.062l.01-.473c.009-.421.016-.486.067-.58a.73.73 0 0 1 .635-.407c.171-.011.2-.005.36.078a.6.6 0 0 1 .259.218c.123.184.14.274.141.744 0 .418-.001.42-.06.42-.11 0-.228.096-.263.213-.028.092-.026.123.01.2.073.153.154.187.446.187.203 0 .271-.01.33-.049.134-.087.15-.174.15-.797-.001-.623-.031-.839-.149-1.08-.138-.283-.497-.597-.769-.673l-.122-.035v-.8l.168.017c.832.085 1.57.68 1.82 1.467.093.292.118.588.118 1.395 0 .427.012.727.029.773.069.182.261.31.465.31a.5.5 0 0 0 .465-.31c.047-.125.037-1.747-.013-2.034-.248-1.421-1.398-2.469-2.85-2.597-.355-.032-5.493-.03-5.842.002m.271 3.416c.183.109.246.411.122.579a.423.423 0 0 1-.706 0 .4.4 0 0 1-.022-.407c.115-.237.375-.311.606-.172"/></svg>