<svg xmlns="http://www.w3.org/2000/svg" viewBox="0 0 16 16" fill="currentColor"><path fill-rule="evenodd" d="M3.155 2.642c-.179.034-.253.087-.515.363C1.615 4.089.943 5.518.73 7.067c-.063.461-.063 1.411 0 1.866.216 1.559.89 2.988 1.921 4.073.289.304.39.36.646.36a.647.647 0 0 0 .585-.926 2.3 2.3 0 0 0-.297-.387 5.5 5.5 0 0 1-.973-1.426 5.97 5.97 0 0 1 .973-6.68c.128-.14.262-.314.297-.387.232-.481-.196-1.021-.727-.918m9.429-.004a.7.7 0 0 0-.505.457c-.08.281.002.488.336.852a5.98 5.98 0 0 1 1.003 6.62 5.7 5.7 0 0 1-1.003 1.486c-.128.14-.262.314-.297.387a.647.647 0 0 0 .585.926c.256 0 .357-.056.646-.36 1.033-1.087 1.703-2.508 1.921-4.073a9 9 0 0 0 0-1.866 7.45 7.45 0 0 0-1.044-2.934c-.388-.623-1.033-1.373-1.247-1.449a.74.74 0 0 0-.395-.046M4.893 4.569c-.193.09-.597.552-.867.991-.687 1.117-.863 2.474-.49 3.769a4.8 4.8 0 0 0 1.111 1.903c.178.181.34.261.526.261.268 0 .552-.208.626-.459.08-.269.028-.47-.181-.702-.48-.533-.752-1.05-.889-1.692-.068-.314-.068-.966 0-1.28a3.4 3.4 0 0 1 .806-1.602c.284-.317.349-.502.269-.774a.655.655 0 0 0-.911-.415m5.715-.02c-.24.074-.448.364-.448.624 0 .16.079.337.222.495.48.533.752 1.051.889 1.692.067.315.068.967 0 1.28a3.4 3.4 0 0 1-.806 1.602c-.284.317-.349.502-.269.774a.655.655 0 0 0 .911.415c.208-.097.627-.587.906-1.06a4.68 4.68 0 0 0 .264-4.211 4.8 4.8 0 0 0-.924-1.392c-.243-.247-.452-.309-.745-.219M7.671 6.028a2.1 2.1 0 0 0-.658.231c-.224.13-.624.53-.754.754a2.05 2.05 0 0 0 0 1.974c.13.224.53.624.754.754a2.05 2.05 0 0 0 1.974 0c.224-.13.624-.53.754-.754a2.03 2.03 0 0 0 .24-1.22c-.065-.501-.214-.8-.581-1.167a2.6 2.6 0 0 0-.413-.341 2.07 2.07 0 0 0-1.316-.231m.67 1.403c.42.258.428.867.016 1.128a.667.667 0 0 1-.93-.224c-.071-.115-.08-.155-.08-.333 0-.173.01-.22.074-.328a.64.64 0 0 1 .627-.331c.126.008.2.03.293.088"/></svg>