<svg xmlns="http://www.w3.org/2000/svg" viewBox="0 0 16 16" fill="currentColor"><path fill-rule="evenodd" d="M5.947 1.054a6.7 6.7 0 0 0-3.896 1.935A7.08 7.08 0 0 0 .025 7.387 10 10 0 0 0 .053 8.96a6.93 6.93 0 0 0 1.457 3.467c.276.348.945.999 1.303 1.268 1.166.875 2.44 1.294 3.947 1.297a6.3 6.3 0 0 0 2.923-.676c.608-.301 1.38-.838 1.714-1.192l.078-.082-.408-.421a9 9 0 0 0-.431-.43c-.013-.005-.104.062-.203.149-.909.799-1.938 1.266-3.073 1.395a7 7 0 0 1-1.573-.054c-1.093-.202-1.979-.663-2.795-1.453-.987-.955-1.556-2.074-1.743-3.428-.052-.376-.045-1.325.014-1.717.178-1.205.696-2.249 1.563-3.146.736-.762 1.586-1.274 2.523-1.52.782-.205 1.725-.23 2.566-.068 2.058.398 3.865 2.217 4.309 4.338.091.439.118.707.138 1.38l.017.586-.595-.613-.804-.827L10.772 7l-.412.427a8 8 0 0 0-.412.444c-.002.02 2.976 3.099 3.007 3.109.012.004.703-.696 1.536-1.556l1.516-1.563-.423-.424c-.233-.233-.43-.423-.437-.423-.008.001-.362.366-.787.812l-.773.812-.018-.566c-.02-.605-.053-.989-.119-1.352-.499-2.766-2.607-4.994-5.273-5.571-.611-.133-1.591-.174-2.23-.095m.534 2.427a1.07 1.07 0 0 0-.677.596c-.078.165-.084.196-.084.471 0 .287.003.3.1.498.117.236.3.418.527.523.127.059.184.069.426.07.259.001.293-.005.454-.081.829-.393.835-1.609.009-2.015a1.16 1.16 0 0 0-.755-.062m-.207 2.682c-.497.057-.965.245-1.234.495-.265.245-.252.159-.261 1.775L4.771 9.84h1.122v2.72h1.76V9.84h1.122l-.007-1.433-.008-1.434-.073-.124a1 1 0 0 0-.187-.222c-.153-.131-.548-.323-.793-.384a4.3 4.3 0 0 0-1.433-.08"/></svg>