<svg xmlns="http://www.w3.org/2000/svg" viewBox="0 0 16 16" fill="currentColor"><path fill-rule="evenodd" d="M2.056.549a1.5 1.5 0 0 0-.996.94L1 1.667.993 8.116c-.004 3.813.003 6.445.017 6.44.013-.005.255-.213.537-.463.282-.249.528-.453.547-.453s.277.208.572.462.547.458.561.453c.013-.004.266-.216.56-.471.295-.254.55-.456.568-.449s.269.218.56.469c.29.251.537.456.548.456s.264-.21.561-.467c.298-.256.551-.466.564-.466s.237.19.5.423c.264.232.493.432.51.442s.048.005.069-.012c.032-.027.027-.048-.033-.142-.186-.294-.401-.879-.501-1.358l-.048-.233H2.187V1.835l.082-.078.083-.077h10.712l.075.064.074.065.014 2.367.013 2.368.32.072c.176.04.44.115.587.168s.269.096.273.096.006-1.143.006-2.54c0-2.788.002-2.739-.161-3.063-.172-.343-.582-.662-.953-.74-.102-.022-1.659-.03-5.627-.029C2.983.51 2.179.516 2.056.549M3.28 4.133v.587h8.88V3.547H3.28zm0 3.067v.587h5.682l.168-.143a4.56 4.56 0 0 1 2.163-.992c.177-.028-.485-.034-3.9-.036L3.28 6.613zm8.68 1.346a3.5 3.5 0 0 0-2.594 1.907 3.55 3.55 0 0 0 0 3.094c.182.36.36.606.66.91.653.66 1.423.996 2.361 1.029a3.48 3.48 0 0 0 3.436-2.4c.121-.364.161-.636.161-1.086 0-.447-.039-.716-.159-1.082a3.55 3.55 0 0 0-1.853-2.089 3.64 3.64 0 0 0-2.012-.283m-8.68 1.708v.6l1.927-.007 1.926-.007.035-.16a6 6 0 0 1 .261-.835 1 1 0 0 0 .064-.168c0-.013-.919-.024-2.106-.024H3.28zm9.77-.189c.644.175 1.192.727 1.381 1.39.086.301.086.789 0 1.092a2.06 2.06 0 0 1-1.395 1.393c-.124.034-.266.046-.529.045-.313-.002-.387-.011-.565-.07a1.94 1.94 0 0 1-.744-.441c-.274-.258-.508-.641-.57-.934l-.019-.087h.723l.073.154c.099.204.376.482.576.576a1.28 1.28 0 0 0 1.446-.262c.261-.265.387-.572.384-.934-.005-.782-.707-1.391-1.467-1.274-.205.032-.536.177-.623.273-.049.054-.049.054.208.054h.258v.693h-1.68v-1.706h.693v.481l.14-.105c.245-.185.551-.316.9-.386.128-.025.655.006.81.048"/></svg>