<svg xmlns="http://www.w3.org/2000/svg" viewBox="0 0 16 16" fill="currentColor"><path fill-rule="evenodd" d="M4.484 1.52c-.518.077-.978.49-1.114 1-.027.101-.036.404-.036 1.257l-.001 1.124-.66.012c-.621.01-.672.015-.867.08A1.92 1.92 0 0 0 .633 6.08c-.121.307-.126.395-.126 2.172 0 1.824 0 1.816.15 2.113.097.191.36.454.561.561.29.155.386.167 1.294.167h.821v.942c0 .789.007.966.043 1.087.072.241.169.402.358.591.211.211.475.349.746.392.234.038 3.917.037 4.08 0a.55.55 0 0 0 .386-.3.52.52 0 0 0 .027-.447c-.049-.137-.096-.194-.24-.288L8.627 13l-2.023-.013-2.022-.014-.051-.063c-.049-.06-.051-.125-.051-1.541V9.891l.065-.066.066-.065h1.954c1.296 0 1.989-.01 2.057-.029.217-.06.391-.308.391-.557a.64.64 0 0 0-.245-.444l-.11-.077H4.333l-.152.062c-.454.183-.791.617-.843 1.085l-.018.16-.693.008c-.758.008-.845.001-.922-.076-.05-.05-.052-.103-.051-1.672 0-1.571.002-1.624.055-1.74a.73.73 0 0 1 .358-.363l.133-.063h10.613l.134.062a.83.83 0 0 1 .373.383c.023.055.049.214.056.354.018.315.065.451.197.57a.56.56 0 0 0 .784-.026c.136-.136.162-.23.157-.584-.008-.592-.155-.959-.541-1.349a1.4 1.4 0 0 0-.48-.352c-.356-.174-.542-.205-1.223-.205h-.56l-.01-1.14c-.008-1.006-.015-1.158-.057-1.287a1.45 1.45 0 0 0-.896-.914l-.174-.059L7.6 1.503c-1.635-.002-3.038.006-3.116.017m5.998 1.189.065.069.007 1.064.008 1.065H4.48V2.751l.07-.056c.07-.055.077-.055 2.969-.055h2.898zm1.798 6.147c-.59.069-1.22.378-1.653.811a2.83 2.83 0 0 0-.533 3.253 2.85 2.85 0 0 0 2.824 1.56c1.219-.124 2.184-.954 2.499-2.148.054-.207.062-.298.061-.679-.002-.385-.011-.472-.071-.696a2.9 2.9 0 0 0-1.031-1.546c-.22-.167-.7-.404-.963-.475a2.9 2.9 0 0 0-1.133-.08m-.707 1.397q0 .279.069.171c.043-.069.357-.243.551-.304.251-.08.636-.091.886-.026a1.67 1.67 0 0 1 1.148 1.159c.061.236.045.724-.03.937a1.72 1.72 0 0 1-1.012 1.014c-.22.079-.656.098-.892.039a1.64 1.64 0 0 1-.872-.557c-.129-.157-.271-.43-.293-.566l-.015-.093h.585l.062.133c.087.186.274.367.48.464.154.073.2.083.413.083.284 0 .438-.049.649-.206.173-.129.337-.373.38-.567a1.3 1.3 0 0 0-.063-.715 1.2 1.2 0 0 0-.519-.52c-.137-.065-.183-.072-.433-.071-.301.002-.42.037-.611.182l-.09.068.21.007.211.008.007.274.008.273h-1.389v-1.387h.56z"/></svg>