<svg xmlns="http://www.w3.org/2000/svg" viewBox="0 0 16 16" fill="currentColor"><path fill-rule="evenodd" d="M1.557 1.064a1.52 1.52 0 0 0-.976.931l-.061.178v11.654l.061.178c.155.447.561.825 1.01.94.145.037.587.042 3.853.042h3.689l-.333-.34a5 5 0 0 1-.518-.614l-.185-.273h-3.09c-2.069 0-3.107-.009-3.142-.027-.139-.075-.132.258-.132-5.733s-.007-5.658.132-5.733c.033-.017.526-.027 1.4-.027h1.348v3.067c0 2.034.009 3.066.027 3.066.015 0 .666-.319 1.447-.71l1.419-.71.912.456.912.456.275-.172c.151-.095.386-.222.522-.284l.246-.112V2.24h2.719l.088.078.087.078.007 2.395.008 2.396.192.061c.221.07.621.255.846.392.084.051.161.093.171.093s.014-1.239.009-2.753c-.009-3.054.001-2.889-.186-3.219-.114-.202-.425-.504-.612-.594-.339-.164.083-.154-6.221-.152-5.399.002-5.771.005-5.924.049m7.59 3.243c0 1.136-.006 2.066-.014 2.066-.007 0-.379-.183-.826-.406l-.814-.407-.813.407c-.448.223-.82.406-.827.406s-.013-.93-.013-2.066V2.24h3.307zm2.426 3.72a3.5 3.5 0 0 0-2.04.999c-.48.479-.816 1.1-.963 1.774-.069.319-.07 1.068-.001 1.387.151.707.463 1.279.974 1.789A3.36 3.36 0 0 0 12 14.986q1.442 0 2.457-1.01c.511-.51.823-1.083.974-1.789.069-.321.068-1.069-.001-1.387a3.6 3.6 0 0 0-.963-1.774 3.47 3.47 0 0 0-1.749-.947c-.314-.064-.873-.09-1.145-.052m.561 2.28c.097.05.133.115.133.242 0 .09-.026.125-.285.388l-.286.29h1.509l.091.09c.101.101.115.186.05.311-.078.15-.126.159-.91.159h-.713l.272.276c.258.262.272.282.272.389 0 .159-.11.268-.271.268-.113 0-.12-.005-.655-.541-.535-.534-.541-.542-.541-.654 0-.063.017-.147.038-.186.043-.081.959-.996 1.042-1.042.075-.04.163-.037.254.01m-8.747.986v.627h4.106v-1.253H3.387z"/></svg>