<svg xmlns="http://www.w3.org/2000/svg" viewBox="0 0 16 16" fill="currentColor"><path fill-rule="evenodd" d="M10.413 2.028c-.229.068-.412.346-.412.625 0 .277.042.334 1.054 1.427l.927 1-3.118.015c-3.39.017-3.222.009-3.775.17-1.358.393-2.519 1.574-2.913 2.962a5.16 5.16 0 0 0-.081 2.301c.226 1.112.918 2.128 1.9 2.788.42.282.898.481 1.458.608.267.06.267.06 3.214.069 3.311.01 3.077.024 3.276-.192a.705.705 0 0 0-.017-.937c-.182-.182.024-.171-3.011-.171-1.738 0-2.826-.01-2.969-.027a2.96 2.96 0 0 1-1.761-.844c-.522-.503-.805-1.031-.919-1.713-.068-.402-.044-1.037.051-1.402.128-.49.411-.987.775-1.357.537-.547 1.147-.845 1.886-.923.256-.027 5.995-.039 5.995-.013 0 .008-.411.458-.913 1-.567.611-.941 1.037-.987 1.122a.68.68 0 0 0 .082.75c.194.215.452.265.695.134.108-.058.428-.389 1.576-1.633.891-.965 1.463-1.606 1.501-1.68.049-.098.06-.164.059-.36 0-.205-.01-.259-.066-.365-.039-.072-.665-.773-1.502-1.68-1.536-1.665-1.579-1.705-1.814-1.7a1 1 0 0 0-.191.026"/></svg>