<svg xmlns="http://www.w3.org/2000/svg" viewBox="0 0 16 16" fill="currentColor"><path fill-rule="evenodd" d="M8.747 1.344v.57l.126.019c.224.033.813.193 1.066.29a5.6 5.6 0 0 1 2.035 1.323c.937.939 1.491 2.021 1.683 3.292.044.288.057.5.057.909 0 .744-.078 1.259-.286 1.893a5.94 5.94 0 0 1-1.801 2.663l-.28.241-.007-1.072-.007-1.072h-1.12l.007 1.993.007 1.994 1.98.007 1.98.006v-1.12H12.2l.133-.112c1.314-1.104 2.153-2.599 2.428-4.328.067-.424.082-1.435.027-1.907-.186-1.605-.808-2.921-1.935-4.09A6.84 6.84 0 0 0 9.77.987C9.548.924 8.833.773 8.758.773c-.006 0-.011.257-.011.571m-7.274.383.007.553.98.007.98.007-.207.182a7 7 0 0 0-1.922 2.719C.98 6.039.841 6.804.842 7.773c.002 1.192.211 2.093.731 3.147a6.98 6.98 0 0 0 4.26 3.616c.25.076.754.192.96.222l.114.016v-1.141l-.127-.019a6.6 6.6 0 0 1-1.22-.354c-1.293-.532-2.397-1.578-3.027-2.866a5.6 5.6 0 0 1-.464-1.354c-.405-2.023.181-4.037 1.584-5.44.211-.211.617-.56.651-.56.009 0 .019.477.022 1.06l.007 1.06.554.007.553.007V1.173H1.466zm7.391 2.455a2.1 2.1 0 0 0-.784.398c-.258.207-1.263 1.218-1.25 1.256s2.8 2.831 2.825 2.831c.032 0 1.202-1.219 1.301-1.356.118-.162.254-.453.314-.671.072-.263.066-.776-.011-1.048a2.01 2.01 0 0 0-1.305-1.371c-.283-.092-.808-.111-1.09-.039M5.77 6.886c-.649.656-.734.761-.879 1.074a1.8 1.8 0 0 0-.174.852c.002.502.129.875.431 1.254a1.95 1.95 0 0 0 1.063.684c.314.078.801.062 1.103-.037.39-.128.535-.237 1.239-.936.356-.353.647-.652.647-.665 0-.023-2.76-2.825-2.797-2.839-.011-.004-.295.272-.633.613"/></svg>