<svg xmlns="http://www.w3.org/2000/svg" viewBox="0 0 16 16" fill="currentColor"><path fill-rule="evenodd" d="M7.547 1.351c-1.297.124-2.271.458-3.254 1.116a6.6 6.6 0 0 0-2.468 3.026c-.164.403-.182.577-.08.786.151.308.491.458.796.349.241-.086.348-.206.475-.538.115-.298.342-.745.511-1.003.211-.324.431-.585.757-.901.815-.792 1.707-1.243 2.876-1.456.371-.067 1.304-.068 1.667-.001.992.183 1.856.57 2.533 1.135.081.067.626.572 1.211 1.122l1.064 1.001L12.398 6c-1.388.015-1.343.009-1.542.214a.72.72 0 0 0-.189.453.7.7 0 0 0 .202.464c.21.21.11.202 2.503.202h2.108l.134-.063a.68.68 0 0 0 .336-.35c.046-.1.049-.232.049-2.215.001-2.393.009-2.293-.201-2.503A.7.7 0 0 0 15.333 2a.72.72 0 0 0-.452.189c-.207.2-.199.145-.214 1.614l-.014 1.31-1.12-1.053a45 45 0 0 0-1.376-1.259c-1.031-.828-2.263-1.317-3.624-1.44a7 7 0 0 0-.986-.01M.386 8.73a.68.68 0 0 0-.336.35c-.046.1-.049.232-.049 2.215-.001 2.393-.009 2.293.201 2.503A.7.7 0 0 0 .667 14a.72.72 0 0 0 .452-.189c.207-.2.199-.145.214-1.614l.014-1.31 1.12 1.053c.616.58 1.235 1.147 1.376 1.26 2.312 1.854 5.61 1.949 8.013.232 1.128-.806 2.016-1.979 2.422-3.2a.66.66 0 0 0-.29-.806c-.22-.129-.478-.115-.711.039-.131.087-.203.197-.306.472a5.6 5.6 0 0 1-.836 1.433c-.21.256-.661.69-.922.886-.698.524-1.451.845-2.386 1.016-.357.065-1.297.065-1.654-.001-.992-.183-1.856-.57-2.533-1.135a70 70 0 0 1-1.211-1.122l-1.064-1.001L3.602 10c1.388-.015 1.343-.009 1.542-.214a.72.72 0 0 0 .189-.453.7.7 0 0 0-.202-.464c-.21-.21-.11-.202-2.503-.202H.52z"/></svg>