<svg xmlns="http://www.w3.org/2000/svg" viewBox="0 0 16 16" fill="currentColor"><path fill-rule="evenodd" d="M7.333 1.372a6.73 6.73 0 0 0-3.506 1.437A52 52 0 0 0 2.48 4.047L1.347 5.113l-.014-1.31c-.015-1.469-.007-1.414-.214-1.614A.72.72 0 0 0 .667 2a.7.7 0 0 0-.465.202c-.21.21-.202.11-.201 2.503 0 1.983.003 2.115.049 2.215a.68.68 0 0 0 .336.35l.134.063h2.108c2.393 0 2.293.008 2.503-.202a.7.7 0 0 0 .202-.464c0-.149-.08-.34-.189-.453-.199-.205-.154-.199-1.542-.214l-1.238-.013 1.065-1.001c1.171-1.101 1.304-1.218 1.64-1.44.613-.402 1.299-.669 2.104-.817.357-.066 1.297-.066 1.654-.001 1.186.217 2.071.664 2.889 1.458a5.1 5.1 0 0 1 1.257 1.881c.14.357.241.474.486.561a.65.65 0 0 0 .792-.34c.118-.236.097-.387-.126-.915a6.66 6.66 0 0 0-4.644-3.865 9 9 0 0 0-.58-.109 8 8 0 0 0-1.568-.027m3.782 7.337c-.24.074-.448.364-.448.624 0 .149.08.34.189.453.199.205.154.199 1.541.214l1.238.013-1.064 1.001c-.585.55-1.13 1.055-1.211 1.122-.675.564-1.543.953-2.533 1.135-.357.066-1.297.066-1.654.001-1.248-.228-2.178-.718-3.028-1.597A5.2 5.2 0 0 1 2.99 9.844c-.073-.194-.154-.306-.282-.389a.655.655 0 0 0-.989.317c-.069.182-.042.372.106.735a6.66 6.66 0 0 0 2.872 3.28 6.68 6.68 0 0 0 6.942-.211c.427-.279.708-.521 1.894-1.637l1.12-1.052.014 1.31c.015 1.469.007 1.414.214 1.614a.72.72 0 0 0 .452.189.7.7 0 0 0 .465-.202c.21-.21.202-.11.201-2.503 0-1.983-.003-2.115-.049-2.215a.68.68 0 0 0-.336-.35l-.134-.063-2.12.002c-1.767.001-2.141.008-2.245.04"/></svg>