<svg xmlns="http://www.w3.org/2000/svg" viewBox="0 0 16 16" fill="currentColor"><path fill-rule="evenodd" d="M11.115.042a.69.69 0 0 0-.408.418.6.6 0 0 0 .003.422c.04.136.089.192.858.965l.816.82H8.473c-2.676 0-3.998.009-4.185.029-1.281.138-2.394 1.053-2.791 2.296-.129.404-.14.51-.155 1.478-.017 1.07-.009 1.126.193 1.328A.7.7 0 0 0 2 8c.149 0 .34-.08.453-.189.199-.193.198-.189.215-1.251.015-.89.019-.958.076-1.133a2.09 2.09 0 0 1 1.349-1.351l.187-.063 4.052-.007 4.053-.007-.816.82c-.77.774-.819.829-.859.966a.6.6 0 0 0-.003.422.67.67 0 0 0 .419.419.6.6 0 0 0 .422-.002c.14-.041.199-.096 1.566-1.46 1.545-1.541 1.553-1.55 1.552-1.829 0-.289.001-.288-1.55-1.833C11.748.139 11.688.083 11.548.042a.63.63 0 0 0-.433 0m2.668 8a.75.75 0 0 0-.391.354c-.037.082-.047.246-.06 1.044-.015.888-.02.958-.077 1.133a2.09 2.09 0 0 1-1.348 1.351l-.187.063-4.053.007-4.052.007.816-.82c.77-.774.819-.829.859-.966a.6.6 0 0 0 .003-.422.67.67 0 0 0-.419-.419.6.6 0 0 0-.422.002c-.14.041-.2.097-1.568 1.46-1.55 1.543-1.55 1.544-1.55 1.831s0 .287 1.55 1.831c1.368 1.363 1.428 1.419 1.568 1.46a.6.6 0 0 0 .422.001.67.67 0 0 0 .419-.419.6.6 0 0 0-.003-.422c-.04-.136-.089-.192-.857-.964l-.815-.819 4.077-.009c3.811-.008 4.091-.012 4.278-.056.542-.13.936-.305 1.338-.595a3.4 3.4 0 0 0 1.177-1.622c.148-.469.157-.554.171-1.523.016-1.07.007-1.126-.194-1.328a.64.64 0 0 0-.682-.16"/></svg>