<svg xmlns="http://www.w3.org/2000/svg" viewBox="0 0 16 16" fill="currentColor"><path fill-rule="evenodd" d="M3.295.218c-.007.02-.062.245-.122.502s-.115.485-.121.508c-.01.035.152.081.934.267.521.124.947.231.947.238-.001.008-.123.08-.272.16A7 7 0 0 0 3.083 3.04c-.96.929-1.567 1.978-1.911 3.303a7 7 0 0 0 .202 4.205 6.7 6.7 0 0 0 1.625 2.534c.429.429.689.643 1.151.946.28.183 1.072.592 1.211.626l.068.016.128-.537c.071-.295.124-.541.118-.547a8 8 0 0 0-.332-.169 8 8 0 0 1-.563-.307c-1.443-.893-2.461-2.489-2.69-4.217-.053-.401-.038-1.31.028-1.693.112-.652.28-1.174.561-1.747.576-1.175 1.437-2.042 2.626-2.644.182-.093.334-.165.337-.162s-.106.474-.243 1.046a49 49 0 0 0-.244 1.043c.017.013 1.063.255 1.07.247.015-.018.927-3.866.918-3.875-.005-.004-.85-.208-1.876-.453C4.24.411 3.379.205 3.353.197s-.052.002-.058.021m7.176 1.297c-.006.01-.068.258-.138.55-.1.416-.12.535-.092.544.114.038.767.387.959.513 1.43.935 2.423 2.544 2.615 4.235.041.362.018 1.291-.04 1.63-.223 1.295-.768 2.376-1.641 3.254a5.9 5.9 0 0 1-1.742 1.231c-.132.063-.153.067-.141.028.008-.026.117-.479.243-1.007s.234-.978.241-1.001c.01-.034-.086-.065-.523-.17a8 8 0 0 0-.543-.118c-.016.018-.928 3.866-.918 3.874.013.012 3.713.894 3.784.902.056.006.066-.023.175-.473l.128-.536c.013-.052-.039-.068-.932-.28-.52-.123-.946-.231-.946-.239 0-.009.045-.037.1-.062.333-.157.942-.553 1.332-.868a7.5 7.5 0 0 0 1.524-1.742c.541-.896.905-2.012 1.018-3.124.048-.463.021-1.352-.053-1.773a6.9 6.9 0 0 0-.627-1.91c-.677-1.381-1.692-2.434-3.005-3.118-.389-.203-.763-.367-.778-.34M6.286 5.522a.6.6 0 0 0-.344.206c-.192.212-.185.111-.176 2.312.007 1.969.007 1.974.065 2.082.075.139.24.288.372.335.084.029.472.036 2.064.036 1.931 0 1.961 0 2.08-.055a.72.72 0 0 0 .336-.323c.048-.097.05-.192.05-2.115s-.002-2.018-.05-2.115a.7.7 0 0 0-.336-.322c-.106-.049-.183-.057-.647-.065l-.527-.009v1.902l-.078.078c-.042.043-.106.078-.141.078s-.206-.048-.381-.107l-.318-.107-.321.107a3 3 0 0 1-.379.107.27.27 0 0 1-.134-.065l-.074-.064-.008-.962-.008-.963-.472.003a5 5 0 0 0-.573.026m1.527.717c0 .411.01.748.022.748s.111-.031.22-.068l.198-.067.218.067c.119.037.224.068.233.068s.014-.333.01-.74l-.007-.74-.447-.008-.447-.007zm0 2.894v.227H6.88v-.453h.933z"/></svg>