<svg xmlns="http://www.w3.org/2000/svg" viewBox="0 0 16 16" fill="currentColor"><path fill-rule="evenodd" d="M3 1.063a2 2 0 0 0-.305.125c-.185.1-.447.36-.541.534C1.99 2.029 2 1.616 2 8c0 5.151.005 5.847.041 5.986.118.454.509.831 1.002.967.16.044.465.047 4.957.047 5.331 0 4.925.014 5.288-.18.197-.105.461-.361.558-.542.164-.307.154.106.154-6.278s.01-5.971-.154-6.278a1.65 1.65 0 0 0-.555-.54c-.338-.18.02-.169-5.308-.167C3.5 1.017 3.149 1.02 3 1.063m9.677 1.074a.2.2 0 0 1 .095.1c.02.049.026 1.595.022 5.25l-.007 5.18-.944-1.133c-.519-.623-1.012-1.198-1.095-1.277a2.1 2.1 0 0 0-.647-.421c-.41-.175-.222-.166-3.721-.176L3.2 9.651V5.974c0-2.646.008-3.696.03-3.743a.2.2 0 0 1 .086-.093c.085-.041 9.271-.042 9.361-.001M5.386 3.801a.54.54 0 0 0-.251.861c.186.217.02.205 2.865.205s2.679.012 2.865-.205a.538.538 0 0 0-.263-.863c-.191-.057-5.031-.055-5.216.002m-.069 2.983a.526.526 0 0 0-.004.961l.143.069 2.572-.007L10.6 7.8l.126-.074a.537.537 0 0 0 .214-.7c-.068-.132-.122-.182-.274-.251-.117-.053-.163-.054-2.666-.054H5.453zm4.337 4.088c.096.047.227.142.296.213.067.071.622.731 1.233 1.468l1.11 1.34H7.841c-3.206 0-4.47-.008-4.517-.029a.22.22 0 0 1-.094-.095c-.021-.045-.03-.513-.03-1.531v-1.466l3.141.008 3.14.007z"/></svg>