<svg xmlns="http://www.w3.org/2000/svg" viewBox="0 0 16 16" fill="currentColor"><path fill-rule="evenodd" d="M3.372 1.52c-.28.041-.533.202-.69.439-.19.286-.177-.25-.169 6.602l.007 6.173.086.176c.105.211.295.399.508.499l.153.071H13l.173-.083c.267-.128.472-.358.551-.619.046-.155.055-10.643.009-10.767-.033-.089-2.315-2.39-2.44-2.459-.074-.042-.373-.046-3.933-.049-2.119-.002-3.914.006-3.988.017m7.007 1.767c.01.728.015.79.07.93q.168.427.589.601c.143.059.176.061.942.061l.793.001v9.627L8.14 14.5l-4.633-.007L3.5 8.5l-.007-5.993h6.875zm1.448.18.426.426h-.866v-.426c0-.235.003-.427.007-.427.003 0 .198.192.433.427M4.733 7.106a1 1 0 0 1-.099.025c-.098.022-.26.168-.305.274-.114.273.034.597.308.676.065.019 1.209.026 3.565.02l3.469-.008.098-.075a.5.5 0 0 0 .208-.313.49.49 0 0 0-.253-.535l-.111-.063-3.426-.005a327 327 0 0 0-3.454.004m0 2.507-.099.025c-.098.022-.26.168-.305.274a.5.5 0 0 0 .093.524c.167.177-.121.163 3.645.172 2.409.005 3.448-.001 3.531-.022.242-.06.375-.231.375-.483a.47.47 0 0 0-.244-.423l-.116-.067-3.426-.004a327 327 0 0 0-3.454.004m-.108 2.522c-.108.032-.269.195-.307.312a.52.52 0 0 0 .073.454c.166.207-.082.192 3.15.192 3.145 0 2.952.01 3.104-.151a.498.498 0 0 0-.09-.749l-.111-.073-2.869-.004c-1.629-.003-2.904.005-2.95.019"/></svg>