<svg xmlns="http://www.w3.org/2000/svg" viewBox="0 0 16 16" fill="currentColor"><path fill-rule="evenodd" d="M3.707 1.165a.5.5 0 0 0-.203.2c-.031.06-.038.371-.039 1.8l-.002 1.728-.913.88c-.503.484-.943.921-.979.972l-.064.091-.008 3.429c-.005 2.238.002 3.502.02 3.642.071.557.495 1.026 1.058 1.173.135.035.82.04 5.485.04 5.889 0 5.474.012 5.818-.168.205-.108.458-.361.566-.568.177-.335.167-.113.167-4.026v-3.55l-.073-.097a30 30 0 0 0-.973-.966l-.9-.869V3.165c0-1.908.007-1.83-.184-1.958l-.091-.06-4.323.002c-2.377.001-4.34.008-4.362.016m8.18 4.119.007 3.377-1.565 1.516c-.86.833-1.592 1.537-1.625 1.563a1.5 1.5 0 0 1-.216.121c-.138.064-.185.072-.435.072-.443-.001-.461-.013-1.432-.953L5.029 9.44l-.786-.76-.001-3.376c-.001-1.856.006-3.383.016-3.393s1.729-.015 3.82-.011l3.802.007zM4.745 2.825a.24.24 0 0 0 .085.399c.118.041 6.353.042 6.471.001.175-.061.22-.268.088-.4l-.078-.078H4.823zm.042 1.074c-.088.05-.119.108-.119.223-.001.083.015.124.067.173l.069.065h6.507l.078-.087c.085-.095.095-.153.046-.26-.07-.154.1-.146-3.387-.146-2.363.001-3.222.009-3.261.032m3.612 1.308c-.229.079-.37.187-.785.605l-.347.348.853.854.853.854.403-.407c.416-.42.496-.534.581-.819.143-.481-.08-1.046-.522-1.325-.28-.177-.705-.222-1.036-.11m-4.944 2.68c-.007.007-.236-.202-.509-.464l-.497-.476.502-.484.502-.483.007.947c.004.521.002.953-.005.96m9.799-1.361.415.406-.281.274-.501.487-.22.212V5.963l.086.078c.048.043.274.261.501.485m-6.645.294c-.399.405-.482.523-.566.805-.239.805.497 1.628 1.336 1.494.331-.053.482-.149.935-.595l.408-.402-.848-.848a36 36 0 0 0-.862-.847c-.009 0-.19.177-.403.393m7.231 4.007c0 1.628-.01 2.96-.022 2.96-.027 0-3.052-2.921-3.048-2.944.002-.016 3.048-2.974 3.063-2.976.004 0 .007 1.332.007 2.96M3.666 9.197c.704.68 1.375 1.329 1.49 1.442l.208.206-1.511 1.464c-.832.805-1.523 1.468-1.536 1.473s-.024-1.234-.024-2.943c0-2.797.003-2.95.047-2.916.025.021.622.594 1.326 1.274m3.359 3.215c.585.386 1.38.405 1.986.049.105-.062.363-.283.671-.576.276-.262.509-.476.518-.476.032-.001 3.045 2.924 3.034 2.944-.015.028-10.321.026-10.338-.002-.007-.012.671-.684 1.509-1.494l1.522-1.471.47.46c.258.254.541.508.628.566"/></svg>