<svg xmlns="http://www.w3.org/2000/svg" viewBox="0 0 16 16" fill="currentColor"><path d="M7.111 1.053c-1.287.162-2.571.693-3.511 1.453l-.173.14-.014-.21c-.01-.151-.031-.237-.072-.304-.182-.294-.647-.279-.801.027-.058.115-.06.144-.059.853 0 .826.009.871.194 1.034.153.134.238.145 1.054.136.819-.01.841-.014.978-.193a.45.45 0 0 0-.151-.671 1 1 0 0 0-.25-.056l-.173-.016.217-.16a6.1 6.1 0 0 1 2.068-.979c.586-.148.814-.174 1.555-.173.595 0 .724.008 1.027.062a6.04 6.04 0 0 1 3.362 1.794 5.755 5.755 0 0 1 1.052 6.543 5.7 5.7 0 0 1-1.169 1.631 6.1 6.1 0 0 1-3.312 1.677c-.344.059-1.22.081-1.603.041-2.789-.289-5.004-2.433-5.358-5.189a7.3 7.3 0 0 1 .013-1.462c.024-.174.086-.48.136-.68a4 4 0 0 0 .092-.439c.001-.184-.151-.366-.35-.42a.46.46 0 0 0-.501.199c-.077.123-.229.737-.297 1.193a7.5 7.5 0 0 0-.013 1.767 6.8 6.8 0 0 0 1.954 3.927c1.423 1.42 3.279 2.126 5.341 2.031a7 7 0 0 0 5.5-3.156c.545-.833.863-1.693 1.037-2.8.052-.329.045-1.396-.012-1.775a6.86 6.86 0 0 0-1.322-3.131 8.5 8.5 0 0 0-1.137-1.169 7.2 7.2 0 0 0-3.391-1.5c-.363-.06-1.519-.075-1.911-.025m.464 3.134c-.728.153-1.33.664-1.56 1.323-.091.26-.121.473-.123.863l-.001.334-.134.062a1.6 1.6 0 0 0-.528.481 2 2 0 0 0-.141.285c-.055.149-.059.21-.069 1.065-.007.617 0 .957.021 1.064.108.551.534.98 1.092 1.098.263.056 3.401.054 3.668-.002a1.4 1.4 0 0 0 1.061-.959c.056-.179.059-.231.059-1.121-.001-.906-.003-.938-.062-1.107a2 2 0 0 0-.131-.293 1.6 1.6 0 0 0-.521-.494l-.153-.079V6.48c-.001-.552-.1-.991-.297-1.327-.135-.229-.503-.584-.753-.725-.315-.177-.574-.245-.976-.256a3 3 0 0 0-.452.015m.871.985c.234.108.455.326.562.554.065.139.072.189.081.521l.009.366H6.82l.013-.34c.014-.389.061-.546.228-.766.224-.295.555-.446.952-.432.207.006.267.02.433.097m1.349 2.436c.179.136.178.134.178 1.087 0 .824-.002.862-.056.958a.5.5 0 0 1-.167.164l-.11.063-1.56.008c-.858.005-1.622.001-1.699-.008a.47.47 0 0 1-.373-.241c-.059-.103-.06-.125-.061-.935 0-.814.001-.831.061-.945a.4.4 0 0 1 .179-.178l.117-.062 1.697.007 1.697.007z"/></svg>