<svg xmlns="http://www.w3.org/2000/svg" viewBox="0 0 16 16" fill="currentColor"><path fill-rule="evenodd" d="M7.099 2.715C6.926 2.783.847 7.521.774 7.644a.67.67 0 0 0 .034.754c.092.116 6.1 4.798 6.246 4.867a.655.655 0 0 0 .744-.133c.211-.212.202-.086.204-2.717.001-2.046.006-2.307.04-2.202.02.066.077.164.124.217.105.117 6.067 4.753 6.206 4.826.249.13.555.08.759-.125.22-.219.204.202.196-5.185L15.32 3.16l-.067-.131a.665.665 0 0 0-.874-.29c-.054.027-1.475 1.12-3.157 2.429C9.04 6.866 8.149 7.575 8.108 7.644a.8.8 0 0 0-.076.18c-.01.045-.025-.985-.032-2.291L7.987 3.16l-.066-.129a.664.664 0 0 0-.822-.316m-.432 5.284v3.306L4.548 9.659A171 171 0 0 1 2.429 8c0-.011 4.207-3.296 4.231-3.304.004-.002.007 1.485.007 3.303m7.333 0v3.306l-2.119-1.646A181 181 0 0 1 9.762 8c0-.011 4.207-3.296 4.231-3.304.004-.002.007 1.485.007 3.303"/></svg>