<svg xmlns="http://www.w3.org/2000/svg" viewBox="0 0 16 16" fill="currentColor"><path fill-rule="evenodd" d="M7.66 2.327c-.722.722-1.314 1.325-1.314 1.34-.001.014.596.617 1.326 1.338L9 6.317l.302-.299c.166-.164.375-.38.464-.48l.163-.182-.505-.507-.504-.508.387.015c1.137.044 2.159.5 2.998 1.339a4.5 4.5 0 0 1 1.261 2.3c.068.317.072.381.072 1.005s-.004.688-.072 1.005c-.258 1.206-.987 2.25-2.065 2.957-1.257.823-3.043.931-4.47.27l-.261-.121-.482.481-.482.482.257.151c.628.37 1.419.631 2.23.737.36.047 1.121.04 1.507-.014a5.8 5.8 0 0 0 1.893-.593 6.06 6.06 0 0 0 3.039-3.582c.52-1.647.269-3.586-.646-4.986-.724-1.11-1.787-1.978-2.953-2.414a6 6 0 0 0-1.927-.36c-.15 0-.273-.009-.273-.019s.225-.245.5-.52l.499-.5-.106-.113a23 23 0 0 0-.839-.848c-.008 0-.605.591-1.327 1.314m-4.653 4.68L1.013 9l2 2 2 2L7 11.013C8.093 9.921 8.987 9.015 8.987 9c0-.026-3.948-3.987-3.974-3.987-.007 0-.91.897-2.006 1.994m3.04 3.04L5 11.093l-1.047-1.046L2.907 9l1.046-1.047L5 6.907l1.047 1.046L7.093 9z"/></svg>