<svg xmlns="http://www.w3.org/2000/svg" viewBox="0 0 16 16" fill="currentColor"><path fill-rule="evenodd" d="M7.557 1.36a7.2 7.2 0 0 0-1.837.386 8 8 0 0 0-1.357.68c-.519.342-.623.434-2.68 2.37l-.35.33V3.861c0-1.453 0-1.457-.202-1.659A.7.7 0 0 0 .667 2a.7.7 0 0 0-.465.202c-.21.21-.202.11-.201 2.503 0 1.983.003 2.115.049 2.215a.68.68 0 0 0 .336.35l.134.063h2.108c2.393 0 2.293.008 2.503-.202a.7.7 0 0 0 .202-.464c0-.149-.08-.34-.189-.453-.199-.205-.154-.199-1.542-.214l-1.238-.013 1.027-.966c1.165-1.096 1.315-1.227 1.695-1.477a5.32 5.32 0 0 1 5.274-.312c.579.291.955.561 1.401 1.007a5.3 5.3 0 0 1 1.175 1.753 5.31 5.31 0 0 1-.183 4.417 5 5 0 0 1-.947 1.321c-.794.809-1.721 1.301-2.873 1.526-.359.07-1.082.096-1.481.054a5.36 5.36 0 0 1-2.795-1.15 7.5 7.5 0 0 1-.932-.966 6 6 0 0 1-.732-1.342 1.1 1.1 0 0 0-.171-.302.655.655 0 0 0-1.071.157c-.103.201-.089.393.058.762a6.7 6.7 0 0 0 3.712 3.718c2.442.973 5.175.44 7.096-1.382C14.128 11.37 14.89 9.187 14.6 7.12a6.68 6.68 0 0 0-3.643-5.081 7 7 0 0 0-2.184-.65 7.6 7.6 0 0 0-1.216-.029"/></svg>