<svg xmlns="http://www.w3.org/2000/svg" viewBox="0 0 16 16" fill="currentColor"><path fill-rule="evenodd" d="M7.427 1.363a6.8 6.8 0 0 0-3.36 1.267 6.66 6.66 0 0 0-2.558 3.897c-.226.988-.216 2.124.026 3.065.473 1.845 1.617 3.333 3.264 4.248a6.7 6.7 0 0 0 3.748.799c2.164-.186 4.04-1.355 5.171-3.221.319-.528.573-1.122.594-1.391.012-.154.005-.19-.064-.32-.177-.335-.557-.463-.883-.296-.168.085-.261.2-.356.436-.33.824-.726 1.42-1.327 2a5.3 5.3 0 0 1-3.151 1.463 6.6 6.6 0 0 1-1.438-.054 5.36 5.36 0 0 1-2.499-1.16c-1.007-.843-1.631-1.942-1.865-3.283-.07-.401-.064-1.281.012-1.693.202-1.096.657-2.005 1.392-2.782A5.32 5.32 0 0 1 10.5 3.294c.592.313.744.437 2.072 1.689l1.066 1.004L12.399 6c-1.39.015-1.344.009-1.543.214a.72.72 0 0 0-.189.453.7.7 0 0 0 .202.464c.21.21.11.202 2.503.202h2.108l.134-.063a.68.68 0 0 0 .336-.35c.046-.1.049-.232.049-2.215.001-2.393.009-2.293-.201-2.503A.7.7 0 0 0 15.333 2a.72.72 0 0 0-.452.189c-.207.2-.199.145-.214 1.614l-.014 1.31-.44-.416c-1.298-1.228-1.849-1.737-2.059-1.902A6.64 6.64 0 0 0 8.48 1.361a6 6 0 0 0-1.053.002"/></svg>