<svg xmlns="http://www.w3.org/2000/svg" viewBox="0 0 16 16" fill="currentColor"><path fill-rule="evenodd" d="M6.626 1.393c-.206.209-.415.426-.466.481l-.092.101.519.519.519.519h-.294c-1.233 0-2.517.458-3.519 1.255a6.7 6.7 0 0 0-1.379 1.519c-.915 1.4-1.166 3.339-.646 4.986A6.04 6.04 0 0 0 6.2 14.948a7.5 7.5 0 0 0 1.507.014c.811-.106 1.602-.367 2.23-.737l.257-.151-.482-.482-.482-.481-.261.121a4.82 4.82 0 0 1-3.875.05c-.898-.39-1.779-1.219-2.239-2.109-.206-.4-.33-.743-.421-1.168-.068-.317-.073-.38-.073-1.005s.005-.688.073-1.005a4.54 4.54 0 0 1 1.262-2.299c.838-.838 1.864-1.296 2.997-1.34l.387-.015-.504.508-.505.507.163.182c.089.1.298.317.464.482l.303.3 1.326-1.327 1.326-1.327L8.326 2.34 7 1.013zm2.381 5.614L7.013 9l2 2 2 2L13 11.013C14.093 9.921 14.987 9.015 14.987 9c0-.026-3.948-3.987-3.974-3.987-.007 0-.91.897-2.006 1.994m3.04 3.04L11 11.093l-1.047-1.046L8.907 9l1.046-1.047L11 6.907l1.047 1.046L13.093 9z"/></svg>