<svg xmlns="http://www.w3.org/2000/svg" viewBox="0 0 16 16" fill="currentColor"><path fill-rule="evenodd" d="M2.448 2.042c-.24.074-.448.364-.448.625 0 .27.21.555.462.624.079.021.328.044.581.052 1.126.037 2.186.261 3.33.702.343.133 1.232.581 1.561.787a10.15 10.15 0 0 1 3.234 3.234c.213.339.655 1.221.797 1.587a9.9 9.9 0 0 1 .691 3.307c.009.248.032.5.053.578.069.252.354.462.624.462a.69.69 0 0 0 .631-.475c.078-.267-.005-1.42-.165-2.289-.453-2.459-1.778-4.775-3.679-6.434a11.3 11.3 0 0 0-3.307-2.009 11.1 11.1 0 0 0-3.466-.765c-.552-.036-.745-.033-.899.014m0 4.665c-.241.078-.448.367-.448.626a.7.7 0 0 0 .202.465c.144.144.309.202.577.202 1.047 0 2.251.426 3.154 1.116.227.173.684.621.874.857C7.54 10.879 8 12.133 8 13.221c0 .268.058.433.202.577a.7.7 0 0 0 .465.202.69.69 0 0 0 .63-.474c.035-.123.04-.214.024-.497-.117-2.152-1.191-4.057-2.948-5.226a6.5 6.5 0 0 0-2.102-.937c-.623-.157-1.574-.24-1.823-.159m.572 4.667c-.234.051-.418.157-.622.359a1.23 1.23 0 0 0-.376.727c-.067.436.063.829.376 1.142a1.303 1.303 0 0 0 1.871 0 1.3 1.3 0 0 0 0-1.869c-.208-.206-.388-.308-.635-.36a1.34 1.34 0 0 0-.614.001"/></svg>