<svg xmlns="http://www.w3.org/2000/svg" viewBox="0 0 16 16" fill="currentColor"><path fill-rule="evenodd" d="M7.98.027c-.811.114-1.563.614-1.956 1.3a2.5 2.5 0 0 0-.362 1.225c-.054 1.098.508 2.051 1.504 2.551.967.486 2.22.294 3.003-.46.4-.384.629-.775.782-1.336.074-.273.067-.979-.013-1.276C10.62.859 9.634.062 8.443.015a3 3 0 0 0-.463.012m.9.747c.639.18 1.171.707 1.373 1.36.069.225.083.689.029.961a1.9 1.9 0 0 1-.471.916c-.426.456-.877.66-1.464.662-.586.002-1.05-.198-1.46-.629a1.85 1.85 0 0 1-.533-1.245 1.95 1.95 0 0 1 .763-1.679c.265-.212.542-.335.905-.401.196-.036.634-.008.858.055m-.886 1.059-.007.5-.5.008-.5.007v.692H8v.987h.693V3.04h.987v-.693h-.987V1.333h-.692zM1.62 3.682a.8.8 0 0 0-.409.242c-.212.224-.198.131-.198 1.277V6.23l.076.119a.87.87 0 0 0 .546.385l.098.019v8.314h-.72V16h14.934v-.933h-.72v-8.32h.06c.111 0 .377-.149.495-.278.194-.212.191-.192.191-1.269 0-.916-.002-.967-.054-1.069-.137-.269-.421-.445-.759-.47l-.2-.015v.494c0 .415.006.497.04.51s.04.1.04.56c0 .459-.006.547-.04.56-.035.013-.04.552-.04 4.629v4.614h-.36c-.222 0-.36.011-.36.027 0 .017-.542.027-1.572.027-1.019 0-1.577-.01-1.588-.027-.01-.016-.209-.027-.508-.027-.31 0-.492.01-.492.027s-.436.027-1.253.027c-.818 0-1.254-.01-1.254-.027s-.186-.027-.506-.027-.507.01-.507.027-.653.027-1.905.027c-1.241 0-1.911-.01-1.922-.027-.009-.016-.164-.027-.375-.027H2v-4.626C2 7.32 1.991 5.76 1.973 5.76c-.017 0-.026-.204-.026-.56s.009-.56.026-.56S2 4.458 2 4.147v-.494l-.14.003a1.4 1.4 0 0 0-.24.026"/></svg>