<svg xmlns="http://www.w3.org/2000/svg" viewBox="0 0 16 16" fill="currentColor"><path fill-rule="evenodd" d="M3.004 1.361c-.432.073-.733.234-1.071.572-.346.346-.499.638-.573 1.089-.036.226-.036 9.73 0 9.956.074.451.227.743.573 1.089s.638.499 1.089.573c.226.036 9.73.036 9.956 0 .451-.074.743-.227 1.089-.573.35-.35.504-.646.574-1.104.018-.115.024-1.516.02-3.99-.007-3.683-.009-3.817-.058-3.92-.071-.148-3.508-3.585-3.656-3.656-.103-.049-.234-.05-3.96-.054-2.12-.002-3.912.006-3.983.018M4 4.035c0 1.569-.001 1.56.202 1.763.214.213.038.202 3.131.202s2.918.011 3.132-.202a.7.7 0 0 0 .202-.465.7.7 0 0 0-.202-.464c-.212-.212-.081-.202-2.763-.202H5.333v-2h5.054L11.86 4.14l1.473 1.474-.001 3.586c-.001 2.927-.008 3.605-.037 3.687a.7.7 0 0 1-.303.359c-.121.071-.141.074-.559.083l-.433.009v-2.371c0-2.685.01-2.553-.202-2.765C11.582 7.986 11.838 8 8 8s-3.582-.014-3.798.202C3.99 8.414 4 8.282 4 10.967v2.371l-.433-.009c-.42-.009-.438-.011-.561-.084a.72.72 0 0 1-.313-.393c-.018-.066-.025-1.74-.02-4.909l.007-4.81.074-.125a.7.7 0 0 1 .359-.303c.066-.024.235-.036.494-.037L4 2.667zm6.667 7.298v2H5.333v-4h5.334z"/></svg>