<svg xmlns="http://www.w3.org/2000/svg" viewBox="0 0 16 16" fill="currentColor"><path fill-rule="evenodd" d="M1.307 2.184c-.19.04-.32.14-.417.323-.046.085-.051.179-.058 1.146C.823 4.78.828 4.841.953 4.989c.239.284.679.22.837-.122.044-.096.049-.186.049-.9l.001-.794h.788c.843 0 .904-.008 1.048-.141a.6.6 0 0 0 .163-.36.55.55 0 0 0-.279-.455c-.07-.038-.208-.044-1.12-.048a20 20 0 0 0-1.133.015M12.6 2.172a1 1 0 0 1-.098.026c-.169.037-.341.273-.341.469 0 .114.077.286.163.365.144.133.205.141 1.048.141h.788l.001.794c0 .714.005.804.049.9a.502.502 0 0 0 .938-.062c.019-.066.026-.446.02-1.152-.007-.967-.012-1.061-.058-1.146a.6.6 0 0 0-.27-.276c-.104-.056-.138-.058-1.16-.063a33 33 0 0 0-1.08.004m-9.78 1.87c-.163.088-.153-.161-.153 3.958 0 4.133-.011 3.872.159 3.96.112.058.902.058 1.015 0 .17-.088.159.173.159-3.96s.011-3.872-.159-3.96c-.111-.057-.914-.056-1.021.002m2.015.01c-.181.11-.168-.179-.168 3.953 0 3.664.001 3.743.052 3.827a.323.323 0 0 0 .562 0c.051-.084.052-.163.052-3.832s-.001-3.748-.052-3.832a.32.32 0 0 0-.446-.116m1.985-.01c-.163.088-.153-.161-.153 3.958 0 4.133-.011 3.872.159 3.96.112.058.902.058 1.015 0 .17-.088.159.173.159-3.96s.011-3.872-.159-3.96c-.111-.057-.914-.056-1.021.002m2 0c-.163.088-.153-.161-.153 3.958 0 4.133-.011 3.872.159 3.96.115.059 1.566.059 1.682 0 .169-.088.159.173.159-3.96s.01-3.872-.159-3.96c-.115-.059-1.579-.057-1.688.002m2.681.01c-.18.11-.168-.179-.168 3.953.001 3.664.002 3.743.053 3.827a.323.323 0 0 0 .562 0c.051-.084.052-.163.052-3.832s-.001-3.748-.052-3.832a.32.32 0 0 0-.447-.116m1.334 0c-.181.11-.168-.179-.168 3.953 0 3.664.001 3.743.052 3.827a.323.323 0 0 0 .562 0c.051-.084.052-.163.052-3.832s-.001-3.748-.052-3.832a.32.32 0 0 0-.446-.116M1.267 10.839c-.015.005-.06.017-.1.026-.108.023-.251.162-.3.29-.037.098-.042.25-.035 1.179.008 1.033.01 1.069.065 1.173.067.123.145.2.276.27.086.046.179.05 1.147.058.706.006 1.086-.001 1.152-.021a.54.54 0 0 0 .367-.475.6.6 0 0 0-.14-.348c-.138-.148-.155-.15-1.039-.159l-.82-.009v-.786c0-.649-.007-.803-.041-.884a.5.5 0 0 0-.226-.259c-.071-.037-.262-.071-.306-.055m13.333 0a1 1 0 0 1-.098.025c-.103.023-.236.144-.292.268-.044.097-.049.189-.049.9l-.001.791-.82.009c-.884.009-.901.011-1.039.159a.6.6 0 0 0-.14.348.54.54 0 0 0 .367.475c.066.02.446.027 1.152.021.968-.008 1.061-.012 1.147-.058a.6.6 0 0 0 .276-.27c.055-.104.057-.141.065-1.16.006-.706-.001-1.086-.02-1.152a.55.55 0 0 0-.238-.299c-.074-.038-.265-.073-.31-.057"/></svg>