<svg xmlns="http://www.w3.org/2000/svg" viewBox="0 0 16 16" fill="currentColor"><path fill-rule="evenodd" d="M.993 2.673 1 4.333h1.333l.007-.993.007-.993.993-.007.993-.007.007-.66.008-.66H.986zm10-1 .007.66.993.007.993.007.007.993.007.993h1.333l.007-1.66.007-1.66h-3.361zM3.96 3.051a1.42 1.42 0 0 0-.898.87L3 4.093v8.48l.062.172c.148.409.451.712.863.861l.168.061h7.147l.169-.061c.411-.149.715-.452.862-.861l.062-.172v-8.48l-.062-.172a1.4 1.4 0 0 0-.724-.798l-.2-.096-3.64-.005c-2.892-.004-3.662.002-3.747.029m7.027 5.296v4h-6.64v-8h6.64zM5.66 6.34l.007.66h4l.007-.66.007-.66H5.652zm0 2 .007.66h4l.007-.66.007-.66H5.652zm0 2 .007.66h4l.007-.66.007-.66H5.652zM.993 14.007 1 15.667h3.333l.007-.66.008-.66H2.347v-2H.986zm11.994-.66v1h-2.001l.007.66.007.66h3.333l.007-1.66.007-1.66h-1.36z"/></svg>