<svg xmlns="http://www.w3.org/2000/svg" viewBox="0 0 16 16" fill="currentColor"><path fill-rule="evenodd" d="M3.586 1.372a2.658 2.658 0 1 0 1.589 5.013l.176-.088.851.852.851.851-.851.851-.851.852-.176-.088a2.658 2.658 0 1 0-1.458 5.028c1.664.194 3.12-1.263 2.926-2.928a2.9 2.9 0 0 0-.269-.915l-.077-.147 3.809-3.813c3.727-3.73 3.811-3.816 3.852-3.958.052-.181.053-.25.001-.422a.67.67 0 0 0-.419-.419.6.6 0 0 0-.422.001c-.141.041-.211.109-2.631 2.527L8 7.053l-.852-.851-.851-.851.089-.176a2.66 2.66 0 0 0-2.8-3.803m.742 1.334c.24.063.417.167.608.358.269.268.397.572.397.936s-.128.668-.397.936A1.26 1.26 0 0 1 4 5.333c-.364 0-.668-.128-.936-.397A1.26 1.26 0 0 1 2.667 4c0-.364.128-.668.397-.936.269-.27.556-.392.924-.396a1.6 1.6 0 0 1 .34.038m5.098 6.321a.666.666 0 0 0-.375.906c.05.107.449.518 1.993 2.058 1.869 1.864 1.934 1.926 2.074 1.967a.6.6 0 0 0 .422.001.67.67 0 0 0 .419-.419c.052-.172.051-.241-.001-.422-.041-.14-.1-.202-1.967-2.069-1.358-1.358-1.959-1.941-2.042-1.983a.76.76 0 0 0-.523-.039m-5.098 1.679c.24.063.417.167.608.358s.295.368.358.608c.078.303.037.656-.111.948a1.7 1.7 0 0 1-.563.563 1.36 1.36 0 0 1-1.24 0 1.7 1.7 0 0 1-.563-.563 1.36 1.36 0 0 1 0-1.24c.091-.18.384-.472.564-.564a1.4 1.4 0 0 1 .947-.11"/></svg>