<svg xmlns="http://www.w3.org/2000/svg" viewBox="0 0 16 16" fill="currentColor"><path fill-rule="evenodd" d="M2.435 1.066a1.92 1.92 0 0 0-1.381 1.418c-.035.147-.04.869-.04 5.518-.001 5.213.001 5.355.051 5.552a1.91 1.91 0 0 0 1.148 1.307c.326.128.342.128 2.944.12l2.45-.008-.126-.154a5.22 5.22 0 0 1-.463-5.85 5.2 5.2 0 0 1 2.267-2.112l.365-.179-.825-.274-.824-.275-.89.296c-.965.32-1.075.341-1.284.244a.72.72 0 0 1-.326-.336c-.045-.1-.048-.269-.055-2.713l-.007-2.607-1.406.002c-1.288.001-1.422.005-1.598.051M6.72 3.11c0 1.665.007 2.093.033 2.083l.571-.189c.385-.127.576-.177.676-.177s.291.05.676.177l.571.189c.026.01.033-.418.033-2.083V1.013H6.72zm3.834.51c-.007 2.416-.011 2.614-.054 2.71l-.047.109c0 .004.093-.01.207-.03 1.432-.255 3.017.149 4.14 1.055l.173.14.008-2.449c.008-2.6.008-2.616-.12-2.942a1.91 1.91 0 0 0-1.307-1.148c-.188-.048-.303-.052-1.598-.052h-1.394zm.699 3.731a4.22 4.22 0 0 0-3.782 3.169 4.2 4.2 0 0 0 .334 2.953 4.2 4.2 0 0 0 3.176 2.259c.308.043.914.038 1.217-.011a4.2 4.2 0 0 0 1.586-.588l.249-.153.51.51.511.51H16v-.946l-.51-.511-.51-.51.153-.249a4.2 4.2 0 0 0 .588-1.586c.049-.303.054-.909.011-1.217a4.223 4.223 0 0 0-4.479-3.63m.787 1.358a2.84 2.84 0 0 1 1.576.832c.96.975 1.098 2.472.334 3.632-.122.186-.45.531-.65.685a2.94 2.94 0 0 1-2.487.489 2.89 2.89 0 0 1-2.139-2.92c.081-1.734 1.666-3.014 3.366-2.718M5.727 11.18l.007.633H4.187v-1.28l.766.007.767.007z"/></svg>