<svg xmlns="http://www.w3.org/2000/svg" viewBox="0 0 16 16" fill="currentColor"><path fill-rule="evenodd" d="M6.88 1.35a6.6 6.6 0 0 0-1.729.398c-2.021.801-3.425 2.57-3.755 4.732a7.5 7.5 0 0 0 0 1.707 6.01 6.01 0 0 0 5.084 5.084 7.6 7.6 0 0 0 1.707 0c.997-.152 1.973-.556 2.73-1.13l.157-.119 1.283 1.28c1.231 1.228 1.289 1.281 1.428 1.322a.6.6 0 0 0 .422.002.67.67 0 0 0 .419-.419.6.6 0 0 0-.002-.422c-.041-.139-.094-.197-1.322-1.428l-1.28-1.283.119-.157c.572-.754.979-1.738 1.13-2.73a7.6 7.6 0 0 0 0-1.707c-.404-2.644-2.436-4.685-5.058-5.079A9.5 9.5 0 0 0 6.88 1.35m1.213 1.379a4.84 4.84 0 0 1 1.959.812c.323.23.844.751 1.074 1.074.328.461.59 1.029.726 1.572.112.448.134.635.134 1.146 0 .512-.022.699-.134 1.147a4.66 4.66 0 0 1-3.372 3.372c-.448.112-.635.134-1.147.134-.82 0-1.443-.151-2.16-.522a4.3 4.3 0 0 1-1.132-.839c-.72-.72-1.138-1.54-1.325-2.598-.046-.263-.046-1.124 0-1.387a4.9 4.9 0 0 1 .825-2.025c.23-.323.751-.844 1.074-1.074a4.8 4.8 0 0 1 1.572-.726c.22-.056.36-.081.733-.133.164-.023.968.01 1.173.047"/></svg>