<svg xmlns="http://www.w3.org/2000/svg" viewBox="0 0 16 16" fill="currentColor"><path fill-rule="evenodd" d="M1.851 1.064a1.5 1.5 0 0 0-.976.931l-.062.178v11.654l.062.178c.073.212.278.514.437.642.169.137.386.25.572.298.145.037.618.042 4.197.042h4.032l-.19-.201a4.4 4.4 0 0 1-.621-.831l-.107-.195H5.703c-2.345 0-3.51-.009-3.544-.027-.14-.075-.132.258-.132-5.733s-.008-5.658.132-5.733c.033-.017.525-.027 1.399-.027h1.349v3.067c0 2.034.009 3.066.026 3.066.015 0 .666-.319 1.447-.71l1.42-.71 1.42.71c.781.391 1.426.71 1.433.71s.014-1.38.014-3.066V2.24h2.719l.087.078.087.078.007 2.84.007 2.84.138.029c.237.051.595.181.847.308l.243.122-.009-3.154c-.01-3.413-.002-3.243-.161-3.568-.109-.223-.425-.544-.637-.646-.339-.164.083-.154-6.221-.152-5.399.002-5.771.005-5.923.049M9.44 4.307c0 1.136-.006 2.066-.013 2.066s-.379-.183-.827-.406l-.813-.407-.814.407c-.447.223-.819.406-.826.406s-.014-.93-.014-2.066V2.24H9.44zm2.663 4.747a3 3 0 0 0-.424.118c-1.59.58-2.33 2.377-1.599 3.885a2.81 2.81 0 0 0 2.44 1.601 2.84 2.84 0 0 0 2.887-2.119c.062-.231.069-.307.069-.712 0-.379-.009-.487-.057-.659-.293-1.065-1.024-1.795-2.081-2.079-.27-.073-.936-.092-1.235-.035m.913 1.198c.265.056.517.19.728.388.365.343.523.698.523 1.182 0 .494-.13.814-.468 1.154a1.4 1.4 0 0 1-.421.316 1.58 1.58 0 0 1-1.834-.305c-.213-.213-.382-.498-.415-.701l-.016-.101.289.007.288.008.066.127a1 1 0 0 0 .452.452c.167.082.195.088.459.088.263 0 .292-.006.456-.087.213-.104.4-.296.497-.508.093-.202.115-.551.047-.757a1.09 1.09 0 0 0-.634-.67c-.297-.118-.755-.052-.98.14l-.093.079.221.002.221.001-.008.273-.007.273-.687.007-.687.008V10.24h.56v.4l.125-.095c.37-.283.856-.391 1.318-.293M3.68 11.293v.627h4.107v-1.253H3.68z"/></svg>