<svg xmlns="http://www.w3.org/2000/svg" viewBox="0 0 16 16" fill="currentColor"><path fill-rule="evenodd" d="M1.557 1.064a1.52 1.52 0 0 0-.976.931l-.061.178v11.654l.061.178c.155.447.561.825 1.01.94.145.037.587.042 3.853.042h3.689l-.333-.34a5 5 0 0 1-.518-.614l-.185-.273h-3.09c-2.069 0-3.107-.009-3.142-.027-.139-.075-.132.258-.132-5.733s-.007-5.658.132-5.733c.033-.017.526-.027 1.4-.027h1.348v3.067c0 2.034.009 3.066.027 3.066.015 0 .666-.319 1.447-.71l1.419-.71.912.456.912.456.275-.172c.151-.095.386-.222.522-.284l.246-.112V2.24h2.719l.088.078.087.078.007 2.395.008 2.396.192.061c.221.07.621.255.846.392.084.051.161.093.171.093s.014-1.239.009-2.753c-.009-3.054.001-2.889-.186-3.219-.114-.202-.425-.504-.612-.594-.339-.164.083-.154-6.221-.152-5.399.002-5.771.005-5.924.049m7.59 3.243c0 1.136-.006 2.066-.014 2.066-.007 0-.379-.183-.826-.406l-.814-.407-.813.407c-.448.223-.82.406-.827.406s-.013-.93-.013-2.066V2.24h3.307zm2.405 3.722a3.52 3.52 0 0 0-2.653 1.857 3.5 3.5 0 0 0-.228 2.684c.165.519.425.948.827 1.365A3.4 3.4 0 0 0 12 14.993c.966 0 1.835-.368 2.502-1.058a3.2 3.2 0 0 0 .616-.851 3.52 3.52 0 0 0-.3-3.655 3.46 3.46 0 0 0-2.725-1.416 4 4 0 0 0-.541.016m-.11 1.648c.044.035.062.077.062.147 0 .09-.03.128-.385.484l-.385.385h1.094c1.189 0 1.287.01 1.529.152.251.147.455.439.51.732.015.075.026.496.026.935 0 .834-.011.923-.121.965-.087.033-.19.015-.246-.044-.054-.058-.056-.087-.064-.94-.01-.99-.01-.99-.209-1.184-.189-.183-.233-.189-1.451-.189h-1.068l.385.386c.351.351.385.394.385.48 0 .127-.084.211-.212.211-.089 0-.136-.04-.694-.6-.547-.548-.598-.607-.598-.691s.051-.142.594-.685c.555-.555.6-.594.69-.594.055 0 .124.021.158.05m-8.055 1.616v.627h4.106v-1.253H3.387z"/></svg>