<svg xmlns="http://www.w3.org/2000/svg" viewBox="0 0 16 16" fill="currentColor"><path fill-rule="evenodd" d="M2.338.695c-.431.072-.733.233-1.072.571-.346.346-.499.638-.572 1.089-.036.219-.036 3.071 0 3.29.073.451.226.743.572 1.089s.638.499 1.089.572c.226.037 11.064.037 11.29 0 .451-.073.743-.226 1.089-.572s.499-.638.572-1.089c.036-.219.036-3.071 0-3.29-.073-.451-.226-.743-.572-1.089s-.638-.499-1.089-.572C13.444.661 2.532.662 2.338.695m11.215 1.343a.7.7 0 0 1 .36.303l.074.126v3.066l-.074.126a.7.7 0 0 1-.36.303c-.148.053-10.958.053-11.106 0a.7.7 0 0 1-.36-.303l-.074-.126V2.467l.074-.126a.7.7 0 0 1 .36-.303c.148-.053 10.958-.053 11.106 0M3.782 3.375c-.241.074-.449.364-.449.625A.7.7 0 0 0 4 4.667a.83.83 0 0 0 .437-.164c.392-.325.255-.984-.235-1.13a.62.62 0 0 0-.42.002m-1.444 5.32c-.431.072-.733.233-1.072.571-.346.346-.499.638-.572 1.089-.036.219-.036 3.071 0 3.29.073.451.226.743.572 1.089s.638.499 1.089.572c.226.037 11.064.037 11.29 0 .451-.073.743-.226 1.089-.572s.499-.638.572-1.089c.036-.219.036-3.071 0-3.29-.073-.451-.226-.743-.572-1.089s-.638-.499-1.089-.572c-.201-.033-11.113-.032-11.307.001m11.215 1.343a.7.7 0 0 1 .36.303l.074.126v3.066l-.074.126a.7.7 0 0 1-.36.303c-.148.053-10.958.053-11.106 0a.7.7 0 0 1-.36-.303l-.074-.126v-3.066l.074-.126a.7.7 0 0 1 .36-.303c.148-.053 10.958-.053 11.106 0m-9.771 1.337c-.241.074-.449.364-.449.625a.7.7 0 0 0 .667.667.83.83 0 0 0 .437-.164c.392-.325.255-.984-.235-1.13a.62.62 0 0 0-.42.002"/></svg>