<svg xmlns="http://www.w3.org/2000/svg" viewBox="0 0 16 16" fill="currentColor"><path fill-rule="evenodd" d="M7.671.028a2.1 2.1 0 0 0-.658.231c-.224.13-.624.53-.754.754-.162.28-.258.654-.259 1.008 0 .292-.094.424-.354.499-.205.059-.296.027-.553-.193a2.1 2.1 0 0 0-.742-.429c-.183-.062-.246-.069-.604-.069-.37-.001-.417.005-.614.073a2 2 0 0 0-.789.496 2 2 0 0 0-.495.789c-.068.197-.074.244-.074.613.001.358.008.422.069.604.094.279.224.503.441.755l.182.212v.19c0 .167-.009.202-.075.288-.12.157-.182.184-.48.209-.6.05-.975.226-1.365.64-.32.339-.467.651-.528 1.122a1.7 1.7 0 0 0 0 .467c.061.47.208.783.528 1.122.401.425.783.599 1.413.641.339.023.398.048.516.219.052.077.06.117.052.253-.01.157-.016.17-.191.374a2.1 2.1 0 0 0-.439.753c-.062.183-.069.246-.069.604-.001.37.005.417.073.614.107.306.264.557.496.789s.482.388.789.495c.197.068.244.074.613.074.358-.001.422-.008.604-.069a2.2 2.2 0 0 0 .743-.43c.241-.206.344-.247.515-.204.15.037.325.183.36.298.015.048.034.189.042.313.037.537.23.939.634 1.32.339.32.651.467 1.122.528a2.03 2.03 0 0 0 1.22-.24c.225-.13.624-.53.754-.754a2.1 2.1 0 0 0 .259-1.008c0-.092.017-.207.037-.254a.5.5 0 0 1 .313-.259c.155-.042.268.004.504.207.387.332.752.483 1.228.507.336.017.575-.02.85-.13a2 2 0 0 0 1.121-1.123c.108-.27.144-.51.127-.845-.024-.478-.175-.841-.511-1.234-.135-.157-.181-.232-.199-.324a.44.44 0 0 1 .119-.393c.093-.097.18-.122.478-.141.547-.035.948-.226 1.333-.634.32-.339.467-.652.528-1.123a2.03 2.03 0 0 0-.24-1.22c-.13-.224-.53-.624-.754-.754A2.1 2.1 0 0 0 13.979 6c-.285 0-.424-.095-.492-.333-.061-.217-.026-.327.181-.568.337-.393.488-.756.512-1.234a1.85 1.85 0 0 0-.13-.85 2 2 0 0 0-1.123-1.121 1.85 1.85 0 0 0-.845-.127c-.476.024-.841.175-1.229.507-.237.203-.348.249-.505.206-.137-.037-.284-.164-.317-.275a2 2 0 0 1-.041-.325 2.2 2.2 0 0 0-.181-.743 2.4 2.4 0 0 0-.823-.878A2.07 2.07 0 0 0 7.671.028m.67 1.403c.155.095.292.291.309.443l.041.371c.016.142.054.327.086.412.188.502.596.897 1.116 1.081.149.052.226.061.547.061.338 0 .392-.006.569-.071a2 2 0 0 0 .651-.391c.207-.181.352-.247.54-.247.363 0 .657.294.657.657 0 .187-.066.333-.247.54-.321.367-.452.686-.471 1.143-.026.624.211 1.17.654 1.512.334.257.604.351 1.111.389.275.02.327.032.438.1a.666.666 0 0 1 .001 1.137c-.104.064-.168.08-.413.102-.357.032-.552.079-.767.186a1.82 1.82 0 0 0-.948 1.224 2.3 2.3 0 0 0 .013.773c.059.253.229.573.417.787.198.225.265.367.265.56a.657.657 0 0 1-.657.657c-.192 0-.328-.065-.586-.282-.366-.307-.723-.441-1.174-.441a1.73 1.73 0 0 0-1.355.626c-.269.326-.377.623-.416 1.144-.02.275-.032.327-.1.438a.666.666 0 0 1-1.137.001c-.065-.107-.08-.167-.102-.427-.047-.53-.234-.936-.581-1.256a2.2 2.2 0 0 0-.829-.432 2.2 2.2 0 0 0-.826 0 2 2 0 0 0-.787.417c-.225.198-.367.265-.56.265a.657.657 0 0 1-.657-.657c0-.192.065-.328.282-.586.33-.394.455-.754.435-1.254a1.4 1.4 0 0 0-.082-.489 1.77 1.77 0 0 0-.889-1.015c-.218-.111-.424-.159-.793-.187-.275-.02-.327-.032-.438-.1a.666.666 0 0 1-.001-1.137c.106-.065.167-.08.427-.103.64-.056 1.102-.315 1.412-.788.22-.337.316-.651.316-1.034.001-.45-.133-.807-.44-1.173-.217-.259-.282-.395-.282-.587 0-.363.294-.657.657-.657.187 0 .333.066.54.247.367.321.686.452 1.143.471.761.031 1.384-.322 1.714-.972.109-.215.157-.415.186-.789.028-.352.085-.491.257-.622a.68.68 0 0 1 .754-.047m-.755 3.941a2.658 2.658 0 0 0 .131 5.271c1.663.194 3.12-1.263 2.926-2.926a2.66 2.66 0 0 0-3.057-2.345m.742 1.334c.084.022.216.072.292.111.179.091.472.384.563.563.199.393.199.847 0 1.24a1.7 1.7 0 0 1-.563.563 1.36 1.36 0 0 1-1.24 0 1.7 1.7 0 0 1-.563-.563 1.36 1.36 0 0 1 0-1.24c.091-.18.384-.472.564-.564a1.4 1.4 0 0 1 .947-.11"/></svg>