<svg xmlns="http://www.w3.org/2000/svg" viewBox="0 0 16 16" fill="currentColor"><path fill-rule="evenodd" d="M11.586.705c-1.495.233-2.5 1.693-2.19 3.182.025.119.027.174.006.19-.042.032-3.429 2.005-3.47 2.02-.019.008-.134-.066-.256-.162a2.66 2.66 0 0 0-4.319 1.782 2.66 2.66 0 0 0 1.416 2.641 2.65 2.65 0 0 0 2.901-.293c.122-.097.237-.171.257-.163.024.009 3.1 1.793 3.5 2.029.002.001-.013.08-.033.176a2.67 2.67 0 0 0 1.375 2.918 2.664 2.664 0 0 0 3.585-1.132 2.66 2.66 0 0 0-2.075-3.87 2.67 2.67 0 0 0-1.961.58l-.224.178-.083-.045c-.045-.025-.838-.486-1.762-1.026-1.37-.801-1.678-.991-1.672-1.033l.049-.304a2.7 2.7 0 0 0-.026-.927c-.025-.119-.027-.173-.006-.189a357 357 0 0 1 3.47-2.021c.019-.007.134.066.256.163.848.67 1.952.781 2.903.292a2.67 2.67 0 0 0 1.315-3.141A2.67 2.67 0 0 0 11.586.705m.742 1.335c.084.022.216.071.292.11.179.091.472.384.563.563.199.393.199.848 0 1.241-.091.179-.384.472-.563.562-.393.2-.847.2-1.24 0-.173-.087-.463-.377-.559-.558a1.36 1.36 0 0 1-.004-1.245c.091-.179.384-.472.564-.563.29-.148.646-.189.947-.11m-8 4.666c.241.063.418.168.606.358.274.278.399.572.399.936s-.125.658-.399.936A1.25 1.25 0 0 1 4 9.333c-.364 0-.668-.128-.936-.397A1.26 1.26 0 0 1 2.667 8c0-.364.128-.668.397-.936.269-.27.556-.392.924-.396a1.6 1.6 0 0 1 .34.038m8 4.667c.24.063.417.167.608.358.269.268.397.571.397.936 0 .364-.128.667-.397.936A1.27 1.27 0 0 1 12 14c-.364 0-.668-.129-.936-.397a1.26 1.26 0 0 1-.397-.936c0-.591.42-1.138.993-1.293.186-.049.48-.05.668-.001"/></svg>