<svg xmlns="http://www.w3.org/2000/svg" viewBox="0 0 16 16" fill="currentColor"><path fill-rule="evenodd" d="M7.72.731c-.106.05-.427.358-1.551 1.486-1.363 1.369-1.419 1.429-1.46 1.568a.6.6 0 0 0-.002.422.67.67 0 0 0 .419.419.6.6 0 0 0 .422-.002c.137-.041.192-.09.965-.859l.82-.816V6.51c0 3.11.005 3.578.041 3.697.075.252.358.46.626.46a.69.69 0 0 0 .626-.46c.036-.119.041-.587.041-3.697V2.949l.82.816c.773.769.828.818.965.859a.6.6 0 0 0 .422.002.67.67 0 0 0 .419-.419.6.6 0 0 0-.002-.422c-.041-.139-.097-.199-1.46-1.568C8.707 1.089 8.386.781 8.28.731a.64.64 0 0 0-.56 0M2.448 7.375a.69.69 0 0 0-.407.418C2.005 7.912 2 8.298 2 10.705c0 1.726.011 2.837.027 2.94.073.451.227.743.573 1.089s.638.499 1.089.572c.225.037 8.397.037 8.622 0 .451-.073.743-.226 1.089-.572s.5-.638.573-1.089c.016-.103.027-1.214.027-2.94 0-3.137.012-2.956-.202-3.17a.7.7 0 0 0-.465-.202.72.72 0 0 0-.452.189c-.216.21-.199-.039-.214 3.158l-.014 2.853-.074.126a.7.7 0 0 1-.359.303c-.148.053-8.292.053-8.44 0a.7.7 0 0 1-.359-.303l-.074-.126-.014-2.853c-.015-3.197.002-2.948-.214-3.158a.65.65 0 0 0-.671-.147"/></svg>