<svg xmlns="http://www.w3.org/2000/svg" viewBox="0 0 16 16" fill="currentColor"><path fill-rule="evenodd" d="M7.8.702c-.059.02-1.318.49-2.799 1.046C2.062 2.85 2.197 2.79 2.066 3.054c-.051.103-.053.182-.061 2.559-.009 2.923.001 3.116.211 3.854.55 1.927 2.249 3.848 4.757 5.379.932.568 1.03.586 1.573.283 1.774-.99 3.406-2.404 4.305-3.729.597-.88.943-1.718 1.089-2.638.042-.267.047-.545.047-2.949 0-2.584-.002-2.656-.053-2.759-.131-.264.011-.201-3.002-1.331C9.029 1.009 8.132.685 8.04.678a.7.7 0 0 0-.24.024m2.548 2.222 2.321.87-.009 2.363c-.009 2.322-.01 2.367-.068 2.621-.305 1.338-1.179 2.585-2.674 3.813-.478.393-1.27.946-1.768 1.236-.163.095-.154.098-.686-.241-2.272-1.447-3.67-3.103-4.054-4.799-.06-.265-.061-.289-.07-2.63l-.009-2.363 2.315-.869c1.273-.478 2.329-.87 2.347-.87.018-.001 1.078.39 2.355.869"/></svg>