<svg xmlns="http://www.w3.org/2000/svg" viewBox="0 0 16 16" fill="currentColor"><path fill-rule="evenodd" d="M.448.042A.69.69 0 0 0 .041.46a.6.6 0 0 0 .002.422c.04.137.092.195 1.036 1.145l.993 1-.034.106c-.043.136-.053 4.852-.011 5.307.163 1.763 1.17 3.442 3.002 5.005.748.638 1.947 1.457 2.617 1.787q.353.173.671.012c1.005-.507 2.09-1.281 3.092-2.203l.356-.328 1.604 1.601c1.548 1.545 1.609 1.603 1.749 1.644a.6.6 0 0 0 .422.001.67.67 0 0 0 .419-.419c.052-.172.051-.241-.001-.422-.041-.142-.167-.269-7.487-7.589S1.024.083.882.042a.63.63 0 0 0-.434 0m7.245.699c-.117.042-.643.237-1.17.434-1.085.405-1.14.437-1.244.713a.646.646 0 0 0 .674.88c.092-.008.468-.135 1.087-.366.821-.307.957-.35 1.027-.329.044.014 1.097.406 2.34.873l2.26.847v2.23c-.001 2.411-.003 2.453-.148 3.017-.076.292-.073.414.015.587a.665.665 0 0 0 .984.238c.136-.099.224-.254.293-.518.185-.707.194-.9.184-3.76-.008-2.351-.01-2.43-.061-2.533-.131-.264.011-.201-3.002-1.331C9.098 1.035 8.129.684 8.04.676c-.101-.009-.184.006-.347.065m2.842 11.29a13 13 0 0 1-2.133 1.638c-.345.211-.389.231-.454.206-.115-.043-.862-.526-1.241-.803-.816-.594-1.624-1.34-2.103-1.939-.619-.775-1.015-1.553-1.194-2.346-.059-.263-.06-.3-.069-2.387l-.009-2.12 3.741 3.742 3.74 3.741z"/></svg>