<svg xmlns="http://www.w3.org/2000/svg" viewBox="0 0 16 16" fill="currentColor"><path fill-rule="evenodd" d="M3.834.696a.7.7 0 0 0-.197.084c-.13.081-2.235 2.879-2.275 3.025-.038.137-.04 9.605-.002 9.84.074.451.227.743.573 1.089s.638.499 1.089.572c.226.037 9.73.037 9.956 0 .451-.073.743-.226 1.089-.572s.499-.638.573-1.089c.038-.235.036-9.703-.002-9.84-.04-.145-2.145-2.944-2.274-3.025a1 1 0 0 0-.21-.086C12.01.661 3.975.662 3.834.696m8.333 1.971.5.666H3.333l.5-.666.5-.667h7.334zm1.165 6.393c-.001 3.6-.007 4.411-.037 4.493a.7.7 0 0 1-.303.36l-.125.074H3.133l-.125-.074a.7.7 0 0 1-.303-.36c-.03-.082-.036-.893-.037-4.493l-.001-4.393h10.666zM5.115 6.042a.68.68 0 0 0-.411.431c-.098.334.051 1.143.302 1.647.476.954 1.293 1.58 2.368 1.815.294.064.958.064 1.252 0 1.059-.231 1.846-.822 2.332-1.752.282-.54.443-1.351.338-1.71A.69.69 0 0 0 10.667 6c-.237 0-.517.183-.606.396a1.8 1.8 0 0 0-.063.378c-.049.603-.275 1.044-.737 1.44a2 2 0 0 1-.701.377c-.289.09-.831.09-1.12 0a2 2 0 0 1-.701-.377c-.462-.396-.688-.837-.737-1.44-.026-.332-.066-.439-.216-.585a.65.65 0 0 0-.671-.147"/></svg>