<svg xmlns="http://www.w3.org/2000/svg" viewBox="0 0 16 16" fill="currentColor"><path fill-rule="evenodd" d="M.448.042C.208.116 0 .406 0 .667a.7.7 0 0 0 .202.464c.199.199.225.202 1.492.202h1.097l.845 4.234c.466 2.328.877 4.323.914 4.433a2.04 2.04 0 0 0 1.37 1.272c.164.045.376.048 3.773.048 3.36 0 3.611-.003 3.766-.047.649-.185 1.178-.673 1.377-1.273.105-.315 1.171-5.934 1.153-6.076a.67.67 0 0 0-.211-.409c-.201-.195.236-.182-5.806-.182H4.541l-.272-1.366A56 56 0 0 0 3.958.462.54.54 0 0 0 3.8.205C3.592-.004 3.624 0 2.002.002.838.003.55.011.448.042m14.075 4.671c-.007.026-.219 1.127-.47 2.447-.498 2.624-.479 2.548-.699 2.708a.8.8 0 0 1-.209.106c-.066.018-1.272.024-3.511.02l-3.412-.007-.131-.081c-.275-.17-.236-.033-.78-2.748-.266-1.334-.484-2.44-.484-2.458 0-.027.988-.033 4.855-.033 4.611 0 4.854.002 4.841.046m-8.836 7.994c-.234.051-.419.157-.622.359a1.23 1.23 0 0 0-.376.727c-.067.436.062.829.376 1.143.404.405.999.507 1.518.26.234-.112.498-.374.612-.609a1.38 1.38 0 0 0 0-1.174 1.63 1.63 0 0 0-.574-.595 1.4 1.4 0 0 0-.934-.111m7.333 0c-.092.02-.23.07-.307.111a1.6 1.6 0 0 0-.575.595 1.38 1.38 0 0 0 0 1.174c.112.23.378.496.609.608a1.335 1.335 0 0 0 1.898-.992 1.29 1.29 0 0 0-.376-1.137c-.208-.206-.388-.308-.635-.36a1.34 1.34 0 0 0-.614.001"/></svg>