<svg xmlns="http://www.w3.org/2000/svg" viewBox="0 0 16 16" fill="currentColor"><path fill-rule="evenodd" d="M10.448 1.375c-.24.074-.448.364-.448.625 0 .158.08.343.202.465.194.193.246.202 1.289.202h.895L7.235 7.82c-5.052 5.054-5.152 5.156-5.193 5.298-.052.181-.053.25-.001.422a.67.67 0 0 0 .419.419c.172.052.241.051.422-.001.142-.041.244-.141 5.298-5.193l5.153-5.151v.895c0 1.043.009 1.095.202 1.289A.7.7 0 0 0 14 6c.158 0 .343-.08.465-.202.207-.208.202-.148.201-2.17 0-1.66-.004-1.782-.049-1.881a.67.67 0 0 0-.33-.345l-.137-.069-1.789.002c-1.477.002-1.809.009-1.913.04m-8 .667a.69.69 0 0 0-.407.418c-.052.172-.051.241.001.422.041.14.098.2 1.82 1.922 1.723 1.723 1.783 1.78 1.923 1.82a.6.6 0 0 0 .422.002.67.67 0 0 0 .419-.419.6.6 0 0 0-.002-.422c-.04-.14-.097-.2-1.82-1.923-1.722-1.722-1.782-1.779-1.922-1.82a.63.63 0 0 0-.434 0m7.334 7.333a.69.69 0 0 0-.408.418.6.6 0 0 0 .002.422c.041.14.097.199 1.526 1.632l1.483 1.486h-.894c-1.043 0-1.095.009-1.289.202A.7.7 0 0 0 10 14c0 .158.08.343.202.465.208.207.148.202 2.171.202h1.777l.137-.069a.67.67 0 0 0 .33-.345c.045-.099.049-.221.049-1.881.001-2.022.006-1.962-.201-2.17A.7.7 0 0 0 14 10a.7.7 0 0 0-.465.202c-.193.194-.202.246-.202 1.289v.894l-1.486-1.483c-1.433-1.429-1.492-1.485-1.632-1.526a.64.64 0 0 0-.433-.001"/></svg>