<svg xmlns="http://www.w3.org/2000/svg" viewBox="0 0 16 16" fill="currentColor"><path fill-rule="evenodd" d="M12.445 2.039a.6.6 0 0 0-.147.073c-.024.021-1.563 1.252-3.418 2.735C6.75 6.55 5.484 7.579 5.446 7.639a.67.67 0 0 0 .029.759c.098.123 6.77 5.466 6.909 5.532.252.12.547.068.747-.132.22-.22.204.28.196-5.852-.007-5.357-.008-5.455-.059-5.558-.152-.306-.514-.46-.823-.349m-9.33.67a.69.69 0 0 0-.408.417c-.035.12-.04.711-.04 4.874s.005 4.754.04 4.874a.69.69 0 0 0 .626.459c.268 0 .552-.208.626-.459C3.995 12.754 4 12.163 4 8c0-5.327.016-4.913-.202-5.131a.64.64 0 0 0-.683-.16M12 8v3.947L9.546 9.983c-1.35-1.08-2.451-1.975-2.446-1.99.007-.021 4.864-3.929 4.893-3.938C11.997 4.054 12 5.829 12 8"/></svg>