<svg xmlns="http://www.w3.org/2000/svg" viewBox="0 0 16 16" fill="currentColor"><path fill-rule="evenodd" d="M3.115 2.041a.69.69 0 0 0-.408.422c-.036.123-.04.784-.034 5.591.007 5.357.008 5.455.059 5.558a.7.7 0 0 0 .409.351.7.7 0 0 0 .478-.026c.153-.079 6.822-5.433 6.907-5.544a.66.66 0 0 0-.001-.791c-.099-.126-6.771-5.467-6.913-5.534a.75.75 0 0 0-.497-.027m9.333.668a.69.69 0 0 0-.407.417C12.005 3.246 12 3.837 12 8s.005 4.754.041 4.874c.074.251.358.459.626.459a.69.69 0 0 0 .626-.459c.035-.12.04-.711.04-4.874 0-5.327.017-4.913-.202-5.131a.64.64 0 0 0-.683-.16M8.907 8c0 .012-1.104.905-2.454 1.984L4 11.947V4.053l2.453 1.963C7.803 7.095 8.907 7.988 8.907 8"/></svg>