<svg xmlns="http://www.w3.org/2000/svg" viewBox="0 0 16 16" fill="currentColor"><path fill-rule="evenodd" d="M5.307.708A1.69 1.69 0 0 0 4.04 1.987c-.154.737.208 1.497.868 1.823.332.164.495.189 1.214.19.734 0 .825-.018 1.009-.202s.202-.275.202-1.01c-.001-.719-.026-.881-.19-1.213C6.816.912 6.048.549 5.307.708m4 0A1.69 1.69 0 0 0 8.04 1.987c-.058.275-.058 3.751 0 4.026a1.67 1.67 0 0 0 1.973 1.28 1.68 1.68 0 0 0 1.28-1.28c.058-.275.058-3.751 0-4.026A1.674 1.674 0 0 0 9.307.708M5.903 2.104c.08.079.084.096.093.326l.01.242-.243-.009c-.232-.009-.245-.013-.329-.097-.077-.077-.087-.104-.087-.231 0-.117.012-.158.066-.216.091-.097.153-.12.29-.108a.28.28 0 0 1 .2.093m4 0 .084.084v3.624l-.088.087c-.077.078-.103.088-.232.088s-.156-.01-.233-.088l-.087-.087V2.191l.066-.072c.091-.097.153-.12.29-.108a.28.28 0 0 1 .2.093m3.404 1.937A1.69 1.69 0 0 0 12.04 5.32c-.056.269-.056 1.364.001 1.554a.67.67 0 0 0 .419.419c.19.056 1.284.057 1.553 0 .481-.1.917-.435 1.13-.868a1.62 1.62 0 0 0 0-1.517c-.327-.663-1.095-1.026-1.836-.867m-11.334.667A1.69 1.69 0 0 0 .707 5.987c-.155.737.207 1.497.868 1.823.386.19.372.189 2.425.189S6.039 8 6.425 7.81c.661-.326 1.023-1.086.868-1.823a1.68 1.68 0 0 0-1.28-1.28c-.267-.056-3.778-.055-4.04.001m11.93.73c.073.073.084.101.084.229 0 .129-.01.155-.087.232-.084.084-.097.088-.33.097l-.242.01.009-.241c.009-.213.017-.249.076-.312.091-.098.153-.121.29-.109a.28.28 0 0 1 .2.094m-8.004.663c.078.077.088.103.088.232s-.01.156-.088.233l-.087.087H2.188l-.087-.087c-.077-.077-.088-.104-.088-.231 0-.117.013-.158.067-.216a.5.5 0 0 1 .12-.094c.029-.012.854-.02 1.833-.017l1.779.005zm4.074 1.94A1.69 1.69 0 0 0 8.707 9.32c-.155.737.207 1.498.868 1.823.386.19.372.189 2.425.189s2.039.001 2.425-.189c.661-.325 1.023-1.086.868-1.823a1.68 1.68 0 0 0-1.28-1.28c-.267-.056-3.778-.055-4.04.001m-8 .667A1.69 1.69 0 0 0 .707 9.987 1.666 1.666 0 0 0 2.68 11.96a1.69 1.69 0 0 0 1.28-1.28c.056-.269.056-1.364-.001-1.554a.67.67 0 0 0-.419-.419c-.184-.055-1.31-.054-1.567.001m4 0a1.69 1.69 0 0 0-1.266 1.279c-.058.275-.058 3.751 0 4.026a1.67 1.67 0 0 0 1.973 1.28 1.68 1.68 0 0 0 1.28-1.28c.058-.275.058-3.751 0-4.026a1.675 1.675 0 0 0-1.987-1.279m7.926.726c.078.077.088.104.088.233s-.01.155-.088.232l-.087.088h-3.624l-.087-.088c-.077-.076-.088-.104-.088-.231 0-.116.013-.157.067-.215a.5.5 0 0 1 .12-.095c.029-.012.854-.019 1.833-.017l1.779.006zm-11.236.806c-.009.229-.013.243-.097.326-.077.077-.104.087-.233.087s-.155-.01-.232-.087-.088-.104-.088-.231c0-.117.013-.158.067-.216.093-.1.144-.115.383-.117L2.672 10zm3.907-.136.083.084v3.624l-.087.087c-.077.078-.104.088-.233.088s-.155-.01-.232-.088l-.088-.087v-3.621l.067-.072c.09-.097.152-.12.29-.108a.28.28 0 0 1 .2.093m2.545 1.938a.69.69 0 0 0-.408.418c-.056.19-.057 1.284 0 1.553a1.67 1.67 0 0 0 1.973 1.28c.481-.1.917-.435 1.13-.868.25-.508.25-1.009 0-1.517a1.67 1.67 0 0 0-1.13-.868c-.26-.054-1.386-.053-1.565.002m1.451 1.392c.077.077.087.104.087.233s-.01.155-.087.232-.104.088-.233.088-.155-.01-.232-.087c-.084-.084-.088-.097-.097-.33l-.01-.242.243.009c.232.009.245.013.329.097"/></svg>