<svg xmlns="http://www.w3.org/2000/svg" viewBox="0 0 16 16" fill="currentColor"><path fill-rule="evenodd" d="M7.38.693c-1.653.161-3.133.808-4.313 1.888C1.799 3.741 1.008 5.231.743 6.96a8.5 8.5 0 0 0 0 2.08c.32 2.083 1.427 3.855 3.137 5.018a7.2 7.2 0 0 0 3.08 1.199 8.6 8.6 0 0 0 2.08 0c1.624-.248 3.043-.964 4.165-2.102q1.682-1.703 2.052-4.115a8.5 8.5 0 0 0 0-2.08 7.45 7.45 0 0 0-1.535-3.547 11.5 11.5 0 0 0-1.135-1.135A7.44 7.44 0 0 0 9.053.747C8.631.684 7.759.656 7.38.693m1.58 1.382a5.8 5.8 0 0 1 1.693.55 6 6 0 0 1 2.008 1.594 6.3 6.3 0 0 1 1.164 2.339c.128.511.161.801.161 1.442 0 .794-.076 1.265-.32 1.975-.176.516-.608 1.316-.914 1.693l-.061.076-4.218-4.217-4.217-4.218.076-.061a6.4 6.4 0 0 1 1.015-.622 6 6 0 0 1 2.133-.61c.27-.028 1.183.009 1.48.059M7.532 8.479l4.212 4.212-.076.061c-.377.306-1.177.738-1.693.914-.71.244-1.181.32-1.975.32-.641 0-.931-.033-1.442-.161-.849-.212-1.733-.658-2.371-1.194a5.9 5.9 0 0 1-1.561-1.978 6 6 0 0 1-.564-1.76c-.067-.412-.067-1.374 0-1.786a6.24 6.24 0 0 1 1.109-2.673c.067-.091.128-.166.136-.167.007 0 1.908 1.895 4.225 4.212"/></svg>