<svg xmlns="http://www.w3.org/2000/svg" viewBox="0 0 16 16" fill="currentColor"><path fill-rule="evenodd" d="M2.448 1.375a.69.69 0 0 0-.407.418c-.061.206-.061 4.875 0 5.081.074.251.358.459.626.459a.7.7 0 0 0 .464-.202c.212-.212.202-.076.202-2.798s.01-2.586-.202-2.798c-.186-.186-.42-.24-.683-.16m5.334 0a.6.6 0 0 0-.246.16c-.204.204-.203.194-.203 1.763v1.369h-.701c-.83 0-.909.014-1.097.202a.7.7 0 0 0-.202.464c0 .268.208.552.46.626.205.061 4.209.061 4.414 0 .252-.074.46-.358.46-.626a.7.7 0 0 0-.202-.464c-.188-.188-.267-.202-1.097-.202h-.701V3.298c0-1.568.001-1.559-.202-1.763a.65.65 0 0 0-.683-.16m5.333 0a.69.69 0 0 0-.408.418c-.035.119-.04.536-.04 3.207s.005 3.088.04 3.207c.075.252.358.46.626.46s.552-.208.626-.46C13.995 8.088 14 7.671 14 5c0-3.466.013-3.25-.202-3.465-.186-.186-.42-.24-.683-.16m-5.333 6a.69.69 0 0 0-.408.418c-.035.119-.041.536-.041 3.207s.006 3.088.041 3.207c.075.252.358.46.626.46a.69.69 0 0 0 .626-.46c.035-.119.041-.536.041-3.207 0-3.466.012-3.25-.202-3.465a.65.65 0 0 0-.683-.16M.448 8.709c-.24.074-.448.364-.448.624a.7.7 0 0 0 .202.465C.39 9.985.469 10 1.298 10H2v2.035c0 2.311-.008 2.22.202 2.43a.7.7 0 0 0 .465.202.7.7 0 0 0 .464-.202c.21-.21.202-.119.202-2.43V10h.702c.83 0 .909-.015 1.096-.202a.7.7 0 0 0 .202-.465.69.69 0 0 0-.459-.626C4.675 8.648.641 8.65.448 8.709m10.667 1.333c-.24.074-.448.364-.448.625a.7.7 0 0 0 .202.464c.187.188.266.202 1.096.202h.702v1.369c0 1.568-.001 1.559.202 1.763a.7.7 0 0 0 .464.202.7.7 0 0 0 .465-.202c.203-.204.202-.195.202-1.763v-1.369h.702c.829 0 .908-.014 1.096-.202a.7.7 0 0 0 .202-.464c0-.268-.208-.552-.46-.626-.198-.059-4.233-.058-4.425.001"/></svg>