<svg xmlns="http://www.w3.org/2000/svg" viewBox="0 0 16 16" fill="currentColor"><path fill-rule="evenodd" d="M4.338.695c-.431.072-.733.233-1.072.571-.346.346-.499.638-.572 1.089-.037.226-.037 11.064 0 11.29.073.451.226.743.572 1.089s.638.499 1.089.572c.225.037 7.065.037 7.29 0 .451-.073.743-.226 1.089-.572s.499-.638.572-1.089c.037-.226.037-11.064 0-11.29-.073-.451-.226-.743-.572-1.089s-.638-.499-1.089-.572c-.2-.033-7.114-.032-7.307.001m7.321 1.392c.142.084.25.212.303.36s.053 10.958 0 11.106a.7.7 0 0 1-.303.36l-.126.074H4.467l-.128-.075a.73.73 0 0 1-.313-.393c-.017-.066-.024-1.964-.02-5.576l.007-5.476.074-.126a.7.7 0 0 1 .36-.303c.082-.03.721-.035 3.593-.03l3.493.005zm-3.877 9.288c-.241.074-.449.364-.449.625a.7.7 0 0 0 .667.667.83.83 0 0 0 .437-.164c.392-.325.255-.984-.235-1.13a.62.62 0 0 0-.42.002"/></svg>