<svg xmlns="http://www.w3.org/2000/svg" viewBox="0 0 16 16" fill="currentColor"><path fill-rule="evenodd" d="M3.666.695a2.03 2.03 0 0 0-1.585 1.398l-.068.214-.007 5.573c-.005 3.665.002 5.634.02 5.749.07.459.224.755.574 1.105.346.346.638.499 1.089.572.225.037 8.397.037 8.622 0 .451-.073.743-.226 1.089-.572s.5-.638.573-1.089c.037-.226.037-11.064 0-11.29-.073-.451-.227-.743-.573-1.089s-.638-.499-1.089-.572C12.108.661 3.863.662 3.666.695m8.66 1.392c.142.084.25.212.303.36s.053 10.958 0 11.106a.7.7 0 0 1-.303.36l-.126.074H3.8l-.128-.075a.72.72 0 0 1-.312-.393c-.018-.066-.025-1.964-.02-5.576l.007-5.476.074-.126a.7.7 0 0 1 .359-.303c.082-.03.831-.035 4.26-.03l4.16.005zM7.782 3.375c-.241.074-.449.364-.449.625A.7.7 0 0 0 8 4.667a.83.83 0 0 0 .437-.164c.392-.325.255-.984-.235-1.13a.62.62 0 0 0-.42.002m-.062 2.64c-.378.053-.513.081-.733.151a3.35 3.35 0 0 0-2.259 2.553c-.06.307-.06.922 0 1.229a3.37 3.37 0 0 0 1.82 2.38 4.3 4.3 0 0 0 .892.289c.224.042.896.042 1.12 0 1.248-.235 2.251-1.112 2.61-2.285.12-.393.146-.571.146-.999a2.8 2.8 0 0 0-.146-.999 3.34 3.34 0 0 0-2.54-2.268c-.217-.041-.762-.071-.91-.051m.853 1.398a2.06 2.06 0 0 1 1.351 1.36c.053.169.063.258.063.56s-.01.392-.063.56a2.06 2.06 0 0 1-1.364 1.364c-.289.09-.831.09-1.12 0a2.06 2.06 0 0 1-1.364-1.364c-.053-.168-.063-.257-.063-.56 0-.302.01-.391.063-.56a2.06 2.06 0 0 1 1.553-1.412c.205-.044.734-.014.944.052"/></svg>