<svg xmlns="http://www.w3.org/2000/svg" viewBox="0 0 16 16" fill="currentColor"><path fill-rule="evenodd" d="M7.794.705c-.249.078-.299.146-.686.932-1.247 2.535-1.614 3.27-1.634 3.27-.066 0-4.25.619-4.333.641a.7.7 0 0 0-.389.325.63.63 0 0 0 .041.678c.041.058.767.781 1.614 1.607.847.825 1.54 1.51 1.54 1.521 0 .012-.163.968-.362 2.125-.271 1.575-.36 2.144-.353 2.267a.62.62 0 0 0 .3.502c.117.072.153.08.346.08h.215l1.939-1.02A92 92 0 0 1 8 12.613c.016 0 .902.459 1.968 1.02l1.939 1.02h.215c.193 0 .229-.008.346-.08a.62.62 0 0 0 .3-.502c.007-.123-.081-.689-.353-2.267a333 333 0 0 1-.362-2.125c0-.011.693-.696 1.54-1.521.847-.826 1.573-1.549 1.614-1.607a.64.64 0 0 0 .038-.684.7.7 0 0 0-.386-.319c-.055-.014-1.053-.165-2.219-.335a81 81 0 0 1-2.138-.328c-.01-.01-.441-.876-.958-1.925A89 89 0 0 0 8.54.955a.7.7 0 0 0-.553-.286 1 1 0 0 0-.193.036m.939 3.615c.396.806.76 1.521.809 1.588.156.216.172.22 1.951.477.873.126 1.62.238 1.66.249.071.018.021.071-1.14 1.202-.704.685-1.235 1.223-1.264 1.28-.106.206-.102.241.198 1.987.155.907.277 1.656.269 1.663-.007.008-.678-.336-1.49-.763-.961-.505-1.52-.784-1.601-.799a.8.8 0 0 0-.25 0c-.081.015-.64.294-1.601.799-.812.427-1.483.771-1.49.763-.008-.007.114-.756.269-1.663.3-1.746.304-1.781.198-1.987-.029-.057-.56-.595-1.264-1.28-1.161-1.131-1.211-1.184-1.14-1.202.04-.011.787-.123 1.66-.249 1.779-.257 1.795-.261 1.951-.476.049-.068.413-.783.809-1.589A58 58 0 0 1 8 2.855c.007 0 .337.659.733 1.465"/></svg>