<svg xmlns="http://www.w3.org/2000/svg" viewBox="0 0 16 16" fill="currentColor"><path fill-rule="evenodd" d="M7.782.042a.6.6 0 0 0-.246.16c-.189.189-.203.263-.203 1.131 0 .869.014.943.202 1.132A.7.7 0 0 0 8 2.667a.7.7 0 0 0 .465-.202c.188-.189.202-.263.202-1.132S8.653.391 8.465.202a.64.64 0 0 0-.683-.16M2.511 2.229c-.228.114-.351.322-.351.592 0 .263.066.356.688.972.509.503.566.552.698.591a.6.6 0 0 0 .421.002.67.67 0 0 0 .419-.419.6.6 0 0 0-.002-.421c-.039-.132-.088-.189-.591-.698-.62-.626-.708-.688-.98-.688a.6.6 0 0 0-.302.069m10.38-.004c-.096.049-.293.228-.684.623-.503.509-.552.566-.591.698a.6.6 0 0 0-.002.421.67.67 0 0 0 .419.419.6.6 0 0 0 .421-.002c.132-.039.189-.088.699-.592.649-.643.699-.718.683-1.015-.021-.361-.257-.595-.62-.612-.161-.007-.21.002-.325.06M7.72 4.015l-.32.041c-.295.037-.779.18-1.075.318a4.02 4.02 0 0 0-2.261 2.933 5.2 5.2 0 0 0 0 1.386c.227 1.262 1.028 2.32 2.201 2.907.245.123.76.286 1.063.338.345.058.999.058 1.344 0 1.265-.215 2.337-1.023 2.928-2.203a5 5 0 0 0 .338-1.063 5.2 5.2 0 0 0 0-1.344c-.215-1.265-1.023-2.337-2.203-2.928a4.7 4.7 0 0 0-1.049-.333c-.252-.041-.822-.071-.966-.052m.911 1.395c.498.13.895.356 1.249.71.262.261.436.519.573.845a2.66 2.66 0 0 1 0 2.07 2.5 2.5 0 0 1-.573.845 2.66 2.66 0 0 1-1.249.712c-.181.049-.288.059-.631.059-.462 0-.663-.039-1.063-.208a2.72 2.72 0 0 1-1.38-1.38c-.169-.4-.208-.601-.208-1.063s.039-.663.208-1.063c.249-.59.79-1.131 1.38-1.38.198-.084.513-.176.703-.206.197-.032.777.003.991.059M.448 7.375C.208 7.449 0 7.739 0 8c0 .268.208.551.46.626.198.059 1.549.059 1.747 0A.69.69 0 0 0 2.667 8a.69.69 0 0 0-.46-.626c-.192-.057-1.572-.056-1.759.001m13.334 0c-.241.074-.449.364-.449.625 0 .268.208.551.46.626.198.059 1.549.059 1.747 0A.69.69 0 0 0 16 8a.69.69 0 0 0-.46-.626c-.192-.057-1.572-.056-1.758.001M3.535 11.618c-.116.035-.199.106-.688.59-.649.643-.699.718-.683 1.015.021.357.256.592.613.613.297.016.372-.034 1.015-.683.504-.51.553-.567.592-.699a.6.6 0 0 0 .002-.421.69.69 0 0 0-.638-.458 1 1 0 0 0-.213.043m8.487-.003a.69.69 0 0 0-.408.418.6.6 0 0 0 .002.421c.039.132.088.189.592.699.643.649.718.699 1.015.683.357-.021.592-.256.613-.613.016-.297-.034-.372-.683-1.015-.51-.504-.567-.553-.699-.592a.64.64 0 0 0-.432-.001m-4.24 1.76a.6.6 0 0 0-.246.16c-.189.189-.203.263-.203 1.132s.014.942.202 1.131A.7.7 0 0 0 8 16c.158 0 .343-.08.465-.202.188-.189.202-.263.202-1.131 0-.869-.014-.943-.202-1.132a.65.65 0 0 0-.683-.16"/></svg>