<svg xmlns="http://www.w3.org/2000/svg" viewBox="0 0 16 16" fill="currentColor"><path fill-rule="evenodd" d="M7.72.731c-.106.05-.427.358-1.551 1.486-1.363 1.369-1.419 1.429-1.46 1.568a.6.6 0 0 0-.002.422.67.67 0 0 0 .419.419.6.6 0 0 0 .422-.002c.137-.041.192-.09.965-.859l.82-.816V4.51c0 1.782-.003 1.749.202 1.955A.7.7 0 0 0 8 6.667a.7.7 0 0 0 .465-.202c.205-.206.202-.173.202-1.955V2.949l.82.816c.773.769.828.818.965.859a.6.6 0 0 0 .422.002.67.67 0 0 0 .419-.419.6.6 0 0 0-.002-.422c-.041-.139-.097-.199-1.46-1.568C8.707 1.089 8.386.781 8.28.731a.64.64 0 0 0-.56 0M2.511 6.229c-.228.114-.351.322-.351.592 0 .263.066.356.688.972.509.503.566.552.698.591a.6.6 0 0 0 .421.002.67.67 0 0 0 .419-.419.6.6 0 0 0-.002-.421c-.039-.132-.088-.189-.591-.698-.62-.626-.708-.688-.98-.688a.6.6 0 0 0-.302.069m10.38-.004c-.096.049-.293.228-.684.623-.503.509-.552.566-.591.698a.6.6 0 0 0-.002.421.67.67 0 0 0 .419.419.6.6 0 0 0 .421-.002c.132-.039.189-.088.699-.592.649-.643.699-.718.683-1.015-.021-.361-.257-.595-.62-.612-.161-.007-.21.002-.325.06M7.587 8.027a4 4 0 0 0-2.433 1.176c-.698.713-1.063 1.543-1.142 2.599-.025.329.023.496.19.662a.7.7 0 0 0 .465.203c.236 0 .516-.183.605-.396.023-.054.051-.232.064-.396.053-.711.307-1.278.784-1.755a2.66 2.66 0 0 1 1.249-.712c.314-.085.948-.085 1.261-.001.867.235 1.512.797 1.844 1.607.098.239.193.679.193.899 0 .243.061.411.202.552a.7.7 0 0 0 .464.202.69.69 0 0 0 .631-.476c.038-.132.04-.194.013-.498-.086-.974-.47-1.82-1.129-2.489a3.95 3.95 0 0 0-2.176-1.138 5 5 0 0 0-1.085-.039M.448 11.375C.208 11.449 0 11.739 0 12c0 .268.208.551.46.626.198.059 1.549.059 1.747 0a.69.69 0 0 0 .46-.626.69.69 0 0 0-.46-.626c-.192-.057-1.572-.056-1.759.001m13.334 0c-.241.074-.449.364-.449.625 0 .268.208.551.46.626.198.059 1.549.059 1.747 0A.69.69 0 0 0 16 12a.69.69 0 0 0-.46-.626c-.192-.057-1.572-.056-1.758.001M.448 14.042c-.24.074-.448.364-.448.625 0 .268.208.551.46.626.121.036.99.04 7.54.04s7.419-.004 7.54-.04a.69.69 0 0 0 .46-.626c0-.268-.208-.552-.46-.626-.121-.036-.987-.041-7.552-.039-6.376.001-7.432.007-7.54.04"/></svg>