<svg xmlns="http://www.w3.org/2000/svg" viewBox="0 0 16 16" fill="currentColor"><path fill-rule="evenodd" d="M3.666.695a2.03 2.03 0 0 0-1.585 1.398l-.068.214-.007 5.573c-.005 3.665.002 5.634.02 5.749.07.459.224.755.574 1.105.346.346.638.499 1.089.572.225.037 8.397.037 8.622 0 .451-.073.743-.226 1.089-.572s.5-.638.573-1.089c.037-.226.037-11.064 0-11.29-.073-.451-.227-.743-.573-1.089s-.638-.499-1.089-.572C12.108.661 3.863.662 3.666.695m8.66 1.392c.142.084.25.212.303.36s.053 10.958 0 11.106a.7.7 0 0 1-.303.36l-.126.074H3.8l-.128-.075a.72.72 0 0 1-.312-.393c-.018-.066-.025-1.964-.02-5.576l.007-5.476.074-.126a.7.7 0 0 1 .359-.303c.082-.03.831-.035 4.26-.03l4.16.005zm-4.544 9.288c-.241.074-.449.364-.449.625a.7.7 0 0 0 .667.667.83.83 0 0 0 .437-.164c.392-.325.255-.984-.235-1.13a.62.62 0 0 0-.42.002"/></svg>