<svg xmlns="http://www.w3.org/2000/svg" viewBox="0 0 16 16" fill="currentColor"><path fill-rule="evenodd" d="M3.004 1.361c-.43.073-.733.234-1.071.572-.346.346-.499.638-.573 1.089-.036.226-.036 9.73 0 9.956.074.451.227.743.573 1.089s.638.499 1.089.573c.226.036 9.73.036 9.956 0 .451-.074.743-.227 1.089-.573s.499-.638.573-1.089c.036-.226.036-9.73 0-9.956-.074-.451-.227-.743-.573-1.089s-.638-.499-1.089-.573c-.2-.032-9.78-.031-9.974.001M5.333 4v1.333H2.664l.008-1.1.008-1.1.074-.125a.8.8 0 0 1 .167-.197c.181-.139.212-.142 1.352-.143l1.06-.001zm7.554-1.295a.7.7 0 0 1 .359.303l.074.125.008 1.1.008 1.1H6.667V2.667l3.06.001c2.486.001 3.078.008 3.16.037m-7.554 7.296v3.335l-1.1-.008-1.1-.008-.125-.074a.7.7 0 0 1-.303-.359c-.029-.082-.036-.674-.037-3.16l-.001-3.06h2.666zm7.994-.234-.007 3.1-.074.125a.7.7 0 0 1-.359.303c-.082.029-.674.036-3.16.037l-3.06.001V6.667h6.667z"/></svg>