<svg xmlns="http://www.w3.org/2000/svg" viewBox="0 0 16 16" fill="currentColor"><path fill-rule="evenodd" d="M1.115.709a.68.68 0 0 0-.409.421c-.035.122-.039.566-.033 3.592C.68 8.046.682 8.177.731 8.28c.077.164 5.915 5.992 6.162 6.153.688.448 1.531.45 2.216.007.181-.118 5.057-4.966 5.257-5.227a2.01 2.01 0 0 0-.001-2.426C14.163 6.521 8.403.789 8.28.731 8.177.682 8.053.68 4.707.675 1.746.671 1.222.676 1.115.709m9.436 4.124C13.616 7.9 13.44 7.707 13.44 8s.145.13-2.542 2.823c-2 2.003-2.511 2.502-2.618 2.553a.67.67 0 0 1-.547.009c-.093-.042-.742-.676-2.926-2.859L2 7.72V2h5.721zm-6.103-.791c-.24.074-.448.364-.448.625 0 .344.322.666.667.666.124 0 .33-.076.431-.159.397-.328.264-.988-.23-1.135a.62.62 0 0 0-.42.003"/></svg>