<svg xmlns="http://www.w3.org/2000/svg" viewBox="0 0 16 16" fill="currentColor"><path fill-rule="evenodd" d="M7.38.693a7.47 7.47 0 0 0-3.967 1.585c-.257.204-.931.878-1.135 1.135A7.46 7.46 0 0 0 .743 6.96a8.5 8.5 0 0 0 0 2.08c.32 2.083 1.427 3.855 3.137 5.018a7.2 7.2 0 0 0 3.08 1.199 8.6 8.6 0 0 0 2.08 0c2.257-.345 4.143-1.618 5.3-3.577a7.4 7.4 0 0 0 .917-2.64 8.5 8.5 0 0 0 0-2.08 7.45 7.45 0 0 0-1.535-3.547 11.5 11.5 0 0 0-1.135-1.135A7.44 7.44 0 0 0 9.053.747C8.631.684 7.759.656 7.38.693m1.58 1.382a5.8 5.8 0 0 1 1.693.55 6 6 0 0 1 2.008 1.594 6.3 6.3 0 0 1 1.164 2.339c.128.511.161.801.161 1.442s-.033.931-.161 1.442c-.212.849-.658 1.733-1.194 2.371a6.07 6.07 0 0 1-3.189 2.012c-.511.128-.801.161-1.442.161s-.931-.033-1.442-.161c-.849-.212-1.733-.658-2.371-1.194a5.9 5.9 0 0 1-1.561-1.978 6 6 0 0 1-.564-1.76c-.067-.412-.067-1.374 0-1.786.176-1.072.627-2.091 1.277-2.888a6 6 0 0 1 2.008-1.593 6 6 0 0 1 2.133-.61c.27-.028 1.183.009 1.48.059M7.693 3.349c-.551.053-.897.128-1.34.293a4.65 4.65 0 0 0-2.711 2.711A4.3 4.3 0 0 0 3.35 8c0 .463.036.773.134 1.147.221.846.617 1.54 1.223 2.146a4.63 4.63 0 0 0 2.56 1.31c.361.06 1.105.06 1.466 0a4.63 4.63 0 0 0 2.56-1.31c.706-.706 1.14-1.557 1.311-2.571a6 6 0 0 0-.001-1.455 4.63 4.63 0 0 0-1.31-2.56 4.6 4.6 0 0 0-2.546-1.306 7 7 0 0 0-1.054-.052m.974 1.384c.675.15 1.199.436 1.682.918.299.3.464.527.638.879.241.49.333.894.333 1.47a3.2 3.2 0 0 1-.566 1.877c-.16.244-.633.717-.877.877A3.2 3.2 0 0 1 8 11.32c-.711 0-1.274-.17-1.877-.565-.244-.16-.718-.634-.878-.878C4.85 9.274 4.68 8.711 4.68 8c0-.299.013-.476.049-.64.139-.65.423-1.196.857-1.65.52-.544 1.105-.854 1.889-1.004.253-.048.92-.033 1.192.027m-.996 1.295a2.1 2.1 0 0 0-.658.231c-.224.13-.624.53-.754.754a2.05 2.05 0 0 0 0 1.974c.13.224.53.624.754.754a2.05 2.05 0 0 0 1.974 0c.224-.13.624-.53.754-.754a2.03 2.03 0 0 0 .24-1.22c-.065-.501-.214-.8-.581-1.167a2.6 2.6 0 0 0-.413-.341 2.07 2.07 0 0 0-1.316-.231m.67 1.403c.42.258.428.867.016 1.128a.667.667 0 0 1-.93-.224c-.071-.115-.08-.155-.08-.333 0-.173.01-.22.074-.328a.64.64 0 0 1 .627-.331c.126.008.2.03.293.088"/></svg>