<svg xmlns="http://www.w3.org/2000/svg" viewBox="0 0 16 16" fill="currentColor"><path fill-rule="evenodd" d="M3.053 1.063a1.6 1.6 0 0 0-.866.658c-.198.331-.184-.161-.185 6.258-.002 4.101.006 5.792.027 5.893.103.494.539.935 1.067 1.081.16.044.463.047 4.904.047s4.744-.003 4.904-.047c.526-.146.964-.589 1.067-1.081.02-.1.029-1.335.029-4.187-.001-4.443.007-4.221-.162-4.537-.103-.195-.199-.289-2.271-2.22-1.005-.937-1.789-1.648-1.877-1.701a2 2 0 0 0-.3-.146c-.148-.053-.197-.054-3.163-.059-2.788-.005-3.026-.002-3.174.041M8.752 3.9c.008 1.491.008 1.501.067 1.61a.9.9 0 0 0 .17.206c.211.18.178.177 1.936.177h1.582V13.6H3.493V2.4h5.252zm1.439 3.648a1 1 0 0 0-.227.089c-.061.036-.71.625-1.442 1.309l-1.331 1.243-.122-.117c-.532-.513-1.03-.953-1.134-1.002a.9.9 0 0 0-.619-.005c-.272.123-.441.37-.441.642 0 .282.029.317.983 1.22.477.451.916.85.978.886.098.06.14.067.377.067.238 0 .279-.007.377-.067.061-.036.85-.756 1.754-1.6 1.818-1.695 1.781-1.655 1.78-1.969a.62.62 0 0 0-.196-.476.83.83 0 0 0-.737-.22"/></svg>