<svg xmlns="http://www.w3.org/2000/svg" viewBox="0 0 16 16" fill="currentColor"><path fill-rule="evenodd" d="M2.448 2.709a.69.69 0 0 0-.407.417.6.6 0 0 0 .001.422c.041.141.101.204 1.86 1.965l1.817 1.82-1.817 1.82c-1.759 1.762-1.819 1.825-1.86 1.965a.6.6 0 0 0-.001.422.67.67 0 0 0 .419.419c.172.052.241.051.422-.001.141-.041.204-.102 2.256-2.153S7.25 7.689 7.291 7.548a.6.6 0 0 0 0-.43c-.041-.141-.101-.204-2.153-2.256S3.023 2.75 2.882 2.709a.63.63 0 0 0-.434 0m5.334 9.333c-.241.074-.449.364-.449.625 0 .158.081.342.202.464.214.214.038.202 3.132.202 3.093 0 2.917.012 3.131-.202a.7.7 0 0 0 .202-.464c0-.268-.208-.552-.46-.626-.199-.06-5.565-.058-5.758.001"/></svg>