<svg xmlns="http://www.w3.org/2000/svg" viewBox="0 0 16 16" fill="currentColor"><path fill-rule="evenodd" d="M7.308.029c-.906.139-1.641.807-1.903 1.729l-.058.202-.007 3.766-.008 3.766-.26.261a3.65 3.65 0 0 0 .383 5.495c.683.512 1.362.739 2.212.739.636 0 1.082-.103 1.629-.376 1.052-.524 1.774-1.497 1.987-2.678.053-.291.047-.971-.011-1.26a3.7 3.7 0 0 0-1.01-1.92l-.261-.261-.008-3.766-.008-3.766-.061-.213C9.686.91 9.069.296 8.25.081a2.9 2.9 0 0 0-.942-.052m.774 1.403q.327.155.488.488l.083.173.014 3.96.013 3.96.075.136a.9.9 0 0 0 .214.24c.488.366.776.766.942 1.31.065.21.072.276.072.634 0 .361-.007.424-.073.64-.311 1.015-1.209 1.693-2.243 1.693-1.572 0-2.702-1.546-2.222-3.039.157-.489.455-.89.92-1.238a.9.9 0 0 0 .213-.24l.075-.136.014-3.96.013-3.96.083-.173c.242-.509.821-.724 1.319-.488"/></svg>