<svg xmlns="http://www.w3.org/2000/svg" viewBox="0 0 16 16" fill="currentColor"><path fill-rule="evenodd" d="M3.426.705c-.396.073-.73.253-1.039.562a1.75 1.75 0 0 0-.481.773c-.07.225-.988 6.125-1.017 6.533-.026.365.094.827.297 1.147.21.33.455.551.801.721.443.219.344.21 2.286.219L6 10.669v1.072c0 1.163.021 1.412.143 1.771.359 1.047 1.351 1.787 2.417 1.804.23.003.299-.005.386-.048.24-.12.211-.061 1.556-3.089l1.262-2.841.885-.011c.812-.011.9-.017 1.08-.07.792-.236 1.402-.886 1.562-1.663.037-.178.042-.518.042-2.594s-.005-2.416-.042-2.594c-.16-.778-.759-1.417-1.562-1.665l-.196-.06-4.96-.005C4.632.672 3.575.678 3.426.705m7.241 4.558v3.264l-1.201 2.702a693 693 0 0 1-1.208 2.709 1 1 0 0 1-.176-.072 1.6 1.6 0 0 1-.598-.579c-.148-.292-.151-.322-.151-1.901 0-1.666.002-1.646-.202-1.851-.209-.209-.125-.202-2.372-.202-2.149 0-2.098.004-2.297-.148a.68.68 0 0 1-.239-.444c-.017-.171.897-6.173.964-6.334a.7.7 0 0 1 .346-.343l.134-.063L7.167 2h3.5zm2.765-3.21a.9.9 0 0 1 .472.401l.083.146v4.8l-.079.143a.95.95 0 0 1-.415.385c-.111.053-.167.058-.806.066L12 8.003V2h.641c.571 0 .657.006.791.053"/></svg>