<svg xmlns="http://www.w3.org/2000/svg" viewBox="0 0 16 16" fill="currentColor"><path fill-rule="evenodd" d="M7.115.709a.6.6 0 0 0-.24.154c-.104.105-.231.378-1.378 2.96L4.234 6.667h-.857c-.471 0-.931.012-1.022.027-.451.073-.743.226-1.089.572s-.499.638-.572 1.089c-.036.223-.036 5.067 0 5.29.073.451.226.743.572 1.089s.638.499 1.089.572c.106.017 1.92.027 5.085.026 5.302-.001 5.135.004 5.489-.139a1.9 1.9 0 0 0 .684-.46 1.75 1.75 0 0 0 .481-.773c.07-.225.988-6.125 1.017-6.533a2.05 2.05 0 0 0-.297-1.147 1.9 1.9 0 0 0-.801-.721c-.443-.219-.344-.21-2.286-.219L10 5.331V4.259c0-1.163-.021-1.412-.143-1.771A2.67 2.67 0 0 0 7.733.706c-.311-.048-.456-.047-.618.003m.864 1.454c.158.08.452.382.537.55.148.292.151.322.151 1.901 0 1.666-.002 1.646.202 1.851.209.209.125.202 2.372.202 2.149 0 2.098-.004 2.297.148a.68.68 0 0 1 .239.444c.017.171-.897 6.173-.964 6.334a.7.7 0 0 1-.346.343l-.134.063-3.5.001h-3.5v-3.26l-.001-3.26 1.204-2.711c1.177-2.65 1.206-2.711 1.267-2.688.034.013.113.05.176.082M4 11.002v3.001l-.767-.008-.766-.008-.128-.075a.72.72 0 0 1-.313-.394c-.018-.066-.025-.959-.02-2.576l.007-2.475.074-.126a.8.8 0 0 1 .167-.197c.174-.133.238-.142 1.019-.143L4 8z"/></svg>