<svg xmlns="http://www.w3.org/2000/svg" viewBox="0 0 16 16" fill="currentColor"><path fill-rule="evenodd" d="M1.557 1.064a1.52 1.52 0 0 0-.976.931l-.061.178v11.654l.061.178c.155.447.561.825 1.01.94.145.037.587.042 3.853.042h3.689l-.333-.34a5 5 0 0 1-.518-.614l-.185-.273h-3.09c-2.069 0-3.107-.009-3.142-.027-.139-.075-.132.258-.132-5.733s-.007-5.658.132-5.733c.033-.017.526-.027 1.4-.027h1.348v3.067c0 2.034.009 3.066.027 3.066.015 0 .666-.319 1.447-.71l1.419-.71.912.456.912.456.275-.172c.151-.095.386-.222.522-.284l.246-.112V2.24h2.719l.088.078.087.078.007 2.395.008 2.396.192.061c.221.07.621.255.846.392.084.051.161.093.171.093s.014-1.239.009-2.753c-.009-3.054.001-2.889-.186-3.219-.114-.202-.425-.504-.612-.594-.339-.164.083-.154-6.221-.152-5.399.002-5.771.005-5.924.049m7.59 3.243c0 1.136-.006 2.066-.014 2.066-.007 0-.379-.183-.826-.406l-.814-.407-.813.407c-.448.223-.82.406-.827.406s-.013-.93-.013-2.066V2.24h3.307zm2.402 3.723c-1.236.143-2.362 1.035-2.829 2.242-.192.495-.265 1.221-.177 1.774A3.53 3.53 0 0 0 11.4 14.95a4.1 4.1 0 0 0 1.2 0 3.5 3.5 0 0 0 1.825-.937 3.45 3.45 0 0 0 1.032-1.967c.058-.368.038-1.005-.043-1.326a3.5 3.5 0 0 0-.933-1.681 3.5 3.5 0 0 0-2.932-1.009m.64 1.808.078.078v1.311h1.31l.078.078a.22.22 0 0 1 .078.188c0 .27-.068.294-.852.294h-.614v1.309l-.065.064a.272.272 0 0 1-.404 0l-.065-.064v-1.309h-.614c-.784 0-.852-.024-.852-.294a.22.22 0 0 1 .078-.188l.078-.078h1.31V9.916l.078-.078A.22.22 0 0 1 12 9.76c.087 0 .128.017.189.078m-8.802 1.455v.627h4.106v-1.253H3.387z"/></svg>