<svg xmlns="http://www.w3.org/2000/svg" viewBox="0 0 16 16" fill="currentColor"><path fill-rule="evenodd" d="m4.947 2.683-.334.04c-.736.084-1.57.399-2.231.841-2.757 1.843-3.189 5.719-.904 8.11a5.35 5.35 0 0 0 3.149 1.61c.388.052 6.358.052 6.746 0a5.34 5.34 0 0 0 4.453-3.962c.123-.484.159-.781.159-1.322s-.036-.838-.159-1.322a5.33 5.33 0 0 0-3.789-3.828c-.658-.172-.494-.165-3.904-.171a284 284 0 0 0-3.186.004m6.202 1.346c.489.063.927.203 1.379.438.372.194.651.4.961.71a3.93 3.93 0 0 1 1.057 1.862 3.94 3.94 0 0 1-.346 2.822c-.194.372-.4.651-.711.962a3.93 3.93 0 0 1-1.862 1.056c-.476.118-.562.121-3.627.121s-3.151-.003-3.627-.121a4.2 4.2 0 0 1-1.389-.643 4.8 4.8 0 0 1-.887-.887A4.1 4.1 0 0 1 1.333 8c0-.646.154-1.261.467-1.861.194-.372.4-.651.711-.962A3.97 3.97 0 0 1 4.773 4.04c.302-.045 6.036-.055 6.376-.011m-.897 1.343c-1.389.216-2.39 1.523-2.229 2.911.171 1.47 1.483 2.528 2.927 2.36 1.463-.17 2.528-1.485 2.361-2.917-.178-1.531-1.552-2.588-3.059-2.354m.743 1.334c.24.063.417.167.608.358.268.268.397.572.397.936s-.129.668-.397.936a1.26 1.26 0 0 1-.936.397 1.26 1.26 0 0 1-.936-.397A1.26 1.26 0 0 1 9.333 8c0-.364.129-.668.398-.936a1.24 1.24 0 0 1 .923-.396c.104-.001.257.017.341.038"/></svg>