<svg xmlns="http://www.w3.org/2000/svg" viewBox="0 0 16 16" fill="currentColor"><path fill-rule="evenodd" d="M10.16.695C8.715.874 7.534 1.603 6.748 2.8a4.7 4.7 0 0 0-.655 3.449c.038.187.087.389.109.45l.04.112-2.224 2.228c-1.498 1.5-2.262 2.284-2.34 2.401-.239.358-.332.679-.331 1.147.001.473.095.795.333 1.146a2.07 2.07 0 0 0 2.095.898q.438-.077.785-.309c.116-.078.905-.846 2.4-2.338l2.227-2.223.173.053c.859.262 1.907.238 2.812-.065a4.66 4.66 0 0 0 2.91-2.91c.322-.962.328-2.038.015-2.963-.17-.505-.293-.695-.508-.79a.8.8 0 0 0-.551-.005q-.105.048-1.405 1.343l-1.3 1.295-.526-.526-.526-.526 1.296-1.3c1.133-1.137 1.302-1.317 1.346-1.434a.65.65 0 0 0-.168-.732c-.186-.163-.731-.362-1.288-.468-.27-.052-1.021-.074-1.307-.038m-.044 2.245c-.867.872-.942.955-1.033 1.14a1.36 1.36 0 0 0 0 1.173c.089.182.158.261.781.884.639.639.696.69.896.786l.213.104h.72l.214-.104c.203-.098.259-.149 1.156-1.04l.943-.936-.015.44c-.018.583-.092.906-.312 1.379a3 3 0 0 1-.597.855c-.635.665-1.369.998-2.288 1.037-.52.023-.874-.04-1.417-.25-.21-.081-.266-.092-.405-.081a.8.8 0 0 0-.253.059c-.051.025-1.178 1.129-2.506 2.453-2.205 2.2-2.424 2.411-2.544 2.451a.72.72 0 0 1-.777-.182.72.72 0 0 1-.182-.777c.04-.12.251-.339 2.451-2.544 1.324-1.328 2.428-2.455 2.453-2.506a.8.8 0 0 0 .059-.253c.011-.142-.001-.196-.098-.452-.193-.506-.227-.684-.227-1.216-.001-.503.029-.712.162-1.112.289-.869 1.004-1.631 1.871-1.993.425-.178.793-.248 1.311-.252L11.051 2z"/></svg>