<svg xmlns="http://www.w3.org/2000/svg" viewBox="0 0 16 16" fill="currentColor"><path fill-rule="evenodd" d="M2.138 5.361c-.46.083-.823.277-1.165.624-.443.449-.625.886-.626 1.503-.001.469.098.818.333 1.182.23.356.622.685.996.837.477.194 1.155.196 1.63.004.515-.208 1.021-.709 1.201-1.192l.06-.159h.69c.582 0 .69.006.69.038 0 .022.054.145.12.274a2.22 2.22 0 0 0 1.28 1.094c.197.066.245.072.653.072s.456-.006.653-.072a2.25 2.25 0 0 0 1.423-1.423c.105-.31.12-.852.033-1.175a2.25 2.25 0 0 0-1.541-1.56C8.4 5.36 8.291 5.349 8 5.349c-.404 0-.641.051-.941.201-.473.237-.898.685-1.059 1.117l-.06.16-.683-.001h-.684l-.111-.236c-.274-.578-.835-1.047-1.422-1.19-.214-.052-.711-.073-.902-.039m6.22 1.388a1 1 0 0 1 .43.481.9.9 0 0 1-.056.66.832.832 0 0 1-1.464 0 .9.9 0 0 1-.057-.658.95.95 0 0 1 .553-.536c.15-.046.449-.02.594.053"/></svg>