<svg xmlns="http://www.w3.org/2000/svg" viewBox="0 0 16 16" fill="currentColor"><path fill-rule="evenodd" d="M6.773 1.051A1.52 1.52 0 0 0 5.71 2.15l-.047.183-1.638.014-1.638.013-.174.083a1.22 1.22 0 0 0-.643.704l-.063.173v9.36l.063.173q.176.482.643.704l.174.083 2.324.007 2.324.007-.128-.287a5 5 0 0 1-.191-.493l-.063-.207H2.638l-.066-.066-.065-.065V3.464l.065-.065.066-.066h9.059l.065.069.065.069.013 1.802.013 1.802.248.063c.137.034.356.102.487.152l.239.089-.001-2.003c0-1.252-.011-2.046-.028-2.12a1.27 1.27 0 0 0-.655-.807l-.183-.089-1.646-.008-1.647-.007-.014-.073a4 4 0 0 0-.068-.249c-.136-.453-.552-.845-1.03-.97-.184-.048-.612-.049-.782-.002m.581.884c.244.101.352.316.294.584a.49.49 0 0 1-.552.374.49.49 0 0 1-.424-.453.492.492 0 0 1 .682-.505M4 5.413v.507h6.32V4.907H4zM4 8v.507h3.641l.2-.202c.23-.234.637-.55.89-.691a1 1 0 0 0 .176-.11c0-.006-1.104-.011-2.454-.011H4zm6.64.017a3.6 3.6 0 0 0-1.626.604c-.258.172-.728.642-.9.899a3.8 3.8 0 0 0-.558 1.333c-.064.31-.065.966-.001 1.286a3.55 3.55 0 0 0 .977 1.835A3.43 3.43 0 0 0 11 14.994c.946 0 1.801-.354 2.468-1.02.503-.503.837-1.13.977-1.835.062-.317.061-1.003-.003-1.299a3.8 3.8 0 0 0-.556-1.32c-.172-.257-.642-.727-.9-.899a3.8 3.8 0 0 0-1.307-.555c-.2-.04-.865-.072-1.039-.049m2.667 2.743c0 .015-.298.324-.661.687l-.66.66-.193-.194-.193-.194.322-.339.322-.34H10.64v-.56h1.613l-.333-.333-.332-.333.199-.201.199-.2.66.66c.363.363.661.672.661.687M4 10.587v.507l1.26-.007 1.26-.007.008-.093a6 6 0 0 1 .154-.754 1 1 0 0 0 .038-.13c0-.013-.601-.023-1.36-.023H4zm6.227.506.185.187-.326.327c-.179.18-.326.336-.326.347s.36.019.8.019h.8v.534h-.8c-.44 0-.8.008-.8.019s.147.167.326.347l.327.327-.193.193-.193.193-.674-.673-.673-.673.667-.667c.366-.366.672-.666.68-.666s.098.084.2.186"/></svg>