<svg xmlns="http://www.w3.org/2000/svg" viewBox="0 0 16 16" fill="currentColor"><path fill-rule="evenodd" d="M6.338.695c-.431.072-.733.233-1.072.571-.467.468-.599.832-.599 1.661v.406H3.298c-1.568 0-1.559-.001-1.763.202A.7.7 0 0 0 1.333 4c0 .158.081.343.202.465.168.167.299.202.763.202h.369v4.406c0 2.818.01 4.466.027 4.572.073.451.226.743.572 1.089s.638.499 1.089.572c.225.037 7.065.037 7.29 0 .451-.073.743-.226 1.089-.572s.499-.638.572-1.089c.017-.106.027-1.754.027-4.572V4.667h.369c.464 0 .595-.035.763-.202A.7.7 0 0 0 14.667 4a.7.7 0 0 0-.202-.465c-.204-.203-.195-.202-1.763-.202h-1.369v-.406c0-.829-.132-1.193-.599-1.661-.346-.346-.638-.499-1.089-.572C9.448.662 6.528.663 6.338.695m3.215 1.343a.7.7 0 0 1 .36.303c.071.121.074.141.083.559l.009.433h-4.01l.009-.433c.009-.418.012-.438.083-.559a.7.7 0 0 1 .36-.303c.146-.052 2.96-.052 3.106 0m2.446 7.022c-.001 3.6-.008 4.411-.037 4.493a.7.7 0 0 1-.303.36l-.126.074H4.467l-.126-.074a.7.7 0 0 1-.303-.36c-.029-.082-.036-.893-.037-4.493L4 4.667h8zM6.448 6.709a.69.69 0 0 0-.407.417c-.061.205-.061 4.209 0 4.414.074.252.358.46.626.46a.7.7 0 0 0 .464-.202c.21-.21.202-.115.202-2.465s.008-2.254-.202-2.464a.64.64 0 0 0-.683-.16m2.667 0a.69.69 0 0 0-.408.417c-.061.205-.061 4.209 0 4.414.075.252.358.46.626.46a.7.7 0 0 0 .465-.202c.21-.21.202-.115.202-2.465s.008-2.254-.202-2.464a.64.64 0 0 0-.683-.16"/></svg>