<svg xmlns="http://www.w3.org/2000/svg" viewBox="0 0 16 16" fill="currentColor"><path fill-rule="evenodd" d="M3.004 1.361c-.43.073-.733.234-1.071.572-.346.346-.499.638-.573 1.089-.036.226-.036 9.73 0 9.956.074.451.227.743.573 1.089s.638.499 1.089.573c.226.036 9.73.036 9.956 0 .451-.074.743-.227 1.089-.573s.499-.638.573-1.089c.036-.226.036-9.73 0-9.956-.074-.451-.227-.743-.573-1.089s-.638-.499-1.089-.573c-.2-.032-9.78-.031-9.974.001m9.883 1.344a.7.7 0 0 1 .359.303l.074.125v9.734l-.074.125a.7.7 0 0 1-.359.303c-.149.053-9.625.053-9.774 0a.7.7 0 0 1-.359-.303l-.074-.125V3.133l.074-.125a.7.7 0 0 1 .359-.303c.149-.053 9.625-.053 9.774 0M4.448 4.042a.69.69 0 0 0-.407.418C4.005 4.579 4 4.996 4 7.667c0 3.465-.013 3.25.202 3.464.198.198.227.202 1.465.202s1.266-.004 1.464-.202c.215-.214.202.001.202-3.464 0-3.466.013-3.25-.202-3.465-.199-.199-.225-.202-1.476-.2-.862.001-1.107.01-1.207.04m4.667 0a.69.69 0 0 0-.408.418c-.06.204-.06 3.543 0 3.747a.67.67 0 0 0 .419.419c.202.06 2.213.06 2.414 0a.67.67 0 0 0 .419-.419c.061-.204.061-3.543 0-3.747a.67.67 0 0 0-.419-.419c-.195-.058-2.236-.057-2.425.001M6 7.667V10h-.667V5.333H6zm4.667-1.334v1H10v-2h.667z"/></svg>