<svg xmlns="http://www.w3.org/2000/svg" viewBox="0 0 16 16" fill="currentColor"><path fill-rule="evenodd" d="M11.115 3.375c-.24.074-.448.364-.448.625 0 .158.08.343.202.465.201.201.21.202 1.622.202h1.229l-2.36 2.36L9 9.386 7.534 7.921C6.416 6.805 6.038 6.443 5.947 6.402a.7.7 0 0 0-.575.011c-.102.051-.712.647-2.71 2.646-2.51 2.513-2.579 2.585-2.62 2.726a.6.6 0 0 0-.001.422.67.67 0 0 0 .419.419.6.6 0 0 0 .422-.002c.141-.041.209-.106 2.465-2.359l2.32-2.318L7.12 9.401c1.1 1.1 1.485 1.47 1.585 1.52a.7.7 0 0 0 .575.01c.093-.041.709-.642 2.753-2.685l2.634-2.632v1.228c0 1.413.001 1.422.202 1.623a.7.7 0 0 0 .464.202.7.7 0 0 0 .465-.202c.21-.211.202-.11.201-2.503 0-1.983-.003-2.115-.049-2.215a.68.68 0 0 0-.336-.351l-.134-.062-2.12.001c-1.767.002-2.141.008-2.245.04"/></svg>