<svg xmlns="http://www.w3.org/2000/svg" viewBox="0 0 16 16" fill="currentColor"><path fill-rule="evenodd" d="M.448 3.375a.69.69 0 0 0-.407.418.6.6 0 0 0 .001.422c.041.141.11.213 2.62 2.726C4.66 8.94 5.27 9.536 5.372 9.587a.7.7 0 0 0 .575.011c.091-.041.472-.406 1.587-1.519l1.467-1.465 2.359 2.36 2.36 2.359h-1.229c-1.412 0-1.421.001-1.622.202a.7.7 0 0 0-.202.465c0 .158.08.343.202.465.21.21.11.202 2.503.201 1.982 0 2.114-.003 2.215-.049a.67.67 0 0 0 .344-.33L16 12.15v-2.11c0-2.395.008-2.294-.202-2.505a.7.7 0 0 0-.465-.202.7.7 0 0 0-.464.202c-.201.201-.202.21-.202 1.623v1.228l-2.634-2.632C9.987 5.709 9.373 5.11 9.28 5.068a.7.7 0 0 0-.575.011c-.1.05-.485.42-1.585 1.52L5.667 8.053l-2.32-2.318C1.091 3.482 1.023 3.417.882 3.376a.64.64 0 0 0-.434-.001"/></svg>