<svg xmlns="http://www.w3.org/2000/svg" viewBox="0 0 16 16" fill="currentColor"><path fill-rule="evenodd" d="M.448 1.375a.69.69 0 0 0-.407.418C.005 1.913 0 2.469 0 6.333c0 4.955-.016 4.58.202 4.798.176.176.289.202.872.202.445 0 .477.004.46.047-.209.534-.249 1.039-.121 1.538a2.36 2.36 0 0 0 1.668 1.672c.311.084.846.084 1.159.001a2.34 2.34 0 0 0 1.677-1.667c.131-.498.092-1.009-.118-1.544-.017-.044.098-.047 2.198-.047 1.219 0 2.216.005 2.216.01 0 .006-.03.091-.067.188-.479 1.274.271 2.699 1.612 3.061.3.082.841.081 1.149-.001a2.34 2.34 0 0 0 1.677-1.667c.13-.498.091-1.009-.118-1.544-.017-.043.015-.047.46-.047.584 0 .696-.026.872-.202.21-.21.205-.15.196-2.187-.007-1.69-.01-1.79-.058-1.891-.07-.146-2.176-2.252-2.323-2.322-.098-.047-.189-.052-1.193-.059l-1.087-.008V3.297c0-1.567.001-1.558-.202-1.762-.219-.219.238-.202-5.476-.2-4.345.002-5.1.008-5.207.04M10 6.333V10H1.333V2.667H10zm3.86.474.807.806V10h-3.334V6h1.72zm-9.778 4.624c.218.103.384.269.489.489.073.154.082.2.082.413 0 .214-.009.26-.082.414q-.16.332-.491.49c-.154.074-.2.083-.413.083-.214 0-.26-.009-.414-.083a1 1 0 0 1-.49-.49c-.074-.154-.083-.2-.083-.414s.009-.259.083-.413a.987.987 0 0 1 1.319-.489m8.667.001q.327.155.488.488c.074.155.083.199.083.413s-.009.26-.083.414q-.158.332-.49.49c-.154.074-.2.083-.414.083s-.259-.009-.413-.083a1 1 0 0 1-.491-.49c-.073-.154-.082-.2-.082-.414s.009-.259.082-.413c.243-.509.822-.724 1.32-.488"/></svg>