<svg xmlns="http://www.w3.org/2000/svg" viewBox="0 0 16 16" fill="currentColor"><path fill-rule="evenodd" d="M4.448.709a.69.69 0 0 0-.407.417.6.6 0 0 0 .002.422c.04.139.093.196 1.192 1.299L6.385 4H4.452c-1.163 0-1.998.011-2.097.027-.451.073-.743.227-1.089.573s-.499.638-.572 1.089c-.037.224-.037 7.731 0 7.956.073.451.226.743.572 1.089s.638.499 1.089.572c.226.037 11.064.037 11.29 0 .451-.073.743-.226 1.089-.572s.499-.638.572-1.089c.037-.225.037-7.732 0-7.956-.073-.451-.226-.743-.572-1.089s-.638-.5-1.089-.573C13.546 4.011 12.711 4 11.548 4H9.615l1.15-1.153c1.099-1.103 1.152-1.16 1.192-1.299a.6.6 0 0 0 .002-.422.67.67 0 0 0-.419-.419.6.6 0 0 0-.422.002c-.139.041-.199.097-1.631 1.526L8 3.718 6.513 2.235C5.081.806 5.021.75 4.882.709a.64.64 0 0 0-.434 0m9.105 4.662a.7.7 0 0 1 .36.303l.074.126v7.733l-.074.126a.7.7 0 0 1-.36.303c-.148.053-10.958.053-11.106 0a.7.7 0 0 1-.36-.303l-.074-.126V5.8l.074-.126a.7.7 0 0 1 .36-.303c.148-.053 10.958-.053 11.106 0"/></svg>