<svg xmlns="http://www.w3.org/2000/svg" viewBox="0 0 16 16" fill="currentColor"><path fill-rule="evenodd" d="M10.427 1.373c-.93.157-1.767.643-2.297 1.334a3.67 3.67 0 0 0-.787 2.051l-.017.252-.136-.014a6.5 6.5 0 0 1-2.51-.79A6.4 6.4 0 0 1 2.66 2.44c-.207-.275-.294-.35-.471-.403-.337-.101-.663.061-.816.405a9 9 0 0 0-.371 1.185c-.357 1.508-.335 2.917.066 4.17.193.602.413 1.054.768 1.576a6.8 6.8 0 0 0 1.908 1.847l.208.132-.289.121A7 7 0 0 1 .998 12c-.507 0-.62.028-.797.2-.205.199-.249.494-.117.775.074.159.137.209.507.402 1.007.525 2.057.89 3.089 1.074 1.062.189 2.219.213 3.227.066a9 9 0 0 0 4.373-1.891c1.556-1.243 2.663-3.071 3.118-5.146.161-.734.24-1.429.255-2.26l.01-.557.165-.2a5.9 5.9 0 0 0 1.119-2.198c.064-.251.065-.307.01-.471a.65.65 0 0 0-.547-.45c-.178-.025-.326.03-.649.238s-.958.537-1.191.616l-.148.05-.173-.132a3.66 3.66 0 0 0-1.729-.744 4.3 4.3 0 0 0-1.093.001m1.146 1.36c.211.056.565.217.735.334.069.048.228.187.353.309.339.329.501.368.944.225a1.6 1.6 0 0 1 .256-.069c.01.01-.09.129-.346.407-.209.229-.255.375-.213.679.078.555-.002 1.636-.187 2.515a8.4 8.4 0 0 1-1.151 2.779c-.316.477-.53.739-.949 1.157-.618.617-1.126.982-1.922 1.381-.815.408-1.492.62-2.453.768-.439.068-1.79.068-2.267.001-.407-.058-.992-.174-1.021-.203-.012-.012.054-.042.147-.068.68-.189 2.026-.867 2.32-1.17a.65.65 0 0 0 .141-.657c-.078-.222-.167-.297-.605-.515A7.3 7.3 0 0 1 4.2 9.921c-1.263-.936-1.933-2.104-2.095-3.652-.058-.554-.004-1.469.122-2.044l.041-.188.179.17a8.1 8.1 0 0 0 2.429 1.565c.9.366 1.72.539 2.697.566.527.016.552.014.687-.044a.8.8 0 0 0 .224-.155c.155-.178.165-.228.185-.926.013-.471.029-.681.062-.798.252-.9.925-1.532 1.831-1.721.185-.038.811-.014 1.011.039"/></svg>