<svg xmlns="http://www.w3.org/2000/svg" viewBox="0 0 16 16" fill="currentColor"><path fill-rule="evenodd" d="M1.782.709a.69.69 0 0 0-.408.417c-.036.121-.041.781-.041 5.541 0 6.072-.017 5.578.202 5.798.204.203.195.202 1.763.202h1.369v1.035c0 1.198.004 1.232.202 1.43.201.2.49.251.753.131.061-.028.577-.522 1.378-1.32l1.28-1.275 1.613-.007c1.522-.007 1.62-.011 1.72-.058.148-.07 2.92-2.842 2.99-2.99.049-.103.051-.24.057-4.225.008-4.642.023-4.301-.195-4.519-.221-.22.355-.203-6.477-.2-5.215.001-6.099.007-6.206.04m11.551 4.818v3.527l-1.14 1.139-1.14 1.139-1.613.007c-1.528.007-1.619.01-1.72.059-.066.032-.411.354-.913.852L6 13.051v-.56c0-.675-.021-.775-.202-.956-.203-.203-.194-.202-1.763-.202H2.667V2h10.666zM7.115 4.042a.64.64 0 0 0-.246.16c-.204.204-.202.19-.202 1.798 0 1.607-.002 1.594.202 1.798A.7.7 0 0 0 7.333 8a.7.7 0 0 0 .465-.202C8.001 7.594 8 7.607 8 6s.001-1.594-.202-1.798a.64.64 0 0 0-.683-.16m3.333 0a.69.69 0 0 0-.407.418c-.061.203-.061 2.877 0 3.08.074.252.358.46.626.46a.7.7 0 0 0 .464-.202c.204-.204.202-.191.202-1.798s.002-1.594-.202-1.798a.64.64 0 0 0-.683-.16"/></svg>