<svg xmlns="http://www.w3.org/2000/svg" viewBox="0 0 16 16" fill="currentColor"><path fill-rule="evenodd" d="M2.448 2.042a.69.69 0 0 0-.407.418c-.06.201-.06 2.212 0 2.414.074.251.358.459.626.459a.7.7 0 0 0 .464-.202c.188-.187.202-.266.202-1.096v-.702h4v9.334h-.701c-.83 0-.909.014-1.097.202a.7.7 0 0 0-.202.464c0 .268.208.552.46.626.205.061 4.209.061 4.414 0 .252-.074.46-.358.46-.626a.7.7 0 0 0-.202-.464c-.188-.188-.267-.202-1.097-.202h-.701V3.333h4v.702c0 .83.014.909.202 1.096a.7.7 0 0 0 .464.202.7.7 0 0 0 .465-.202c.198-.198.202-.227.202-1.464 0-1.238-.004-1.267-.202-1.465-.22-.219.276-.202-5.81-.2-4.634.001-5.433.007-5.54.04"/></svg>