<svg xmlns="http://www.w3.org/2000/svg" viewBox="0 0 16 16" fill="currentColor"><path fill-rule="evenodd" d="M7.347.694A8.1 8.1 0 0 0 2.96 2.448c-.345.274-1.009.945-1.271 1.285C.831 4.849.3 6.056.077 7.4c-.108.655-.081.862.141 1.084.192.193-.013.183 3.747.183h3.368v2.073c.001 2.239.008 2.375.144 2.772a2.68 2.68 0 0 0 2.216 1.797c.864.112 1.82-.278 2.373-.969.43-.538.695-1.415.564-1.867a.66.66 0 0 0-.423-.432.58.58 0 0 0-.414 0c-.272.08-.46.357-.46.678 0 .16-.061.393-.15.568a1.7 1.7 0 0 1-.563.563 1.36 1.36 0 0 1-1.24 0 1.7 1.7 0 0 1-.563-.563c-.153-.301-.15-.264-.15-2.533V8.667h3.368c2.938 0 3.386-.006 3.505-.041a.67.67 0 0 0 .419-.419c.052-.174.052-.199-.014-.647a8.04 8.04 0 0 0-1.68-3.883 10 10 0 0 0-1.225-1.228A8.07 8.07 0 0 0 9 .733 11 11 0 0 0 7.347.694M8.96 2.066a6.8 6.8 0 0 1 1.987.626 5.7 5.7 0 0 1 1.08.657 6.72 6.72 0 0 1 2.411 3.503c.049.169.095.347.104.395l.017.086H1.436l.018-.086c.01-.048.058-.226.107-.395a6.75 6.75 0 0 1 2.295-3.417 6.9 6.9 0 0 1 2.808-1.301c.223-.045.367-.066.803-.118.21-.025 1.226.009 1.493.05"/></svg>