<svg xmlns="http://www.w3.org/2000/svg" viewBox="0 0 16 16" fill="currentColor"><path fill-rule="evenodd" d="M3.782 1.375a.69.69 0 0 0-.408.418c-.035.118-.041.467-.04 2.552 0 1.398.011 2.543.027 2.718a4.64 4.64 0 0 0 2.285 3.622c1.45.856 3.318.848 4.742-.021.386-.235.627-.424.932-.732a4.65 4.65 0 0 0 1.176-2.054c.156-.587.151-.477.163-3.313.012-2.976.023-2.812-.194-3.029A.7.7 0 0 0 12 1.333c-.149 0-.34.08-.453.189-.215.209-.199-.015-.215 2.958-.016 2.904-.009 2.757-.178 3.253-.17.502-.416.892-.806 1.282-.39.389-.779.635-1.281.806-.371.127-.62.166-1.067.166s-.696-.039-1.067-.166a3.2 3.2 0 0 1-1.281-.806c-.39-.39-.636-.78-.806-1.282-.169-.496-.162-.349-.178-3.253-.016-2.973 0-2.749-.215-2.958a.65.65 0 0 0-.671-.147m-1.334 12c-.24.074-.448.364-.448.625 0 .268.208.551.46.626.12.036.78.041 5.54.041s5.42-.005 5.54-.041A.69.69 0 0 0 14 14a.69.69 0 0 0-.46-.626c-.12-.036-.778-.04-5.552-.039-4.634.002-5.433.008-5.54.04"/></svg>