<svg xmlns="http://www.w3.org/2000/svg" viewBox="0 0 16 16" fill="currentColor"><path fill-rule="evenodd" d="M5.152 2.073c-.106.058-.442.407-1.57 1.629-.838.908-1.463 1.607-1.502 1.68-.056.106-.066.16-.066.365-.001.195.01.262.059.36.037.074.606.71 1.501 1.68C4.722 9.031 5.042 9.362 5.15 9.42c.247.133.509.08.698-.141a.67.67 0 0 0 .079-.743c-.046-.084-.422-.512-.987-1.122a48 48 0 0 1-.913-1c0-.026 5.739-.014 5.995.013.737.078 1.341.373 1.884.922.363.366.649.867.778 1.364.094.362.117.997.05 1.395-.114.683-.397 1.21-.919 1.714a2.96 2.96 0 0 1-1.761.844c-.143.017-1.23.027-2.967.027-3.005 0-2.834-.009-3.005.163a.704.704 0 0 0-.025.945c.199.216-.035.202 3.276.192 2.947-.009 2.947-.009 3.214-.069a4.28 4.28 0 0 0 2.338-1.377 4.33 4.33 0 0 0 1.028-2.065c.064-.304.071-.39.071-.922.001-.645-.031-.899-.173-1.378-.408-1.372-1.557-2.528-2.9-2.917-.553-.161-.385-.153-3.775-.17L4.018 5.08l.927-1c1.012-1.093 1.054-1.15 1.054-1.427 0-.485-.453-.795-.847-.58"/></svg>