<svg xmlns="http://www.w3.org/2000/svg" viewBox="0 0 16 16" fill="currentColor"><path fill-rule="evenodd" d="M7.463.704a4 4 0 0 0-1.319.428 3.96 3.96 0 0 0-2.037 2.642C4.021 4.14 4 4.502 4 5.603v1.064h-.407c-.828 0-1.192.132-1.66.599-.346.346-.499.638-.573 1.089-.036.223-.036 5.067 0 5.29.074.451.227.743.573 1.089s.638.499 1.089.572c.226.037 9.73.037 9.956 0 .451-.073.743-.226 1.089-.572s.499-.638.573-1.089c.036-.223.036-5.067 0-5.29-.074-.451-.227-.743-.573-1.089s-.638-.499-1.089-.572c-.104-.017-1.534-.027-3.907-.027H5.33l.01-1.234c.011-1.178.014-1.243.071-1.446a2.73 2.73 0 0 1 1.889-1.9c.237-.066.3-.073.713-.072.38.001.487.011.661.059.42.116.829.347 1.156.653.42.393.609.739.809 1.481.037.138.183.308.333.386a.75.75 0 0 0 .588.001c.308-.164.424-.486.321-.888-.392-1.532-1.587-2.656-3.161-2.974A5.2 5.2 0 0 0 7.463.704m5.424 7.334a.7.7 0 0 1 .359.303l.074.126v5.066l-.074.126a.7.7 0 0 1-.359.303c-.149.053-9.625.053-9.774 0a.7.7 0 0 1-.359-.303l-.074-.126V8.467l.074-.126a.7.7 0 0 1 .359-.303c.149-.053 9.625-.053 9.774 0"/></svg>