<svg xmlns="http://www.w3.org/2000/svg" viewBox="0 0 16 16" fill="currentColor"><path fill-rule="evenodd" d="M7.72 1.397c-.106.051-.487.418-1.884 1.82-1.693 1.698-1.753 1.761-1.794 1.901a.6.6 0 0 0-.001.422.67.67 0 0 0 .419.419.6.6 0 0 0 .422-.002c.138-.04.195-.093 1.298-1.192l1.153-1.15v3.228c0 2.812.006 3.245.041 3.364.075.252.358.46.626.46a.69.69 0 0 0 .626-.46c.035-.119.041-.552.041-3.364V3.615l1.153 1.15c1.103 1.099 1.16 1.152 1.298 1.192.18.053.25.054.422.002a.67.67 0 0 0 .419-.419.6.6 0 0 0-.001-.422c-.041-.14-.1-.202-1.794-1.899-1.342-1.344-1.781-1.769-1.883-1.82a.64.64 0 0 0-.561-.002M1.782 9.375a.6.6 0 0 0-.246.16c-.205.205-.203.186-.202 1.837 0 .835.011 1.511.026 1.606.074.451.227.743.573 1.089s.638.499 1.089.573c.226.036 9.73.036 9.956 0 .451-.074.743-.227 1.089-.573s.499-.638.573-1.089c.015-.095.026-.771.026-1.606.001-1.65.003-1.632-.201-1.837A.7.7 0 0 0 14 9.333c-.149 0-.34.08-.453.189-.208.203-.199.121-.214 1.825l-.013 1.52-.074.125a.7.7 0 0 1-.359.303c-.149.053-9.625.053-9.774 0a.7.7 0 0 1-.359-.303l-.074-.125-.013-1.52c-.015-1.704-.006-1.622-.214-1.825a.65.65 0 0 0-.671-.147"/></svg>