<svg xmlns="http://www.w3.org/2000/svg" viewBox="0 0 16 16" fill="currentColor"><path fill-rule="evenodd" d="M5.587 1.35C3.609 1.514 1.915 2.539.892 4.191a6 6 0 0 0-.586 5.025c.227.69.655 1.458 1.098 1.969.228.263.354.335.588.335a.58.58 0 0 0 .445-.161c.152-.134.213-.272.214-.492.001-.223-.017-.263-.277-.588-1.033-1.297-1.317-2.953-.772-4.51a4.7 4.7 0 0 1 1.68-2.229 5.7 5.7 0 0 1 1.274-.644 4.63 4.63 0 0 1 3.46.235c1.221.585 2.103 1.645 2.489 2.99a.75.75 0 0 0 .358.473c.103.054.158.059.844.075.809.019.947.041 1.359.219.588.255 1.13.797 1.374 1.376.164.388.212.635.212 1.083-.001.497-.053.714-.279 1.173a2.53 2.53 0 0 1-1.016 1.107c-.227.134-.356.284-.398.458-.072.3.039.582.288.732.274.164.489.141.858-.092.806-.509 1.34-1.173 1.657-2.059.313-.879.31-1.785-.009-2.693-.335-.953-1.054-1.755-2.003-2.231-.501-.252-1.017-.374-1.705-.405l-.395-.017-.08-.2a6.5 6.5 0 0 0-.949-1.603 8 8 0 0 0-.914-.895A6.1 6.1 0 0 0 6.853 1.4a9 9 0 0 0-1.266-.05m2.146 6.038c-.179.081-2.912 2.81-3.002 2.999a.663.663 0 0 0 .602.945c.268 0 .318-.039 1.194-.913l.806-.805v2.228c0 2.526-.008 2.412.202 2.623a.7.7 0 0 0 .465.202.7.7 0 0 0 .465-.202c.21-.211.202-.097.202-2.623V9.614l.806.805c.876.874.926.913 1.194.913a.66.66 0 0 0 .665-.665c.001-.286-.001-.289-1.536-1.819C8.274 7.33 8.28 7.335 8 7.335c-.09 0-.193.02-.267.053"/></svg>