<svg xmlns="http://www.w3.org/2000/svg" viewBox="0 0 16 16" fill="currentColor"><path d="M6.78 2.027a2.79 2.79 0 0 0-2.306 2.048c-.081.296-.081.967 0 1.263.141.514.391.939.757 1.29.366.35.751.566 1.244.698.227.062.309.07.685.07s.458-.008.685-.07a2.78 2.78 0 0 0 2.001-1.988c.081-.296.081-.967 0-1.263a2.75 2.75 0 0 0-.744-1.277 2.68 2.68 0 0 0-1.835-.784c-.176-.006-.395 0-.487.013m.822.731a2.05 2.05 0 0 1 1.535 1.46c.056.203.064.746.014.929-.259.944-1.037 1.549-1.991 1.549-.94 0-1.729-.6-1.978-1.505-.063-.227-.062-.744.001-.973.2-.729.797-1.3 1.524-1.459a3 3 0 0 1 .895-.001m3.211 4a1.8 1.8 0 0 0-1.284 1.17c-.071.211-.074.241-.083.903l-.01.684-.165.018c-.344.036-.626.242-.737.539-.052.137-.054.207-.054 1.686 0 1.793-.008 1.727.239 1.979.107.108.19.165.302.206.152.056.18.057 2.219.057s2.067-.001 2.219-.057a.8.8 0 0 0 .302-.206c.247-.252.239-.186.239-1.979 0-1.479-.002-1.549-.054-1.686-.111-.297-.393-.503-.737-.539l-.164-.018-.011-.684c-.01-.621-.017-.702-.071-.871a1.85 1.85 0 0 0-1.336-1.212 3 3 0 0 0-.814.01m.694.692c.323.086.552.273.699.57l.101.204.008.648.009.648h-2.168l.009-.648.008-.648.101-.204c.23-.466.74-.702 1.233-.57m-6.64.926a3.4 3.4 0 0 0-1.02.29c-.977.466-1.623 1.313-1.807 2.366-.032.18-.04.488-.04 1.459 0 1.375-.002 1.358.188 1.46.086.046.22.049 2.572.049s2.486-.003 2.572-.049a.343.343 0 0 0 .031-.589c-.076-.054-.107-.055-1.16-.055H5.12v-.681c0-.759-.012-.825-.165-.919-.182-.11-.44-.038-.517.146-.03.072-.038.241-.038.773v.681H2.716l.01-1.087c.012-1.238.021-1.298.245-1.753a2.5 2.5 0 0 1 1.606-1.324c.201-.057.266-.06 1.57-.075.957-.01 1.375-.024 1.413-.046.133-.076.187-.168.187-.316 0-.121-.012-.155-.079-.224a.5.5 0 0 0-.173-.109c-.115-.032-2.32-.029-2.628.003m6.545 3.086c.152.082.188.185.188.538s-.036.456-.188.538a.34.34 0 0 1-.344 0c-.152-.082-.188-.185-.188-.538 0-.247.01-.325.049-.398a.39.39 0 0 1 .311-.189c.044 0 .122.022.172.049"/></svg>