<svg xmlns="http://www.w3.org/2000/svg" viewBox="0 0 16 16" fill="currentColor"><path fill-rule="evenodd" d="M5.267 1.364a3.35 3.35 0 0 0-2.553 1.772A3.335 3.335 0 0 0 3.817 7.43c1.649 1.098 3.901.52 4.802-1.232a3.336 3.336 0 0 0-1.102-4.295 3.34 3.34 0 0 0-2.25-.539m.792 1.34a2.04 2.04 0 0 1 1.42 1.105c.241.482.241 1.234 0 1.715-.357.71-1.043 1.143-1.812 1.143s-1.456-.433-1.812-1.143c-.243-.483-.243-1.232 0-1.715.422-.84 1.296-1.278 2.204-1.105m9.048 2.674c-.123.037-.226.132-1.286 1.19l-1.153 1.149-.489-.483c-.444-.438-.502-.486-.632-.525a.6.6 0 0 0-.421-.002.67.67 0 0 0-.419.419.6.6 0 0 0 .002.422c.04.137.086.189.82.923s.786.78.923.82a.6.6 0 0 0 .43 0c.14-.041.196-.093 1.589-1.487 1.393-1.393 1.446-1.449 1.487-1.589a.6.6 0 0 0 .001-.422.666.666 0 0 0-.852-.415M2.909 9.365a4 4 0 0 0-1.024.305 3.35 3.35 0 0 0-1.81 2.317c-.047.208-.056.361-.068 1.15-.015 1.069-.007 1.126.195 1.327a.7.7 0 0 0 .465.203.72.72 0 0 0 .452-.189c.199-.193.198-.189.216-1.251.014-.891.019-.958.076-1.134a2.07 2.07 0 0 1 1.362-1.351l.2-.062H8.36l.2.062c.651.204 1.15.698 1.362 1.351.057.175.062.246.076 1.134.018 1.062.018 1.058.216 1.251a.72.72 0 0 0 .453.189.69.69 0 0 0 .629-.472c.062-.212.04-1.866-.029-2.168-.163-.718-.478-1.295-.959-1.756a3.4 3.4 0 0 0-1.94-.909c-.324-.036-5.137-.032-5.459.003"/></svg>