<svg xmlns="http://www.w3.org/2000/svg" viewBox="0 0 16 16" fill="currentColor"><path fill-rule="evenodd" d="M7.72 1.349c-.378.052-.513.08-.733.15a3.35 3.35 0 0 0-2.259 2.553c-.053.273-.06.917-.011 1.175A3.36 3.36 0 0 0 7.44 7.95c.224.042.896.042 1.12 0 1.248-.234 2.251-1.112 2.61-2.284a2.8 2.8 0 0 0 .147-.986 2.9 2.9 0 0 0-.15-1.027A3.34 3.34 0 0 0 8.63 1.4c-.217-.041-.762-.072-.91-.051m.853 1.397a2.06 2.06 0 0 1 1.351 1.361c.053.168.063.257.063.56 0 .302-.01.391-.063.56A2.06 2.06 0 0 1 8.56 6.591c-.289.09-.831.09-1.12 0a2.06 2.06 0 0 1-1.364-1.364c-.091-.29-.091-.831 0-1.12a2.06 2.06 0 0 1 1.553-1.413c.205-.043.734-.014.944.052M4.909 9.365a4 4 0 0 0-1.024.305 3.38 3.38 0 0 0-1.722 1.988c-.128.406-.139.512-.154 1.479-.017 1.07-.009 1.126.193 1.327a.7.7 0 0 0 .465.203.72.72 0 0 0 .452-.189c.199-.193.198-.189.216-1.251.014-.891.019-.958.076-1.134a2.07 2.07 0 0 1 1.362-1.351l.2-.062h6.054l.2.062c.651.204 1.15.698 1.362 1.351.056.175.061.246.076 1.134.018 1.062.017 1.058.216 1.251a.72.72 0 0 0 .452.189.69.69 0 0 0 .63-.472c.061-.212.039-1.866-.029-2.168-.163-.718-.479-1.295-.959-1.756a3.4 3.4 0 0 0-1.941-.909c-.325-.036-5.803-.032-6.125.003"/></svg>