<svg xmlns="http://www.w3.org/2000/svg" viewBox="0 0 16 16" fill="currentColor"><path fill-rule="evenodd" d="M5.72 1.349c-.378.052-.513.08-.733.15a3.35 3.35 0 0 0-2.259 2.553c-.053.273-.06.917-.011 1.175A3.36 3.36 0 0 0 5.44 7.95c.224.042.896.042 1.12 0 1.248-.234 2.251-1.112 2.61-2.284a2.8 2.8 0 0 0 .147-.986 2.9 2.9 0 0 0-.15-1.027A3.34 3.34 0 0 0 6.63 1.4c-.217-.041-.762-.072-.91-.051m4.8.089a.666.666 0 0 0-.386 1.039c.1.138.202.202.429.27.552.166.986.536 1.236 1.053.143.295.201.548.201.872a1.8 1.8 0 0 1-.198.861c-.271.546-.647.862-1.267 1.067-.18.06-.246.097-.338.191a.66.66 0 0 0 .257 1.089c.156.055.25.05.523-.028 1.139-.325 2.034-1.312 2.296-2.53.066-.304.064-1.012-.002-1.318a3.2 3.2 0 0 0-.258-.764 3.6 3.6 0 0 0-1.025-1.247 3.8 3.8 0 0 0-1.038-.512c-.245-.07-.296-.075-.43-.043M6.573 2.746a2.06 2.06 0 0 1 1.351 1.361c.053.168.063.257.063.56 0 .302-.01.391-.063.56A2.06 2.06 0 0 1 6.56 6.591c-.289.09-.831.09-1.12 0a2.06 2.06 0 0 1-1.364-1.364c-.091-.29-.091-.831 0-1.12a2.06 2.06 0 0 1 1.553-1.413c.205-.043.734-.014.944.052M2.909 9.365c-.278.031-.77.178-1.024.305a3.35 3.35 0 0 0-1.81 2.317c-.047.208-.056.361-.068 1.15-.015 1.069-.007 1.126.195 1.327a.7.7 0 0 0 .465.203.72.72 0 0 0 .452-.189c.199-.193.198-.189.216-1.251.014-.891.019-.958.076-1.134a2.07 2.07 0 0 1 1.362-1.351l.2-.062h6.054l.2.062c.651.204 1.15.698 1.362 1.351.056.175.061.246.076 1.134.018 1.062.017 1.058.216 1.251a.72.72 0 0 0 .452.189.69.69 0 0 0 .63-.472c.061-.212.039-1.866-.029-2.168-.155-.679-.431-1.209-.872-1.668-.46-.48-1.02-.786-1.756-.962-.184-.044-.425-.048-3.186-.052-1.762-.003-3.079.005-3.211.02m10.278.073a.665.665 0 0 0-.386 1.039c.101.14.194.197.465.284.34.109.532.231.815.516.208.209.275.298.366.483.194.396.2.434.218 1.48s.017 1.045.216 1.238a.72.72 0 0 0 .452.189.7.7 0 0 0 .465-.202c.19-.191.202-.259.202-1.17 0-.426-.013-.883-.028-1.015a3.4 3.4 0 0 0-1.316-2.283 3.8 3.8 0 0 0-1.039-.516c-.245-.07-.296-.075-.43-.043"/></svg>