<svg xmlns="http://www.w3.org/2000/svg" viewBox="0 0 24 24" fill="currentColor"><path d="M7.333 1.918a1.3 1.3 0 0 0-.591.376c-.216.283-.222.342-.222 2.111V6.04H3.727c-3.196 0-3.036-.016-3.39.337-.369.37-.337-.393-.337 8.008 0 5.457.012 7.438.046 7.511a.4.4 0 0 0 .176.162c.118.056 1.323.061 11.838.052l11.707-.01.117-.131.117-.131-.011-7.529-.01-7.529-.086-.16a1.18 1.18 0 0 0-.534-.497c-.176-.079-.25-.081-3.03-.082l-2.85-.001V4.407c0-1.787-.007-1.852-.237-2.131a1.4 1.4 0 0 0-.329-.257L16.7 1.9l-4.62-.006c-2.541-.004-4.677.007-4.747.024m9.294.809.093.087V21.36H14.4v-2.99l.227-.019c.194-.016.243-.038.344-.15.099-.111.114-.155.095-.276a.43.43 0 0 0-.127-.235l-.103-.09h-2.833c-2.792 0-2.834.001-2.936.082a.384.384 0 0 0-.092.469c.07.135.237.209.471.209H9.6v3H7.28V2.825l.087-.092.087-.093h9.081zM8.772 4.071a.5.5 0 0 0-.13.182c-.059.157-.057 2.813.002 2.982.081.233.15.245 1.396.245s1.315-.012 1.396-.245c.06-.172.061-2.815.001-2.986-.085-.244-.113-.249-1.406-.248-1.048.001-1.18.008-1.259.07m3.923 0a.6.6 0 0 0-.13.156c-.062.121-.062 2.831-.001 3.008.081.233.15.245 1.392.245.711 0 1.155-.016 1.214-.043.206-.094.209-.115.223-1.617.008-.94-.002-1.449-.032-1.55-.077-.261-.123-.27-1.429-.269-1.031.001-1.161.008-1.237.07M10.72 5.74v.98H9.36V4.76h1.36zm3.92 0v.98h-1.36V4.76h1.36zm-8.12 8.34v7.28H.76V6.996l.098-.098.098-.098H6.52zm16.64-7.2c.079.079.08.133.08 7.28v7.2h-5.76V6.8h2.8c2.747 0 2.802.002 2.88.08M2.332 7.977l-.112.096v3.054l.133.118.132.118 1.177-.011 1.176-.012.111-.111.111-.111.013-1.349c.007-.742.001-1.428-.013-1.524a.53.53 0 0 0-.121-.27l-.095-.095h-2.4zm16.729-.001a.5.5 0 0 0-.121.23c-.013.073-.019.759-.012 1.523l.012 1.389.111.111.111.111h2.396l.111-.111.111-.111.011-1.447c.009-1.041-.001-1.479-.035-1.561-.095-.228-.107-.23-1.407-.23h-1.193zm-10.166.49a.45.45 0 0 0-.18.119l-.095.101v3.032l.111.111.111.111 1.115.012c1.242.014 1.344-.002 1.462-.23.056-.108.062-.308.052-1.582l-.011-1.458-.111-.111-.111-.111-1.129-.006a24 24 0 0 0-1.214.012m3.92.002a.43.43 0 0 0-.18.117l-.095.101v3.032l.111.111.111.111 1.115.012c1.27.014 1.361-.001 1.464-.249.087-.206.087-2.8 0-3.006-.1-.241-.194-.258-1.39-.252-.578.003-1.089.013-1.136.023M4.32 9.6v1H2.96v-2h1.36zm16.72 0v1h-1.36v-2h1.36zm-10.32.6v1H9.36v-2h1.36zm3.92 0v1h-1.36v-2h1.36zM2.396 12.38c-.192.104-.2.175-.187 1.755l.011 1.472.112.097.112.096h2.4l.095-.095a.5.5 0 0 0 .12-.27c.014-.096.02-.784.014-1.528l-.013-1.354-.131-.116-.13-.117-1.15.002c-.914.001-1.17.013-1.253.058m16.675.057-.131.116-.012 1.394c-.007.766-.001 1.454.013 1.527a.5.5 0 0 0 .12.23l.095.096h1.193c1.3 0 1.312-.002 1.407-.23.034-.082.044-.521.035-1.565l-.011-1.452-.131-.116-.13-.117h-2.318zm-10.285.528c-.171.1-.186.238-.186 1.698 0 1.506.012 1.595.224 1.691.067.031.466.046 1.216.046s1.149-.015 1.216-.046c.212-.096.224-.185.224-1.684 0-.88-.016-1.423-.043-1.501-.085-.244-.113-.249-1.406-.248-.758.001-1.197.017-1.245.044m3.924-.002c-.18.105-.19.194-.19 1.669 0 .919.015 1.44.044 1.523.082.233.149.245 1.413.245h1.142l.13-.117.131-.116.012-1.394c.007-.766.001-1.453-.012-1.527a.5.5 0 0 0-.128-.23l-.104-.096-1.184.001c-.729.001-1.211.017-1.254.042M4.311 14.07l-.011.99-.67.011-.67.011V13.08h1.361zm16.72 0-.011.99H19.7l-.011-.99-.01-.99h1.362zm-10.311.59v.98H9.36v-1.96h1.36zm3.92 0v.98h-1.36v-1.96h1.36zM2.332 16.897l-.112.096v3.045l.111.111.111.111h1.195c1.339 0 1.319.004 1.403-.296.053-.194.052-2.698-.002-2.893-.075-.271-.077-.271-1.405-.271H2.444zm16.729-.001a.5.5 0 0 0-.121.23c-.013.073-.019.759-.012 1.523l.012 1.389.111.111.111.111h2.396l.111-.111.111-.111v-3.045l-.112-.096-.112-.097h-2.4zM4.28 18.52v1H2.96v-2h1.32zm16.76 0v1h-1.36v-2h1.36zm-7.4 1.34v1.5h-3.28v-3h3.28z"/></svg>