<svg xmlns="http://www.w3.org/2000/svg" viewBox="0 0 16 16" fill="currentColor"><path d="M4.773 1.074q-.69.236-.922.953c-.042.129-.049.285-.058 1.313l-.01 1.167h-.77c-.459 0-.827.012-.912.029-.483.101-.898.494-1.052.997C1.003 5.684 1 5.847 1 8.347s.003 2.662.049 2.813c.151.494.485.831.978.988.122.039.281.049.95.059l.805.011.011.805c.01.669.02.828.059.95.157.493.494.827.988.978.151.046.324.049 3.16.049s3.009-.003 3.16-.049c.489-.15.833-.49.988-.978.039-.122.049-.281.059-.95l.011-.805.805-.011c.669-.01.828-.02.95-.059.488-.155.828-.499.978-.988.046-.151.049-.313.049-2.813 0-2.927.009-2.76-.166-3.106-.101-.199-.411-.495-.621-.594-.27-.127-.388-.14-1.226-.14h-.77l-.01-1.167c-.009-1.028-.016-1.184-.058-1.313-.157-.486-.506-.834-.974-.971-.129-.038-.479-.043-3.187-.042l-3.041.001zm6.331.698a.76.76 0 0 1 .324.324c.049.097.052.179.059 1.257l.008 1.154H4.507V3.391c0-.783.009-1.143.031-1.207a.7.7 0 0 1 .434-.442c.061-.024.823-.03 3.055-.027 2.882.005 2.976.007 3.077.057m2.346 4.897c.155.122.19.303.089.454-.105.158-.194.184-.64.184-.44 0-.535-.024-.628-.155a.4.4 0 0 1-.017-.379c.073-.142.139-.157.656-.159.437-.001.474.003.54.055m-1.957 5.084v1.994l-.063.135a1 1 0 0 1-.162.232c-.195.189-.018.179-3.268.179-3.257 0-3.074.011-3.273-.183a1 1 0 0 1-.155-.204c-.05-.102-.052-.18-.059-2.126l-.007-2.02h6.987zm-6.098-.914c-.239.104-.256.463-.027.602.083.051.153.052 2.627.052 2.805 0 2.644.01 2.753-.168a.343.343 0 0 0-.134-.476c-.089-.047-.219-.049-2.614-.048-2.083.001-2.535.007-2.605.038m-.027 1.773a.34.34 0 0 0 .02.593c.086.046.222.048 2.612.048s2.526-.002 2.612-.048a.344.344 0 0 0 .136-.477c-.109-.178.052-.168-2.753-.168-2.474 0-2.544.002-2.627.052"/></svg>