<svg xmlns="http://www.w3.org/2000/svg" viewBox="0 0 16 16" fill="currentColor"><path fill-rule="evenodd" d="M3.113 1.047c-.089.067-.1.176-.1 1.017v.833l-.061.058c-.061.057-.077.058-.892.058-.51 0-.858.011-.903.028-.14.053-.142.067-.143.803 0 .377.007.704.016.728.042.111.128.121 1.005.121.807 0 .84.002.908.056l.07.055v.834c0 .86.013.978.108 1.029.027.015.225.026.439.026h.391l.111-.09c.145-.117.262-.176.458-.231l.16-.044.013-.766c.014-.766.014-.767.077-.818.059-.047.115-.051.901-.051.878 0 .963-.01 1.006-.121.027-.072.019-1.398-.01-1.451-.051-.095-.169-.108-1.029-.108h-.834l-.055-.07c-.054-.068-.056-.101-.056-.908 0-.877-.01-.963-.121-1.005a9 9 0 0 0-.729-.017c-.508 0-.698.009-.73.034m6.106 2.688c-.162.046-.622.384-.902.663-.54.54-.827 1.096-.957 1.855a5.1 5.1 0 0 0 .075 1.874c.041.167.047.264.034.513l-.016.307.234.265c.316.359.558.786.66 1.162.019.069.086.16.213.287.411.411.495.89.271 1.54a2.2 2.2 0 0 1-.551.881 2.6 2.6 0 0 1-.673.515c-.063.031-.113.066-.113.077a8 8 0 0 0 .123.366c.149.427.249.776.25.873v.074l1.886-.001h1.887l.125-.193c.387-.599.595-1.25.626-1.966.025-.574-.046-.966-.283-1.56-.233-.584-.285-.783-.337-1.3a5 5 0 0 1-.036-.485c.007-.006.288-.055.625-.109.748-.119 1.083-.186 1.183-.238.143-.074.294-.284.375-.522.027-.079.06-.107.224-.184.414-.197.805-.722.837-1.127.013-.157.008-.177-.059-.257a.6.6 0 0 0-.117-.11c-.025-.013-.527-.086-1.116-.161l-1.072-.138-.116.08c-.255.175-.393.392-.564.883-.132.378-.211.514-.429.736-.237.24-.523.39-.893.465-.273.057-.377.045-.464-.051-.058-.064-.08-.211-.046-.301.04-.102.12-.145.364-.196.262-.054.449-.14.608-.28.152-.133.216-.236.298-.477.12-.354.261-.655.39-.835l.129-.179-.113-.11c-.432-.42-1.06-.654-1.896-.705-.281-.018-.293-.021-.386-.107L9.4 5.471l.001-.489c0-.406.01-.537.061-.775.052-.246.056-.297.026-.359-.043-.089-.168-.141-.269-.113m.986 2.744a.5.5 0 0 1 .129.119c.053.081.081.421.054.644-.017.132-.035.172-.121.257-.09.09-.115.101-.236.101-.114 0-.151-.013-.23-.082-.123-.109-.156-.239-.143-.573.011-.299.042-.376.19-.466a.35.35 0 0 1 .357 0m-5.541.491c-.242.086-.362.21-.676.691a5.2 5.2 0 0 0-.601 1.399c-.016.062-.038.113-.05.113-.044 0-.301.349-.415.564-.274.513-.423 1.106-.484 1.916l-.019.254-.194.2a4.3 4.3 0 0 0-.583.727c-.322.493-.629 1.257-.629 1.563 0 .288.199.529.486.588.098.02 1.003.027 2.941.022L7.24 15l-.008-.08a6 6 0 0 0-.168-.547c-.158-.464-.305-1.063-.269-1.098.01-.01.102-.049.205-.088.637-.238 1.082-.687 1.264-1.276.117-.382.051-.649-.22-.88-.172-.147-.2-.193-.314-.518-.167-.478-.405-.818-.857-1.227a3.6 3.6 0 0 0-1.036-.645l-.149-.055-.016-.393c-.028-.673-.128-.964-.386-1.128-.209-.133-.425-.166-.622-.095M6.48 9.866c.061.033.086.114.163.527.073.39.06.469-.078.482-.18.017-.592-.24-.592-.369 0-.076.285-.577.356-.627.066-.046.085-.048.151-.013"/></svg>