<svg xmlns="http://www.w3.org/2000/svg" viewBox="0 0 16 16" fill="currentColor"><path fill-rule="evenodd" d="M1.671 2.695a2.02 2.02 0 0 0-1.412.989 1.9 1.9 0 0 0-.232.671c-.036.225-.036 7.065 0 7.29.073.451.227.743.573 1.089s.638.499 1.089.572c.224.037 7.731.037 7.956 0 .421-.068.727-.22 1.044-.519.296-.279.46-.539.568-.898.057-.186.06-.257.075-1.391l.015-1.195 1.8 1.286c.99.707 1.845 1.309 1.901 1.338.313.163.721.018.886-.315.051-.103.053-.189.06-3.557.008-3.898.021-3.636-.196-3.853a.65.65 0 0 0-.757-.126c-.052.027-.904.628-1.894 1.335l-1.8 1.286-.015-1.195c-.015-1.134-.018-1.205-.075-1.391a1.9 1.9 0 0 0-.568-.898 1.84 1.84 0 0 0-1.044-.519c-.2-.033-7.781-.032-7.974.001m7.882 1.343a.7.7 0 0 1 .36.303l.074.126v7.066l-.074.126a.7.7 0 0 1-.36.303c-.148.053-7.625.053-7.773 0a.7.7 0 0 1-.359-.303l-.074-.126V4.467l.074-.126a.7.7 0 0 1 .359-.303c.148-.053 7.625-.053 7.773 0m5.107 4.977-.007 1.015-1.406-1.004C12.473 8.473 11.84 8.012 11.84 8s.633-.473 1.407-1.026l1.406-1.004.007 1.015c.004.558.004 1.472 0 2.03"/></svg>