<svg xmlns="http://www.w3.org/2000/svg" viewBox="0 0 16 16" fill="currentColor"><path fill-rule="evenodd" d="M.448.042A.69.69 0 0 0 .041.46a.6.6 0 0 0 .002.422c.04.136.089.192.867.973l.823.828-.164.034c-.246.05-.425.125-.641.267a2.04 2.04 0 0 0-.853 1.127l-.061.196L.006 7.88c-.005 2.328.002 3.635.019 3.749.071.459.225.755.575 1.105.346.346.638.499 1.089.572.224.037 7.731.037 7.956 0 .25-.04.483-.12.675-.232.231-.134.625-.53.758-.762l.104-.182 1.896 1.893c1.836 1.833 1.9 1.894 2.04 1.935a.6.6 0 0 0 .422.001.67.67 0 0 0 .419-.419c.052-.172.051-.241-.001-.422-.041-.142-.167-.269-7.487-7.589S1.024.083.882.042a.63.63 0 0 0-.434 0m6.485 2.65a.73.73 0 0 0-.443.392.8.8 0 0 0-.037.249.8.8 0 0 0 .037.25.8.8 0 0 0 .321.345c.107.058.135.059 1.416.072l1.306.013.126.074a.8.8 0 0 1 .197.167c.14.184.142.2.143 1.512.001 1.15.004 1.227.054 1.36.045.12.12.209.487.574.264.262.473.447.533.472a.86.86 0 0 0 .504.004c.049-.021.762-.524 1.583-1.118l1.493-1.08.014 2.764c.015 3.098-.002 2.86.214 3.069a.72.72 0 0 0 .452.189.7.7 0 0 0 .465-.202c.217-.217.204.045.196-3.853-.007-3.368-.009-3.454-.06-3.557-.165-.333-.573-.479-.886-.315-.056.029-.899.63-1.874 1.335-1.339.969-1.781 1.275-1.806 1.254-.027-.022-.035-.258-.035-1.085 0-.581-.012-1.131-.027-1.222-.073-.451-.226-.743-.572-1.089s-.638-.499-1.089-.572c-.191-.031-2.611-.033-2.712-.002M6.53 7.476l3.476 3.477-.01.29c-.009.259-.018.304-.083.416a.7.7 0 0 1-.36.303c-.148.053-7.625.053-7.773 0a.7.7 0 0 1-.359-.303l-.074-.126V4.467l.074-.126a.8.8 0 0 1 .166-.197c.17-.129.249-.142.88-.143L3.053 4z"/></svg>