<svg xmlns="http://www.w3.org/2000/svg" viewBox="0 0 16 16" fill="currentColor"><path fill-rule="evenodd" d="M1.085 1.053C.552 1.2.115 1.682.028 2.217c-.038.235-.038 11.331 0 11.566.07.431.392.864.789 1.059.304.15.13.144 3.969.144l3.546.001-.19-.194a4 4 0 0 1-.615-.811l-.124-.222H1.392l-.083-.094-.082-.095V2.429l.082-.095.083-.094h2.741v3.067c0 1.686.006 3.066.014 3.066.007 0 .652-.319 1.433-.71l1.419-.71 1.296.648 1.295.647.138-.046.139-.046V2.24h2.741l.083.094.082.095v5.988l.1.047c.21.099.616.392.834.602.124.12.202.21.173.201a7 7 0 0 0-.981-.216c-.448-.059-1.298-.04-1.712.039-1.564.296-2.866 1.256-3.547 2.614L7.492 12l.148.296c.999 1.994 3.305 3.062 5.607 2.596a5.06 5.06 0 0 0 2.546-1.341l.207-.203v-2.7l-.233-.224a5.1 5.1 0 0 0-1.493-.991l-.273-.113L14 5.853c0-2.251-.01-3.526-.028-3.636a1.49 1.49 0 0 0-1.069-1.165C12.698.997 1.284.999 1.085 1.053M8.64 4.307c0 1.136-.006 2.066-.013 2.066s-.377-.181-.821-.403l-.807-.403-.806.403c-.443.222-.812.403-.819.403-.008 0-.014-.93-.014-2.066V2.24h3.28zm4.042 5.96c.833.211 1.397.911 1.397 1.733 0 .655-.366 1.255-.959 1.571a2.13 2.13 0 0 1-1.507.149 1.87 1.87 0 0 1-.946-.615c-.464-.53-.531-1.383-.157-1.999.247-.409.73-.749 1.21-.854.254-.055.715-.048.962.015M2.88 11.293v.627h4.107v-1.253H2.88zm8.92-.313c-.882.314-1.046 1.382-.293 1.9.374.257.96.259 1.326.004.269-.187.421-.417.475-.72a1.01 1.01 0 0 0-.323-.923 1.5 1.5 0 0 0-.312-.209c-.16-.075-.21-.085-.46-.092-.216-.006-.31.003-.413.04"/></svg>