<svg xmlns="http://www.w3.org/2000/svg" viewBox="0 0 16 16" fill="currentColor"><path fill-rule="evenodd" d="M1.526.081c-.205.103-.408.32-.491.526L.973.76.965 6.747c-.005 4.394.001 6.029.023 6.145.079.415.381.724.793.811.162.035 5.846.044 5.845.01 0-.011-.035-.123-.077-.25a4 4 0 0 1-.125-.486l-.048-.257H1.947l.006-5.873L1.96.973 5.327.967 8.693.96l.001.647c0 .355.011.721.024.813.051.349.262.642.576.795l.159.078.8.014.8.013.007 2.5.007 2.5.273.001c.15.001.372.017.493.035l.22.033V5.481c0-2.011-.009-2.941-.029-3.014-.024-.09-.199-.278-1.126-1.21A42 42 0 0 0 9.696.077L9.592 0H1.689zm8.607 1.826.413.413h-.839v-.413c0-.228.003-.414.007-.414s.192.186.419.414m-7.08 3.599a.5.5 0 0 0-.207.79c.14.167-.073.157 3.658.157 2.352 0 3.436-.009 3.488-.028.234-.089.365-.408.265-.646a.6.6 0 0 0-.33-.284c-.068-.019-1.186-.028-3.434-.027-2.789.001-3.35.007-3.44.038m.004 2.453a.48.48 0 0 0-.287.268.46.46 0 0 0 0 .401.48.48 0 0 0 .351.276c.093.02 1.059.029 3.089.029h2.954l.211-.12c.215-.123.672-.312.835-.346.087-.019.089-.022.075-.126-.016-.124-.129-.276-.261-.354-.089-.053-.144-.054-3.477-.059-2.822-.005-3.404 0-3.49.031m8.156 1.364c-.99.14-1.611.384-2.333.914a5.7 5.7 0 0 0-.929.931c-.191.26-.425.666-.526.916l-.072.177.148.309q.557 1.155 1.632 1.864a4.64 4.64 0 0 0 4.907.113 4.7 4.7 0 0 0 1.877-2.114l.085-.193-.144-.303a4.57 4.57 0 0 0-2.112-2.146c-.654-.33-1.186-.457-1.973-.471a7 7 0 0 0-.56.003M3.097 10.4a.5.5 0 0 0-.29.212c-.209.307-.007.716.374.761.077.009 1.067.013 2.202.008l2.063-.008.065-.226a4 4 0 0 1 .172-.467l.122-.273c.011-.027-.459-.033-2.302-.031-1.274.002-2.357.012-2.406.024m8.951.122a1.79 1.79 0 0 1 1.32 1.198c.047.153.058.25.058.533-.001.318-.008.366-.082.575a1.79 1.79 0 0 1-1.143 1.109 2 2 0 0 1-.972.025 1.82 1.82 0 0 1-1.147-.944 1.8 1.8 0 0 1-.162-.776c.001-.516.147-.871.506-1.229.453-.453.998-.618 1.622-.491m-.73.725a1.2 1.2 0 0 0-.476.34c-.04.052-.104.163-.143.247-.062.132-.071.187-.071.406 0 .327.065.499.27.721.539.582 1.484.4 1.77-.34a1.2 1.2 0 0 0 0-.762c-.079-.205-.307-.45-.519-.559-.144-.074-.192-.085-.429-.092-.207-.007-.297.002-.402.039"/></svg>