<svg xmlns="http://www.w3.org/2000/svg" viewBox="0 0 16 16" fill="currentColor"><path fill-rule="evenodd" d="M4.52 2.017c-.921.1-1.61.429-2.253 1.075-.767.77-1.165 1.639-1.253 2.735-.062.773.103 1.662.427 2.308.238.472.291.531 2.785 3.047 1.306 1.317 2.434 2.441 2.507 2.497.295.225.545.307.934.307.345 0 .559-.06.807-.227.19-.128 4.759-4.702 4.989-4.994.808-1.029 1.078-2.486.706-3.818-.385-1.38-1.51-2.519-2.793-2.828-.887-.214-1.766-.13-2.542.241-.358.171-.714.41-.976.654l-.191.179-.187-.172a4 4 0 0 0-1.882-.954 6 6 0 0 0-1.078-.05m.976 1.393c.509.132.818.335 1.371.901.362.371.447.445.567.49a.57.57 0 0 0 .448.008c.112-.038.191-.106.545-.47.495-.51.707-.664 1.126-.817.481-.176 1.117-.196 1.59-.05.975.3 1.713 1.26 1.845 2.397a2.8 2.8 0 0 1-.129 1.244l-.07.22h-1.388l-1.388-.001-.593-.892c-.626-.942-.693-1.021-.924-1.083a.69.69 0 0 0-.68.234c-.064.078-.175.383-.538 1.474a57 57 0 0 1-.475 1.394c-.01.011-.158-.19-.331-.446-.172-.255-.355-.496-.406-.535-.188-.144-.168-.142-1.908-.143l-1.616-.002-.071-.233c-.108-.358-.133-.583-.116-1.06.019-.542.09-.834.301-1.25.404-.792 1.074-1.306 1.864-1.429.238-.037.74-.012.976.049m3.681 5.034c.049.052.138.12.196.152.104.056.137.058 1.226.065l1.119.008-1.999 1.999c-1.318 1.318-2.017 1.999-2.052 1.999s-.735-.681-2.054-2l-2-2h1.685l.598.897c.328.493.634.925.679.959.274.209.633.183.888-.066l.127-.124.462-1.387c.254-.762.468-1.397.475-1.409.008-.013.136.165.287.395s.313.461.363.512"/></svg>