<svg xmlns="http://www.w3.org/2000/svg" viewBox="0 0 16 16" fill="currentColor"><path fill-rule="evenodd" d="M3.268 4.028a3.2 3.2 0 0 0-.746.164A3.66 3.66 0 0 0 .061 7.025c-.059.323-.059.96 0 1.283a3.69 3.69 0 0 0 2.962 2.966c.225.043.602.046 4.977.046s4.752-.003 4.977-.046a3.69 3.69 0 0 0 2.962-2.966 4.8 4.8 0 0 0 0-1.283 3.68 3.68 0 0 0-2.962-2.963 4.7 4.7 0 0 0-1.287 0 3.68 3.68 0 0 0-2.962 2.961 4.8 4.8 0 0 0 0 1.287c.103.569.326 1.067.729 1.63L9.5 10h-3l.043-.06c.481-.672.697-1.221.765-1.95A3.66 3.66 0 0 0 5.68 4.609a3.9 3.9 0 0 0-1.348-.542 4.7 4.7 0 0 0-1.064-.039m1.017 1.383c.797.228 1.41.844 1.641 1.648.086.301.086.914 0 1.216a2.34 2.34 0 0 1-.676 1.098 2.2 2.2 0 0 1-.979.554c-.3.086-.913.085-1.218-.002A2.3 2.3 0 0 1 1.96 9.25a2.2 2.2 0 0 1-.554-.979c-.084-.295-.084-.913 0-1.209.116-.402.271-.676.553-.978.365-.39.804-.634 1.299-.723.232-.041.806-.013 1.027.05m8.675.002c.647.184 1.244.698 1.509 1.296.145.328.183.528.183.958s-.038.629-.183.957c-.267.604-.861 1.111-1.522 1.301-.31.088-.918.088-1.227 0a2.3 2.3 0 0 1-1.093-.675 2.2 2.2 0 0 1-.554-.979c-.085-.295-.085-.913 0-1.209.116-.402.271-.676.553-.978a2.32 2.32 0 0 1 1.298-.723c.237-.042.806-.013 1.036.052"/></svg>