<svg xmlns="http://www.w3.org/2000/svg" viewBox="0 0 16 16" fill="currentColor"><path fill-rule="evenodd" d="M12.569 2.641c-.402.079-.631.545-.451.919.035.073.169.247.297.387a5.97 5.97 0 0 1 .973 6.68c-.272.559-.546.96-.973 1.426-.128.14-.262.314-.297.387a.648.648 0 0 0 .59.927c.24 0 .364-.07.638-.358a7.2 7.2 0 0 0 1.611-2.722c.264-.808.36-1.42.36-2.287a6.7 6.7 0 0 0-.361-2.291 7.2 7.2 0 0 0-1.625-2.733c-.297-.312-.478-.391-.762-.335m-5.421.057a.8.8 0 0 0-.174.082c-.044.031-.784.618-1.644 1.305L3.767 5.333H2.515c-1.439 0-1.445.001-1.646.202C.659 5.745.667 5.65.667 8s-.008 2.255.202 2.465c.201.201.207.202 1.646.202h1.251l1.604 1.282c.882.706 1.637 1.3 1.678 1.322a.7.7 0 0 0 .477.026.7.7 0 0 0 .409-.351c.052-.104.053-.198.06-4.892.007-5.386.023-4.966-.196-5.185a.65.65 0 0 0-.65-.171M6.667 8v3.28l-1.147-.917c-.631-.505-1.192-.94-1.247-.967-.091-.045-.19-.05-1.186-.057L2 9.331V6.669l1.087-.008c.996-.007 1.095-.012 1.186-.057.055-.027.613-.462 1.24-.965s1.143-.916 1.147-.917.007 1.474.007 3.278m3.391-2.944a.62.62 0 0 0-.351.59c.001.203.06.326.273.566a2.63 2.63 0 0 1 .678 1.908 2.6 2.6 0 0 1-.664 1.646c-.243.28-.267.326-.282.532-.017.245.037.384.212.541a.6.6 0 0 0 .509.167c.184-.017.287-.077.483-.28.762-.79 1.166-1.957 1.062-3.066a3.9 3.9 0 0 0-.434-1.503c-.246-.479-.656-.988-.889-1.104a.67.67 0 0 0-.597.003"/></svg>