<svg xmlns="http://www.w3.org/2000/svg" viewBox="0 0 16 16" fill="currentColor"><path fill-rule="evenodd" d="M7.148 2.698a.8.8 0 0 0-.174.082c-.044.031-.784.618-1.644 1.305L3.767 5.333H2.515c-1.439 0-1.445.001-1.646.202C.659 5.745.667 5.65.667 8s-.008 2.255.202 2.465c.201.201.207.202 1.646.202h1.251l1.604 1.282c.882.706 1.637 1.3 1.678 1.322a.7.7 0 0 0 .477.026.7.7 0 0 0 .409-.351c.052-.104.053-.198.06-4.892.007-5.386.023-4.966-.196-5.185a.65.65 0 0 0-.65-.171M6.667 8v3.28l-1.147-.917c-.631-.505-1.192-.94-1.247-.967-.091-.045-.19-.05-1.186-.057L2 9.331V6.669l1.087-.008c.996-.007 1.095-.012 1.186-.057.055-.027.613-.462 1.24-.965s1.143-.916 1.147-.917.007 1.474.007 3.278"/></svg>