<svg xmlns="http://www.w3.org/2000/svg" viewBox="0 0 16 16" fill="currentColor"><path fill-rule="evenodd" d="M7.148 2.698a.8.8 0 0 0-.174.082c-.044.031-.784.618-1.644 1.305L3.767 5.333H2.515c-1.439 0-1.445.001-1.646.202C.659 5.745.667 5.65.667 8s-.008 2.255.202 2.465c.201.201.207.202 1.646.202h1.251l1.604 1.282c.882.706 1.637 1.3 1.678 1.322a.7.7 0 0 0 .477.026.7.7 0 0 0 .409-.351c.052-.104.053-.198.06-4.892.007-5.386.023-4.966-.196-5.185a.65.65 0 0 0-.65-.171M6.667 8v3.28l-1.147-.917c-.631-.505-1.192-.94-1.247-.967-.091-.045-.19-.05-1.186-.057L2 9.331V6.669l1.087-.008c.996-.007 1.095-.012 1.186-.057.055-.027.613-.462 1.24-.965s1.143-.916 1.147-.917.007 1.474.007 3.278m4.448-2.625a.69.69 0 0 0-.408.418.6.6 0 0 0 .003.422c.04.137.089.192.858.965l.816.82-.816.82c-.769.773-.818.828-.858.965a.6.6 0 0 0-.003.422.67.67 0 0 0 .419.419.6.6 0 0 0 .422-.002c.137-.041.192-.09.965-.859l.82-.816.82.816c.773.769.829.818.965.859a.6.6 0 0 0 .422.002.67.67 0 0 0 .419-.419.6.6 0 0 0-.002-.422c-.04-.137-.089-.192-.859-.965L14.283 8l.815-.82c.77-.773.819-.828.859-.965a.6.6 0 0 0 .002-.422.67.67 0 0 0-.419-.419.6.6 0 0 0-.422.002c-.136.041-.192.09-.965.859l-.82.816-.82-.816c-.773-.769-.828-.818-.965-.859a.64.64 0 0 0-.433-.001"/></svg>