<svg xmlns="http://www.w3.org/2000/svg" viewBox="0 0 16 16" fill="currentColor"><path fill-rule="evenodd" d="M4.327 7.673.672 13.987l3.664.006c2.015.004 5.312.004 7.327 0l3.663-.006-3.655-6.314C9.661 4.201 8.009 1.36 7.999 1.36c-.009 0-1.661 2.841-3.672 6.313m6.187.658a728 728 0 0 1 2.499 4.32c0 .009-2.256.016-5.013.016s-5.013-.008-5.013-.017c0-.027 4.997-8.623 5.013-8.623.008 0 1.139 1.937 2.514 4.304m-3.181.002V10h1.334V6.667H7.333zm.48 2.357a.672.672 0 0 0-.12 1.238c.082.044.154.057.307.057.222 0 .357-.052.484-.189.129-.14.168-.247.168-.463 0-.283-.11-.472-.345-.592-.115-.059-.384-.087-.494-.051"/></svg>