<svg xmlns="http://www.w3.org/2000/svg" viewBox="0 0 16 16" fill="currentColor"><path fill-rule="evenodd" d="M6.235.027a2 2 0 0 0-1.463 1.08c-.058.117-.124.29-.148.385s-.093.72-.155 1.391l-.111 1.218-.226.238a5.3 5.3 0 0 0-1.404 2.874 7 7 0 0 0-.011 1.507 5.36 5.36 0 0 0 1.411 2.937l.221.233.105 1.155c.058.635.118 1.231.133 1.324q.1.591.56 1.044c.309.304.627.472 1.039.55.175.033.493.038 1.912.031 1.68-.009 1.705-.01 1.902-.07.669-.203 1.212-.762 1.376-1.416.024-.095.093-.72.155-1.391l.111-1.218.226-.238a5.35 5.35 0 0 0 1.415-2.941 7 7 0 0 0-.011-1.507 5.3 5.3 0 0 0-1.395-2.865l-.218-.229-.11-1.213c-.118-1.287-.154-1.506-.297-1.788-.253-.501-.672-.854-1.239-1.042L9.827.014 8.093.01C7.14.007 6.304.015 6.235.027m3.513 1.364c.191.105.34.318.371.53.025.178.119 1.21.11 1.219a3 3 0 0 1-.284-.102C9.319 2.79 8.729 2.682 8 2.682c-.725 0-1.319.108-1.934.352-.19.075-.268.096-.274.071-.015-.061.102-1.22.133-1.324a.7.7 0 0 1 .354-.385l.134-.063 1.627.007c1.464.006 1.635.011 1.708.051M8.482 4.029c.277.036.672.133.919.225.274.103.705.335.948.51.274.196.691.613.887.887C11.723 6.326 12 7.179 12 8a4.015 4.015 0 0 1-3.039 3.879 3.86 3.86 0 0 1-1.922 0A3.95 3.95 0 0 1 5.154 10.8a3.97 3.97 0 0 1-1.033-3.761 4.02 4.02 0 0 1 2.878-2.91 4.2 4.2 0 0 1 1.483-.1m-.7 1.346a.6.6 0 0 0-.247.161c-.202.202-.205.227-.196 1.521.007 1.039.011 1.124.059 1.223.03.063.283.341.613.675.656.662.728.711 1.025.694.352-.02.591-.254.613-.6.018-.293-.022-.359-.533-.877l-.449-.455v-.894c0-1.041-.009-1.094-.202-1.288a.65.65 0 0 0-.683-.16m-1.727 7.587c.325.129.872.272 1.225.321a7 7 0 0 0 1.511-.011 6.2 6.2 0 0 0 1.182-.32c.165-.068.229-.083.235-.058.015.062-.102 1.221-.133 1.325a.7.7 0 0 1-.354.384l-.134.063H6.413l-.133-.062c-.158-.074-.314-.237-.36-.377-.026-.08-.162-1.374-.144-1.374.003 0 .128.049.279.109"/></svg>