<svg xmlns="http://www.w3.org/2000/svg" viewBox="0 0 16 16" fill="currentColor"><path fill-rule="evenodd" d="M5.972.036a.92.92 0 0 0-.568.494l-.057.123L5.34 4.09c-.005 2.056.002 3.472.017 3.526l.025.09-2.364.007C.658 7.72.653 7.72.529 7.778a1 1 0 0 0-.442.432l-.074.15v6.987l.074.15c.086.176.265.35.442.432l.124.058 3.414.007c2.335.005 3.456-.002 3.55-.021a1 1 0 0 0 .26-.107L8 15.788l.123.078a1 1 0 0 0 .26.107c.094.019 1.215.026 3.55.021l3.414-.007.124-.058a1 1 0 0 0 .442-.432l.074-.15V8.36l-.074-.15a1 1 0 0 0-.442-.432c-.118-.055-.168-.058-.991-.066l-.867-.008.007-3.49.008-3.489L13.57.57a.98.98 0 0 0-.458-.494l-.139-.063-3.44-.005C6.871.004 6.066.011 5.972.036M7.76 2.56c0 .997.009 1.813.02 1.812s.398-.191.86-.424l.84-.421.846.423c.466.233.853.423.861.423.007 0 .013-.816.013-1.813V.747h.812c.809 0 .812 0 .853.059.037.053.042.415.042 3.348v3.288l-.066.066-.065.065H9.487c-2.933 0-3.295-.004-3.348-.041L6.08 7.49V4.15c0-2.562.007-3.347.032-3.371.023-.024.247-.032.84-.032h.808zm2.693-.6c0 .667-.006 1.213-.013 1.213-.008 0-.218-.102-.467-.226a5 5 0 0 0-.493-.227 5 5 0 0 0-.493.227 12 12 0 0 1-.467.226c-.007 0-.013-.546-.013-1.213V.747h1.946zM7.04 6.107v.374l1.22-.007 1.22-.007.007-.367.008-.367H7.04zm-4.587 4.15.014 1.817.84-.421.84-.42.846.424.847.423.006-1.82.007-1.82.794-.007.795-.007.065.066.066.066v6.591l-.065.066-.066.065H.851l-.066-.065-.065-.066V8.558l.066-.066.066-.066.794.007.794.007zm2.667-.604c0 .675-.006 1.227-.014 1.227-.007 0-.226-.107-.486-.237l-.473-.237-.467.236c-.257.129-.476.236-.487.237-.011 0-.02-.551-.02-1.226V8.427H5.12zm5.04.604.013 1.817.84-.421.84-.42.847.424.846.423.007-1.82.007-1.82.794-.007.794-.007.066.066.066.066v6.591l-.065.066-.066.065H8.558l-.066-.065-.065-.066V8.558l.066-.066.065-.066.795.007.794.007zm2.667-.604c0 .675-.006 1.227-.014 1.227-.007 0-.226-.107-.487-.237l-.473-.237-.466.236c-.257.129-.476.236-.487.237-.011 0-.02-.551-.02-1.226V8.427h1.947zM1.707 13.8v.36h2.426v-.72H1.707zm7.706 0v.36h2.427v-.72H9.413z"/></svg>