<svg xmlns="http://www.w3.org/2000/svg" viewBox="0 0 16 16" fill="currentColor"><path fill-rule="evenodd" d="M.448.042A.69.69 0 0 0 .041.46a.6.6 0 0 0 .001.422c.041.139.097.198 1.459 1.564.779.781 1.411 1.424 1.404 1.429a9 9 0 0 1-.277.15C1.82 4.452.584 5.35.38 5.658a.5.5 0 0 0-.082.29c-.013.22.021.33.146.476.14.163.277.226.503.227.231.002.284-.025.653-.33.509-.42.891-.688 1.4-.981.289-.166.872-.46.913-.46.011 0 .367.347.79.77l.77.77-.143.048c-.708.233-1.629.75-2.289 1.283-.283.229-.361.365-.36.622.001.199.06.336.203.471a.57.57 0 0 0 .449.177c.208 0 .28-.032.574-.261.385-.299.74-.521 1.173-.734a6 6 0 0 1 1.187-.455l.28-.077.932.932.931.931-.238-.015C7.68 9.31 6.91 9.43 6.4 9.618c-.545.201-1.151.569-1.269.771-.238.405-.03.9.418.996.206.044.319.011.65-.187.599-.357 1.025-.493 1.644-.524a3.3 3.3 0 0 1 1.877.472c.373.231.404.244.573.25l.161.006 2.26 2.257c2.196 2.193 2.263 2.258 2.404 2.299a.6.6 0 0 0 .422.001.67.67 0 0 0 .419-.419c.052-.172.051-.241-.001-.422-.041-.142-.167-.269-7.487-7.589S1.024.083.882.042a.63.63 0 0 0-.434 0m6.789 2.652c-.223.015-.294.032-.407.093a.655.655 0 0 0 .035 1.176c.134.062.141.063.815.046 1.072-.026 1.788.051 2.773.298A9.9 9.9 0 0 1 14.4 6.321c.369.305.422.332.653.33.221-.001.359-.062.493-.214a.58.58 0 0 0 .161-.441c0-.241-.068-.36-.344-.601a11 11 0 0 0-2.143-1.447 11.4 11.4 0 0 0-5.983-1.254m3.673 4.063a.76.76 0 0 0-.356.318.56.56 0 0 0-.059.298c0 .311.128.484.497.67.298.15.646.373 1.001.642.418.316.459.336.673.336.264 0 .474-.133.603-.381.074-.14.068-.405-.013-.569-.121-.247-.927-.834-1.668-1.215-.236-.121-.283-.136-.427-.134a1 1 0 0 0-.251.035m-3.128 5.952c-.241.074-.449.364-.449.624 0 .268.208.552.46.626.17.051.243.051.409.002.607-.181.617-1.048.015-1.254a.65.65 0 0 0-.435.002"/></svg>