<svg xmlns="http://www.w3.org/2000/svg" viewBox="0 0 16 16" fill="currentColor"><path fill-rule="evenodd" d="M7.48 2.682c-.63.039-1.323.126-1.787.227-1.735.376-3.295 1.097-4.64 2.144-.654.51-.76.64-.76.943 0 .194.04.303.161.441.134.152.272.213.493.214.225.001.291-.03.586-.276 1.578-1.319 3.352-2.077 5.44-2.326.175-.021.59-.035 1.027-.035s.852.014 1.027.035c2.088.249 3.862 1.007 5.44 2.326.295.246.361.277.586.276.221-.001.359-.062.493-.214a.58.58 0 0 0 .161-.441c0-.303-.106-.433-.76-.943a11.33 11.33 0 0 0-5.798-2.32 17 17 0 0 0-1.669-.051m.053 3.334c-1.639.13-3.053.655-4.324 1.607-.183.137-.367.296-.408.353a.656.656 0 0 0 .083.868.57.57 0 0 0 .449.177c.208 0 .279-.032.574-.262a7 7 0 0 1 1.6-.929 6.68 6.68 0 0 1 6.64.929c.295.23.365.262.573.262a.57.57 0 0 0 .449-.177.66.66 0 0 0 .084-.868 3 3 0 0 0-.409-.353A7.97 7.97 0 0 0 9 6.066a12 12 0 0 0-1.467-.05m-.026 3.347a4.7 4.7 0 0 0-2.106.77c-.22.148-.326.294-.364.497a.666.666 0 0 0 .512.755c.206.044.319.011.65-.187.599-.357 1.025-.493 1.644-.524a3.3 3.3 0 0 1 1.877.472c.385.238.407.247.582.249a.655.655 0 0 0 .676-.593c.033-.276-.091-.479-.426-.699a4.6 4.6 0 0 0-1.714-.689 6 6 0 0 0-1.331-.051m.275 3.346c-.241.074-.449.364-.449.624 0 .268.208.552.46.626.17.051.243.051.409.002.607-.181.617-1.048.015-1.254a.65.65 0 0 0-.435.002"/></svg>