<svg xmlns="http://www.w3.org/2000/svg" viewBox="0 0 16 16" fill="currentColor"><path fill-rule="evenodd" d="M7.067 2.025c-.547.08-1.105.414-1.27.762-.204.43.11.927.586.926.195 0 .321-.048.491-.188.224-.185.437-.232.676-.151.48.164.607.809.222 1.127-.212.175-.028.166-3.425.166-2.683 0-3.102.005-3.221.04a.69.69 0 0 0-.459.626c0 .268.208.552.459.626.119.036.538.041 3.246.04 3.365-.001 3.325.001 3.695-.146 1.524-.604 1.712-2.68.322-3.546a2.07 2.07 0 0 0-1.322-.282m5.52 2.014c-.459.088-.924.329-1.219.632a.64.64 0 0 0-.201.493c-.001.577.671.855 1.118.462.243-.214.498-.307.782-.286.355.025.693.262.844.591.064.139.074.196.074.402s-.01.263-.074.403c-.095.206-.3.411-.511.509l-.16.075-6.04.013c-6.771.015-6.13-.006-6.344.214A.72.72 0 0 0 .667 8c0 .268.208.551.459.626.121.036.834.041 6.05.041 4.029 0 5.98-.009 6.122-.029a2.3 2.3 0 0 0 1.781-1.269c.25-.492.312-1.142.159-1.664-.241-.819-.842-1.403-1.678-1.63a2.7 2.7 0 0 0-.973-.036M1.115 10.042c-.24.074-.448.364-.448.625 0 .268.208.551.459.626.12.035.642.04 4.221.04 3.593 0 4.098.005 4.203.041.595.203.595 1.049 0 1.252-.239.081-.452.034-.676-.151-.17-.14-.296-.188-.491-.188a.648.648 0 0 0-.586.926c.138.291.583.595 1.058.722.118.032.275.047.505.048.308.001.353-.006.587-.086.985-.338 1.548-1.297 1.344-2.291a1.98 1.98 0 0 0-1.61-1.568c-.309-.055-8.386-.051-8.566.004"/></svg>