<svg xmlns="http://www.w3.org/2000/svg" viewBox="0 0 16 16" fill="currentColor"><path fill-rule="evenodd" d="M5 .721c-.117.045-.38.298-2.191 2.112C.81 4.834.75 4.898.709 5.038.672 5.166.667 5.513.667 8c0 2.485.005 2.834.042 2.962.041.141.1.203 2.113 2.216s2.075 2.072 2.216 2.113c.128.037.477.042 2.962.042s2.834-.005 2.962-.042c.141-.041.203-.1 2.216-2.113s2.072-2.075 2.113-2.216c.037-.128.042-.479.042-2.98 0-2.769-.001-2.838-.053-2.975-.048-.127-.248-.335-2.1-2.187C11.316.956 11.121.768 10.992.72c-.137-.052-.211-.053-3-.052C5.234.669 5.129.671 5 .721m7.247 3.032L14 5.507v4.986l-1.753 1.754L10.493 14H5.507l-1.754-1.753L2 10.493V5.507l1.753-1.754L5.507 2h4.986zM5.782 5.375a.69.69 0 0 0-.408.418.6.6 0 0 0 .002.422c.041.137.09.192.859.965l.816.82-.816.82c-.769.773-.818.828-.859.965a.6.6 0 0 0-.002.422.67.67 0 0 0 .419.419.6.6 0 0 0 .422-.002c.137-.041.192-.09.965-.859L8 8.949l.82.816c.773.769.828.818.965.859a.6.6 0 0 0 .422.002.67.67 0 0 0 .419-.419.6.6 0 0 0-.002-.422c-.041-.137-.09-.192-.859-.965L8.949 8l.816-.82c.769-.773.818-.828.859-.965a.6.6 0 0 0 .002-.422.67.67 0 0 0-.419-.419.6.6 0 0 0-.422.002c-.137.041-.192.09-.965.859L8 7.051l-.82-.816c-.773-.769-.828-.818-.965-.859a.64.64 0 0 0-.433-.001"/></svg>