<svg xmlns="http://www.w3.org/2000/svg" viewBox="0 0 16 16" fill="currentColor"><path fill-rule="evenodd" d="M3.004 1.361c-.43.073-.733.234-1.071.572-.346.346-.499.638-.573 1.089-.036.226-.036 9.73 0 9.956.074.451.227.743.573 1.089s.638.499 1.089.573c.226.036 9.73.036 9.956 0 .451-.074.743-.227 1.089-.573s.499-.638.573-1.089c.036-.226.036-9.73 0-9.956-.074-.451-.227-.743-.573-1.089s-.638-.499-1.089-.573c-.2-.032-9.78-.031-9.974.001m9.883 1.344a.7.7 0 0 1 .359.303l.074.125v9.734l-.074.125a.7.7 0 0 1-.359.303c-.149.053-9.625.053-9.774 0a.7.7 0 0 1-.359-.303l-.074-.125V3.133l.074-.125a.7.7 0 0 1 .359-.303c.149-.053 9.625-.053 9.774 0m-7.105 2.67a.69.69 0 0 0-.408.418.6.6 0 0 0 .002.422c.041.137.09.192.859.965l.816.82-.816.82c-.769.773-.818.828-.859.965a.6.6 0 0 0-.002.422.67.67 0 0 0 .419.419.6.6 0 0 0 .422-.002c.137-.041.192-.09.965-.859L8 8.949l.82.816c.773.769.828.818.965.859a.6.6 0 0 0 .422.002.67.67 0 0 0 .419-.419.6.6 0 0 0-.002-.422c-.041-.137-.09-.192-.859-.965L8.949 8l.816-.82c.769-.773.818-.828.859-.965a.6.6 0 0 0 .002-.422.67.67 0 0 0-.419-.419.6.6 0 0 0-.422.002c-.137.041-.192.09-.965.859L8 7.051l-.82-.816c-.773-.769-.828-.818-.965-.859a.64.64 0 0 0-.433-.001"/></svg>