<svg xmlns="http://www.w3.org/2000/svg" viewBox="0 0 16 16" fill="currentColor"><path fill-rule="evenodd" d="M3.782 3.375a.69.69 0 0 0-.408.418.6.6 0 0 0 .002.422c.041.14.1.203 1.859 1.965L7.052 8 5.235 9.82c-1.759 1.762-1.818 1.825-1.859 1.965a.6.6 0 0 0-.002.422.67.67 0 0 0 .419.419.6.6 0 0 0 .422-.002c.14-.041.203-.1 1.965-1.859L8 8.948l1.82 1.817c1.762 1.759 1.825 1.818 1.965 1.859a.6.6 0 0 0 .422.002.67.67 0 0 0 .419-.419.6.6 0 0 0-.002-.422c-.041-.14-.1-.203-1.859-1.965L8.948 8l1.817-1.82c1.759-1.762 1.818-1.825 1.859-1.965a.6.6 0 0 0 .002-.422.67.67 0 0 0-.419-.419.6.6 0 0 0-.422.002c-.14.041-.203.1-1.965 1.859L8 7.052 6.18 5.235C4.418 3.476 4.355 3.417 4.215 3.376a.64.64 0 0 0-.433-.001"/></svg>