<svg xmlns="http://www.w3.org/2000/svg" viewBox="0 0 16 16" fill="currentColor"><path fill-rule="evenodd" d="M6.453 2.016c-2.08.055-3.252.126-3.986.241C1.446 2.417.687 3.051.378 4 .277 4.312.122 5.444.05 6.4c-.044.573-.043 2.341 0 2.907.076.991.23 2.107.329 2.386A2.52 2.52 0 0 0 2 13.275c.439.14 1.261.226 2.893.304.966.046 5.262.046 6.214 0 1.664-.08 2.459-.164 2.893-.304a2.54 2.54 0 0 0 1.621-1.622c.102-.317.254-1.425.329-2.4.044-.569.044-2.334 0-2.906a26 26 0 0 0-.227-1.907c-.08-.468-.192-.777-.393-1.083a2.5 2.5 0 0 0-1.686-1.103c-.497-.085-1.398-.152-2.684-.201a161 161 0 0 0-4.507-.037m4.68 1.369c1.727.076 2.362.146 2.651.294.189.096.395.311.495.517.076.155.106.268.159.604a19.8 19.8 0 0 1-.001 6.013c-.079.51-.15.681-.373.904-.269.269-.521.35-1.325.429-1.051.102-2.658.154-4.739.154-2.086 0-3.685-.052-4.747-.155-.811-.079-1.105-.179-1.365-.463-.195-.212-.249-.352-.326-.829a19.9 19.9 0 0 1-.001-6.013c.054-.353.082-.459.159-.618.164-.333.458-.551.858-.636.492-.104 1.68-.182 3.582-.236.615-.018 4.377.009 4.973.035M6.282 5.027a.7.7 0 0 0-.355.301l-.074.125-.007 2.329c-.005 1.611.002 2.361.022 2.435.036.134.216.335.359.4a.73.73 0 0 0 .56-.014c.228-.107 3.943-2.23 4.01-2.291.176-.162.244-.531.137-.752a.54.54 0 0 0-.214-.258c-.088-.065-3.67-2.108-3.913-2.232-.148-.075-.388-.095-.525-.043m1.913 2.354.794.452-.897.51c-.493.281-.902.51-.908.51s-.011-.462-.011-1.027V6.798l.114.066c.062.037.471.269.908.517"/></svg>