<svg xmlns="http://www.w3.org/2000/svg" viewBox="0 0 16 16" fill="currentColor"><path fill-rule="evenodd" d="M.448.042A.69.69 0 0 0 .041.46a.6.6 0 0 0 .001.422c.041.14.105.207 2.215 2.32L4.43 5.377 2.931 7.175c-.824.989-1.515 1.838-1.535 1.886a.66.66 0 0 0 .141.741c.214.208.053.198 3.054.198h2.661l-.013.073c-.007.041-.14 1.088-.295 2.327-.31 2.471-.306 2.411-.157 2.636.132.2.39.319.622.287.278-.038.268-.028 1.836-1.912l1.462-1.755 2.133 2.13c2.071 2.067 2.138 2.131 2.278 2.172a.6.6 0 0 0 .422.001.67.67 0 0 0 .419-.419c.052-.172.051-.241-.001-.422-.041-.142-.167-.269-7.487-7.589S1.024.083.882.042a.63.63 0 0 0-.434 0M8.49.696c-.192.055-.34.208-1.159 1.197-.456.55-.854 1.048-.885 1.107a.72.72 0 0 0 .001.56.66.66 0 0 0 .794.347c.133-.038.183-.072.327-.223.134-.14.167-.163.155-.111-.03.138-.102.791-.103.933a.652.652 0 0 0 .968.571.65.65 0 0 0 .317-.381c.053-.205.433-3.372.415-3.466a.666.666 0 0 0-.83-.534m1.776 5.329a.73.73 0 0 0-.443.392.9.9 0 0 0 0 .499.8.8 0 0 0 .321.346c.106.056.14.058 1.266.071l1.157.014-.362.432c-.429.511-.481.6-.481.822a.646.646 0 0 0 .663.661c.305.002.327-.018 1.301-1.184.475-.569.884-1.077.908-1.128a.66.66 0 0 0-.133-.752c-.21-.204-.143-.198-2.261-.196-1.028.002-1.899.012-1.936.023M6.64 8.66c-.587.004-1.548.004-2.137 0l-1.07-.007.97-1.165.97-1.166L6.54 7.488l1.167 1.165zm3.1 2.072c-.022.036-1.449 1.748-1.457 1.748-.004 0 .075-.645.174-1.433L8.639 9.6c0-.007.252.238.56.545.307.307.55.571.541.587"/></svg>