<svg xmlns="http://www.w3.org/2000/svg" viewBox="0 0 16 16" fill="currentColor"><path fill-rule="evenodd" d="M8.49.696a1 1 0 0 0-.207.111c-.143.1-6.827 8.11-6.887 8.254a.66.66 0 0 0 .141.741c.214.208.053.198 3.054.198h2.661l-.013.073c-.007.041-.14 1.088-.295 2.327-.31 2.471-.306 2.411-.157 2.636a.67.67 0 0 0 .636.286c.278-.042.155.097 3.761-4.234 1.853-2.224 3.388-4.086 3.412-4.137a.66.66 0 0 0-.133-.753C14.249 5.99 14.41 6 11.409 6H8.748l.013-.073c.007-.041.14-1.088.294-2.327.179-1.429.276-2.292.265-2.36a.663.663 0 0 0-.83-.544m-.966 4.417c-.197 1.583-.198 1.595-.155 1.744.03.103.078.184.153.262.208.215.019.199 2.675.214l2.37.014-2.099 2.52a552 552 0 0 1-2.145 2.567c-.04.041-.019-.171.153-1.546.197-1.584.198-1.596.155-1.745a.6.6 0 0 0-.153-.262c-.208-.215-.019-.199-2.675-.214l-2.37-.014 2.139-2.566A687 687 0 0 1 7.717 3.52c.003 0-.083.717-.193 1.593"/></svg>