<svg width="16" height="16" viewBox="0 0 16 16" fill="none" xmlns="http://www.w3.org/2000/svg">
<g clip-path="url(#clip0_1994_6901)">
<path d="M6.67676 1.75879C6.76602 1.42887 7.23397 1.42885 7.32324 1.75879L8.3291 5.49609C8.48343 6.06883 8.93117 6.51657 9.50391 6.6709L13.2412 7.67676C13.5711 7.76602 13.5711 8.23397 13.2412 8.32324L9.50391 9.3291C8.93117 9.48343 8.48343 9.93117 8.3291 10.5039L7.32324 14.2412C7.23398 14.5711 6.76603 14.5711 6.67676 14.2412L5.6709 10.5039C5.51657 9.93117 5.06883 9.48343 4.49609 9.3291L0.758789 8.32324C0.428866 8.23398 0.428855 7.76603 0.758789 7.67676L4.49609 6.6709C5.06883 6.51657 5.51657 6.06883 5.6709 5.49609L6.67676 1.75879Z" stroke="#212121" stroke-width="1.33"/>
<path d="M13.0342 1.64453L13.1357 1.86426L13.3555 1.96582L13.4277 2L13.3555 2.03418L13.1357 2.13574L13.0342 2.35547L13 2.42773L12.9658 2.35547L12.8643 2.13574L12.6445 2.03418L12.5713 2L12.6445 1.96582L12.8643 1.86426L12.9658 1.64453L13 1.57129L13.0342 1.64453Z" stroke="#212121" stroke-width="1.33"/>
<path d="M12.1675 15.3367L14.5025 13.0017L12.1675 10.6667" stroke="#212121" stroke-width="1.33333" stroke-linecap="round" stroke-linejoin="round"/>
<path d="M13.8 13.0017H10" stroke="#212121" stroke-width="1.33333" stroke-linecap="round" stroke-linejoin="round"/>
</g>
<defs>
<clipPath id="clip0_1994_6901">
<rect width="16" height="16" fill="white"/>
</clipPath>
</defs>
</svg>
