<svg width="16" height="16" viewBox="0 0 16 16" fill="none" xmlns="http://www.w3.org/2000/svg">
<path d="M1.3335 10.7334C1.97409 10.8641 2.56212 11.1802 3.02442 11.6425C3.48671 12.1048 3.80285 12.6928 3.9335 13.3334M1.3335 8.03342C2.68736 8.18399 3.94968 8.79078 4.91291 9.75401C5.87613 10.7172 6.48292 11.9796 6.6335 13.3334M1.3335 5.33341V4.00008C1.3335 3.64646 1.47397 3.30732 1.72402 3.05727C1.97407 2.80722 2.31321 2.66675 2.66683 2.66675H13.3335C13.6871 2.66675 14.0263 2.80722 14.2763 3.05727C14.5264 3.30732 14.6668 3.64646 14.6668 4.00008V12.0001C14.6668 12.3537 14.5264 12.6928 14.2763 12.9429C14.0263 13.1929 13.6871 13.3334 13.3335 13.3334H9.3335" stroke="#212121" stroke-width="1.33333" stroke-linecap="round" stroke-linejoin="round"/>
<path d="M1.3335 13.3333H1.34016" stroke="#212121" stroke-width="1.33333" stroke-linecap="round" stroke-linejoin="round"/>
</svg>
