<svg width="16" height="16" viewBox="0 0 16 16" fill="none" xmlns="http://www.w3.org/2000/svg">
<path d="M0.5 6.79306C0.5 6.25745 0.684155 5.80849 1.05246 5.44617C1.42077 5.08384 1.87076 4.90268 2.40243 4.90268H12.6169C13.156 4.90268 13.6078 5.08384 13.9724 5.44617C14.337 5.80849 14.5194 6.25745 14.5194 6.79306V7.00384C14.5194 7.16452 14.4644 7.29924 14.3546 7.408C14.2449 7.51663 14.1089 7.57095 13.9465 7.57095C13.7938 7.57095 13.6609 7.51663 13.5476 7.408C13.4345 7.29924 13.3779 7.16452 13.3779 7.00384V6.79306C13.3779 6.57882 13.305 6.39923 13.1591 6.2543C13.0133 6.10937 12.8325 6.03691 12.6169 6.03691H2.40243C2.18682 6.03691 2.00609 6.10937 1.86023 6.2543C1.71438 6.39923 1.64146 6.57882 1.64146 6.79306V9.73033C1.64146 9.79826 1.6634 9.85402 1.70728 9.89763C1.75116 9.94123 1.80728 9.96304 1.87564 9.96304H3.32434C3.32434 9.59567 3.45618 9.28086 3.71986 9.0186C3.98353 8.75634 4.30048 8.62522 4.67069 8.62522H8.43901C8.60072 8.62522 8.73624 8.67959 8.84556 8.78835C8.95502 8.89711 9.00974 9.03184 9.00974 9.19252C9.00974 9.35333 8.95502 9.48798 8.84556 9.59649C8.73624 9.70513 8.60072 9.75944 8.43901 9.75944H4.69999C4.63163 9.75944 4.5755 9.78125 4.53162 9.82485C4.48774 9.86845 4.4658 9.92422 4.4658 9.99215V12.7549C4.4658 12.8229 4.48774 12.8786 4.53162 12.9222C4.5755 12.9658 4.63163 12.9876 4.69999 12.9876H8.43901C8.60072 12.9876 8.73624 13.042 8.84556 13.1508C8.95502 13.2595 9.00974 13.3943 9.00974 13.5549C9.00974 13.7158 8.95502 13.8504 8.84556 13.9589C8.73624 14.0676 8.60072 14.1219 8.43901 14.1219H4.69999C4.32166 14.1219 3.9978 13.988 3.72842 13.7204C3.45903 13.4527 3.32434 13.1309 3.32434 12.7549V11.0973H1.87564C1.49732 11.0973 1.17346 10.9634 0.904075 10.6957C0.634692 10.4281 0.5 10.1063 0.5 9.73033V6.79306ZM3.32434 4.90268V2.86693C3.32434 2.491 3.45903 2.16919 3.72842 1.90152C3.9978 1.63384 4.32166 1.5 4.69999 1.5H10.3194C10.6977 1.5 11.0216 1.63384 11.2909 1.90152C11.5603 2.16919 11.695 2.491 11.695 2.86693V4.90268H10.5536V2.86693C10.5536 2.79901 10.5316 2.74324 10.4877 2.69963C10.4439 2.65603 10.3877 2.63423 10.3194 2.63423H4.69999C4.63163 2.63423 4.5755 2.65603 4.53162 2.69963C4.48774 2.74324 4.4658 2.79901 4.4658 2.86693V4.90268H3.32434Z" fill="#212121"/>
<path fill-rule="evenodd" clip-rule="evenodd" d="M12.6464 14.5C14.2224 14.5 15.5 13.2305 15.5 11.6644C15.5 10.0984 14.2224 8.82886 12.6464 8.82886C11.0703 8.82886 9.79272 10.0984 9.79272 11.6644C9.79272 13.2305 11.0703 14.5 12.6464 14.5ZM11.6549 12.9257C11.9441 13.1651 12.2818 13.2848 12.668 13.2848C13.114 13.2848 13.4937 13.1267 13.8071 12.8106C14.1204 12.4944 14.277 12.1123 14.277 11.6644C14.277 11.2153 14.1204 10.8329 13.8071 10.5174C13.4937 10.2019 13.114 10.0441 12.668 10.0441C12.4545 10.0441 12.2537 10.0834 12.0658 10.162C11.8778 10.2406 11.7138 10.346 11.5736 10.4781V10.0668H11.0157V11.4482H12.3875V10.8864H11.9618C12.0513 10.7976 12.1562 10.7286 12.2765 10.6795C12.3968 10.6304 12.5273 10.6059 12.668 10.6059C12.9593 10.6059 13.2073 10.709 13.4121 10.9151C13.6168 11.1213 13.7191 11.3711 13.7191 11.6644C13.7191 11.9565 13.6165 12.206 13.4111 12.4128C13.2057 12.6196 12.958 12.723 12.668 12.723C12.4366 12.723 12.2337 12.658 12.0594 12.5279C11.8851 12.3979 11.7652 12.232 11.6996 12.0301H11.1035C11.1818 12.3878 11.3657 12.6863 11.6549 12.9257Z" fill="#212121"/>
</svg>
