<svg width="16" height="16" viewBox="0 0 16 16" fill="none" xmlns="http://www.w3.org/2000/svg">
<path d="M6.73801 7.47026C6.00163 7.47026 5.37128 7.20248 4.84696 6.66692C4.3225 6.13122 4.06027 5.48729 4.06027 4.73513C4.06027 3.98297 4.3225 3.33911 4.84696 2.80354C5.37128 2.26785 6.00163 2 6.73801 2C7.47439 2 8.10474 2.26785 8.62907 2.80354C9.15353 3.33911 9.41575 3.98297 9.41575 4.73513C9.41575 5.48729 9.15353 6.13122 8.62907 6.66692C8.10474 7.20248 7.47439 7.47026 6.73801 7.47026ZM1 12.2343V11.6841C1 11.2895 1.09984 10.9321 1.29952 10.612C1.49908 10.2918 1.77297 10.0416 2.12121 9.86136C2.81168 9.5037 3.52728 9.22615 4.26799 9.0287C5.0087 8.83138 5.76733 8.73272 6.54388 8.73272H6.65424C6.81681 8.73272 6.95306 8.79114 7.06298 8.90797C7.17289 9.02493 7.22785 9.16624 7.22785 9.33191C7.22785 9.49745 7.17289 9.63636 7.06298 9.74863C6.95306 9.86077 6.81681 9.91684 6.65424 9.91684H6.54388C5.85366 9.91684 5.18505 10.0018 4.53806 10.1716C3.89094 10.3414 3.26084 10.5892 2.64777 10.9148C2.50075 10.9949 2.38063 11.1011 2.28742 11.2334C2.19421 11.3656 2.1476 11.5159 2.1476 11.6841V12.2493H6.65424C6.81681 12.2493 6.95306 12.3055 7.06298 12.4179C7.17289 12.5302 7.22785 12.6694 7.22785 12.8356C7.22785 13.0018 7.17289 13.141 7.06298 13.2531C6.95306 13.3654 6.81681 13.4215 6.65424 13.4215H2.16233C1.8396 13.4215 1.56519 13.3061 1.33912 13.0751C1.11304 12.8441 1 12.5638 1 12.2343ZM11.3313 13.5477L11.2387 12.963C11.0563 12.9079 10.8846 12.8358 10.7236 12.7467C10.5628 12.6575 10.4098 12.5458 10.2646 12.4115L9.69538 12.625C9.57374 12.6671 9.45617 12.6645 9.34269 12.6172C9.22933 12.5699 9.1409 12.4944 9.0774 12.3906L8.97584 12.2071C8.91106 12.0959 8.88785 11.9747 8.90622 11.8435C8.92458 11.7124 8.98406 11.6047 9.08467 11.5204L9.54237 11.1492C9.48741 10.9468 9.45994 10.7474 9.45994 10.551C9.45994 10.3547 9.48741 10.1554 9.54237 9.95298L9.09213 9.56674C8.99114 9.48456 8.93032 9.38062 8.90966 9.25494C8.889 9.12912 8.91106 9.01066 8.97584 8.89957L9.08907 8.7042C9.15397 8.60026 9.24208 8.52466 9.3534 8.47738C9.46459 8.43023 9.58101 8.42769 9.70265 8.46976L10.2646 8.6831C10.4049 8.54882 10.5567 8.43837 10.72 8.35176C10.8833 8.26502 11.0563 8.1941 11.2387 8.139L11.3313 7.54235C11.3549 7.41016 11.4153 7.30375 11.5124 7.22313C11.6095 7.1425 11.7227 7.10219 11.8521 7.10219H12.0552C12.1847 7.10219 12.298 7.14452 12.3951 7.22918C12.4922 7.31384 12.5525 7.42227 12.5761 7.55447L12.6614 8.139C12.8438 8.1941 13.0167 8.26703 13.1801 8.35781C13.3433 8.44846 13.495 8.5649 13.6353 8.70713L14.1739 8.49379C14.3033 8.44365 14.4264 8.44234 14.5432 8.48988C14.6599 8.53755 14.7504 8.61576 14.8146 8.72452L14.9248 8.915C14.9891 9.02388 15.011 9.14319 14.9904 9.27291C14.9698 9.40264 14.9089 9.50859 14.808 9.59077L14.3577 9.97701C14.4127 10.165 14.4401 10.3607 14.4401 10.5643C14.4401 10.7679 14.4127 10.9628 14.3577 11.1492L14.8154 11.5204C14.9164 11.6026 14.976 11.7078 14.9941 11.8359C15.0122 11.9642 14.9889 12.084 14.9242 12.1952L14.8108 12.3906C14.7471 12.4944 14.6606 12.5699 14.5513 12.6172C14.4419 12.6645 14.3263 12.6671 14.2047 12.625L13.6353 12.4115C13.4902 12.5458 13.3372 12.6575 13.1763 12.7467C13.0155 12.8358 12.8438 12.9079 12.6614 12.963L12.5761 13.5596C12.5525 13.692 12.4922 13.7984 12.3951 13.8791C12.298 13.9597 12.1847 14 12.0552 14H11.8521C11.7227 14 11.6095 13.9577 11.5124 13.873C11.4153 13.7884 11.3549 13.6799 11.3313 13.5477ZM11.947 12.0389C12.3477 12.0389 12.6906 11.8932 12.9754 11.6017C13.2604 11.3102 13.4029 10.9598 13.4029 10.5504C13.4029 10.1411 13.2602 9.79089 12.9749 9.49993C12.6895 9.20883 12.3464 9.06328 11.9456 9.06328C11.545 9.06328 11.2022 9.20903 10.9172 9.50051C10.6322 9.792 10.4897 10.1424 10.4897 10.5518C10.4897 10.961 10.6324 11.3112 10.9178 11.6023C11.2031 11.8934 11.5462 12.0389 11.947 12.0389ZM6.73801 6.29806C7.1588 6.29806 7.51902 6.14503 7.81867 5.83895C8.11832 5.53288 8.26815 5.16494 8.26815 4.73513C8.26815 4.30533 8.11832 3.93739 7.81867 3.63131C7.51902 3.32524 7.1588 3.1722 6.73801 3.1722C6.31722 3.1722 5.95701 3.32524 5.65735 3.63131C5.3577 3.93739 5.20788 4.30533 5.20788 4.73513C5.20788 5.16494 5.3577 5.53288 5.65735 5.83895C5.95701 6.14503 6.31722 6.29806 6.73801 6.29806Z" fill="#212121"/>
</svg>
