<svg width="16" height="16" viewBox="0 0 16 16" fill="none" xmlns="http://www.w3.org/2000/svg">
<g clip-path="url(#clip0_845_7008)">
<path d="M11.7896 16C10.7601 16 9.88428 15.6443 9.16227 14.9328C8.44026 14.2213 8.07926 13.3583 8.07926 12.3437C8.07926 11.3292 8.44026 10.4662 9.16227 9.7547C9.88428 9.04322 10.7601 8.68748 11.7896 8.68748C12.8193 8.68748 13.6951 9.04322 14.417 9.7547C15.139 10.4662 15.5 11.3292 15.5 12.3437C15.5 13.3583 15.139 14.2213 14.417 14.9328C13.6951 15.6443 12.8193 16 11.7896 16ZM13.1629 14.2032L13.6766 13.697L12.1545 12.1969V9.95315H11.425V12.4906L13.1629 14.2032ZM1.99054 15.1875C1.57937 15.1875 1.22813 15.044 0.936793 14.7571C0.645598 14.47 0.5 14.1239 0.5 13.7187V2.84376C0.5 2.43859 0.645598 2.09246 0.936793 1.80538C1.22813 1.51843 1.57937 1.37496 1.99054 1.37496H5.6232C5.7374 0.979133 5.97074 0.651017 6.32322 0.39061C6.67571 0.130203 7.07079 0 7.50848 0C7.96307 0 8.36448 0.130203 8.7127 0.39061C9.06106 0.651017 9.29234 0.979133 9.40654 1.37496H13.0264C13.4376 1.37496 13.7888 1.51843 14.0802 1.80538C14.3714 2.09246 14.517 2.43859 14.517 2.84376V7.82805C14.3224 7.70415 14.1247 7.59818 13.9239 7.51016C13.723 7.42214 13.5084 7.34374 13.2802 7.27494V2.84376C13.2802 2.7812 13.2537 2.72391 13.2008 2.67191C13.148 2.61978 13.0899 2.59371 13.0264 2.59371H11.2189V4.71861H3.79811V2.59371H1.99054C1.92705 2.59371 1.86892 2.61978 1.81615 2.67191C1.76324 2.72391 1.73679 2.7812 1.73679 2.84376V13.7187C1.73679 13.7917 1.76056 13.8516 1.80811 13.8985C1.85566 13.9453 1.91647 13.9687 1.99054 13.9687H6.70147C6.77128 14.1937 6.85216 14.4064 6.94409 14.607C7.03603 14.8075 7.15015 15.001 7.28648 15.1875H1.99054ZM7.50848 2.68755C7.72093 2.68755 7.89827 2.61748 8.04051 2.47732C8.1826 2.33716 8.25365 2.16241 8.25365 1.95305C8.25365 1.7437 8.1826 1.56894 8.04051 1.42879C7.89827 1.28876 7.72093 1.21875 7.50848 1.21875C7.29603 1.21875 7.11868 1.28876 6.97645 1.42879C6.83436 1.56894 6.76331 1.7437 6.76331 1.95305C6.76331 2.16241 6.83436 2.33716 6.97645 2.47732C7.11868 2.61748 7.29603 2.68755 7.50848 2.68755Z" fill="#212121"/>
</g>
<defs>
<clipPath id="clip0_845_7008">
<rect width="16" height="16" fill="white"/>
</clipPath>
</defs>
</svg>
