<svg width="16" height="16" viewBox="0 0 16 16" fill="none" xmlns="http://www.w3.org/2000/svg">
<path d="M8.98141 7.86156L9.64571 7.19368C9.75912 7.08027 9.84651 6.94999 9.90788 6.80286C9.96929 6.65568 10 6.50135 10 6.33986C10 6.00401 9.8829 5.71907 9.64871 5.48503C9.41455 5.25099 9.12943 5.13397 8.79335 5.13397C8.63249 5.13397 8.47845 5.16468 8.33124 5.22609C8.18402 5.28746 8.05371 5.37486 7.94029 5.48827L7.27241 6.15256L8.98141 7.86156ZM7.20665 9.13398C7.36751 9.13398 7.52155 9.10327 7.66876 9.04186C7.81598 8.98048 7.94629 8.89309 8.05971 8.77968L8.72759 8.11539L7.01859 6.40639L6.35429 7.07427C6.24088 7.18768 6.15349 7.31796 6.09212 7.46509C6.03071 7.61227 6 7.7666 6 7.92809C6 8.26394 6.1171 8.54888 6.35129 8.78292C6.58545 9.01696 6.87057 9.13398 7.20665 9.13398Z" fill="#212121"/>
<path d="M11.2002 3.86151C11.3475 3.86151 11.4639 3.9739 11.4639 4.1164C11.4637 4.25877 11.3474 4.3703 11.2002 4.3703H4.91406C4.767 4.37016 4.6515 4.25868 4.65137 4.1164C4.65137 3.974 4.76691 3.86166 4.91406 3.86151H11.2002Z" fill="#212121"/>
<path d="M11.2109 2.73749C11.3582 2.73749 11.4746 2.84894 11.4746 2.9914C11.4746 3.13389 11.3582 3.24628 11.2109 3.24628H4.9248C4.77754 3.24624 4.66211 3.13387 4.66211 2.9914C4.66215 2.84896 4.77757 2.73752 4.9248 2.73749H11.2109Z" fill="#212121"/>
<path fill-rule="evenodd" clip-rule="evenodd" d="M12.2686 1.13397C12.4841 1.13413 12.6631 1.30726 12.6631 1.51581V4.87421L14.5088 6.66034C14.5824 6.73157 14.625 6.82907 14.625 6.93085V6.95624L14.6191 6.96601V13.7394C14.6191 14.1262 14.456 14.4723 14.1982 14.7267C13.9352 14.976 13.5722 15.134 13.1777 15.134H2.94629C2.14689 15.1338 1.50004 14.5079 1.5 13.7346V6.95038C1.50007 6.90473 1.51064 6.85912 1.52637 6.81854C1.53163 6.80328 1.53673 6.79259 1.54199 6.78241C1.55771 6.74709 1.5787 6.72176 1.59961 6.69647C1.60487 6.69139 1.61621 6.67597 1.61621 6.67597L3.46191 4.88983V1.51581C3.46191 1.30725 3.64091 1.13413 3.85645 1.13397H12.2686ZM9.34863 12.2131C8.99108 12.5537 8.52844 12.7266 8.06055 12.7267C7.59249 12.7267 7.12391 12.5539 6.77148 12.2131L5.9248 11.3879L2.8623 14.3498C2.89387 14.3549 2.9157 14.3654 2.94727 14.3654H13.1729C13.2044 14.3654 13.2315 14.3498 13.2578 14.3498L10.1963 11.3879L9.34863 12.2131ZM2.28906 13.7297C2.28915 13.7601 2.30464 13.7854 2.30469 13.8107V13.8059L5.36621 10.8439L2.28906 7.8664V13.7297ZM10.7529 10.8439L13.8203 13.8107C13.8256 13.7804 13.8359 13.76 13.8359 13.7297V7.86151L10.7529 10.8439ZM4.25098 1.89765V8.68085L6.19727 10.5695C6.20252 10.5746 6.20278 10.5694 6.20801 10.5744C6.21262 10.5789 6.21387 10.5842 6.21387 10.5842L7.33398 11.6682C7.72324 12.0447 8.40174 12.0447 8.79102 11.6682L9.91699 10.5744L11.8789 8.67597V1.89765H4.25098ZM2.45215 6.9455L3.46191 7.91815V5.96894L2.45215 6.9455ZM12.668 7.90253L13.6777 6.93085L12.668 5.95331V7.90253Z" fill="#212121"/>
</svg>
