<svg width="16" height="16" viewBox="0 0 16 16" fill="none" xmlns="http://www.w3.org/2000/svg">
<path d="M3.27743 4.72289H12.1436V3.54246H3.27743V4.72289ZM1 14.5766V1.92285C1 1.53036 1.13941 1.19506 1.41822 0.916956C1.69717 0.638986 2.03349 0.5 2.42717 0.5H12.9939C13.3876 0.5 13.7239 0.638986 14.0028 0.916956C14.2816 1.19506 14.4211 1.53036 14.4211 1.92285V6.88894C14.2317 6.80616 14.0397 6.73683 13.8449 6.68095C13.6501 6.62494 13.4474 6.5823 13.2368 6.55305V1.92285C13.2368 1.86224 13.2115 1.80675 13.1609 1.75638C13.1103 1.70587 13.0547 1.68062 12.9939 1.68062H2.42717C2.36638 1.68062 2.31072 1.70587 2.2602 1.75638C2.20954 1.80675 2.18421 1.86224 2.18421 1.92285V12.7391H7.08665C7.13717 13.0499 7.21125 13.3486 7.30888 13.6352C7.40664 13.9217 7.53697 14.1936 7.69987 14.451L7.62704 14.5236L6.58711 13.6079L5.46349 14.5766L4.34007 13.6079L3.21664 14.5766L2.09322 13.6079L1 14.5766ZM3.27743 10.8379H7.13974C7.17408 10.628 7.22191 10.426 7.28322 10.2319C7.34441 10.0376 7.41901 9.84613 7.50704 9.6575H3.27743V10.8379ZM3.27743 7.7805H8.96618C9.34474 7.43642 9.77388 7.15996 10.2536 6.95112C10.7334 6.74215 11.2445 6.62507 11.787 6.59988H3.27743V7.7805Z" fill="#212121"/>
<path fill-rule="evenodd" clip-rule="evenodd" d="M12.5 15.5C14.433 15.5 16 13.933 16 12C16 10.067 14.433 8.5 12.5 8.5C10.567 8.5 9 10.067 9 12C9 13.933 10.567 15.5 12.5 15.5ZM11.284 13.5568C11.6387 13.8523 12.0529 14 12.5265 14C13.0736 14 13.5393 13.8049 13.9236 13.4147C14.3079 13.0244 14.5 12.5529 14.5 12C14.5 11.4456 14.3079 10.9736 13.9236 10.5841C13.5393 10.1947 13.0736 10 12.5265 10C12.2646 10 12.0184 10.0485 11.7879 10.1455C11.5574 10.2425 11.3562 10.3726 11.1842 10.5357V10.028H10.5V11.7331H12.1825V11.0397H11.6604C11.7702 10.93 11.8989 10.8449 12.0464 10.7843C12.194 10.7237 12.354 10.6934 12.5265 10.6934C12.8838 10.6934 13.188 10.8207 13.4391 11.0751C13.6902 11.3296 13.8158 11.6379 13.8158 12C13.8158 12.3605 13.6898 12.6684 13.438 12.9237C13.1861 13.179 12.8822 13.3066 12.5265 13.3066C12.2427 13.3066 11.9939 13.2263 11.7801 13.0658C11.5664 12.9053 11.4193 12.7005 11.3388 12.4514H10.6076C10.7038 12.8929 10.9292 13.2613 11.284 13.5568Z" fill="#212121"/>
</svg>
