<svg width="16" height="16" viewBox="0 0 16 16" fill="none" xmlns="http://www.w3.org/2000/svg">
<path d="M7.66667 14C7.46667 14 7.275 13.9639 7.09167 13.8917C6.90833 13.8194 6.74444 13.7111 6.6 13.5667L2.13333 9.08333C1.74444 8.69444 1.45833 8.25 1.275 7.75C1.09167 7.25 1 6.72778 1 6.18333C1 5.03889 1.37222 4.05555 2.11667 3.23333C2.86111 2.41111 3.78889 2 4.9 2C5.43333 2 5.93611 2.10556 6.40833 2.31667C6.88056 2.52778 7.3 2.82222 7.66667 3.2C8.02222 2.82222 8.43611 2.52778 8.90833 2.31667C9.38056 2.10556 9.88334 2 10.4167 2C11.5278 2 12.4583 2.41111 13.2083 3.23333C13.9583 4.05555 14.3333 5.03333 14.3333 6.16667C14.3333 6.71111 14.2389 7.23333 14.05 7.73333C13.8611 8.23333 13.5778 8.67778 13.2 9.06667L8.71667 13.5667C8.57222 13.7111 8.41111 13.8194 8.23333 13.8917C8.05556 13.9639 7.86667 14 7.66667 14ZM8.33333 5.33333C8.44445 5.33333 8.55 5.36111 8.65 5.41667C8.75 5.47222 8.82778 5.54444 8.88333 5.63333L10.0167 7.33333H12.7833C12.8611 7.14444 12.9194 6.95278 12.9583 6.75833C12.9972 6.56389 13.0167 6.36667 13.0167 6.16667C12.9944 5.4 12.7389 4.74167 12.25 4.19167C11.7611 3.64167 11.15 3.36667 10.4167 3.36667C10.0722 3.36667 9.74167 3.43333 9.425 3.56667C9.10833 3.7 8.83333 3.89444 8.6 4.15L8.15 4.63333C8.09445 4.7 8.02222 4.75278 7.93333 4.79167C7.84445 4.83056 7.75556 4.85 7.66667 4.85C7.57778 4.85 7.48889 4.83056 7.4 4.79167C7.31111 4.75278 7.23333 4.7 7.16667 4.63333L6.71667 4.15C6.48333 3.89444 6.21111 3.69444 5.9 3.55C5.58889 3.40556 5.25556 3.33333 4.9 3.33333C4.16667 3.33333 3.55556 3.61389 3.06667 4.175C2.57778 4.73611 2.33333 5.4 2.33333 6.16667C2.33333 6.36667 2.35 6.56389 2.38333 6.75833C2.41667 6.95278 2.47222 7.14444 2.55 7.33333H5.66667C5.77778 7.33333 5.88333 7.36111 5.98333 7.41667C6.08333 7.47222 6.16111 7.54444 6.21667 7.63333L6.8 8.5L7.7 5.8C7.74445 5.66667 7.825 5.55556 7.94167 5.46667C8.05833 5.37778 8.18889 5.33333 8.33333 5.33333ZM8.53333 7.5L7.63333 10.2C7.58889 10.3333 7.50556 10.4444 7.38333 10.5333C7.26111 10.6222 7.12778 10.6667 6.98333 10.6667C6.87222 10.6667 6.76667 10.6389 6.66667 10.5833C6.56667 10.5278 6.48889 10.4556 6.43333 10.3667L5.3 8.66667H3.6L7.55 12.6167C7.57222 12.6389 7.59167 12.6528 7.60833 12.6583C7.625 12.6639 7.64444 12.6667 7.66667 12.6667C7.68889 12.6667 7.70833 12.6639 7.725 12.6583C7.74167 12.6528 7.76111 12.6389 7.78333 12.6167L11.7167 8.66667H9.66667C9.55556 8.66667 9.45 8.63889 9.35 8.58333C9.25 8.52778 9.16667 8.45556 9.1 8.36667L8.53333 7.5Z" fill="#212121"/>
</svg>
