<svg width="16" height="16" viewBox="0 0 16 16" fill="none" xmlns="http://www.w3.org/2000/svg">
<g clip-path="url(#clip0_1346_31859)">
<path fill-rule="evenodd" clip-rule="evenodd" d="M3 1C1.89543 1 1 1.89543 1 3V13C1 14.1046 1.89543 15 3 15H13C14.1046 15 15 14.1046 15 13V3C15 1.89543 14.1046 1 13 1H3ZM10.4825 11.2666H5.51504C5.3391 11.2666 5.19167 11.2079 5.07272 11.0905C4.95364 10.9732 4.8941 10.8277 4.8941 10.6539C4.8941 10.4803 4.95364 10.3347 5.07272 10.2171C5.19167 10.0996 5.3391 10.0408 5.51504 10.0408H10.4825C10.6585 10.0408 10.8059 10.0995 10.9249 10.2169C11.0439 10.3342 11.1035 10.4797 11.1035 10.6535C11.1035 10.8272 11.0439 10.9728 10.9249 11.0903C10.8059 11.2079 10.6585 11.2666 10.4825 11.2666ZM5.78577 5.68752L7.12948 7.01406L10.1992 3.98405C10.3191 3.86569 10.4624 3.8044 10.6291 3.80018C10.7956 3.79595 10.9431 3.85302 11.0716 3.97138C11.2001 4.08988 11.2651 4.23262 11.2666 4.3996C11.2682 4.56672 11.2075 4.71109 11.0844 4.83272L7.65334 8.21945C7.50362 8.36709 7.329 8.44091 7.12948 8.44091C6.92995 8.44091 6.75533 8.36709 6.60561 8.21945L4.91314 6.54887C4.79323 6.43037 4.73328 6.28681 4.73328 6.1182C4.73328 5.94958 4.79323 5.80602 4.91314 5.68752C5.03319 5.56916 5.17994 5.51128 5.35339 5.51387C5.52697 5.51659 5.6711 5.57448 5.78577 5.68752Z" fill="#212121"/>
</g>
<defs>
<clipPath id="clip0_1346_31859">
<rect width="16" height="16" fill="white"/>
</clipPath>
</defs>
</svg>
