<svg width="16" height="16" viewBox="0 0 16 16" fill="none" xmlns="http://www.w3.org/2000/svg">
<path d="M7.75997 8.70585C7.75997 8.90115 7.59917 9.0588 7.39997 9.0588H5.23161C3.84682 9.0588 2.71995 10.1635 2.71995 11.5212V13.2941H4.40002V12C4.40002 11.8047 4.56082 11.647 4.76002 11.647C4.95923 11.647 5.12003 11.8047 5.12003 12V13.2941H7.15998C7.35919 13.2941 7.51999 13.4518 7.51999 13.6471C7.51999 13.8424 7.35919 14 7.15998 14H2.36001C2.1608 14 2 13.8424 2 13.6471V11.5212C2 9.77407 3.44959 8.35296 5.23157 8.35296H7.39993C7.59914 8.35296 7.75997 8.51055 7.75997 8.70585ZM4.39999 4.70592C4.39999 3.21416 5.63838 2 7.16001 2C8.68164 2 9.92004 3.21412 9.92004 4.70592C9.92004 6.19773 8.68164 7.41185 7.16001 7.41185C5.63838 7.41185 4.39999 6.19773 4.39999 4.70592ZM5.11998 4.70592C5.11998 5.80828 6.03557 6.70589 7.15994 6.70589C8.2843 6.70589 9.19989 5.80825 9.19989 4.70592C9.19989 3.6036 8.2843 2.70596 7.15994 2.70596C6.03557 2.70596 5.11998 3.6036 5.11998 4.70592ZM13.9999 10.3447V13.1847C13.9999 13.6341 13.6267 14 13.1683 14H9.31154C8.85314 14 8.47994 13.6341 8.47994 13.1847V10.3447C8.47994 9.89529 8.85314 9.52941 9.31154 9.52941H9.43994V8.47059C9.43994 7.49765 10.2475 6.70584 11.24 6.70584C12.2324 6.70584 13.04 7.49761 13.04 8.47059V9.52941H13.1684C13.6268 9.52941 13.9999 9.89529 13.9999 10.3447ZM10.1599 9.52941H12.3198V8.47059C12.3198 7.88706 11.835 7.41177 11.2398 7.41177C10.6446 7.41177 10.1598 7.88706 10.1598 8.47059L10.1599 9.52941ZM11.5999 11.7647C11.5999 11.5694 11.4391 11.4118 11.2399 11.4118C11.0407 11.4118 10.8799 11.5694 10.8799 11.7647V12.2353C10.8799 12.4306 11.0407 12.5883 11.2399 12.5883C11.4391 12.5883 11.5999 12.4306 11.5999 12.2353V11.7647Z" fill="black"/>
</svg>
