<svg width="16" height="16" viewBox="0 0 16 16" fill="none" xmlns="http://www.w3.org/2000/svg">
<path fill-rule="evenodd" clip-rule="evenodd" d="M10.5752 1C10.7077 1 10.835 1.05285 10.9287 1.14648L13.1289 3.3457C13.2226 3.43942 13.2753 3.56672 13.2754 3.69922V8.11816C12.9639 7.93519 12.629 7.7879 12.2754 7.68359V4.39355H10.9102C10.3417 4.39343 9.88086 3.93278 9.88086 3.36426V2H3.0293C3.01316 2.00013 3.00013 2.01322 3 2.0293V13.9707L3.00879 13.9912C3.01408 13.9965 3.02123 13.9999 3.0293 14H6.96875C7.1497 14.364 7.37807 14.7002 7.64648 15H3.0293C2.49676 14.9999 2.05779 14.5953 2.00488 14.0762L2 13.9707V2.0293C2.00013 1.46061 2.4612 1.00013 3.0293 1H10.5752ZM10.8809 3.36426C10.8809 3.3805 10.8939 3.39343 10.9102 3.39355H11.7627L10.8809 2.51172V3.36426Z" fill="#212121"/>
<path d="M6.51855 11.6084C6.50742 11.7375 6.5 11.868 6.5 12C6.5 12.2064 6.51509 12.4094 6.54199 12.6084H4.28711C4.01113 12.6084 3.78737 12.3843 3.78711 12.1084C3.78711 11.8323 4.01097 11.6084 4.28711 11.6084H6.51855Z" fill="#212121"/>
<path d="M7.55273 9.1084C7.299 9.41057 7.08402 9.74629 6.91602 10.1084H4.28711C4.01113 10.1084 3.78737 9.88432 3.78711 9.6084C3.78711 9.33226 4.01097 9.1084 4.28711 9.1084H7.55273Z" fill="#212121"/>
<path d="M10.9883 6.6084C11.2644 6.6084 11.4883 6.83226 11.4883 7.1084C11.4881 7.27385 11.4062 7.41873 11.2822 7.50977C11.1889 7.50399 11.0948 7.5 11 7.5C10.6635 7.5 10.3359 7.53836 10.0205 7.6084H4.28711C4.01113 7.6084 3.78737 7.38432 3.78711 7.1084C3.78711 6.83226 4.01097 6.6084 4.28711 6.6084H10.9883Z" fill="#212121"/>
<path fill-rule="evenodd" clip-rule="evenodd" d="M11 8.5C12.933 8.5 14.5 10.067 14.5 12C14.5 13.933 12.933 15.5 11 15.5C9.067 15.5 7.5 13.933 7.5 12C7.5 10.067 9.067 8.5 11 8.5ZM12.7998 12.3994C12.6895 12.3995 12.5998 12.4894 12.5996 12.5996V13.4004C12.5995 13.4533 12.5784 13.5036 12.541 13.541C12.5036 13.5784 12.4533 13.5995 12.4004 13.5996H9.59961C9.54674 13.5995 9.49638 13.5784 9.45898 13.541C9.42159 13.5036 9.40051 13.4533 9.40039 13.4004V12.5996C9.4002 12.4894 9.31048 12.3995 9.2002 12.3994C9.08986 12.3994 9.0002 12.4893 9 12.5996V13.4004C9.00012 13.5593 9.06337 13.7118 9.17578 13.8242C9.28819 13.9366 9.44065 13.9999 9.59961 14H12.4004C12.5593 13.9999 12.7118 13.9366 12.8242 13.8242C12.9366 13.7118 12.9999 13.5593 13 13.4004V12.5996C12.9998 12.4893 12.9101 12.3994 12.7998 12.3994ZM11 10C10.8896 10 10.7998 10.0897 10.7998 10.2002V12.1172L10.1416 11.459L10 11.6006L9.8584 11.7412L10.8584 12.7412C10.9365 12.8193 11.0635 12.8193 11.1416 12.7412L12.1416 11.7412C12.2193 11.6632 12.2193 11.537 12.1416 11.459C12.0635 11.3809 11.9365 11.3809 11.8584 11.459L11.2002 12.1172V10.2002C11.2002 10.0897 11.1104 10 11 10ZM10.1416 11.459C10.0635 11.3809 9.93649 11.3809 9.8584 11.459C9.78068 11.537 9.78062 11.6632 9.8584 11.7412L10.1416 11.459Z" fill="#212121"/>
</svg>
