<svg width="16" height="16" viewBox="0 0 16 16" fill="none" xmlns="http://www.w3.org/2000/svg">
<path d="M10.0223 13.583L10.4105 13.1947L9.74028 12.5132H11.3684V11.9605H9.74028L10.4105 11.2789L10.0223 10.8907L8.67609 12.2368L10.0223 13.583ZM11.9777 12.1093L13.3239 10.7632L11.9777 9.41704L11.5895 9.80526L12.2597 10.4868H10.6316V11.0395H12.2597L11.5895 11.7211L11.9777 12.1093ZM11.0006 15C10.5165 15 10.0615 14.9081 9.63555 14.7244C9.2096 14.5407 8.83909 14.2914 8.52403 13.9764C8.20896 13.6615 7.95951 13.2911 7.77567 12.8654C7.59189 12.4396 7.5 11.9847 7.5 11.5006C7.5 11.0165 7.59186 10.5615 7.77558 10.1356C7.9593 9.7096 8.20863 9.33909 8.52357 9.02403C8.8385 8.70896 9.20886 8.45951 9.63463 8.27567C10.0604 8.09189 10.5153 8 10.9994 8C11.4835 8 11.9385 8.09186 12.3644 8.27558C12.7904 8.4593 13.1609 8.70863 13.476 9.02357C13.791 9.3385 14.0405 9.70886 14.2243 10.1346C14.4081 10.5604 14.5 11.0153 14.5 11.4994C14.5 11.9835 14.4081 12.4385 14.2244 12.8644C14.0407 13.2904 13.7914 13.6609 13.4764 13.976C13.1615 14.291 12.7911 14.5405 12.3654 14.7243C11.9396 14.9081 11.4847 15 11.0006 15Z" fill="#212121"/>
<path d="M7.16699 1C7.56341 1.00007 7.90245 1.13028 8.18359 1.38965C8.46449 1.64883 8.62353 1.96322 8.66113 2.33301H11.6279C11.9604 2.33301 12.2449 2.45108 12.4805 2.68652C12.7157 2.92195 12.8329 3.2059 12.833 3.53809V7.38965C12.5172 7.24861 12.1822 7.14351 11.833 7.07812V3.53809C11.8329 3.48698 11.8121 3.43997 11.7695 3.39746C11.7269 3.35468 11.6793 3.33301 11.6279 3.33301H2.70508C2.65384 3.33303 2.60705 3.35482 2.56445 3.39746C2.52179 3.44001 2.50011 3.48691 2.5 3.53809V12.4619C2.50011 12.5131 2.52179 12.56 2.56445 12.6025C2.60705 12.6452 2.65384 12.667 2.70508 12.667H6.65332C6.74766 13.0193 6.88357 13.3544 7.05566 13.667H2.70508C2.37275 13.667 2.08902 13.5488 1.85352 13.3135C1.61817 13.078 1.5001 12.7942 1.5 12.4619V3.53809C1.5001 3.20582 1.61817 2.92198 1.85352 2.68652C2.08902 2.45121 2.37275 2.33303 2.70508 2.33301H5.67188C5.7138 1.9632 5.87534 1.64884 6.15625 1.38965C6.43736 1.1302 6.77466 1 7.16699 1ZM6.72656 10.0898C6.62132 10.409 6.55082 10.7436 6.51953 11.0898H4V10.0898H6.72656ZM8.93848 7.5C8.44853 7.75302 8.01095 8.09287 7.64648 8.5H4V7.5H8.93848ZM10.333 4.91016V5.91016H4V4.91016H10.333ZM7.16699 1.89746C7.02264 1.89746 6.90301 1.94474 6.80859 2.03906C6.71416 2.1335 6.667 2.25303 6.66699 2.39746C6.66699 2.54191 6.71415 2.66141 6.80859 2.75586C6.90302 2.85021 7.02262 2.89746 7.16699 2.89746C7.31129 2.89739 7.43102 2.85023 7.52539 2.75586C7.61971 2.66144 7.66699 2.54181 7.66699 2.39746C7.66698 2.25311 7.61973 2.13348 7.52539 2.03906C7.43102 1.94469 7.31129 1.89753 7.16699 1.89746Z" fill="#212121"/>
</svg>
