<svg width="16" height="16" viewBox="0 0 16 16" fill="none" xmlns="http://www.w3.org/2000/svg">
<g clip-path="url(#clip0_97_2474)">
<path d="M10.6665 8.66675V14.0001" stroke="#212121" stroke-width="1.33333" stroke-linecap="round" stroke-linejoin="round"/>
<path d="M5.3335 8.66675V14.0001" stroke="#212121" stroke-width="1.33333" stroke-linecap="round" stroke-linejoin="round"/>
<path d="M8 10V15.3333" stroke="#212121" stroke-width="1.33333" stroke-linecap="round" stroke-linejoin="round"/>
<path d="M13.3332 11.0532C14.034 10.7463 14.6079 10.2076 14.9586 9.52758C15.3092 8.84757 15.4153 8.06763 15.2589 7.31868C15.1026 6.56973 14.6933 5.89736 14.0999 5.41445C13.5065 4.93153 12.765 4.66746 11.9999 4.66656H11.1599C10.9485 3.84824 10.5458 3.09186 9.98473 2.45976C9.4237 1.82766 8.72048 1.33794 7.93304 1.03097C7.14559 0.724001 6.29646 0.608568 5.45565 0.694186C4.61483 0.779804 3.8064 1.06402 3.09699 1.52341C2.38758 1.9828 1.7975 2.60421 1.3754 3.33642C0.95329 4.06863 0.711241 4.89067 0.669201 5.73479C0.62716 6.57891 0.786332 7.42093 1.1336 8.19146C1.48086 8.96199 2.00627 9.63895 2.66653 10.1666" stroke="#212121" stroke-width="1.33333" stroke-linecap="round" stroke-linejoin="round"/>
</g>
<defs>
<clipPath id="clip0_97_2474">
<rect width="16" height="16" fill="white"/>
</clipPath>
</defs>
</svg>
