<svg width="16" height="16" viewBox="0 0 16 16" fill="none" xmlns="http://www.w3.org/2000/svg">
<path d="M7.22222 13C7.00185 13 6.81713 12.9201 6.66806 12.7604C6.51898 12.6007 6.44444 12.4028 6.44444 12.1667C6.44444 11.9306 6.51898 11.7326 6.66806 11.5729C6.81713 11.4132 7.00185 11.3333 7.22222 11.3333H8.77778C8.99815 11.3333 9.18287 11.4132 9.33194 11.5729C9.48102 11.7326 9.55556 11.9306 9.55556 12.1667C9.55556 12.4028 9.48102 12.6007 9.33194 12.7604C9.18287 12.9201 8.99815 13 8.77778 13H7.22222ZM4.11111 8.83333C3.89074 8.83333 3.70602 8.75347 3.55694 8.59375C3.40787 8.43403 3.33333 8.23611 3.33333 8C3.33333 7.76389 3.40787 7.56597 3.55694 7.40625C3.70602 7.24653 3.89074 7.16667 4.11111 7.16667H11.8889C12.1093 7.16667 12.294 7.24653 12.4431 7.40625C12.5921 7.56597 12.6667 7.76389 12.6667 8C12.6667 8.23611 12.5921 8.43403 12.4431 8.59375C12.294 8.75347 12.1093 8.83333 11.8889 8.83333H4.11111ZM1.77778 4.66667C1.55741 4.66667 1.37269 4.58681 1.22361 4.42708C1.07454 4.26736 1 4.06944 1 3.83333C1 3.59722 1.07454 3.39931 1.22361 3.23958C1.37269 3.07986 1.55741 3 1.77778 3H14.2222C14.4426 3 14.6273 3.07986 14.7764 3.23958C14.9255 3.39931 15 3.59722 15 3.83333C15 4.06944 14.9255 4.26736 14.7764 4.42708C14.6273 4.58681 14.4426 4.66667 14.2222 4.66667H1.77778Z" fill="#212121"/>
</svg>
