<svg width="16" height="16" viewBox="0 0 16 16" fill="none" xmlns="http://www.w3.org/2000/svg">
<path d="M8 9.19494L9.85938 10.5114C9.94687 10.5789 10.0344 10.5823 10.1219 10.5215C10.2094 10.4608 10.2385 10.3831 10.2094 10.2886L9.4875 8.14177L11.4344 6.72405C11.5073 6.65654 11.5292 6.5789 11.5 6.49114C11.4708 6.40338 11.4052 6.35949 11.3031 6.35949H8.9625L8.21875 4.19241C8.18958 4.09789 8.11667 4.05063 8 4.05063C7.88333 4.05063 7.81042 4.09789 7.78125 4.19241L7.0375 6.35949H4.69687C4.59479 6.35949 4.52552 6.40338 4.48906 6.49114C4.4526 6.5789 4.47083 6.65654 4.54375 6.72405L6.46875 8.14177L5.74688 10.3089C5.71771 10.4034 5.74688 10.481 5.83437 10.5418C5.92188 10.6025 6.00938 10.5992 6.09688 10.5316L8 9.19494ZM8 16C7.89792 16 7.80313 15.9932 7.71563 15.9797C7.62813 15.9662 7.54063 15.946 7.45313 15.919C5.48438 15.3114 3.91667 14.1873 2.75 12.5468C1.58333 10.9063 1 9.14093 1 7.25063V3.42278C1 3.08523 1.10573 2.78144 1.31719 2.51139C1.52865 2.24135 1.80208 2.04557 2.1375 1.92405L7.3875 0.101266C7.59167 0.0337553 7.79583 0 8 0C8.20417 0 8.40833 0.0337553 8.6125 0.101266L13.8625 1.92405C14.1979 2.04557 14.4714 2.24135 14.6828 2.51139C14.8943 2.78144 15 3.08523 15 3.42278V7.25063C15 9.14093 14.4167 10.9063 13.25 12.5468C12.0833 14.1873 10.5156 15.3114 8.54687 15.919C8.45937 15.946 8.37187 15.9662 8.28437 15.9797C8.19688 15.9932 8.10208 16 8 16Z" fill="#212121"/>
<path d="M11.9375 3.11899H4.0625V11.6253L11.9375 11.6253V3.11899Z" fill="#212121"/>
</svg>
