<svg width="16" height="16" viewBox="0 0 16 16" fill="none" xmlns="http://www.w3.org/2000/svg">
<path fill-rule="evenodd" clip-rule="evenodd" d="M2 1.98333C2 1.43999 2.44055 1 2.98333 1H9.69361H9.87105C10.0037 1 10.1308 1.05268 10.2246 1.14645L12.2321 3.15396C12.3259 3.24773 12.3786 3.37491 12.3786 3.50752V3.67659L12.3786 3.68502L12.3786 3.69345V10.1718C12.1115 9.82482 11.7703 9.53795 11.3786 9.3349V4.18502H10.1769C9.63386 4.18502 9.19361 3.74478 9.19361 3.20169V2H3V12.8658H7.12663C7.2374 13.2339 7.41699 13.5722 7.65044 13.8658H2.98333C2.44055 13.8658 2 13.4258 2 12.8825V1.98333ZM7.23265 10.8392C7.10317 11.1475 7.0237 11.482 7.00441 11.8325H4.13086C3.85472 11.8325 3.63086 11.6087 3.63086 11.3325C3.63086 11.0564 3.85472 10.8325 4.13086 10.8325H7.15086C7.17872 10.8325 7.20604 10.8348 7.23265 10.8392ZM10.7475 9.09393C10.5085 9.03261 10.258 9 9.99981 9C9.3276 9 8.70703 9.22109 8.20685 9.59451H4.13077C3.85462 9.59451 3.63077 9.37065 3.63077 9.09451C3.63077 8.81837 3.85462 8.59451 4.13077 8.59451H10.2475C10.5235 8.59451 10.7472 8.81805 10.7475 9.09393ZM10.1936 3.18502H10.849L10.1936 2.52967V3.18502ZM4.13077 6.11866C3.85462 6.11866 3.63077 6.34251 3.63077 6.61866C3.63077 6.8948 3.85462 7.11866 4.13077 7.11866H10.2475C10.5237 7.11866 10.7475 6.8948 10.7475 6.61866C10.7475 6.34251 10.5237 6.11866 10.2475 6.11866H4.13077Z" fill="#212121"/>
<path d="M10.4997 13.182C10.8762 13.182 11.1815 12.8767 11.1815 12.5002C11.1815 12.1236 10.8762 11.8184 10.4997 11.8184C10.1231 11.8184 9.81787 12.1236 9.81787 12.5002C9.81787 12.8767 10.1231 13.182 10.4997 13.182Z" stroke="#212121" stroke-width="0.6" stroke-linecap="round" stroke-linejoin="round"/>
<path d="M12.1818 13.1818C12.1516 13.2504 12.1425 13.3264 12.1559 13.4001C12.1693 13.4739 12.2044 13.5419 12.2568 13.5955L12.2705 13.6091C12.3127 13.6513 12.3462 13.7014 12.3691 13.7566C12.392 13.8118 12.4038 13.8709 12.4038 13.9307C12.4038 13.9904 12.392 14.0496 12.3691 14.1047C12.3462 14.1599 12.3127 14.2101 12.2705 14.2523C12.2282 14.2945 12.1781 14.3281 12.1229 14.3509C12.0677 14.3738 12.0086 14.3856 11.9489 14.3856C11.8891 14.3856 11.83 14.3738 11.7748 14.3509C11.7196 14.3281 11.6695 14.2945 11.6273 14.2523L11.6136 14.2386C11.5601 14.1862 11.492 14.1511 11.4183 14.1377C11.3446 14.1244 11.2685 14.1334 11.2 14.1636C11.1328 14.1924 11.0755 14.2403 11.0351 14.3013C10.9947 14.3622 10.973 14.4337 10.9727 14.5068V14.5455C10.9727 14.666 10.9248 14.7816 10.8396 14.8669C10.7544 14.9521 10.6387 15 10.5182 15C10.3976 15 10.282 14.9521 10.1968 14.8669C10.1115 14.7816 10.0636 14.666 10.0636 14.5455V14.525C10.0619 14.4498 10.0375 14.3768 9.99375 14.3156C9.94998 14.2544 9.8888 14.2078 9.81818 14.1818C9.74963 14.1516 9.67359 14.1425 9.59987 14.1559C9.52614 14.1693 9.45811 14.2044 9.40455 14.2568L9.39091 14.2705C9.34869 14.3127 9.29856 14.3462 9.24338 14.3691C9.1882 14.392 9.12905 14.4038 9.06932 14.4038C9.00958 14.4038 8.95044 14.392 8.89525 14.3691C8.84007 14.3462 8.78994 14.3127 8.74773 14.2705C8.70547 14.2282 8.67194 14.1781 8.64906 14.1229C8.62619 14.0677 8.61442 14.0086 8.61442 13.9489C8.61442 13.8891 8.62619 13.83 8.64906 13.7748C8.67194 13.7196 8.70547 13.6695 8.74773 13.6273L8.76136 13.6136C8.81376 13.5601 8.84891 13.492 8.86227 13.4183C8.87564 13.3446 8.86662 13.2685 8.83636 13.2C8.80755 13.1328 8.75972 13.0755 8.69874 13.0351C8.63777 12.9947 8.56632 12.973 8.49318 12.9727H8.45455C8.33399 12.9727 8.21838 12.9248 8.13313 12.8396C8.04789 12.7544 8 12.6387 8 12.5182C8 12.3976 8.04789 12.282 8.13313 12.1968C8.21838 12.1115 8.33399 12.0636 8.45455 12.0636H8.475C8.55023 12.0619 8.62318 12.0375 8.68439 11.9938C8.74559 11.95 8.79221 11.8888 8.81818 11.8182C8.84844 11.7496 8.85746 11.6736 8.84409 11.5999C8.83072 11.5261 8.79558 11.4581 8.74318 11.4045L8.72955 11.3909C8.68728 11.3487 8.65376 11.2986 8.63088 11.2434C8.60801 11.1882 8.59623 11.1291 8.59623 11.0693C8.59623 11.0096 8.60801 10.9504 8.63088 10.8953C8.65376 10.8401 8.68728 10.7899 8.72955 10.7477C8.77176 10.7055 8.82189 10.6719 8.87707 10.6491C8.93225 10.6262 8.9914 10.6144 9.05114 10.6144C9.11087 10.6144 9.17002 10.6262 9.2252 10.6491C9.28038 10.6719 9.33051 10.7055 9.37273 10.7477L9.38636 10.7614C9.43993 10.8138 9.50796 10.8489 9.58168 10.8623C9.65541 10.8756 9.73145 10.8666 9.8 10.8364H9.81818C9.8854 10.8076 9.94273 10.7597 9.98311 10.6987C10.0235 10.6378 10.0452 10.5663 10.0455 10.4932V10.4545C10.0455 10.334 10.0933 10.2184 10.1786 10.1331C10.2638 10.0479 10.3794 10 10.5 10C10.6206 10 10.7362 10.0479 10.8214 10.1331C10.9067 10.2184 10.9545 10.334 10.9545 10.4545V10.475C10.9548 10.5481 10.9765 10.6196 11.0169 10.6806C11.0573 10.7415 11.1146 10.7894 11.1818 10.8182C11.2504 10.8484 11.3264 10.8575 11.4001 10.8441C11.4739 10.8307 11.5419 10.7956 11.5955 10.7432L11.6091 10.7295C11.6513 10.6873 11.7014 10.6538 11.7566 10.6309C11.8118 10.608 11.8709 10.5962 11.9307 10.5962C11.9904 10.5962 12.0496 10.608 12.1047 10.6309C12.1599 10.6538 12.2101 10.6873 12.2523 10.7295C12.2945 10.7718 12.3281 10.8219 12.3509 10.8771C12.3738 10.9323 12.3856 10.9914 12.3856 11.0511C12.3856 11.1109 12.3738 11.17 12.3509 11.2252C12.3281 11.2804 12.2945 11.3305 12.2523 11.3727L12.2386 11.3864C12.1862 11.4399 12.1511 11.508 12.1377 11.5817C12.1244 11.6554 12.1334 11.7315 12.1636 11.8V11.8182C12.1924 11.8854 12.2403 11.9427 12.3013 11.9831C12.3622 12.0235 12.4337 12.0452 12.5068 12.0455H12.5455C12.666 12.0455 12.7816 12.0933 12.8669 12.1786C12.9521 12.2638 13 12.3794 13 12.5C13 12.6206 12.9521 12.7362 12.8669 12.8214C12.7816 12.9067 12.666 12.9545 12.5455 12.9545H12.525C12.4519 12.9548 12.3804 12.9765 12.3194 13.0169C12.2585 13.0573 12.2106 13.1146 12.1818 13.1818Z" stroke="#212121" stroke-width="0.6" stroke-linecap="round" stroke-linejoin="round"/>
</svg>
