<svg width="16" height="16" viewBox="0 0 16 16" fill="none" xmlns="http://www.w3.org/2000/svg">
<g clip-path="url(#clip0_2073_619)">
<path d="M11.0002 14.1666C13.3013 14.1666 15.1668 12.3011 15.1668 9.99992C15.1668 7.69873 13.3013 5.83325 11.0002 5.83325C8.69898 5.83325 6.8335 7.69873 6.8335 9.99992C6.8335 12.3011 8.69898 14.1666 11.0002 14.1666Z" stroke="#212121" stroke-width="1.33333" stroke-linecap="round" stroke-linejoin="round"/>
<path d="M12.7683 9.99994H9.23272" stroke="#212121" stroke-width="1.33333" stroke-linecap="round" stroke-linejoin="round"/>
<path d="M11.0005 8.23218V11.7677" stroke="#212121" stroke-width="1.33333" stroke-linecap="round" stroke-linejoin="round"/>
</g>
<path d="M5.74902 1.00586C5.93999 1.02963 6.11342 1.13454 6.22168 1.29688L7.0596 2.55448C7.24505 2.83281 7.55735 3 7.8918 3H13C13.5304 3 14.039 3.21097 14.4141 3.58594C14.63 3.80192 14.7916 4.06228 14.8898 4.34557C15.0103 4.69347 14.7015 5 14.3333 5H14.1899C13.9011 5 13.6758 4.73367 13.4717 4.5293C13.3467 4.40427 13.1768 4.33398 13 4.33398H7C6.77719 4.33398 6.56897 4.22244 6.44531 4.03711L5.60739 2.7795C5.42195 2.50118 5.10964 2.33398 4.77519 2.33398H2.33301C2.15631 2.33407 1.98725 2.40435 1.8623 2.5293C1.73736 2.65424 1.66708 2.82331 1.66699 3V12.334C1.66708 12.5107 1.73736 12.6797 1.8623 12.8047C1.98725 12.9296 2.15631 12.9999 2.33301 13H5.33301C5.70138 13 6 13.2986 6 13.667C6 14.0354 5.70138 14.334 5.33301 14.334H2.33301C1.80269 14.3339 1.29394 14.123 0.918945 13.748C0.543949 13.3731 0.333094 12.8643 0.333008 12.334V3C0.333094 2.46968 0.543949 1.96093 0.918945 1.58594C1.29394 1.21094 1.80269 1.00009 2.33301 1H5.66699L5.74902 1.00586Z" fill="#212121"/>
<defs>
<clipPath id="clip0_2073_619">
<rect width="10" height="10" fill="white" transform="translate(6 5)"/>
</clipPath>
</defs>
</svg>
