<svg width="16" height="16" viewBox="0 0 16 16" fill="none" xmlns="http://www.w3.org/2000/svg">
<path d="M12.175 13.8C12.7063 13.8 13.1578 13.625 13.5297 13.275C13.9016 12.925 14.0875 12.5 14.0875 12C14.0875 11.5 13.9016 11.075 13.5297 10.725C13.1578 10.375 12.7063 10.2 12.175 10.2C11.6438 10.2 11.1922 10.375 10.8203 10.725C10.4484 11.075 10.2625 11.5 10.2625 12C10.2625 12.5 10.4484 12.925 10.8203 13.275C11.1922 13.625 11.6438 13.8 12.175 13.8ZM12.175 13.08C11.8563 13.08 11.5853 12.975 11.3622 12.765C11.1391 12.555 11.0275 12.3 11.0275 12C11.0275 11.7 11.1391 11.445 11.3622 11.235C11.5853 11.025 11.8563 10.92 12.175 10.92C12.4938 10.92 12.7647 11.025 12.9878 11.235C13.2109 11.445 13.3225 11.7 13.3225 12C13.3225 12.3 13.2109 12.555 12.9878 12.765C12.7647 12.975 12.4938 13.08 12.175 13.08ZM12.175 15C11.1408 15 10.1988 14.7283 9.34875 14.185C8.49875 13.6417 7.8825 12.9133 7.5 12C7.8825 11.0867 8.49875 10.3583 9.34875 9.815C10.1988 9.27167 11.1408 9 12.175 9C13.2092 9 14.1512 9.27167 15.0013 9.815C15.8512 10.3583 16.4675 11.0867 16.85 12C16.4675 12.9133 15.8512 13.6417 15.0013 14.185C14.1512 14.7283 13.2092 15 12.175 15Z" fill="#212121"/>
<path fill-rule="evenodd" clip-rule="evenodd" d="M7 5.56112L5.35294 6.38465V2.23529H8.64706V6.38465L7 5.56112ZM2.88235 10.6765V11.9118H7V10.6765H2.88235ZM0.432353 14.5676C0.720588 14.8559 1.07272 15 1.48874 15H8.35417C7.96403 14.6556 7.64157 14.2364 7.40932 13.7647H1.48874C1.42532 13.7647 1.36726 13.7383 1.31456 13.6854C1.26172 13.6327 1.23529 13.5747 1.23529 13.5113V2.48874C1.23529 2.42532 1.26172 2.36726 1.31456 2.31456C1.36726 2.26172 1.42532 2.23529 1.48874 2.23529H4.11765V8.39591L7 6.95473L9.59669 8.25308C9.6903 8.21801 9.78557 8.18634 9.88235 8.15823V2.23529H12.5113C12.5747 2.23529 12.6327 2.26172 12.6854 2.31456C12.7383 2.36726 12.7647 2.42532 12.7647 2.48874V8.40932C13.2364 8.64157 13.6556 8.96403 14 9.35417V2.48874C14 2.07272 13.8559 1.72059 13.5676 1.43235C13.2794 1.14412 12.9273 1 12.5113 1H1.48874C1.07272 1 0.720588 1.14412 0.432353 1.43235C0.144118 1.72059 0 2.07272 0 2.48874V13.5113C0 13.9273 0.144118 14.2794 0.432353 14.5676Z" fill="#212121"/>
</svg>
