<svg width="16" height="16" viewBox="0 0 16 16" fill="none" xmlns="http://www.w3.org/2000/svg">
<path d="M7.10693 11.2388L9.82846 11.0702" stroke="#212121" stroke-width="0.7" stroke-miterlimit="10" stroke-linecap="round" stroke-linejoin="round"/>
<path d="M8.52445 4.14718C8.52445 4.14718 8.23495 3.88013 7.78865 4.01457C7.3789 4.13803 7.27715 4.69868 7.5556 4.9171C7.71549 5.04251 7.95607 5.14561 8.28032 5.26022C9.00598 5.51672 8.73772 6.54011 7.99956 6.54504C7.71148 6.54697 7.5768 6.52867 7.32373 6.36313" stroke="#212121" stroke-width="0.4" stroke-miterlimit="10" stroke-linecap="round" stroke-linejoin="round"/>
<path d="M8 3.63113V6.91846" stroke="#212121" stroke-width="0.4" stroke-miterlimit="10" stroke-linecap="round" stroke-linejoin="round"/>
<path d="M11.3096 5.27486C11.3096 7.10256 9.82798 8.58423 8.00026 8.58423C6.17257 8.58423 4.69092 7.10256 4.69092 5.27486C4.69092 3.44714 6.17257 1.96549 8.00026 1.96549C9.82798 1.96549 11.3096 3.44714 11.3096 5.27486Z" stroke="#212121" stroke-width="0.7" stroke-miterlimit="10" stroke-linecap="round" stroke-linejoin="round"/>
<path d="M3.49645 10.6191V12.5787C3.49645 12.7659 3.34465 12.9177 3.1574 12.9177H2.33905C2.15183 12.9177 2 12.7659 2 12.5787V8.42695C2 8.23971 2.15183 8.08791 2.33905 8.08791H3.1574C3.34465 8.08791 3.49645 8.23971 3.49645 8.42695V10.7606" stroke="#212121" stroke-width="0.7" stroke-miterlimit="10" stroke-linecap="round" stroke-linejoin="round"/>
<path d="M3.49658 12.0647L5.72161 13.0589C5.9409 13.1407 6.17598 13.1714 6.40891 13.1488L10.3743 12.7628C10.6213 12.7387 10.8588 12.6553 11.0666 12.5197L13.8039 10.7334C14.0236 10.5383 14.0643 10.2105 13.899 9.96753C13.7182 9.70172 13.3566 9.63189 13.0897 9.81119L11.3231 10.6921C10.8578 10.9241 10.348 11.0531 9.82838 11.0703L9.85117 10.7128C9.80822 10.281 9.47578 9.93448 9.04614 9.8737L7.0716 9.64635C6.61612 9.58191 6.3885 9.42929 5.99144 9.19699C5.44933 8.87986 4.83259 8.71273 4.20452 8.71273H3.49658" stroke="#212121" stroke-width="0.7" stroke-miterlimit="10" stroke-linecap="round" stroke-linejoin="round"/>
<path d="M7.10693 11.2388L9.82846 11.0702" stroke="#212121" stroke-width="0.7" stroke-miterlimit="10" stroke-linecap="round" stroke-linejoin="round"/>
</svg>
