<svg width="16" height="16" viewBox="0 0 16 16" fill="none" xmlns="http://www.w3.org/2000/svg">
<path d="M4.75385 11.9276C4.96042 11.9276 5.13343 11.8578 5.27288 11.718C5.4122 11.5783 5.48185 11.4052 5.48185 11.1986C5.48185 10.992 5.41199 10.819 5.27226 10.6796C5.13254 10.5402 4.95939 10.4706 4.75282 10.4706C4.54625 10.4706 4.37331 10.5405 4.234 10.6802C4.09455 10.8199 4.02482 10.993 4.02482 11.1996C4.02482 11.4062 4.09469 11.5791 4.23441 11.7184C4.37427 11.8579 4.54742 11.9276 4.75385 11.9276ZM4.75385 8.72841C4.96042 8.72841 5.13343 8.65855 5.27288 8.51882C5.4122 8.3791 5.48185 8.20595 5.48185 7.99938C5.48185 7.79281 5.41199 7.61987 5.27226 7.48056C5.13254 7.34125 4.95939 7.27159 4.75282 7.27159C4.54625 7.27159 4.37331 7.34145 4.234 7.48118C4.09455 7.6209 4.02482 7.79405 4.02482 8.00062C4.02482 8.20719 4.09469 8.38013 4.23441 8.51944C4.37427 8.65876 4.54742 8.72841 4.75385 8.72841ZM4.75385 5.52941C4.96042 5.52941 5.13343 5.45955 5.27288 5.31982C5.4122 5.1801 5.48185 5.00695 5.48185 4.80038C5.48185 4.59381 5.41199 4.42087 5.27226 4.28156C5.13254 4.14211 4.95939 4.07238 4.75282 4.07238C4.54625 4.07238 4.37331 4.14224 4.234 4.28197C4.09455 4.4217 4.02482 4.59484 4.02482 4.80141C4.02482 5.00798 4.09469 5.18099 4.23441 5.32044C4.37427 5.45975 4.54742 5.52941 4.75385 5.52941ZM7.25574 11.8166H11.9435V10.5816H7.25574V11.8166ZM7.25574 8.61765H11.9435V7.38235H7.25574V8.61765ZM7.25574 5.41844H11.9435V4.18335H7.25574V5.41844ZM2.48874 15C2.07272 15 1.72059 14.8559 1.43235 14.5676C1.14412 14.2794 1 13.9273 1 13.5113V2.48874C1 2.07272 1.14412 1.72059 1.43235 1.43235C1.72059 1.14412 2.07272 1 2.48874 1H13.5113C13.9273 1 14.2794 1.14412 14.5676 1.43235C14.8559 1.72059 15 2.07272 15 2.48874V13.5113C15 13.9273 14.8559 14.2794 14.5676 14.5676C14.2794 14.8559 13.9273 15 13.5113 15H2.48874ZM2.48874 13.7647H13.5113C13.5747 13.7647 13.6327 13.7383 13.6854 13.6854C13.7383 13.6327 13.7647 13.5747 13.7647 13.5113V2.48874C13.7647 2.42532 13.7383 2.36726 13.6854 2.31456C13.6327 2.26172 13.5747 2.23529 13.5113 2.23529H2.48874C2.42532 2.23529 2.36726 2.26172 2.31456 2.31456C2.26172 2.36726 2.23529 2.42532 2.23529 2.48874V13.5113C2.23529 13.5747 2.26172 13.6327 2.31456 13.6854C2.36726 13.7383 2.42532 13.7647 2.48874 13.7647Z" fill="#212121"/>
</svg>
