<svg width="16" height="16" viewBox="0 0 16 16" fill="none" xmlns="http://www.w3.org/2000/svg">
<path d="M3.8335 13.3333C3.8335 13.4751 3.78555 13.5938 3.68966 13.6895C3.59388 13.7853 3.47516 13.8332 3.3335 13.8332H1.436C1.26533 13.8332 1.12222 13.7754 1.00666 13.66C0.891218 13.5444 0.833496 13.4013 0.833496 13.2307V11.3332C0.833496 11.1915 0.881441 11.0728 0.977329 10.977C1.07322 10.8811 1.192 10.8332 1.33366 10.8332C1.47544 10.8332 1.59416 10.8811 1.68983 10.977C1.78561 11.0728 1.8335 11.1915 1.8335 11.3332V12.8332H3.3335C3.47516 12.8332 3.59388 12.8811 3.68966 12.977C3.78555 13.0729 3.8335 13.1917 3.8335 13.3333ZM14.667 10.8332C14.8088 10.8332 14.9275 10.8811 15.0232 10.977C15.1189 11.0728 15.1668 11.1915 15.1668 11.3332V13.2307C15.1668 13.4013 15.1091 13.5444 14.9937 13.66C14.8781 13.7754 14.735 13.8332 14.5643 13.8332H12.6668C12.5252 13.8332 12.4064 13.7852 12.3107 13.6893C12.2148 13.5934 12.1668 13.4747 12.1668 13.333C12.1668 13.1912 12.2148 13.0725 12.3107 12.9768C12.4064 12.8811 12.5252 12.8332 12.6668 12.8332H14.1668V11.3332C14.1668 11.1915 14.2148 11.0728 14.3107 10.977C14.4066 10.8811 14.5253 10.8332 14.667 10.8332ZM2.96816 11.9998C2.88783 11.9998 2.8175 11.9697 2.75716 11.9095C2.69694 11.8492 2.66683 11.7788 2.66683 11.6985V4.30117C2.66683 4.22084 2.69694 4.1505 2.75716 4.09017C2.8175 4.02995 2.88783 3.99984 2.96816 3.99984H3.69883C3.77916 3.99984 3.8495 4.02995 3.90983 4.09017C3.97005 4.1505 4.00016 4.22084 4.00016 4.30117V11.6985C4.00016 11.7788 3.97005 11.8492 3.90983 11.9095C3.8495 11.9697 3.77916 11.9998 3.69883 11.9998H2.96816ZM5.00016 11.9998C4.91127 11.9998 4.8335 11.9665 4.76683 11.8998C4.70016 11.8332 4.66683 11.7554 4.66683 11.6665V4.33317C4.66683 4.24428 4.70016 4.1665 4.76683 4.09984C4.8335 4.03317 4.91127 3.99984 5.00016 3.99984C5.08905 3.99984 5.16683 4.03317 5.2335 4.09984C5.30016 4.1665 5.3335 4.24428 5.3335 4.33317V11.6665C5.3335 11.7554 5.30016 11.8332 5.2335 11.8998C5.16683 11.9665 5.08905 11.9998 5.00016 11.9998ZM6.96816 11.9998C6.88783 11.9998 6.8175 11.9697 6.75716 11.9095C6.69694 11.8492 6.66683 11.7788 6.66683 11.6985V4.30117C6.66683 4.22084 6.69694 4.1505 6.75716 4.09017C6.8175 4.02995 6.88783 3.99984 6.96816 3.99984H7.69883C7.77916 3.99984 7.8495 4.02995 7.90983 4.09017C7.97005 4.1505 8.00016 4.22084 8.00016 4.30117V11.6985C8.00016 11.7788 7.97005 11.8492 7.90983 11.9095C7.8495 11.9697 7.77916 11.9998 7.69883 11.9998H6.96816ZM8.96816 11.9998C8.88783 11.9998 8.8175 11.9697 8.75716 11.9095C8.69694 11.8492 8.66683 11.7788 8.66683 11.6985V4.30117C8.66683 4.22084 8.69694 4.1505 8.75716 4.09017C8.8175 4.02995 8.88783 3.99984 8.96816 3.99984H10.3655C10.4458 3.99984 10.5162 4.02995 10.5765 4.09017C10.6367 4.1505 10.6668 4.22084 10.6668 4.30117V11.6985C10.6668 11.7788 10.6367 11.8492 10.5765 11.9095C10.5162 11.9697 10.4458 11.9998 10.3655 11.9998H8.96816ZM11.6668 11.9998C11.5779 11.9998 11.5002 11.9665 11.4335 11.8998C11.3668 11.8332 11.3335 11.7554 11.3335 11.6665V4.33317C11.3335 4.24428 11.3668 4.1665 11.4335 4.09984C11.5002 4.03317 11.5779 3.99984 11.6668 3.99984C11.7557 3.99984 11.8335 4.03317 11.9002 4.09984C11.9668 4.1665 12.0002 4.24428 12.0002 4.33317V11.6665C12.0002 11.7554 11.9668 11.8332 11.9002 11.8998C11.8335 11.9665 11.7557 11.9998 11.6668 11.9998ZM13.0002 11.9998C12.9113 11.9998 12.8335 11.9665 12.7668 11.8998C12.7002 11.8332 12.6668 11.7554 12.6668 11.6665V4.33317C12.6668 4.24428 12.7002 4.1665 12.7668 4.09984C12.8335 4.03317 12.9113 3.99984 13.0002 3.99984C13.0891 3.99984 13.1668 4.03317 13.2335 4.09984C13.3002 4.1665 13.3335 4.24428 13.3335 4.33317V11.6665C13.3335 11.7554 13.3002 11.8332 13.2335 11.8998C13.1668 11.9665 13.0891 11.9998 13.0002 11.9998ZM3.8335 2.66667C3.8335 2.80845 3.78555 2.92717 3.68966 3.02284C3.59388 3.11862 3.47516 3.1665 3.3335 3.1665H1.8335V4.6665C1.8335 4.80817 1.78555 4.92689 1.68966 5.02267C1.59377 5.11856 1.475 5.1665 1.33333 5.1665C1.19155 5.1665 1.07283 5.11856 0.977163 5.02267C0.881385 4.92689 0.833496 4.80817 0.833496 4.6665V2.769C0.833496 2.59834 0.891218 2.45523 1.00666 2.33967C1.12222 2.22423 1.26533 2.1665 1.436 2.1665H3.3335C3.47516 2.1665 3.59388 2.21445 3.68966 2.31034C3.78555 2.40623 3.8335 2.525 3.8335 2.66667ZM12.1668 2.66634C12.1668 2.52456 12.2148 2.40584 12.3107 2.31017C12.4064 2.21439 12.5252 2.1665 12.6668 2.1665H14.5643C14.735 2.1665 14.8781 2.22423 14.9937 2.33967C15.1091 2.45523 15.1668 2.59834 15.1668 2.769V4.6665C15.1668 4.80817 15.1189 4.92689 15.023 5.02267C14.9271 5.11856 14.8083 5.1665 14.6667 5.1665C14.5249 5.1665 14.4062 5.11856 14.3105 5.02267C14.2147 4.92689 14.1668 4.80817 14.1668 4.6665V3.1665H12.6668C12.5252 3.1665 12.4064 3.11856 12.3107 3.02267C12.2148 2.92678 12.1668 2.808 12.1668 2.66634Z" fill="#212121"/>
</svg>
