<svg width="16" height="16" viewBox="0 0 16 16" fill="none" xmlns="http://www.w3.org/2000/svg">
<path d="M2.86842 14.5C2.49211 14.5 2.16996 14.3531 1.90197 14.0594C1.63399 13.7656 1.5 13.4125 1.5 13V2.5C1.5 2.0875 1.63399 1.73438 1.90197 1.44062C2.16996 1.14687 2.49211 1 2.86842 1H12.4474C12.8237 1 13.1458 1.14687 13.4138 1.44062C13.6818 1.73438 13.8158 2.0875 13.8158 2.5V8.14375C13.8158 8.35625 13.7502 8.53125 13.6191 8.66875C13.4879 8.80625 13.3254 8.875 13.1316 8.875C12.9377 8.875 12.7752 8.80312 12.6441 8.65937C12.5129 8.51562 12.4474 8.3375 12.4474 8.125V2.5H2.86842V13H6.97368C7.16754 13 7.33004 13.0719 7.46118 13.2156C7.59232 13.3594 7.65789 13.5375 7.65789 13.75C7.65789 13.9625 7.59232 14.1406 7.46118 14.2844C7.33004 14.4281 7.16754 14.5 6.97368 14.5H2.86842ZM4.92105 11.5C5.11491 11.5 5.27741 11.4281 5.40855 11.2844C5.53969 11.1406 5.60526 10.9625 5.60526 10.75C5.60526 10.5375 5.53969 10.3594 5.40855 10.2156C5.27741 10.0719 5.11491 10 4.92105 10C4.72719 10 4.56469 10.0719 4.43355 10.2156C4.30241 10.3594 4.23684 10.5375 4.23684 10.75C4.23684 10.9625 4.30241 11.1406 4.43355 11.2844C4.56469 11.4281 4.72719 11.5 4.92105 11.5ZM4.92105 8.5C5.11491 8.5 5.27741 8.42812 5.40855 8.28437C5.53969 8.14062 5.60526 7.9625 5.60526 7.75C5.60526 7.5375 5.53969 7.35938 5.40855 7.21562C5.27741 7.07187 5.11491 7 4.92105 7C4.72719 7 4.56469 7.07187 4.43355 7.21562C4.30241 7.35938 4.23684 7.5375 4.23684 7.75C4.23684 7.9625 4.30241 8.14062 4.43355 8.28437C4.56469 8.42812 4.72719 8.5 4.92105 8.5ZM4.92105 5.5C5.11491 5.5 5.27741 5.42812 5.40855 5.28437C5.53969 5.14062 5.60526 4.9625 5.60526 4.75C5.60526 4.5375 5.53969 4.35937 5.40855 4.21562C5.27741 4.07187 5.11491 4 4.92105 4C4.72719 4 4.56469 4.07187 4.43355 4.21562C4.30241 4.35937 4.23684 4.5375 4.23684 4.75C4.23684 4.9625 4.30241 5.14062 4.43355 5.28437C4.56469 5.42812 4.72719 5.5 4.92105 5.5ZM10.3947 8.5C10.5886 8.5 10.7511 8.42812 10.8822 8.28437C11.0134 8.14062 11.0789 7.9625 11.0789 7.75C11.0789 7.5375 11.0134 7.35938 10.8822 7.21562C10.7511 7.07187 10.5886 7 10.3947 7H7.65789C7.46404 7 7.30153 7.07187 7.17039 7.21562C7.03925 7.35938 6.97368 7.5375 6.97368 7.75C6.97368 7.9625 7.03925 8.14062 7.17039 8.28437C7.30153 8.42812 7.46404 8.5 7.65789 8.5H10.3947ZM10.3947 5.5C10.5886 5.5 10.7511 5.42812 10.8822 5.28437C11.0134 5.14062 11.0789 4.9625 11.0789 4.75C11.0789 4.5375 11.0134 4.35937 10.8822 4.21562C10.7511 4.07187 10.5886 4 10.3947 4H7.65789C7.46404 4 7.30153 4.07187 7.17039 4.21562C7.03925 4.35937 6.97368 4.5375 6.97368 4.75C6.97368 4.9625 7.03925 5.14062 7.17039 5.28437C7.30153 5.42812 7.46404 5.5 7.65789 5.5H10.3947ZM6.97368 10.75C6.97368 10.9625 7.03925 11.1406 7.17039 11.2844C7.30153 11.4281 7.46404 11.5 7.65789 11.5H7.69211C7.88596 11.5 8.04846 11.4281 8.17961 11.2844C8.31075 11.1406 8.37632 10.9625 8.37632 10.75C8.37632 10.5375 8.31075 10.3594 8.17961 10.2156C8.04846 10.0719 7.88596 10 7.69211 10H7.65789C7.46404 10 7.30153 10.0719 7.17039 10.2156C7.03925 10.3594 6.97368 10.5375 6.97368 10.75ZM11.0789 13.75H9.71053C9.51667 13.75 9.35417 13.6781 9.22303 13.5344C9.09189 13.3906 9.02632 13.2125 9.02632 13C9.02632 12.7875 9.09189 12.6094 9.22303 12.4656C9.35417 12.3219 9.51667 12.25 9.71053 12.25H11.0789V10.75C11.0789 10.5375 11.1445 10.3594 11.2757 10.2156C11.4068 10.0719 11.5693 10 11.7632 10C11.957 10 12.1195 10.0719 12.2507 10.2156C12.3818 10.3594 12.4474 10.5375 12.4474 10.75V12.25H13.8158C14.0096 12.25 14.1721 12.3219 14.3033 12.4656C14.4344 12.6094 14.5 12.7875 14.5 13C14.5 13.2125 14.4344 13.3906 14.3033 13.5344C14.1721 13.6781 14.0096 13.75 13.8158 13.75H12.4474V15.25C12.4474 15.4625 12.3818 15.6406 12.2507 15.7844C12.1195 15.9281 11.957 16 11.7632 16C11.5693 16 11.4068 15.9281 11.2757 15.7844C11.1445 15.6406 11.0789 15.4625 11.0789 15.25V13.75Z" fill="#212121"/>
</svg>
