<svg width="16" height="16" viewBox="0 0 16 16" fill="none" xmlns="http://www.w3.org/2000/svg">
<path fill-rule="evenodd" clip-rule="evenodd" d="M7.78953 3.01001C6.605 3.01001 5.64475 3.97026 5.64475 5.15479C5.64475 6.33931 6.605 7.29956 7.78953 7.29956C8.97405 7.29956 9.9343 6.33931 9.9343 5.15479C9.9343 3.97026 8.97405 3.01001 7.78953 3.01001ZM4.64475 5.15479C4.64475 3.41797 6.05272 2.01001 7.78953 2.01001C9.52634 2.01001 10.9343 3.41797 10.9343 5.15479C10.9343 6.8916 9.52634 8.29956 7.78953 8.29956C6.05272 8.29956 4.64475 6.8916 4.64475 5.15479ZM2.92108 10.3695C3.51084 9.7797 4.31073 9.44837 5.14478 9.44837H10.4343C11.2684 9.44837 12.0683 9.7797 12.658 10.3695C13.2478 10.9592 13.5791 11.7591 13.5791 12.5931V13.9155C13.5791 14.1917 13.3552 14.4155 13.0791 14.4155C12.803 14.4155 12.5791 14.1917 12.5791 13.9155V12.5931C12.5791 12.0243 12.3531 11.4788 11.9509 11.0766C11.5586 10.6843 11.03 10.4596 10.4763 10.4488V11.1629C10.4763 11.1894 10.4729 11.2152 10.4664 11.2397C11.0641 11.3725 11.5109 11.9058 11.5109 12.5435V13.579C11.5109 13.7447 11.3766 13.879 11.2109 13.879H10.8658C10.7001 13.879 10.5658 13.7447 10.5658 13.579C10.5658 13.4134 10.7001 13.279 10.8658 13.279H10.9109V12.5435C10.9109 12.1372 10.5816 11.8079 10.1754 11.8079C9.98029 11.8079 9.7932 11.8854 9.65527 12.0234L9.65525 12.0234C9.5173 12.1613 9.43981 12.3484 9.43981 12.5435V13.279H9.485C9.65069 13.279 9.785 13.4134 9.785 13.579C9.785 13.7447 9.65069 13.879 9.485 13.879H9.13981C8.97412 13.879 8.83981 13.7447 8.83981 13.579V12.5435C8.83981 12.1893 8.9805 11.8496 9.23098 11.5991C9.41214 11.4179 9.63998 11.2942 9.88623 11.2396C9.87977 11.2151 9.87634 11.1894 9.87634 11.1629V10.4484H5.17983V12.2539C5.59948 12.3823 5.90494 12.7728 5.90494 13.2343C5.90494 13.8002 5.44575 14.2594 4.87988 14.2594C4.314 14.2594 3.85482 13.8002 3.85482 13.2343C3.85482 12.7729 4.16023 12.3823 4.57983 12.2539V10.5241C4.22307 10.6215 3.89427 10.8105 3.62819 11.0766C3.22597 11.4788 3 12.0243 3 12.5931V13.9155C3 14.1917 2.77614 14.4155 2.5 14.4155C2.22386 14.4155 2 14.1917 2 13.9155V12.5931C2 11.7591 2.33132 10.9592 2.92108 10.3695ZM4.88607 12.8093L4.87983 12.8094L4.87364 12.8093C4.64201 12.8127 4.45482 13.0019 4.45482 13.2343C4.45482 13.4688 4.6454 13.6594 4.87988 13.6594C5.11436 13.6594 5.30494 13.4688 5.30494 13.2343C5.30494 13.0019 5.11771 12.8126 4.88607 12.8093Z" fill="#212121"/>
</svg>
