<svg width="16" height="16" viewBox="0 0 16 16" fill="none" xmlns="http://www.w3.org/2000/svg">
<g clip-path="url(#clip0_97_2444)">
<path d="M8.00016 14.6666C11.6821 14.6666 14.6668 11.6818 14.6668 7.99992C14.6668 4.31802 11.6821 1.33325 8.00016 1.33325C4.31826 1.33325 1.3335 4.31802 1.3335 7.99992C1.3335 11.6818 4.31826 14.6666 8.00016 14.6666Z" stroke="#212121" stroke-width="1.33333" stroke-linecap="round" stroke-linejoin="round"/>
<path d="M8.00016 10.6666C9.47292 10.6666 10.6668 9.47268 10.6668 7.99992C10.6668 6.52716 9.47292 5.33325 8.00016 5.33325C6.5274 5.33325 5.3335 6.52716 5.3335 7.99992C5.3335 9.47268 6.5274 10.6666 8.00016 10.6666Z" stroke="#212121" stroke-width="1.33333" stroke-linecap="round" stroke-linejoin="round"/>
<path d="M14.1133 5.33325H8" stroke="#212121" stroke-width="1.33333" stroke-linecap="round" stroke-linejoin="round"/>
<path d="M2.6333 4.04004L5.6933 9.33337" stroke="#212121" stroke-width="1.33333" stroke-linecap="round" stroke-linejoin="round"/>
<path d="M7.25342 14.6266L10.3068 9.33325" stroke="#212121" stroke-width="1.33333" stroke-linecap="round" stroke-linejoin="round"/>
</g>
<defs>
<clipPath id="clip0_97_2444">
<rect width="16" height="16" fill="white"/>
</clipPath>
</defs>
</svg>
