<svg width="16" height="16" viewBox="0 0 16 16" fill="none" xmlns="http://www.w3.org/2000/svg">
<path d="M11.2941 7.17647V4.70588H8.82353V3.47059H11.2941V1H12.5294V3.47059H15V4.70588H12.5294V7.17647H11.2941ZM14.1273 15C12.5753 15 11.0162 14.6392 9.44982 13.9175C7.88361 13.1958 6.44456 12.1778 5.13268 10.8634C3.82093 9.54892 2.80422 8.1098 2.08253 6.54606C1.36084 4.98245 1 3.42468 1 1.87274C1 1.62334 1.08235 1.41554 1.24706 1.24932C1.41176 1.08311 1.61765 1 1.86471 1H4.55065C4.75859 1 4.94203 1.06787 5.10097 1.20362C5.25991 1.33923 5.361 1.50681 5.40424 1.70638L5.87632 4.12941C5.90899 4.35424 5.90213 4.54742 5.85574 4.70897C5.80921 4.87052 5.72576 5.0062 5.60538 5.116L3.70344 6.9675C4.00952 7.52805 4.35925 8.05833 4.75262 8.55835C5.14585 9.05824 5.57162 9.53568 6.02991 9.99068C6.48176 10.4427 6.96215 10.8624 7.47109 11.2499C7.98003 11.6373 8.5296 11.9979 9.11979 12.3316L10.9678 10.4675C11.0967 10.3334 11.2527 10.2394 11.436 10.1854C11.6191 10.1316 11.8094 10.1185 12.0069 10.1459L14.2936 10.6116C14.5016 10.6665 14.6713 10.7726 14.8028 10.9299C14.9343 11.0872 15 11.2656 15 11.4652V14.1353C15 14.3824 14.9169 14.5882 14.7507 14.7529C14.5845 14.9176 14.3767 15 14.1273 15ZM3.11894 5.79871L4.58874 4.39232C4.61509 4.37119 4.63225 4.34216 4.64021 4.30523C4.64817 4.26831 4.64686 4.234 4.63629 4.20229L4.27826 2.36191C4.2677 2.31978 4.24924 2.28814 4.22288 2.267C4.19653 2.24586 4.16222 2.23529 4.11994 2.23529H2.35882C2.32712 2.23529 2.3007 2.24586 2.27956 2.267C2.25856 2.28814 2.24806 2.31456 2.24806 2.34627C2.2902 2.90901 2.38229 3.48068 2.52435 4.06126C2.66627 4.64199 2.86447 5.22114 3.11894 5.79871ZM10.2836 12.9159C10.8295 13.1703 11.3988 13.3649 11.9916 13.4995C12.5846 13.634 13.1386 13.714 13.6537 13.7394C13.6854 13.7394 13.7119 13.7288 13.733 13.7077C13.7541 13.6865 13.7647 13.6601 13.7647 13.6284V11.8959C13.7647 11.8536 13.7541 11.8193 13.733 11.793C13.7119 11.7666 13.6802 11.7482 13.6381 11.7376L11.9087 11.3859C11.877 11.3754 11.8492 11.3741 11.8255 11.382C11.8018 11.39 11.7766 11.4071 11.7501 11.4335L10.2836 12.9159Z" fill="#212121"/>
</svg>
