<svg width="16" height="16" viewBox="0 0 16 16" fill="none" xmlns="http://www.w3.org/2000/svg">
<path d="M10.8675 10.1874C10.3287 10.1874 9.87072 9.99501 9.49356 9.61012C9.1164 9.22524 8.92782 8.75787 8.92782 8.20801C8.92782 7.65816 9.1164 7.19079 9.49356 6.80591C9.87072 6.42102 10.3287 6.22858 10.8675 6.22858C11.4063 6.22858 11.8643 6.42102 12.2415 6.80591C12.6186 7.19079 12.8072 7.65816 12.8072 8.20801C12.8072 8.75787 12.6186 9.22524 12.2415 9.61012C11.8643 9.99501 11.4063 10.1874 10.8675 10.1874ZM10.8675 9.0686C11.1028 9.0686 11.3021 8.98518 11.4656 8.81835C11.6291 8.65151 11.7108 8.44807 11.7108 8.20801C11.7108 7.96796 11.6291 7.76451 11.4656 7.59768C11.3021 7.43072 11.1028 7.34724 10.8675 7.34724C10.6323 7.34724 10.4329 7.43072 10.2694 7.59768C10.106 7.76451 10.0242 7.96796 10.0242 8.20801C10.0242 8.44807 10.106 8.65151 10.2694 8.81835C10.4329 8.98518 10.6323 9.0686 10.8675 9.0686ZM7.39561 15C7.2085 15 7.05159 14.9354 6.9249 14.8061C6.79832 14.6769 6.73504 14.5168 6.73504 14.3257V13.095C6.73504 12.879 6.78547 12.676 6.88634 12.4858C6.98721 12.2955 7.1284 12.1439 7.30991 12.0308C7.6716 11.8088 7.9806 11.6537 8.23691 11.5653C8.49322 11.4768 8.83079 11.397 9.24961 11.3261C9.38556 11.3024 9.51957 11.3053 9.65162 11.3346C9.7838 11.364 9.89392 11.4315 9.982 11.5373L10.8675 12.6547L11.7348 11.5373C11.8228 11.4226 11.933 11.3528 12.0651 11.3279C12.1972 11.3031 12.3317 11.3024 12.4688 11.3261C12.8913 11.397 13.229 11.4766 13.482 11.5646C13.7352 11.6525 14.0458 11.8079 14.414 12.0308C14.5957 12.1435 14.7377 12.2946 14.8397 12.4841C14.942 12.6734 14.9954 12.8747 15 13.0879V14.3257C15 14.5168 14.9367 14.6769 14.8101 14.8061C14.6834 14.9354 14.5265 15 14.3394 15H7.39561ZM7.81316 13.8811H10.4191L9.28488 12.4065C9.02662 12.4733 8.77554 12.56 8.53166 12.6666C8.28777 12.7734 8.04827 12.8923 7.81316 13.0234V13.8811ZM11.3159 13.8811H13.9036V13.0234C13.6759 12.8846 13.4401 12.7651 13.1963 12.6648C12.9525 12.5643 12.7015 12.4807 12.4432 12.4138L11.3159 13.8811ZM2.09639 12.5615V2.11885V4.75971V4.44979V12.5615ZM2.32462 13.6803C1.95794 13.6803 1.64547 13.5483 1.38721 13.2842C1.12907 13.0202 1 12.7027 1 12.3319V2.3484C1 1.97757 1.12937 1.66012 1.38812 1.39607C1.64687 1.13202 1.95794 1 2.32133 1H12.1044C12.4678 1 12.7789 1.13202 13.0376 1.39607C13.2964 1.66012 13.4258 1.97757 13.4258 2.3484V5.59009C13.273 5.41319 13.1102 5.24753 12.9373 5.09313C12.7645 4.93873 12.5618 4.83138 12.3294 4.77109V2.3484C12.3294 2.2814 12.3083 2.22639 12.2661 2.18337C12.224 2.14036 12.1701 2.11885 12.1044 2.11885H2.32133C2.25567 2.11885 2.20177 2.14036 2.15962 2.18337C2.11747 2.22639 2.09639 2.2814 2.09639 2.3484V12.3319C2.09639 12.3989 2.11747 12.4539 2.15962 12.4969C2.20177 12.54 2.25567 12.5615 2.32133 12.5615H5.05939C5.03697 12.6503 5.0201 12.7393 5.00877 12.8283C4.99756 12.9172 4.99196 13.0061 4.99196 13.095V13.6803H2.32462ZM4.28917 5.00194H9.01206C9.2585 4.82504 9.52487 4.69358 9.81115 4.60755C10.0974 4.52152 10.3886 4.47372 10.6848 4.46415V4.44271C10.6848 4.2842 10.6322 4.15131 10.5271 4.04402C10.4221 3.93686 10.2919 3.88328 10.1366 3.88328H4.28917C4.13385 3.88328 4.00369 3.93692 3.89868 4.04421C3.79354 4.15137 3.74098 4.28426 3.74098 4.44289C3.74098 4.6014 3.79354 4.73423 3.89868 4.84139C4.00369 4.94843 4.13385 5.00194 4.28917 5.00194ZM4.28917 7.89958H7.21983C7.22921 7.70068 7.25546 7.50917 7.29858 7.32505C7.34171 7.14106 7.39793 6.95962 7.46725 6.78073H4.28917C4.13385 6.78073 4.00369 6.83437 3.89868 6.94166C3.79354 7.04895 3.74098 7.18184 3.74098 7.34034C3.74098 7.49897 3.79354 7.6318 3.89868 7.73884C4.00369 7.846 4.13385 7.89958 4.28917 7.89958ZM4.28917 10.797H6.02312C6.15286 10.69 6.28917 10.5918 6.43207 10.5024C6.57497 10.4129 6.72091 10.3333 6.86989 10.2635V10.1373C6.86989 10.0148 6.83804 9.90773 6.77433 9.81599C6.71061 9.72424 6.59257 9.67837 6.42019 9.67837H4.28917C4.13385 9.67837 4.00369 9.73195 3.89868 9.83911C3.79354 9.9464 3.74098 10.0794 3.74098 10.238C3.74098 10.3965 3.79354 10.5293 3.89868 10.6365C4.00369 10.7435 4.13385 10.797 4.28917 10.797Z" fill="#212121"/>
</svg>
