<svg width="16" height="16" viewBox="0 0 16 16" fill="none" xmlns="http://www.w3.org/2000/svg">
<g clip-path="url(#clip0_1192_13233)">
<path d="M6 1H2C1.44875 1 1 1.44875 1 2V6C1 6.55125 1.44875 7 2 7H6C6.55125 7 7 6.55125 7 6V2C7 1.44875 6.55125 1 6 1Z" fill="#212121"/>
<path d="M14 1H10C9.44875 1 9 1.44875 9 2V6C9 6.55125 9.44875 7 10 7H14C14.5512 7 15 6.55125 15 6V2C15 1.44875 14.5512 1 14 1Z" fill="#212121"/>
<path d="M6 9H2C1.44875 9 1 9.44875 1 10V14C1 14.5512 1.44875 15 2 15H6C6.55125 15 7 14.5512 7 14V10C7 9.44875 6.55125 9 6 9Z" fill="#212121"/>
<path d="M14 9H10C9.44875 9 9 9.44875 9 10V14C9 14.5512 9.44875 15 10 15H14C14.5512 15 15 14.5512 15 14V10C15 9.44875 14.5512 9 14 9Z" fill="#212121"/>
</g>
<defs>
<clipPath id="clip0_1192_13233">
<rect width="16" height="16" fill="white"/>
</clipPath>
</defs>
</svg>
