<svg width="16" height="16" viewBox="0 0 16 16" fill="none" xmlns="http://www.w3.org/2000/svg">
<path d="M3.3335 3.66659C3.3335 3.04775 3.57933 2.45425 4.01691 2.01667C4.4545 1.57908 5.04799 1.33325 5.66683 1.33325H8.00016V5.99992H5.66683C5.04799 5.99992 4.4545 5.75409 4.01691 5.3165C3.57933 4.87892 3.3335 4.28542 3.3335 3.66659Z" stroke="#212121" stroke-width="1.33333" stroke-linecap="round" stroke-linejoin="round"/>
<path d="M8 1.33325H10.3333C10.6398 1.33325 10.9432 1.39361 11.2263 1.51087C11.5094 1.62813 11.7666 1.8 11.9832 2.01667C12.1999 2.23334 12.3718 2.49056 12.4891 2.77366C12.6063 3.05675 12.6667 3.36017 12.6667 3.66659C12.6667 3.973 12.6063 4.27642 12.4891 4.55951C12.3718 4.84261 12.1999 5.09983 11.9832 5.3165C11.7666 5.53317 11.5094 5.70504 11.2263 5.8223C10.9432 5.93957 10.6398 5.99992 10.3333 5.99992H8V1.33325Z" stroke="#212121" stroke-width="1.33333" stroke-linecap="round" stroke-linejoin="round"/>
<path d="M8 8.33333C8 8.02692 8.06035 7.7235 8.17761 7.44041C8.29488 7.15731 8.46675 6.90009 8.68342 6.68342C8.90009 6.46675 9.15731 6.29488 9.44041 6.17761C9.7235 6.06035 10.0269 6 10.3333 6C10.6398 6 10.9432 6.06035 11.2263 6.17761C11.5094 6.29488 11.7666 6.46675 11.9832 6.68342C12.1999 6.90009 12.3718 7.15731 12.4891 7.44041C12.6063 7.7235 12.6667 8.02692 12.6667 8.33333C12.6667 8.63975 12.6063 8.94317 12.4891 9.22626C12.3718 9.50935 12.1999 9.76658 11.9832 9.98325C11.7666 10.1999 11.5094 10.3718 11.2263 10.4891C10.9432 10.6063 10.6398 10.6667 10.3333 10.6667C10.0269 10.6667 9.7235 10.6063 9.44041 10.4891C9.15731 10.3718 8.90009 10.1999 8.68342 9.98325C8.46675 9.76658 8.29488 9.50935 8.17761 9.22626C8.06035 8.94317 8 8.63975 8 8.33333Z" stroke="#212121" stroke-width="1.33333" stroke-linecap="round" stroke-linejoin="round"/>
<path d="M3.3335 13.0001C3.3335 12.3812 3.57933 11.7877 4.01691 11.3502C4.4545 10.9126 5.04799 10.6667 5.66683 10.6667H8.00016V13.0001C8.00016 13.6189 7.75433 14.2124 7.31675 14.65C6.87916 15.0876 6.28567 15.3334 5.66683 15.3334C5.04799 15.3334 4.4545 15.0876 4.01691 14.65C3.57933 14.2124 3.3335 13.6189 3.3335 13.0001Z" stroke="#212121" stroke-width="1.33333" stroke-linecap="round" stroke-linejoin="round"/>
<path d="M3.3335 8.33333C3.3335 7.71449 3.57933 7.121 4.01691 6.68342C4.4545 6.24583 5.04799 6 5.66683 6H8.00016V10.6667H5.66683C5.04799 10.6667 4.4545 10.4208 4.01691 9.98325C3.57933 9.54566 3.3335 8.95217 3.3335 8.33333Z" stroke="#212121" stroke-width="1.33333" stroke-linecap="round" stroke-linejoin="round"/>
</svg>
