<svg width="16" height="16" viewBox="0 0 16 16" fill="none" xmlns="http://www.w3.org/2000/svg">
<g clip-path="url(#clip0_1484_312)">
<path d="M7.82826 12.7192L3.93801 15.0652C3.79301 15.1499 3.64776 15.1855 3.50226 15.172C3.35676 15.1585 3.22509 15.1095 3.10726 15.025C2.98926 14.9403 2.89817 14.8298 2.83401 14.6932C2.77001 14.5567 2.75976 14.4057 2.80326 14.2402L3.83601 9.823L0.401506 6.85C0.273172 6.7385 0.191422 6.60933 0.156256 6.4625C0.120922 6.31567 0.130172 6.173 0.184006 6.0345C0.237839 5.89617 0.315422 5.78308 0.416756 5.69525C0.518089 5.60742 0.656589 5.55 0.832256 5.523L5.36476 5.127L7.12451 0.95575C7.18851 0.800583 7.28559 0.685832 7.41576 0.611499C7.54592 0.537166 7.68342 0.5 7.82826 0.5C7.97309 0.5 8.11059 0.537166 8.24076 0.611499C8.37092 0.685832 8.46801 0.800583 8.53201 0.95575L10.2918 5.127L14.8243 5.523C14.9999 5.55 15.1384 5.60742 15.2398 5.69525C15.3411 5.78308 15.4187 5.89617 15.4725 6.0345C15.5263 6.173 15.5356 6.31567 15.5003 6.4625C15.4651 6.60933 15.3833 6.7385 15.255 6.85L11.8205 9.823L12.8533 14.2402C12.8968 14.4057 12.8865 14.5567 12.8225 14.6932C12.7583 14.8298 12.6673 14.9403 12.5493 15.025C12.4314 15.1095 12.2998 15.1585 12.1543 15.172C12.0088 15.1855 11.8635 15.1499 11.7185 15.0652L7.82826 12.7192Z" fill="#F8CFCF"/>
</g>
<defs>
<clipPath id="clip0_1484_312">
<rect width="16" height="16" fill="white"/>
</clipPath>
</defs>
</svg>
