<svg width="16" height="16" viewBox="0 0 16 16" fill="none" xmlns="http://www.w3.org/2000/svg">
<path d="M8.00016 12.6666C10.5775 12.6666 12.6668 10.5772 12.6668 7.99992C12.6668 5.42259 10.5775 3.33325 8.00016 3.33325C5.42283 3.33325 3.3335 5.42259 3.3335 7.99992C3.3335 10.5772 5.42283 12.6666 8.00016 12.6666Z" stroke="#212121" stroke-width="1.33333" stroke-linecap="round" stroke-linejoin="round"/>
<path d="M8 6V8L9 9" stroke="#212121" stroke-width="1.33333" stroke-linecap="round" stroke-linejoin="round"/>
<path d="M11.0068 11.5668L10.7735 14.1201C10.7434 14.4525 10.5898 14.7616 10.3429 14.9862C10.0961 15.2109 9.77393 15.3348 9.44015 15.3334H6.55348C6.2197 15.3348 5.89755 15.2109 5.65069 14.9862C5.40382 14.7616 5.25019 14.4525 5.22015 14.1201L4.98682 11.5668M4.99348 4.43343L5.22682 1.88009C5.25675 1.54881 5.40944 1.24068 5.65489 1.01619C5.90035 0.791706 6.22085 0.667072 6.55348 0.666759H9.45348C9.78726 0.665405 10.1094 0.789291 10.3563 1.01394C10.6031 1.23859 10.7568 1.54766 10.7868 1.88009L11.0202 4.43343" stroke="#212121" stroke-width="1.33333" stroke-linecap="round" stroke-linejoin="round"/>
</svg>
