<svg width="16" height="16" viewBox="0 0 16 16" fill="none" xmlns="http://www.w3.org/2000/svg">
<path d="M11.511 14C11.6832 14 11.8275 13.937 11.9438 13.8111C12.06 13.6853 12.118 13.5292 12.118 13.3426C12.118 13.156 12.06 12.9999 11.9438 12.8741C11.8275 12.7482 11.6832 12.6852 11.511 12.6852H6.30887C5.46408 12.6852 4.73713 12.3832 4.12803 11.7791C3.51879 11.1751 3.21416 10.4293 3.21416 9.5415C3.21416 8.65371 3.51879 7.90917 4.12803 7.30786C4.73713 6.70671 5.46408 6.40613 6.30887 6.40613H11.992L10.1661 8.38337C10.0488 8.51047 9.99022 8.66445 9.99022 8.84531C9.99022 9.02617 10.0488 9.18015 10.1661 9.30724C10.2833 9.4342 10.4268 9.49628 10.5965 9.49351C10.7662 9.49059 10.907 9.4285 11.019 9.30724L13.793 6.30335C13.8688 6.22125 13.9222 6.13469 13.9533 6.04368C13.9844 5.95267 14 5.85435 14 5.74873C14 5.6431 13.9844 5.54479 13.9533 5.45377C13.9222 5.36276 13.8688 5.2762 13.793 5.1941L11.019 2.19043C10.9018 2.06348 10.7597 2 10.5926 2C10.4255 2 10.2833 2.06348 10.1661 2.19043C10.0488 2.31738 9.9915 2.47274 9.99406 2.65652C9.99663 2.84016 10.054 2.99268 10.1661 3.11408L11.992 5.09132H6.30887C5.12479 5.09132 4.11062 5.51922 3.26637 6.37501C2.42212 7.2308 2 8.2863 2 9.5415C2 10.7967 2.42212 11.8536 3.26637 12.7121C4.11062 13.5707 5.12479 14 6.30887 14H11.511Z" fill="#212121"/>
</svg>
