<svg width="16" height="16" viewBox="0 0 16 16" fill="none" xmlns="http://www.w3.org/2000/svg">
<path d="M10.6665 2H0.666504V10.6667H10.6665V2Z" stroke="#212121" stroke-width="1.33333" stroke-linecap="round" stroke-linejoin="round"/>
<path d="M10.6665 5.33325H13.3332L15.3332 7.33325V10.6666H10.6665V5.33325Z" stroke="#212121" stroke-width="1.33333" stroke-linecap="round" stroke-linejoin="round"/>
<path d="M3.66667 14.0001C4.58714 14.0001 5.33333 13.2539 5.33333 12.3334C5.33333 11.4129 4.58714 10.6667 3.66667 10.6667C2.74619 10.6667 2 11.4129 2 12.3334C2 13.2539 2.74619 14.0001 3.66667 14.0001Z" stroke="#212121" stroke-width="1.33333" stroke-linecap="round" stroke-linejoin="round"/>
<path d="M12.3332 14.0001C13.2536 14.0001 13.9998 13.2539 13.9998 12.3334C13.9998 11.4129 13.2536 10.6667 12.3332 10.6667C11.4127 10.6667 10.6665 11.4129 10.6665 12.3334C10.6665 13.2539 11.4127 14.0001 12.3332 14.0001Z" stroke="#212121" stroke-width="1.33333" stroke-linecap="round" stroke-linejoin="round"/>
</svg>
