<svg width="16" height="16" viewBox="0 0 16 16" fill="none" xmlns="http://www.w3.org/2000/svg">
<path d="M14.9847 10.9311L14.2986 9.32759C14.272 9.26476 14.2107 9.22425 14.1431 9.22425C14.1344 9.22425 14.1263 9.22484 14.1176 9.22601C14.0991 9.22895 14.0766 9.23012 14.0477 9.23012C13.909 9.23012 13.5835 9.19489 13.124 9.09625C12.624 8.9888 12.3731 8.89368 12.2881 8.85787L12.2187 8.82852L12.2199 1.17203C12.2199 1.0775 12.1442 1 12.0505 1H1.16936C1.0763 1 1 1.07692 1 1.17203V14.3136C1 14.4082 1.07572 14.4857 1.16936 14.4857H11.2269L11.2569 14.508C11.4754 14.673 11.713 14.8303 11.9627 14.9771C11.9887 14.9924 12.0176 15 12.0477 15C12.0772 15 12.1067 14.9918 12.1327 14.9771C13.7547 14.0242 14.7183 12.6954 14.9974 11.0285C15.0032 10.9956 14.9992 10.9615 14.9859 10.931L14.9847 10.9311ZM8.14815 4.25929C8.14815 4.16475 8.22387 4.08726 8.31751 4.08726C8.41116 4.08726 8.48688 4.16417 8.48688 4.25929V4.43132H9.26262V3.8107H8.54179C8.32503 3.8107 8.14873 3.63162 8.14873 3.41145V2.96521C8.14873 2.74503 8.32503 2.56595 8.54179 2.56595H8.72734V2.30584C8.72734 2.21131 8.80307 2.13381 8.89671 2.13381C8.99035 2.13381 9.06607 2.21073 9.06607 2.30584V2.56595H9.20885C9.42561 2.56595 9.60192 2.74503 9.60192 2.96521V3.06737C9.60192 3.1619 9.52619 3.2394 9.43255 3.2394C9.33891 3.2394 9.26319 3.16248 9.26319 3.06737V2.90943H8.48744V3.46662H9.20827C9.42503 3.46662 9.60134 3.6457 9.60134 3.86588V4.37552C9.60134 4.59569 9.42503 4.77477 9.20827 4.77477H9.0655V5.03488C9.0655 5.12941 8.98977 5.20691 8.89613 5.20691C8.80249 5.20691 8.72677 5.13 8.72677 5.03488V4.77477H8.54121C8.32445 4.77477 8.14815 4.59569 8.14815 4.37552V4.25929ZM5.97416 4.25929C5.97416 4.16475 6.04989 4.08726 6.14353 4.08726C6.23717 4.08726 6.31289 4.16417 6.31289 4.25929V4.43132H7.08864V3.8107H6.36781C6.15104 3.8107 5.97474 3.63162 5.97474 3.41145V2.96521C5.97474 2.74503 6.15104 2.56595 6.36781 2.56595H6.55336V2.30584C6.55336 2.21131 6.62908 2.13381 6.72272 2.13381C6.81637 2.13381 6.89209 2.21073 6.89209 2.30584V2.56595H7.03486C7.25163 2.56595 7.42793 2.74503 7.42793 2.96521V3.06737C7.42793 3.1619 7.35221 3.2394 7.25857 3.2394C7.16492 3.2394 7.0892 3.16248 7.0892 3.06737V2.90943H6.31346V3.46662H7.03429C7.25105 3.46662 7.42735 3.6457 7.42735 3.86588V4.37552C7.42735 4.59569 7.25105 4.77477 7.03429 4.77477H6.89151V5.03488C6.89151 5.12941 6.81579 5.20691 6.72215 5.20691C6.6285 5.20691 6.55278 5.13 6.55278 5.03488V4.77477H6.36723C6.15047 4.77477 5.97416 4.59569 5.97416 4.37552V4.25929ZM3.80018 4.25929C3.80018 4.16475 3.8759 4.08726 3.96954 4.08726C4.06318 4.08726 4.13891 4.16417 4.13891 4.25929V4.43132H4.91465V3.8107H4.19382C3.97706 3.8107 3.80075 3.63162 3.80075 3.41145V2.96521C3.80075 2.74503 3.97706 2.56595 4.19382 2.56595H4.37937V2.30584C4.37937 2.21131 4.4551 2.13381 4.54874 2.13381C4.64238 2.13381 4.7181 2.21073 4.7181 2.30584V2.56595H4.86088C5.07764 2.56595 5.25395 2.74503 5.25395 2.96521V3.06737C5.25395 3.1619 5.17822 3.2394 5.08458 3.2394C4.99094 3.2394 4.91522 3.16248 4.91522 3.06737V2.90943H4.13947V3.46662H4.8603C5.07706 3.46662 5.25337 3.6457 5.25337 3.86588V4.37552C5.25337 4.59569 5.07706 4.77477 4.8603 4.77477H4.71752V5.03488C4.71752 5.12941 4.6418 5.20691 4.54816 5.20691C4.45452 5.20691 4.3788 5.13 4.3788 5.03488V4.77477H4.19324C3.97648 4.77477 3.80018 4.59569 3.80018 4.37552V4.25929ZM3.0279 6.04722H10.1922C10.2853 6.04722 10.3616 6.12414 10.3616 6.21925C10.3616 6.31437 10.2859 6.39128 10.1922 6.39128H3.0279C2.93483 6.39128 2.85853 6.31436 2.85853 6.21925C2.85853 6.12413 2.93426 6.04722 3.0279 6.04722ZM3.0279 7.1358H10.1922C10.2853 7.1358 10.3616 7.21271 10.3616 7.30783C10.3616 7.40294 10.2859 7.47986 10.1922 7.47986L3.0279 7.47927C2.93483 7.47927 2.85853 7.40235 2.85853 7.30724C2.85853 7.21213 2.93426 7.13521 3.0279 7.13521V7.1358ZM3.0279 8.22378H10.1922C10.2853 8.22378 10.3616 8.3007 10.3616 8.39581C10.3616 8.49093 10.2859 8.56784 10.1922 8.56784H3.0279C2.93483 8.56784 2.85853 8.49093 2.85853 8.39581C2.85853 8.3007 2.93426 8.22378 3.0279 8.22378ZM5.99964 12.921H3.06489C2.97182 12.921 2.89553 12.8441 2.89553 12.7489C2.89553 12.6538 2.97125 12.5769 3.06489 12.5769H5.99964C6.09271 12.5769 6.16901 12.6538 6.16901 12.7489C6.16901 12.8441 6.09328 12.921 5.99964 12.921ZM5.99964 11.833H3.06489C2.97182 11.833 2.89553 11.7561 2.89553 11.661C2.89553 11.5658 2.97125 11.4889 3.06489 11.4889H5.99964C6.09271 11.4889 6.16901 11.5658 6.16901 11.661C6.16901 11.7561 6.09328 11.833 5.99964 11.833ZM9.09215 10.7485H3.0279C2.93483 10.7485 2.85853 10.6716 2.85853 10.5765C2.85853 10.4814 2.93426 10.4045 3.0279 10.4045H9.09215C9.18521 10.4045 9.26151 10.4814 9.26151 10.5765C9.26151 10.6716 9.18579 10.7485 9.09215 10.7485ZM9.09215 9.63882H3.0279C2.93483 9.63882 2.85853 9.5619 2.85853 9.46679C2.85853 9.37167 2.93426 9.29476 3.0279 9.29476H9.09215C9.18521 9.29476 9.26151 9.37167 9.26151 9.46679C9.26151 9.56191 9.18579 9.63882 9.09215 9.63882ZM14.6478 11.0556C14.3773 12.5276 13.5217 13.7177 12.1055 14.5932L12.0471 14.6296L11.9887 14.5932C10.584 13.7254 9.73082 12.5476 9.45336 11.0932L9.447 11.058L10.0782 9.59068L10.1505 9.5895C10.4609 9.58363 10.8927 9.48793 11.1222 9.43097C11.3407 9.37754 11.7447 9.26892 11.9979 9.14621L12.0465 9.12272L12.095 9.14621C12.2858 9.23898 12.5951 9.33234 13.0141 9.42452C13.1124 9.44625 13.6193 9.55428 13.965 9.57131L14.035 9.57483L14.6535 11.021L14.6471 11.0556L14.6478 11.0556ZM13.5848 11.1813V12.1794C13.5848 12.2739 13.509 12.3514 13.4154 12.3514H12.7107V13.0672C12.7107 13.1617 12.635 13.2392 12.5414 13.2392H11.5587C11.4656 13.2392 11.3893 13.1623 11.3893 13.0672V12.3514H10.6847C10.5916 12.3514 10.5153 12.2745 10.5153 12.1794V11.1813C10.5153 11.0867 10.5911 11.0092 10.6847 11.0092H11.3893V10.2935C11.3893 10.199 11.4651 10.1215 11.5587 10.1215H12.5414C12.6345 10.1215 12.7107 10.1984 12.7107 10.2935V11.0092H13.4154C13.5085 11.0092 13.5848 11.0861 13.5848 11.1813Z" fill="black"/>
</svg>
