<svg width="16" height="16" viewBox="0 0 16 16" fill="none" xmlns="http://www.w3.org/2000/svg">
<g clip-path="url(#clip0_97_2468)">
<path d="M12.6665 11.2668C13.4766 11.1023 14.1966 10.6427 14.6869 9.9771C15.1772 9.31155 15.4027 8.48757 15.3196 7.66512C15.2365 6.84267 14.8508 6.08043 14.2373 5.52637C13.6239 4.97231 12.8264 4.66595 11.9998 4.66679H11.1598C10.9389 3.81166 10.5091 3.02478 9.90906 2.37678C9.30897 1.72877 8.55735 1.23994 7.72167 0.95416C6.886 0.668382 5.99244 0.594606 5.12122 0.739457C4.24999 0.884307 3.42837 1.24325 2.73013 1.78406C2.03189 2.32487 1.47888 3.03061 1.12075 3.83793C0.762621 4.64524 0.610586 5.52886 0.678295 6.40945C0.746004 7.29003 1.03134 8.14002 1.50867 8.8831C1.98601 9.62617 2.64041 10.2391 3.41313 10.6668" stroke="#212121" stroke-width="1.33333" stroke-linecap="round" stroke-linejoin="round"/>
<path d="M8.66667 7.33325L6 11.3333H10L7.33333 15.3333" stroke="#212121" stroke-width="1.33333" stroke-linecap="round" stroke-linejoin="round"/>
</g>
<defs>
<clipPath id="clip0_97_2468">
<rect width="16" height="16" fill="white"/>
</clipPath>
</defs>
</svg>
