<svg width="16" height="16" viewBox="0 0 16 16" fill="none" xmlns="http://www.w3.org/2000/svg">
<path d="M11.9998 1.33325H3.99984C3.26346 1.33325 2.6665 1.93021 2.6665 2.66659V13.3333C2.6665 14.0696 3.26346 14.6666 3.99984 14.6666H11.9998C12.7362 14.6666 13.3332 14.0696 13.3332 13.3333V2.66659C13.3332 1.93021 12.7362 1.33325 11.9998 1.33325Z" stroke="#212121" stroke-width="1.33333" stroke-linecap="round" stroke-linejoin="round"/>
<path d="M8.00016 12.0001C9.47292 12.0001 10.6668 10.8062 10.6668 9.33341C10.6668 7.86066 9.47292 6.66675 8.00016 6.66675C6.5274 6.66675 5.3335 7.86066 5.3335 9.33341C5.3335 10.8062 6.5274 12.0001 8.00016 12.0001Z" stroke="#212121" stroke-width="1.33333" stroke-linecap="round" stroke-linejoin="round"/>
<path d="M8 4H8.00667" stroke="#212121" stroke-width="1.33333" stroke-linecap="round" stroke-linejoin="round"/>
</svg>
