<svg width="16" height="16" viewBox="0 0 16 16" fill="none" xmlns="http://www.w3.org/2000/svg">
<path d="M10.0001 15.4337L7.08105 12.5098L7.86899 11.7204L10.0001 13.855L14.2392 9.60889L15.0271 10.3983L10.0001 15.4337Z" fill="#212121"/>
<path d="M7.00052 1C7.42026 1.00008 7.77926 1.14398 8.07695 1.43065C8.37438 1.71711 8.54278 2.06458 8.58259 2.47329H11.724C12.076 2.47329 12.3773 2.60378 12.6267 2.864C12.8758 3.1242 12.9999 3.43803 13 3.80518V8.06206C12.6656 7.90618 12.3109 7.79002 11.9411 7.71775V3.80518C11.941 3.7487 11.919 3.69674 11.8739 3.64976C11.8288 3.60248 11.7784 3.57852 11.724 3.57852H2.276C2.22175 3.57855 2.17221 3.60262 2.1271 3.64976C2.08193 3.69679 2.05898 3.74862 2.05885 3.80518V13.6681C2.05898 13.7247 2.08193 13.7765 2.1271 13.8235C2.17221 13.8707 2.22175 13.8947 2.276 13.8948H6.45661C6.55651 14.2841 6.70042 14.6545 6.88264 15H2.276C1.92411 15 1.62368 14.8694 1.37432 14.6093C1.12512 14.349 1.0001 14.0353 1 13.6681V3.80518C1.0001 3.43795 1.12512 3.12424 1.37432 2.864C1.62368 2.60393 1.92411 2.47331 2.276 2.47329H5.41741C5.4618 2.06456 5.63285 1.71712 5.93029 1.43065C6.22794 1.14391 6.58509 1 7.00052 1ZM6.53417 11.0464C6.42273 11.3991 6.34808 11.769 6.31495 12.1516H3.64714V11.0464H6.53417ZM8.87626 8.18403C8.35748 8.46367 7.89414 8.83929 7.50823 9.28926H3.64714V8.18403H8.87626ZM10.3529 5.32164V6.42688H3.64714V5.32164H10.3529ZM7.00052 1.99191C6.84767 1.99191 6.721 2.04416 6.62103 2.14841C6.52103 2.25278 6.4711 2.3849 6.47109 2.54452C6.47109 2.70417 6.52102 2.83625 6.62103 2.94064C6.721 3.04491 6.84765 3.09714 7.00052 3.09714C7.15331 3.09706 7.28008 3.04494 7.38001 2.94064C7.47988 2.83629 7.52994 2.70406 7.52994 2.54452C7.52994 2.38498 7.4799 2.25276 7.38001 2.14841C7.28008 2.0441 7.15331 1.99198 7.00052 1.99191Z" fill="#212121"/>
</svg>
