<svg width="16" height="16" viewBox="0 0 16 16" fill="none" xmlns="http://www.w3.org/2000/svg">
<path d="M1 4.33333V1H4.33333V2.33333H2.33333V4.33333H1ZM13 4.33333V2.33333H11V1H14.3333V4.33333H13ZM1 15.6667V12.3333H2.33333V14.3333H4.33333V15.6667H1ZM11 15.6667V14.3333H13V12.3333H14.3333V15.6667H11ZM4.33333 12.3333H11V4.33333H4.33333V12.3333ZM4.33333 13.6667C3.96667 13.6667 3.65278 13.5361 3.39167 13.275C3.13056 13.0139 3 12.7 3 12.3333V4.33333C3 3.96667 3.13056 3.65278 3.39167 3.39167C3.65278 3.13056 3.96667 3 4.33333 3H11C11.3667 3 11.6806 3.13056 11.9417 3.39167C12.2028 3.65278 12.3333 3.96667 12.3333 4.33333V12.3333C12.3333 12.7 12.2028 13.0139 11.9417 13.275C11.6806 13.5361 11.3667 13.6667 11 13.6667H4.33333ZM5.66667 7H9.66667V5.66667H5.66667V7ZM5.66667 9H9.66667V7.66667H5.66667V9ZM5.66667 11H9.66667V9.66667H5.66667V11Z" fill="#212121"/>
</svg>
