<svg width="16" height="16" viewBox="0 0 16 16" fill="none" xmlns="http://www.w3.org/2000/svg">
<g clip-path="url(#clip0_1351_2598)">
<path d="M11.4583 3.50204H14.1231L11.3184 0.747314V3.36234C11.3184 3.43933 11.3811 3.50204 11.4583 3.50204Z" fill="#212121"/>
<path d="M11.4583 4.38089C10.8967 4.38089 10.4396 3.92395 10.4396 3.36227V0.492188H3.1319C2.22772 0.492188 1.49219 1.22772 1.49219 2.1319V13.8525C1.49219 14.7567 2.22772 15.4922 3.1319 15.4922H12.7431C13.6474 15.4922 14.3828 14.7567 14.3828 13.8525V4.38089H11.4583ZM10.4845 13.5H4.82425C4.58154 13.5 4.3848 13.3033 4.3848 13.0605C4.3848 12.8178 4.58154 12.6211 4.82425 12.6211H10.4845C10.7273 12.6211 10.924 12.8178 10.924 13.0605C10.924 13.3033 10.7273 13.5 10.4845 13.5ZM4.3848 11.3027C4.3848 11.06 4.58154 10.8633 4.82425 10.8633H9.87521C10.118 10.8633 10.3147 11.06 10.3147 11.3027C10.3147 11.5454 10.1178 11.7422 9.87521 11.7422H4.82425C4.58154 11.7422 4.3848 11.5454 4.3848 11.3027ZM11.0189 9.98438H4.82425C4.58154 9.98438 4.3848 9.78763 4.3848 9.54492C4.3848 9.30222 4.58154 9.10547 4.82425 9.10547H11.0189C11.2616 9.10547 11.4583 9.30222 11.4583 9.54492C11.4583 9.78763 11.2616 9.98438 11.0189 9.98438Z" fill="#212121"/>
<path d="M7.72 5.77949L7.2954 5.35372C7.25571 5.31398 7.20929 5.29368 7.15613 5.29283C7.10298 5.29199 7.05571 5.31228 7.01433 5.35372C6.973 5.39521 6.95233 5.44286 6.95233 5.49669C6.95233 5.55047 6.973 5.59811 7.01433 5.63959L7.55127 6.18206C7.59949 6.23036 7.65573 6.25451 7.72 6.25451C7.78427 6.25451 7.84051 6.23036 7.88873 6.18206L8.99387 5.07407C9.03351 5.03428 9.05376 4.98705 9.0546 4.93237C9.05544 4.87774 9.0352 4.82969 8.99387 4.7882C8.95249 4.74672 8.90496 4.72597 8.85127 4.72597C8.79762 4.72597 8.75011 4.74672 8.70873 4.7882L7.72 5.77949ZM8 8C7.97231 8 7.94513 7.99777 7.91847 7.99332C7.8918 7.98886 7.86598 7.98218 7.841 7.97326C7.27864 7.77275 6.83122 7.41723 6.49873 6.90672C6.16624 6.39616 6 5.84526 6 5.254V4.0499C6 3.94875 6.02924 3.8575 6.08773 3.77613C6.14618 3.69472 6.22138 3.63568 6.31333 3.59901L7.83127 3.03088C7.88838 3.01029 7.94462 3 8 3C8.05538 3 8.11162 3.01029 8.16873 3.03088L9.68667 3.59901C9.77862 3.63568 9.85382 3.69472 9.91227 3.77613C9.97076 3.8575 10 3.94875 10 4.0499V5.254C10 5.84526 9.83376 6.39616 9.50127 6.90672C9.16878 7.41723 8.72136 7.77275 8.159 7.97326C8.13402 7.98218 8.1082 7.98886 8.08153 7.99332C8.05487 7.99777 8.02769 8 8 8Z" fill="#FEFEFE"/>
</g>
<defs>
<clipPath id="clip0_1351_2598">
<rect width="16" height="16" fill="white"/>
</clipPath>
</defs>
</svg>
