<svg width="16" height="16" viewBox="0 0 16 16" fill="none" xmlns="http://www.w3.org/2000/svg">
<path d="M10.9109 14.5524L11.8709 13.5536L10.4102 12.0448L9.44331 13.0364C9.2322 13.2544 9.12665 13.5071 9.12665 13.7944C9.12665 14.0816 9.2322 14.3343 9.44331 14.5524C9.65442 14.7704 9.89902 14.8795 10.1771 14.8795C10.4552 14.8795 10.6998 14.7704 10.9109 14.5524ZM12.6283 12.7711L13.5951 11.7797C13.8062 11.5616 13.9107 11.3089 13.9084 11.0217C13.9061 10.7344 13.7994 10.4817 13.5882 10.2637C13.3771 10.0504 13.1337 9.9425 12.8579 9.94013C12.5821 9.93763 12.3386 10.0455 12.1275 10.2637L11.1676 11.2622L12.6283 12.7711ZM11.6797 15.3536C11.2602 15.7869 10.7582 16.0024 10.1737 16C9.58907 15.9976 9.08705 15.7822 8.66761 15.3536C8.25276 14.9204 8.04419 14.4018 8.0419 13.7979C8.0396 13.1941 8.24817 12.6755 8.66761 12.2422L11.3587 9.4624C11.7736 9.03388 12.2756 8.81962 12.8648 8.81962C13.454 8.81962 13.956 9.03388 14.3708 9.4624C14.7903 9.89567 15 10.4142 15 11.0181C15 11.6219 14.7903 12.1404 14.3708 12.5736L11.6797 15.3536ZM2.31146 14.2382C1.94969 14.2382 1.64065 14.1059 1.38431 13.8412C1.1281 13.5764 1 13.2572 1 12.8835V2.85345C1 2.47976 1.1281 2.16052 1.38431 1.89574C1.64065 1.63108 1.94969 1.49876 2.31146 1.49876H5.53977C5.58535 1.08273 5.76116 0.728957 6.06718 0.437449C6.37309 0.145816 6.73951 0 7.16644 0C7.59797 0 7.96675 0.145816 8.27277 0.437449C8.5788 0.728957 8.75225 1.08273 8.79311 1.49876H12.0214C12.3832 1.49876 12.6922 1.63108 12.9486 1.89574C13.2048 2.16052 13.3329 2.47976 13.3329 2.85345V7.09025C13.1515 7.05178 12.9702 7.03498 12.7888 7.03985C12.6074 7.0446 12.4261 7.06089 12.2447 7.08875V2.85345C12.2447 2.78613 12.2238 2.73086 12.1819 2.68765C12.1401 2.64443 12.0866 2.62282 12.0214 2.62282H2.31146C2.24629 2.62282 2.19278 2.64443 2.15095 2.68765C2.10911 2.73086 2.0882 2.78613 2.0882 2.85345V12.8835C2.0882 12.9508 2.10911 13.0061 2.15095 13.0493C2.19278 13.0925 2.24629 13.1141 2.31146 13.1141H6.37677C6.34522 13.3015 6.32708 13.4888 6.32236 13.6762C6.31777 13.8635 6.33403 14.0508 6.37115 14.2382H2.31146ZM7.16644 2.13292C7.32363 2.13292 7.4536 2.07984 7.55638 1.97368C7.65915 1.86751 7.71054 1.73325 7.71054 1.57088C7.71054 1.40852 7.65915 1.27426 7.55638 1.16809C7.4536 1.06193 7.32363 1.00885 7.16644 1.00885C7.00926 1.00885 6.87928 1.06193 6.77651 1.16809C6.67373 1.27426 6.62234 1.40852 6.62234 1.57088C6.62234 1.73325 6.67373 1.86751 6.77651 1.97368C6.87928 2.07984 7.00926 2.13292 7.16644 2.13292ZM3.72049 5.51936V4.39548H10.6124V5.51936H3.72049ZM3.72049 8.43051V7.30644H10.6124V7.77761C10.5296 7.83531 10.451 7.89757 10.3766 7.96439C10.3023 8.03109 10.2237 8.10721 10.1408 8.19277L9.91069 8.43051H3.72049ZM3.72049 11.3415V10.2176H8.18064L7.63382 10.7824C7.54169 10.8775 7.45518 10.9707 7.37429 11.0619C7.2934 11.1532 7.21807 11.2464 7.14831 11.3415H3.72049Z" fill="#212121"/>
</svg>
