<svg width="16" height="16" viewBox="0 0 16 16" fill="none" xmlns="http://www.w3.org/2000/svg">
<path fill-rule="evenodd" clip-rule="evenodd" d="M8.15285 0.492188H2.63971C1.73553 0.492188 1 1.22772 1 2.1319V13.8525C1 14.7567 1.73553 15.4922 2.63971 15.4922H12.2509C13.1552 15.4922 13.8906 14.7567 13.8906 13.8525V7.31317C13.198 7.74833 12.3784 8 11.5 8C9.01472 8 7 5.98528 7 3.5C7 2.34369 7.43612 1.28925 8.15285 0.492188ZM4.36591 13.3945H10.0262C10.269 13.3945 10.4656 13.1978 10.4656 12.9551C10.4656 12.7124 10.269 12.5156 10.0262 12.5156H4.36591C4.1232 12.5156 3.92645 12.7124 3.92645 12.9551C3.92645 13.1978 4.1232 13.3945 4.36591 13.3945ZM4.36591 10.7578C4.1232 10.7578 3.92645 10.9546 3.92645 11.1973C3.92645 11.44 4.1232 11.6367 4.36591 11.6367H9.41687C9.65948 11.6367 9.85632 11.44 9.85632 11.1973C9.85632 10.9546 9.65967 10.7578 9.41687 10.7578H4.36591ZM4.36591 9.87891H10.5605C10.8033 9.87891 11 9.68216 11 9.43945C11 9.19675 10.8033 9 10.5605 9H4.36591C4.1232 9 3.92645 9.19675 3.92645 9.43945C3.92645 9.68216 4.1232 9.87891 4.36591 9.87891Z" fill="#212121"/>
<path d="M15 3.5C15 5.433 13.433 7 11.5 7C9.567 7 8 5.433 8 3.5C8 1.567 9.567 0 11.5 0C13.433 0 15 1.567 15 3.5Z" fill="#E54141"/>
<path d="M11.7901 1.77026V5.40663H11.0213V2.50002H11L10.1672 3.02204V2.34022L11.0674 1.77026H11.7901Z" fill="#FEFEFE"/>
</svg>
