<svg width="16" height="16" viewBox="0 0 16 16" fill="none" xmlns="http://www.w3.org/2000/svg">
<g clip-path="url(#clip0_1544_357)">
<path d="M15.9812 9.99127C15.9332 9.85153 15.7891 9.75837 15.6451 9.75837H12.7166V0.349345C12.7166 0.163028 12.5486 0 12.3565 0H8.1318H7.84375H3.61902C3.42699 0 3.25896 0.163028 3.25896 0.349345V9.73508H0.354455C0.21043 9.73508 0.0664053 9.82824 0.018397 9.96798C-0.0296114 10.1077 0.0183969 10.2707 0.138418 10.3639L7.98778 16L8.01178 15.9767L8.03579 16L15.8851 10.3639C15.9812 10.294 16.0292 10.131 15.9812 9.99127ZM7.98778 15.1616L1.45865 10.4571H3.64303C3.83506 10.4571 4.00309 10.294 4.00309 10.1077V0.69869H7.86776H8.15581H12.0205V10.0844C12.0205 10.2707 12.1885 10.4338 12.3805 10.4338H14.5649L7.98778 15.1616Z" fill="#212121"/>
<path d="M8.47469 5.97804C8.47469 5.97804 8.21225 5.73595 7.80768 5.85783C7.43624 5.96974 7.34401 6.47798 7.59642 6.67598C7.74136 6.78967 7.95945 6.88313 8.25338 6.98703C8.9112 7.21955 8.66803 8.14728 7.99887 8.15174C7.73773 8.15349 7.61564 8.1369 7.38623 7.98684" stroke="#212121" stroke-width="0.4" stroke-miterlimit="10" stroke-linecap="round" stroke-linejoin="round"/>
<path d="M7.99951 5.51022V8.49023" stroke="#212121" stroke-width="0.4" stroke-miterlimit="10" stroke-linecap="round" stroke-linejoin="round"/>
<path d="M10.9999 7C10.9999 8.65684 9.65679 10 7.99994 10C6.34312 10 5 8.65684 5 7C5 5.34314 6.34312 4 7.99994 4C9.65679 4 10.9999 5.34314 10.9999 7Z" stroke="#212121" stroke-width="0.7" stroke-miterlimit="10" stroke-linecap="round" stroke-linejoin="round"/>
</g>
<defs>
<clipPath id="clip0_1544_357">
<rect width="16" height="16" fill="white"/>
</clipPath>
</defs>
</svg>
