<svg width="16" height="16" viewBox="0 0 16 16" fill="none" xmlns="http://www.w3.org/2000/svg">
<g clip-path="url(#clip0_1193_13935)">
<g clip-path="url(#clip1_1193_13935)">
<path d="M5.12091 15.2001C5.34283 15.2001 5.57003 15.1988 5.80219 15.1988H10.1969C10.4287 15.1988 10.6559 15.2001 10.8779 15.2001C12.9113 15.2001 14.4651 15.0961 14.4651 12.9703C14.4651 10.7453 12.7635 8.91877 10.5903 8.72021C10.5731 9.49861 8.00027 11.4196 8.00027 11.4196C8.00027 11.4196 5.42683 9.49877 5.40939 8.72037C3.23659 8.91877 1.53467 10.7453 1.53467 12.9703C1.53467 15.0961 3.08779 15.2001 5.12091 15.2001ZM9.91979 12.2972C9.91979 12.2338 9.97691 12.1828 10.0479 12.1828H10.743V11.4881C10.743 11.4177 10.7937 11.3599 10.8571 11.3599H11.543C11.606 11.3599 11.6571 11.4172 11.6571 11.4881V12.1829H12.3518C12.4222 12.1829 12.4798 12.234 12.4798 12.2973V12.9829C12.4798 13.0463 12.4227 13.0973 12.3518 13.0973H11.6569V13.7921C11.6569 13.8628 11.6057 13.9201 11.5425 13.9201H10.8569C10.7935 13.9201 10.7425 13.8629 10.7425 13.7921V13.0972H10.0478C9.97707 13.0972 9.91963 13.0461 9.91963 12.9828L9.91979 12.2972Z" fill="#212121"/>
<path d="M8.00111 9.27877C9.96655 9.27877 11.5597 6.32341 11.5597 4.35813C11.5597 2.39317 9.96655 0.800049 8.00111 0.800049C6.03599 0.800049 4.44287 2.39317 4.44287 4.35813C4.44287 6.32341 6.03599 9.27877 8.00111 9.27877Z" fill="#212121"/>
</g>
</g>
<defs>
<clipPath id="clip0_1193_13935">
<rect width="16" height="16" fill="white"/>
</clipPath>
<clipPath id="clip1_1193_13935">
<rect width="16" height="16" fill="white"/>
</clipPath>
</defs>
</svg>
