<svg width="16" height="16" viewBox="0 0 16 16" fill="none" xmlns="http://www.w3.org/2000/svg">
<path d="M5.74902 1.00586C5.93999 1.02963 6.11342 1.13454 6.22168 1.29688L7.35645 3H13C13.5304 3 14.039 3.21097 14.4141 3.58594C14.7891 3.96093 14.9999 4.46968 15 5V7.4248C14.597 7.15502 14.1478 6.94907 13.667 6.82031V5C13.6669 4.82346 13.5964 4.65421 13.4717 4.5293C13.3467 4.40427 13.1768 4.33398 13 4.33398H7C6.77719 4.33398 6.56897 4.22244 6.44531 4.03711L5.31055 2.33398H2.33301C2.15631 2.33407 1.98725 2.40435 1.8623 2.5293C1.73736 2.65424 1.66708 2.82331 1.66699 3V12.334C1.66708 12.5107 1.73736 12.6797 1.8623 12.8047C1.98725 12.9296 2.15631 12.9999 2.33301 13H8.38965C8.61279 13.4996 8.92462 13.9505 9.30469 14.334H2.33301C1.80269 14.3339 1.29394 14.123 0.918945 13.748C0.543949 13.3731 0.333094 12.8643 0.333008 12.334V3C0.333094 2.46968 0.543949 1.96093 0.918945 1.58594C1.29394 1.21094 1.80269 1.00009 2.33301 1H5.66699L5.74902 1.00586Z" fill="#212121"/>
<path d="M13.8887 12.7393C13.5077 13.0438 13.0256 13.2275 12.5 13.2275C11.2701 13.2274 10.2735 12.2299 10.2734 11C10.2735 10.4744 10.4552 9.99128 10.7598 9.61035L13.8887 12.7393Z" fill="#212121"/>
<path d="M12.5 8.77344C13.7299 8.7735 14.7274 9.77006 14.7275 11C14.7275 11.5256 14.5438 12.0077 14.2393 12.3887L11.1104 9.25977C11.4913 8.95518 11.9744 8.77348 12.5 8.77344Z" fill="#212121"/>
<path fill-rule="evenodd" clip-rule="evenodd" d="M12.5 7.5C14.433 7.5 16 9.067 16 11C16 12.933 14.433 14.5 12.5 14.5C10.567 14.5 9 12.933 9 11C9 9.067 10.567 7.5 12.5 7.5ZM12.5 8.27734C10.9967 8.27744 9.77744 9.49674 9.77734 11C9.77741 12.5033 10.9967 13.7226 12.5 13.7227C14.0033 13.7226 15.2226 12.5033 15.2227 11C15.2226 9.49671 14.0033 8.27741 12.5 8.27734Z" fill="#212121"/>
</svg>
