<svg width="16" height="16" viewBox="0 0 16 16" fill="none" xmlns="http://www.w3.org/2000/svg">
<path d="M10.9167 15.5C9.78362 15.5 8.8198 15.1071 8.02521 14.3212C7.23063 13.5354 6.83333 12.5821 6.83333 11.4615C6.83333 10.3409 7.23063 9.38771 8.02521 8.60186C8.8198 7.816 9.78362 7.42308 10.9167 7.42308C12.0499 7.42308 13.0137 7.816 13.8081 8.60186C14.6027 9.38771 15 10.3409 15 11.4615C15 12.5821 14.6027 13.5354 13.8081 14.3212C13.0137 15.1071 12.0499 15.5 10.9167 15.5ZM12.428 13.5153L12.9933 12.9562L11.3182 11.2993V8.82106H10.5154V11.6238L12.428 13.5153Z" fill="#212121"/>
<path fill-rule="evenodd" clip-rule="evenodd" d="M10.2969 0.511268C10.4091 0.533395 10.5133 0.587799 10.5954 0.66902L12.9378 2.98573L13.0107 3.07362C13.074 3.1676 13.1087 3.27907 13.1087 3.39363V6.74249C12.7408 6.57502 12.35 6.44827 11.9421 6.36839V4.1745H10.5396C9.90626 4.17435 9.39254 3.66724 9.39225 3.04094V1.65385H2.16667V14.1918H6.45166C6.7214 14.6223 7.05254 15.011 7.43376 15.3456H2.1473C1.5142 15.3456 1.00023 14.8377 1 14.2109V1.63469C1 1.00775 1.51406 0.5 2.1473 0.5H10.1829L10.2969 0.511268ZM10.5589 3.02066H11.3234L10.5589 2.26457V3.02066Z" fill="#212121"/>
<path d="M5.68262 11.8458C5.71212 12.2446 5.78589 12.6309 5.90137 12.9996H3.486C3.16403 12.9996 2.90298 12.7411 2.90267 12.4227C2.90267 12.1041 3.16384 11.8458 3.486 11.8458H5.68262Z" fill="#212121"/>
<path d="M6.15999 9.26315C5.98786 9.62682 5.85715 10.0133 5.77376 10.417H3.486C3.16392 10.417 2.90281 10.1586 2.90267 9.84007C2.90267 9.52144 3.16384 9.26315 3.486 9.26315H6.15999Z" fill="#212121"/>
<path d="M9.71924 6.4067C8.86498 6.60387 8.09157 7.00681 7.45426 7.56055H3.486C3.16403 7.56055 2.90298 7.30199 2.90267 6.98362C2.90267 6.665 3.16384 6.4067 3.486 6.4067H9.71924Z" fill="#212121"/>
</svg>
