<svg width="16" height="16" viewBox="0 0 16 16" fill="none" xmlns="http://www.w3.org/2000/svg">
<g clip-path="url(#clip0_1440_32947)">
<path d="M11.6762 14.0151C12.1673 14.0151 12.5846 13.8432 12.9284 13.4995C13.2721 13.1558 13.444 12.7384 13.444 12.2473C13.444 11.7563 13.2721 11.3389 12.9284 10.9951C12.5846 10.6514 12.1673 10.4795 11.6762 10.4795C11.1852 10.4795 10.7678 10.6514 10.424 10.9951C10.0803 11.3389 9.90843 11.7563 9.90843 12.2473C9.90843 12.7384 10.0803 13.1558 10.424 13.4995C10.7678 13.8432 11.1852 14.0151 11.6762 14.0151ZM11.6762 13.308C11.3816 13.308 11.1311 13.2049 10.9249 12.9986C10.7187 12.7924 10.6155 12.5419 10.6155 12.2473C10.6155 11.9527 10.7187 11.7023 10.9249 11.496C11.1311 11.2898 11.3816 11.1867 11.6762 11.1867C11.9708 11.1867 12.2213 11.2898 12.4275 11.496C12.6338 11.7023 12.7369 11.9527 12.7369 12.2473C12.7369 12.5419 12.6338 12.7924 12.4275 12.9986C12.2213 13.2049 11.9708 13.308 11.6762 13.308ZM11.6762 15.1936C10.7203 15.1936 9.84951 14.9268 9.06383 14.3932C8.27815 13.8596 7.70854 13.1443 7.35498 12.2473C7.70854 11.3503 8.27815 10.635 9.06383 10.1014C9.84951 9.56783 10.7203 9.30103 11.6762 9.30103C12.6321 9.30103 13.5029 9.56783 14.2886 10.1014C15.0743 10.635 15.6439 11.3503 15.9974 12.2473C15.6439 13.1443 15.0743 13.8596 14.2886 14.3932C13.5029 14.9268 12.6321 15.1936 11.6762 15.1936Z" fill="#212121"/>
<path fill-rule="evenodd" clip-rule="evenodd" d="M0.961914 0.98221C0.961914 0.418576 1.41892 -0.0378418 1.98197 -0.0378418H9.202H9.39296C9.52557 -0.0378418 9.65274 0.0148366 9.74651 0.108605L11.9065 2.26864C12.0003 2.36241 12.053 2.48958 12.053 2.62219V2.80743L12.053 2.81318L12.053 2.81893V8.39406C11.8041 8.34462 11.5467 8.3187 11.2833 8.3187C11.206 8.3187 11.1292 8.32093 11.053 8.32534V3.31318H9.72205C9.15869 3.31318 8.702 2.8565 8.702 2.29313V0.962158H1.98197C1.97088 0.962158 1.96191 0.971186 1.96191 0.98221V12.7094C1.96191 12.7204 1.97088 12.7294 1.98197 12.7294H7.38425C7.42705 13.079 7.51578 13.4144 7.64422 13.7294H1.98197C1.41892 13.7294 0.961914 13.273 0.961914 12.7094V0.98221ZM7.82617 10.3799C7.65811 10.6904 7.53067 11.0262 7.45096 11.3799H3.21731C2.94117 11.3799 2.71731 11.1561 2.71731 10.8799C2.71731 10.6038 2.94117 10.3799 3.21731 10.3799H7.82617ZM10.2984 8.44318C9.89966 8.54613 9.52544 8.71013 9.18632 8.92461H3.21731C2.94117 8.92461 2.71731 8.70076 2.71731 8.42461C2.71731 8.14847 2.94117 7.92461 3.21731 7.92461H9.79877C10.0749 7.92461 10.2988 8.14847 10.2988 8.42461C10.2988 8.43083 10.2987 8.43702 10.2984 8.44318ZM9.72205 2.31318H10.5369L9.702 1.47831V2.29313C9.702 2.30421 9.71097 2.31318 9.72205 2.31318ZM3.21731 5.46991C2.94117 5.46991 2.71731 5.69377 2.71731 5.96991C2.71731 6.24605 2.94117 6.46991 3.21731 6.46991H9.79877C10.0749 6.46991 10.2988 6.24605 10.2988 5.96991C10.2988 5.69377 10.0749 5.46991 9.79877 5.46991H3.21731Z" fill="#212121"/>
</g>
<defs>
<clipPath id="clip0_1440_32947">
<rect width="16" height="16" fill="white"/>
</clipPath>
</defs>
</svg>
