<svg width="16" height="16" viewBox="0 0 16 16" fill="none" xmlns="http://www.w3.org/2000/svg">
<path d="M2.52174 15H9.47826C9.88185 15 10.2689 14.8236 10.5543 14.5097C10.8397 14.1958 11 13.77 11 13.3261V10.4565C11 10.0126 10.8397 9.58681 10.5543 9.27289C10.2689 8.95897 9.88185 8.78261 9.47826 8.78261H6.65217V5.67391C6.65217 5.22996 6.49185 4.8042 6.20647 4.49028C5.92109 4.17636 5.53402 4 5.13043 4H2.52174C2.11815 4 1.73109 4.17636 1.44571 4.49028C1.16033 4.8042 1 5.22996 1 5.67391V13.3261C1 13.77 1.16033 14.1958 1.44571 14.5097C1.73109 14.8236 2.11815 15 2.52174 15ZM9.47826 10.2174C9.53592 10.2174 9.59121 10.2426 9.63198 10.2874C9.67275 10.3323 9.69565 10.3931 9.69565 10.4565V13.3261C9.69565 13.3895 9.67275 13.4503 9.63198 13.4952C9.59121 13.54 9.53592 13.5652 9.47826 13.5652H6.65217V10.2174H9.47826ZM2.30435 5.67391C2.30435 5.61049 2.32725 5.54967 2.36802 5.50482C2.40879 5.45998 2.46408 5.43478 2.52174 5.43478H5.13043C5.18809 5.43478 5.24338 5.45998 5.28415 5.50482C5.32492 5.54967 5.34783 5.61049 5.34783 5.67391V8.78261H2.30435V5.67391ZM5.34783 10.2174V13.5652H2.52174C2.46408 13.5652 2.40879 13.54 2.36802 13.4952C2.32725 13.4503 2.30435 13.3895 2.30435 13.3261V10.2174H5.34783Z" fill="#212121"/>
<path d="M11.5 1C10.8078 1 10.1311 1.20527 9.55551 1.58986C8.97993 1.97444 8.53133 2.52107 8.26642 3.16061C8.00152 3.80015 7.9322 4.50388 8.06725 5.18282C8.2023 5.86175 8.53564 6.48539 9.02513 6.97487C9.51461 7.46436 10.1383 7.7977 10.8172 7.93275C11.4961 8.0678 12.1999 7.99848 12.8394 7.73358C13.4789 7.46867 14.0256 7.02007 14.4101 6.44449C14.7947 5.86892 15 5.19223 15 4.5C15 3.57174 14.6313 2.6815 13.9749 2.02513C13.3185 1.36875 12.4283 1 11.5 1ZM11.5 6.5C11.1044 6.5 10.7178 6.3827 10.3889 6.16294C10.06 5.94317 9.80362 5.63082 9.65224 5.26537C9.50087 4.89991 9.46126 4.49778 9.53843 4.10982C9.6156 3.72186 9.80608 3.36549 10.0858 3.08579C10.3655 2.80608 10.7219 2.6156 11.1098 2.53843C11.4978 2.46126 11.8999 2.50087 12.2654 2.65224C12.6308 2.80362 12.9432 3.05996 13.1629 3.38886C13.3827 3.71776 13.5 4.10444 13.5 4.5C13.5 5.03043 13.2893 5.53914 12.9142 5.91421C12.5391 6.28928 12.0304 6.5 11.5 6.5Z" fill="#212121"/>
</svg>
