<svg width="16" height="16" viewBox="0 0 16 16" fill="none" xmlns="http://www.w3.org/2000/svg">
<path fill-rule="evenodd" clip-rule="evenodd" d="M12.3 11.9737H10.8V9.88058C10.8 9.86167 10.8058 9.84614 10.8173 9.834C10.8288 9.82186 10.8436 9.81579 10.8615 9.81579H13.1384C13.1564 9.81579 13.1712 9.82186 13.1827 9.834C13.1942 9.84614 13.2 9.86167 13.2 9.88058V12.8377L12.7396 12.2061C12.6868 12.1321 12.6226 12.0749 12.5469 12.0344C12.4713 11.9939 12.389 11.9737 12.3 11.9737ZM11.2931 11.402C11.3218 11.4322 11.3574 11.4474 11.4 11.4474H12.6C12.6426 11.4474 12.6782 11.4322 12.7069 11.402C12.7356 11.3718 12.75 11.3343 12.75 11.2895C12.75 11.2447 12.7356 11.2072 12.7069 11.1769C12.6782 11.1467 12.6426 11.1316 12.6 11.1316H11.4C11.3574 11.1316 11.3218 11.1467 11.2931 11.1769C11.2644 11.2072 11.25 11.2447 11.25 11.2895C11.25 11.3343 11.2644 11.3718 11.2931 11.402ZM11.2931 10.5599C11.3218 10.5901 11.3574 10.6053 11.4 10.6053H12.6C12.6426 10.6053 12.6782 10.5901 12.7069 10.5599C12.7356 10.5297 12.75 10.4922 12.75 10.4474C12.75 10.4026 12.7356 10.3651 12.7069 10.3348C12.6782 10.3046 12.6426 10.2895 12.6 10.2895H11.4C11.3574 10.2895 11.3218 10.3046 11.2931 10.3348C11.2644 10.3651 11.25 10.4026 11.25 10.4474C11.25 10.4922 11.2644 10.5297 11.2931 10.5599Z" fill="#212121"/>
<path d="M13.0735 13.1842H10.8615C10.8436 13.1842 10.8288 13.1781 10.8173 13.166C10.8058 13.1539 10.8 13.1383 10.8 13.1194V12.2895H12.3C12.341 12.2895 12.3789 12.2991 12.4137 12.3182C12.4484 12.3374 12.4783 12.3644 12.5035 12.3992L13.0735 13.1842Z" fill="#212121"/>
<path fill-rule="evenodd" clip-rule="evenodd" d="M12 15C13.933 15 15.5 13.433 15.5 11.5C15.5 9.567 13.933 8 12 8C10.067 8 8.5 9.567 8.5 11.5C8.5 13.433 10.067 15 12 15ZM10.8615 13.5H13.1384C13.2395 13.5 13.325 13.4632 13.395 13.3895C13.465 13.3158 13.5 13.2258 13.5 13.1194V9.88058C13.5 9.77423 13.465 9.68421 13.395 9.61053C13.325 9.53684 13.2395 9.5 13.1384 9.5H10.8615C10.7605 9.5 10.675 9.53684 10.605 9.61053C10.535 9.68421 10.5 9.77423 10.5 9.88058V13.1194C10.5 13.2258 10.535 13.3158 10.605 13.3895C10.675 13.4632 10.7605 13.5 10.8615 13.5Z" fill="#212121"/>
<path d="M3.38235 10.6765V11.9118H7.5V10.6765H3.38235Z" fill="#212121"/>
<path fill-rule="evenodd" clip-rule="evenodd" d="M9.33614 7.87281L7.5 6.95473L4.61765 8.39591V2.23529H1.98874C1.92532 2.23529 1.86726 2.26172 1.81456 2.31456C1.76172 2.36726 1.73529 2.42532 1.73529 2.48874V13.5113C1.73529 13.5747 1.76172 13.6327 1.81456 13.6854C1.86726 13.7383 1.92532 13.7647 1.98874 13.7647H8.11056C8.38693 14.2383 8.74734 14.6569 9.17133 15H1.98874C1.57272 15 1.22059 14.8559 0.932353 14.5676C0.644118 14.2794 0.5 13.9273 0.5 13.5113V2.48874C0.5 2.07272 0.644118 1.72059 0.932353 1.43235C1.22059 1.14412 1.57272 1 1.98874 1H13.0113C13.4273 1 13.7794 1.14412 14.0676 1.43235C14.3559 1.72059 14.5 2.07272 14.5 2.48874V7.75777C14.1244 7.50633 13.7087 7.30994 13.2647 7.18015V2.48874C13.2647 2.42532 13.2383 2.36726 13.1854 2.31456C13.1327 2.26172 13.0747 2.23529 13.0113 2.23529H10.3824V7.29951C10.0067 7.44427 9.65536 7.63797 9.33614 7.87281ZM7.5 5.56112L5.85294 6.38465V2.23529H9.14706V6.38465L7.5 5.56112Z" fill="#212121"/>
</svg>
