<svg width="16" height="16" viewBox="0 0 16 16" fill="none" xmlns="http://www.w3.org/2000/svg">
<g clip-path="url(#clip0_1820_32960)">
<path d="M11.6556 10.5472L13.7167 8.46667C14.1315 8.05185 14.4491 7.5787 14.6694 7.04722C14.8898 6.51574 15 5.95833 15 5.375C15 4.15648 14.5755 3.12269 13.7264 2.27361C12.8773 1.42454 11.8435 1 10.625 1C10.0417 1 9.48426 1.11019 8.95278 1.33056C8.4213 1.55093 7.94815 1.86852 7.53333 2.28333L5.45278 4.34444L11.6556 10.5472ZM5.375 15C5.95833 15 6.51574 14.8898 7.04722 14.6694C7.5787 14.4491 8.05185 14.1315 8.46667 13.7167L10.5472 11.6556L4.34444 5.45278L2.28333 7.53333C1.86852 7.94815 1.55093 8.4213 1.33056 8.95278C1.11019 9.48426 1 10.0417 1 10.625C1 11.8435 1.42454 12.8773 2.27361 13.7264C3.12269 14.5755 4.15648 15 5.375 15Z" fill="#212121"/>
</g>
<defs>
<clipPath id="clip0_1820_32960">
<rect width="16" height="16" fill="white"/>
</clipPath>
</defs>
</svg>
