<svg width="16" height="16" viewBox="0 0 16 16" fill="none" xmlns="http://www.w3.org/2000/svg">
<g clip-path="url(#clip0_2201_4555)">
<path d="M11.8576 12.592C10.7203 13.2948 9.39197 13.6902 7.9997 13.6902C6.60742 13.6902 5.28182 13.2948 4.14453 12.592C3.8371 12.9741 3.58922 13.4059 3.42129 13.8635C3.29157 14.218 3.20716 14.585 3.16895 14.9572H12.8359C12.7968 14.5841 12.7133 14.218 12.5835 13.8635C12.4156 13.4059 12.1677 12.9741 11.8576 12.592Z" fill="#212121"/>
<path d="M14.6356 6.38617C14.6356 6.38617 14.6444 6.3835 14.6604 6.38173C14.2961 6.45014 13.9443 6.21113 13.8732 5.84506C13.3339 3.03824 10.864 1 8.00029 1C7.15442 1 6.46495 1.68947 6.46495 2.538C6.46495 3.38653 7.15442 4.07599 8.00295 4.07599C8.64179 4.07599 9.2042 3.69127 9.43611 3.09597C9.57028 2.74769 9.96122 2.5753 10.3095 2.71125C10.6578 2.84541 10.8284 3.23636 10.6942 3.58464C10.2597 4.7015 9.2042 5.42472 8.00386 5.42472C6.41166 5.42472 5.1172 4.13017 5.1172 2.53807C5.1172 2.24041 5.16252 1.95166 5.24692 1.68067C3.66628 2.50165 2.48105 4.00755 2.12644 5.84768C2.05802 6.20042 1.72839 6.43943 1.37387 6.38878C0.62131 6.39589 0.0224609 6.99386 0.0224609 7.73041C0.0224609 8.46699 0.624858 9.07204 1.36409 9.07204C1.48671 9.07204 1.60488 9.05605 1.72127 9.02229C1.78258 9.00452 1.84655 8.99475 1.90786 8.99475C2.16907 8.99475 2.4152 9.14757 2.52447 9.39723C2.94294 10.3435 3.58713 11.1423 4.37788 11.7421C4.40986 11.7599 4.43919 11.783 4.46851 11.8061C5.4743 12.5409 6.70221 12.9611 7.99864 12.9611C9.29497 12.9611 10.5371 12.5355 11.5474 11.7918C11.5679 11.7758 11.5883 11.7599 11.6114 11.7465C12.4048 11.1459 13.0534 10.3427 13.4719 9.39462C13.6088 9.08542 13.9517 8.92638 14.2769 9.01968C14.3907 9.05344 14.5133 9.06944 14.6359 9.06944C15.3751 9.06944 15.9775 8.46704 15.9775 7.7278C15.9775 6.98857 15.3751 6.38617 14.6359 6.38617L14.6356 6.38617ZM5.61643 8.55145C5.04513 8.55145 4.58398 8.08944 4.58398 7.519C4.58398 6.94769 5.04599 6.48655 5.61643 6.48655C6.18773 6.48655 6.64888 6.94856 6.64888 7.519C6.64888 8.0903 6.18687 8.55145 5.61643 8.55145ZM10.3842 8.55145C9.81285 8.55145 9.35171 8.08944 9.35171 7.519C9.35171 6.94769 9.81372 6.48655 10.3842 6.48655C10.9555 6.48655 11.4166 6.94856 11.4166 7.519C11.4166 8.0903 10.9546 8.55145 10.3842 8.55145Z" fill="#212121"/>
</g>
<defs>
<clipPath id="clip0_2201_4555">
<rect width="16" height="16" fill="white"/>
</clipPath>
</defs>
</svg>
