<svg width="16" height="16" viewBox="0 0 16 16" fill="none" xmlns="http://www.w3.org/2000/svg">
<mask id="mask0_1185_3651" style="mask-type:luminance" maskUnits="userSpaceOnUse" x="1" y="1" width="15" height="15">
<path d="M15.4678 15.5V1.53223H1.5V15.5H15.4678Z" fill="white" stroke="white"/>
</mask>
<g mask="url(#mask0_1185_3651)">
<path d="M15.5292 5.86514C15.5292 6.08605 15.3501 6.26514 15.1292 6.26514H1.83848C1.61756 6.26514 1.43848 6.08605 1.43848 5.86514V4.55141C1.43848 4.3305 1.61756 4.15141 1.83848 4.15141H15.1292C15.3501 4.15141 15.5292 4.3305 15.5292 4.55141V5.86514Z" stroke="#212121" stroke-miterlimit="10"/>
<path d="M14.7322 15.1615C14.7322 15.3824 14.5531 15.5615 14.3322 15.5615H2.63535C2.41444 15.5615 2.23535 15.3824 2.23535 15.1615V6.66986C2.23535 6.44895 2.41444 6.26986 2.63535 6.26986H14.3322C14.5531 6.26986 14.7322 6.44895 14.7322 6.66986V15.1615Z" stroke="#212121" stroke-miterlimit="10"/>
<path d="M1 15.5615H15.9677" stroke="#212121" stroke-miterlimit="10"/>
<path d="M7.06934 15.5615V9.06233C7.06934 8.84142 7.24842 8.66233 7.46934 8.66233H10.1774C10.3983 8.66233 10.5774 8.84142 10.5774 9.06233V15.5615" stroke="#212121" stroke-miterlimit="10"/>
</g>
<path d="M8.33447 5.02954C9.62655 5.02954 10.6743 3.98174 10.6743 2.6897C10.6743 1.39762 9.62657 0.349854 8.33447 0.349854C7.0424 0.349888 5.99463 1.39764 5.99463 2.6897C5.99466 3.98172 7.04242 5.02951 8.33447 5.02954Z" fill="white" stroke="#212121" stroke-width="0.7"/>
<path d="M6.98779 2.68066H9.68199H6.98779Z" fill="white"/>
<path d="M6.98779 2.68066H9.68199" stroke="#212121" stroke-width="0.7" stroke-miterlimit="10"/>
<path d="M8.33447 4.02783V1.33361V4.02783Z" fill="white"/>
<path d="M8.33447 4.02783V1.33361" stroke="#212121" stroke-width="0.7" stroke-miterlimit="10"/>
</svg>
