<svg width="16" height="16" viewBox="0 0 16 16" fill="none" xmlns="http://www.w3.org/2000/svg">
<path d="M12.8668 5.66427C12.7539 5.40947 12.5733 5.2337 12.2862 5.19338C12.2233 5.1837 12.1588 5.18532 12.0782 5.18209C12.0782 5.11275 12.0782 5.04502 12.0782 4.9789C12.0798 4.42577 12.0653 3.87264 11.9556 3.32757C11.6863 1.97941 10.9397 0.998932 9.68667 0.423224C8.77553 0.00394037 7.81441 -0.0783029 6.83071 0.0652211C5.99215 0.187781 5.23583 0.502243 4.59239 1.06666C3.878 1.69236 3.48452 2.49223 3.31842 3.41465C3.22166 3.95004 3.20231 4.49027 3.20876 5.03212C3.20876 5.08211 3.20876 5.13371 3.20876 5.18209C2.69756 5.20628 2.43631 5.41754 2.34762 5.90616C2.30892 6.11903 2.3073 6.34318 2.31859 6.56089C2.34439 7.07209 2.4605 7.56394 2.68143 8.02838C2.7798 8.23641 2.9072 8.4267 3.12168 8.53152C3.20715 8.57345 3.22811 8.62828 3.23617 8.71536C3.31519 9.58618 3.5458 10.4038 4.11344 11.1053C4.11344 11.1053 4.11344 11.1053 4.11344 11.1069C4.13441 11.1343 4.15376 11.1633 4.1715 11.194C4.21342 11.2375 4.2489 11.2875 4.27954 11.3391C4.31018 11.3697 4.33759 11.4036 4.36178 11.4391C4.38275 11.4584 4.4021 11.481 4.42145 11.502C4.45532 11.5326 4.48434 11.5665 4.51176 11.602C4.51982 11.6084 4.52789 11.6165 4.53595 11.6229C4.56175 11.6455 4.58433 11.6713 4.60529 11.6971C5.46159 12.5099 6.46142 12.9711 7.64992 12.9695C8.85455 12.9695 9.86728 12.5002 10.7155 11.6568C10.7445 11.6165 10.7768 11.5794 10.8139 11.5439C10.8332 11.5246 10.8542 11.5052 10.8752 11.4875C10.8961 11.4633 10.9171 11.4391 10.9413 11.4181C10.951 11.4085 10.9622 11.3972 10.9735 11.3875C10.9897 11.3681 11.0074 11.3504 11.0268 11.3327C11.0364 11.323 11.0461 11.3133 11.0574 11.3036C11.0671 11.2923 11.0751 11.2827 11.0848 11.2714C11.1219 11.2278 11.1477 11.1859 11.1848 11.1375C11.188 11.1343 11.1912 11.1295 11.1929 11.1262C11.3235 10.9166 11.4605 10.7247 11.5702 10.5183C11.8718 9.94741 12.0088 9.32816 12.0524 8.68795C12.0556 8.62828 12.0588 8.58151 12.1266 8.55248C12.3314 8.46702 12.4668 8.30414 12.5684 8.11385C12.8087 7.66232 12.9167 7.17208 12.9667 6.66732C13.0022 6.32706 13.0103 5.98518 12.8684 5.66104L12.8668 5.66427ZM3.2136 7.99774C2.99912 7.6736 2.91042 7.33495 2.84269 6.98985C2.77819 6.65926 2.71852 6.32706 2.79915 5.99163C2.81851 5.90939 2.86043 5.82876 2.90881 5.75941C2.95719 5.69007 3.0346 5.64492 3.12652 5.67717C3.22005 5.70942 3.21037 5.79489 3.21037 5.86907C3.21199 6.48993 3.21198 7.10918 3.2136 7.73004C3.2136 7.80906 3.2136 7.88808 3.2136 7.99935V7.99774ZM9.27222 10.6747C9.1674 10.9795 8.84649 11.1633 8.53364 11.1004C8.3369 11.0601 8.29336 10.9698 8.39334 10.8005C8.4385 10.7231 8.45785 10.6473 8.40463 10.5667C8.35303 10.4893 8.27562 10.478 8.19338 10.4957C7.8257 10.5763 7.45802 10.565 7.08873 10.5005C7.02423 10.4893 6.93069 10.5263 6.8807 10.5731C6.81459 10.6344 6.83232 10.7295 6.88393 10.8037C6.99197 10.9601 6.91457 11.0569 6.75008 11.0988C6.42756 11.1827 6.06471 10.9634 6.00666 10.6199C5.97441 10.4344 5.99215 10.2361 6.01311 10.0474C6.02762 9.91838 6.10826 9.81034 6.23727 9.75551L6.23404 9.75873C6.39692 9.70713 6.55818 9.64907 6.72266 9.60392C6.85006 9.57006 6.98713 9.56683 7.11131 9.52651C7.29515 9.46685 7.47254 9.38783 7.67895 9.30558C7.90149 9.50716 8.22563 9.54425 8.54009 9.60553C8.67717 9.63133 8.81424 9.66036 8.94808 9.70068C9.1158 9.74906 9.23029 9.86033 9.27867 10.0297C9.34156 10.2457 9.34802 10.4618 9.27384 10.6779L9.27222 10.6747ZM11.4783 8.12998C11.3848 8.65731 11.2058 9.14593 10.8155 9.53296C10.5946 9.75228 10.3301 9.90226 10.0302 10.0103C10.0189 9.95547 10.0076 9.90387 9.99629 9.85227C9.86728 9.25398 9.47702 8.92016 8.90132 8.78632C8.67394 8.7331 8.4385 8.71859 8.20628 8.68472C8.18209 8.6815 8.15951 8.67827 8.13371 8.65086C8.21757 8.64279 8.29981 8.63634 8.38367 8.62828C8.67555 8.59925 8.84326 8.35252 8.74328 8.07515C8.71425 7.99613 8.6433 7.92356 8.57396 7.87518C8.53364 7.84777 8.44172 7.8526 8.39979 7.88163C8.36754 7.90421 8.35786 7.99129 8.36915 8.04128C8.40463 8.21061 8.3756 8.24609 8.20305 8.26221C8.09985 8.27189 7.99502 8.30253 7.90149 8.34607C7.71927 8.43154 7.54833 8.4267 7.36771 8.33962C7.27257 8.29447 7.1613 8.2735 7.05486 8.26221C6.9194 8.2477 6.86619 8.18964 6.91134 8.06386C6.93714 7.99129 6.96133 7.90743 6.8807 7.87518C6.82104 7.8526 6.73073 7.86389 6.67267 7.89453C6.53883 7.96872 6.48561 8.159 6.52754 8.33962C6.5614 8.48959 6.6759 8.60248 6.83071 8.62344C6.93231 8.63795 7.03713 8.63634 7.14033 8.64279C7.14033 8.65247 7.14033 8.66214 7.14033 8.67021C7.03874 8.6815 6.93392 8.68472 6.83394 8.70407C6.61623 8.746 6.39208 8.77825 6.18244 8.8476C5.72768 8.99918 5.42773 9.31042 5.31001 9.78453C5.29227 9.85388 5.27292 9.92161 5.25195 9.99901C5.21648 9.98934 5.18745 9.98611 5.16165 9.97482C4.55369 9.73616 4.16343 9.29591 3.9554 8.68472C3.78285 8.17513 3.71996 7.64458 3.70384 7.1108C3.69093 6.68829 3.70061 6.26417 3.71351 5.82876C3.73286 5.88197 3.76511 5.93358 3.77156 5.98679C3.80543 6.2303 3.82478 6.47542 3.8651 6.71732C3.90703 6.96405 3.97959 7.20272 4.13118 7.41075C4.31663 7.66232 4.58433 7.75746 4.87621 7.79294C5.31001 7.84615 5.74542 7.84616 6.1776 7.78004C6.53399 7.72521 6.8033 7.54298 6.97746 7.22691C7.13711 6.93824 7.24677 6.63023 7.28063 6.30609C7.31772 5.96099 7.52575 5.92068 7.81602 5.97551C7.92729 5.99647 7.9531 6.08839 7.9789 6.18515C8.04985 6.46252 8.10791 6.74634 8.20467 7.01565C8.37883 7.5075 8.74328 7.76069 9.26577 7.80423C9.71731 7.84132 10.1656 7.8526 10.6107 7.7623C10.9364 7.69618 11.1558 7.49783 11.2832 7.19304C11.4202 6.86406 11.4606 6.51412 11.496 6.16418C11.5041 6.08839 11.5089 6.0126 11.5234 5.94003C11.5299 5.90455 11.5557 5.87069 11.5718 5.83682C11.5815 5.83843 11.5912 5.84004 11.6008 5.84327C11.6057 5.87875 11.6138 5.91423 11.6138 5.9497C11.6105 6.68022 11.6057 7.41075 11.4767 8.13482L11.4783 8.12998ZM4.46983 5.553C4.7214 5.52236 4.97458 5.51268 5.3342 5.48527C5.66317 5.51591 6.09858 5.54009 6.52754 5.60137C6.87264 5.65137 6.97746 5.81424 6.91295 6.16257C6.86458 6.42059 6.79201 6.677 6.70815 6.92696C6.59527 7.26238 6.3437 7.43332 5.99376 7.43816C5.62447 7.443 5.25357 7.443 4.88427 7.4172C4.52305 7.39139 4.36178 7.25593 4.28599 6.90277C4.21665 6.58669 4.17795 6.26255 4.14892 5.93841C4.12634 5.68039 4.21181 5.58364 4.46983 5.553ZM8.62717 5.63202C8.91906 5.57557 9.21739 5.52236 9.51411 5.51591C9.94791 5.50623 10.3849 5.52881 10.8171 5.55945C11.0784 5.57719 11.1638 5.69168 11.1413 5.95293C11.1154 6.2432 11.088 6.53347 11.0284 6.8173C10.9316 7.27367 10.7607 7.40752 10.2946 7.44139C10.1285 7.45267 9.96242 7.45267 9.71569 7.46558C9.5383 7.45751 9.31254 7.43332 9.07226 7.40107C8.89648 7.37688 8.76425 7.27851 8.67394 7.12692C8.46914 6.77698 8.37722 6.39156 8.34658 5.99163C8.33206 5.8094 8.43688 5.66749 8.62879 5.6304L8.62717 5.63202ZM11.6089 5.24821C11.3767 5.21435 11.1493 5.1837 10.9219 5.14823C10.8994 5.145 10.8703 5.1192 10.859 5.09662C10.6817 4.74507 10.4091 4.54833 10.0044 4.58381C9.54475 4.62412 9.08677 4.68218 8.64007 4.8128C8.4514 4.86763 8.3756 4.966 8.40624 5.11759C8.41753 5.17403 8.45462 5.22563 8.47559 5.27079C7.92084 5.57235 7.35804 5.59493 6.79846 5.26434C6.87264 5.19822 6.92102 5.10307 6.87909 4.98858C6.83394 4.86279 6.72589 4.81119 6.60656 4.79184C6.17115 4.71927 5.73574 4.64025 5.29711 4.58703C4.89395 4.53865 4.6069 4.73056 4.415 5.07888C4.39565 5.11436 4.34888 5.15145 4.30857 5.1579C4.10377 5.19338 3.89896 5.2208 3.67965 5.25144C3.67965 5.05792 3.67481 4.86118 3.67965 4.66605C3.70061 4.05164 3.74092 3.43884 3.95057 2.85507C4.28115 1.93587 4.88911 1.26179 5.78089 0.863472C6.87748 0.373233 8.00954 0.339367 9.13676 0.724786C10.522 1.1989 11.3009 2.20679 11.5154 3.63881C11.5912 4.1484 11.5831 4.6725 11.6121 5.19015C11.6121 5.20789 11.6089 5.22725 11.6057 5.24821H11.6089ZM12.1766 7.8397C12.154 7.8897 12.1185 7.93324 12.075 8.00097C12.075 7.65909 12.075 7.34785 12.075 7.03823C12.075 6.64797 12.075 6.25771 12.075 5.86746C12.075 5.79005 12.0717 5.70781 12.1604 5.67556C12.2556 5.64169 12.3459 5.68523 12.3846 5.76425C12.4459 5.88359 12.5104 6.01421 12.5168 6.14322C12.5442 6.73505 12.4217 7.30109 12.1766 7.8397Z" fill="#212121"/>
<path d="M9.24138 6.13975C9.13817 6.18006 9.05915 6.21877 8.9753 6.24296C8.91885 6.25908 8.82855 6.28327 8.80436 6.25747C8.76727 6.21715 8.75275 6.13168 8.76727 6.07524C8.80597 5.92204 8.93014 5.8398 9.07528 5.82851C9.34297 5.80755 9.61067 5.80916 9.87998 5.80432C10.0364 5.8011 10.1928 5.80755 10.3267 5.90108C10.3799 5.93817 10.4412 5.99139 10.4573 6.04783C10.475 6.11072 10.4686 6.20748 10.4299 6.25102C10.4009 6.28327 10.3009 6.26553 10.2364 6.25102C10.1332 6.22522 10.0348 6.18329 9.91707 6.14136C9.92674 6.31714 9.91868 6.4655 9.80096 6.55742C9.73323 6.61064 9.63002 6.64127 9.54133 6.64127C9.3204 6.64289 9.21074 6.46711 9.23815 6.13975H9.24138Z" fill="#212121"/>
<path d="M6.07468 6.14303C6.03759 6.52522 5.93276 6.65584 5.69087 6.64617C5.47801 6.6381 5.37641 6.49297 5.36351 6.14464C5.25063 6.18173 5.14903 6.22205 5.0426 6.24785C4.97971 6.26397 4.89262 6.28332 4.84747 6.25268C4.7749 6.20592 4.78458 6.11239 4.82006 6.03498C4.87811 5.91081 4.99261 5.83985 5.11678 5.83179C5.46027 5.81244 5.80537 5.80115 6.14724 5.81727C6.36495 5.82695 6.50686 5.9608 6.5246 6.11722C6.52944 6.16238 6.51492 6.23495 6.48428 6.2543C6.44719 6.27849 6.37785 6.27204 6.32947 6.25752C6.24561 6.23011 6.16821 6.18495 6.07468 6.14141V6.14303Z" fill="#212121"/>
<path d="M6.23055 9.75723C6.49019 9.77497 6.74982 9.79432 7.00945 9.81045C7.56581 9.84431 8.12216 9.84109 8.6769 9.77336C8.75592 9.76368 8.83494 9.75723 8.91396 9.75078C9.01394 9.74272 9.10264 9.77174 9.12682 9.87818C9.15263 9.98784 9.06716 10.0427 8.98169 10.0636C8.79785 10.1072 8.6124 10.1491 8.42533 10.1668C7.75932 10.2297 7.09492 10.2265 6.43536 10.1039C6.40633 10.0991 6.37569 10.0927 6.34666 10.0846C6.13702 10.0265 6.09993 9.9201 6.23378 9.754L6.23055 9.75723Z" fill="#212121"/>
<path d="M14.1198 13.4886C14.0246 13.4483 13.9247 13.4241 13.8279 13.387C12.9974 13.0694 12.1685 12.7501 11.3396 12.4308C11.2993 12.4146 11.2574 12.3872 11.2332 12.3534C11.0332 12.0792 10.8365 11.8034 10.7059 11.4874C10.6865 11.4422 10.6639 11.4003 10.6365 11.36C10.5978 11.3051 10.5527 11.2939 10.5011 11.3471C10.4269 11.4261 10.3656 11.5099 10.3608 11.6244C10.3559 11.7277 10.3495 11.8309 10.3463 11.9341C10.3414 12.0341 10.3059 12.1115 10.2285 12.1776C10.0947 12.2888 9.97535 12.4179 9.83505 12.5211C9.53994 12.7388 9.24805 12.9629 8.93359 13.1516C8.59494 13.3564 8.23371 13.5257 7.84346 13.6144C7.73703 13.6386 7.61447 13.6483 7.51287 13.6177C7.05166 13.4838 6.60819 13.3129 6.20342 13.0355C5.83897 12.7871 5.49709 12.5195 5.17134 12.2227C4.99879 12.0663 4.95041 11.9018 4.99879 11.6906C5.00202 11.6744 5.00847 11.6599 5.01169 11.6438C5.03266 11.5212 5.01169 11.4825 4.90203 11.4277C4.87623 11.4148 4.85043 11.4003 4.82463 11.3874C4.71981 11.3358 4.6682 11.3487 4.62628 11.4567C4.49888 11.776 4.29569 12.047 4.09089 12.3163C4.06508 12.3501 4.02799 12.3808 3.98768 12.3985C3.69257 12.5275 3.39907 12.663 3.09751 12.7759C2.52342 12.992 1.94448 13.1903 1.37039 13.4016C1.26557 13.4403 1.16398 13.4951 1.07689 13.5628C0.962398 13.6531 0.980137 13.7999 1.10108 13.8821C1.19784 13.9482 1.29621 13.9482 1.40103 13.8918C1.53972 13.816 1.67679 13.7321 1.82354 13.6773C2.53954 13.4096 3.25716 13.1516 3.97639 12.8904C4.00703 12.8791 4.04089 12.8742 4.07476 12.8662C4.08282 12.9065 4.08605 12.9355 4.09572 12.9629C4.19248 13.2355 4.29569 13.5064 4.38761 13.7821C4.61338 14.4675 4.89881 15.1255 5.2294 15.7673C5.37292 16.043 5.47129 16.0688 5.70673 15.8689C5.95346 15.6609 6.19697 15.4512 6.45177 15.2335C6.4566 15.2287 6.45177 15.2335 6.46467 15.2222C6.47273 15.2142 6.48079 15.2093 6.48886 15.2013C6.51305 15.1771 6.53724 15.1545 6.56465 15.1335C6.58239 15.1126 6.60335 15.0916 6.62432 15.0722C6.65334 15.0432 6.68398 15.0158 6.71785 14.9916C6.72107 14.9884 6.7243 14.9852 6.72914 14.9819C6.76461 14.9513 6.76623 14.9497 6.80493 14.9207C6.80493 14.919 6.82751 14.9078 6.82589 14.9045C6.88717 14.8497 6.95329 14.7965 7.01457 14.7352C7.19035 14.561 7.36451 14.3837 7.53867 14.2079C7.58221 14.1659 7.6193 14.1305 7.68381 14.1917C7.94828 14.4449 8.22081 14.6917 8.49012 14.9416C8.50625 14.9561 8.52721 14.9706 8.52721 14.9706C8.54495 14.9884 8.54011 14.9819 8.5514 14.99C8.63042 15.0513 8.68202 15.0884 8.75459 15.1545C8.79007 15.1867 8.81103 15.1996 8.84329 15.2287C8.85135 15.2367 8.84974 15.2335 8.86102 15.2432C9.10453 15.4512 9.33997 15.6544 9.57864 15.856C9.63186 15.9011 9.68991 15.9463 9.7528 15.9753C9.86569 16.0269 9.9689 15.9963 10.0173 15.8947C10.1189 15.6867 10.2221 15.477 10.3156 15.2658C10.4978 14.8529 10.6752 14.4401 10.8542 14.0256C11.0123 13.6564 11.1768 13.2919 11.2848 12.8871V12.8904C11.3235 12.9033 11.359 12.9145 11.3961 12.9274C11.638 13.0178 11.8799 13.1048 12.1201 13.1984C12.7233 13.437 13.3248 13.6773 13.9247 13.9224C14.0811 13.9853 14.2294 13.9466 14.294 13.8063C14.3472 13.6886 14.2762 13.5451 14.1279 13.4822L14.1198 13.4886ZM5.54708 15.456C5.41646 15.1674 5.281 14.9013 5.17457 14.6239C4.95203 14.0369 4.74561 13.4435 4.52791 12.8549C4.45856 12.6662 4.48437 12.5033 4.6037 12.355C5.35518 13.0355 6.11957 13.6951 7.15648 13.9853C6.62593 14.5094 6.0986 14.9787 5.54547 15.4577L5.54708 15.456ZM10.7978 12.8952C10.5011 13.6902 10.1963 14.4788 9.83666 15.2464C9.74474 15.4431 9.72378 15.4399 9.5609 15.2932C9.21419 14.9803 8.85941 14.6739 8.50947 14.3643C8.43207 14.2966 8.35305 14.2272 8.28048 14.1547C8.23533 14.1095 8.19662 14.0595 8.14179 13.9934C9.14485 13.6547 9.97535 13.0839 10.6833 12.3275C10.8155 12.4985 10.8849 12.663 10.7994 12.8936L10.7978 12.8952Z" fill="#212121"/>
</svg>
