<svg width="16" height="16" viewBox="0 0 16 16" fill="none" xmlns="http://www.w3.org/2000/svg">
<path d="M14.6668 8H10.6668L9.3335 10H6.66683L5.3335 8H1.3335" stroke="#212121" stroke-width="1.33333" stroke-linecap="round" stroke-linejoin="round"/>
<path d="M3.6335 3.40675L1.3335 8.00008V12.0001C1.3335 12.3537 1.47397 12.6928 1.72402 12.9429C1.97407 13.1929 2.31321 13.3334 2.66683 13.3334H13.3335C13.6871 13.3334 14.0263 13.1929 14.2763 12.9429C14.5264 12.6928 14.6668 12.3537 14.6668 12.0001V8.00008L12.3668 3.40675C12.2564 3.18461 12.0863 2.99766 11.8755 2.86693C11.6647 2.73621 11.4216 2.66688 11.1735 2.66675H4.82683C4.57877 2.66688 4.33567 2.73621 4.12486 2.86693C3.91405 2.99766 3.74388 3.18461 3.6335 3.40675Z" stroke="#212121" stroke-width="1.33333" stroke-linecap="round" stroke-linejoin="round"/>
</svg>
