<svg width="16" height="16" viewBox="0 0 16 16" fill="none" xmlns="http://www.w3.org/2000/svg">
<path d="M14.1621 2.06594H11.8192V1.20581C11.8192 1.09204 11.7269 1 11.613 1H6.13189C6.0771 1 6.02475 1.02172 5.98594 1.0603L4.97819 2.06609H1.83746C1.37559 2.06609 1 2.4411 1 2.90192V11.398C1 11.8588 1.37574 12.2338 1.83746 12.2338H6.1815L5.47233 13.6734H4.53458C4.16813 13.6734 3.87 13.971 3.87 14.3367C3.87 14.7025 4.16813 15 4.53458 15H11.4654C11.8319 15 12.13 14.7025 12.13 14.3367C12.13 13.971 11.8319 13.6734 11.4654 13.6734H10.5277L9.8185 12.2338H14.1625C14.6244 12.2338 15 11.8588 15 11.398V2.90177C14.9995 2.4408 14.624 2.06594 14.1621 2.06594ZM11.8192 10.3312V3.30792H13.7551V10.9917H2.24439V3.30792H4.1803V10.3312C4.1803 10.4449 4.27268 10.537 4.38651 10.537H11.613C11.7269 10.537 11.8192 10.4448 11.8192 10.3312ZM11.4067 10.1252H4.59287V3.1536H6.13189C6.24587 3.1536 6.33809 3.06141 6.33809 2.94779V1.41161H11.4067V10.1252ZM4.8846 2.74184L5.92553 1.70293V2.74184H4.8846ZM11.7171 14.3366C11.7171 14.4752 11.6041 14.5881 11.4651 14.5881H4.53443C4.39549 14.5881 4.28242 14.4752 4.28242 14.3366C4.28242 14.1979 4.39549 14.085 4.53443 14.085H11.4653C11.6041 14.0852 11.7171 14.1979 11.7171 14.3366ZM10.0676 13.6734H5.93192L6.64109 12.2338H9.3583L10.0676 13.6734ZM14.587 11.3979C14.587 11.6318 14.3963 11.8219 14.1621 11.8219H1.83746C1.6031 11.8219 1.41257 11.6316 1.41257 11.3979V2.90177C1.41257 2.66787 1.60325 2.47771 1.83746 2.47771H4.56578L4.24072 2.80214C4.21454 2.82826 4.19628 2.86092 4.18715 2.89615H2.03803C1.92405 2.89615 1.83183 2.98835 1.83183 3.10196V11.1975C1.83183 11.3113 1.9242 11.4033 2.03803 11.4033H13.9614C14.0753 11.4033 14.1676 11.3111 14.1676 11.1975V3.10196C14.1676 2.9882 14.0752 2.89615 13.9614 2.89615H11.8192V2.47771H14.1621C14.3964 2.47771 14.587 2.66802 14.587 2.90177V11.3979ZM6.9351 2.4572C6.9351 2.34344 7.02748 2.25139 7.14131 2.25139H10.5913C10.7053 2.25139 10.7975 2.34359 10.7975 2.4572C10.7975 2.57081 10.7051 2.66301 10.5913 2.66301H7.14146C7.02748 2.66316 6.9351 2.57096 6.9351 2.4572ZM10.7976 3.66576C10.7976 3.77953 10.7053 3.87157 10.5914 3.87157H5.40811C5.29412 3.87157 5.2019 3.77937 5.2019 3.66576C5.2019 3.55215 5.29428 3.45996 5.40811 3.45996H10.5913C10.7053 3.4598 10.7976 3.552 10.7976 3.66576ZM10.5913 4.39694H5.40811C5.29412 4.39694 5.2019 4.48914 5.2019 4.60275V9.26506C5.2019 9.37883 5.29428 9.47087 5.40811 9.47087H10.5913C10.7053 9.47087 10.7975 9.37868 10.7975 9.26506V4.6029C10.7976 4.48914 10.7053 4.39694 10.5913 4.39694ZM10.3851 5.30325H6.67274V4.80871H10.3851V5.30325ZM6.26018 6.66492V7.20305H5.61432V6.66492H6.26018ZM5.61447 6.25315V5.71502H6.26033V6.25315H5.61447ZM6.26018 7.61482V8.15295H5.61432V7.61482H6.26018ZM6.67274 7.61482H10.3851V8.15295H6.67274V7.61482ZM6.67274 7.20305V6.66492H10.3851V7.20305H6.67274ZM6.67274 6.25315V5.71502H10.3851V6.25315H6.67274ZM6.26018 4.80871V5.3031H5.61432V4.80871H6.26018ZM5.61447 8.56471H6.26033V9.05911H5.61447V8.56471ZM6.67274 9.05926V8.56487H10.3851V9.05926H6.67274Z" fill="black"/>
</svg>
