<svg width="24" height="24" viewBox="0 0 24 24" fill="none" xmlns="http://www.w3.org/2000/svg">
<path d="M7.56743 1.88672C6.99275 1.88672 6.51837 2.36204 6.51837 2.93578V6.03058L1.12125 6.03151C0.505319 6.03151 0 6.53964 0 7.15558V21.7262C0 21.9324 0.166874 22.1003 0.373127 22.1012H23.6241H23.6231C23.7234 22.1012 23.8191 22.0618 23.8894 21.9915C23.9597 21.9212 24 21.8265 24 21.7262V7.08069C24 6.50601 23.5247 6.03163 22.9509 6.03163H17.4787V2.93683C17.4787 2.36215 17.0043 1.88777 16.4296 1.88777L7.56743 1.88672ZM7.56743 2.63765H16.4287C16.5984 2.63765 16.7278 2.76797 16.7278 2.93672V21.3502H14.3887V18.3464H14.7018C14.8012 18.3464 14.8959 18.3061 14.9662 18.2358C15.0365 18.1645 15.075 18.0689 15.075 17.9695C15.074 17.7642 14.9071 17.5973 14.7018 17.5964H9.29536C9.09005 17.5973 8.92317 17.7642 8.92223 17.9695C8.9213 18.0689 8.96067 18.1645 9.03098 18.2358C9.10129 18.3061 9.19598 18.3464 9.29536 18.3464H9.60849V21.3502H7.26943V2.93672C7.26943 2.76797 7.39881 2.63765 7.5685 2.63765H7.56743ZM8.99336 3.9942C8.78711 3.99327 8.61836 4.16108 8.61743 4.36733V7.10573C8.61743 7.2051 8.6568 7.30167 8.72711 7.37198C8.79743 7.4423 8.89399 7.48261 8.99337 7.48167H11.0896C11.2959 7.48073 11.4637 7.31292 11.4628 7.10573V4.36734C11.4618 4.16203 11.2949 3.99515 11.0896 3.99421L8.99336 3.9942ZM12.9075 3.9942C12.7022 3.99514 12.5353 4.16202 12.5344 4.36733V7.10573C12.5335 7.31291 12.7003 7.48073 12.9075 7.48166H15.0028C15.1031 7.4826 15.1988 7.44229 15.27 7.37198C15.3403 7.30166 15.3797 7.2051 15.3797 7.10572V4.36732C15.3788 4.16107 15.21 3.99326 15.0028 3.9942L12.9075 3.9942ZM9.36752 4.7442H10.7128V6.73169H9.36752V4.7442ZM13.2843 4.7442H14.6296V6.73169H13.2843V4.7442ZM1.12113 6.78139H6.51921V21.3501H0.749855V7.15531C0.749855 6.94531 0.910168 6.78218 1.12111 6.78218L1.12113 6.78139ZM17.4776 6.78139H22.9498C23.1195 6.78139 23.2489 6.9117 23.2489 7.08046V21.3501H17.4776L17.4776 6.78139ZM2.58537 7.86326C2.37819 7.8642 2.21037 8.03295 2.21131 8.24013V10.9757C2.21037 11.1828 2.37818 11.3506 2.58537 11.3516H4.68069C4.78006 11.3525 4.87663 11.3122 4.94695 11.2419C5.0182 11.1716 5.05757 11.075 5.05663 10.9756V8.24013C5.05757 8.13981 5.01819 8.04419 4.94695 7.97294C4.87663 7.90262 4.78007 7.86325 4.68069 7.86325L2.58537 7.86326ZM19.316 7.86326C19.2157 7.86326 19.1201 7.90264 19.0497 7.97295C18.9785 8.0442 18.9391 8.13982 18.94 8.24014V10.9757C18.9391 11.075 18.9785 11.1716 19.0497 11.2419C19.12 11.3122 19.2157 11.3525 19.316 11.3516H21.4113C21.6185 11.3507 21.7854 11.1829 21.7854 10.9757V8.24015C21.7854 8.03296 21.6185 7.86421 21.4113 7.86328L19.316 7.86326ZM8.99312 8.45294C8.89375 8.45294 8.79812 8.49232 8.7278 8.56169C8.65749 8.632 8.61718 8.72763 8.61718 8.82701V11.5654C8.61718 11.6648 8.65655 11.7613 8.72687 11.8317C8.79718 11.902 8.89374 11.9423 8.99312 11.9413H11.0894C11.2956 11.9404 11.4634 11.7717 11.4625 11.5654V8.82702C11.4625 8.62077 11.2956 8.45389 11.0894 8.45295L8.99312 8.45294ZM12.9073 8.45294C12.701 8.45388 12.5342 8.62075 12.5342 8.827V11.5654C12.5332 11.7717 12.7001 11.9404 12.9073 11.9413H15.0026C15.1029 11.9423 15.1985 11.902 15.2698 11.8316C15.3401 11.7613 15.3795 11.6648 15.3795 11.5654V8.827C15.3795 8.72762 15.3392 8.632 15.2688 8.56168C15.1985 8.4923 15.1029 8.45293 15.0026 8.45293L12.9073 8.45294ZM2.96145 8.61419H4.30677V10.6007H2.96145V8.61419ZM19.6892 8.61419H21.0345V10.6007H19.6892V8.61419ZM9.36632 9.20387H10.7116V11.1904H9.36632V9.20387ZM13.2831 9.20387H14.6284V11.1904H13.2841L13.2831 9.20387ZM2.58441 12.3229H2.58535C2.37816 12.3238 2.21035 12.4926 2.21129 12.6998V15.4346C2.21035 15.6418 2.37816 15.8096 2.58535 15.8105H4.68067C4.78004 15.8114 4.87661 15.7721 4.94692 15.7008C5.01817 15.6305 5.05755 15.5339 5.05661 15.4346V12.6998C5.05755 12.5995 5.01817 12.5038 4.94692 12.4326C4.87661 12.3623 4.78005 12.3229 4.68067 12.3229L2.58441 12.3229ZM19.315 12.3229H19.316C19.2157 12.3229 19.12 12.3623 19.0497 12.4326C18.9785 12.5038 18.9391 12.5995 18.94 12.6998V15.4346C18.9391 15.534 18.9785 15.6305 19.0497 15.7008C19.12 15.7721 19.2156 15.8115 19.316 15.8105H21.4113C21.6185 15.8096 21.7853 15.6418 21.7853 15.4346V12.6998C21.7853 12.4926 21.6185 12.3239 21.4113 12.3229L19.315 12.3229ZM8.99216 12.9126H8.9931C8.89373 12.9126 8.7981 12.951 8.72778 13.0213C8.65747 13.0916 8.61716 13.1873 8.61716 13.2867V16.0241C8.61716 16.1235 8.65653 16.22 8.72684 16.2903C8.79716 16.3607 8.89372 16.401 8.9931 16.4H11.0894C11.2956 16.3991 11.4634 16.2313 11.4625 16.0241V13.2867C11.4625 13.0804 11.2956 12.9135 11.0894 12.9126L8.99216 12.9126ZM12.9063 12.9126H12.9073C12.701 12.9135 12.5341 13.0804 12.5341 13.2866V16.0241C12.5332 16.2313 12.7001 16.3991 12.9073 16.4H15.0026C15.1029 16.401 15.1985 16.3606 15.2698 16.2903C15.3401 16.22 15.3795 16.1235 15.3795 16.0241V13.2866C15.3795 13.1873 15.3391 13.0916 15.2688 13.0213C15.1985 12.951 15.1029 12.9126 15.0026 12.9126L12.9063 12.9126ZM2.96049 13.0738H4.30581V15.0604H2.96049V13.0738ZM19.6882 13.0738H21.0335V15.0604H19.6882V13.0738ZM9.36536 13.6635H10.7107V15.6501H9.36536V13.6635ZM13.2822 13.6635H14.6293V15.6501H13.284L13.2822 13.6635ZM2.58345 16.7826H2.58533C2.37814 16.7835 2.21033 16.9522 2.21126 17.1594V19.8942C2.21033 20.1014 2.37814 20.2692 2.58533 20.2702H4.68064C4.78002 20.2711 4.87658 20.2308 4.9469 20.1605C5.01815 20.0902 5.05753 19.9936 5.05659 19.8942V17.1594C5.05753 17.0591 5.01815 16.9635 4.9469 16.8922C4.87659 16.8219 4.78003 16.7825 4.68064 16.7825L2.58345 16.7826ZM19.3141 16.7826H19.3159C19.2156 16.7826 19.12 16.8219 19.0497 16.8922C18.9784 16.9635 18.9391 17.0591 18.94 17.1594V19.8942C18.9391 19.9936 18.9784 20.0902 19.0497 20.1605C19.12 20.2308 19.2156 20.2711 19.3159 20.2702H21.4113C21.6184 20.2692 21.7853 20.1014 21.7853 19.8942V17.1594C21.7853 16.9523 21.6185 16.7835 21.4113 16.7826L19.3141 16.7826ZM2.95929 17.5325H4.30461V19.52H2.95929V17.5325ZM19.687 17.5325H21.0323V19.52H19.687V17.5325ZM10.3551 18.3463H13.6354V21.3501H10.3551V18.3463Z" fill="black"/>
</svg>
