<svg width="16" height="16" viewBox="0 0 16 16" fill="none" xmlns="http://www.w3.org/2000/svg">
<path d="M0 6.75193C0 6.16989 0.197972 5.682 0.593917 5.28827C0.989861 4.89454 1.47361 4.69767 2.04517 4.69767H13.0261C13.6055 4.69767 14.0913 4.89454 14.4833 5.28827C14.8753 5.682 15.0713 6.16989 15.0713 6.75193V6.98098C15.0713 7.15559 15.0122 7.30199 14.8941 7.42018C14.7762 7.53823 14.63 7.59726 14.4555 7.59726C14.2913 7.59726 14.1483 7.53823 14.0266 7.42018C13.905 7.30199 13.8442 7.15559 13.8442 6.98098V6.75193C13.8442 6.51911 13.7658 6.32396 13.609 6.16647C13.4522 6.00897 13.2579 5.93023 13.0261 5.93023H2.04517C1.81338 5.93023 1.61909 6.00897 1.46229 6.16647C1.3055 6.32396 1.2271 6.51911 1.2271 6.75193V9.94384C1.2271 10.0177 1.25069 10.0783 1.29786 10.1256C1.34504 10.173 1.40537 10.1967 1.47886 10.1967H3.03626C3.03626 9.79751 3.17799 9.45541 3.46145 9.17041C3.74491 8.88542 4.08563 8.74292 4.48362 8.74292H8.53469C8.70853 8.74292 8.85421 8.80201 8.97174 8.9202C9.08941 9.03839 9.14824 9.18479 9.14824 9.3594C9.14824 9.53415 9.08941 9.68048 8.97174 9.7984C8.85421 9.91645 8.70853 9.97548 8.53469 9.97548H4.51512C4.44163 9.97548 4.38129 9.99917 4.33412 10.0466C4.28694 10.0939 4.26336 10.1545 4.26336 10.2284V13.2307C4.26336 13.3045 4.28694 13.3651 4.33412 13.4125C4.38129 13.4598 4.44163 13.4835 4.51512 13.4835H8.53469C8.70853 13.4835 8.85421 13.5426 8.97174 13.6608C9.08941 13.779 9.14824 13.9254 9.14824 14.1C9.14824 14.2748 9.08941 14.4211 8.97174 14.539C8.85421 14.6571 8.70853 14.7161 8.53469 14.7161H4.51512C4.1084 14.7161 3.76025 14.5707 3.47065 14.2798C3.18105 13.9889 3.03626 13.6392 3.03626 13.2307V11.4293H1.47886C1.07215 11.4293 0.723989 11.2838 0.434394 10.993C0.144798 10.7021 0 10.3524 0 9.94384V6.75193ZM3.03626 4.69767V2.48544C3.03626 2.07691 3.18105 1.72721 3.47065 1.43632C3.76025 1.14544 4.1084 1 4.51512 1H10.5561C10.9628 1 11.311 1.14544 11.6006 1.43632C11.8902 1.72721 12.035 2.07691 12.035 2.48544V4.69767H10.8079V2.48544C10.8079 2.41162 10.7843 2.35102 10.7371 2.30363C10.69 2.25625 10.6296 2.23256 10.5561 2.23256H4.51512C4.44163 2.23256 4.38129 2.25625 4.33412 2.30363C4.28694 2.35102 4.26336 2.41162 4.26336 2.48544V4.69767H3.03626Z" fill="#212121"/>
<path fill-rule="evenodd" clip-rule="evenodd" d="M14.4632 14.5837C12.9937 15.4411 11.1148 14.9315 10.2665 13.4462C9.41833 11.9608 9.92163 10.062 11.3909 9.20443C12.8603 8.34687 14.7395 8.85523 15.588 10.3405C16.4363 11.8259 15.9326 13.7261 14.4632 14.5837ZM13.6742 13.0835C13.9115 13.0833 14.1036 12.8889 14.1037 12.649C14.1035 12.4091 13.9113 12.2148 13.6739 12.2148L13.2191 12.2144L13.9783 11.4466C14.1461 11.2769 14.146 11.0011 13.9784 10.8313C13.8105 10.6616 13.5377 10.6615 13.3698 10.8312L12.6102 11.6004L12.6096 11.1388C12.6096 10.8989 12.4166 10.7039 12.1793 10.7037C11.9421 10.704 11.749 10.8989 11.7489 11.1387L11.7488 12.6497C11.7488 12.6524 11.7497 12.6551 11.7497 12.6577C11.7502 12.6833 11.7531 12.7086 11.758 12.7338C11.7601 12.7445 11.7645 12.7546 11.7674 12.7651C11.7865 12.8351 11.8204 12.9023 11.8747 12.9573C11.9588 13.0423 12.0696 13.0844 12.18 13.0843L13.6742 13.0835Z" fill="#212121"/>
</svg>
