<svg width="16" height="16" viewBox="0 0 16 16" fill="none" xmlns="http://www.w3.org/2000/svg">
<g clip-path="url(#clip0_1990_626)">
<path d="M7.37 12.9H8.595V12.025C9.17833 11.92 9.68 11.6925 10.1 11.3425C10.52 10.9925 10.73 10.4733 10.73 9.785C10.73 9.295 10.59 8.84583 10.31 8.4375C10.03 8.02917 9.47 7.67333 8.63 7.37C7.93 7.13667 7.44583 6.9325 7.1775 6.7575C6.90917 6.5825 6.775 6.34333 6.775 6.04C6.775 5.73667 6.88292 5.4975 7.09875 5.3225C7.31458 5.1475 7.62667 5.06 8.035 5.06C8.40833 5.06 8.7 5.15042 8.91 5.33125C9.12 5.51208 9.27167 5.73667 9.365 6.005L10.485 5.55C10.3567 5.14167 10.1204 4.78583 9.77625 4.4825C9.43208 4.17917 9.05 4.01 8.63 3.975V3.1H7.405V3.975C6.82167 4.10333 6.36667 4.36 6.04 4.745C5.71333 5.13 5.55 5.56167 5.55 6.04C5.55 6.58833 5.71042 7.03167 6.03125 7.37C6.35208 7.70833 6.85667 8 7.545 8.245C8.28 8.51333 8.79042 8.7525 9.07625 8.9625C9.36208 9.1725 9.505 9.44667 9.505 9.785C9.505 10.17 9.36792 10.4529 9.09375 10.6337C8.81958 10.8146 8.49 10.905 8.105 10.905C7.72 10.905 7.37875 10.7854 7.08125 10.5463C6.78375 10.3071 6.565 9.94833 6.425 9.47L5.27 9.925C5.43333 10.485 5.68708 10.9371 6.03125 11.2812C6.37542 11.6254 6.82167 11.8617 7.37 11.99V12.9ZM8 15C7.03167 15 6.12167 14.8163 5.27 14.4488C4.41833 14.0813 3.6775 13.5825 3.0475 12.9525C2.4175 12.3225 1.91875 11.5817 1.55125 10.73C1.18375 9.87833 1 8.96833 1 8C1 7.03167 1.18375 6.12167 1.55125 5.27C1.91875 4.41833 2.4175 3.6775 3.0475 3.0475C3.6775 2.4175 4.41833 1.91875 5.27 1.55125C6.12167 1.18375 7.03167 1 8 1C8.96833 1 9.87833 1.18375 10.73 1.55125C11.5817 1.91875 12.3225 2.4175 12.9525 3.0475C13.5825 3.6775 14.0813 4.41833 14.4488 5.27C14.8163 6.12167 15 7.03167 15 8C15 8.96833 14.8163 9.87833 14.4488 10.73C14.0813 11.5817 13.5825 12.3225 12.9525 12.9525C12.3225 13.5825 11.5817 14.0813 10.73 14.4488C9.87833 14.8163 8.96833 15 8 15Z" fill="#212121"/>
</g>
<defs>
<clipPath id="clip0_1990_626">
<rect width="16" height="16" fill="white"/>
</clipPath>
</defs>
</svg>
