<svg width="16" height="16" viewBox="0 0 16 16" fill="none" xmlns="http://www.w3.org/2000/svg">
<g clip-path="url(#clip0_1343_31845)">
<path d="M12 15C11.0288 15 10.2027 14.6595 9.52161 13.9784C8.84054 13.2973 8.5 12.4712 8.5 11.5C8.5 10.5288 8.84054 9.70269 9.52161 9.02161C10.2027 8.34054 11.0288 8 12 8C12.9713 8 13.7974 8.34054 14.4784 9.02161C15.1595 9.70269 15.5 10.5288 15.5 11.5C15.5 12.4712 15.1595 13.2973 14.4784 13.9784C13.7974 14.6595 12.9713 15 12 15ZM13.2954 13.2799L13.7799 12.7954L12.3442 11.3594V9.21158H11.656V11.6406L13.2954 13.2799Z" fill="#212121"/>
<path fill-rule="evenodd" clip-rule="evenodd" d="M0.5 2.88847C0.5 1.8455 1.3455 1 2.38847 1H4.90644V6.03593C4.90644 6.23827 5.00371 6.42828 5.16786 6.5466C5.33201 6.66491 5.54303 6.69708 5.73499 6.63311L7.4244 6.06998L9.11383 6.63311C9.30576 6.69708 9.51677 6.66491 9.68094 6.5466C9.84511 6.42828 9.94236 6.23827 9.94236 6.03593V1H12.4603C13.5033 1 14.3488 1.8455 14.3488 2.88847V7.68479C13.6415 7.21132 12.7909 6.9352 11.8758 6.9352C9.41736 6.9352 7.4244 8.92816 7.4244 11.3866C7.4244 12.785 8.06919 14.0327 9.07768 14.8488H2.38847C1.3455 14.8488 0.5 14.0033 0.5 12.9603V2.88847ZM3.64745 11.7013V10.4424H6.16542V11.7013H3.64745Z" fill="#212121"/>
<path d="M8.68338 1H6.16542V5.16255L7.22536 4.80925C7.35453 4.76618 7.49427 4.76618 7.62345 4.80925L8.68338 5.16255V1Z" fill="#212121"/>
</g>
<defs>
<clipPath id="clip0_1343_31845">
<rect width="16" height="16" fill="white"/>
</clipPath>
</defs>
</svg>
