<svg width="16" height="16" viewBox="0 0 16 16" fill="none" xmlns="http://www.w3.org/2000/svg">
<path d="M5.6 14C5.16 14 4.78333 13.8531 4.47 13.5594C4.15667 13.2656 4 12.9125 4 12.5C4 12.0875 4.15667 11.7344 4.47 11.4406C4.78333 11.1469 5.16 11 5.6 11C6.04 11 6.41667 11.1469 6.73 11.4406C7.04333 11.7344 7.2 12.0875 7.2 12.5C7.2 12.9125 7.04333 13.2656 6.73 13.5594C6.41667 13.8531 6.04 14 5.6 14ZM10.4 14C9.96 14 9.58333 13.8531 9.27 13.5594C8.95667 13.2656 8.8 12.9125 8.8 12.5C8.8 12.0875 8.95667 11.7344 9.27 11.4406C9.58333 11.1469 9.96 11 10.4 11C10.84 11 11.2167 11.1469 11.53 11.4406C11.8433 11.7344 12 12.0875 12 12.5C12 12.9125 11.8433 13.2656 11.53 13.5594C11.2167 13.8531 10.84 14 10.4 14ZM5.6 9.5C5.16 9.5 4.78333 9.35313 4.47 9.05938C4.15667 8.76563 4 8.4125 4 8C4 7.5875 4.15667 7.23438 4.47 6.94063C4.78333 6.64688 5.16 6.5 5.6 6.5C6.04 6.5 6.41667 6.64688 6.73 6.94063C7.04333 7.23438 7.2 7.5875 7.2 8C7.2 8.4125 7.04333 8.76563 6.73 9.05938C6.41667 9.35313 6.04 9.5 5.6 9.5ZM10.4 9.5C9.96 9.5 9.58333 9.35313 9.27 9.05938C8.95667 8.76563 8.8 8.4125 8.8 8C8.8 7.5875 8.95667 7.23438 9.27 6.94063C9.58333 6.64688 9.96 6.5 10.4 6.5C10.84 6.5 11.2167 6.64688 11.53 6.94063C11.8433 7.23438 12 7.5875 12 8C12 8.4125 11.8433 8.76563 11.53 9.05938C11.2167 9.35313 10.84 9.5 10.4 9.5ZM5.6 5C5.16 5 4.78333 4.85313 4.47 4.55938C4.15667 4.26562 4 3.9125 4 3.5C4 3.0875 4.15667 2.73438 4.47 2.44063C4.78333 2.14687 5.16 2 5.6 2C6.04 2 6.41667 2.14687 6.73 2.44063C7.04333 2.73438 7.2 3.0875 7.2 3.5C7.2 3.9125 7.04333 4.26562 6.73 4.55938C6.41667 4.85313 6.04 5 5.6 5ZM10.4 5C9.96 5 9.58333 4.85313 9.27 4.55938C8.95667 4.26562 8.8 3.9125 8.8 3.5C8.8 3.0875 8.95667 2.73438 9.27 2.44063C9.58333 2.14687 9.96 2 10.4 2C10.84 2 11.2167 2.14687 11.53 2.44063C11.8433 2.73438 12 3.0875 12 3.5C12 3.9125 11.8433 4.26562 11.53 4.55938C11.2167 4.85313 10.84 5 10.4 5Z" fill="#212121"/>
</svg>
