<svg width="16" height="16" viewBox="0 0 16 16" fill="none" xmlns="http://www.w3.org/2000/svg">
<path d="M4.27141 11.4728H3.49996C3.13063 11.4728 2.81449 11.3385 2.55151 11.07C2.28854 10.8015 2.15706 10.4787 2.15706 10.1016V4.5006H2.05714C1.89929 4.5006 1.76693 4.44605 1.66009 4.33695C1.55336 4.22786 1.5 4.09272 1.5 3.93154C1.5 3.77024 1.55336 3.63516 1.66009 3.52632C1.76693 3.41735 1.89929 3.36287 2.05714 3.36287H4.27141V2.13773H3.78577C3.62791 2.13773 3.49556 2.08318 3.38871 1.97408C3.28199 1.86499 3.22863 1.72979 3.22863 1.56848C3.22863 1.40731 3.28199 1.27223 3.38871 1.16326C3.49556 1.05442 3.62791 1 3.78577 1H5.87134C6.0292 1 6.16155 1.05455 6.2684 1.16364C6.37512 1.27261 6.42849 1.40775 6.42849 1.56905C6.42849 1.73036 6.37512 1.86543 6.2684 1.97427C6.16155 2.08324 6.0292 2.13773 5.87134 2.13773H5.3857V3.36287H7.59997C7.75783 3.36287 7.89012 3.41742 7.99684 3.52651C8.10369 3.63561 8.15711 3.77074 8.15711 3.93192C8.15711 4.09323 8.10369 4.2283 7.99684 4.33714C7.89012 4.44611 7.75783 4.5006 7.59997 4.5006H7.49987V10.1016C7.49987 10.4787 7.36839 10.8015 7.10541 11.07C6.84244 11.3385 6.52636 11.4728 6.15716 11.4728H5.3857V14.7037C5.3857 14.8189 5.33426 14.9053 5.23137 14.9629C5.12849 15.0206 5.02944 15.011 4.93423 14.9341L4.49427 14.5956C4.42098 14.5393 4.36551 14.4725 4.32787 14.3954C4.29023 14.3182 4.27141 14.2313 4.27141 14.1349V11.4728ZM11.8268 14.886C11.0918 14.886 10.4631 14.6189 9.94071 14.0848C9.41836 13.5506 9.15719 12.9084 9.15719 12.1583V6.46981C9.15719 5.71967 9.41892 5.07755 9.94239 4.54345C10.4659 4.00922 11.0951 3.74211 11.8302 3.74211C12.5652 3.74211 13.1939 4.00922 13.7163 4.54345C14.2388 5.07755 14.5 5.71967 14.5 6.46981V12.1583C14.5 12.9084 14.2383 13.5506 13.7148 14.0848C13.1912 14.6189 12.5619 14.886 11.8268 14.886ZM3.49996 10.335H6.15716C6.22377 10.335 6.27849 10.3132 6.32133 10.2694C6.36429 10.2257 6.38577 10.1698 6.38577 10.1016V8.9931H5.01427C4.89616 8.9931 4.79284 8.94791 4.70431 8.85752C4.61567 8.76714 4.57134 8.66164 4.57134 8.54104C4.57134 8.42044 4.61567 8.31495 4.70431 8.22457C4.79284 8.13405 4.89616 8.0888 5.01427 8.0888H6.38577V6.74685H5.01427C4.89616 6.74685 4.79284 6.70166 4.70431 6.61127C4.61567 6.52076 4.57134 6.41526 4.57134 6.29479C4.57134 6.17419 4.61567 6.06864 4.70431 5.97812C4.79284 5.88774 4.89616 5.84255 5.01427 5.84255H6.38577V4.5006H3.27134V10.1016C3.27134 10.1698 3.29276 10.2257 3.3356 10.2694C3.37856 10.3132 3.43335 10.335 3.49996 10.335ZM11.832 4.87984C11.402 4.87984 11.0344 5.03444 10.7293 5.34365C10.4239 5.65286 10.2713 6.02825 10.2713 6.46981V6.65943H13.3857V6.46981C13.3857 6.02825 13.2343 5.65286 12.9315 5.34365C12.6285 5.03444 12.262 4.87984 11.832 4.87984ZM10.2713 10.8311H13.3857V7.79716H10.2713V10.8311ZM11.8285 13.7482C12.2608 13.7482 12.6285 13.5926 12.9315 13.2812C13.2343 12.9698 13.3857 12.5955 13.3857 12.1583V11.9686H10.2713V12.1583C10.2713 12.5955 10.4238 12.9698 10.7287 13.2812C11.0336 13.5926 11.4002 13.7482 11.8285 13.7482Z" fill="#212121"/>
</svg>
