<svg width="16" height="16" viewBox="0 0 16 16" fill="none" xmlns="http://www.w3.org/2000/svg">
<path d="M0 6.75185C0 6.16982 0.197972 5.68194 0.593916 5.28821C0.98986 4.89448 1.47361 4.69762 2.04517 4.69762H13.0261C13.6055 4.69762 14.0913 4.89448 14.4833 5.28821C14.8752 5.68194 15.0712 6.16982 15.0712 6.75185V6.9809C15.0712 7.15551 15.0122 7.30191 14.8941 7.42009C14.7762 7.53814 14.63 7.59717 14.4554 7.59717C14.2913 7.59717 14.1483 7.53814 14.0266 7.42009C13.9049 7.30191 13.8441 7.15551 13.8441 6.9809V6.75185C13.8441 6.51904 13.7657 6.32389 13.6089 6.1664C13.4521 6.0089 13.2579 5.93016 13.0261 5.93016H2.04517C1.81338 5.93016 1.61909 6.0089 1.46229 6.1664C1.3055 6.32389 1.2271 6.51904 1.2271 6.75185V9.94372C1.2271 10.0175 1.25069 10.0781 1.29786 10.1255C1.34504 10.1729 1.40537 10.1966 1.47886 10.1966H3.03625C3.03625 9.79739 3.17798 9.45529 3.46144 9.1703C3.7449 8.88531 4.08563 8.74282 4.48362 8.74282H8.53468C8.70852 8.74282 8.85421 8.80191 8.97173 8.9201C9.0894 9.03828 9.14823 9.18468 9.14823 9.35929C9.14823 9.53404 9.0894 9.68037 8.97173 9.79828C8.85421 9.91633 8.70852 9.97535 8.53468 9.97535H4.51511C4.44162 9.97535 4.38129 9.99905 4.33412 10.0464C4.28694 10.0938 4.26335 10.1544 4.26335 10.2282V13.2305C4.26335 13.3043 4.28694 13.3649 4.33412 13.4123C4.38129 13.4597 4.44162 13.4834 4.51511 13.4834H8.53468C8.70852 13.4834 8.85421 13.5425 8.97173 13.6606C9.0894 13.7788 9.14823 13.9252 9.14823 14.0998C9.14823 14.2746 9.0894 14.4209 8.97173 14.5388C8.85421 14.6569 8.70852 14.7159 8.53468 14.7159H4.51511C4.1084 14.7159 3.76024 14.5705 3.47065 14.2796C3.18105 13.9887 3.03625 13.639 3.03625 13.2305V11.4291H1.47886C1.07214 11.4291 0.723989 11.2837 0.434393 10.9928C0.144798 10.7019 0 10.3522 0 9.94372V6.75185ZM3.03625 4.69762V2.48542C3.03625 2.0769 3.18105 1.7272 3.47065 1.43632C3.76024 1.14544 4.1084 1 4.51511 1H10.5561C10.9628 1 11.311 1.14544 11.6006 1.43632C11.8902 1.7272 12.035 2.0769 12.035 2.48542V4.69762H10.8079V2.48542C10.8079 2.4116 10.7843 2.351 10.7371 2.30362C10.6899 2.25623 10.6296 2.23254 10.5561 2.23254H4.51511C4.44162 2.23254 4.38129 2.25623 4.33412 2.30362C4.28694 2.351 4.26335 2.4116 4.26335 2.48542V4.69762H3.03625Z" fill="#212121"/>
<path fill-rule="evenodd" clip-rule="evenodd" d="M11.3913 9.20413C12.8608 8.34666 14.7396 8.85627 15.588 10.3416C16.4362 11.8269 15.9329 13.7257 14.4636 14.5833C12.9942 15.4408 11.115 14.9325 10.2665 13.4472C9.41817 11.9619 9.92187 10.0617 11.3913 9.20413ZM12.1803 10.7043C11.9429 10.7044 11.7509 10.8989 11.7508 11.1388C11.751 11.3786 11.9432 11.5729 12.1806 11.5729L12.6354 11.5734L11.8762 12.3412C11.7084 12.5108 11.7085 12.7866 11.8761 12.9564C12.044 13.1261 12.3168 13.1262 12.4847 12.9566L13.2443 12.1873L13.2448 12.649C13.2449 12.8889 13.4379 13.0838 13.6752 13.084C13.9123 13.0837 14.1055 12.8888 14.1056 12.649L14.1057 11.1381C14.1057 11.1354 14.1048 11.1327 14.1048 11.13C14.1043 11.1045 14.1014 11.0791 14.0965 11.054C14.0944 11.0432 14.09 11.0332 14.0871 11.0227C14.0679 10.9527 14.0341 10.8854 13.9797 10.8305C13.8956 10.7455 13.7849 10.7034 13.6745 10.7035L12.1803 10.7043Z" fill="#212121"/>
</svg>
