<svg width="16" height="16" viewBox="0 0 16 16" fill="none" xmlns="http://www.w3.org/2000/svg">
<g clip-path="url(#clip0_1343_32130)">
<path d="M6 1H2C1.44875 1 1 1.44875 1 2V6C1 6.55125 1.44875 7 2 7H6C6.55125 7 7 6.55125 7 6V2C7 1.44875 6.55125 1 6 1Z" fill="#212121"/>
<path d="M14 1H10C9.44875 1 9 1.44875 9 2V6C9 6.55125 9.44875 7 10 7H14C14.5512 7 15 6.55125 15 6V2C15 1.44875 14.5512 1 14 1Z" fill="#212121"/>
<path d="M6 9H2C1.44875 9 1 9.44875 1 10V14C1 14.5512 1.44875 15 2 15H6C6.55125 15 7 14.5512 7 14V10C7 9.44875 6.55125 9 6 9Z" fill="#212121"/>
<path d="M11.9998 15C11.8297 15 11.6872 14.9425 11.5724 14.8274C11.4575 14.7125 11.4 14.57 11.4 14.4V12.6H9.58C9.41493 12.6 9.277 12.5425 9.1662 12.4274C9.0554 12.3123 9 12.1698 9 11.9998C9 11.8297 9.05753 11.6872 9.1726 11.5724C9.28753 11.4575 9.43 11.4 9.6 11.4H11.4V9.58C11.4 9.41493 11.4575 9.277 11.5726 9.1662C11.6877 9.0554 11.8302 9 12.0002 9C12.1703 9 12.3128 9.05753 12.4276 9.1726C12.5425 9.28753 12.6 9.43 12.6 9.6V11.4H14.42C14.5851 11.4 14.723 11.4575 14.8338 11.5726C14.9446 11.6877 15 11.8302 15 12.0002C15 12.1703 14.9425 12.3128 14.8274 12.4276C14.7125 12.5425 14.57 12.6 14.4 12.6H12.6V14.42C12.6 14.5851 12.5425 14.723 12.4274 14.8338C12.3123 14.9446 12.1698 15 11.9998 15Z" fill="#212121"/>
</g>
<defs>
<clipPath id="clip0_1343_32130">
<rect width="16" height="16" fill="white"/>
</clipPath>
</defs>
</svg>
