<svg width="16" height="16" viewBox="0 0 16 16" fill="none" xmlns="http://www.w3.org/2000/svg">
<g clip-path="url(#clip0_1193_14322)">
<path d="M12.0809 9.14013C12.2179 9.45629 12.2975 9.84317 12.3151 10.2905C12.7774 10.3965 13.1233 10.8099 13.1233 11.3037C13.1233 11.8771 12.6567 12.3437 12.0833 12.3437C11.5099 12.3437 11.0433 11.8771 11.0433 11.3037C11.0433 10.8155 11.3817 10.4064 11.8358 10.2945C11.8158 9.85021 11.7095 9.17421 11.2747 8.84045C11.0527 8.78301 10.8246 8.74141 10.5905 8.71997C10.5732 9.49837 8.00043 11.4193 8.00043 11.4193C8.00043 11.4193 5.42683 9.49869 5.40939 8.72029C5.14939 8.74397 4.89643 8.79149 4.65211 8.85997C4.33483 9.11117 4.17067 9.57917 4.16219 10.2595C4.25547 10.3131 4.33083 10.3968 4.37707 10.4981C4.71883 10.6595 5.02075 10.999 5.25195 11.4824C5.29067 11.5637 5.29579 11.6555 5.26731 11.7393C5.40587 12.096 5.48507 12.4857 5.48507 12.8131C5.48507 13.2718 5.48507 13.7056 4.98507 13.8169C4.93099 13.8619 4.86315 13.8867 4.79195 13.8867H4.45787C4.29035 13.8867 4.15403 13.7501 4.15403 13.583L4.15435 13.5712C4.16075 13.4096 4.29595 13.2792 4.45787 13.2792H4.79195C4.82619 13.2792 4.85963 13.2849 4.89195 13.2961C4.91211 13.2905 4.91851 13.2859 4.91867 13.2857C4.95579 13.2198 4.95579 12.9453 4.95579 12.8134C4.95579 12.5475 4.88923 12.2264 4.77259 11.928C4.71211 11.8936 4.66315 11.8416 4.63307 11.7787C4.43051 11.3545 4.15499 11.0806 3.93131 11.0806C3.70251 11.0806 3.41323 11.3769 3.21147 11.8173C3.17851 11.8891 3.12075 11.9475 3.04971 11.9825C2.94427 12.268 2.88635 12.5619 2.88635 12.8133C2.88635 12.924 2.88635 13.2177 2.92859 13.2869C2.92907 13.2869 2.93851 13.2926 2.96507 13.2992C2.99963 13.2859 3.03675 13.279 3.07387 13.279H3.40859C3.56459 13.279 3.69499 13.3977 3.71067 13.5521L3.71227 13.5709C3.71227 13.7502 3.57595 13.8869 3.40859 13.8869H3.07387C3.00747 13.8869 2.94331 13.8646 2.89051 13.8243C2.69931 13.7883 2.56459 13.704 2.47931 13.5667C2.37595 13.4008 2.35707 13.1829 2.35707 12.8133C2.35707 12.4891 2.43195 12.1157 2.56795 11.759C2.54795 11.6827 2.55467 11.603 2.58795 11.5312C2.72955 11.2214 2.90971 10.9561 3.10875 10.7643C3.21819 10.6589 3.33579 10.5741 3.45883 10.5121C3.50491 10.4043 3.58491 10.3158 3.68267 10.26C3.68779 9.83357 3.75339 9.46541 3.87467 9.16189C2.48619 9.86621 1.53467 11.3067 1.53467 12.9702C1.53467 15.096 3.08779 15.2 5.12091 15.2C5.34283 15.2 5.57003 15.1987 5.80219 15.1987H10.1969C10.4287 15.1987 10.6559 15.2 10.8779 15.2C12.9113 15.2 14.4651 15.096 14.4651 12.9702C14.4649 11.2891 13.4931 9.83597 12.0809 9.14013Z" fill="#212121"/>
<path d="M8.00111 9.27877C9.96655 9.27877 11.5597 6.32341 11.5597 4.35813C11.5597 2.39317 9.96655 0.800049 8.00111 0.800049C6.03599 0.800049 4.44287 2.39317 4.44287 4.35813C4.44287 6.32341 6.03599 9.27877 8.00111 9.27877Z" fill="#212121"/>
<path d="M12.083 11.7837C12.3481 11.7837 12.563 11.5688 12.563 11.3037C12.563 11.0386 12.3481 10.8237 12.083 10.8237C11.8179 10.8237 11.603 11.0386 11.603 11.3037C11.603 11.5688 11.8179 11.7837 12.083 11.7837Z" fill="#212121"/>
</g>
<defs>
<clipPath id="clip0_1193_14322">
<rect width="16" height="16" fill="white"/>
</clipPath>
</defs>
</svg>
