<svg width="16" height="16" viewBox="0 0 16 16" fill="none" xmlns="http://www.w3.org/2000/svg">
<g clip-path="url(#clip0_746_3432)">
<path d="M7.67676 1.75879C7.76602 1.42887 8.23397 1.42885 8.32324 1.75879L9.3291 5.49609C9.48343 6.06883 9.93117 6.51657 10.5039 6.6709L14.2412 7.67676C14.5711 7.76602 14.5711 8.23397 14.2412 8.32324L10.5039 9.3291C9.93117 9.48343 9.48343 9.93117 9.3291 10.5039L8.32324 14.2412C8.23398 14.5711 7.76603 14.5711 7.67676 14.2412L6.6709 10.5039C6.51657 9.93117 6.06883 9.48343 5.49609 9.3291L1.75879 8.32324C1.42887 8.23398 1.42885 7.76603 1.75879 7.67676L5.49609 6.6709C6.06883 6.51657 6.51657 6.06883 6.6709 5.49609L7.67676 1.75879Z" stroke="#212121" stroke-width="1.33"/>
<path d="M14.0342 1.64453L14.1357 1.86426L14.3555 1.96582L14.4277 2L14.3555 2.03418L14.1357 2.13574L14.0342 2.35547L14 2.42773L13.9658 2.35547L13.8643 2.13574L13.6445 2.03418L13.5713 2L13.6445 1.96582L13.8643 1.86426L13.9658 1.64453L14 1.57129L14.0342 1.64453Z" stroke="#212121" stroke-width="1.33"/>
</g>
<defs>
<clipPath id="clip0_746_3432">
<rect width="16" height="16" fill="white"/>
</clipPath>
</defs>
</svg>
