<svg width="16" height="16" viewBox="0 0 16 16" fill="none" xmlns="http://www.w3.org/2000/svg">
<path d="M2.33203 14C1.9598 14 1.64474 13.86 1.38684 13.58C1.12895 13.3 1 12.9579 1 12.5538V3.4462C1 3.04207 1.12895 2.7 1.38684 2.42C1.64474 2.14 1.9598 2 2.33203 2H13.668C14.0402 2 14.3553 2.14 14.6132 2.42C14.8711 2.7 15 3.04207 15 3.4462V12.5538C15 12.9579 14.8711 13.3 14.6132 13.58C14.3553 13.86 14.0402 14 13.668 14H2.33203ZM2.33203 12.8H13.668C13.7247 12.8 13.7767 12.7743 13.8238 12.723C13.8711 12.6718 13.8947 12.6154 13.8947 12.5538V4.8H2.10526V12.5538C2.10526 12.6154 2.1289 12.6718 2.17618 12.723C2.22334 12.7743 2.27529 12.8 2.33203 12.8ZM5.81213 8.8L4.28466 7.1416C4.17511 7.02253 4.12102 6.882 4.12237 6.72C4.12384 6.558 4.18168 6.41747 4.29589 6.2984C4.40556 6.18773 4.535 6.1316 4.68421 6.13C4.83342 6.12853 4.96286 6.18727 5.07253 6.3062L6.90321 8.2938C7.03646 8.43847 7.10308 8.6072 7.10308 8.8C7.10308 8.9928 7.03646 9.16153 6.90321 9.3062L5.06534 11.3016C4.96329 11.4123 4.83698 11.4684 4.68642 11.47C4.53574 11.4715 4.40556 11.4127 4.29589 11.2938C4.19396 11.183 4.143 11.0451 4.143 10.88C4.143 10.7149 4.19396 10.577 4.29589 10.4662L5.81213 8.8ZM8.73684 11.8C8.58002 11.8 8.44874 11.7425 8.343 11.6276C8.23714 11.5128 8.18421 11.3703 8.18421 11.2C8.18421 11.0297 8.23714 10.8872 8.343 10.7724C8.44874 10.6575 8.58002 10.6 8.73684 10.6H11.6842C11.841 10.6 11.9723 10.6575 12.0781 10.7724C12.1839 10.8872 12.2368 11.0297 12.2368 11.2C12.2368 11.3703 12.1839 11.5128 12.0781 11.6276C11.9723 11.7425 11.841 11.8 11.6842 11.8H8.73684Z" fill="#212121"/>
</svg>
