<svg width="16" height="16" viewBox="0 0 16 16" fill="none" xmlns="http://www.w3.org/2000/svg">
<path d="M5.91602 1.00586C6.10698 1.02963 6.28041 1.13454 6.38867 1.29688L7.52344 3H13.167C13.6973 3 14.206 3.21097 14.5811 3.58594C14.9561 3.96093 15.1669 4.46968 15.167 5V7.4248C14.764 7.15502 14.3148 6.94907 13.834 6.82031V5C13.8339 4.82346 13.7634 4.65421 13.6387 4.5293C13.5136 4.40427 13.3438 4.33398 13.167 4.33398H7.16699C6.94418 4.33398 6.73597 4.22244 6.6123 4.03711L5.47754 2.33398H2.5C2.32331 2.33407 2.15424 2.40435 2.0293 2.5293C1.90435 2.65424 1.83407 2.82331 1.83398 3V12.334C1.83407 12.5107 1.90435 12.6797 2.0293 12.8047C2.15424 12.9296 2.32331 12.9999 2.5 13H8.55664C8.77978 13.4996 9.09161 13.9505 9.47168 14.334H2.5C1.96968 14.3339 1.46093 14.123 1.08594 13.748C0.710941 13.3731 0.500086 12.8643 0.5 12.334V3C0.500086 2.46968 0.710941 1.96093 1.08594 1.58594C1.46093 1.21094 1.96968 1.00009 2.5 1H5.83398L5.91602 1.00586Z" fill="#212121"/>
<path fill-rule="evenodd" clip-rule="evenodd" d="M12.5 8.75C13.7425 8.75016 14.75 9.75752 14.75 11C14.7499 12.2425 13.7424 13.2498 12.5 13.25C11.2574 13.25 10.2501 12.2426 10.25 11C10.25 9.75741 11.2574 8.75 12.5 8.75ZM13.7256 9.92969C13.6209 9.83974 13.462 9.85136 13.3721 9.95605L12.2734 11.2354L11.877 10.7744L11.8408 10.7393C11.7489 10.668 11.6161 10.6693 11.5244 10.748C11.4329 10.8267 11.4123 10.9571 11.4688 11.0586L11.498 11.1006L12.084 11.7822C12.1315 11.8373 12.2007 11.8691 12.2734 11.8691C12.3462 11.8691 12.4154 11.8374 12.4629 11.7822L13.752 10.2822C13.8418 10.1776 13.83 10.0197 13.7256 9.92969Z" fill="#212121"/>
<path fill-rule="evenodd" clip-rule="evenodd" d="M12.5 7.5C14.433 7.5 16 9.067 16 11C16 12.933 14.433 14.5 12.5 14.5C10.567 14.5 9 12.933 9 11C9 9.067 10.567 7.5 12.5 7.5ZM12.5 8.25C10.9813 8.25 9.75003 9.48128 9.75 11C9.75007 12.5187 10.9813 13.75 12.5 13.75C14.0186 13.7498 15.2499 12.5186 15.25 11C15.25 9.48138 14.0186 8.25016 12.5 8.25Z" fill="#212121"/>
<path fill-rule="evenodd" clip-rule="evenodd" d="M12.5 8.75C13.7425 8.75016 14.75 9.75752 14.75 11C14.7499 12.2425 13.7424 13.2498 12.5 13.25C11.2574 13.25 10.2501 12.2426 10.25 11C10.25 9.75741 11.2574 8.75 12.5 8.75ZM13.7256 9.92969C13.6209 9.83974 13.462 9.85136 13.3721 9.95605L12.2734 11.2354L11.877 10.7744L11.8408 10.7393C11.7489 10.668 11.6161 10.6693 11.5244 10.748C11.4329 10.8267 11.4123 10.9571 11.4688 11.0586L11.498 11.1006L12.084 11.7822C12.1315 11.8373 12.2007 11.8691 12.2734 11.8691C12.3462 11.8691 12.4154 11.8374 12.4629 11.7822L13.752 10.2822C13.8418 10.1776 13.83 10.0197 13.7256 9.92969Z" fill="#212121"/>
<path fill-rule="evenodd" clip-rule="evenodd" d="M12.5 7.5C14.433 7.5 16 9.067 16 11C16 12.933 14.433 14.5 12.5 14.5C10.567 14.5 9 12.933 9 11C9 9.067 10.567 7.5 12.5 7.5ZM12.5 8.25C10.9813 8.25 9.75003 9.48128 9.75 11C9.75007 12.5187 10.9813 13.75 12.5 13.75C14.0186 13.7498 15.2499 12.5186 15.25 11C15.25 9.48138 14.0186 8.25016 12.5 8.25Z" fill="#212121"/>
</svg>
