<svg width="16" height="16" viewBox="0 0 16 16" fill="none" xmlns="http://www.w3.org/2000/svg">
<path d="M6.91244 14.7744C6.04518 14.6514 5.24129 14.3871 4.50076 13.9814C3.76011 13.5756 3.11795 13.0614 2.57429 12.4386C2.03062 11.8159 1.6046 11.1068 1.29623 10.311C0.987742 9.51533 0.833496 8.66979 0.833496 7.77441C0.833496 6.675 1.06001 5.65634 1.51305 4.71845C1.96596 3.78067 2.61469 2.96854 3.45923 2.28204H1.47823V1.16638H5.43876V5.16415H4.3335V3.00852C3.56362 3.58258 2.972 4.28253 2.55863 5.10837C2.14538 5.93408 1.93876 6.82276 1.93876 7.77441C1.93876 9.24671 2.40592 10.5328 3.34023 11.6327C4.27443 12.7326 5.46516 13.4018 6.91244 13.6402V14.7744ZM10.2282 14.3897V10.3919H11.3335V12.5474C12.0987 11.961 12.6891 11.2569 13.1047 10.4349C13.5204 9.61289 13.7282 8.72607 13.7282 7.77441C13.7282 6.30212 13.2611 5.01602 12.3268 3.9161C11.3926 2.81619 10.2018 2.14704 8.75455 1.90866V0.774414C10.4937 1.01279 11.9417 1.7883 13.0984 3.10093C14.2551 4.41344 14.8335 5.97127 14.8335 7.77441C14.8335 8.87383 14.607 9.89367 14.1539 10.8339C13.701 11.774 13.0523 12.5874 12.2078 13.274H14.1888V14.3897H10.2282Z" fill="#212121"/>
<path d="M9.64478 8.68596L10.7461 7.56827C10.9341 7.37848 11.079 7.16046 11.1808 6.91423C11.2826 6.66793 11.3335 6.40966 11.3335 6.13941C11.3335 5.57738 11.1394 5.10054 10.7511 4.70887C10.3629 4.31721 9.89018 4.12138 9.333 4.12138C9.06631 4.12138 8.81093 4.17277 8.56686 4.27554C8.32279 4.37825 8.10675 4.5245 7.91872 4.71429L6.81144 5.82597L9.64478 8.68596ZM6.70241 10.8153C6.9691 10.8153 7.22448 10.7639 7.46855 10.6612C7.71262 10.5585 7.92867 10.4122 8.11669 10.2224L9.22397 9.11073L6.39063 6.25074L5.2893 7.36843C5.10127 7.55823 4.95639 7.77624 4.85464 8.02247C4.75282 8.26877 4.70192 8.52704 4.70192 8.7973C4.70192 9.35932 4.89605 9.83617 5.28433 10.2278C5.67253 10.6195 6.14523 10.8153 6.70241 10.8153Z" fill="#212121"/>
</svg>
