<svg width="16" height="16" viewBox="0 0 16 16" fill="none" xmlns="http://www.w3.org/2000/svg">
<path d="M5.90595 12.5611V9.83709H4.78618V7.15753C4.78618 6.87355 4.9751 6.6315 5.35294 6.43138C5.73092 6.23126 6.20674 6.13121 6.78042 6.13121C7.3541 6.13121 7.82992 6.23126 8.2079 6.43138C8.58574 6.6315 8.77466 6.87355 8.77466 7.15753V9.83709H7.6549V12.5611H5.90595ZM6.78042 5.65603C6.4757 5.65603 6.22057 5.54993 6.01503 5.33774C5.80936 5.12554 5.70652 4.86215 5.70652 4.54756C5.70652 4.23297 5.80936 3.96951 6.01503 3.75718C6.22057 3.54498 6.4757 3.43888 6.78042 3.43888C7.08514 3.43888 7.34027 3.54498 7.54581 3.75718C7.75148 3.96951 7.85432 4.23297 7.85432 4.54756C7.85432 4.86215 7.75148 5.12554 7.54581 5.33774C7.34027 5.54993 7.08514 5.65603 6.78042 5.65603ZM6.78042 15C4.89865 15 3.29814 14.319 1.97889 12.957C0.659629 11.595 0 9.94271 0 8C0 7.02865 0.177953 6.11858 0.533858 5.26979C0.889764 4.42087 1.3735 3.68073 1.98507 3.04935C2.59664 2.41798 3.31357 1.91858 4.13586 1.55115C4.95802 1.18372 5.83954 1 6.78042 1C7.7213 1 8.60283 1.18372 9.42498 1.55115C10.2473 1.91858 10.9642 2.41798 11.5758 3.04935C12.1873 3.68073 12.6711 4.42087 13.027 5.26979C13.3829 6.11858 13.5608 7.02865 13.5608 8V8.66356L15.1471 7.00538L16 7.86535L12.9626 11.0011L9.92514 7.86535L10.7781 7.00538L12.3643 8.64297V8C12.3643 6.40784 11.8192 5.04902 10.729 3.92353C9.63883 2.79804 8.32263 2.23529 6.78042 2.23529C5.23821 2.23529 3.92201 2.79804 2.83182 3.92353C1.74164 5.04902 1.19655 6.40784 1.19655 8C1.20479 9.59737 1.75068 10.9575 2.83422 12.0804C3.91775 13.2033 5.23316 13.7647 6.78042 13.7647C7.53318 13.7647 8.23296 13.6224 8.87976 13.3379C9.52656 13.0534 10.1077 12.6625 10.6231 12.1652L11.4836 13.0458C10.8578 13.657 10.143 14.1355 9.33923 14.4814C8.53542 14.8271 7.68248 15 6.78042 15Z" fill="#212121"/>
</svg>
