<svg width="16" height="16" viewBox="0 0 16 16" fill="none" xmlns="http://www.w3.org/2000/svg">
<path d="M2.47368 15C2.06842 15 1.72149 14.8629 1.43289 14.5888C1.1443 14.3146 1 13.985 1 13.6V2.4C1 2.015 1.1443 1.68542 1.43289 1.41125C1.72149 1.13708 2.06842 1 2.47368 1H7.76053C7.95702 1 8.1443 1.035 8.32237 1.105C8.50044 1.175 8.65702 1.27417 8.79211 1.4025L12.3658 4.7975C12.5009 4.92583 12.6053 5.07458 12.6789 5.24375C12.7526 5.41292 12.7895 5.59083 12.7895 5.7775V6.88C12.7895 7.00833 12.7496 7.11917 12.6697 7.2125C12.5899 7.30583 12.4886 7.37583 12.3658 7.4225C12.1693 7.4925 11.982 7.58292 11.8039 7.69375C11.6259 7.80458 11.4632 7.93 11.3158 8.07L7.33684 11.85C7.20176 11.9783 7.0943 12.1271 7.01447 12.2963C6.93465 12.4654 6.89474 12.6433 6.89474 12.83V14.3C6.89474 14.4983 6.82412 14.6646 6.6829 14.7987C6.54167 14.9329 6.36667 15 6.1579 15H2.47368ZM8.36842 14.3V13.145C8.36842 13.0517 8.38684 12.9613 8.42368 12.8738C8.46053 12.7863 8.51579 12.7075 8.58947 12.6375L12.4395 8.9975C12.55 8.8925 12.6728 8.81667 12.8079 8.77C12.943 8.72333 13.0781 8.7 13.2132 8.7C13.3605 8.7 13.5018 8.72625 13.6368 8.77875C13.7719 8.83125 13.8947 8.91 14.0053 9.015L14.6868 9.6625C14.7851 9.7675 14.8618 9.88417 14.9171 10.0125C14.9724 10.1408 15 10.2692 15 10.3975C15 10.5258 14.9754 10.6571 14.9263 10.7913C14.8772 10.9254 14.7974 11.045 14.6868 11.15L10.8553 14.79C10.7816 14.86 10.6987 14.9125 10.6066 14.9475C10.5145 14.9825 10.4193 15 10.3211 15H9.10526C8.89649 15 8.72149 14.9329 8.58026 14.7987C8.43904 14.6646 8.36842 14.4983 8.36842 14.3ZM13.2132 11.08L13.8947 10.3975L13.2132 9.75L12.5132 10.415L13.2132 11.08ZM8.36842 5.9H11.3158L7.63158 2.4V5.2C7.63158 5.39833 7.70219 5.56458 7.84342 5.69875C7.98465 5.83292 8.15965 5.9 8.36842 5.9Z" fill="#1F1F1F"/>
</svg>
