<svg width="16" height="16" viewBox="0 0 16 16" fill="none" xmlns="http://www.w3.org/2000/svg">
<g clip-path="url(#clip0_922_7419)">
<path d="M8.50561 3.1909L9.48164 2.70288L10.4577 3.1909V0.732026H8.50561V3.1909ZM7.04156 6.46623V5.7342H9.48164V6.46623H7.04156ZM6.21571 8.2963C5.96918 8.2963 5.76051 8.21089 5.58971 8.04009C5.4189 7.86928 5.3335 7.66061 5.3335 7.41408V0.882213C5.3335 0.635683 5.4189 0.427015 5.58971 0.256209C5.76051 0.085403 5.96918 0 6.21571 0H12.7476C12.9941 0 13.2028 0.085403 13.3736 0.256209C13.5444 0.427015 13.6298 0.635683 13.6298 0.882213V7.41408C13.6298 7.66061 13.5444 7.86928 13.3736 8.04009C13.2028 8.21089 12.9941 8.2963 12.7476 8.2963H6.21571ZM6.21571 7.56427H12.7476C12.7852 7.56427 12.8196 7.54861 12.8508 7.5173C12.8821 7.48606 12.8978 7.45166 12.8978 7.41408V0.882213C12.8978 0.844636 12.8821 0.810231 12.8508 0.778997C12.8196 0.747683 12.7852 0.732026 12.7476 0.732026H11.1897V4.38276L9.48164 3.52873L7.77358 4.38276V0.732026H6.21571C6.17813 0.732026 6.14373 0.747683 6.11249 0.778997C6.08118 0.810231 6.06552 0.844636 6.06552 0.882213V7.41408C6.06552 7.45166 6.08118 7.48606 6.11249 7.5173C6.14373 7.54861 6.17813 7.56427 6.21571 7.56427Z" fill="#212121"/>
<path d="M10.8757 10.8945L11.8518 10.4065L12.8278 10.8945V8.43564H10.8757V10.8945ZM9.41167 14.1698V13.4378H11.8518V14.1698H9.41167ZM8.58583 15.9999C8.3393 15.9999 8.13063 15.9145 7.95982 15.7437C7.78902 15.5729 7.70361 15.3642 7.70361 15.1177V8.58583C7.70361 8.3393 7.78902 8.13063 7.95982 7.95982C8.13063 7.78902 8.3393 7.70361 8.58583 7.70361H15.1177C15.3642 7.70361 15.5729 7.78902 15.7437 7.95982C15.9145 8.13063 15.9999 8.3393 15.9999 8.58583V15.1177C15.9999 15.3642 15.9145 15.5729 15.7437 15.7437C15.5729 15.9145 15.3642 15.9999 15.1177 15.9999H8.58583ZM8.58583 15.2679H15.1177C15.1553 15.2679 15.1897 15.2522 15.2209 15.2209C15.2522 15.1897 15.2679 15.1553 15.2679 15.1177V8.58583C15.2679 8.54825 15.2522 8.51384 15.2209 8.48261C15.1897 8.4513 15.1553 8.43564 15.1177 8.43564H13.5598V12.0864L11.8518 11.2323L10.1437 12.0864V8.43564H8.58583C8.54825 8.43564 8.51384 8.4513 8.48261 8.48261C8.4513 8.51384 8.43564 8.54825 8.43564 8.58583V15.1177C8.43564 15.1553 8.4513 15.1897 8.48261 15.2209C8.51384 15.2522 8.54825 15.2679 8.58583 15.2679Z" fill="#212121"/>
<path d="M3.17211 10.8945L4.14815 10.4065L5.12418 10.8945V8.43564H3.17211V10.8945ZM1.70806 14.1698V13.4378H4.14815V14.1698H1.70806ZM0.882213 15.9999C0.635683 15.9999 0.427015 15.9145 0.256209 15.7437C0.085403 15.5729 0 15.3642 0 15.1177V8.58583C0 8.3393 0.085403 8.13063 0.256209 7.95982C0.427015 7.78902 0.635683 7.70361 0.882213 7.70361H7.41408C7.66061 7.70361 7.86928 7.78902 8.04009 7.95982C8.21089 8.13063 8.2963 8.3393 8.2963 8.58583V15.1177C8.2963 15.3642 8.21089 15.5729 8.04009 15.7437C7.86928 15.9145 7.66061 15.9999 7.41408 15.9999H0.882213ZM0.882213 15.2679H7.41408C7.45166 15.2679 7.48606 15.2522 7.5173 15.2209C7.54861 15.1897 7.56427 15.1553 7.56427 15.1177V8.58583C7.56427 8.54825 7.54861 8.51384 7.5173 8.48261C7.48606 8.4513 7.45166 8.43564 7.41408 8.43564H5.85621V12.0864L4.14815 11.2323L2.44009 12.0864V8.43564H0.882213C0.844636 8.43564 0.810231 8.4513 0.778998 8.48261C0.747683 8.51384 0.732026 8.54825 0.732026 8.58583V15.1177C0.732026 15.1553 0.747683 15.1897 0.778998 15.2209C0.810231 15.2522 0.844636 15.2679 0.882213 15.2679Z" fill="#212121"/>
</g>
<defs>
<clipPath id="clip0_922_7419">
<rect width="16" height="16" fill="white"/>
</clipPath>
</defs>
</svg>
