<svg width="16" height="16" viewBox="0 0 16 16" fill="none" xmlns="http://www.w3.org/2000/svg">
<g clip-path="url(#clip0_1346_31962)">
<path d="M5.78929 11.5849C5.96982 11.5849 6.12124 11.5239 6.24355 11.4018C6.36587 11.2796 6.42703 11.1282 6.42703 10.9476C6.42703 10.767 6.36599 10.6156 6.24392 10.4933C6.12173 10.371 5.97031 10.3098 5.78966 10.3098C5.60913 10.3098 5.45771 10.3708 5.33539 10.4929C5.21308 10.6151 5.15192 10.7665 5.15192 10.9472C5.15192 11.1277 5.21296 11.2791 5.33503 11.4014C5.45722 11.5238 5.60864 11.5849 5.78929 11.5849ZM7.99982 11.5849C8.18034 11.5849 8.33176 11.5239 8.45408 11.4018C8.57639 11.2796 8.63755 11.1282 8.63755 10.9476C8.63755 10.767 8.57652 10.6156 8.45445 10.4933C8.33225 10.371 8.18083 10.3098 8.00018 10.3098C7.81966 10.3098 7.66824 10.3708 7.54592 10.4929C7.4236 10.6151 7.36245 10.7665 7.36245 10.9472C7.36245 11.1277 7.42348 11.2791 7.54555 11.4014C7.66775 11.5238 7.81917 11.5849 7.99982 11.5849ZM10.2103 11.5849C10.3909 11.5849 10.5423 11.5239 10.6646 11.4018C10.7869 11.2796 10.8481 11.1282 10.8481 10.9476C10.8481 10.767 10.787 10.6156 10.665 10.4933C10.5428 10.371 10.3914 10.3098 10.2107 10.3098C10.0302 10.3098 9.87876 10.3708 9.75645 10.4929C9.63413 10.6151 9.57297 10.7665 9.57297 10.9472C9.57297 11.1277 9.63401 11.2791 9.75608 11.4014C9.87827 11.5238 10.0297 11.5849 10.2103 11.5849ZM7.21489 7.65424L6.04884 6.47676C5.93918 6.36722 5.809 6.31245 5.65832 6.31245C5.50775 6.31245 5.37531 6.36722 5.26097 6.47676C5.14664 6.58631 5.09064 6.71642 5.09297 6.86711C5.09543 7.01779 5.15143 7.1479 5.26097 7.25745L6.78421 8.78068C6.9064 8.90447 7.0515 8.96637 7.2195 8.96637C7.3875 8.96637 7.53333 8.90447 7.657 8.78068L10.7278 5.69884C10.8297 5.58918 10.8838 5.459 10.8899 5.30832C10.896 5.15775 10.842 5.02531 10.7278 4.91097C10.6164 4.80143 10.4865 4.74666 10.3382 4.74666C10.1898 4.74666 10.0608 4.80143 9.95116 4.91097L7.21489 7.65424ZM8.00129 15C7.03308 15 6.12302 14.8163 5.2711 14.4488C4.41919 14.0814 3.67818 13.5827 3.04805 12.9529C2.41793 12.323 1.91903 11.5823 1.55134 10.7307C1.18378 9.87919 1 8.96938 1 8.00129C1 7.03308 1.18372 6.12302 1.55116 5.2711C1.9186 4.41919 2.41725 3.67818 3.04713 3.04805C3.67701 2.41793 4.41772 1.91903 5.26926 1.55134C6.12081 1.18378 7.03062 1 7.99871 1C8.96692 1 9.87698 1.18372 10.7289 1.55116C11.5808 1.9186 12.3218 2.41725 12.9519 3.04713C13.5821 3.67701 14.081 4.41772 14.4487 5.26926C14.8162 6.12081 15 7.03062 15 7.99871C15 8.96692 14.8163 9.87698 14.4488 10.7289C14.0814 11.5808 13.5827 12.3218 12.9529 12.9519C12.323 13.5821 11.5823 14.081 10.7307 14.4487C9.87919 14.8162 8.96938 15 8.00129 15Z" fill="#212121"/>
</g>
<defs>
<clipPath id="clip0_1346_31962">
<rect width="16" height="16" fill="white"/>
</clipPath>
</defs>
</svg>
