<svg width="16" height="16" viewBox="0 0 16 16" fill="none" xmlns="http://www.w3.org/2000/svg">
<path d="M11.3256 13.7737C11.0764 13.7737 10.8735 13.9766 10.8735 14.2258C10.8735 14.4793 11.0721 14.6779 11.3256 14.6779C11.575 14.6779 11.7779 14.475 11.7779 14.2258C11.7779 13.9766 11.575 13.7737 11.3256 13.7737Z" fill="black"/>
<path d="M12.4534 6.49691V3.19176L10.1779 3.32938C9.674 3.32938 9.27645 2.93248 9.27645 2.44456V0H1.54925C1.24637 0 1 0.244808 1 0.545609V15.2423C1 15.3627 1.09805 15.4608 1.21863 15.4608H9.08204V7.27027C9.08204 6.84381 9.42737 6.49691 9.85188 6.49691H12.4534ZM2.9414 1.34748C2.9414 1.26753 2.97044 1.195 3.02539 1.13796C3.08152 1.07989 3.15418 1.04916 3.23543 1.04916H4.24032C4.6531 1.04916 4.97057 1.1381 5.18387 1.3135C5.40263 1.49398 5.51358 1.73319 5.51358 2.02474C5.51358 2.21681 5.45914 2.39456 5.35185 2.55316C5.24575 2.70976 5.09091 2.82426 4.89293 2.89487L5.5559 3.73683L6.38733 2.67257C6.41884 2.62634 6.48629 2.56514 6.60844 2.56514C6.6854 2.56514 6.75558 2.5934 6.81132 2.64679C6.86835 2.70187 6.8983 2.77219 6.8983 2.85071C6.8983 2.9123 6.8802 2.96842 6.84452 3.01738L5.89615 4.18751L6.84127 5.34944C6.88085 5.39345 6.90247 5.45374 6.90247 5.52484C6.90247 5.60518 6.87408 5.67693 6.82043 5.73227C6.766 5.78879 6.69269 5.81887 6.60844 5.81887C6.51351 5.81887 6.43199 5.77655 6.37275 5.69647L5.53076 4.63819L4.69894 5.70298C4.61833 5.79921 4.52979 5.81887 4.46924 5.81887C4.39423 5.81887 4.326 5.79022 4.27157 5.73592C4.21688 5.68162 4.18797 5.61313 4.18797 5.53773C4.18797 5.4695 4.20789 5.40856 4.24722 5.3566L5.19428 4.19207L4.2966 3.08653H3.53376V3.98711C3.53376 4.06889 3.50303 4.14155 3.44495 4.19728C3.38766 4.25223 3.31525 4.28127 3.23543 4.28127C3.1547 4.28127 3.08256 4.25171 3.02669 4.19585C2.97096 4.14024 2.9414 4.0681 2.9414 3.98711V1.34748ZM7.55681 14.183H2.28693C2.13966 14.183 2.02025 14.0635 2.02025 13.9163C2.02025 13.769 2.13966 13.6496 2.28693 13.6496H7.55681C7.70408 13.6496 7.82349 13.769 7.82349 13.9163C7.82349 14.0635 7.70408 14.183 7.55681 14.183ZM7.55681 12.5089H2.28693C2.13966 12.5089 2.02025 12.3895 2.02025 12.2422C2.02025 12.0949 2.13966 11.9755 2.28693 11.9755H7.55681C7.70408 11.9755 7.82349 12.0949 7.82349 12.2422C7.82349 12.3895 7.70408 12.5089 7.55681 12.5089ZM7.55681 10.8348H2.28693C2.13966 10.8348 2.02025 10.7154 2.02025 10.5681C2.02025 10.4209 2.13966 10.3015 2.28693 10.3015H7.55681C7.70408 10.3015 7.82349 10.4209 7.82349 10.5681C7.82349 10.7154 7.70408 10.8348 7.55681 10.8348Z" fill="black"/>
<path d="M11.3256 8.35229C11.0764 8.35229 10.8735 8.55517 10.8735 8.80441C10.8735 9.05794 11.0721 9.25665 11.3256 9.25665C11.575 9.25665 11.7779 9.05377 11.7779 8.80441C11.7779 8.55517 11.575 8.35229 11.3256 8.35229Z" fill="black"/>
<path d="M11.3256 11.063C11.0764 11.063 10.8735 11.2659 10.8735 11.5151C10.8735 11.7686 11.0721 11.9672 11.3256 11.9672C11.575 11.9672 11.7779 11.7643 11.7779 11.5151C11.7779 11.2659 11.575 11.063 11.3256 11.063Z" fill="black"/>
<path d="M10.162 2.79643L12.1123 2.67806L10.7069 1.2728L9.81006 0.376953V2.44445C9.81006 2.63848 9.96801 2.79643 10.162 2.79643Z" fill="black"/>
<path d="M4.74731 2.38605C4.86412 2.30727 4.92089 2.19906 4.92089 2.05504C4.92089 1.91493 4.87284 1.81141 4.77414 1.73861C4.6671 1.65996 4.47151 1.62012 4.19298 1.62012H3.53369V2.51575H4.21446C4.44026 2.51575 4.61957 2.47213 4.74731 2.38605Z" fill="black"/>
<path d="M15.5665 7.03027H9.85171C9.72136 7.03027 9.61523 7.13796 9.61523 7.27026V15.7599C9.61523 15.8923 9.72136 16 9.85171 16H15.5665C15.699 16 15.8067 15.8923 15.8067 15.7599V7.27026C15.8067 7.13796 15.699 7.03027 15.5665 7.03027ZM11.3255 15.2113C10.7821 15.2113 10.34 14.7692 10.34 14.2258C10.34 13.6824 10.7821 13.2403 11.3255 13.2403C11.869 13.2403 12.3111 13.6824 12.3111 14.2258C12.3111 14.7692 11.869 15.2113 11.3255 15.2113ZM11.3255 12.5006C10.7821 12.5006 10.34 12.0585 10.34 11.5151C10.34 10.9717 10.7821 10.5296 11.3255 10.5296C11.869 10.5296 12.3111 10.9717 12.3111 11.5151C12.3111 12.0585 11.869 12.5006 11.3255 12.5006ZM11.3255 9.78996C10.7821 9.78996 10.34 9.34787 10.34 8.80435C10.34 8.26095 10.7821 7.81887 11.3255 7.81887C11.869 7.81887 12.3111 8.26095 12.3111 8.80435C12.3111 9.34787 11.869 9.78996 11.3255 9.78996ZM14.0963 15.2113C13.5529 15.2113 13.1108 14.7692 13.1108 14.2258C13.1108 13.6824 13.5529 13.2403 14.0963 13.2403C14.6396 13.2403 15.0817 13.6824 15.0817 14.2258C15.0817 14.7692 14.6396 15.2113 14.0963 15.2113ZM14.0963 12.5006C13.5529 12.5006 13.1108 12.0585 13.1108 11.5151C13.1108 10.9717 13.5529 10.5296 14.0963 10.5296C14.6396 10.5296 15.0817 10.9717 15.0817 11.5151C15.0817 12.0585 14.6396 12.5006 14.0963 12.5006ZM14.0963 9.78996C13.5529 9.78996 13.1108 9.34787 13.1108 8.80435C13.1108 8.26095 13.5529 7.81887 14.0963 7.81887C14.6396 7.81887 15.0817 8.26095 15.0817 8.80435C15.0817 9.34787 14.6396 9.78996 14.0963 9.78996Z" fill="black"/>
<path d="M14.0966 14.6777C14.3462 14.6777 14.5486 14.4754 14.5486 14.2257C14.5486 13.9761 14.3462 13.7737 14.0966 13.7737C13.8469 13.7737 13.6445 13.9761 13.6445 14.2257C13.6445 14.4754 13.8469 14.6777 14.0966 14.6777Z" fill="black"/>
<path d="M14.0966 11.9673C14.3462 11.9673 14.5486 11.7649 14.5486 11.5153C14.5486 11.2656 14.3462 11.0632 14.0966 11.0632C13.8469 11.0632 13.6445 11.2656 13.6445 11.5153C13.6445 11.7649 13.8469 11.9673 14.0966 11.9673Z" fill="black"/>
<path d="M14.0966 8.35229C13.8474 8.35229 13.6445 8.55517 13.6445 8.80441C13.6445 9.05794 13.8431 9.25665 14.0966 9.25665C14.3459 9.25665 14.5488 9.05377 14.5488 8.80441C14.5488 8.55517 14.3459 8.35229 14.0966 8.35229Z" fill="black"/>
</svg>
