<svg width="16" height="16" viewBox="0 0 16 16" fill="none" xmlns="http://www.w3.org/2000/svg">
<path fill-rule="evenodd" clip-rule="evenodd" d="M4.80708 5.68013C4.97172 5.68013 5.10471 5.81341 5.10471 5.97776C5.10471 6.14156 4.97172 6.27484 4.80708 6.27484C4.64328 6.27484 4.51001 6.14156 4.51001 5.97776C4.51001 5.81369 4.64328 5.68013 4.80708 5.68013ZM5.10471 8.20147C5.10471 8.36527 4.97172 8.49855 4.80708 8.49855C4.64328 8.49855 4.51001 8.36527 4.51001 8.20147C4.51001 8.0374 4.64328 7.90384 4.80708 7.90384C4.97172 7.90384 5.10471 8.0374 5.10471 8.20147ZM4.51001 10.4249C4.51001 10.2608 4.64328 10.1273 4.80708 10.1273C4.97172 10.1273 5.10471 10.2605 5.10471 10.4249C5.10471 10.5887 4.97172 10.722 4.80708 10.722C4.64328 10.722 4.51001 10.5887 4.51001 10.4249ZM4.80708 12.3513C4.97172 12.3513 5.10471 12.4845 5.10471 12.6489C5.10471 12.8127 4.97172 12.946 4.80708 12.946C4.64328 12.946 4.51001 12.8127 4.51001 12.6489C4.51001 12.4845 4.64328 12.3513 4.80708 12.3513ZM5.83998 12.6483C5.83998 12.5117 5.95057 12.4011 6.08721 12.4011H11.4975C11.6342 12.4011 11.7448 12.5117 11.7448 12.6483C11.7448 12.7847 11.6342 12.8956 11.4975 12.8956H6.08721C5.95057 12.8956 5.83998 12.7847 5.83998 12.6483ZM6.08721 10.1777H11.4975C11.6342 10.1777 11.7448 10.2885 11.7448 10.4249C11.7448 10.5613 11.6342 10.6721 11.4975 10.6721H6.08721C5.95057 10.6721 5.83998 10.5613 5.83998 10.4249C5.83998 10.2885 5.95057 10.1777 6.08721 10.1777ZM6.08721 7.95396H11.4975C11.6342 7.95396 11.7448 8.06456 11.7448 8.20119C11.7448 8.33783 11.6342 8.44843 11.4975 8.44843H6.08721C5.95057 8.44843 5.83998 8.33783 5.83998 8.20119C5.83998 8.06456 5.95057 7.95396 6.08721 7.95396ZM6.08721 5.73053H11.4975C11.6342 5.73053 11.7448 5.84085 11.7448 5.97776C11.7448 6.1144 11.6342 6.22472 11.4975 6.22472H6.08721C5.95057 6.22472 5.83998 6.1144 5.83998 5.97776C5.83998 5.84085 5.95057 5.73053 6.08721 5.73053ZM8.24288 2.02425C8.24288 2.16985 8.12444 2.28857 7.97857 2.28857C7.83297 2.28857 7.71425 2.17013 7.71425 2.02425C7.71425 1.87838 7.83269 1.75994 7.97857 1.75994C8.12444 1.75994 8.24288 1.87838 8.24288 2.02425ZM10.4722 3.07843C10.4722 2.5064 10.0035 2.03769 9.4309 2.03769H9.10806C9.10526 1.75518 8.98879 1.49814 8.80259 1.31195C8.3868 0.895877 7.57034 0.896157 7.15455 1.31195C6.96835 1.49814 6.85187 1.7549 6.84907 2.03769H6.5338C5.96037 2.03769 5.49278 2.50528 5.49278 3.07871C5.49278 3.65074 5.96121 4.12001 6.5338 4.12001H9.43118C10.0032 4.12029 10.4722 3.65046 10.4722 3.07843ZM12.7177 2.74132H10.8521C10.8782 2.85079 10.8919 2.96391 10.8919 3.07843C10.8919 3.88061 10.2362 4.53972 9.43118 4.53972H6.5338C5.72854 4.53972 5.07307 3.88145 5.07307 3.07871C5.07307 2.96391 5.08651 2.85079 5.11255 2.74104H3.24723C3.1106 2.74104 3 2.85163 3 2.98827V14.7528C3 14.8894 3.1106 15 3.24723 15H12.718C12.8547 15 12.9653 14.8894 12.9653 14.753V2.98855C12.965 2.85191 12.8544 2.74132 12.7177 2.74132Z" fill="black"/>
</svg>
