<svg width="16" height="16" viewBox="0 0 16 16" fill="none" xmlns="http://www.w3.org/2000/svg">
<g clip-path="url(#clip0_1351_311)">
<path d="M10.3333 13.7846V12.6H8.75941C8.40139 12.6 8.09555 12.4587 7.84187 12.1762C7.58832 11.8935 7.46154 11.5527 7.46154 11.1538V4.6H5.66667V5.7846C5.66667 6.12207 5.56059 6.409 5.34844 6.6454C5.13628 6.8818 4.87878 7 4.57592 7H2.09074C1.78789 7 1.53038 6.8818 1.31823 6.6454C1.10608 6.409 1 6.12207 1 5.7846V2.2154C1 1.87793 1.10608 1.591 1.31823 1.3546C1.53038 1.1182 1.78789 1 2.09074 1H4.57592C4.87878 1 5.13628 1.1182 5.34844 1.3546C5.56059 1.591 5.66667 1.87793 5.66667 2.2154V3.4H10.3333V2.2154C10.3333 1.87793 10.4394 1.591 10.6516 1.3546C10.8637 1.1182 11.1212 1 11.4241 1H13.9093C14.2121 1 14.4696 1.1182 14.6818 1.3546C14.8939 1.591 15 1.87793 15 2.2154V5.7846C15 6.12207 14.8939 6.409 14.6818 6.6454C14.4696 6.8818 14.2121 7 13.9093 7H11.4241C11.1212 7 10.8637 6.8818 10.6516 6.6454C10.4394 6.409 10.3333 6.12207 10.3333 5.7846V4.6H8.53846V11.1538C8.53846 11.2257 8.55916 11.2847 8.60056 11.3308C8.64197 11.3769 8.69491 11.4 8.75941 11.4H10.3333V10.2154C10.3333 9.87793 10.4394 9.591 10.6516 9.3546C10.8637 9.1182 11.1212 9 11.4241 9H13.9093C14.2121 9 14.4696 9.1182 14.6818 9.3546C14.8939 9.591 15 9.87793 15 10.2154V13.7846C15 14.1221 14.8939 14.409 14.6818 14.6454C14.4696 14.8818 14.2121 15 13.9093 15H11.4241C11.1212 15 10.8637 14.8818 10.6516 14.6454C10.4394 14.409 10.3333 14.1221 10.3333 13.7846Z" fill="#212121"/>
</g>
<defs>
<clipPath id="clip0_1351_311">
<rect width="16" height="16" fill="white"/>
</clipPath>
</defs>
</svg>
