<svg width="16" height="16" viewBox="0 0 16 16" fill="none" xmlns="http://www.w3.org/2000/svg">
<g clip-path="url(#clip0_97_2056)">
<path d="M7.11979 8.87332C7.79636 9.55048 8.56101 10.1335 9.39313 10.6067L10.2398 9.75998C10.4211 9.58074 10.6499 9.45722 10.8992 9.40405C11.1485 9.35088 11.4078 9.37029 11.6465 9.45998C12.2513 9.68568 12.8797 9.84224 13.5198 9.92665C13.8402 9.97193 14.1331 10.1322 14.3441 10.3775C14.5551 10.6228 14.6696 10.9364 14.6665 11.26V13.26C14.6672 13.4457 14.6292 13.6294 14.5548 13.7995C14.4804 13.9697 14.3713 14.1224 14.2345 14.2479C14.0977 14.3734 13.9362 14.469 13.7603 14.5285C13.5844 14.5879 13.398 14.61 13.2131 14.5933C11.1617 14.3704 9.19113 13.6694 7.45979 12.5467C6.65664 12.0367 5.91214 11.4397 5.23979 10.7667M3.45979 8.53998C2.33703 6.80865 1.63603 4.83809 1.41313 2.78665C1.39647 2.60229 1.41838 2.41649 1.47746 2.24107C1.53654 2.06564 1.63151 1.90444 1.7563 1.76773C1.8811 1.63102 2.033 1.52179 2.20232 1.447C2.37164 1.37221 2.55469 1.33349 2.73979 1.33332H4.73979C5.06333 1.33013 5.37699 1.4447 5.6223 1.65567C5.86761 1.86664 6.02784 2.15961 6.07313 2.47998C6.15754 3.12003 6.31409 3.74847 6.53979 4.35332C6.62949 4.59193 6.6489 4.85126 6.59573 5.10057C6.54256 5.34988 6.41903 5.57872 6.23979 5.75998L5.39313 6.60665" stroke="#212121" stroke-width="1.33333" stroke-linecap="round" stroke-linejoin="round"/>
<path d="M15.3332 0.666748L0.666504 15.3334" stroke="#212121" stroke-width="1.33333" stroke-linecap="round" stroke-linejoin="round"/>
</g>
<defs>
<clipPath id="clip0_97_2056">
<rect width="16" height="16" fill="white"/>
</clipPath>
</defs>
</svg>
