<svg width="16" height="16" viewBox="0 0 16 16" fill="none" xmlns="http://www.w3.org/2000/svg">
<path d="M9 15C8.43333 15 7.87778 14.9222 7.33333 14.7667C6.78889 14.6111 6.27778 14.3778 5.8 14.0667L6.76667 13.1C7.11111 13.2889 7.47222 13.4306 7.85 13.525C8.22778 13.6194 8.61111 13.6667 9 13.6667C10.3 13.6667 11.4028 13.2139 12.3083 12.3083C13.2139 11.4028 13.6667 10.3 13.6667 9C13.6667 7.7 13.2139 6.59722 12.3083 5.69167C11.4028 4.78611 10.3 4.33333 9 4.33333H8.9L9.93333 5.36667L9 6.33333L6.33333 3.66667L9 1L9.93333 1.96667L8.9 3H9C10.6667 3 12.0833 3.58333 13.25 4.75C14.4167 5.91667 15 7.33333 15 9C15 9.83333 14.8417 10.6139 14.525 11.3417C14.2083 12.0694 13.7806 12.7028 13.2417 13.2417C12.7028 13.7806 12.0694 14.2083 11.3417 14.525C10.6139 14.8417 9.83333 15 9 15ZM5 13L1 9L5 5L9 9L5 13ZM5 11.1L7.1 9L5 6.9L2.9 9L5 11.1Z" fill="#212121"/>
</svg>
