<svg width="16" height="16" viewBox="0 0 16 16" fill="none" xmlns="http://www.w3.org/2000/svg">
<path d="M7.19375 10.1875L6.14375 9.2075C6.06875 9.1375 5.9875 9.085 5.9 9.05C5.8125 9.015 5.72188 8.9975 5.62813 8.9975C5.53438 8.9975 5.44063 9.015 5.34688 9.05C5.25313 9.085 5.16875 9.1375 5.09375 9.2075C4.94375 9.3475 4.86875 9.51375 4.86875 9.70625C4.86875 9.89875 4.94375 10.065 5.09375 10.205L6.6875 11.71C6.7625 11.78 6.84375 11.8296 6.93125 11.8588C7.01875 11.8879 7.1125 11.9025 7.2125 11.9025C7.3125 11.9025 7.40625 11.8879 7.49375 11.8588C7.58125 11.8296 7.6625 11.78 7.7375 11.71L10.9062 8.7525C11.0563 8.6125 11.1313 8.44333 11.1313 8.245C11.1313 8.04667 11.0563 7.8775 10.9062 7.7375C10.7563 7.5975 10.575 7.5275 10.3625 7.5275C10.15 7.5275 9.96875 7.5975 9.81875 7.7375L7.19375 10.1875ZM3.5 15C3.0875 15 2.73438 14.8629 2.44063 14.5887C2.14687 14.3146 2 13.985 2 13.6V2.4C2 2.015 2.14687 1.68542 2.44063 1.41125C2.73438 1.13708 3.0875 1 3.5 1H8.88125C9.08125 1 9.27188 1.035 9.45313 1.105C9.63438 1.175 9.79375 1.27417 9.93125 1.4025L13.5688 4.7975C13.7063 4.92583 13.8125 5.07458 13.8875 5.24375C13.9625 5.41292 14 5.59083 14 5.7775V13.6C14 13.985 13.8531 14.3146 13.5594 14.5887C13.2656 14.8629 12.9125 15 12.5 15H3.5ZM8.75 5.2V2.4H3.5V13.6H12.5V5.9H9.5C9.2875 5.9 9.10938 5.83292 8.96563 5.69875C8.82188 5.56458 8.75 5.39833 8.75 5.2Z" fill="#212121"/>
</svg>
