<svg width="16" height="16" viewBox="0 0 16 16" fill="none" xmlns="http://www.w3.org/2000/svg">
<g clip-path="url(#clip0_1194_14852)">
<g clip-path="url(#clip1_1194_14852)">
<path fill-rule="evenodd" clip-rule="evenodd" d="M8.93142 6.60524C8.97924 6.67805 8.9958 6.76649 8.97799 6.8518C8.96017 6.93712 8.90955 7.01118 8.83674 7.05899C8.76392 7.1068 8.67549 7.12337 8.59017 7.10556C8.50486 7.08774 8.4308 7.03743 8.38299 6.9643C8.34142 6.90118 8.28455 6.84774 8.21799 6.81149C8.15142 6.77556 8.0758 6.75743 8.00017 6.75743C7.87799 6.75743 7.7633 6.80462 7.67705 6.89118C7.59049 6.97774 7.5433 7.09212 7.5433 7.21462C7.5433 7.3368 7.59049 7.45118 7.67705 7.53743C7.76361 7.62399 7.87799 7.67149 8.00017 7.67149C8.29705 7.67149 8.57736 7.78743 8.78736 7.99743C8.99767 8.20774 9.11361 8.48743 9.11361 8.78493C9.11361 9.08212 8.99767 9.36212 8.78736 9.57243C8.66517 9.69462 8.51392 9.78805 8.34986 9.84243C8.33705 9.8468 8.3283 9.85868 8.3283 9.87212V9.97212C8.3283 10.1531 8.18111 10.3006 8.00017 10.3006C7.81892 10.3006 7.67174 10.1534 7.67174 9.97212V9.87149C7.67174 9.85806 7.66299 9.84618 7.65017 9.8418C7.58861 9.82118 7.52892 9.79524 7.47174 9.76462C7.30924 9.6768 7.16955 9.54899 7.0683 9.3943C7.02049 9.32149 7.00392 9.23274 7.02174 9.14743C7.03955 9.06212 7.09017 8.98805 7.16299 8.94024C7.21642 8.90524 7.2783 8.8868 7.34205 8.8868C7.36486 8.8868 7.38767 8.8893 7.40986 8.89399C7.49517 8.9118 7.56892 8.96243 7.61674 9.03524C7.6583 9.09837 7.71486 9.1518 7.78174 9.18774C7.84861 9.22368 7.92392 9.24212 7.99986 9.24212C8.12205 9.24212 8.23642 9.19462 8.32267 9.10837C8.40924 9.0218 8.45674 8.90743 8.45674 8.78524C8.45674 8.66305 8.40924 8.54837 8.32267 8.46212C8.23642 8.37587 8.12174 8.32837 7.99986 8.32837C7.70267 8.32837 7.42267 8.21243 7.21236 8.00243C7.00205 7.79212 6.88611 7.51243 6.88611 7.21493C6.88611 6.91774 7.00205 6.63774 7.21236 6.42743C7.33455 6.30524 7.4858 6.21149 7.64986 6.15743C7.66267 6.15305 7.67111 6.14118 7.67111 6.12774V6.02774C7.67111 5.84649 7.8183 5.69931 7.99955 5.69931C8.18049 5.69931 8.32767 5.84681 8.32767 6.02774V6.12837C8.32767 6.1418 8.33642 6.15368 8.34924 6.15805C8.4108 6.17868 8.47049 6.20462 8.52736 6.23524C8.69049 6.32305 8.83017 6.45055 8.93142 6.60524ZM15.6089 7.14305C15.557 6.67649 15.1939 6.32306 14.7261 6.28337L13.6408 6.19118C13.422 6.17274 13.2411 6.04118 13.1567 5.83962C13.072 5.63805 13.1055 5.4168 13.2458 5.24774L13.9408 4.41024C14.2405 4.0493 14.2433 3.54243 13.9474 3.17837C13.5995 2.74993 13.2045 2.35805 12.7736 2.01399C12.4067 1.72118 11.9002 1.72805 11.5417 2.03055L10.7099 2.73212C10.542 2.87368 10.3211 2.90868 10.1189 2.82587C9.91642 2.74305 9.78361 2.56305 9.7633 2.34462L9.66267 1.26055C9.61924 0.793367 9.26299 0.433055 8.79611 0.384617C8.24799 0.327742 7.69174 0.32993 7.14361 0.390867C6.67674 0.442742 6.3233 0.805867 6.28361 1.27368L6.19142 2.35899C6.17299 2.57774 6.04142 2.75868 5.83986 2.84305C5.6383 2.92774 5.41705 2.8943 5.24799 2.75399L4.41049 2.05899C4.04955 1.7593 3.54299 1.75649 3.17861 2.05243C2.75017 2.39993 2.35861 2.79493 2.01424 3.22618C1.72142 3.59305 1.7283 4.09962 2.0308 4.45806L2.73236 5.28993C2.87424 5.45774 2.90924 5.67868 2.82642 5.88087C2.74361 6.08337 2.56361 6.21618 2.34486 6.23649L1.2608 6.33712C0.793611 6.38055 0.433611 6.7368 0.384861 7.20368C0.327986 7.75181 0.330174 8.30774 0.391111 8.85618C0.443299 9.32274 0.806111 9.67649 1.27424 9.71618L2.35924 9.80837C2.57799 9.8268 2.75892 9.95837 2.84361 10.1599C2.92799 10.3615 2.89455 10.5827 2.75455 10.7518L2.05924 11.5893C1.75955 11.9502 1.75705 12.4568 2.05267 12.8212C2.40049 13.2496 2.79549 13.6412 3.22674 13.9856C3.5933 14.2784 4.09986 14.2715 4.4583 13.969L5.29017 13.2671C5.45799 13.1256 5.67892 13.0906 5.88142 13.1734C6.08361 13.2562 6.21642 13.4362 6.23674 13.6549L6.33767 14.739C6.3808 15.2062 6.73736 15.5662 7.20392 15.6149C7.4683 15.6424 7.73455 15.6562 8.0008 15.6562C8.28674 15.6562 8.57267 15.6402 8.85642 15.6087C9.3233 15.5565 9.67674 15.1937 9.71642 14.7256L9.80861 13.6406C9.82705 13.4218 9.95861 13.2409 10.1602 13.1562C10.3617 13.0718 10.583 13.1052 10.752 13.2452L11.5895 13.9406C11.9505 14.2402 12.4574 14.2427 12.8217 13.9471C13.2499 13.5993 13.6417 13.2043 13.9858 12.7731C14.2786 12.4065 14.2717 11.8999 13.9692 11.5415L13.2677 10.7096C13.1261 10.5418 13.0908 10.3209 13.1739 10.1184C13.2567 9.91618 13.4367 9.78337 13.6552 9.76305L14.7392 9.66243C15.2064 9.61899 15.5667 9.26243 15.6152 8.79587C15.6717 8.24774 15.6695 7.6918 15.6089 7.14305ZM8.00017 11.0712C9.69361 11.0712 11.0714 9.69337 11.0714 7.99962C11.0714 6.30618 9.69361 4.92837 8.00017 4.92837C6.30642 4.92837 4.92861 6.30618 4.92861 7.99962C4.92861 9.69337 6.30611 11.0712 8.00017 11.0712ZM8.00017 4.61587C6.13424 4.61587 4.61611 6.13399 4.61611 7.99962C4.61611 9.86555 6.13424 11.3837 8.00017 11.3837C9.8658 11.3837 11.3839 9.86555 11.3839 7.99962C11.3839 6.13399 9.8658 4.61587 8.00017 4.61587ZM8.00017 12.1409C10.2836 12.1409 12.1411 10.2831 12.1411 7.99962C12.1411 5.71618 10.2836 3.85868 8.00017 3.85868C5.71674 3.85868 3.85892 5.71618 3.85892 7.99962C3.85892 10.2831 5.71674 12.1409 8.00017 12.1409Z" fill="#212121"/>
</g>
</g>
<defs>
<clipPath id="clip0_1194_14852">
<rect width="16" height="16" fill="white"/>
</clipPath>
<clipPath id="clip1_1194_14852">
<rect width="16" height="16" fill="white"/>
</clipPath>
</defs>
</svg>
