<svg width="16" height="16" viewBox="0 0 16 16" fill="none" xmlns="http://www.w3.org/2000/svg">
<path d="M4.79336 15C4.36158 15 3.99197 14.8515 3.68452 14.5546C3.37708 14.2577 3.22336 13.9008 3.22336 13.4838V11.6452H1.56999C1.13821 11.6452 0.768604 11.4967 0.461163 11.1998C0.153721 10.9029 0 10.5459 0 10.129V6.87099C0 6.2769 0.210172 5.77891 0.630516 5.37703C1.05086 4.97515 1.56442 4.77421 2.1712 4.77421H13.8288C14.444 4.77421 14.9596 4.97515 15.3758 5.37703C15.7919 5.77891 16 6.2769 16 6.87099V10.129C16 10.5459 15.8463 10.9029 15.5388 11.1998C15.2314 11.4967 14.8618 11.6452 14.43 11.6452H12.7766V13.4838C12.7766 13.9008 12.6229 14.2577 12.3155 14.5546C12.008 14.8515 11.6384 15 11.2066 15H4.79336ZM1.56999 10.3871H3.22336C3.23451 9.97961 3.39214 9.63042 3.69625 9.33953C4.00051 9.04864 4.36621 8.90319 4.79336 8.90319H11.2066C11.6338 8.90319 11.9994 9.04864 12.3035 9.33953C12.6078 9.63042 12.7655 9.97961 12.7766 10.3871H14.43C14.508 10.3871 14.5721 10.3629 14.6222 10.3145C14.6722 10.2662 14.6973 10.2043 14.6973 10.129V6.87099C14.6973 6.63335 14.6141 6.43416 14.4476 6.27341C14.2811 6.11265 14.0749 6.03228 13.8288 6.03228H2.1712C1.92513 6.03228 1.71887 6.11265 1.55241 6.27341C1.38595 6.43416 1.30272 6.63335 1.30272 6.87099V10.129C1.30272 10.2043 1.32776 10.2662 1.37784 10.3145C1.42793 10.3629 1.49198 10.3871 1.56999 10.3871ZM11.4739 4.77421V2.51618C11.4739 2.44084 11.4489 2.37898 11.3988 2.33062C11.3487 2.28225 11.2847 2.25807 11.2066 2.25807H4.79336C4.71534 2.25807 4.65129 2.28225 4.6012 2.33062C4.55112 2.37898 4.52608 2.44084 4.52608 2.51618V4.77421H3.22336V2.51618C3.22336 2.0992 3.37708 1.74226 3.68452 1.44536C3.99197 1.14845 4.36158 1 4.79336 1H11.2066C11.6384 1 12.008 1.14845 12.3155 1.44536C12.6229 1.74226 12.7766 2.0992 12.7766 2.51618V4.77421H11.4739ZM13.0439 8.12906C13.29 8.12906 13.4962 8.04868 13.6627 7.88793C13.8292 7.72717 13.9124 7.52798 13.9124 7.29034C13.9124 7.05271 13.8292 6.85352 13.6627 6.69276C13.4962 6.53201 13.29 6.45163 13.0439 6.45163C12.7978 6.45163 12.5916 6.53201 12.4251 6.69276C12.2587 6.85352 12.1754 7.05271 12.1754 7.29034C12.1754 7.52798 12.2587 7.72717 12.4251 7.88793C12.5916 8.04868 12.7978 8.12906 13.0439 8.12906ZM11.4739 13.4838V10.4194C11.4739 10.344 11.4489 10.2822 11.3988 10.2338C11.3487 10.1854 11.2847 10.1613 11.2066 10.1613H4.79336C4.71534 10.1613 4.65129 10.1854 4.6012 10.2338C4.55112 10.2822 4.52608 10.344 4.52608 10.4194V13.4838C4.52608 13.5592 4.55112 13.621 4.6012 13.6694C4.65129 13.7177 4.71534 13.7419 4.79336 13.7419H11.2066C11.2847 13.7419 11.3487 13.7177 11.3988 13.6694C11.4489 13.621 11.4739 13.5592 11.4739 13.4838ZM1.56999 6.03228H1.30272H14.6973H1.56999Z" fill="#212121"/>
</svg>
