<svg width="16" height="16" viewBox="0 0 16 16" fill="none" xmlns="http://www.w3.org/2000/svg">
<path d="M3.67507 10.6765V11.9118H7.79272V10.6765H3.67507Z" fill="#212121"/>
<path fill-rule="evenodd" clip-rule="evenodd" d="M1.22507 14.5676C1.51331 14.8559 1.86544 15 2.28146 15H10.1469C9.75675 14.6557 9.43429 14.2364 9.20204 13.7647H2.28146C2.21804 13.7647 2.15999 13.7383 2.10728 13.6854C2.05444 13.6327 2.02801 13.5747 2.02801 13.5113V2.48874C2.02801 2.42532 2.05444 2.36727 2.10728 2.31456C2.15999 2.26172 2.21804 2.23529 2.28146 2.23529H4.91037V8.39591L7.79272 6.95474L10.6751 8.39591V2.23529H13.304C13.3674 2.23529 13.4255 2.26172 13.4782 2.31456C13.531 2.36727 13.5574 2.42532 13.5574 2.48874V8.07302C13.9995 8.15859 14.4156 8.31695 14.7927 8.53513V2.48874C14.7927 2.07272 14.6486 1.72059 14.3604 1.43235C14.0721 1.14412 13.72 1 13.304 1H2.28146C1.86544 1 1.51331 1.14412 1.22507 1.43235C0.936838 1.72059 0.792721 2.07272 0.792721 2.48874V13.5113C0.792721 13.9273 0.936838 14.2794 1.22507 14.5676ZM7.79272 5.56112L6.14566 6.38465V2.23529H9.43978V6.38465L7.79272 5.56112Z" fill="#212121"/>
<path fill-rule="evenodd" clip-rule="evenodd" d="M12.6464 14.6711C14.2224 14.6711 15.5 13.4016 15.5 11.8356C15.5 10.2695 14.2224 9 12.6464 9C11.0703 9 9.79272 10.2695 9.79272 11.8356C9.79272 13.4016 11.0703 14.6711 12.6464 14.6711ZM11.6549 13.0968C11.9441 13.3362 12.2818 13.4559 12.668 13.4559C13.114 13.4559 13.4937 13.2978 13.8071 12.9817C14.1204 12.6655 14.277 12.2835 14.277 11.8356C14.277 11.3864 14.1204 11.004 13.8071 10.6885C13.4937 10.373 13.114 10.2152 12.668 10.2152C12.4545 10.2152 12.2537 10.2545 12.0658 10.3331C11.8778 10.4117 11.7138 10.5171 11.5736 10.6492V10.238H11.0157V11.6193H12.3875V11.0575H11.9618C12.0513 10.9687 12.1562 10.8997 12.2765 10.8506C12.3968 10.8016 12.5273 10.777 12.668 10.777C12.9593 10.777 13.2073 10.8801 13.4121 11.0863C13.6168 11.2925 13.7191 11.5422 13.7191 11.8356C13.7191 12.1276 13.6165 12.3771 13.4111 12.5839C13.2057 12.7907 12.958 12.8941 12.668 12.8941C12.4366 12.8941 12.2337 12.8291 12.0594 12.6991C11.8851 12.569 11.7652 12.4031 11.6996 12.2013H11.1035C11.1818 12.5589 11.3657 12.8574 11.6549 13.0968Z" fill="#212121"/>
</svg>
