<svg width="16" height="16" viewBox="0 0 16 16" fill="none" xmlns="http://www.w3.org/2000/svg">
<g clip-path="url(#clip0_1343_31941)">
<path d="M4.75385 11.9276C4.96042 11.9276 5.13343 11.8578 5.27288 11.718C5.4122 11.5783 5.48185 11.4052 5.48185 11.1986C5.48185 10.992 5.41199 10.819 5.27226 10.6796C5.13254 10.5402 4.95939 10.4706 4.75282 10.4706C4.54625 10.4706 4.37331 10.5405 4.234 10.6802C4.09455 10.8199 4.02482 10.993 4.02482 11.1996C4.02482 11.4062 4.09469 11.5791 4.23441 11.7184C4.37427 11.8579 4.54742 11.9276 4.75385 11.9276ZM4.75385 8.72841C4.96042 8.72841 5.13343 8.65855 5.27288 8.51882C5.4122 8.3791 5.48185 8.20595 5.48185 7.99938C5.48185 7.79281 5.41199 7.61987 5.27226 7.48056C5.13254 7.34125 4.95939 7.27159 4.75282 7.27159C4.54625 7.27159 4.37331 7.34145 4.234 7.48118C4.09455 7.6209 4.02482 7.79405 4.02482 8.00062C4.02482 8.20719 4.09469 8.38013 4.23441 8.51944C4.37427 8.65876 4.54742 8.72841 4.75385 8.72841ZM4.75385 5.52941C4.96042 5.52941 5.13343 5.45955 5.27288 5.31982C5.4122 5.1801 5.48185 5.00695 5.48185 4.80038C5.48185 4.59381 5.41199 4.42087 5.27226 4.28156C5.13254 4.14211 4.95939 4.07238 4.75282 4.07238C4.54625 4.07238 4.37331 4.14224 4.234 4.28197C4.09455 4.4217 4.02482 4.59484 4.02482 4.80141C4.02482 5.00798 4.09469 5.18099 4.23441 5.32044C4.37427 5.45975 4.54742 5.52941 4.75385 5.52941ZM7.87338 11.8166H11.3258C11.5008 11.8166 11.6475 11.7574 11.7658 11.639C11.8842 11.5207 11.9435 11.3739 11.9435 11.1988C11.9435 11.0238 11.8842 10.8771 11.7658 10.7588C11.6475 10.6406 11.5008 10.5816 11.3258 10.5816H7.87338C7.69838 10.5816 7.55166 10.6407 7.43321 10.759C7.31489 10.8775 7.25574 11.0243 7.25574 11.1994C7.25574 11.3744 7.31489 11.5211 7.43321 11.6394C7.55166 11.7576 7.69838 11.8166 7.87338 11.8166ZM7.87338 8.61765H11.3258C11.5008 8.61765 11.6475 8.55842 11.7658 8.43997C11.8842 8.32152 11.9435 8.17479 11.9435 7.99979C11.9435 7.82466 11.8842 7.678 11.7658 7.55982C11.6475 7.44151 11.5008 7.38235 11.3258 7.38235H7.87338C7.69838 7.38235 7.55166 7.44158 7.43321 7.56003C7.31489 7.67848 7.25574 7.82521 7.25574 8.00021C7.25574 8.17534 7.31489 8.322 7.43321 8.44018C7.55166 8.55849 7.69838 8.61765 7.87338 8.61765ZM7.87338 5.41844H11.3258C11.5008 5.41844 11.6475 5.35928 11.7658 5.24097C11.8842 5.12252 11.9435 4.97573 11.9435 4.80059C11.9435 4.62559 11.8842 4.47893 11.7658 4.36062C11.6475 4.24244 11.5008 4.18335 11.3258 4.18335H7.87338C7.69838 4.18335 7.55166 4.24258 7.43321 4.36103C7.31489 4.47934 7.25574 4.62607 7.25574 4.80121C7.25574 4.97621 7.31489 5.12286 7.43321 5.24118C7.55166 5.35935 7.69838 5.41844 7.87338 5.41844ZM2.48874 15C2.07272 15 1.72059 14.8559 1.43235 14.5676C1.14412 14.2794 1 13.9273 1 13.5113V2.48874C1 2.07272 1.14412 1.72059 1.43235 1.43235C1.72059 1.14412 2.07272 1 2.48874 1H13.5113C13.9273 1 14.2794 1.14412 14.5676 1.43235C14.8559 1.72059 15 2.07272 15 2.48874V13.5113C15 13.9273 14.8559 14.2794 14.5676 14.5676C14.2794 14.8559 13.9273 15 13.5113 15H2.48874Z" fill="#212121"/>
</g>
<defs>
<clipPath id="clip0_1343_31941">
<rect width="16" height="16" fill="white"/>
</clipPath>
</defs>
</svg>
