<svg width="16" height="16" viewBox="0 0 16 16" fill="none" xmlns="http://www.w3.org/2000/svg">
<g clip-path="url(#clip0_1194_15215)">
<g clip-path="url(#clip1_1194_15215)">
<g clip-path="url(#clip2_1194_15215)">
<path d="M2.84632 1.84814V11.035L0.0313239 3.36502C-0.0583636 3.12127 0.0678864 2.85096 0.312261 2.76283L2.84632 1.84814Z" fill="#212121"/>
<path d="M15.969 3.3651L13.1587 11.0223V1.8501L15.6881 2.76291C15.9324 2.85104 16.0584 3.12135 15.969 3.3651Z" fill="#212121"/>
<path d="M11.7524 0H4.25244C3.99369 0 3.78369 0.21 3.78369 0.46875V15.5312C3.78369 15.79 3.99369 16 4.25244 16H11.7524C12.0112 16 12.2212 15.79 12.2212 15.5312V0.46875C12.2212 0.21 12.0112 0 11.7524 0ZM8.93994 13.1875H6.12744C5.86869 13.1875 5.65869 12.9775 5.65869 12.7188C5.65869 12.46 5.86869 12.25 6.12744 12.25H8.93994C9.19869 12.25 9.40869 12.46 9.40869 12.7188C9.40869 12.9775 9.19869 13.1875 8.93994 13.1875ZM9.87744 11.3125H6.12744C5.86869 11.3125 5.65869 11.1025 5.65869 10.8438C5.65869 10.585 5.86869 10.375 6.12744 10.375H9.87744C10.1362 10.375 10.3462 10.585 10.3462 10.8438C10.3462 11.1025 10.1362 11.3125 9.87744 11.3125ZM9.87744 9.4375H7.06494C6.80619 9.4375 6.59619 9.2275 6.59619 8.96875C6.59619 8.71 6.80619 8.5 7.06494 8.5H9.87744C10.1362 8.5 10.3462 8.71 10.3462 8.96875C10.3462 9.2275 10.1362 9.4375 9.87744 9.4375ZM10.3462 6.15625C10.3462 6.415 10.1362 6.625 9.87744 6.625H6.12744C5.86869 6.625 5.65869 6.415 5.65869 6.15625V3.34375C5.65869 3.085 5.86869 2.875 6.12744 2.875H9.87744C10.1362 2.875 10.3462 3.085 10.3462 3.34375V6.15625Z" fill="#212121"/>
<path d="M6.59619 3.8125H9.40869V5.6875H6.59619V3.8125Z" fill="#212121"/>
</g>
</g>
</g>
<defs>
<clipPath id="clip0_1194_15215">
<rect width="16" height="16" fill="white"/>
</clipPath>
<clipPath id="clip1_1194_15215">
<rect width="16" height="16" fill="white"/>
</clipPath>
<clipPath id="clip2_1194_15215">
<rect width="16" height="16" fill="white"/>
</clipPath>
</defs>
</svg>
