<svg width="16" height="16" viewBox="0 0 16 16" fill="none" xmlns="http://www.w3.org/2000/svg">
<path d="M3.38235 10.6765V11.9118H7.5V10.6765H3.38235Z" fill="#212121"/>
<path fill-rule="evenodd" clip-rule="evenodd" d="M9.33614 7.87281L7.5 6.95473L4.61765 8.39591V2.23529H1.98874C1.92532 2.23529 1.86726 2.26172 1.81456 2.31456C1.76172 2.36726 1.73529 2.42532 1.73529 2.48874V13.5113C1.73529 13.5747 1.76172 13.6327 1.81456 13.6854C1.86726 13.7383 1.92532 13.7647 1.98874 13.7647H8.11056C8.38693 14.2383 8.74734 14.6569 9.17133 15H1.98874C1.57272 15 1.22059 14.8559 0.932353 14.5676C0.644118 14.2794 0.5 13.9273 0.5 13.5113V2.48874C0.5 2.07272 0.644118 1.72059 0.932353 1.43235C1.22059 1.14412 1.57272 1 1.98874 1H13.0113C13.4273 1 13.7794 1.14412 14.0676 1.43235C14.3559 1.72059 14.5 2.07272 14.5 2.48874V7.75777C14.1244 7.50633 13.7087 7.30994 13.2647 7.18015V2.48874C13.2647 2.42532 13.2383 2.36726 13.1854 2.31456C13.1327 2.26172 13.0747 2.23529 13.0113 2.23529H10.3824V7.29951C10.0067 7.44427 9.65536 7.63797 9.33614 7.87281ZM7.5 5.56112L5.85294 6.38465V2.23529H9.14706V6.38465L7.5 5.56112Z" fill="#212121"/>
<path d="M11.7031 11.7763H13.1053C13.1836 11.7763 13.2492 11.7498 13.3021 11.6968C13.3551 11.6438 13.3816 11.5782 13.3816 11.4999C13.3816 11.4216 13.3551 11.3559 13.3021 11.3031C13.2492 11.2501 13.1836 11.2237 13.1053 11.2237H11.7031L12.1942 10.7327C12.2451 10.6824 12.2706 10.6185 12.2706 10.5409C12.2706 10.4633 12.2451 10.399 12.1942 10.3479C12.1431 10.297 12.0788 10.2715 12.0012 10.2715C11.9236 10.2715 11.8597 10.297 11.8094 10.3479L10.8905 11.2669C10.8239 11.3335 10.7906 11.4112 10.7906 11.5C10.7906 11.5888 10.8239 11.6665 10.8905 11.7331L11.8094 12.6521C11.8605 12.703 11.9246 12.7279 12.0017 12.7267C12.079 12.7256 12.1431 12.6995 12.1942 12.6485C12.2451 12.5974 12.2706 12.5331 12.2706 12.4555C12.2706 12.3779 12.2451 12.314 12.1942 12.2637L11.7031 11.7763ZM12.0006 15C11.5165 15 11.0615 14.9081 10.6356 14.7244C10.2096 14.5407 9.83909 14.2914 9.52403 13.9764C9.20896 13.6615 8.95951 13.2911 8.77567 12.8654C8.59189 12.4396 8.5 11.9847 8.5 11.5006C8.5 11.0165 8.59186 10.5615 8.77558 10.1356C8.9593 9.7096 9.20863 9.33909 9.52357 9.02403C9.8385 8.70896 10.2089 8.45951 10.6346 8.27567C11.0604 8.09189 11.5153 8 11.9994 8C12.4835 8 12.9385 8.09186 13.3644 8.27558C13.7904 8.4593 14.1609 8.70863 14.476 9.02357C14.791 9.3385 15.0405 9.70886 15.2243 10.1346C15.4081 10.5604 15.5 11.0153 15.5 11.4994C15.5 11.9835 15.4081 12.4385 15.2244 12.8644C15.0407 13.2904 14.7914 13.6609 14.4764 13.976C14.1615 14.291 13.7911 14.5405 13.3654 14.7243C12.9396 14.9081 12.4847 15 12.0006 15Z" fill="#212121"/>
</svg>
