<svg width="16" height="16" viewBox="0 0 16 16" fill="none" xmlns="http://www.w3.org/2000/svg">
<path fill-rule="evenodd" clip-rule="evenodd" d="M11.6122 1L2.38194 1C2.17141 1 2 1.16808 2 1.37458L2 14.6252C2 14.8319 2.17141 15 2.38194 15H7.22936L7.22905 6.34913C7.22905 6.20163 7.33189 6.08157 7.45821 6.08157L12 6.08157V1.37458C12 1.16808 11.8261 1 11.6122 1ZM4.76232 13.769C3.88466 13.769 3.17063 13.0789 3.17063 12.2308C3.17063 11.3827 3.88466 10.6927 4.76232 10.6927C5.64019 10.6927 6.35422 11.3827 6.35422 12.2308C6.35422 13.0789 5.64019 13.769 4.76232 13.769ZM4.76232 9.53804C3.88466 9.53804 3.17063 8.84803 3.17063 7.9999C3.17063 7.15176 3.88466 6.46175 4.76232 6.46175C5.64019 6.46175 6.35422 7.15176 6.35422 7.9999C6.35422 8.84803 5.64019 9.53804 4.76232 9.53804ZM4.76232 5.30733C3.88466 5.30733 3.17063 4.61732 3.17063 3.76899C3.17063 2.92085 3.88466 2.23084 4.76232 2.23084C5.64019 2.23084 6.35422 2.92085 6.35422 3.76899C6.35422 4.61732 5.64019 5.30733 4.76232 5.30733ZM9.23747 5.30733C8.35981 5.30733 7.64578 4.61732 7.64578 3.76899C7.64578 2.92085 8.35981 2.23084 9.23747 2.23084C10.1151 2.23084 10.8292 2.92085 10.8292 3.76899C10.8292 4.61732 10.1151 5.30733 9.23747 5.30733ZM4.76232 3.06333C4.35977 3.06333 4.03209 3.37998 4.03209 3.76899C4.03209 4.1647 4.35283 4.47485 4.76232 4.47485C5.16508 4.47485 5.49275 4.1582 5.49275 3.76899C5.49275 3.37998 5.16508 3.06333 4.76232 3.06333ZM4.76232 11.5252C4.35977 11.5252 4.03209 11.8418 4.03209 12.2308C4.03209 12.6265 4.35283 12.9365 4.76232 12.9365C5.16508 12.9365 5.49275 12.6198 5.49275 12.2308C5.49275 11.8418 5.16508 11.5252 4.76232 11.5252ZM4.03209 7.9999C4.03209 7.61089 4.35977 7.29424 4.76232 7.29424C5.16508 7.29424 5.49275 7.61089 5.49275 7.9999C5.49275 8.38891 5.16508 8.70556 4.76232 8.70556C4.35283 8.70556 4.03209 8.39561 4.03209 7.9999ZM8.50725 3.76899C8.50725 3.37998 8.83492 3.06333 9.23747 3.06333C9.64002 3.06333 9.9677 3.37998 9.9677 3.76899C9.9677 4.1582 9.64002 4.47485 9.23747 4.47485C8.82798 4.47485 8.50725 4.1647 8.50725 3.76899Z" fill="black"/>
<path d="M9.23199 12.8903C9.00388 12.8903 8.8182 13.0825 8.8182 13.3187C8.8182 13.559 8.99995 13.7471 9.23199 13.7471C9.46022 13.7471 9.6459 13.5549 9.6459 13.3187C9.6459 13.0825 9.46022 12.8903 9.23199 12.8903Z" fill="black"/>
<path d="M9.23199 7.75273C9.00388 7.75273 8.8182 7.94499 8.8182 8.18117C8.8182 8.42143 8.99995 8.60973 9.23199 8.60973C9.46022 8.60973 9.6459 8.41748 9.6459 8.18117C9.6459 7.94499 9.46022 7.75273 9.23199 7.75273Z" fill="black"/>
<path d="M9.23199 10.3215C9.00388 10.3215 8.8182 10.5138 8.8182 10.7499C8.8182 10.9902 8.99995 11.1784 9.23199 11.1784C9.46022 11.1784 9.6459 10.9861 9.6459 10.7499C9.6459 10.5138 9.46022 10.3215 9.23199 10.3215Z" fill="black"/>
<path d="M13.1136 6.5H7.88311C7.76381 6.5 7.66668 6.60205 7.66668 6.72742L7.66668 14.7725C7.66668 14.898 7.76381 15 7.88311 15H13.1136C13.2348 15 13.3333 14.898 13.3333 14.7725V6.72742C13.3333 6.60205 13.2348 6.5 13.1136 6.5ZM9.23199 14.2526C8.73465 14.2526 8.33003 13.8336 8.33003 13.3187C8.33003 12.8038 8.73465 12.3848 9.23199 12.3848C9.72945 12.3848 10.1341 12.8038 10.1341 13.3187C10.1341 13.8336 9.72945 14.2526 9.23199 14.2526ZM9.23199 11.6838C8.73465 11.6838 8.33003 11.2649 8.33003 10.7499C8.33003 10.235 8.73465 9.81606 9.23199 9.81606C9.72945 9.81606 10.1341 10.235 10.1341 10.7499C10.1341 11.2649 9.72945 11.6838 9.23199 11.6838ZM9.23199 9.11517C8.73465 9.11517 8.33003 8.69623 8.33003 8.18117C8.33003 7.66623 8.73465 7.2473 9.23199 7.2473C9.72945 7.2473 10.1341 7.66623 10.1341 8.18117C10.1341 8.69623 9.72945 9.11517 9.23199 9.11517ZM11.7679 14.2526C11.2706 14.2526 10.866 13.8336 10.866 13.3187C10.866 12.8038 11.2706 12.3848 11.7679 12.3848C12.2652 12.3848 12.6699 12.8038 12.6699 13.3187C12.6699 13.8336 12.2652 14.2526 11.7679 14.2526ZM11.7679 11.6838C11.2706 11.6838 10.866 11.2649 10.866 10.7499C10.866 10.235 11.2706 9.81606 11.7679 9.81606C12.2652 9.81606 12.6699 10.235 12.6699 10.7499C12.6699 11.2649 12.2652 11.6838 11.7679 11.6838ZM11.7679 9.11517C11.2706 9.11517 10.866 8.69623 10.866 8.18117C10.866 7.66623 11.2706 7.2473 11.7679 7.2473C12.2652 7.2473 12.6699 7.66623 12.6699 8.18117C12.6699 8.69623 12.2652 9.11517 11.7679 9.11517Z" fill="black"/>
<path d="M11.7678 13.747C11.9963 13.747 12.1816 13.5552 12.1816 13.3186C12.1816 13.0821 11.9963 12.8903 11.7678 12.8903C11.5393 12.8903 11.3541 13.0821 11.3541 13.3186C11.3541 13.5552 11.5393 13.747 11.7678 13.747Z" fill="black"/>
<path d="M11.7678 11.1784C11.9963 11.1784 12.1816 10.9866 12.1816 10.75C12.1816 10.5135 11.9963 10.3217 11.7678 10.3217C11.5393 10.3217 11.3541 10.5135 11.3541 10.75C11.3541 10.9866 11.5393 11.1784 11.7678 11.1784Z" fill="black"/>
<path d="M11.7679 7.75273C11.5398 7.75273 11.3541 7.94499 11.3541 8.18117C11.3541 8.42143 11.5359 8.60973 11.7679 8.60973C11.996 8.60973 12.1817 8.41748 12.1817 8.18117C12.1817 7.94499 11.996 7.75273 11.7679 7.75273Z" fill="black"/>
</svg>
