<svg width="16" height="16" viewBox="0 0 16 16" fill="none" xmlns="http://www.w3.org/2000/svg">
<path d="M10.3333 12.9582V11.9429H8.75941C8.40139 11.9429 8.09555 11.8218 7.84187 11.5796C7.58832 11.3373 7.46154 11.0452 7.46154 10.7033V5.08571H5.66667V6.10109C5.66667 6.39034 5.56059 6.63629 5.34844 6.83891C5.13628 7.04154 4.87878 7.14286 4.57592 7.14286H2.09074C1.78789 7.14286 1.53038 7.04154 1.31823 6.83891C1.10608 6.63629 1 6.39034 1 6.10109V3.04177C1 2.75251 1.10608 2.50657 1.31823 2.30394C1.53038 2.10131 1.78789 2 2.09074 2H4.57592C4.87878 2 5.13628 2.10131 5.34844 2.30394C5.56059 2.50657 5.66667 2.75251 5.66667 3.04177V4.05714H10.3333V3.04177C10.3333 2.75251 10.4394 2.50657 10.6516 2.30394C10.8637 2.10131 11.1212 2 11.4241 2H13.9093C14.2121 2 14.4696 2.10131 14.6818 2.30394C14.8939 2.50657 15 2.75251 15 3.04177V6.10109C15 6.39034 14.8939 6.63629 14.6818 6.83891C14.4696 7.04154 14.2121 7.14286 13.9093 7.14286H11.4241C11.1212 7.14286 10.8637 7.04154 10.6516 6.83891C10.4394 6.63629 10.3333 6.39034 10.3333 6.10109V5.08571H8.53846V10.7033C8.53846 10.7649 8.55916 10.8154 8.60056 10.855C8.64197 10.8945 8.69491 10.9143 8.75941 10.9143H10.3333V9.89891C10.3333 9.60966 10.4394 9.36371 10.6516 9.16109C10.8637 8.95846 11.1212 8.85714 11.4241 8.85714H13.9093C14.2121 8.85714 14.4696 8.95846 14.6818 9.16109C14.8939 9.36371 15 9.60966 15 9.89891V12.9582C15 13.2475 14.8939 13.4934 14.6818 13.6961C14.4696 13.8987 14.2121 14 13.9093 14H11.4241C11.1212 14 10.8637 13.8987 10.6516 13.6961C10.4394 13.4934 10.3333 13.2475 10.3333 12.9582ZM11.4103 6.11429H13.9231V3.02857H11.4103V6.11429ZM11.4103 12.9714H13.9231V9.88571H11.4103V12.9714ZM2.07692 6.11429H4.58974V3.02857H2.07692V6.11429Z" fill="#212121"/>
</svg>
