<svg width="16" height="16" viewBox="0 0 16 16" fill="none" xmlns="http://www.w3.org/2000/svg">
<g clip-path="url(#clip0_1193_14668)">
<path d="M13.1996 0C14.1896 0 15 0.771726 15 1.71458V14.2854C15 15.2283 15 16 15 16H2.80043C1.81043 16 1 15.2283 1 14.2854V1.71458C1 0.771726 1.81043 0 2.80043 0H13.1996ZM4 12.5719C3.67005 12.5719 3.4003 12.8285 3.40021 13.1427C3.40021 13.457 3.67 13.7146 4 13.7146H12C12.33 13.7146 12.5998 13.457 12.5998 13.1427C12.5997 12.8285 12.3299 12.5719 12 12.5719H4ZM4 10.2854C3.67 10.2854 3.40021 10.543 3.40021 10.8573C3.4003 11.1715 3.67005 11.4281 4 11.4281H12C12.3299 11.4281 12.5997 11.1715 12.5998 10.8573C12.5998 10.543 12.33 10.2854 12 10.2854H4ZM5.36364 2.66667C5.09734 2.66667 4.88104 2.87185 4.88104 3.12396V3.2625C4.88104 3.28119 4.8679 3.29808 4.84908 3.30417C4.60825 3.37936 4.38607 3.50938 4.20668 3.67917C3.89768 3.9717 3.72727 4.36163 3.72727 4.775C3.72733 5.18866 3.89782 5.57733 4.20668 5.86979C4.51568 6.16189 4.927 6.32396 5.36364 6.32396C5.54261 6.32396 5.71101 6.38952 5.83771 6.50938C5.96489 6.62934 6.0348 6.78942 6.0348 6.95938C6.03469 7.12918 5.9648 7.28803 5.83771 7.40833C5.711 7.52826 5.54313 7.59479 5.36364 7.59479C5.25207 7.59479 5.14122 7.56874 5.04297 7.51875C4.94479 7.46876 4.86216 7.394 4.80114 7.30625C4.73089 7.20504 4.62174 7.13518 4.49645 7.11042C4.46401 7.10395 4.43072 7.10002 4.39737 7.1C4.30371 7.1 4.21275 7.12632 4.13423 7.175C4.02737 7.24146 3.9527 7.34397 3.92649 7.4625C3.90033 7.58114 3.92445 7.70498 3.99467 7.80625C4.14343 8.02141 4.34932 8.19869 4.58807 8.32083C4.67205 8.3634 4.75974 8.39945 4.85014 8.42813C4.86888 8.43423 4.881 8.45117 4.88104 8.46979V8.60938C4.88104 8.86134 5.09755 9.06643 5.36364 9.06667C5.62948 9.06667 5.84624 8.86105 5.84624 8.60938V8.47083C5.84624 8.45214 5.85937 8.43525 5.8782 8.42917C6.11902 8.35354 6.3412 8.22395 6.5206 8.05417C6.8296 7.76164 7 7.3717 7 6.95833C6.99994 6.54468 6.82945 6.15601 6.5206 5.86354C6.21206 5.57145 5.79982 5.40938 5.36364 5.40938C5.18429 5.40926 5.01663 5.34322 4.88956 5.22292C4.76245 5.10296 4.69247 4.94386 4.69247 4.77396C4.69258 4.60372 4.76248 4.44427 4.88956 4.32396C5.01613 4.20389 5.18446 4.13865 5.36364 4.13854C5.47475 4.13854 5.58651 4.16356 5.6843 4.21354C5.78195 4.26391 5.86511 4.3384 5.92614 4.42604C5.99637 4.52774 6.10551 4.59813 6.23082 4.62292C6.35604 4.64767 6.48612 4.62468 6.59304 4.55833C6.7 4.49184 6.7746 4.38843 6.80078 4.26979C6.82692 4.15126 6.80266 4.02829 6.7326 3.92708C6.58384 3.71192 6.37781 3.53464 6.13814 3.4125C6.05474 3.37001 5.96739 3.33385 5.87713 3.30521C5.85833 3.29913 5.84521 3.2822 5.84517 3.26354V3.12396C5.84517 2.87243 5.62927 2.6669 5.36364 2.66667ZM8.80043 7.46146C8.47043 7.46146 8.19957 7.71905 8.19957 8.03333C8.19981 8.34743 8.47057 8.60417 8.80043 8.60417H12C12.3299 8.60417 12.5996 8.34743 12.5998 8.03333C12.5998 7.71905 12.33 7.46146 12 7.46146H8.80043ZM8.80043 5.17604C8.47054 5.17604 8.19977 5.43274 8.19957 5.74688C8.19957 6.06116 8.47043 6.31875 8.80043 6.31875H12C12.33 6.31875 12.5998 6.06116 12.5998 5.74688C12.5996 5.43274 12.3299 5.17604 12 5.17604H8.80043ZM8.80043 2.88958C8.47044 2.88958 8.19959 3.14719 8.19957 3.46146C8.19957 3.77574 8.47043 4.03333 8.80043 4.03333H12C12.33 4.03333 12.5998 3.77574 12.5998 3.46146C12.5998 3.14719 12.33 2.88958 12 2.88958H8.80043Z" fill="black"/>
</g>
<defs>
<clipPath id="clip0_1193_14668">
<rect width="16" height="16" fill="white"/>
</clipPath>
</defs>
</svg>
