<svg width="16" height="16" viewBox="0 0 16 16" fill="none" xmlns="http://www.w3.org/2000/svg">
<g clip-path="url(#clip0_1391_12445)">
<path fill-rule="evenodd" clip-rule="evenodd" d="M15.5 6.85422V12.2575C15.5 12.6669 15.3618 13.0134 15.0855 13.297C14.8092 13.5806 14.4716 13.7224 14.0728 13.7224H3.29355L1.71303 15.3444C1.48842 15.5751 1.23007 15.627 0.937961 15.5C0.645987 15.3729 0.5 15.1461 0.5 14.8194V3.03248C0.5 2.62313 0.638158 2.27666 0.914474 1.99304C1.19079 1.70943 1.52836 1.56763 1.92717 1.56763H8.43489C8.15606 2.15313 8.00001 2.80837 8.00001 3.50006C8.00001 3.88178 8.04753 4.2524 8.137 4.60632H4.05263C3.88487 4.60632 3.74428 4.66459 3.63086 4.78115C3.5173 4.8977 3.46053 5.04207 3.46053 5.21426C3.46053 5.38659 3.5173 5.53089 3.63086 5.64717C3.74428 5.76359 3.88487 5.8218 4.05263 5.8218H8.64441C8.92643 6.28912 9.29101 6.70102 9.71795 7.03727H4.05263C3.88487 7.03727 3.74428 7.09555 3.63086 7.2121C3.5173 7.32865 3.46053 7.47302 3.46053 7.64521C3.46053 7.81754 3.5173 7.96184 3.63086 8.07813C3.74428 8.19454 3.88487 8.25275 4.05263 8.25275H11.9474C12.1151 8.25275 12.2557 8.19447 12.3691 8.07792C12.3934 8.05308 12.415 8.02696 12.434 7.99959C12.456 7.9999 12.478 8.00006 12.5 8.00006C13.6525 8.00006 14.7039 7.56678 15.5 6.85422ZM8.78948 10.6837H4.05263C3.88487 10.6837 3.74428 10.6255 3.63086 10.5091C3.5173 10.3928 3.46053 10.2485 3.46053 10.0762C3.46053 9.90397 3.5173 9.7596 3.63086 9.64305C3.74428 9.5265 3.88487 9.46823 4.05263 9.46823H8.78948C8.95724 9.46823 9.09783 9.52643 9.21125 9.64285C9.32481 9.75913 9.38158 9.90343 9.38158 10.0758C9.38158 10.248 9.32481 10.3923 9.21125 10.5089C9.09783 10.6254 8.95724 10.6837 8.78948 10.6837Z" fill="#212121"/>
<path d="M16 3.5C16 5.433 14.433 7 12.5 7C10.567 7 9 5.433 9 3.5C9 1.567 10.567 0 12.5 0C14.433 0 16 1.567 16 3.5Z" fill="#E54141"/>
<path d="M13 1.86364V5.5H12.2312V2.59339H12.2099L11.3771 3.11541V2.43359L12.2773 1.86364H13Z" fill="#FEFEFE"/>
</g>
<defs>
<clipPath id="clip0_1391_12445">
<rect width="16" height="16" fill="white"/>
</clipPath>
</defs>
</svg>
