<svg width="16" height="16" viewBox="0 0 16 16" fill="none" xmlns="http://www.w3.org/2000/svg">
<path d="M13.5995 4.5H12.1996V2.39987C12.1996 1.6274 11.5715 1 10.7997 1H5.1996C4.42713 1 3.79973 1.62807 3.79973 2.39987V4.5H2.39987C1.6274 4.5 1 5.12807 1 5.89987V10.8004C1 11.5729 1.62807 12.2003 2.39987 12.2003H3.79973V13.6001C3.79973 14.3726 4.42781 15 5.1996 15H10.7997C11.5722 15 12.1996 14.3719 12.1996 13.6001V12.2003H13.5995C14.3719 12.2003 14.9993 11.5722 14.9993 10.8004V5.89987C14.9993 5.1274 14.3713 4.5 13.5995 4.5ZM4.49933 2.39987C4.49933 2.01396 4.81304 1.6996 5.1996 1.6996H10.7997C11.1856 1.6996 11.5 2.01331 11.5 2.39987V4.5H4.49933V2.39987ZM11.4993 13.6001C11.4993 13.986 11.1856 14.3004 10.7991 14.3004H5.19892C4.81302 14.3004 4.49866 13.9867 4.49866 13.6001V9.74966H11.4993V13.6001ZM13.2497 7.29973H12.5494C12.3558 7.29973 12.1996 7.14288 12.1996 6.94993C12.1996 6.75699 12.3558 6.60013 12.5494 6.60013H13.2497C13.4433 6.60013 13.5995 6.75699 13.5995 6.94993C13.5995 7.14288 13.4433 7.29973 13.2497 7.29973Z" fill="black"/>
<path d="M5.54951 11.5001H10.45C10.6436 11.5001 10.7998 11.3433 10.7998 11.1503C10.7998 10.9574 10.6436 10.8005 10.45 10.8005H5.54951C5.35591 10.8005 5.19971 10.9574 5.19971 11.1503C5.19971 11.3433 5.35591 11.5001 5.54951 11.5001Z" fill="black"/>
<path d="M5.54951 13.2506H10.45C10.6436 13.2506 10.7998 13.0938 10.7998 12.9008C10.7998 12.7079 10.6436 12.551 10.45 12.551H5.54951C5.35591 12.551 5.19971 12.7079 5.19971 12.9008C5.19971 13.0938 5.35591 13.2506 5.54951 13.2506Z" fill="black"/>
</svg>
