<svg width="16" height="16" viewBox="0 0 16 16" fill="none" xmlns="http://www.w3.org/2000/svg">
<path d="M2.34586 2.53433H7.27342C7.43888 2.53433 7.57338 2.39996 7.57338 2.23517V1.30003C7.57338 1.13467 7.43888 1 7.27342 1H2.34586C2.1807 1 2.0462 1.13467 2.0462 1.30003V2.23517C2.0462 2.39996 2.1807 2.53433 2.34586 2.53433ZM6.91563 1.39763H7.31999V2.13669H6.91563V1.39763ZM5.99237 1.39763H6.39673V2.13669H5.99237V1.39763ZM5.06938 1.39763H5.47344V2.13669H5.06935L5.06938 1.39763ZM4.14612 1.39763H4.5502V2.13669H4.14612V1.39763ZM3.22286 1.39763H3.62691V2.13669H3.22286V1.39763ZM2.29872 1.39763H2.70308V2.13669H2.29872V1.39763ZM8.47668 9.86245C8.6294 9.59803 8.877 9.40836 9.17376 9.32899C9.27353 9.30205 9.37449 9.28902 9.47457 9.28902C9.57377 9.28902 9.67213 9.30205 9.76786 9.32754C9.86331 9.3533 9.95587 9.39155 10.0438 9.44223C10.591 9.75847 10.7791 10.4622 10.4635 11.0104L9.62496 12.4648L7.63813 11.3165L8.47668 9.86245ZM9.42278 12.8155L8.58425 14.2693C8.26753 14.8173 7.56496 15.0058 7.018 14.6898C6.47017 14.373 6.28158 13.6693 6.59743 13.1216L7.43595 11.6672L9.42278 12.8155ZM6.65212 14.9311H2.42395C1.63864 14.9311 1 14.2916 1 13.5056V13.3145H6.08722C5.93711 13.9091 6.15318 14.5514 6.65212 14.9311ZM8.12668 9.66002C8.24992 9.44685 8.41852 9.26964 8.61955 9.13844V6.87694H1V12.91H6.25268L8.12668 9.66002ZM5.2545 10.5413V11.9331H4.36506V10.5413C4.36506 10.4295 4.27452 10.3388 4.16288 10.3388H2.77278V9.448H4.16288C4.27452 9.448 4.36506 9.35736 4.36506 9.24585V7.85372H5.2545V9.24585C5.2545 9.35736 5.34503 9.448 5.45668 9.448H6.84678V10.3388H5.45668C5.34503 10.3388 5.2545 10.4295 5.2545 10.5413ZM9.95472 12.704H11.772V15H10.0947C9.62963 15 9.21513 14.7191 9.03753 14.2928L9.95472 12.7023V12.704ZM15 13.852C15 14.4851 14.4854 15 13.8534 15H12.1761V12.704H13.8534C14.4854 12.704 15 13.2189 15 13.852ZM8.61955 6.47235H1V6.3235L2.62641 5.03215C2.67472 4.99363 2.70305 4.93543 2.70305 4.87344V3.9331V3.52855V2.93891H6.9156V3.52855V3.93313V4.87347C6.9156 4.93546 6.94396 4.99366 6.99225 5.03218L8.61953 6.32353L8.61955 6.47235Z" fill="black"/>
</svg>
