<svg width="16" height="16" viewBox="0 0 16 16" fill="none" xmlns="http://www.w3.org/2000/svg">
<path fill-rule="evenodd" clip-rule="evenodd" d="M2.90909 1C1.85473 1 1 1.85473 1 2.90909V13.0909C1 14.1453 1.85473 15 2.90909 15H13.0909C14.1453 15 15 14.1453 15 13.0909V2.90909C15 1.85473 14.1453 1 13.0909 1H10.5455V6.09091C10.5455 6.29546 10.4471 6.48755 10.2812 6.60715C10.1152 6.72676 9.9019 6.75928 9.70787 6.69461L8 6.12533L6.29215 6.69461C6.09809 6.75928 5.88477 6.72676 5.71882 6.60715C5.55288 6.48755 5.45455 6.29546 5.45455 6.09091V1H2.90909ZM6.72727 1H9.27273V5.208L8.20122 4.85084C8.07064 4.80729 7.92936 4.80729 7.79878 4.85084L6.72727 5.208V1ZM4.18182 10.5455V11.8182H6.72727V10.5455H4.18182Z" fill="#212121"/>
</svg>
