<svg width="16" height="16" viewBox="0 0 16 16" fill="none" xmlns="http://www.w3.org/2000/svg">
<path fill-rule="evenodd" clip-rule="evenodd" d="M7.58235 1C5.0519 1 3 3.11371 3 5.70164C3 6.23558 3.22654 6.90461 3.56161 7.70456C3.89669 8.50451 4.35027 9.4144 4.82897 10.3238C5.78637 12.1425 6.85712 13.9706 7.29907 14.8266C7.32573 14.8788 7.36629 14.9226 7.41628 14.9532C7.46627 14.9838 7.52375 15 7.58236 15C7.64097 15 7.69844 14.9838 7.74843 14.9532C7.79842 14.9226 7.83899 14.8788 7.86565 14.8266C8.30759 13.9706 9.37833 12.1425 10.3358 10.3238C10.8145 9.4144 11.2631 8.50451 11.5981 7.70456C11.9332 6.90461 12.1647 6.23558 12.1647 5.70164C12.1647 3.11385 10.1143 1 7.58235 1ZM7.58235 3.58441C8.48589 3.58441 9.22247 4.32473 9.22247 5.22949C9.22247 6.13302 8.48589 6.87456 7.58235 6.87456C6.67882 6.87456 5.93728 6.13302 5.93728 5.22949C5.93728 4.32473 6.67882 3.58441 7.58235 3.58441Z" fill="black"/>
</svg>
