<svg width="16" height="16" viewBox="0 0 16 16" fill="none" xmlns="http://www.w3.org/2000/svg">
<path d="M6.35294 6.38465L8 5.56112L9.64706 6.38465V2.23529H6.35294V6.38465ZM3.88235 11.9118V10.6765H8V11.9118H3.88235ZM2.48874 15C2.07272 15 1.72059 14.8559 1.43235 14.5676C1.14412 14.2794 1 13.9273 1 13.5113V2.48874C1 2.07272 1.14412 1.72059 1.43235 1.43235C1.72059 1.14412 2.07272 1 2.48874 1H13.5113C13.9273 1 14.2794 1.14412 14.5676 1.43235C14.8559 1.72059 15 2.07272 15 2.48874V13.5113C15 13.9273 14.8559 14.2794 14.5676 14.5676C14.2794 14.8559 13.9273 15 13.5113 15H2.48874ZM2.48874 13.7647H13.5113C13.5747 13.7647 13.6327 13.7383 13.6854 13.6854C13.7383 13.6327 13.7647 13.5747 13.7647 13.5113V2.48874C13.7647 2.42532 13.7383 2.36726 13.6854 2.31456C13.6327 2.26172 13.5747 2.23529 13.5113 2.23529H10.8824V8.39591L8 6.95473L5.11765 8.39591V2.23529H2.48874C2.42532 2.23529 2.36726 2.26172 2.31456 2.31456C2.26172 2.36726 2.23529 2.42532 2.23529 2.48874V13.5113C2.23529 13.5747 2.26172 13.6327 2.31456 13.6854C2.36726 13.7383 2.42532 13.7647 2.48874 13.7647Z" fill="#212121"/>
</svg>
