<svg width="16" height="16" viewBox="0 0 16 16" fill="none" xmlns="http://www.w3.org/2000/svg">
<path d="M10.6968 1H2.57026C2.25548 1 2 1.25519 2 1.57026V14.4297C2 14.7448 2.25548 15 2.57026 15H12.4952C12.8099 15 13.0654 14.7448 13.0654 14.4297V3.36859L10.6968 1Z" stroke="#212121" stroke-width="0.8" stroke-miterlimit="10" stroke-linecap="round" stroke-linejoin="round"/>
<path d="M13.0648 3.57802H11.0571C10.7421 3.57802 10.4868 3.32272 10.4868 3.00776V1" stroke="#212121" stroke-width="0.8" stroke-miterlimit="10" stroke-linecap="round" stroke-linejoin="round"/>
<path d="M3.92432 9.71045H11.1412" stroke="#212121" stroke-width="0.8" stroke-miterlimit="10" stroke-linecap="round" stroke-linejoin="round"/>
<path d="M3.92432 12.1709H9.84703" stroke="#212121" stroke-width="0.8" stroke-miterlimit="10" stroke-linecap="round" stroke-linejoin="round"/>
<path d="M8.20072 4.14718C8.20072 4.14718 7.91122 3.88013 7.46492 4.01457C7.05517 4.13803 6.95342 4.69868 7.23187 4.9171C7.39176 5.04251 7.63234 5.14561 7.95659 5.26022C8.68225 5.51672 8.41399 6.54011 7.67582 6.54504C7.38775 6.54697 7.25307 6.52867 7 6.36313" stroke="#212121" stroke-width="0.4" stroke-miterlimit="10" stroke-linecap="round" stroke-linejoin="round"/>
<path d="M7.67627 3.63113V6.91846" stroke="#212121" stroke-width="0.4" stroke-miterlimit="10" stroke-linecap="round" stroke-linejoin="round"/>
</svg>
