<svg width="16" height="16" viewBox="0 0 16 16" fill="none" xmlns="http://www.w3.org/2000/svg">
<path d="M7 15C6.16667 15 5.38611 14.8417 4.65833 14.525C3.93056 14.2083 3.29722 13.7806 2.75833 13.2417C2.21944 12.7028 1.79167 12.0694 1.475 11.3417C1.15833 10.6139 1 9.83333 1 9C1 7.33333 1.58333 5.91667 2.75 4.75C3.91667 3.58333 5.33333 3 7 3H7.1L6.06667 1.96667L7 0.999999L9.66667 3.66667L7 6.33333L6.06667 5.36667L7.1 4.33333H7C5.7 4.33333 4.59722 4.78611 3.69167 5.69167C2.78611 6.59722 2.33333 7.7 2.33333 9C2.33333 10.3 2.78611 11.4028 3.69167 12.3083C4.59722 13.2139 5.7 13.6667 7 13.6667C7.38889 13.6667 7.77222 13.6194 8.15 13.525C8.52778 13.4306 8.88889 13.2889 9.23333 13.1L10.2 14.0667C9.72222 14.3778 9.21111 14.6111 8.66667 14.7667C8.12222 14.9222 7.56667 15 7 15ZM11 13L7 9L11 5L15 9L11 13ZM11 11.1L13.1 9L11 6.9L8.9 9L11 11.1Z" fill="#212121"/>
</svg>
