<svg width="16" height="16" viewBox="0 0 16 16" fill="none" xmlns="http://www.w3.org/2000/svg">
<path d="M3.60732 13.1543L2.13216 14.7763C1.92253 15.007 1.68139 15.0592 1.40876 14.9331C1.13625 14.8068 1 14.5796 1 14.2513V2.4648C1 2.05547 1.12895 1.709 1.38684 1.4254C1.64474 1.1418 1.9598 1 2.33203 1H13.668C14.0402 1 14.3553 1.1418 14.6132 1.4254C14.8711 1.709 15 2.05547 15 2.4648V11.6895C15 12.0989 14.8711 12.4453 14.6132 12.7289C14.3553 13.0125 14.0402 13.1543 13.668 13.1543H3.60732ZM3.13684 11.9389H13.668C13.7247 11.9389 13.7767 11.9129 13.8238 11.8609C13.8711 11.809 13.8947 11.7519 13.8947 11.6895V2.4648C13.8947 2.40241 13.8711 2.34528 13.8238 2.29342C13.7767 2.24143 13.7247 2.21543 13.668 2.21543H2.33203C2.27529 2.21543 2.22334 2.24143 2.17618 2.29342C2.1289 2.34528 2.10526 2.40241 2.10526 2.4648V13.0609L3.13684 11.9389ZM4.31579 10.1157H8.73684C8.89367 10.1157 9.02495 10.0575 9.13068 9.94113C9.23654 9.82485 9.28947 9.68049 9.28947 9.50803C9.28947 9.33557 9.23654 9.19121 9.13068 9.07493C9.02495 8.95852 8.89367 8.90031 8.73684 8.90031H4.31579C4.15896 8.90031 4.02768 8.95852 3.92195 9.07493C3.81609 9.19121 3.76316 9.33557 3.76316 9.50803C3.76316 9.68049 3.81609 9.82485 3.92195 9.94113C4.02768 10.0575 4.15896 10.1157 4.31579 10.1157ZM4.31579 7.68488H11.6842C11.841 7.68488 11.9723 7.62667 12.0781 7.51026C12.1839 7.39399 12.2368 7.24962 12.2368 7.07716C12.2368 6.90471 12.1839 6.76034 12.0781 6.64406C11.9723 6.52765 11.841 6.46945 11.6842 6.46945H4.31579C4.15896 6.46945 4.02768 6.52765 3.92195 6.64406C3.81609 6.76034 3.76316 6.90471 3.76316 7.07716C3.76316 7.24962 3.81609 7.39399 3.92195 7.51026C4.02768 7.62667 4.15896 7.68488 4.31579 7.68488ZM4.31579 5.25401H11.6842C11.841 5.25401 11.9723 5.19581 12.0781 5.0794C12.1839 4.96312 12.2368 4.81875 12.2368 4.6463C12.2368 4.47384 12.1839 4.32948 12.0781 4.2132C11.9723 4.09679 11.841 4.03858 11.6842 4.03858H4.31579C4.15896 4.03858 4.02768 4.09679 3.92195 4.2132C3.81609 4.32948 3.76316 4.47384 3.76316 4.6463C3.76316 4.81875 3.81609 4.96312 3.92195 5.0794C4.02768 5.19581 4.15896 5.25401 4.31579 5.25401Z" fill="#212121"/>
</svg>
