<svg width="16" height="16" viewBox="0 0 16 16" fill="none" xmlns="http://www.w3.org/2000/svg">
<g clip-path="url(#clip0_1194_15025)">
<g clip-path="url(#clip1_1194_15025)">
<path fill-rule="evenodd" clip-rule="evenodd" d="M3.72741 10.3988L5.25616 9.34504H10.247C10.4103 9.3462 10.5664 9.41186 10.6815 9.5277C10.7965 9.64355 10.861 9.80018 10.861 9.96343C10.861 10.1267 10.7965 10.2833 10.6815 10.3991C10.5664 10.515 10.4103 10.5807 10.247 10.5818H7.85954C7.77123 10.583 7.68695 10.6189 7.62494 10.6818C7.56292 10.7447 7.52815 10.8294 7.52815 10.9178C7.52815 11.0061 7.56292 11.0908 7.62494 11.1537C7.68695 11.2166 7.77123 11.2525 7.85954 11.2537H10.247C10.4165 11.2537 10.5842 11.2201 10.7406 11.155C10.897 11.0899 11.039 10.9944 11.1583 10.8742C11.2199 10.8133 11.2747 10.7459 11.3218 10.6733C11.3451 10.6667 11.3675 10.6569 11.3883 10.6443L14.196 9.02351C14.2106 9.0164 14.2246 9.00819 14.238 8.99894C14.3768 8.92791 14.5371 8.91144 14.6874 8.95276C14.8378 8.99408 14.9672 9.0902 15.0502 9.22219C15.0554 9.23318 15.0617 9.24365 15.0689 9.25344C15.14 9.38626 15.1572 9.54133 15.1171 9.68654C15.0706 9.85324 14.9645 9.99704 14.8188 10.0906L9.553 13.5286H6.21835C6.15743 13.5288 6.09762 13.545 6.04491 13.5755L5.68704 13.7921L3.72741 10.3988ZM2.70807 9.97235L0.861816 11.0395L3.72585 16L5.57207 14.9351L2.70807 9.97235ZM9.66013 1.66094V1.80607C9.39469 1.84977 9.14276 1.95362 8.92363 2.10966C8.61488 2.33738 8.42404 2.65885 8.42404 3.02272C8.42404 3.3866 8.61488 3.7081 8.92363 3.93582C9.14276 4.09186 9.39469 4.19571 9.66013 4.23941V5.37129C9.53764 5.34064 9.42216 5.28683 9.31991 5.21275C9.18147 5.11232 9.09554 4.97838 9.09554 4.83994C9.09554 4.7509 9.06016 4.6655 8.9972 4.60253C8.93423 4.53957 8.84883 4.50419 8.75978 4.50419C8.67074 4.50419 8.58534 4.53957 8.52237 4.60253C8.45941 4.6655 8.42404 4.7509 8.42404 4.83994C8.42404 5.20385 8.61488 5.52744 8.92363 5.75304C9.14176 5.91088 9.39413 6.01491 9.66013 6.05663V6.20175C9.6597 6.24612 9.66807 6.29013 9.68475 6.33124C9.70143 6.37236 9.7261 6.40976 9.75732 6.44128C9.78854 6.4728 9.8257 6.49783 9.86665 6.5149C9.9076 6.53198 9.95153 6.54078 9.99589 6.54078C10.0403 6.54078 10.0842 6.53198 10.1251 6.5149C10.1661 6.49783 10.2032 6.4728 10.2345 6.44128C10.2657 6.40976 10.2904 6.37236 10.307 6.33124C10.3237 6.29013 10.3321 6.24612 10.3317 6.20175V6.05663C10.5977 6.01495 10.8502 5.91092 11.0683 5.75304C11.3771 5.52754 11.568 5.20385 11.568 4.83994C11.568 4.47829 11.3771 4.1546 11.0683 3.92688C10.8495 3.77061 10.5973 3.66742 10.3317 3.6255V2.49141C10.4539 2.52309 10.5692 2.57684 10.6721 2.65C10.8105 2.75269 10.8964 2.88438 10.8964 3.02282C10.8973 3.11131 10.933 3.19588 10.9959 3.25815C11.0588 3.32043 11.1437 3.35536 11.2322 3.35536C11.3207 3.35536 11.4056 3.32043 11.4685 3.25815C11.5314 3.19588 11.5671 3.11131 11.568 3.02282C11.568 2.65894 11.3771 2.33747 11.0683 2.10975C10.8492 1.95367 10.5972 1.84982 10.3317 1.80616V1.66094C10.3308 1.57245 10.2951 1.48788 10.2322 1.42561C10.1693 1.36333 10.0844 1.3284 9.99589 1.3284C9.9074 1.3284 9.82248 1.36333 9.75961 1.42561C9.69673 1.48788 9.66098 1.57245 9.66013 1.66094ZM10.3317 4.31094C10.4542 4.34162 10.5697 4.39541 10.6721 4.46944C10.8105 4.56988 10.8964 4.7016 10.8964 4.84C10.8964 4.97841 10.8105 5.11238 10.6721 5.21282C10.5697 5.28684 10.4542 5.34065 10.3317 5.37135V4.31088V4.31094ZM9.66013 3.55407C9.53799 3.52247 9.42268 3.46875 9.31991 3.39557C9.18147 3.29288 9.09554 3.16119 9.09554 3.02272C9.09554 2.88425 9.18147 2.7526 9.31991 2.64991C9.42268 2.57673 9.53799 2.52301 9.66013 2.49141V3.55407ZM9.9961 4.57976e-06C10.906 -0.000167859 11.7879 0.315187 12.4914 0.892334C13.1949 1.46948 13.6765 2.27271 13.8541 3.16514C14.0318 4.05758 13.8945 4.984 13.4656 5.78655C13.0368 6.5891 12.3429 7.21812 11.5023 7.56642C10.6616 7.91472 9.72621 7.96075 8.85543 7.69667C7.98465 7.43259 7.23237 6.87473 6.7268 6.11817C6.22123 5.3616 5.99363 4.45313 6.0828 3.54756C6.17197 2.642 6.57239 1.79537 7.21582 1.15194C7.5804 0.786101 8.01375 0.495981 8.4909 0.298284C8.96806 0.100586 9.47961 -0.000785221 9.9961 4.57976e-06Z" fill="#212121"/>
</g>
</g>
<defs>
<clipPath id="clip0_1194_15025">
<rect width="16" height="16" fill="white"/>
</clipPath>
<clipPath id="clip1_1194_15025">
<rect width="16" height="16" fill="white"/>
</clipPath>
</defs>
</svg>
