<svg width="16" height="16" viewBox="0 0 16 16" fill="none" xmlns="http://www.w3.org/2000/svg">
<g clip-path="url(#clip0_1192_13076)">
<path fill-rule="evenodd" clip-rule="evenodd" d="M1.02674 8.4707C0.459688 8.4707 0 8.93039 0 9.49744V14.9734C0 15.5404 0.459688 16.0001 1.02674 16.0001H6.50267C7.06974 16.0001 7.52941 15.5404 7.52941 14.9734V9.49744C7.52941 8.93039 7.06974 8.4707 6.50267 8.4707H5.13369V11.2087C5.13369 11.3187 5.08081 11.422 4.99156 11.4863C4.9023 11.5506 4.78758 11.5681 4.68323 11.5334L3.76471 11.2272L2.8462 11.5334C2.74183 11.5681 2.6271 11.5506 2.53785 11.4863C2.44861 11.422 2.39572 11.3187 2.39572 11.2087V8.4707H1.02674ZM3.08021 8.4707H4.4492V10.7338L3.87292 10.5417C3.8027 10.5183 3.72672 10.5183 3.65649 10.5417L3.08021 10.7338V8.4707ZM1.71123 13.6044V14.2889H3.08021V13.6044H1.71123Z" fill="#212121"/>
<path fill-rule="evenodd" clip-rule="evenodd" d="M9.49744 8.4707C8.93039 8.4707 8.4707 8.93039 8.4707 9.49744V14.9734C8.4707 15.5404 8.93039 16.0001 9.49744 16.0001H14.9734C15.5404 16.0001 16.0001 15.5404 16.0001 14.9734V9.49744C16.0001 8.93039 15.5404 8.4707 14.9734 8.4707H13.6044V11.2087C13.6044 11.3187 13.5515 11.422 13.4623 11.4863C13.373 11.5506 13.2583 11.5681 13.1539 11.5334L12.2354 11.2272L11.3169 11.5334C11.2125 11.5681 11.0978 11.5506 11.0086 11.4863C10.9193 11.422 10.8664 11.3187 10.8664 11.2087V8.4707H9.49744ZM11.5509 8.4707H12.9199V10.7338L12.3436 10.5417C12.2734 10.5183 12.1974 10.5183 12.1272 10.5417L11.5509 10.7338V8.4707ZM10.1819 13.6044V14.2889H11.5509V13.6044H10.1819Z" fill="#212121"/>
<path fill-rule="evenodd" clip-rule="evenodd" d="M5.73279 0C5.16574 0 4.70605 0.459688 4.70605 1.02674V6.50267C4.70605 7.06974 5.16574 7.52941 5.73279 7.52941H11.2087C11.7758 7.52941 12.2355 7.06974 12.2355 6.50267V1.02674C12.2355 0.459688 11.7758 0 11.2087 0H9.83974V2.73797C9.83974 2.84798 9.78687 2.95129 9.69761 3.01561C9.60835 3.07994 9.49363 3.09743 9.38928 3.06265L8.47076 2.75648L7.55225 3.06265C7.44788 3.09743 7.33316 3.07994 7.24391 3.01561C7.15466 2.95129 7.10178 2.84798 7.10178 2.73797V0H5.73279ZM7.78627 0H9.15525V2.26313L8.57898 2.07104C8.50875 2.04762 8.43277 2.04762 8.36254 2.07104L7.78627 2.26313V0ZM6.41728 5.13369V5.81818H7.78627V5.13369H6.41728Z" fill="#212121"/>
</g>
<defs>
<clipPath id="clip0_1192_13076">
<rect width="16" height="16" fill="white"/>
</clipPath>
</defs>
</svg>
