<svg width="16" height="16" viewBox="0 0 16 16" fill="none" xmlns="http://www.w3.org/2000/svg">
<path d="M16 3.73333C16 5.7952 14.3211 7.46667 12.25 7.46667C10.1789 7.46667 8.5 5.7952 8.5 3.73333C8.5 1.67147 10.1789 0 12.25 0C14.3211 0 16 1.67147 16 3.73333Z" fill="#E54141"/>
<path d="M13.8464 8.26396C13.3468 8.43845 12.8095 8.53333 12.25 8.53333C9.5872 8.53333 7.42857 6.3843 7.42857 3.73333C7.42857 2.80988 7.69051 1.94732 8.14446 1.21531L7.99107 1.16118C7.80357 1.09817 7.61607 1.06667 7.42857 1.06667C7.24107 1.06667 7.05357 1.09817 6.86607 1.16118L2.04464 2.86245C1.73661 2.97586 1.48549 3.15859 1.29129 3.41063C1.0971 3.66267 1 3.94622 1 4.26127V7.83392C1 9.5982 1.53571 11.2459 2.60714 12.777C3.67857 14.3082 5.1183 15.3573 6.92634 15.9244C7.0067 15.9496 7.08705 15.9685 7.16741 15.9811C7.24777 15.9937 7.33482 16 7.42857 16C7.52232 16 7.60938 15.9937 7.68973 15.9811C7.77009 15.9685 7.85045 15.9496 7.9308 15.9244C9.73884 15.3573 11.1786 14.3082 12.25 12.777C13.2339 11.371 13.766 9.86663 13.8464 8.26396Z" fill="#212121"/>
<path d="M12.7688 1.86364V5.5H12V2.59339H11.9787L11.146 3.11541V2.43359L12.0462 1.86364H12.7688Z" fill="#FEFEFE"/>
</svg>
