<svg width="16" height="16" viewBox="0 0 16 16" fill="none" xmlns="http://www.w3.org/2000/svg">
<g clip-path="url(#clip0_1834_32799)">
<path d="M15.5 3.5C15.5 5.433 13.933 7 12 7C10.067 7 8.5 5.433 8.5 3.5C8.5 1.567 10.067 0 12 0C13.933 0 15.5 1.567 15.5 3.5Z" fill="#339900"/>
<path d="M8.05371 1.33521C7.70064 1.97746 7.5 2.71557 7.5 3.50024C7.50013 5.98541 9.5148 8.00024 12 8.00024C12.8829 8.00024 13.7055 7.74424 14.4004 7.30493V7.75024C14.4004 9.42451 13.8829 10.9886 12.8496 12.4417C11.8164 13.8944 10.428 14.8898 8.68457 15.428C8.60721 15.4519 8.52951 15.4697 8.45215 15.4817C8.37473 15.4936 8.2905 15.5002 8.2002 15.5002C8.10984 15.5002 8.0257 15.4936 7.94824 15.4817C7.87081 15.4697 7.79325 15.4519 7.71582 15.428C5.97212 14.8898 4.58313 13.8946 3.5498 12.4417C2.51647 10.9886 2 9.42451 2 7.75024V4.35962C2.0001 4.06083 2.09406 3.79203 2.28125 3.55298C2.46853 3.31386 2.71078 3.14008 3.00781 3.03247L7.65723 1.41821C7.78932 1.37453 7.92161 1.34698 8.05371 1.33521Z" fill="#212121"/>
<path d="M12.5 1.77922V5H11.819V2.42558H11.8002L11.0626 2.88794V2.28404L11.8599 1.77922H12.5Z" fill="#FEFEFE"/>
</g>
<defs>
<clipPath id="clip0_1834_32799">
<rect width="16" height="16" fill="white"/>
</clipPath>
</defs>
</svg>
