<svg width="16" height="16" viewBox="0 0 16 16" fill="none" xmlns="http://www.w3.org/2000/svg">
<g clip-path="url(#clip0_1709_32968)">
<path d="M5.9 10.8H7.3V5.2H5.9V10.8ZM8.7 10.8H10.1V5.2H8.7V10.8ZM8 15C7.03167 15 6.12167 14.8162 5.27 14.4488C4.41833 14.0813 3.6775 13.5825 3.0475 12.9525C2.4175 12.3225 1.91875 11.5817 1.55125 10.73C1.18375 9.87833 1 8.96833 1 8C1 7.03167 1.18375 6.12167 1.55125 5.27C1.91875 4.41833 2.4175 3.6775 3.0475 3.0475C3.6775 2.4175 4.41833 1.91875 5.27 1.55125C6.12167 1.18375 7.03167 1 8 1C8.96833 1 9.87833 1.18375 10.73 1.55125C11.5817 1.91875 12.3225 2.4175 12.9525 3.0475C13.5825 3.6775 14.0813 4.41833 14.4488 5.27C14.8162 6.12167 15 7.03167 15 8C15 8.96833 14.8162 9.87833 14.4488 10.73C14.0813 11.5817 13.5825 12.3225 12.9525 12.9525C12.3225 13.5825 11.5817 14.0813 10.73 14.4488C9.87833 14.8162 8.96833 15 8 15Z" fill="#212121"/>
</g>
<defs>
<clipPath id="clip0_1709_32968">
<rect width="16" height="16" fill="white"/>
</clipPath>
</defs>
</svg>
