<svg width="16" height="16" viewBox="0 0 16 16" fill="none" xmlns="http://www.w3.org/2000/svg">
<g clip-path="url(#clip0_97_1814)">
<path d="M9.6665 6.66659C9.11317 6.66659 8.6665 6.21992 8.6665 5.66659V2.33325C8.6665 1.77992 9.11317 1.33325 9.6665 1.33325C10.2198 1.33325 10.6665 1.77992 10.6665 2.33325V5.66659C10.6665 6.21992 10.2198 6.66659 9.6665 6.66659Z" stroke="#212121" stroke-width="1.33333" stroke-linecap="round" stroke-linejoin="round"/>
<path d="M13.6665 6.66675H12.6665V5.66675C12.6665 5.11341 13.1132 4.66675 13.6665 4.66675C14.2198 4.66675 14.6665 5.11341 14.6665 5.66675C14.6665 6.22008 14.2198 6.66675 13.6665 6.66675Z" stroke="#212121" stroke-width="1.33333" stroke-linecap="round" stroke-linejoin="round"/>
<path d="M6.3335 9.33325C6.88683 9.33325 7.3335 9.77992 7.3335 10.3333V13.6666C7.3335 14.2199 6.88683 14.6666 6.3335 14.6666C5.78016 14.6666 5.3335 14.2199 5.3335 13.6666V10.3333C5.3335 9.77992 5.78016 9.33325 6.3335 9.33325Z" stroke="#212121" stroke-width="1.33333" stroke-linecap="round" stroke-linejoin="round"/>
<path d="M2.3335 9.33325H3.3335V10.3333C3.3335 10.8866 2.88683 11.3333 2.3335 11.3333C1.78016 11.3333 1.3335 10.8866 1.3335 10.3333C1.3335 9.77992 1.78016 9.33325 2.3335 9.33325Z" stroke="#212121" stroke-width="1.33333" stroke-linecap="round" stroke-linejoin="round"/>
<path d="M9.3335 9.66675C9.3335 9.11341 9.78016 8.66675 10.3335 8.66675H13.6668C14.2202 8.66675 14.6668 9.11341 14.6668 9.66675C14.6668 10.2201 14.2202 10.6667 13.6668 10.6667H10.3335C9.78016 10.6667 9.3335 10.2201 9.3335 9.66675Z" stroke="#212121" stroke-width="1.33333" stroke-linecap="round" stroke-linejoin="round"/>
<path d="M10.3335 12.6667H9.3335V13.6667C9.3335 14.2201 9.78016 14.6667 10.3335 14.6667C10.8868 14.6667 11.3335 14.2201 11.3335 13.6667C11.3335 13.1134 10.8868 12.6667 10.3335 12.6667Z" stroke="#212121" stroke-width="1.33333" stroke-linecap="round" stroke-linejoin="round"/>
<path d="M6.66683 6.33325C6.66683 5.77992 6.22016 5.33325 5.66683 5.33325H2.3335C1.78016 5.33325 1.3335 5.77992 1.3335 6.33325C1.3335 6.88659 1.78016 7.33325 2.3335 7.33325H5.66683C6.22016 7.33325 6.66683 6.88659 6.66683 6.33325Z" stroke="#212121" stroke-width="1.33333" stroke-linecap="round" stroke-linejoin="round"/>
<path d="M5.6665 3.33325H6.6665V2.33325C6.6665 1.77992 6.21984 1.33325 5.6665 1.33325C5.11317 1.33325 4.6665 1.77992 4.6665 2.33325C4.6665 2.88659 5.11317 3.33325 5.6665 3.33325Z" stroke="#212121" stroke-width="1.33333" stroke-linecap="round" stroke-linejoin="round"/>
</g>
<defs>
<clipPath id="clip0_97_1814">
<rect width="16" height="16" fill="white"/>
</clipPath>
</defs>
</svg>
