<svg width="16" height="16" viewBox="0 0 16 16" fill="none" xmlns="http://www.w3.org/2000/svg">
<path d="M5.6 7.81579C5.42973 7.81579 5.2872 7.76286 5.1724 7.657C5.05747 7.55126 5 7.41998 5 7.26316C5 7.10633 5.05747 6.97505 5.1724 6.86932C5.2872 6.76346 5.42973 6.71053 5.6 6.71053H10.4C10.5703 6.71053 10.7128 6.76346 10.8276 6.86932C10.9425 6.97505 11 7.10633 11 7.26316C11 7.41998 10.9425 7.55126 10.8276 7.657C10.7128 7.76286 10.5703 7.81579 10.4 7.81579H5.6ZM5.6 4.86842C5.42973 4.86842 5.2872 4.81549 5.1724 4.70963C5.05747 4.60389 5 4.47261 5 4.31579C5 4.15896 5.05747 4.02768 5.1724 3.92195C5.2872 3.81609 5.42973 3.76316 5.6 3.76316H10.4C10.5703 3.76316 10.7128 3.81609 10.8276 3.92195C10.9425 4.02768 11 4.15896 11 4.31579C11 4.47261 10.9425 4.60389 10.8276 4.70963C10.7128 4.81549 10.5703 4.86842 10.4 4.86842H5.6ZM3.2 9.65789H9.2C9.55587 9.65789 9.88507 9.72875 10.1876 9.87047C10.4903 10.0122 10.7472 10.2124 10.9584 10.4712L12.8 12.6819V2.33203C12.8 2.26583 12.7769 2.21149 12.7308 2.169C12.6847 2.12651 12.6257 2.10526 12.5538 2.10526H3.4462C3.37433 2.10526 3.31533 2.12651 3.2692 2.169C3.22307 2.21149 3.2 2.26583 3.2 2.33203V9.65789ZM3.4462 13.8947H12.2938L10.0138 11.1472C9.91327 11.0253 9.79353 10.9308 9.6546 10.8637C9.51567 10.7967 9.36413 10.7632 9.2 10.7632H3.2V13.668C3.2 13.7342 3.22307 13.7885 3.2692 13.831C3.31533 13.8735 3.37433 13.8947 3.4462 13.8947ZM12.5538 15H3.4462C3.04207 15 2.7 14.8711 2.42 14.6132C2.14 14.3553 2 14.0402 2 13.668V2.33203C2 1.9598 2.14 1.64474 2.42 1.38684C2.7 1.12895 3.04207 1 3.4462 1H12.5538C12.9579 1 13.3 1.12895 13.58 1.38684C13.86 1.64474 14 1.9598 14 2.33203V13.668C14 14.0402 13.86 14.3553 13.58 14.6132C13.3 14.8711 12.9579 15 12.5538 15Z" fill="#212121"/>
</svg>
