<svg width="16" height="16" viewBox="0 0 16 16" fill="none" xmlns="http://www.w3.org/2000/svg">
<g clip-path="url(#clip0_97_2458)">
<path d="M11.9999 6.66675H11.1599C10.9105 5.70075 10.3951 4.82407 9.67234 4.13634C8.94957 3.44862 8.04839 2.97741 7.07119 2.77627C6.094 2.57512 5.07997 2.65211 4.14435 2.99848C3.20872 3.34484 2.389 3.9467 1.77835 4.73567C1.16769 5.52463 0.790571 6.46907 0.689849 7.46165C0.589127 8.45424 0.768838 9.45517 1.20856 10.3507C1.64828 11.2463 2.33039 12.0005 3.17737 12.5278C4.02434 13.055 5.00223 13.3342 5.99991 13.3334H11.9999C12.884 13.3334 13.7318 12.9822 14.3569 12.3571C14.9821 11.732 15.3332 10.8841 15.3332 10.0001C15.3332 9.11603 14.9821 8.26818 14.3569 7.64306C13.7318 7.01794 12.884 6.66675 11.9999 6.66675Z" stroke="#212121" stroke-width="1.33333" stroke-linecap="round" stroke-linejoin="round"/>
</g>
<defs>
<clipPath id="clip0_97_2458">
<rect width="16" height="16" fill="white"/>
</clipPath>
</defs>
</svg>
