<svg width="16" height="16" viewBox="0 0 16 16" fill="none" xmlns="http://www.w3.org/2000/svg">
<g clip-path="url(#clip0_97_2352)">
<path d="M11.9998 2.66675H3.99984C3.26346 2.66675 2.6665 3.2637 2.6665 4.00008V12.0001C2.6665 12.7365 3.26346 13.3334 3.99984 13.3334H11.9998C12.7362 13.3334 13.3332 12.7365 13.3332 12.0001V4.00008C13.3332 3.2637 12.7362 2.66675 11.9998 2.66675Z" stroke="#212121" stroke-width="1.33333" stroke-linecap="round" stroke-linejoin="round"/>
<path d="M10 6H6V10H10V6Z" stroke="#212121" stroke-width="1.33333" stroke-linecap="round" stroke-linejoin="round"/>
<path d="M6 0.666748V2.66675" stroke="#212121" stroke-width="1.33333" stroke-linecap="round" stroke-linejoin="round"/>
<path d="M10 0.666748V2.66675" stroke="#212121" stroke-width="1.33333" stroke-linecap="round" stroke-linejoin="round"/>
<path d="M6 13.3333V15.3333" stroke="#212121" stroke-width="1.33333" stroke-linecap="round" stroke-linejoin="round"/>
<path d="M10 13.3333V15.3333" stroke="#212121" stroke-width="1.33333" stroke-linecap="round" stroke-linejoin="round"/>
<path d="M13.3335 6H15.3335" stroke="#212121" stroke-width="1.33333" stroke-linecap="round" stroke-linejoin="round"/>
<path d="M13.3335 9.33325H15.3335" stroke="#212121" stroke-width="1.33333" stroke-linecap="round" stroke-linejoin="round"/>
<path d="M0.666504 6H2.6665" stroke="#212121" stroke-width="1.33333" stroke-linecap="round" stroke-linejoin="round"/>
<path d="M0.666504 9.33325H2.6665" stroke="#212121" stroke-width="1.33333" stroke-linecap="round" stroke-linejoin="round"/>
</g>
<defs>
<clipPath id="clip0_97_2352">
<rect width="16" height="16" fill="white"/>
</clipPath>
</defs>
</svg>
