<svg width="16" height="16" viewBox="0 0 16 16" fill="none" xmlns="http://www.w3.org/2000/svg">
<path fill-rule="evenodd" clip-rule="evenodd" d="M10.5752 1C10.7077 1 10.835 1.05285 10.9287 1.14648L13.1289 3.3457C13.2226 3.43942 13.2753 3.56672 13.2754 3.69922V8.11816C12.9639 7.93519 12.629 7.7879 12.2754 7.68359V4.39355H10.9102C10.3417 4.39343 9.88086 3.93278 9.88086 3.36426V2H3.0293C3.01316 2.00013 3.00013 2.01322 3 2.0293V13.9707L3.00879 13.9912C3.01408 13.9965 3.02123 13.9999 3.0293 14H6.96875C7.1497 14.364 7.37807 14.7002 7.64648 15H3.0293C2.49676 14.9999 2.05779 14.5953 2.00488 14.0762L2 13.9707V2.0293C2.00013 1.46061 2.4612 1.00013 3.0293 1H10.5752ZM10.8809 3.36426C10.8809 3.3805 10.8939 3.39343 10.9102 3.39355H11.7627L10.8809 2.51172V3.36426Z" fill="#212121"/>
<path d="M6.51855 11.6084C6.50742 11.7375 6.5 11.868 6.5 12C6.5 12.2064 6.51509 12.4094 6.54199 12.6084H4.28711C4.01113 12.6084 3.78737 12.3843 3.78711 12.1084C3.78711 11.8323 4.01097 11.6084 4.28711 11.6084H6.51855Z" fill="#212121"/>
<path d="M7.55273 9.1084C7.299 9.41057 7.08402 9.74629 6.91602 10.1084H4.28711C4.01113 10.1084 3.78737 9.88432 3.78711 9.6084C3.78711 9.33226 4.01097 9.1084 4.28711 9.1084H7.55273Z" fill="#212121"/>
<path d="M10.9883 6.6084C11.2644 6.6084 11.4883 6.83226 11.4883 7.1084C11.4881 7.27385 11.4062 7.41873 11.2822 7.50977C11.1889 7.50399 11.0948 7.5 11 7.5C10.6635 7.5 10.3359 7.53836 10.0205 7.6084H4.28711C4.01113 7.6084 3.78737 7.38432 3.78711 7.1084C3.78711 6.83226 4.01097 6.6084 4.28711 6.6084H10.9883Z" fill="#212121"/>
<path fill-rule="evenodd" clip-rule="evenodd" d="M11 8.5C12.933 8.5 14.5 10.067 14.5 12C14.5 13.933 12.933 15.5 11 15.5C9.067 15.5 7.5 13.933 7.5 12C7.5 10.067 9.067 8.5 11 8.5ZM11 13.1367C10.8746 13.1368 10.7725 13.2388 10.7725 13.3643V14.2725C10.7725 14.3979 10.8746 14.4999 11 14.5C11.1254 14.4999 11.2275 14.3979 11.2275 14.2725V13.3643C11.2275 13.2388 11.1254 13.1368 11 13.1367ZM10.1973 12.8027C10.1196 12.7252 9.99928 12.7153 9.91113 12.7734L9.87598 12.8027L9.23242 13.4463C9.14382 13.535 9.14375 13.6789 9.23242 13.7676C9.32113 13.8563 9.46495 13.8562 9.55371 13.7676L10.1973 13.124C10.2857 13.0353 10.2858 12.8914 10.1973 12.8027ZM12.0889 12.7734C12.0007 12.7153 11.8804 12.7252 11.8027 12.8027C11.7252 12.8804 11.7153 13.0007 11.7734 13.0889L11.8027 13.124L12.4463 13.7676L12.4814 13.7969C12.5697 13.8552 12.6899 13.8453 12.7676 13.7676C12.845 13.6901 12.8547 13.5706 12.7969 13.4824L12.7676 13.4463L12.124 12.8027L12.0889 12.7734ZM8.72754 11.7725C8.60208 11.7725 8.50009 11.8746 8.5 12C8.50004 12.1255 8.60205 12.2275 8.72754 12.2275H9.63672L9.68262 12.2227C9.78597 12.2013 9.86324 12.1097 9.86328 12C9.8632 11.8904 9.78596 11.7987 9.68262 11.7773L9.63672 11.7725H8.72754ZM12.3643 11.7725C12.2388 11.7725 12.1368 11.8746 12.1367 12C12.1368 12.1255 12.2388 12.2275 12.3643 12.2275H13.2725C13.3979 12.2275 13.5 12.1255 13.5 12C13.4999 11.8746 13.3979 11.7725 13.2725 11.7725H12.3643ZM12.7676 10.2324C12.6899 10.1549 12.5696 10.1449 12.4814 10.2031L12.4463 10.2324L11.8027 10.876C11.7142 10.9647 11.7141 11.1086 11.8027 11.1973C11.8914 11.2859 12.0353 11.2858 12.124 11.1973L12.7676 10.5537C12.8561 10.465 12.8561 10.3211 12.7676 10.2324ZM9.51855 10.2031C9.4304 10.1449 9.3101 10.1549 9.23242 10.2324C9.15487 10.3101 9.14489 10.4304 9.20312 10.5186L9.23242 10.5537L9.87598 11.1973L9.91113 11.2266C9.99935 11.2848 10.1196 11.2749 10.1973 11.1973C10.2749 11.1196 10.2847 10.9993 10.2266 10.9111L10.1973 10.876L9.55371 10.2324L9.51855 10.2031ZM11 9.5C10.8746 9.50009 10.7725 9.60208 10.7725 9.72754V10.6367C10.7726 10.7621 10.8747 10.8632 11 10.8633C11.1253 10.8632 11.2274 10.7621 11.2275 10.6367V9.72754C11.2275 9.60208 11.1254 9.50009 11 9.5Z" fill="#212121"/>
</svg>
