<svg width="16" height="16" viewBox="0 0 16 16" fill="none" xmlns="http://www.w3.org/2000/svg">
<path d="M8 8C7.0375 8 6.21354 7.65729 5.52812 6.97187C4.84271 6.28646 4.5 5.4625 4.5 4.5C4.5 3.5375 4.84271 2.71354 5.52812 2.02812C6.21354 1.34271 7.0375 1 8 1C8.9625 1 9.78646 1.34271 10.4719 2.02812C11.1573 2.71354 11.5 3.5375 11.5 4.5C11.5 5.4625 11.1573 6.28646 10.4719 6.97187C9.78646 7.65729 8.9625 8 8 8ZM1 15V12.55C1 12.0542 1.1276 11.5984 1.38281 11.1828C1.63802 10.7672 1.97708 10.45 2.4 10.2312C3.30417 9.77917 4.22292 9.4401 5.15625 9.21406C6.08958 8.98802 7.0375 8.875 8 8.875C8.9625 8.875 9.91042 8.98802 10.8438 9.21406C11.7771 9.4401 12.6958 9.77917 13.6 10.2312C14.0229 10.45 14.362 10.7672 14.6172 11.1828C14.8724 11.5984 15 12.0542 15 12.55V15H1Z" fill="#212121"/>
</svg>
