<svg width="16" height="16" viewBox="0 0 16 16" fill="none" xmlns="http://www.w3.org/2000/svg">
<g clip-path="url(#clip0_2201_8382)">
<path d="M6.77558 13.2725C7.95852 12.889 8.25603 12.138 8.32055 11.6576C8.3364 11.5368 8.31851 11.4138 8.26885 11.3025C8.21919 11.1912 8.1397 11.0957 8.03917 11.0267C7.90749 10.9393 7.81346 10.8056 7.7757 10.6522C7.69743 10.3656 7.5727 10.0937 7.40648 9.84743C6.89745 9.21115 6.30421 8.7738 5.68408 8.58564C5.69857 8.21866 5.66665 7.85131 5.58908 7.49232C5.55806 7.36127 5.49129 7.2414 5.3962 7.14604C5.30111 7.05068 5.18143 6.98357 5.05047 6.95218C4.91952 6.92079 4.78242 6.92634 4.65443 6.96823C4.52644 7.01012 4.41258 7.08669 4.32552 7.18943C3.85977 7.7579 3.53216 8.4266 3.36841 9.14303C3.19277 9.29001 2.48124 9.99975 2.43104 11.8942C1.7491 12.5213 1.26091 13.3304 1.02419 14.226C0.999898 14.3172 0.996869 14.4127 1.01533 14.5052C1.0338 14.5977 1.07326 14.6847 1.13068 14.7595C1.1881 14.8343 1.26194 14.895 1.3465 14.9368C1.43107 14.9785 1.5241 15.0003 1.61842 15.0005H7.24637C7.22139 14.8386 7.17891 14.6798 7.11969 14.5271C6.95786 14.1233 6.84242 13.7024 6.77558 13.2725ZM6.50853 10.8833C6.32154 10.8359 6.15032 10.7401 6.01205 10.6056C5.98801 10.5812 5.97256 10.5496 5.96804 10.5157C5.96351 10.4817 5.97017 10.4472 5.98699 10.4174L6.27373 9.9227C6.28974 9.89508 6.31383 9.87304 6.34276 9.85954C6.37169 9.84604 6.40406 9.84173 6.43551 9.8472C6.46696 9.85267 6.49598 9.86766 6.51865 9.89013C6.54132 9.9126 6.55656 9.94149 6.56231 9.97289L6.70211 10.7005C6.70718 10.7266 6.70558 10.7535 6.69745 10.7788C6.68932 10.8041 6.67493 10.827 6.65562 10.8452C6.6363 10.8634 6.61269 10.8765 6.58697 10.8832C6.56126 10.8898 6.53428 10.8899 6.50853 10.8833Z" fill="#212121"/>
<path d="M14.6863 6.89859L12.6289 6.63569C12.1754 6.85259 12.0356 7.28093 11.9012 7.69851C11.822 7.94443 11.6847 8.16764 11.501 8.34922C11.3172 8.53081 11.0924 8.66542 10.8455 8.74165C10.6992 8.78906 10.5483 8.82106 10.3954 8.83713C10.3587 8.84179 10.3214 8.83912 10.2857 8.82929C10.25 8.81945 10.2166 8.80264 10.1874 8.77983C10.1582 8.75702 10.1339 8.72865 10.1157 8.69637C10.0976 8.66409 10.086 8.62854 10.0817 8.59176C10.0774 8.55499 10.0804 8.51772 10.0905 8.48211C10.1007 8.4465 10.1178 8.41325 10.1409 8.38429C10.1639 8.35533 10.1925 8.33123 10.225 8.31338C10.2574 8.29553 10.2931 8.28428 10.3299 8.28028C10.6245 8.24771 11.1469 8.11598 11.342 7.59997C11.4229 7.33962 11.5229 7.08561 11.6413 6.84003C11.7118 6.71229 11.7986 6.5942 11.8994 6.4887C11.4269 5.95079 10.5862 5.64316 9.75586 5.66335C9.66537 5.66696 9.57686 5.63623 9.50808 5.57732C9.43929 5.51841 9.39533 5.43567 9.38499 5.3457C9.35789 4.8922 9.4007 4.43722 9.51192 3.99674C9.52165 3.95347 9.51868 3.90832 9.50337 3.8667C9.48807 3.82508 9.46108 3.78876 9.42564 3.7621C9.39021 3.73544 9.34783 3.71958 9.3036 3.71641C9.25937 3.71324 9.21516 3.7229 9.17629 3.74424C6.70461 5.10957 7.3156 7.74496 7.48495 8.32582C7.46703 8.52299 7.45449 8.73451 7.44911 8.96213C7.60793 9.11765 7.75697 9.28285 7.89539 9.45677L7.9187 9.48727C8.13114 9.79874 8.28874 10.1443 8.38469 10.5089C8.58365 10.6413 8.7414 10.8269 8.83996 11.0446C8.93851 11.2623 8.97391 11.5033 8.94212 11.7402C8.87399 12.2474 8.59261 13.1149 7.49392 13.6579C7.54591 13.8714 7.61422 14.0805 7.69825 14.2835C7.79004 14.5135 7.85104 14.7546 7.87965 15.0005H11.626C12.3178 14.0847 12.6862 12.6793 12.1539 11.3674C12.0312 11.0874 11.9259 10.8 11.8385 10.5071C11.756 9.92637 11.7309 9.47112 11.7309 9.47112C11.7309 9.47112 13.1038 9.27933 13.4587 9.1754C13.8136 9.07323 13.9462 8.52657 13.9462 8.52657C14.2061 8.43195 14.438 8.27337 14.6205 8.06548C14.8029 7.85759 14.9301 7.60708 14.9902 7.33708C15.0019 7.28811 15.0032 7.23723 14.9939 7.18774C14.9846 7.13826 14.965 7.09129 14.9363 7.0499C14.9076 7.00852 14.8705 6.97365 14.8274 6.94758C14.7844 6.92151 14.7363 6.90481 14.6863 6.89859ZM9.66619 7.24689V6.78625C9.66621 6.69071 9.70416 6.59908 9.77172 6.53153C9.83928 6.46397 9.93091 6.42601 10.0264 6.426C10.0738 6.42554 10.1208 6.43455 10.1646 6.45251C10.2084 6.47048 10.2482 6.49702 10.2816 6.53059C10.315 6.56416 10.3413 6.60408 10.3591 6.64798C10.3768 6.69189 10.3856 6.7389 10.3849 6.78625V7.24689C10.385 7.29415 10.3758 7.34098 10.3578 7.38468C10.3398 7.42838 10.3134 7.4681 10.28 7.50157C10.2466 7.53503 10.2069 7.56158 10.1633 7.5797C10.1196 7.59781 10.0728 7.60714 10.0256 7.60714C9.97828 7.60714 9.93148 7.59781 9.88782 7.5797C9.84417 7.56158 9.80451 7.53503 9.77113 7.50157C9.73775 7.4681 9.7113 7.42838 9.69329 7.38468C9.67529 7.34098 9.66608 7.29415 9.66619 7.24689Z" fill="#212121"/>
<path d="M1.22462 4.6887H2.7999C2.85882 4.6887 2.91534 4.71211 2.957 4.75377C2.99867 4.79544 3.02208 4.85195 3.02208 4.91088V6.48615C3.02208 6.54508 3.04549 6.60159 3.08715 6.64326C3.12882 6.68493 3.18534 6.70833 3.24426 6.70833H3.9397C4.1417 6.50512 4.40468 6.37364 4.68845 6.33397V4.91088C4.68845 4.85195 4.71186 4.79544 4.75353 4.75377C4.7952 4.71211 4.85171 4.6887 4.91064 4.6887H6.4848C6.51397 4.6887 6.54287 4.68295 6.56982 4.67179C6.59678 4.66062 6.62127 4.64425 6.64191 4.62362C6.66254 4.60299 6.6789 4.5785 6.69007 4.55154C6.70123 4.52458 6.70698 4.49569 6.70698 4.46651V3.24451C6.70698 3.18558 6.68357 3.12907 6.6419 3.0874C6.60024 3.04573 6.54372 3.02232 6.4848 3.02232H4.91064C4.85171 3.02232 4.7952 2.99891 4.75353 2.95725C4.71186 2.91558 4.68845 2.85907 4.68845 2.80014V1.22487C4.68845 1.16594 4.66504 1.10943 4.62338 1.06776C4.58171 1.02609 4.5252 1.00269 4.46627 1.00269H3.24426C3.18534 1.00269 3.12882 1.02609 3.08715 1.06776C3.04549 1.10943 3.02208 1.16594 3.02208 1.22487V2.80014C3.02208 2.82932 3.01633 2.85821 3.00517 2.88517C2.994 2.91212 2.97764 2.93662 2.957 2.95725C2.93637 2.97788 2.91188 2.99425 2.88492 3.00541C2.85797 3.01658 2.82907 3.02232 2.7999 3.02232H1.22462C1.1657 3.02232 1.10918 3.04573 1.06752 3.0874C1.02585 3.12907 1.00244 3.18558 1.00244 3.24451V4.46651C1.00244 4.52544 1.02585 4.58195 1.06752 4.62362C1.10918 4.66529 1.1657 4.6887 1.22462 4.6887Z" fill="#212121"/>
</g>
<defs>
<clipPath id="clip0_2201_8382">
<rect width="16" height="16" fill="white"/>
</clipPath>
</defs>
</svg>
