<svg width="16" height="16" viewBox="0 0 16 16" fill="none" xmlns="http://www.w3.org/2000/svg">
<path d="M6.83333 8.62443V10.1135C6.83333 10.2976 6.90131 10.4519 7.03727 10.5763C7.17307 10.701 7.34138 10.7633 7.5422 10.7633H8.4578C8.66236 10.7633 8.8316 10.701 8.96553 10.5763C9.09962 10.4519 9.16667 10.2976 9.16667 10.1135V8.62443H10.7911C10.9957 8.62443 11.1649 8.56212 11.2989 8.4375C11.433 8.31302 11.5 8.15874 11.5 7.97465V7.13538C11.5 6.94787 11.433 6.79273 11.2989 6.66996C11.1649 6.54705 10.9957 6.4856 10.7911 6.4856H9.16667V4.99654C9.16667 4.80903 9.09962 4.6539 8.96553 4.53113C8.8316 4.40821 8.66236 4.34676 8.4578 4.34676H7.5422C7.34138 4.34676 7.17307 4.40821 7.03727 4.53113C6.90131 4.6539 6.83333 4.80903 6.83333 4.99654V6.4856H5.20887C5.00804 6.4856 4.83973 6.54705 4.70393 6.66996C4.56798 6.79273 4.5 6.94787 4.5 7.13538V7.97465C4.5 8.15874 4.56798 8.31302 4.70393 8.4375C4.83973 8.56212 5.00804 8.62443 5.20887 8.62443H6.83333ZM8 16C7.90309 16 7.80797 15.9929 7.71463 15.9786C7.6213 15.9644 7.53092 15.943 7.4435 15.9144C5.47526 15.2728 3.90928 14.1351 2.74557 12.5015C1.58186 10.8677 1 9.10482 1 7.2128V3.35968C1 3.03472 1.10197 2.7422 1.3059 2.48212C1.50968 2.22218 1.77327 2.03375 2.09667 1.91683L7.40943 0.0988142C7.60932 0.032938 7.80618 0 8 0C8.19382 0 8.39068 0.032938 8.59057 0.0988142L13.9033 1.91683C14.2267 2.03375 14.4903 2.22218 14.6941 2.48212C14.898 2.7422 15 3.03472 15 3.35968V7.2128C15 9.10482 14.4181 10.8677 13.2544 12.5015C12.0907 14.1351 10.5247 15.2728 8.5565 15.9144C8.46908 15.943 8.3787 15.9644 8.28537 15.9786C8.19203 15.9929 8.09691 16 8 16ZM8 14.7415C9.61778 14.271 10.9556 13.3299 12.0133 11.9182C13.0711 10.5066 13.6 8.93813 13.6 7.2128V3.35134C13.6 3.29659 13.5835 3.24725 13.5505 3.20334C13.5177 3.15942 13.4714 3.12648 13.4115 3.10452L8.0987 1.28651C8.06883 1.27553 8.03593 1.27004 8 1.27004C7.96407 1.27004 7.93117 1.27553 7.9013 1.28651L2.58853 3.10452C2.52864 3.12648 2.48229 3.15942 2.44947 3.20334C2.41649 3.24725 2.4 3.29659 2.4 3.35134V7.2128C2.4 8.93813 2.92889 10.5066 3.98667 11.9182C5.04444 13.3299 6.38222 14.271 8 14.7415Z" fill="#212121"/>
</svg>
