<svg width="16" height="16" viewBox="0 0 16 16" fill="none" xmlns="http://www.w3.org/2000/svg">
<path d="M6.81227 5.55639L5.78358 4.33093C5.65927 4.1825 5.57983 4.00171 5.55458 3.80976C5.52932 3.6178 5.55929 3.42262 5.64098 3.24709C5.72266 3.07155 5.85268 2.92293 6.0158 2.81864C6.17892 2.71434 6.36838 2.65869 6.56199 2.6582C6.5921 2.6582 6.62222 2.65934 6.6529 2.66218C6.78604 2.67345 6.91562 2.71105 7.03413 2.77279C7.15263 2.83453 7.2577 2.91918 7.34324 3.02184L8.37207 4.24752L6.81227 5.55639Z" fill="#212121"/>
<path d="M12.382 3.20003C12.2277 3.19988 12.0798 3.13853 11.9707 3.02945C11.8617 2.92037 11.8003 2.77248 11.8002 2.61822V0.10376C11.9565 0.16906 12.0987 0.264081 12.2189 0.383556L14.6166 2.78128C14.7361 2.90147 14.8311 3.04367 14.8965 3.20003H12.382Z" fill="#212121"/>
<path d="M9.09289 7.81047C8.95974 7.7992 8.83016 7.7616 8.71166 7.69986C8.59315 7.63812 8.48809 7.55347 8.40255 7.45081L7.37371 6.22514L8.93351 4.91626L9.96221 6.14172C10.0481 6.24417 10.113 6.36255 10.1532 6.49009C10.1934 6.61763 10.208 6.75184 10.1963 6.88504C10.1846 7.01824 10.1467 7.14783 10.0849 7.2664C10.0231 7.38497 9.93855 7.49021 9.83607 7.57609C9.73421 7.66295 9.61593 7.72846 9.48827 7.76872C9.3606 7.80898 9.22615 7.82318 9.09289 7.81047Z" fill="#212121"/>
<path d="M2.63636 0H10.9273V2.61818C10.9277 3.00383 11.0811 3.37356 11.3537 3.64625C11.6264 3.91895 11.9962 4.07232 12.3818 4.07273H15V14.6909C14.9996 15.038 14.8615 15.3707 14.6161 15.6161C14.3707 15.8615 14.038 15.9996 13.6909 16H2.63636C2.2893 15.9996 1.95658 15.8615 1.71117 15.6161C1.46576 15.3707 1.3277 15.038 1.32727 14.6909V1.30909C1.3277 0.96203 1.46576 0.629306 1.71117 0.383897C1.95658 0.138487 2.2893 0.00042802 2.63636 0ZM10.6301 5.58097L8.01193 2.46108C7.6896 2.07697 7.22789 1.83663 6.72836 1.79294C6.22883 1.74926 5.73241 1.90579 5.3483 2.22812C4.96418 2.55045 4.72385 3.01216 4.68016 3.51169C4.63647 4.01122 4.79301 4.50765 5.11534 4.89176L7.73352 8.01165C7.89253 8.20239 8.08779 8.3597 8.30802 8.47445C8.52824 8.58919 8.76904 8.65911 9.01648 8.68015C9.07273 8.68497 9.12898 8.68753 9.18466 8.68753C9.54436 8.68694 9.89642 8.58377 10.1996 8.39012C10.5027 8.19648 10.7443 7.9204 10.896 7.59428C11.0478 7.26815 11.1034 6.90551 11.0563 6.54891C11.0092 6.19231 10.8613 5.85651 10.6301 5.58097ZM4.67273 14.2545H11.6545C11.7703 14.2545 11.8813 14.2086 11.9631 14.1267C12.0449 14.0449 12.0909 13.9339 12.0909 13.8182C12.0909 13.7025 12.0449 13.5915 11.9631 13.5096C11.8813 13.4278 11.7703 13.3818 11.6545 13.3818H4.67273C4.557 13.3818 4.446 13.4278 4.36417 13.5096C4.28234 13.5915 4.23636 13.7025 4.23636 13.8182C4.23636 13.9339 4.28234 14.0449 4.36417 14.1267C4.446 14.2086 4.557 14.2545 4.67273 14.2545ZM4.67273 12.5091H11.6545C11.7703 12.5091 11.8813 12.4631 11.9631 12.3813C12.0449 12.2994 12.0909 12.1885 12.0909 12.0727C12.0909 11.957 12.0449 11.846 11.9631 11.7642C11.8813 11.6823 11.7703 11.6364 11.6545 11.6364H4.67273C4.557 11.6364 4.446 11.6823 4.36417 11.7642C4.28234 11.846 4.23636 11.957 4.23636 12.0727C4.23636 12.1885 4.28234 12.2994 4.36417 12.3813C4.446 12.4631 4.557 12.5091 4.67273 12.5091ZM4.67273 10.7636H11.6545C11.7703 10.7636 11.8813 10.7177 11.9631 10.6358C12.0449 10.554 12.0909 10.443 12.0909 10.3273C12.0909 10.2115 12.0449 10.1006 11.9631 10.0187C11.8813 9.93688 11.7703 9.89091 11.6545 9.89091H4.67273C4.557 9.89091 4.446 9.93688 4.36417 10.0187C4.28234 10.1006 4.23636 10.2115 4.23636 10.3273C4.23636 10.443 4.28234 10.554 4.36417 10.6358C4.446 10.7177 4.557 10.7636 4.67273 10.7636Z" fill="#212121"/>
</svg>
