<svg width="16" height="16" viewBox="0 0 16 16" fill="none" xmlns="http://www.w3.org/2000/svg">
<g clip-path="url(#clip0_97_2411)">
<path d="M8.00016 14.6666C11.6821 14.6666 14.6668 11.6818 14.6668 7.99992C14.6668 4.31802 11.6821 1.33325 8.00016 1.33325C4.31826 1.33325 1.3335 4.31802 1.3335 7.99992C1.3335 11.6818 4.31826 14.6666 8.00016 14.6666Z" stroke="#212121" stroke-width="1.33333" stroke-linecap="round" stroke-linejoin="round"/>
<path d="M5.70667 1.83325C8.62 5.85325 9.72 8.11325 11.06 13.6466M12.7533 3.39325C10.2733 6.29325 6.79333 7.16659 1.5 7.29325M14.5 8.55992C12.1667 7.93992 10.08 8.01325 8.54 8.55992C6.82 9.17325 5.2 10.4666 3.58 12.7733" stroke="#212121" stroke-width="1.33333" stroke-linecap="round" stroke-linejoin="round"/>
</g>
<defs>
<clipPath id="clip0_97_2411">
<rect width="16" height="16" fill="white"/>
</clipPath>
</defs>
</svg>
