<svg width="16" height="16" viewBox="0 0 16 16" fill="none" xmlns="http://www.w3.org/2000/svg">
<path d="M14.4956 3.5C14.4956 5.433 12.9286 7 10.9956 7C9.06261 7 7.49561 5.433 7.49561 3.5C7.49561 1.567 9.06261 0 10.9956 0C12.9286 0 14.4956 1.567 14.4956 3.5Z" fill="#E54141"/>
<path d="M11.2857 1.77024V5.40661H10.5169V2.5H10.4956L9.66286 3.02202V2.3402L10.5631 1.77024H11.2857Z" fill="#FEFEFE"/>
<path d="M9 14C8.88279 14.2021 8.71456 14.3698 8.51215 14.4864C8.30974 14.6029 8.08025 14.6643 7.84667 14.6643C7.61308 14.6643 7.38359 14.6029 7.18118 14.4864C6.97877 14.3698 6.81054 14.2021 6.69333 14" stroke="#212121" stroke-width="1.33333" stroke-linecap="round" stroke-linejoin="round"/>
<path d="M7.5 0.665039C7.1495 1.09662 6.87726 1.59442 6.70508 2.13672C6.18259 2.29383 5.70137 2.57793 5.30859 2.9707C4.68357 3.59573 4.33311 4.44422 4.33301 5.32812C4.33301 7.75957 3.81039 9.3718 3.25098 10.3975C3.20007 10.4908 3.14661 10.5778 3.0957 10.6611H12.2363C12.1855 10.5779 12.1319 10.4907 12.0811 10.3975C11.7584 9.80579 11.449 9.01877 11.2441 7.99219C11.701 7.96726 12.1392 7.87387 12.5498 7.72266C12.7297 8.62985 12.9962 9.29149 13.251 9.75879C13.472 10.1639 13.6883 10.4299 13.8379 10.5879C13.9126 10.6667 13.9713 10.7204 14.0068 10.75C14.024 10.7643 14.0366 10.7734 14.042 10.7773L14.0439 10.7793C14.2825 10.9435 14.3877 11.2436 14.3037 11.5215C14.2185 11.8025 13.9597 11.9951 13.666 11.9951H1.66602C1.37249 11.9949 1.11349 11.8024 1.02832 11.5215C0.944433 11.2437 1.04968 10.9435 1.28809 10.7793C1.2885 10.779 1.28903 10.7781 1.29004 10.7773C1.29515 10.7735 1.30757 10.7647 1.3252 10.75C1.36067 10.7204 1.41916 10.667 1.49414 10.5879C1.64376 10.43 1.85989 10.1643 2.08105 9.75879C2.49402 9.00154 2.94002 7.73414 2.99414 5.7373L2.99902 5.32812C2.99913 4.09059 3.49114 2.90339 4.36621 2.02832C5.20208 1.19246 6.32277 0.707038 7.5 0.665039Z" fill="#212121"/>
</svg>
