<svg width="16" height="16" viewBox="0 0 16 16" fill="none" xmlns="http://www.w3.org/2000/svg">
<g clip-path="url(#clip0_1194_15426)">
<g clip-path="url(#clip1_1194_15426)">
<path d="M7.66667 8.16268C9.69171 8.16268 11.3333 6.52106 11.3333 4.49601C11.3333 2.47097 9.69171 0.829346 7.66667 0.829346C5.64162 0.829346 4 2.47097 4 4.49601C4 6.52106 5.64162 8.16268 7.66667 8.16268Z" fill="#212121"/>
<path fill-rule="evenodd" clip-rule="evenodd" d="M11.6667 9.29199C10.356 9.29199 9.29199 10.356 9.29199 11.6667C9.29199 12.9773 10.356 14.042 11.6667 14.042C12.9773 14.042 14.042 12.9773 14.042 11.6667C14.042 10.356 12.9773 9.29199 11.6667 9.29199ZM11.6667 10.292C12.4253 10.292 13.042 10.908 13.042 11.6667C13.042 12.4253 12.4253 13.042 11.6667 13.042C10.908 13.042 10.2913 12.4253 10.2913 11.6667C10.2913 10.908 10.908 10.292 11.6667 10.292Z" fill="#212121"/>
<path fill-rule="evenodd" clip-rule="evenodd" d="M12.167 9.79142V8.66675C12.167 8.39075 11.943 8.16675 11.667 8.16675C11.391 8.16675 11.167 8.39075 11.167 8.66675V9.79208C11.167 10.0674 11.391 10.2921 11.667 10.2921C11.943 10.2914 12.167 10.0674 12.167 9.79142Z" fill="#212121"/>
<path fill-rule="evenodd" clip-rule="evenodd" d="M13.346 10.6946L14.1413 9.89858C14.3367 9.70391 14.3367 9.38658 14.1413 9.19191C13.9467 8.99658 13.6293 8.99658 13.4347 9.19191L12.6387 9.98724C12.444 10.1826 12.444 10.4992 12.6387 10.6946C12.834 10.8892 13.1507 10.8892 13.346 10.6946Z" fill="#212121"/>
<path fill-rule="evenodd" clip-rule="evenodd" d="M13.5413 12.1667H14.6667C14.9427 12.1667 15.1667 11.9427 15.1667 11.6667C15.1667 11.3907 14.9427 11.1667 14.6667 11.1667H13.5413C13.266 11.1667 13.042 11.3907 13.042 11.6667C13.0413 11.9427 13.266 12.1667 13.5413 12.1667Z" fill="#212121"/>
<path fill-rule="evenodd" clip-rule="evenodd" d="M12.6387 13.346L13.4347 14.1413C13.6293 14.3367 13.9467 14.3367 14.1413 14.1413C14.3367 13.9467 14.3367 13.6293 14.1413 13.4347L13.346 12.6387C13.1507 12.444 12.834 12.444 12.6387 12.6387C12.444 12.834 12.444 13.1507 12.6387 13.346Z" fill="#212121"/>
<path fill-rule="evenodd" clip-rule="evenodd" d="M11.167 13.5413V14.6666C11.167 14.9426 11.391 15.1666 11.667 15.1666C11.943 15.1666 12.167 14.9426 12.167 14.6666V13.5413C12.167 13.2659 11.943 13.0419 11.667 13.0413C11.391 13.0413 11.167 13.2659 11.167 13.5413Z" fill="#212121"/>
<path fill-rule="evenodd" clip-rule="evenodd" d="M9.98773 12.6387L9.1924 13.4347C8.99707 13.6293 8.99707 13.9467 9.1924 14.1413C9.38707 14.3367 9.7044 14.3367 9.89906 14.1413L10.6951 13.346C10.8897 13.1507 10.8897 12.834 10.6951 12.6387C10.4997 12.444 10.1831 12.444 9.98773 12.6387Z" fill="#212121"/>
<path fill-rule="evenodd" clip-rule="evenodd" d="M9.79166 11.1667H8.66699C8.39099 11.1667 8.16699 11.3907 8.16699 11.6667C8.16699 11.9427 8.39099 12.1667 8.66699 12.1667H9.79166C10.0677 12.1667 10.2923 11.9427 10.2917 11.6667C10.2917 11.3907 10.0677 11.1667 9.79166 11.1667Z" fill="#212121"/>
<path fill-rule="evenodd" clip-rule="evenodd" d="M10.6951 9.98724L9.89906 9.19191C9.7044 8.99658 9.38707 8.99658 9.1924 9.19191C8.99707 9.38658 8.99707 9.70391 9.1924 9.89858L9.98773 10.6946C10.1831 10.8892 10.4997 10.8892 10.6951 10.6946C10.8897 10.4992 10.8897 10.1826 10.6951 9.98724Z" fill="#212121"/>
<path fill-rule="evenodd" clip-rule="evenodd" d="M8.62416 14.504C8.26816 14.0466 8.30016 13.3833 8.72083 12.9633L8.85016 12.8333H8.66683C8.02283 12.8333 7.50016 12.3106 7.50016 11.6666C7.50016 11.0226 8.02283 10.5 8.66683 10.5H8.85016L8.72083 10.37C8.2835 9.93331 8.26616 9.23397 8.66883 8.77597C8.34216 8.75064 8.0075 8.7373 7.66683 8.7373C5.45216 8.7373 3.4915 9.2913 2.27416 10.1213C1.3455 10.7546 0.833496 11.5593 0.833496 12.404V13.3706C0.833496 13.6713 0.952829 13.96 1.1655 14.172C1.37816 14.3846 1.66616 14.504 1.96683 14.504H8.62416Z" fill="#212121"/>
</g>
</g>
<defs>
<clipPath id="clip0_1194_15426">
<rect width="16" height="16" fill="white"/>
</clipPath>
<clipPath id="clip1_1194_15426">
<rect width="16" height="16" fill="white"/>
</clipPath>
</defs>
</svg>
