<svg width="16" height="16" viewBox="0 0 16 16" fill="none" xmlns="http://www.w3.org/2000/svg">
<g clip-path="url(#clip0_2081_36315)">
<path d="M11.5555 15.1111C13.5192 15.1111 15.1111 13.5192 15.1111 11.5555C15.1111 9.59186 13.5192 8 11.5555 8C9.59186 8 8 9.59186 8 11.5555C8 13.5192 9.59186 15.1111 11.5555 15.1111Z" stroke="#212121" stroke-width="1.33333" stroke-linecap="round" stroke-linejoin="round"/>
<path d="M16.0002 16L14.0669 14.0667" stroke="#212121" stroke-width="1.33333" stroke-linecap="round" stroke-linejoin="round"/>
<path d="M5.4541 6.09082C5.4541 6.29537 5.55281 6.48782 5.71875 6.60742C5.88467 6.72697 6.09798 6.75897 6.29199 6.69434L8 6.125L9.6748 6.68262C7.72012 7.43749 6.33314 9.33389 6.33301 11.5547C6.33301 12.8753 6.82433 14.0805 7.63281 15H2.90918C1.85482 15 1 14.1452 1 13.0908V2.90918C1 1.85482 1.85482 1 2.90918 1H5.4541V6.09082ZM4.18164 11.8184H5.72754V10.5459H4.18164V11.8184ZM13.0908 1C14.1452 1 15 1.85482 15 2.90918V7.63184C14.0805 6.82361 12.875 6.33301 11.5547 6.33301C11.1681 6.33303 10.7914 6.37534 10.4287 6.45508C10.5028 6.3494 10.5459 6.22321 10.5459 6.09082V1H13.0908ZM9.27246 5.20801L8.20117 4.85059C8.07066 4.80709 7.92934 4.80709 7.79883 4.85059L6.72754 5.20801V1H9.27246V5.20801Z" fill="#212121"/>
</g>
<defs>
<clipPath id="clip0_2081_36315">
<rect width="16" height="16" fill="white"/>
</clipPath>
</defs>
</svg>
