<svg width="16" height="16" viewBox="0 0 16 16" fill="none" xmlns="http://www.w3.org/2000/svg">
<path d="M8.7829 2.83526C8.98087 2.6412 9.10436 2.37352 9.10436 2.07707C9.10436 1.48173 8.60942 1 7.99999 1C7.38957 1 6.89563 1.48173 6.89563 2.07707C6.89563 2.37303 7.01862 2.64071 7.21709 2.83526C7.10261 2.89036 7.02162 3.00299 7.02162 3.1361C7.02162 3.32284 7.1771 3.47399 7.36807 3.47399H7.38557L7.44306 5.62618C7.60704 5.72614 7.79652 5.83097 8.00049 5.9397C8.20647 5.83097 8.39195 5.72614 8.55593 5.62618L8.61342 3.47399H8.63092C8.82239 3.47399 8.97737 3.32236 8.97737 3.1361C8.97837 3.00299 8.89738 2.89084 8.7829 2.83526Z" fill="black"/>
<path d="M7.92622 13.3154C7.83823 13.2696 7.74374 13.2257 7.64575 13.1833L7.68575 14.6821C7.69075 14.8562 7.83223 15 8.00021 15C8.16819 15 8.30967 14.8562 8.31467 14.6821L8.34417 13.5738C8.21968 13.4841 8.0802 13.3944 7.92622 13.3154Z" fill="black"/>
<path d="M8.41295 9.42939C8.42645 9.43621 8.44045 9.44353 8.45395 9.45035L8.48894 8.1607C8.39045 8.08171 8.26247 7.99492 8.10349 7.90277C7.90701 7.78867 7.70304 7.68092 7.50306 7.57511L7.49507 7.57121L7.53206 8.92523C7.68754 9.052 7.90601 9.17389 8.10999 9.27872C8.20898 9.32943 8.30946 9.37868 8.41295 9.42939Z" fill="black"/>
<path d="M7.78334 10.8263C7.71684 10.7985 7.64835 10.7673 7.58036 10.7376L7.60686 11.7225C7.67635 11.7644 7.74534 11.8044 7.80483 11.8376L7.95731 11.9204C8.0968 11.9975 8.24028 12.0784 8.38226 12.1633L8.41076 11.1184C8.37476 11.0984 8.34227 11.0794 8.29927 11.0584C8.13779 10.9794 7.96531 10.9043 7.78334 10.8263Z" fill="black"/>
<path d="M10.9025 3.96605C10.874 3.87731 10.8525 3.78613 10.8125 3.71543C10.7441 3.56233 10.6561 3.4497 10.5731 3.3517C10.2291 2.97918 9.93666 2.85924 9.74518 2.79341C9.5507 2.73442 9.44522 2.75636 9.40922 2.81828C9.37223 2.8802 9.40222 2.97333 9.50571 3.12107C9.6032 3.26686 9.79868 3.47652 9.95966 3.7715C9.99665 3.84367 10.0336 3.92217 10.0476 3.99725C10.0621 4.03529 10.0566 4.06942 10.0651 4.10599C10.0571 4.14499 10.0651 4.15816 10.0536 4.22496C10.0301 4.45168 9.96465 4.68865 9.82517 4.92415C9.5947 5.33372 9.08226 5.7155 8.34186 6.12116C8.54283 6.22697 8.7618 6.34399 8.99228 6.48295C9.11126 6.55511 9.23325 6.63459 9.35573 6.72187C9.50321 6.62776 9.64669 6.53024 9.78068 6.42688C10.1731 6.12506 10.5011 5.7584 10.6926 5.362C10.887 4.96754 10.9455 4.57163 10.9325 4.2469C10.9355 4.17522 10.917 4.05528 10.9025 3.96605Z" fill="black"/>
<path d="M9.74778 10.8755C9.69878 10.7717 9.63279 10.6776 9.5703 10.581C9.49781 10.504 9.42382 10.424 9.34683 10.3524L9.10936 10.1715L8.87089 10.0247C8.55443 9.84577 8.24396 9.70681 7.959 9.55908C7.67503 9.41426 7.40807 9.26409 7.23159 9.09149C7.05211 8.91888 6.97112 8.75359 6.95612 8.55271C6.93163 8.345 6.98562 8.24016 7.1291 8.0739C7.1446 8.05683 7.1641 8.03977 7.1816 8.02319L7.1641 7.38982C6.99712 7.29913 6.82914 7.21088 6.66316 7.11092C6.55567 7.19869 6.44919 7.29377 6.3457 7.40884C6.21372 7.56291 6.08423 7.74771 6.00874 7.97443C5.93275 8.19823 5.91475 8.44983 5.95025 8.65705C5.98824 9.09343 6.25271 9.53128 6.57117 9.79312C6.88863 10.0681 7.22809 10.2276 7.54655 10.3738C7.86501 10.5186 8.17447 10.6396 8.44494 10.7736C8.71341 10.9053 8.93338 11.0594 9.00337 11.2061C9.01137 11.2471 9.03837 11.2773 9.04636 11.3231C9.05236 11.37 9.06486 11.4182 9.05786 11.4538C9.05386 11.5318 9.03537 11.5957 8.97087 11.6727C8.91338 11.7498 8.82039 11.8254 8.71391 11.8975L8.70141 12.369C8.7834 12.428 8.86539 12.4909 8.94838 12.5616C9.13985 12.4675 9.34083 12.3529 9.5373 12.1511C9.68479 12.0072 9.80677 11.7776 9.83627 11.5474C9.87676 11.3158 9.83177 11.1052 9.74778 10.8755Z" fill="black"/>
<path d="M7.31583 13.0385L7.20134 12.9878L7.10836 12.9449C7.07336 12.978 7.03237 13.0136 6.99987 13.0448C6.82889 13.2199 6.67291 13.3905 6.55942 13.5724C6.31995 13.9283 6.24396 14.276 6.23696 14.5037C6.24296 14.7353 6.27696 14.8543 6.31095 14.8543C6.40544 14.864 6.38994 14.3496 6.88788 13.8142C7.00487 13.6894 7.15635 13.5553 7.32533 13.4227L7.31583 13.0385Z" fill="black"/>
<path d="M6.65369 10.3528C6.5767 10.424 6.50221 10.5045 6.43022 10.5815C6.36672 10.6776 6.30023 10.7722 6.25274 10.876C6.16775 11.1057 6.12375 11.3158 6.16375 11.5484C6.19225 11.779 6.31523 12.0082 6.46271 12.152C6.75868 12.4567 7.06714 12.5689 7.3366 12.6986C7.60907 12.8195 7.85904 12.9204 8.07851 13.034C8.49846 13.25 8.86942 13.5587 9.11139 13.8152C9.60932 14.3505 9.59383 14.8644 9.68831 14.8552C9.72231 14.8552 9.7568 14.7362 9.7623 14.5046C9.7543 14.2769 9.67931 13.9292 9.43984 13.5733C9.32536 13.3914 9.16938 13.2208 8.9994 13.0457C8.83442 12.8819 8.62145 12.6903 8.38147 12.5392C8.145 12.3841 7.88854 12.2505 7.64157 12.1135C7.4016 11.9784 7.14463 11.8317 7.02814 11.6747C6.96365 11.5976 6.94415 11.5338 6.94115 11.4557C6.93415 11.4206 6.94615 11.3719 6.95165 11.3251C6.96065 11.2792 6.98665 11.249 6.99565 11.2081C7.03664 11.1213 7.13413 11.033 7.25911 10.9472L7.24912 10.5893C7.08314 10.5103 6.90466 10.4167 6.72168 10.3007L6.65369 10.3528Z" fill="black"/>
<path d="M10.05 8.65806C10.085 8.45035 10.0675 8.19924 9.99155 7.97544C9.91656 7.74871 9.78658 7.56392 9.65359 7.40984C9.38113 7.10608 9.09016 6.91739 8.8207 6.75356C8.54923 6.58973 8.29226 6.45662 8.05529 6.32985C7.09841 5.84519 6.44499 5.40344 6.17552 4.92415C6.03604 4.68913 5.97055 4.45168 5.94705 4.22496C5.93455 4.15816 5.94205 4.14499 5.93555 4.10599C5.94455 4.0699 5.93855 4.03529 5.95305 3.99725C5.96655 3.92217 6.00404 3.84415 6.04004 3.7715C6.20202 3.47652 6.3975 3.26686 6.49498 3.12107C6.59847 2.97333 6.62897 2.8802 6.59147 2.81828C6.55498 2.75636 6.44849 2.73442 6.25451 2.79341C6.06404 2.85924 5.77007 2.97918 5.42662 3.3517C5.34463 3.4497 5.25564 3.56233 5.18715 3.71543C5.14815 3.78613 5.12665 3.87731 5.09816 3.96605C5.08366 4.05576 5.06416 4.17571 5.06766 4.2469C5.05516 4.57163 5.11366 4.96803 5.30763 5.362C5.49911 5.7584 5.82707 6.12458 6.21952 6.42688C6.61197 6.73357 7.06991 6.98565 7.54935 7.23919C7.78882 7.36596 8.03579 7.49273 8.26876 7.62974C8.50324 7.76578 8.72471 7.91742 8.86919 8.07442C9.01367 8.24117 9.06717 8.346 9.04217 8.55323C9.02867 8.74484 8.95218 8.9038 8.7892 9.0686L8.7757 9.61225C8.86069 9.65614 8.94668 9.70099 9.03367 9.75024L9.28364 9.90334L9.28664 9.90627C9.33463 9.87116 9.38113 9.8341 9.42712 9.79412C9.74708 9.53229 10.0115 9.09395 10.05 8.65806Z" fill="black"/>
<path d="M5.69947 7.87589C5.77546 7.64527 5.90144 7.43219 6.09592 7.20547C6.18091 7.11039 6.2734 7.02262 6.37888 6.93291C6.2539 6.851 6.13191 6.76518 6.01543 6.674C5.56548 6.32831 5.21753 5.92069 5.01255 5.49795C4.76658 5.00013 4.72959 4.53498 4.74209 4.23414C4.73609 4.16295 4.75458 4.04155 4.77508 3.91526L4.77908 3.89332L4.80258 3.81823C4.82607 3.73827 4.85257 3.64953 4.89907 3.5642C4.91756 3.52227 4.94306 3.48716 4.96556 3.44816C3.95218 4.11078 2.2129 5.06888 0.239642 5.38142C-0.403778 5.48333 0.227144 6.17179 2.39088 6.3166C2.39088 6.3166 1.90544 6.48628 1.46699 6.48628C0.970052 6.48628 2.46087 7.44731 4.46762 7.2986C4.46762 7.2986 4.11016 7.46827 3.46374 7.51654C3.14528 7.54044 4.14516 8.20891 5.64047 8.10213C5.65597 8.02461 5.67447 7.94952 5.69947 7.87589Z" fill="black"/>
<path d="M10.3012 7.87589C10.2252 7.64527 10.0982 7.43219 9.90472 7.20547C9.81973 7.11039 9.72624 7.02262 9.62176 6.93291C9.74674 6.851 9.86872 6.76518 9.98521 6.674C10.4352 6.32831 10.7831 5.92069 10.9881 5.49795C11.2341 5.00013 11.2711 4.53498 11.2586 4.23414C11.2636 4.16295 11.2461 4.04155 11.2246 3.91526L11.2216 3.89332L11.1981 3.81823C11.1746 3.73827 11.1471 3.64953 11.1006 3.5642C11.0821 3.52227 11.0576 3.48716 11.0351 3.44816C12.0485 4.11078 13.7877 5.06888 15.76 5.38142C16.4039 5.48333 15.7735 6.17179 13.6098 6.3166C13.6098 6.3166 14.0952 6.48628 14.5336 6.48628C15.0296 6.48628 13.5398 7.44731 11.532 7.2986C11.532 7.2986 11.8905 7.46827 12.5369 7.51654C12.8554 7.54044 11.8555 8.20891 10.3602 8.10213C10.3447 8.02461 10.3262 7.94952 10.3012 7.87589Z" fill="black"/>
</svg>
