<svg width="24" height="24" viewBox="0 0 24 24" fill="none" xmlns="http://www.w3.org/2000/svg">
<g clip-path="url(#clip0_834_325)">
<path d="M2.08354 24C1.50503 24 1.01314 23.7974 0.607886 23.3921C0.202628 22.9866 0 22.4947 0 21.9165V7.56891C0 6.99063 0.202628 6.49886 0.607886 6.0936C1.01314 5.68834 1.50503 5.48571 2.08354 5.48571H5.48571V2.0832C5.48571 1.50491 5.68834 1.01314 6.0936 0.607885C6.49886 0.202628 6.99074 0 7.56926 0H16.4307C17.0093 0 17.5011 0.202628 17.9064 0.607885C18.3117 1.01314 18.5143 1.50491 18.5143 2.0832V10.9714H21.9165C22.495 10.9714 22.9869 11.1741 23.3921 11.5793C23.7974 11.9846 24 12.4763 24 13.0546V21.9165C24 22.4947 23.7974 22.9866 23.3921 23.3921C22.9869 23.7974 22.495 24 21.9165 24H13.7143V18.5143H10.2857V24H2.08354ZM2.05714 21.9429H5.48571V18.5143H2.05714V21.9429ZM2.05714 16.4571H5.48571V13.0286H2.05714V16.4571ZM2.05714 10.9714H5.48571V7.54286H2.05714V10.9714ZM7.54286 16.4571H10.9714V13.0286H7.54286V16.4571ZM7.54286 10.9714H10.9714V7.54286H7.54286V10.9714ZM7.54286 5.48571H10.9714V2.05714H7.54286V5.48571ZM13.0286 16.4571H16.4571V13.0286H13.0286V16.4571ZM13.0286 10.9714H16.4571V7.54286H13.0286V10.9714ZM13.0286 5.48571H16.4571V2.05714H13.0286V5.48571ZM18.5143 21.9429H21.9429V18.5143H18.5143V21.9429ZM18.5143 16.4571H21.9429V13.0286H18.5143V16.4571Z" fill="#5F6368"/>
</g>
<defs>
<clipPath id="clip0_834_325">
<rect width="24" height="24" fill="white"/>
</clipPath>
</defs>
</svg>
