<svg width="16" height="16" viewBox="0 0 16 16" fill="none" xmlns="http://www.w3.org/2000/svg">
<path fill-rule="evenodd" clip-rule="evenodd" d="M1 2.90909C1 1.85473 1.85473 1 2.90909 1H5.45455V6.09091C5.45455 6.29546 5.55288 6.48755 5.71882 6.60715C5.88477 6.72676 6.09809 6.75928 6.29215 6.69461L8 6.12533L9.70787 6.69461C9.9019 6.75928 10.1152 6.72676 10.2812 6.60715C10.4471 6.48755 10.5455 6.29546 10.5455 6.09091V1H13.0909C14.1453 1 15 1.85473 15 2.90909V7.75777C14.285 7.27914 13.4251 7 12.5 7C10.0147 7 8 9.01472 8 11.5C8 12.9136 8.65183 14.175 9.67133 15H2.90909C1.85473 15 1 14.1453 1 13.0909V2.90909ZM9.27273 1H6.72727V5.208L7.79878 4.85084C7.92936 4.80729 8.07064 4.80729 8.20122 4.85084L9.27273 5.208V1ZM4.18182 11.8182V10.5455H6.72727V11.8182H4.18182Z" fill="#212121"/>
<path fill-rule="evenodd" clip-rule="evenodd" d="M12.4997 9.12524C11.189 9.12524 10.125 10.1892 10.125 11.4999C10.125 12.8106 11.189 13.8752 12.4997 13.8752C13.8103 13.8752 14.875 12.8106 14.875 11.4999C14.875 10.1892 13.8103 9.12524 12.4997 9.12524ZM12.4997 10.1252C13.2583 10.1252 13.875 10.7412 13.875 11.4999C13.875 12.2586 13.2583 12.8752 12.4997 12.8752C11.741 12.8752 11.1243 12.2586 11.1243 11.4999C11.1243 10.7412 11.741 10.1252 12.4997 10.1252Z" fill="#212121"/>
<path fill-rule="evenodd" clip-rule="evenodd" d="M13 9.62467V8.5C13 8.224 12.776 8 12.5 8C12.224 8 12 8.224 12 8.5V9.62533C12 9.90067 12.2237 10.1252 12.4997 10.1252C12.7757 10.1246 13 9.90067 13 9.62467Z" fill="#212121"/>
<path fill-rule="evenodd" clip-rule="evenodd" d="M14.179 10.5278L14.9743 9.73183C15.1697 9.53716 15.1697 9.21983 14.9743 9.02516C14.7797 8.82983 14.4624 8.82983 14.2677 9.02516L13.4717 9.8205C13.277 10.0158 13.277 10.3325 13.4717 10.5278C13.667 10.7225 13.9837 10.7225 14.179 10.5278Z" fill="#212121"/>
<path fill-rule="evenodd" clip-rule="evenodd" d="M14.3743 12H15.4997C15.7757 12 15.9997 11.776 15.9997 11.5C15.9997 11.224 15.7757 11 15.4997 11H14.3743C14.099 11 13.875 11.2239 13.875 11.4999C13.8743 11.7759 14.099 12 14.3743 12Z" fill="#212121"/>
<path fill-rule="evenodd" clip-rule="evenodd" d="M13.4717 13.1793L14.2677 13.9746C14.4624 14.1699 14.7797 14.1699 14.9743 13.9746C15.1697 13.7799 15.1697 13.4626 14.9743 13.2679L14.179 12.4719C13.9837 12.2773 13.667 12.2773 13.4717 12.4719C13.277 12.6673 13.277 12.9839 13.4717 13.1793Z" fill="#212121"/>
<path fill-rule="evenodd" clip-rule="evenodd" d="M12 13.3745V14.4998C12 14.7758 12.224 14.9998 12.5 14.9998C12.776 14.9998 13 14.7758 13 14.4998V13.3745C13 13.0992 12.7757 12.8759 12.4997 12.8752C12.2237 12.8752 12 13.0992 12 13.3745Z" fill="#212121"/>
<path fill-rule="evenodd" clip-rule="evenodd" d="M10.8207 12.4719L10.0254 13.2679C9.83007 13.4626 9.83007 13.7799 10.0254 13.9746C10.2201 14.1699 10.5374 14.1699 10.7321 13.9746L11.5281 13.1793C11.7227 12.9839 11.7227 12.6673 11.5281 12.4719C11.3327 12.2773 11.0161 12.2773 10.8207 12.4719Z" fill="#212121"/>
<path fill-rule="evenodd" clip-rule="evenodd" d="M10.6247 11H9.5C9.224 11 9 11.224 9 11.5C9 11.776 9.224 12 9.5 12H10.6247C10.9007 12 11.125 11.7759 11.1243 11.4999C11.1243 11.2239 10.9007 11 10.6247 11Z" fill="#212121"/>
<path fill-rule="evenodd" clip-rule="evenodd" d="M11.5281 9.8205L10.7321 9.02516C10.5374 8.82983 10.2201 8.82983 10.0254 9.02516C9.83007 9.21983 9.83007 9.53716 10.0254 9.73183L10.8207 10.5278C11.0161 10.7225 11.3327 10.7225 11.5281 10.5278C11.7227 10.3325 11.7227 10.0158 11.5281 9.8205Z" fill="#212121"/>
</svg>
