<svg width="16" height="16" viewBox="0 0 16 16" fill="none" xmlns="http://www.w3.org/2000/svg">
<path d="M4.48904 14C4.31676 14 4.17248 13.937 4.05619 13.8111C3.94003 13.6853 3.88196 13.5292 3.88196 13.3426C3.88196 13.156 3.94003 12.9999 4.05619 12.8741C4.17248 12.7482 4.31676 12.6852 4.48904 12.6852H9.69113C10.5359 12.6852 11.2629 12.3832 11.872 11.7791C12.4812 11.1751 12.7858 10.4293 12.7858 9.5415C12.7858 8.65371 12.4812 7.90917 11.872 7.30786C11.2629 6.70671 10.5359 6.40613 9.69113 6.40613H4.00803L5.83393 8.38337C5.95116 8.51047 6.00978 8.66445 6.00978 8.84531C6.00978 9.02617 5.95116 9.18015 5.83393 9.30724C5.7167 9.4342 5.57322 9.49628 5.40351 9.49351C5.23379 9.49059 5.09295 9.4285 4.98098 9.30724L2.20702 6.30335C2.1312 6.22125 2.07777 6.13469 2.04675 6.04368C2.01558 5.95267 2 5.85435 2 5.74873C2 5.6431 2.01558 5.54479 2.04675 5.45377C2.07777 5.36276 2.1312 5.2762 2.20702 5.1941L4.98098 2.19043C5.09821 2.06348 5.24034 2 5.40735 2C5.5745 2 5.7167 2.06348 5.83393 2.19043C5.95116 2.31738 6.0085 2.47274 6.00594 2.65652C6.00337 2.84016 5.94604 2.99268 5.83393 3.11408L4.00803 5.09132H9.69113C10.8752 5.09132 11.8894 5.51922 12.7336 6.37501C13.5779 7.2308 14 8.2863 14 9.5415C14 10.7967 13.5779 11.8536 12.7336 12.7121C11.8894 13.5707 10.8752 14 9.69113 14H4.48904Z" fill="#212121"/>
</svg>
