<svg width="16" height="16" viewBox="0 0 16 16" fill="none" xmlns="http://www.w3.org/2000/svg">
<path d="M13.5 9C14.3284 9 15 8.32843 15 7.5C15 6.67157 14.3284 6 13.5 6C12.6716 6 12 6.67157 12 7.5C12 8.32843 12.6716 9 13.5 9Z" stroke="#9E9E9E" stroke-width="1.33333" stroke-linecap="round" stroke-linejoin="round"/>
<path d="M12 7.5L11 7.5L10 7.5" stroke="#9E9E9E" stroke-width="1.33333" stroke-linecap="round" stroke-linejoin="round"/>
<path d="M6.5 7.5C6.5 8.32843 7.17157 9 8 9C8.82843 9 9.5 8.32843 9.5 7.5C9.5 6.67157 8.82843 6 8 6C7.17157 6 6.5 6.67157 6.5 7.5Z" stroke="#212121" stroke-width="1.33333" stroke-linecap="round" stroke-linejoin="round"/>
<path d="M1 7.5C1 8.32843 1.67157 9 2.5 9C3.32843 9 4 8.32843 4 7.5C4 6.67157 3.32843 6 2.5 6C1.67157 6 1 6.67157 1 7.5Z" fill="#212121" stroke="#212121" stroke-width="1.33333" stroke-linecap="round" stroke-linejoin="round"/>
<path d="M6.5 7.5L5.5 7.5L4.5 7.5" stroke="#212121" stroke-width="1.33333" stroke-linecap="round" stroke-linejoin="round"/>
</svg>
