<svg width="16" height="16" viewBox="0 0 16 16" fill="none" xmlns="http://www.w3.org/2000/svg">
<path fill-rule="evenodd" clip-rule="evenodd" d="M3.02953 1C2.46125 1 2 1.46066 2 2.02953V13.9705C2 14.5393 2.46125 15 3.02953 15H7.64584C7.37745 14.7001 7.14868 14.3641 6.96776 14H3.02953C3.01321 14 3 13.9867 3 13.9705V2.02953C3 2.01327 3.01321 2 3.02953 2H9.88086V3.36435C9.88086 3.93295 10.3418 4.39388 10.9104 4.39388H12.275V7.68319C12.6284 7.7874 12.9637 7.93381 13.275 8.11661V3.69941C13.275 3.5668 13.2224 3.43962 13.1286 3.34586L10.9292 1.14645C10.8354 1.05268 10.7082 1 10.5756 1H10.3809H3.02953ZM6.5 12C6.5 11.8679 6.50569 11.7371 6.51685 11.6079H4.28711C4.01097 11.6079 3.78711 11.8318 3.78711 12.1079C3.78711 12.3841 4.01097 12.6079 4.28711 12.6079H6.54071C6.51386 12.4091 6.5 12.2062 6.5 12ZM6.91592 10.1079C7.08391 9.74591 7.29861 9.41 7.55228 9.10791H4.28711C4.01097 9.10791 3.78711 9.33177 3.78711 9.60791C3.78711 9.88405 4.01097 10.1079 4.28711 10.1079H6.91592ZM11 7.5C11.0964 7.5 11.1922 7.50304 11.2871 7.50901C11.4094 7.41786 11.4885 7.27213 11.4885 7.10791C11.4885 6.83177 11.2647 6.60791 10.9885 6.60791H4.28711C4.01097 6.60791 3.78711 6.83177 3.78711 7.10791C3.78711 7.38405 4.01097 7.60791 4.28711 7.60791H10.016C10.3327 7.53726 10.662 7.5 11 7.5ZM11.7624 3.39388H10.9104C10.8941 3.39388 10.8809 3.38067 10.8809 3.36435V2.51234L11.7624 3.39388ZM14.5 12C14.5 13.933 12.933 15.5 11 15.5C9.067 15.5 7.5 13.933 7.5 12C7.5 10.067 9.067 8.5 11 8.5C12.933 8.5 14.5 10.067 14.5 12ZM11.5429 10.4138C11.2832 10.3387 11.0087 10.3306 10.745 10.3902C10.4814 10.4499 10.2371 10.5754 10.035 10.755C9.83298 10.9346 9.67971 11.1624 9.58952 11.4173C9.55266 11.5214 9.43835 11.576 9.3342 11.5391C9.23004 11.5023 9.17549 11.388 9.21235 11.2838C9.32508 10.9652 9.51667 10.6804 9.76925 10.4559C10.0218 10.2314 10.3272 10.0746 10.6568 10C10.9863 9.92543 11.3295 9.93556 11.6541 10.0295C11.9777 10.1231 12.2724 10.2968 12.5109 10.5347L13.0999 11.0882V10.3504C13.0999 10.2399 13.1895 10.1503 13.3 10.1503C13.4104 10.1503 13.5 10.2399 13.5 10.3504V11.5506C13.5 11.6611 13.4104 11.7507 13.3 11.7507H12.0997C11.9892 11.7507 11.8996 11.6611 11.8996 11.5506C11.8996 11.4402 11.9892 11.3506 12.0997 11.3506H12.7949L12.2346 10.8242L12.2301 10.8198C12.039 10.6286 11.8026 10.4889 11.5429 10.4138ZM8.75303 12.2138C8.77455 12.1909 8.8002 12.1742 8.82773 12.1637L8.88068 12.1515C8.88666 12.151 8.8927 12.1507 8.89881 12.1507H8.90086H10.0991C10.2096 12.1507 10.2991 12.2403 10.2991 12.3508C10.2991 12.4613 10.2096 12.5508 10.0991 12.5508H9.40385L9.96402 13.0772L9.96852 13.0816C10.1596 13.2728 10.3961 13.4124 10.6558 13.4876C10.9155 13.5627 11.1899 13.5708 11.4536 13.5111C11.7173 13.4515 11.9616 13.326 12.1636 13.1464C12.3657 12.9668 12.519 12.7389 12.6091 12.4841C12.646 12.3799 12.7603 12.3254 12.8645 12.3622C12.9686 12.3991 13.0232 12.5134 12.9863 12.6176C12.8736 12.9361 12.682 13.2209 12.4294 13.4454C12.1768 13.6699 11.8715 13.8268 11.5419 13.9014C11.2123 13.9759 10.8692 13.9658 10.5446 13.8719C10.221 13.7783 9.92631 13.6045 9.68782 13.3667L9.09886 12.8133V13.5511C9.09886 13.6615 9.0093 13.7511 8.89881 13.7511C8.78833 13.7511 8.69877 13.6615 8.69877 13.5511V12.3512V12.3508C8.69877 12.3465 8.6989 12.3421 8.69918 12.3378C8.70036 12.3195 8.70403 12.3014 8.71021 12.2839C8.71918 12.2586 8.73343 12.2346 8.75303 12.2138Z" fill="#212121"/>
</svg>
