<svg width="16" height="16" viewBox="0 0 16 16" fill="none" xmlns="http://www.w3.org/2000/svg">
<path d="M8 0.666748C7.46957 0.666748 6.96086 0.877462 6.58579 1.25253C6.21071 1.62761 6 2.13632 6 2.66675V8.00008C6 8.53051 6.21071 9.03922 6.58579 9.4143C6.96086 9.78937 7.46957 10.0001 8 10.0001C8.53043 10.0001 9.03914 9.78937 9.41421 9.4143C9.78929 9.03922 10 8.53051 10 8.00008V2.66675C10 2.13632 9.78929 1.62761 9.41421 1.25253C9.03914 0.877462 8.53043 0.666748 8 0.666748Z" stroke="#212121" stroke-width="1.33333" stroke-linecap="round" stroke-linejoin="round"/>
<path d="M12.6668 6.66675V8.00008C12.6668 9.23776 12.1752 10.4247 11.3 11.2999C10.4248 12.1751 9.23784 12.6667 8.00016 12.6667C6.76249 12.6667 5.5755 12.1751 4.70033 11.2999C3.82516 10.4247 3.3335 9.23776 3.3335 8.00008V6.66675" stroke="#212121" stroke-width="1.33333" stroke-linecap="round" stroke-linejoin="round"/>
<path d="M8 12.6667V15.3334" stroke="#212121" stroke-width="1.33333" stroke-linecap="round" stroke-linejoin="round"/>
<path d="M5.3335 15.3333H10.6668" stroke="#212121" stroke-width="1.33333" stroke-linecap="round" stroke-linejoin="round"/>
</svg>
