<svg width="16" height="16" viewBox="0 0 16 16" fill="none" xmlns="http://www.w3.org/2000/svg">
<path d="M2.74066 7.98767C2.74066 8.90447 2.97152 9.75655 3.43323 10.5439C3.89495 11.3313 4.52233 11.9622 5.31539 12.4368C5.46749 12.5339 5.57341 12.666 5.63316 12.8332C5.69291 13.0004 5.67933 13.1595 5.59242 13.3105C5.50551 13.4723 5.37243 13.5774 5.19317 13.626C5.01392 13.6745 4.84282 13.6556 4.67986 13.5693C3.66952 12.9869 2.87646 12.1995 2.30068 11.2072C1.7249 10.2149 1.43701 9.14176 1.43701 7.98767C1.43701 7.70724 1.45602 7.4322 1.49404 7.16256C1.53206 6.89291 1.58367 6.62327 1.64885 6.35362L1.43701 6.48305C1.28491 6.58012 1.12195 6.60439 0.948133 6.55586C0.774312 6.50732 0.643946 6.40755 0.557035 6.25655C0.470124 6.10555 0.451113 5.94106 0.5 5.7631C0.548887 5.58513 0.649378 5.453 0.801471 5.36672L2.77326 4.23421C2.92535 4.14792 3.09102 4.12904 3.27028 4.17758C3.44953 4.22612 3.58261 4.32589 3.66952 4.47689L4.81022 6.41834C4.89713 6.56934 4.91615 6.73382 4.86726 6.91179C4.81837 7.08975 4.71788 7.22188 4.56579 7.30817C4.41369 7.39445 4.24802 7.41333 4.06877 7.36479C3.88951 7.31626 3.75643 7.21649 3.66952 7.06549L3.11547 6.11094C2.99596 6.41294 2.90362 6.72034 2.83844 7.03313C2.77326 7.34592 2.74066 7.6641 2.74066 7.98767ZM7.9553 2.7943C7.50989 2.7943 7.0699 2.85092 6.63535 2.96418C6.20079 3.07743 5.78797 3.24191 5.39687 3.45763C5.23391 3.54391 5.06281 3.57357 4.88355 3.54661C4.7043 3.51965 4.57122 3.43066 4.48431 3.27966C4.38653 3.10709 4.36481 2.93182 4.41913 2.75385C4.47345 2.57589 4.58752 2.43837 4.76134 2.34129C5.25021 2.06086 5.76353 1.85054 6.30128 1.71032C6.83904 1.57011 7.39038 1.5 7.9553 1.5C8.81355 1.5 9.63648 1.65909 10.4241 1.97727C11.2117 2.29545 11.9152 2.75655 12.5344 3.36055V3.11787C12.5344 2.93451 12.5969 2.78082 12.7218 2.65678C12.8467 2.53274 13.0016 2.47072 13.1862 2.47072C13.3709 2.47072 13.5257 2.53274 13.6507 2.65678C13.7756 2.78082 13.8381 2.93451 13.8381 3.11787V5.3829C13.8381 5.56626 13.7756 5.71995 13.6507 5.84399C13.5257 5.96803 13.3709 6.03005 13.1862 6.03005H10.9048C10.7201 6.03005 10.5653 5.96803 10.4404 5.84399C10.3155 5.71995 10.253 5.56626 10.253 5.3829C10.253 5.19954 10.3155 5.04584 10.4404 4.9218C10.5653 4.79777 10.7201 4.73575 10.9048 4.73575H12.0292C11.5295 4.12096 10.9266 3.64368 10.2204 3.30393C9.51426 2.96418 8.75923 2.7943 7.9553 2.7943ZM11.8989 11.3852C12.3117 10.9106 12.6267 10.3875 12.844 9.81587C13.0613 9.24422 13.1699 8.64561 13.1699 8.02003C13.1699 7.83667 13.2324 7.67488 13.3573 7.53467C13.4823 7.39445 13.6371 7.32435 13.8218 7.32435C14.0065 7.32435 14.1613 7.39445 14.2862 7.53467C14.4111 7.67488 14.4736 7.83667 14.4736 8.02003C14.4736 8.72111 14.3622 9.39792 14.1395 10.0505C13.9168 10.703 13.5936 11.3097 13.1699 11.8706C12.7463 12.4314 12.2438 12.9114 11.6626 13.3105C11.0814 13.7096 10.4486 14.0062 9.76413 14.2003L9.92709 14.2974C10.0792 14.3837 10.177 14.5158 10.2204 14.6938C10.2639 14.8717 10.2421 15.0362 10.1552 15.1872C10.0683 15.3382 9.93795 15.4353 9.76413 15.4784C9.59031 15.5216 9.42735 15.5 9.27526 15.4137L7.28718 14.2812C7.13508 14.1949 7.03459 14.0628 6.98571 13.8848C6.93682 13.7069 6.95583 13.5424 7.04274 13.3914L8.18344 11.4337C8.27035 11.2827 8.40072 11.1857 8.57454 11.1425C8.74836 11.0994 8.91132 11.121 9.06341 11.2072C9.21551 11.2935 9.316 11.4257 9.36489 11.6036C9.41377 11.7816 9.39476 11.9461 9.30785 12.0971L8.70491 13.1163C9.32415 13.03 9.90808 12.8386 10.4567 12.542C11.0053 12.2454 11.486 11.8598 11.8989 11.3852Z" fill="#212121"/>
</svg>
