<svg width="16" height="16" viewBox="0 0 16 16" fill="none" xmlns="http://www.w3.org/2000/svg">
<g clip-path="url(#clip0_1185_14720)">
<path d="M9.10861 5.61477C9.10861 5.61477 8.49626 5.04991 7.55224 5.33428C6.68555 5.59541 6.47033 6.78131 7.05929 7.24331C7.39749 7.50857 7.90638 7.72665 8.59222 7.96909C10.1271 8.51163 9.55974 10.6763 7.99836 10.6867C7.38902 10.6908 7.10413 10.6521 6.56885 10.302" stroke="#212121" stroke-miterlimit="10" stroke-linecap="round" stroke-linejoin="round"/>
<path d="M7.99951 4.52319V11.4766" stroke="#212121" stroke-miterlimit="10" stroke-linecap="round" stroke-linejoin="round"/>
<path fill-rule="evenodd" clip-rule="evenodd" d="M15.1632 10.2289C15.3821 9.52475 15.4999 8.77615 15.4999 8C15.4999 3.85785 12.1421 0.499999 7.99995 0.499999C3.85785 0.499999 0.5 3.85785 0.5 8C0.5 12.1421 3.85784 15.5 7.99995 15.5C8.77613 15.5 9.52476 15.3821 10.2289 15.1632C9.94798 14.9234 9.70543 14.6399 9.51181 14.3233C9.02668 14.4388 8.52046 14.5 7.99995 14.5C4.41014 14.5 1.5 11.5898 1.5 8C1.5 4.41013 4.41014 1.5 7.99995 1.5C11.5898 1.5 14.4999 4.41013 14.4999 8C14.4999 8.52048 14.4388 9.02668 14.3232 9.51179C14.6399 9.70541 14.9234 9.94795 15.1632 10.2289Z" fill="#212121"/>
<path d="M12.4997 13.182C12.8762 13.182 13.1815 12.8767 13.1815 12.5002C13.1815 12.1236 12.8762 11.8184 12.4997 11.8184C12.1231 11.8184 11.8179 12.1236 11.8179 12.5002C11.8179 12.8767 12.1231 13.182 12.4997 13.182Z" stroke="#212121" stroke-width="0.6" stroke-linecap="round" stroke-linejoin="round"/>
<path d="M14.1818 13.1818C14.1516 13.2504 14.1425 13.3264 14.1559 13.4001C14.1693 13.4739 14.2044 13.5419 14.2568 13.5955L14.2705 13.6091C14.3127 13.6513 14.3462 13.7014 14.3691 13.7566C14.392 13.8118 14.4038 13.8709 14.4038 13.9307C14.4038 13.9904 14.392 14.0496 14.3691 14.1047C14.3462 14.1599 14.3127 14.2101 14.2705 14.2523C14.2282 14.2945 14.1781 14.3281 14.1229 14.3509C14.0677 14.3738 14.0086 14.3856 13.9489 14.3856C13.8891 14.3856 13.83 14.3738 13.7748 14.3509C13.7196 14.3281 13.6695 14.2945 13.6273 14.2523L13.6136 14.2386C13.5601 14.1862 13.492 14.1511 13.4183 14.1377C13.3446 14.1244 13.2685 14.1334 13.2 14.1636C13.1328 14.1924 13.0755 14.2403 13.0351 14.3013C12.9947 14.3622 12.973 14.4337 12.9727 14.5068V14.5455C12.9727 14.666 12.9248 14.7816 12.8396 14.8669C12.7544 14.9521 12.6387 15 12.5182 15C12.3976 15 12.282 14.9521 12.1968 14.8669C12.1115 14.7816 12.0636 14.666 12.0636 14.5455V14.525C12.0619 14.4498 12.0375 14.3768 11.9938 14.3156C11.95 14.2544 11.8888 14.2078 11.8182 14.1818C11.7496 14.1516 11.6736 14.1425 11.5999 14.1559C11.5261 14.1693 11.4581 14.2044 11.4045 14.2568L11.3909 14.2705C11.3487 14.3127 11.2986 14.3462 11.2434 14.3691C11.1882 14.392 11.1291 14.4038 11.0693 14.4038C11.0096 14.4038 10.9504 14.392 10.8953 14.3691C10.8401 14.3462 10.7899 14.3127 10.7477 14.2705C10.7055 14.2282 10.6719 14.1781 10.6491 14.1229C10.6262 14.0677 10.6144 14.0086 10.6144 13.9489C10.6144 13.8891 10.6262 13.83 10.6491 13.7748C10.6719 13.7196 10.7055 13.6695 10.7477 13.6273L10.7614 13.6136C10.8138 13.5601 10.8489 13.492 10.8623 13.4183C10.8756 13.3446 10.8666 13.2685 10.8364 13.2C10.8076 13.1328 10.7597 13.0755 10.6987 13.0351C10.6378 12.9947 10.5663 12.973 10.4932 12.9727H10.4545C10.334 12.9727 10.2184 12.9248 10.1331 12.8396C10.0479 12.7544 10 12.6387 10 12.5182C10 12.3976 10.0479 12.282 10.1331 12.1968C10.2184 12.1115 10.334 12.0636 10.4545 12.0636H10.475C10.5502 12.0619 10.6232 12.0375 10.6844 11.9938C10.7456 11.95 10.7922 11.8888 10.8182 11.8182C10.8484 11.7496 10.8575 11.6736 10.8441 11.5999C10.8307 11.5261 10.7956 11.4581 10.7432 11.4045L10.7295 11.3909C10.6873 11.3487 10.6538 11.2986 10.6309 11.2434C10.608 11.1882 10.5962 11.1291 10.5962 11.0693C10.5962 11.0096 10.608 10.9504 10.6309 10.8953C10.6538 10.8401 10.6873 10.7899 10.7295 10.7477C10.7718 10.7055 10.8219 10.6719 10.8771 10.6491C10.9323 10.6262 10.9914 10.6144 11.0511 10.6144C11.1109 10.6144 11.17 10.6262 11.2252 10.6491C11.2804 10.6719 11.3305 10.7055 11.3727 10.7477L11.3864 10.7614C11.4399 10.8138 11.508 10.8489 11.5817 10.8623C11.6554 10.8756 11.7315 10.8666 11.8 10.8364H11.8182C11.8854 10.8076 11.9427 10.7597 11.9831 10.6987C12.0235 10.6378 12.0452 10.5663 12.0455 10.4932V10.4545C12.0455 10.334 12.0933 10.2184 12.1786 10.1331C12.2638 10.0479 12.3794 10 12.5 10C12.6206 10 12.7362 10.0479 12.8214 10.1331C12.9067 10.2184 12.9545 10.334 12.9545 10.4545V10.475C12.9548 10.5481 12.9765 10.6196 13.0169 10.6806C13.0573 10.7415 13.1146 10.7894 13.1818 10.8182C13.2504 10.8484 13.3264 10.8575 13.4001 10.8441C13.4739 10.8307 13.5419 10.7956 13.5955 10.7432L13.6091 10.7295C13.6513 10.6873 13.7014 10.6538 13.7566 10.6309C13.8118 10.608 13.8709 10.5962 13.9307 10.5962C13.9904 10.5962 14.0496 10.608 14.1047 10.6309C14.1599 10.6538 14.2101 10.6873 14.2523 10.7295C14.2945 10.7718 14.3281 10.8219 14.3509 10.8771C14.3738 10.9323 14.3856 10.9914 14.3856 11.0511C14.3856 11.1109 14.3738 11.17 14.3509 11.2252C14.3281 11.2804 14.2945 11.3305 14.2523 11.3727L14.2386 11.3864C14.1862 11.4399 14.1511 11.508 14.1377 11.5817C14.1244 11.6554 14.1334 11.7315 14.1636 11.8V11.8182C14.1924 11.8854 14.2403 11.9427 14.3013 11.9831C14.3622 12.0235 14.4337 12.0452 14.5068 12.0455H14.5455C14.666 12.0455 14.7816 12.0933 14.8669 12.1786C14.9521 12.2638 15 12.3794 15 12.5C15 12.6206 14.9521 12.7362 14.8669 12.8214C14.7816 12.9067 14.666 12.9545 14.5455 12.9545H14.525C14.4519 12.9548 14.3804 12.9765 14.3194 13.0169C14.2585 13.0573 14.2106 13.1146 14.1818 13.1818Z" stroke="#212121" stroke-width="0.6" stroke-linecap="round" stroke-linejoin="round"/>
</g>
<defs>
<clipPath id="clip0_1185_14720">
<rect width="16" height="16" fill="white"/>
</clipPath>
</defs>
</svg>
