<svg width="16" height="16" viewBox="0 0 16 16" fill="none" xmlns="http://www.w3.org/2000/svg">
<g clip-path="url(#clip0_97_1652)">
<path d="M0.666504 0.666748L15.3332 15.3334" stroke="#212121" stroke-width="1.33333" stroke-linecap="round" stroke-linejoin="round"/>
<path d="M11.1465 7.37329C11.6926 7.63979 12.2032 7.97349 12.6665 8.36662" stroke="#212121" stroke-width="1.33333" stroke-linecap="round" stroke-linejoin="round"/>
<path d="M3.3335 8.36677C4.32155 7.54066 5.51074 6.99091 6.78016 6.77344" stroke="#212121" stroke-width="1.33333" stroke-linecap="round" stroke-linejoin="round"/>
<path d="M7.14014 3.36674C8.56841 3.25165 10.0052 3.42551 11.3648 3.87795C12.7244 4.33039 13.9789 5.05212 15.0535 6.00007" stroke="#212121" stroke-width="1.33333" stroke-linecap="round" stroke-linejoin="round"/>
<path d="M0.946777 6.00008C1.87155 5.18264 2.93191 4.5329 4.08011 4.08008" stroke="#212121" stroke-width="1.33333" stroke-linecap="round" stroke-linejoin="round"/>
<path d="M5.68652 10.7399C6.36332 10.2591 7.17297 10.0007 8.00319 10.0007C8.83341 10.0007 9.64306 10.2591 10.3199 10.7399" stroke="#212121" stroke-width="1.33333" stroke-linecap="round" stroke-linejoin="round"/>
<path d="M8 13.3333H8.00667" stroke="#212121" stroke-width="1.33333" stroke-linecap="round" stroke-linejoin="round"/>
</g>
<defs>
<clipPath id="clip0_97_1652">
<rect width="16" height="16" fill="white"/>
</clipPath>
</defs>
</svg>
