<svg width="16" height="16" viewBox="0 0 16 16" fill="none" xmlns="http://www.w3.org/2000/svg">
<path d="M11.8909 15C10.8894 15 10.0375 14.652 9.33519 13.9561C8.63288 13.2601 8.28173 12.416 8.28173 11.4236C8.28173 10.4312 8.63288 9.58702 9.33519 8.89107C10.0375 8.19512 10.8894 7.84715 11.8909 7.84715C12.8925 7.84715 13.7444 8.19512 14.4465 8.89107C15.1488 9.58702 15.5 10.4312 15.5 11.4236C15.5 12.416 15.1488 13.2601 14.4465 13.9561C13.7444 14.652 12.8925 15 11.8909 15ZM13.2266 13.2424L13.7263 12.7473L12.2458 11.2799V9.08519H11.5362V11.5672L13.2266 13.2424Z" fill="#212121"/>
<path d="M3.30371 10.4652V11.6735H7.30901V10.4652H3.30371Z" fill="#212121"/>
<path fill-rule="evenodd" clip-rule="evenodd" d="M9.09505 7.72273L7.30901 6.82471L4.5053 8.23442V2.20832H1.94812C1.88643 2.20832 1.82996 2.23416 1.77869 2.28585C1.72729 2.33741 1.70159 2.3942 1.70159 2.45623V13.2381C1.70159 13.3001 1.72729 13.3569 1.77869 13.4084C1.82996 13.4601 1.88643 13.486 1.94812 13.486H7.90292C8.17175 13.9493 8.52232 14.3587 8.93474 14.6943H1.94812C1.54345 14.6943 1.20093 14.5533 0.920557 14.2714C0.640186 13.9894 0.5 13.645 0.5 13.2381V2.45623C0.5 2.04929 0.640186 1.70485 0.920557 1.42291C1.20093 1.14097 1.54345 1 1.94812 1H12.6699C13.0746 1 13.4171 1.14097 13.6975 1.42291C13.9778 1.70485 14.118 2.04929 14.118 2.45623V7.61021C13.7526 7.36426 13.3484 7.17216 12.9164 7.04521V2.45623C12.9164 2.3942 12.8907 2.33741 12.8393 2.28585C12.7881 2.23416 12.7316 2.20832 12.6699 2.20832H10.1127V7.16196C9.74732 7.30356 9.40556 7.49303 9.09505 7.72273ZM7.30901 5.46152L5.70689 6.26707V2.20832H8.91113V6.26707L7.30901 5.46152Z" fill="#212121"/>
</svg>
