<svg width="16" height="16" viewBox="0 0 16 16" fill="none" xmlns="http://www.w3.org/2000/svg">
<g clip-path="url(#clip0_2201_8398)">
<g clip-path="url(#clip1_2201_8398)">
<path fill-rule="evenodd" clip-rule="evenodd" d="M8.16081 14.2779C7.97759 15.0546 8.92986 15.3043 9.11308 14.5273L9.62573 12.3538H8.58252L8.16081 14.2779ZM10.2253 3.1351C10.7937 3.1351 11.2546 2.65709 11.2546 2.06755C11.2546 1.47801 10.7937 1 10.2253 1C9.65717 1 9.19658 1.47801 9.19658 2.06755C9.19658 2.65709 9.65717 3.1351 10.2253 3.1351ZM13.2133 7.80476L12.1717 6.87416L10.9052 3.86913C10.9039 3.86598 10.9027 3.86335 10.9015 3.86019L10.898 3.85195C10.8975 3.85142 10.8968 3.8509 10.8961 3.85054C10.8018 3.64258 10.5959 3.49019 10.3688 3.49019H9.5517C9.34465 3.49019 9.15635 3.61768 9.05291 3.79706C9.03669 3.81758 9.01995 3.83476 9.0044 3.85756C7.18774 6.53135 7.6921 5.18042 7.52088 8.21632C7.51835 8.26103 7.51395 8.27716 7.51362 8.32381C7.50973 8.84969 8.27219 8.87933 8.27219 8.34082L8.4086 6.38212L8.93223 5.6537L8.95268 6.99901L7.90524 12.0971C7.90524 12.0971 8.20729 12.0971 8.63914 12.0971H11.6586C11.7696 12.0971 11.7887 11.9961 11.785 11.9454C11.6672 10.2829 11.3766 8.88389 10.951 7.58733V6.35056C11.2769 6.97973 11.343 7.12878 11.5083 7.34411C11.7003 7.59451 11.987 7.7604 12.7652 8.40044C13.2242 8.77868 13.7504 8.2321 13.2133 7.80476ZM10.4051 14.3916C10.4048 15.1915 11.3902 15.1917 11.3905 14.3924L11.3912 12.3538H10.352L10.4051 14.3916ZM14.9998 9.39697C14.9995 8.82637 14.5545 8.36432 14.0046 8.36397C13.8457 8.36397 13.7168 8.49776 13.7168 8.66242C13.7168 8.8276 13.8457 8.96139 14.0046 8.96139V8.96104C14.236 8.96139 14.4238 9.15621 14.4241 9.3968C14.4241 9.80221 14.4241 14.6942 14.4241 14.6942C14.4241 14.8594 14.5531 14.993 14.712 14.993C14.871 14.993 15 14.8594 15 14.6942C14.9998 14.6891 14.9998 9.80186 14.9998 9.39697ZM3.80237 3.19858C4.3708 3.19858 4.83172 2.72057 4.83172 2.13103C4.83172 1.54149 4.3708 1.06348 3.80237 1.06348C3.23428 1.06348 2.77369 1.54149 2.77369 2.13103C2.77369 2.72057 3.23428 3.19858 3.80237 3.19858ZM6.9146 7.78284L5.72924 6.76948L4.49739 3.87211C4.4957 3.86843 4.49401 3.8644 4.49232 3.86054L4.48945 3.85405C4.48911 3.8537 4.4886 3.85335 4.4881 3.853C4.39378 3.64486 4.18774 3.4923 3.96041 3.4923H3.14335C2.93579 3.4923 2.74749 3.61995 2.64405 3.79987C2.62816 3.82003 2.61143 3.83722 2.59622 3.85966C0.752512 6.57256 1.27885 5.25442 1.00216 8.46164C0.951283 9.05012 1.81584 9.17077 1.86418 8.52547L2.00058 6.3837L2.52388 5.65563L2.56106 8.07709L2.17907 11.7123L1.58174 14.2437C1.39852 15.0207 2.52168 15.3055 2.7049 14.5289C2.7049 14.5289 3.23107 12.304 3.25744 12.1868C3.30933 11.9652 3.32065 11.8961 3.34415 11.693L3.53092 9.91286L3.53159 9.91269C3.53599 9.84693 3.61002 9.83395 3.62033 9.91339C3.62067 9.91444 3.62135 9.91497 3.62151 9.91602L3.82688 11.8098L3.82603 14.3933C3.82569 15.1933 4.98181 15.1935 4.98215 14.3937C4.98215 14.3937 4.983 12.0885 4.983 11.9684C4.983 11.709 4.9524 11.4605 4.9524 11.4605L4.55148 7.76303C4.54928 7.74374 4.54388 7.72743 4.54066 7.7092C4.54185 7.69236 4.5432 7.6757 4.5432 7.66027V6.35319C4.87043 6.98709 4.9781 7.2545 5.1434 7.46984C5.33524 7.72007 5.62005 7.887 6.39823 8.52687C6.85713 8.90476 7.45192 8.21053 6.9146 7.78284Z" fill="#212121"/>
</g>
</g>
<defs>
<clipPath id="clip0_2201_8398">
<rect width="16" height="16" fill="white"/>
</clipPath>
<clipPath id="clip1_2201_8398">
<rect width="14" height="14" fill="white" transform="translate(1 1)"/>
</clipPath>
</defs>
</svg>
