<svg width="16" height="16" viewBox="0 0 16 16" fill="none" xmlns="http://www.w3.org/2000/svg">
<g clip-path="url(#clip0_1820_32783)">
<path fill-rule="evenodd" clip-rule="evenodd" d="M10.0372 4.88151C10.1894 4.57034 10.2749 4.22016 10.2749 3.85011C10.2749 2.94104 9.75965 2.15276 9.01185 1.77361C8.82509 1.6788 8.74107 1.45402 8.81909 1.25676C8.89634 1.05951 9.10936 0.955514 9.30888 1.01821C11.106 1.58704 12.4126 3.29592 12.4126 5.31272C12.4126 5.57191 12.3908 5.82652 12.3496 6.07347C12.8446 6.16139 13.3344 6.33802 13.7949 6.60944C15.5088 7.6179 16.3068 9.62642 15.8921 11.4958C15.8456 11.703 15.6513 11.8399 15.4451 11.8101C15.2388 11.7803 15.0895 11.5929 15.1023 11.3812C15.154 10.5302 14.7423 9.68229 13.9697 9.22735C13.5332 8.97045 13.0456 8.87793 12.5791 8.93223C12.5806 8.97963 12.5814 9.0278 12.5814 9.07597C12.5814 10.4851 11.9701 11.7512 11.0025 12.6107C11.1825 12.8599 11.415 13.077 11.6963 13.2422C12.4681 13.6971 13.3952 13.636 14.092 13.1657C14.2661 13.048 14.4993 13.087 14.6283 13.2537C14.7573 13.4211 14.7378 13.6604 14.5848 13.8049C13.204 15.1062 11.0979 15.4059 9.38473 14.3967C9.0637 14.2086 8.77568 13.9846 8.52067 13.7338C8.34366 13.7552 8.16364 13.7659 7.98138 13.7659C7.81037 13.7659 7.64161 13.756 7.4751 13.7376C7.22158 13.9869 6.93431 14.2102 6.61478 14.3975C4.90091 15.4067 2.79545 15.107 1.41468 13.8057C1.26167 13.6612 1.24292 13.4219 1.37118 13.2544C1.50019 13.087 1.73345 13.0488 1.90747 13.1665C2.60427 13.6367 3.53058 13.6979 4.30322 13.243C4.57624 13.0832 4.80426 12.8737 4.98277 12.6313C4.00245 11.7719 3.38217 10.4982 3.38217 9.07764C3.38217 9.02794 3.38292 8.979 3.38442 8.93007C2.92914 8.88496 2.45661 8.979 2.03057 9.22977C1.25803 9.68469 0.845485 10.5334 0.898001 11.3836C0.910752 11.5954 0.762241 11.7827 0.555218 11.8125C0.348958 11.8431 0.154698 11.7055 0.108192 11.4983C-0.307344 9.62812 0.49147 7.62046 2.20536 6.61186C2.66815 6.33968 3.15944 6.16229 3.65597 6.07513C3.61546 5.82818 3.59371 5.57434 3.59371 5.31515C3.59371 3.29815 4.9003 1.58864 6.69741 1.02063C6.89694 0.957937 7.10919 1.06115 7.1872 1.25919C7.26446 1.45644 7.18045 1.68122 6.99444 1.77603C6.24589 2.15526 5.73136 2.94276 5.73136 3.85254C5.73136 4.21648 5.81311 4.56053 5.96012 4.86636C6.57067 4.56129 7.25771 4.38927 7.98375 4.38927C8.72331 4.38927 9.4216 4.56741 10.0404 4.88394L10.0372 4.88151ZM4.18076 9.16154C4.20326 10.2258 4.64804 11.1846 5.35085 11.8712C5.51436 11.2886 5.45511 10.6418 5.13483 10.0753C4.90307 9.66698 4.56705 9.35728 4.18076 9.16154ZM11.7787 9.18142C11.4082 9.37792 11.0872 9.68069 10.8629 10.076C10.5479 10.6334 10.4857 11.2672 10.6386 11.8436C11.3204 11.1624 11.7517 10.2229 11.7787 9.18142ZM7.93462 8.32892C8.3764 8.32892 8.73493 8.69439 8.73493 9.14472C8.73493 9.59506 8.3764 9.96053 7.93462 9.96053C7.49283 9.96053 7.13431 9.59506 7.13431 9.14472C7.13431 8.69439 7.49283 8.32892 7.93462 8.32892ZM9.54949 5.5474C9.07095 5.32567 8.53992 5.20258 7.98037 5.20258C7.43208 5.20258 6.9108 5.32109 6.44052 5.5344C6.8478 5.92662 7.3976 6.16823 8.00138 6.16823C8.59918 6.16823 9.14296 5.93275 9.54949 5.5474Z" fill="#212121"/>
</g>
<defs>
<clipPath id="clip0_1820_32783">
<rect width="16" height="16" fill="white"/>
</clipPath>
</defs>
</svg>
