<svg width="16" height="16" viewBox="0 0 16 16" fill="none" xmlns="http://www.w3.org/2000/svg">
<g clip-path="url(#clip0_1194_15647)">
<path d="M4.37891 8.71811L4.37894 8.71823C4.38884 8.70823 4.38819 8.70883 4.37891 8.71811Z" fill="#212121"/>
<path d="M14.6907 6.782L13.9944 6.61458C13.843 5.95368 13.5823 5.32562 13.2178 4.74164L13.5707 4.14924C13.6668 3.98784 13.6407 3.78194 13.5082 3.64936L12.3518 2.49298C12.2192 2.36081 12.0137 2.33436 11.8519 2.43049L11.2595 2.78335C10.6755 2.41886 10.0475 2.15811 9.38656 2.00671L9.21914 1.31045C9.17347 1.1282 9.00965 1 8.8214 1H7.18077C6.99251 1 6.8287 1.12818 6.78303 1.31045L6.61561 2.00671C5.95471 2.15811 5.32665 2.41886 4.74267 2.78335L4.15027 2.43049C3.98887 2.33433 3.78297 2.3604 3.65039 2.49298L2.49395 3.64933C2.36137 3.78191 2.33534 3.98778 2.43146 4.14921L2.78433 4.74161C2.41984 5.32559 2.15908 5.95365 2.00769 6.61455L1.31142 6.78197C1.12918 6.82764 1.00098 6.99145 1.00098 7.17971V8.82034C1.00098 9.0086 1.12915 9.17282 1.31181 9.21808L2.00807 9.3855C2.10901 9.82344 2.26092 10.2442 2.45602 10.6477C2.75725 10.3453 4.27016 8.82586 4.3789 8.71727C4.37354 8.68964 4.31493 8.16427 4.31337 8.06194C4.27848 5.97186 5.96195 4.30898 8.00264 4.30898C10.0573 4.30898 11.6957 5.96574 11.688 8.01282C11.6792 9.906 10.2662 11.5177 8.29266 11.6651C8.20728 11.6717 7.8213 11.7286 7.2833 11.6225L5.35829 13.5475C5.76029 13.7415 6.17945 13.8924 6.61558 13.993L6.783 14.6896C6.82867 14.8719 6.99249 15.0001 7.18075 15.0001H8.82137C9.00963 15.0001 9.17344 14.8719 9.21911 14.6896L9.38653 13.9934C10.0474 13.842 10.6755 13.5812 11.2595 13.2167L11.8519 13.5696C12.0125 13.6657 12.2188 13.6393 12.3518 13.5071L13.5081 12.3507C13.6407 12.2181 13.6667 12.0123 13.5706 11.8508L13.2178 11.2584C13.5827 10.6745 13.843 10.0464 13.9944 9.38509L14.6903 9.21808C14.8729 9.17282 15.0011 9.0086 15.0011 8.82034V7.17971C15.0011 6.99148 14.8729 6.82764 14.6907 6.782Z" fill="#212121"/>
<path d="M11.1726 7.14308C11.1314 6.9817 11.0068 6.85476 10.8462 6.81076C10.6856 6.7667 10.514 6.81261 10.3962 6.93036L9.32668 7.99995C8.96108 8.36554 8.36677 8.36554 8.00115 7.99995C7.6359 7.6347 7.6359 7.0397 8.00115 6.67442L9.07115 5.60442C9.1889 5.48667 9.23437 5.31479 9.19033 5.15426C9.14627 4.99373 9.01949 4.86895 8.85815 4.82795C6.88046 4.32536 5.10071 5.61358 4.7743 7.39254C4.66949 7.97842 4.71618 8.56198 4.90793 9.09933C4.64124 9.36604 1.10203 12.8867 0.991313 12.9975C0.441594 13.5472 0.441594 14.4416 1 15C1.55319 15.5244 2.40041 15.5464 2.98506 14.9913L6.90171 11.0931C7.6218 11.3501 8.4249 11.3449 9.2108 11.0676C10.6269 10.5679 11.618 8.89092 11.1726 7.14308Z" fill="#212121"/>
</g>
<defs>
<clipPath id="clip0_1194_15647">
<rect width="16" height="16" fill="white"/>
</clipPath>
</defs>
</svg>
