<svg width="16" height="16" viewBox="0 0 16 16" fill="none" xmlns="http://www.w3.org/2000/svg">
<path d="M8 6.16952C7.10167 6.16952 6.33268 5.86744 5.69303 5.26327C5.05323 4.65924 4.73333 3.93307 4.73333 3.08476C4.73333 2.23645 5.05323 1.51021 5.69303 0.906039C6.33268 0.302013 7.10167 0 8 0C8.89833 0 9.66732 0.302013 10.307 0.906039C10.9468 1.51021 11.2667 2.23645 11.2667 3.08476C11.2667 3.93307 10.9468 4.65924 10.307 5.26327C9.66732 5.86744 8.89833 6.16952 8 6.16952ZM8 4.84748C8.51333 4.84748 8.95278 4.67488 9.31833 4.32968C9.68389 3.98448 9.86667 3.56951 9.86667 3.08476C9.86667 2.60001 9.68389 2.18504 9.31833 1.83984C8.95278 1.49464 8.51333 1.32204 8 1.32204C7.48667 1.32204 7.04722 1.49464 6.68167 1.83984C6.31611 2.18504 6.13333 2.60001 6.13333 3.08476C6.13333 3.56951 6.31611 3.98448 6.68167 4.32968C7.04722 4.67488 7.48667 4.84748 8 4.84748ZM1 16V10.766C1 10.3345 1.1211 9.9347 1.3633 9.56673C1.6055 9.19891 1.94033 8.91166 2.3678 8.70498C3.15507 8.33437 4.02797 8.02817 4.9865 7.78638C5.94488 7.54459 6.94938 7.4237 8 7.4237C9.05062 7.4237 10.0551 7.54459 11.0135 7.78638C11.972 8.02817 12.8449 8.33437 13.6322 8.70498C14.0597 8.91166 14.3945 9.19891 14.6367 9.56673C14.8789 9.9347 15 10.3347 15 10.7667V14.4067C15 14.852 14.8367 15.2288 14.51 15.5373C14.1833 15.8458 13.7843 16 13.3128 16H6.13333C5.50162 16 4.96978 15.796 4.5378 15.3881C4.10582 14.9802 3.88983 14.4779 3.88983 13.8812C3.88983 13.2847 4.10582 12.7824 4.5378 12.3745C4.96978 11.9666 5.50162 11.7626 6.13333 11.7626H8.88667L10.3065 8.99825C9.94157 8.91129 9.55688 8.84746 9.15243 8.80678C8.74783 8.76609 8.36369 8.74574 8 8.74574C6.99371 8.74574 6.06847 8.86017 5.22427 9.08903C4.38007 9.31774 3.64686 9.58296 3.02463 9.88468C2.82723 9.97517 2.67378 10.1 2.56427 10.2593C2.45476 10.4186 2.4 10.5876 2.4 10.766V16H1ZM6.13333 14.678H7.4148L8.22983 13.0847H6.13333C5.90482 13.0847 5.70711 13.1635 5.5402 13.3211C5.37329 13.4787 5.28983 13.6654 5.28983 13.8812C5.28983 14.0971 5.37329 14.2839 5.5402 14.4415C5.70711 14.5992 5.90482 14.678 6.13333 14.678ZM8.95667 14.678H13.3128C13.3966 14.678 13.4654 14.6525 13.5193 14.6017C13.5731 14.5509 13.6 14.4859 13.6 14.4067V10.766C13.6 10.5876 13.5423 10.4186 13.4269 10.2593C13.3113 10.1 13.1656 9.97517 12.9898 9.88468C12.7971 9.79096 12.5904 9.69915 12.3696 9.60925C12.1489 9.5195 11.9201 9.43335 11.6832 9.35079L8.95667 14.678Z" fill="#212121"/>
</svg>
