<svg width="16" height="16" viewBox="0 0 16 16" fill="none" xmlns="http://www.w3.org/2000/svg">
<g clip-path="url(#clip0_1355_32287)">
<path d="M11.5 15.5C10.5288 15.5 9.70268 15.1595 9.02161 14.4784C8.34054 13.7973 8 12.9712 8 12C8 11.0288 8.34054 10.2027 9.02161 9.52161C9.70268 8.84054 10.5288 8.5 11.5 8.5C12.4713 8.5 13.2974 8.84054 13.9784 9.52161C14.6595 10.2027 15 11.0288 15 12C15 12.9712 14.6595 13.7973 13.9784 14.4784C13.2974 15.1595 12.4713 15.5 11.5 15.5ZM12.7954 13.7799L13.2799 13.2954L11.8442 11.8594V9.71158H11.156V12.1406L12.7954 13.7799Z" fill="#212121"/>
<path d="M10.9998 3.50009H13.6646L10.8599 0.745361V3.36038C10.8599 3.43738 10.9226 3.50009 10.9998 3.50009Z" fill="#212121"/>
<path fill-rule="evenodd" clip-rule="evenodd" d="M9.94745 3.37009C9.94745 3.93176 10.4045 4.3887 10.9662 4.3887H13.8906V8.18683C13.198 7.75167 12.3784 7.5 11.5 7.5C9.01472 7.5 7 9.51472 7 12C7 13.4136 7.65183 14.675 8.67133 15.5H2.63971C1.73553 15.5 1 14.7645 1 13.8603V2.13971C1 1.23553 1.73553 0.5 2.63971 0.5H9.94745V3.37009ZM2.86591 12H5.52615C5.76895 12 5.96561 11.8033 5.96561 11.5605C5.96561 11.3178 5.76895 11.1211 5.52615 11.1211H2.86591C2.6232 11.1211 2.42645 11.3178 2.42645 11.5605C2.42645 11.8033 2.6232 12 2.86591 12ZM2.86591 9.36328C2.6232 9.36328 2.42645 9.56003 2.42645 9.80273C2.42645 10.0454 2.6232 10.2422 2.86591 10.2422H4.91687C5.15948 10.2422 5.35632 10.0454 5.35632 9.80273C5.35632 9.56003 5.15967 9.36328 4.91687 9.36328H2.86591ZM2.86591 8.48438H6.06055C6.30325 8.48438 6.5 8.28763 6.5 8.04492C6.5 7.80222 6.30325 7.60547 6.06055 7.60547H2.86591C2.6232 7.60547 2.42645 7.80222 2.42645 8.04492C2.42645 8.28763 2.6232 8.48438 2.86591 8.48438Z" fill="#212121"/>
</g>
<defs>
<clipPath id="clip0_1355_32287">
<rect width="16" height="16" fill="white"/>
</clipPath>
</defs>
</svg>
