<svg width="16" height="16" viewBox="0 0 16 16" fill="none" xmlns="http://www.w3.org/2000/svg">
<g clip-path="url(#clip0_2202_8420)">
<path d="M4.36189 4.75502C5.39881 4.75502 6.2394 3.91443 6.2394 2.87751C6.2394 1.84059 5.39881 1 4.36189 1C3.32497 1 2.48438 1.84059 2.48438 2.87751C2.48438 3.91443 3.32497 4.75502 4.36189 4.75502Z" fill="#212121"/>
<path d="M15.7507 4.89678C16.0164 4.6311 16.0164 4.25914 15.7507 3.99345C15.485 3.72777 15.1131 3.72777 14.8474 3.99345L13.1824 5.65842H10.1005L8.43552 3.99345C8.16983 3.72777 7.79787 3.72777 7.53219 3.99345L5.84951 5.65842H2.76756L1.1026 3.99345C0.83691 3.72777 0.46495 3.72777 0.199264 3.99345C-0.0664214 4.25914 -0.0664214 4.6311 0.199264 4.89678L2.59044 7.28796V9.6437V11.3618V14.3624C2.59044 14.6989 2.89155 15 3.22808 15C3.56462 15 3.86573 14.6989 3.86573 14.3624V11.3618V10.547C3.86573 10.2813 4.04285 10.1219 4.29082 10.1219C4.55651 10.1219 4.71592 10.2991 4.71592 10.547V11.3618V14.3624C4.71592 14.6989 5.01703 15 5.35357 15C5.6901 15 5.99121 14.6989 5.99121 14.3624V11.3618V9.60828V7.25253L7.95729 5.37502L9.92336 7.28796L8.63036 11.2732H9.92336V14.3624C9.92336 14.6989 10.2245 15 10.561 15C10.8975 15 11.1987 14.6989 11.1987 14.3624V11.2732H12.0488V14.3624C12.0488 14.6989 12.35 15 12.6865 15C13.023 15 13.3241 14.6989 13.3241 14.3624V11.2732H14.6171L13.3241 7.28796L15.7507 4.89678Z" fill="#212121"/>
<path d="M11.6412 4.75502C12.6781 4.75502 13.5187 3.91443 13.5187 2.87751C13.5187 1.84059 12.6781 1 11.6412 1C10.6043 1 9.76367 1.84059 9.76367 2.87751C9.76367 3.91443 10.6043 4.75502 11.6412 4.75502Z" fill="#212121"/>
</g>
<defs>
<clipPath id="clip0_2202_8420">
<rect width="16" height="16" fill="white"/>
</clipPath>
</defs>
</svg>
