<svg width="16" height="16" viewBox="0 0 16 16" fill="none" xmlns="http://www.w3.org/2000/svg">
<path d="M8 12.1689C7.26882 12.1689 6.56476 12.2992 5.88782 12.5598C5.21088 12.8204 4.58688 13.216 4.01582 13.7465V13.8591C4.03394 13.8733 4.05206 13.8838 4.07018 13.8908C4.08818 13.8979 4.10853 13.9014 4.13124 13.9014H11.8552C11.8779 13.9014 11.8971 13.8979 11.9129 13.8908C11.9288 13.8838 11.9458 13.8733 11.9639 13.8591V13.7465C11.4019 13.216 10.7846 12.8204 10.1122 12.5598C9.43982 12.2992 8.73577 12.1689 8 12.1689ZM3.05882 13.1578C3.69412 12.5109 4.43235 12.0013 5.27353 11.6289C6.11471 11.2566 7.02353 11.0705 8 11.0705C8.97647 11.0705 9.88529 11.2566 10.7265 11.6289C11.5676 12.0013 12.3059 12.5109 12.9412 13.1578V3.8732C12.9412 3.81681 12.9185 3.76517 12.8732 3.7183C12.8281 3.6713 12.7783 3.64781 12.7239 3.64781H3.27606C3.22171 3.64781 3.17194 3.6713 3.12676 3.7183C3.08147 3.76517 3.05882 3.81681 3.05882 3.8732V13.1578ZM8 9.3239C7.36294 9.3239 6.82129 9.09246 6.37506 8.62959C5.92894 8.16659 5.70588 7.6046 5.70588 6.9436C5.70588 6.28261 5.92894 5.72062 6.37506 5.25762C6.82129 4.79474 7.36294 4.56331 8 4.56331C8.63706 4.56331 9.17871 4.79474 9.62494 5.25762C10.0711 5.72062 10.2941 6.28261 10.2941 6.9436C10.2941 7.6046 10.0711 8.16659 9.62494 8.62959C9.17871 9.09246 8.63706 9.3239 8 9.3239ZM8 8.2253C8.33941 8.2253 8.63012 8.0997 8.87212 7.84848C9.11424 7.59739 9.23529 7.29577 9.23529 6.9436C9.23529 6.59144 9.11424 6.28982 8.87212 6.03873C8.63012 5.78751 8.33941 5.66191 8 5.66191C7.66059 5.66191 7.36988 5.78751 7.12788 6.03873C6.88576 6.28982 6.76471 6.59144 6.76471 6.9436C6.76471 7.29577 6.88576 7.59739 7.12788 7.84848C7.36988 8.0997 7.66059 8.2253 8 8.2253ZM3.27606 15C2.91947 15 2.61765 14.8718 2.37059 14.6155C2.12353 14.3592 2 14.046 2 13.676V3.8732C2 3.50322 2.12353 3.19006 2.37059 2.93372C2.61765 2.67738 2.91947 2.54921 3.27606 2.54921H4.25335V1.56322C4.25335 1.4027 4.30518 1.26867 4.40882 1.16113C4.51247 1.05371 4.64165 1 4.79635 1C4.95118 1 5.08035 1.05371 5.18388 1.16113C5.28753 1.26867 5.33935 1.4027 5.33935 1.56322V2.54921H10.6878V1.5493C10.6878 1.39342 10.7385 1.26287 10.8398 1.15765C10.9412 1.05255 11.067 1 11.2172 1C11.3675 1 11.4932 1.05255 11.5945 1.15765C11.6959 1.26287 11.7466 1.39342 11.7466 1.5493V2.54921H12.7239C13.0805 2.54921 13.3824 2.67738 13.6294 2.93372C13.8765 3.19006 14 3.50322 14 3.8732V13.676C14 14.046 13.8765 14.3592 13.6294 14.6155C13.3824 14.8718 13.0805 15 12.7239 15H3.27606ZM8 13.9014H11.9639H4.01582H8Z" fill="#212121"/>
</svg>
