<svg width="16" height="16" viewBox="0 0 16 16" fill="none" xmlns="http://www.w3.org/2000/svg">
<g clip-path="url(#clip0_1662_338)">
<path d="M5.42513 14.6831C4.61019 14.362 3.88974 13.918 3.26378 13.3513C2.63771 12.7846 2.13265 12.1351 1.7486 11.4031C1.36453 10.6711 1.115 9.88233 1 9.03674C0.884883 8.19112 0.931368 7.33288 1.13946 6.46202C1.39497 5.39271 1.85202 4.45459 2.51063 3.64766C3.16908 2.84082 3.98879 2.20169 4.96975 1.73026L3.043 1.26987L3.30228 0.18476L7.15436 1.10521L6.22526 4.99351L5.15026 4.73664L5.65124 2.64003C4.76903 3.01946 4.03093 3.56275 3.43696 4.2699C2.84313 4.97696 2.43563 5.79329 2.21446 6.71889C1.87229 8.15087 2.02776 9.51033 2.68087 10.7973C3.33386 12.0842 4.33648 13.0117 5.68873 13.5799L5.42513 14.6831ZM8.73953 15.0796L9.66864 11.1912L10.7436 11.4481L10.2427 13.5445C11.1232 13.1521 11.8611 12.6044 12.4563 11.9015C13.0517 11.1987 13.46 10.3844 13.6811 9.45882C14.0233 8.02684 13.8678 6.66738 13.2147 5.38044C12.5617 4.09353 11.5591 3.16598 10.2069 2.59777L10.4705 1.49458C12.1066 2.13062 13.3347 3.22141 14.1547 4.76693C14.9747 6.31232 15.1752 7.96191 14.7561 9.71569C14.5006 10.785 14.0433 11.7243 13.3841 12.5335C12.7251 13.3426 11.9051 13.9829 10.9241 14.4545L12.8509 14.9149L12.5916 16L8.73953 15.0796Z" fill="#212121"/>
<path fill-rule="evenodd" clip-rule="evenodd" d="M6.43786 5.50012C6.0613 5.50012 5.75604 5.80538 5.75604 6.18194V9.8183C5.75604 10.1949 6.0613 10.5001 6.43786 10.5001H10.0742C10.4508 10.5001 10.756 10.1949 10.756 9.8183V6.18194C10.756 5.80538 10.4508 5.50012 10.0742 5.50012H9.16513V7.3183C9.16513 7.39136 9.13002 7.45996 9.07074 7.50268C9.01147 7.54539 8.93529 7.55701 8.86599 7.53391L8.25604 7.3306L7.64609 7.53391C7.57678 7.55701 7.5006 7.54539 7.44133 7.50268C7.38207 7.45996 7.34695 7.39136 7.34695 7.3183V5.50012H6.43786ZM7.80149 5.50012H8.71058V7.00298L8.3279 6.87542C8.28127 6.85987 8.23081 6.85987 8.18417 6.87542L7.80149 7.00298V5.50012ZM6.8924 8.90921V9.36376H7.80149V8.90921H6.8924Z" fill="#212121"/>
</g>
<defs>
<clipPath id="clip0_1662_338">
<rect width="16" height="16" fill="white"/>
</clipPath>
</defs>
</svg>
