<svg width="16" height="16" viewBox="0 0 16 16" fill="none" xmlns="http://www.w3.org/2000/svg">
<path fill-rule="evenodd" clip-rule="evenodd" d="M12 15C13.933 15 15.5 13.433 15.5 11.5C15.5 9.567 13.933 8 12 8C10.067 8 8.5 9.567 8.5 11.5C8.5 13.433 10.067 15 12 15ZM11.4488 9.6745C11.5332 9.75887 11.5332 9.89567 11.4488 9.98004L10.7374 10.6914H12.8084C13.0949 10.6914 13.3697 10.8053 13.5723 11.0078C13.7749 11.2104 13.8887 11.4852 13.8887 11.7717V13.2841C13.8887 13.4034 13.7919 13.5001 13.6726 13.5001C13.5533 13.5001 13.4566 13.4034 13.4566 13.2841V11.7717C13.4566 11.5998 13.3883 11.4349 13.2667 11.3134C13.1452 11.1918 12.9803 11.1236 12.8084 11.1236H10.7374L11.4488 11.835C11.5332 11.9194 11.5332 12.0562 11.4488 12.1406C11.3645 12.2249 11.2277 12.2249 11.1433 12.1406L10.0631 11.0603C10.0395 11.0367 10.0225 11.009 10.0121 10.9795C10.0041 10.957 9.99978 10.9327 9.99978 10.9075C9.99978 10.8596 10.0154 10.8154 10.0417 10.7796C10.0488 10.77 10.0566 10.761 10.0651 10.7527L11.1433 9.6745C11.2277 9.59013 11.3645 9.59013 11.4488 9.6745Z" fill="#212121"/>
<path d="M3.38235 10.6765V11.9118H7.5V10.6765H3.38235Z" fill="#212121"/>
<path fill-rule="evenodd" clip-rule="evenodd" d="M9.33614 7.87281L7.5 6.95473L4.61765 8.39591V2.23529H1.98874C1.92532 2.23529 1.86726 2.26172 1.81456 2.31456C1.76172 2.36726 1.73529 2.42532 1.73529 2.48874V13.5113C1.73529 13.5747 1.76172 13.6327 1.81456 13.6854C1.86726 13.7383 1.92532 13.7647 1.98874 13.7647H8.11056C8.38693 14.2383 8.74734 14.6569 9.17133 15H1.98874C1.57272 15 1.22059 14.8559 0.932353 14.5676C0.644118 14.2794 0.5 13.9273 0.5 13.5113V2.48874C0.5 2.07272 0.644118 1.72059 0.932353 1.43235C1.22059 1.14412 1.57272 1 1.98874 1H13.0113C13.4273 1 13.7794 1.14412 14.0676 1.43235C14.3559 1.72059 14.5 2.07272 14.5 2.48874V7.75777C14.1244 7.50633 13.7087 7.30994 13.2647 7.18015V2.48874C13.2647 2.42532 13.2383 2.36726 13.1854 2.31456C13.1327 2.26172 13.0747 2.23529 13.0113 2.23529H10.3824V7.29951C10.0067 7.44427 9.65536 7.63797 9.33614 7.87281ZM7.5 5.56112L5.85294 6.38465V2.23529H9.14706V6.38465L7.5 5.56112Z" fill="#212121"/>
</svg>
