<svg width="16" height="16" viewBox="0 0 16 16" fill="none" xmlns="http://www.w3.org/2000/svg">
<path d="M9.52334 10.7907H6.41043C5.64235 10.7907 5.01709 10.1793 5.01709 9.42831V7.96711C5.01709 7.2161 5.64235 6.60474 6.41043 6.60474H9.52334C10.2914 6.60474 10.9167 7.2161 10.9167 7.96711V9.42831C10.9167 10.1793 10.2914 10.7907 9.52334 10.7907ZM6.41043 7.51299C6.15382 7.51299 5.94598 7.7162 5.94598 7.96711V9.42831C5.94598 9.67922 6.15382 9.88244 6.41043 9.88244H9.52334C9.77995 9.88244 9.98779 9.67922 9.98779 9.42831V7.96711C9.98779 7.7162 9.77995 7.51299 9.52334 7.51299H6.41043Z" fill="black"/>
<path d="M10.0375 7.51291H5.89697V6.17495C5.89697 5.05893 6.82587 4.15063 7.96729 4.15063C9.10867 4.15063 10.0376 5.05889 10.0376 6.17495L10.0375 7.51291ZM6.82587 6.60466H9.10857V6.17495C9.10857 5.5596 8.59652 5.05893 7.96719 5.05893C7.33844 5.05893 6.82581 5.5596 6.82581 6.17495L6.82587 6.60466Z" fill="black"/>
<path d="M4.33361 4.17859H3.02039C2.72198 4.17859 2.48047 3.94188 2.48047 3.65067V2.36209C2.48047 2.11117 2.6883 1.90796 2.94492 1.90796C3.20153 1.90796 3.40936 2.11117 3.40936 2.36209V3.24139L4.34349 3.26069C4.59894 3.26637 4.8027 3.47015 4.8027 3.71935C4.8027 3.97253 4.59254 4.17859 4.33303 4.17859L4.33361 4.17859Z" fill="black"/>
<path d="M6.93185 14.5502C3.64238 14.0847 1.11935 11.3026 1.00432 8.0551C0.977031 7.28479 1.07921 6.52866 1.30737 5.8038C1.38807 5.54666 1.66906 5.4053 1.92508 5.50294C2.15731 5.59207 2.26761 5.84183 2.19388 6.07458C2.0052 6.67346 1.91637 7.29788 1.92973 7.93482C1.98895 10.7793 4.18108 13.2379 7.06065 13.65C10.9173 14.2012 14.2229 11.1596 13.9926 7.44495C13.8138 4.56295 11.4492 2.17941 8.50749 1.93077C6.68924 1.77693 4.95451 2.40136 3.68646 3.64686L3.0281 3.00655C4.49228 1.56924 6.49459 0.848828 8.59329 1.02656C11.8264 1.30016 14.4895 3.8138 14.8808 6.96318C15.437 11.4374 11.5246 15.1999 6.93184 14.5505L6.93185 14.5502Z" fill="black"/>
</svg>
