<svg width="16" height="16" viewBox="0 0 16 16" fill="none" xmlns="http://www.w3.org/2000/svg">
<path fill-rule="evenodd" clip-rule="evenodd" d="M2.98333 1C2.44055 1 2 1.43999 2 1.98333V12.8825C2 13.4258 2.44055 13.8658 2.98333 13.8658H7.46125C7.18942 13.7627 6.934 13.5945 6.73206 13.3354C6.62109 13.193 6.53586 13.0355 6.47323 12.8658H3V2H9.19361V3.20169C9.19361 3.74478 9.63386 4.18502 10.1769 4.18502H11.3786V8.67816C11.7487 8.89946 12.0178 9.20938 12.2081 9.56215C12.2734 9.68321 12.3299 9.81017 12.3786 9.94173V3.69345L12.3786 3.68502L12.3786 3.67659V3.50752C12.3786 3.37491 12.3259 3.24773 12.2321 3.15396L10.2246 1.14645C10.1308 1.05268 10.0037 1 9.87105 1H9.69361H2.98333ZM6.33714 11.8325C6.3528 11.4843 6.41701 11.1488 6.52317 10.8325H4.13086C3.85472 10.8325 3.63086 11.0564 3.63086 11.3325C3.63086 11.6087 3.85472 11.8325 4.13086 11.8325H6.33714ZM7.23267 9.59451C7.61209 9.15839 8.0929 8.81282 8.63839 8.59451H4.13077C3.85462 8.59451 3.63077 8.81837 3.63077 9.09451C3.63077 9.37065 3.85462 9.59451 4.13077 9.59451H7.23267ZM10.849 3.18502H10.1936V2.52967L10.849 3.18502ZM3.63077 6.61866C3.63077 6.34251 3.85462 6.11866 4.13077 6.11866H10.2475C10.5237 6.11866 10.7475 6.34251 10.7475 6.61866C10.7475 6.8948 10.5237 7.11866 10.2475 7.11866H4.13077C3.85462 7.11866 3.63077 6.8948 3.63077 6.61866ZM9.89422 10.2024C8.97886 10.2024 8.23682 10.9444 8.23682 11.8598C8.23682 12.7752 8.97886 13.5172 9.89422 13.5172C10.3351 13.5172 10.7358 13.345 11.0328 13.0642C11.0425 13.0525 11.0529 13.0411 11.0639 13.0302C11.0749 13.0191 11.0864 13.0087 11.0982 12.9989C11.3792 12.7019 11.5516 12.301 11.5516 11.8598C11.5516 10.9444 10.8096 10.2024 9.89422 10.2024ZM9.89422 14.5172C10.4472 14.5172 10.9607 14.3483 11.3859 14.0593L12.237 14.9103C12.4322 15.1056 12.7488 15.1056 12.9441 14.9103C13.1393 14.7151 13.1393 14.3985 12.9441 14.2032L12.0932 13.3523C12.3825 12.9269 12.5516 12.4131 12.5516 11.8598C12.5516 10.3922 11.3619 9.20239 9.89422 9.20239C8.42658 9.20239 7.23682 10.3922 7.23682 11.8598C7.23682 13.3274 8.42658 14.5172 9.89422 14.5172Z" fill="#212121"/>
</svg>
