<svg width="16" height="16" viewBox="0 0 16 16" fill="none" xmlns="http://www.w3.org/2000/svg">
<path d="M3.70002 7.00016C3.56668 6.94461 3.44168 6.88627 3.32502 6.82516C3.20835 6.76405 3.08891 6.68905 2.96668 6.60016L2.48335 6.75016C2.33891 6.79461 2.19724 6.78905 2.05835 6.7335C1.91946 6.67794 1.81113 6.58905 1.73335 6.46683L1.60002 6.2335C1.52224 6.10016 1.49446 5.95572 1.51668 5.80016C1.53891 5.64461 1.61113 5.51683 1.73335 5.41683L2.10002 5.10016C2.0778 4.95572 2.06668 4.81127 2.06668 4.66683C2.06668 4.52238 2.0778 4.37794 2.10002 4.2335L1.73335 3.91683C1.61113 3.81683 1.53891 3.69183 1.51668 3.54183C1.49446 3.39183 1.52224 3.25016 1.60002 3.11683L1.75002 2.86683C1.8278 2.74461 1.93335 2.65572 2.06668 2.60016C2.20002 2.54461 2.33891 2.53905 2.48335 2.5835L2.96668 2.7335C3.08891 2.64461 3.20835 2.56961 3.32502 2.5085C3.44168 2.44738 3.56668 2.38905 3.70002 2.3335L3.80002 1.85016C3.83335 1.69461 3.90835 1.56961 4.02502 1.47516C4.14169 1.38072 4.2778 1.3335 4.43335 1.3335H4.70002C4.85557 1.3335 4.99168 1.3835 5.10835 1.4835C5.22502 1.5835 5.30002 1.71127 5.33335 1.86683L5.43335 2.3335C5.56668 2.38905 5.69169 2.44738 5.80835 2.5085C5.92502 2.56961 6.04446 2.64461 6.16669 2.7335L6.65002 2.5835C6.79446 2.53905 6.93613 2.54461 7.07502 2.60016C7.21391 2.65572 7.32224 2.74461 7.40002 2.86683L7.53335 3.10016C7.61113 3.2335 7.63891 3.37794 7.61669 3.5335C7.59446 3.68905 7.52224 3.81683 7.40002 3.91683L7.03335 4.2335C7.05557 4.37794 7.06669 4.52238 7.06669 4.66683C7.06669 4.81127 7.05557 4.95572 7.03335 5.10016L7.40002 5.41683C7.52224 5.51683 7.59446 5.64183 7.61669 5.79183C7.63891 5.94183 7.61113 6.0835 7.53335 6.21683L7.38335 6.46683C7.30557 6.58905 7.20002 6.67794 7.06669 6.7335C6.93335 6.78905 6.79446 6.79461 6.65002 6.75016L6.16669 6.60016C6.04446 6.68905 5.92502 6.76405 5.80835 6.82516C5.69169 6.88627 5.56668 6.94461 5.43335 7.00016L5.33335 7.4835C5.30002 7.63905 5.22502 7.76405 5.10835 7.8585C4.99168 7.95294 4.85557 8.00016 4.70002 8.00016H4.43335C4.2778 8.00016 4.14169 7.95016 4.02502 7.85016C3.90835 7.75016 3.83335 7.62239 3.80002 7.46683L3.70002 7.00016ZM4.56668 6.00016C4.93335 6.00016 5.24724 5.86961 5.50835 5.6085C5.76946 5.34738 5.90002 5.0335 5.90002 4.66683C5.90002 4.30016 5.76946 3.98627 5.50835 3.72516C5.24724 3.46405 4.93335 3.3335 4.56668 3.3335C4.20002 3.3335 3.88613 3.46405 3.62502 3.72516C3.36391 3.98627 3.23335 4.30016 3.23335 4.66683C3.23335 5.0335 3.36391 5.34738 3.62502 5.6085C3.88613 5.86961 4.20002 6.00016 4.56668 6.00016ZM9.56669 13.9335C9.3778 13.8668 9.2028 13.7863 9.04169 13.6918C8.88057 13.5974 8.72224 13.4891 8.56669 13.3668L7.93335 13.5668C7.73335 13.6335 7.53335 13.6307 7.33335 13.5585C7.13335 13.4863 6.9778 13.3557 6.86669 13.1668L6.68335 12.8502C6.57224 12.6613 6.53335 12.4585 6.56669 12.2418C6.60002 12.0252 6.70002 11.8446 6.86669 11.7002L7.36669 11.2668C7.34446 11.0668 7.33335 10.8668 7.33335 10.6668C7.33335 10.4668 7.34446 10.2668 7.36669 10.0668L6.86669 9.61683C6.70002 9.47239 6.60002 9.29461 6.56669 9.0835C6.53335 8.87239 6.57224 8.67239 6.68335 8.4835L6.86669 8.16683C6.9778 7.97794 7.13335 7.84738 7.33335 7.77516C7.53335 7.70294 7.73335 7.70016 7.93335 7.76683L8.56669 7.96683C8.72224 7.84461 8.88057 7.73627 9.04169 7.64183C9.2028 7.54739 9.3778 7.46683 9.56669 7.40016L9.71669 6.71683C9.76113 6.50572 9.86391 6.3335 10.025 6.20016C10.1861 6.06683 10.3778 6.00016 10.6 6.00016H11C11.2222 6.00016 11.4139 6.06683 11.575 6.20016C11.7361 6.3335 11.8389 6.50572 11.8834 6.71683L12.0334 7.40016C12.2222 7.46683 12.3972 7.54739 12.5584 7.64183C12.7195 7.73627 12.8778 7.84461 13.0334 7.96683L13.6667 7.76683C13.8667 7.70016 14.0667 7.70294 14.2667 7.77516C14.4667 7.84738 14.6222 7.97794 14.7334 8.16683L14.9167 8.4835C15.0278 8.67239 15.0667 8.87516 15.0334 9.09183C15 9.3085 14.9 9.48905 14.7334 9.6335L14.2334 10.0668C14.2556 10.2668 14.2667 10.4668 14.2667 10.6668C14.2667 10.8668 14.2556 11.0668 14.2334 11.2668L14.7334 11.7168C14.9 11.8613 15 12.0391 15.0334 12.2502C15.0667 12.4613 15.0278 12.6613 14.9167 12.8502L14.7334 13.1668C14.6222 13.3557 14.4667 13.4863 14.2667 13.5585C14.0667 13.6307 13.8667 13.6335 13.6667 13.5668L13.0334 13.3668C12.8778 13.4891 12.7195 13.5974 12.5584 13.6918C12.3972 13.7863 12.2222 13.8668 12.0334 13.9335L11.8834 14.6168C11.8389 14.8279 11.7361 15.0002 11.575 15.1335C11.4139 15.2668 11.2222 15.3335 11 15.3335H10.6C10.3778 15.3335 10.1861 15.2668 10.025 15.1335C9.86391 15.0002 9.76113 14.8279 9.71669 14.6168L9.56669 13.9335ZM10.8 12.6668C11.3556 12.6668 11.8278 12.4724 12.2167 12.0835C12.6056 11.6946 12.8 11.2224 12.8 10.6668C12.8 10.1113 12.6056 9.63905 12.2167 9.25016C11.8278 8.86127 11.3556 8.66683 10.8 8.66683C10.2445 8.66683 9.77224 8.86127 9.38335 9.25016C8.99446 9.63905 8.80002 10.1113 8.80002 10.6668C8.80002 11.2224 8.99446 11.6946 9.38335 12.0835C9.77224 12.4724 10.2445 12.6668 10.8 12.6668Z" fill="#212121"/>
</svg>
