<svg width="16" height="16" viewBox="0 0 16 16" fill="none" xmlns="http://www.w3.org/2000/svg">
<path d="M7.99779 15C7.03953 15 6.13487 14.8164 5.28382 14.4492C4.43289 14.082 3.68978 13.5808 3.0545 12.9455C2.41922 12.3102 1.91798 11.5671 1.55079 10.7162C1.1836 9.86513 1 8.96047 1 8.00221C1 7.03228 1.18397 6.12369 1.55189 5.27645C1.91982 4.42908 2.42075 3.68849 3.05468 3.05468C3.68849 2.42075 4.43172 1.91982 5.28437 1.5519C6.13702 1.18397 7.04223 1 8 1C8.15658 1 8.2878 1.05299 8.39366 1.15897C8.49964 1.26496 8.55263 1.39624 8.55263 1.55282C8.55263 1.70952 8.49964 1.84074 8.39366 1.94647C8.2878 2.05233 8.15658 2.10526 8 2.10526C6.36667 2.10526 4.97588 2.67939 3.82763 3.82763C2.67939 4.97588 2.10526 6.36667 2.10526 8C2.10526 9.63333 2.67939 11.0241 3.82763 12.1724C4.97588 13.3206 6.36667 13.8947 8 13.8947C9.63333 13.8947 11.0241 13.3206 12.1724 12.1724C13.3206 11.0241 13.8947 9.63333 13.8947 8C13.8947 7.84318 13.9477 7.71189 14.0537 7.60616C14.1597 7.5003 14.291 7.44737 14.4476 7.44737C14.6043 7.44737 14.7355 7.50036 14.8412 7.60634C14.9471 7.7122 15 7.84342 15 8C15 8.95777 14.816 9.86298 14.4481 10.7156C14.0802 11.5683 13.5792 12.3115 12.9453 12.9453C12.3115 13.5792 11.5709 14.0802 10.7236 14.4481C9.87631 14.816 8.96772 15 7.99779 15Z" fill="#212121"/>
</svg>
