<svg width="16" height="16" viewBox="0 0 16 16" fill="none" xmlns="http://www.w3.org/2000/svg">
<g clip-path="url(#clip0_1898_6972)">
<path d="M11.2808 1C11.507 1.00022 11.6909 1.18389 11.6909 1.41016V14.5898C11.6909 14.8161 11.507 14.9998 11.2808 15H4.71826C4.49201 14.9998 4.30811 14.8161 4.30811 14.5898V1.41016C4.30811 1.18386 4.49201 1.00019 4.71826 1H11.2808ZM6.35889 11.7188C6.13264 11.7189 5.94873 11.9026 5.94873 12.1289C5.94873 12.3552 6.13264 12.5389 6.35889 12.5391H8.81982C9.04604 12.5388 9.22998 12.3552 9.22998 12.1289C9.22998 11.9026 9.04604 11.719 8.81982 11.7188H6.35889ZM6.35889 10.0781C6.13264 10.0783 5.94873 10.262 5.94873 10.4883C5.94873 10.7146 6.13264 10.8983 6.35889 10.8984H9.64014C9.86635 10.8982 10.0503 10.7145 10.0503 10.4883C10.0503 10.262 9.86635 10.0783 9.64014 10.0781H6.35889ZM3.48779 10.6553L1.0249 3.94434C0.946456 3.73107 1.05718 3.4941 1.271 3.41699L3.48779 2.61719V10.6553ZM14.7251 3.41699C14.9385 3.4943 15.0483 3.73128 14.9702 3.94434L12.5112 10.6445V2.61914L14.7251 3.41699ZM7.1792 8.4375C6.95295 8.43769 6.76904 8.62136 6.76904 8.84766C6.76904 9.07395 6.95295 9.25763 7.1792 9.25781H9.64014C9.86635 9.25759 10.0503 9.07392 10.0503 8.84766C10.0503 8.62139 9.86635 8.43772 9.64014 8.4375H7.1792ZM6.52783 2.75C6.37251 2.7502 6.24665 2.86925 6.24658 3.0166V5.69922C6.24834 5.8467 6.3743 5.9677 6.52979 5.96777C6.68534 5.96777 6.81104 5.84772 6.81104 5.7002V4.625H7.47803L8.50049 6.0127L7.87842 6.68164C7.7756 6.79166 7.78683 6.96108 7.90283 7.05859C7.9564 7.10347 8.02267 7.125 8.08936 7.125C8.16744 7.1249 8.24502 7.09424 8.30029 7.03516L8.83154 6.46289L9.23486 7.01074C9.28935 7.08492 9.37756 7.125 9.46631 7.125C9.52157 7.12496 9.57734 7.10859 9.62646 7.07617C9.75378 6.99206 9.78525 6.82591 9.69678 6.70508L9.21436 6.05176L9.67627 5.55566C9.77905 5.44569 9.76771 5.27624 9.65186 5.17871C9.53586 5.08121 9.35721 5.09216 9.25439 5.20215L8.88232 5.60156L8.13232 4.58301C8.40027 4.48794 8.59131 4.24172 8.59131 3.95508V3.41992C8.59119 3.05081 8.27443 2.75007 7.88525 2.75H6.52783ZM7.88721 3.28418C7.96609 3.28438 8.0307 3.34605 8.03076 3.4209V3.95605C8.03076 4.03095 7.96613 4.09257 7.88721 4.09277H6.81104V3.28418H7.88721Z" fill="black"/>
</g>
<defs>
<clipPath id="clip0_1898_6972">
<rect width="14" height="14" fill="white" transform="translate(1 1)"/>
</clipPath>
</defs>
</svg>
