<svg width="16" height="16" viewBox="0 0 16 16" fill="none" xmlns="http://www.w3.org/2000/svg">
<path d="M15.4736 2.4728H7.93597C7.64572 2.4728 7.40953 2.70003 7.40953 2.97931V13.2794C7.40953 13.5586 7.64572 13.7859 7.93597 13.7859H15.4736C15.7638 13.7859 16 13.5586 16 13.2794V2.97928C16 2.7 15.7638 2.4728 15.4736 2.4728ZM10.066 12.6965C10.066 12.9098 9.88572 13.0832 9.66413 13.0832H8.76178C8.54016 13.0832 8.35994 12.9098 8.35994 12.6965V11.8283C8.35994 11.6151 8.54019 11.4416 8.76178 11.4416H9.66413C9.88575 11.4416 10.066 11.6151 10.066 11.8283V12.6965ZM10.066 10.2989C10.066 10.5122 9.88572 10.6856 9.66413 10.6856H8.76178C8.54016 10.6856 8.35994 10.5121 8.35994 10.2989V9.43071C8.35994 9.21749 8.54019 9.04402 8.76178 9.04402H9.66413C9.88575 9.04402 10.066 9.21752 10.066 9.43071V10.2989ZM10.066 7.90132C10.066 8.11454 9.88572 8.28801 9.66413 8.28801H8.76178C8.54016 8.28801 8.35994 8.11451 8.35994 7.90132V7.03309C8.35994 6.81987 8.54019 6.6464 8.76178 6.6464H9.66413C9.88575 6.6464 10.066 6.8199 10.066 7.03309V7.90132ZM12.5579 12.6965C12.5579 12.9098 12.3776 13.0832 12.156 13.0832H11.2537C11.0321 13.0832 10.8518 12.9098 10.8518 12.6965V11.8283C10.8518 11.6151 11.0321 11.4416 11.2537 11.4416H12.156C12.3777 11.4416 12.5579 11.6151 12.5579 11.8283V12.6965ZM12.5579 10.2989C12.5579 10.5122 12.3776 10.6856 12.156 10.6856H11.2537C11.0321 10.6856 10.8518 10.5121 10.8518 10.2989V9.43071C10.8518 9.21749 11.0321 9.04402 11.2537 9.04402H12.156C12.3777 9.04402 12.5579 9.21752 12.5579 9.43071V10.2989ZM12.5579 7.90132C12.5579 8.11454 12.3776 8.28801 12.156 8.28801H11.2537C11.0321 8.28801 10.8518 8.11451 10.8518 7.90132V7.03309C10.8518 6.81987 11.0321 6.6464 11.2537 6.6464H12.156C12.3777 6.6464 12.5579 6.8199 12.5579 7.03309V7.90132ZM15.0497 12.6964C15.0497 12.9097 14.8694 13.0831 14.6478 13.0831H13.7454C13.5238 13.0831 13.3436 12.9096 13.3436 12.6964V9.43062C13.3436 9.21737 13.5239 9.0439 13.7454 9.0439H14.6478C14.8694 9.0439 15.0497 9.2174 15.0497 9.43062V12.6964ZM15.0497 7.90132C15.0497 8.11454 14.8694 8.28801 14.6478 8.28801H13.7454C13.5238 8.28801 13.3436 8.11451 13.3436 7.90132V7.03309C13.3436 6.81987 13.5239 6.6464 13.7454 6.6464H14.6478C14.8694 6.6464 15.0497 6.8199 15.0497 7.03309V7.90132ZM15.3323 5.20464C15.3323 5.45923 15.117 5.66634 14.8524 5.66634H8.55719C8.29259 5.66634 8.07734 5.4592 8.07734 5.20464V3.68181C8.07734 3.42721 8.29262 3.2201 8.55719 3.2201H14.8524C15.117 3.2201 15.3322 3.42724 15.3322 3.68181V5.20464H15.3323ZM9.80794 7.03309V7.90132C9.80794 7.97761 9.74344 8.0397 9.66409 8.0397H8.76175C8.68247 8.0397 8.61797 7.97764 8.61797 7.90132V7.03309C8.61797 6.9568 8.68244 6.89468 8.76175 6.89468H9.66409C9.74344 6.89468 9.80794 6.9568 9.80794 7.03309ZM12.2998 7.03309V7.90132C12.2998 7.97761 12.2353 8.0397 12.156 8.0397H11.2537C11.1743 8.0397 11.1098 7.97764 11.1098 7.90132V7.03309C11.1098 6.9568 11.1743 6.89468 11.2537 6.89468H12.156C12.2353 6.89468 12.2998 6.9568 12.2998 7.03309ZM14.7916 7.03309V7.90132C14.7916 7.97761 14.7271 8.0397 14.6477 8.0397H13.7454C13.6661 8.0397 13.6016 7.97764 13.6016 7.90132V7.03309C13.6016 6.9568 13.6661 6.89468 13.7454 6.89468H14.6477C14.7271 6.89468 14.7916 6.9568 14.7916 7.03309ZM9.80794 9.43071V10.2989C9.80794 10.3753 9.74344 10.4374 9.66409 10.4374H8.76175C8.68247 10.4374 8.61797 10.3753 8.61797 10.2989V9.43071C8.61797 9.35442 8.68244 9.29233 8.76175 9.29233H9.66409C9.74344 9.29233 9.80794 9.35442 9.80794 9.43071ZM9.80794 11.8283V12.6965C9.80794 12.7729 9.74344 12.8349 9.66409 12.8349H8.76175C8.68247 12.8349 8.61797 12.7729 8.61797 12.6965V11.8283C8.61797 11.752 8.68244 11.6899 8.76175 11.6899H9.66409C9.74344 11.69 9.80794 11.752 9.80794 11.8283ZM12.2998 9.43071V10.2989C12.2998 10.3753 12.2353 10.4374 12.156 10.4374H11.2537C11.1743 10.4374 11.1098 10.3753 11.1098 10.2989V9.43071C11.1098 9.35442 11.1743 9.29233 11.2537 9.29233H12.156C12.2353 9.29233 12.2998 9.35442 12.2998 9.43071ZM14.7916 9.43062V12.6964C14.7916 12.7728 14.7271 12.8349 14.6477 12.8349H13.7454C13.6661 12.8349 13.6016 12.7728 13.6016 12.6964V9.43062C13.6016 9.3543 13.6661 9.29218 13.7454 9.29218H14.6477C14.7271 9.29221 14.7916 9.3543 14.7916 9.43062ZM12.2998 11.8283V12.6965C12.2998 12.7729 12.2353 12.8349 12.156 12.8349H11.2537C11.1743 12.8349 11.1098 12.7729 11.1098 12.6965V11.8283C11.1098 11.752 11.1743 11.6899 11.2537 11.6899H12.156C12.2353 11.69 12.2998 11.752 12.2998 11.8283ZM6.08919 9.51505V12.3647L3.52447 13.7895V10.9398L6.08919 9.51505ZM2.89775 9.8499L2.29469 10.185C2.29341 10.1856 2.29247 10.1866 2.29128 10.1873C2.28894 10.1887 2.28659 10.1901 2.28431 10.1917C2.282 10.1933 2.27975 10.1951 2.27747 10.1969C2.27522 10.1987 2.27291 10.2005 2.27078 10.2024C2.26894 10.2041 2.26728 10.2058 2.26553 10.2075C2.26356 10.2095 2.26178 10.2116 2.25991 10.2138C2.25797 10.216 2.25609 10.2182 2.25431 10.2205C2.25272 10.2227 2.25131 10.225 2.24981 10.2273C2.24909 10.2284 2.24809 10.2293 2.24741 10.2304C2.24675 10.2316 2.24637 10.2329 2.24575 10.2341C2.24441 10.2364 2.24316 10.2387 2.24203 10.2411C2.24078 10.2437 2.23966 10.2464 2.23863 10.2492C2.23763 10.2518 2.23666 10.2544 2.23587 10.257C2.23516 10.2593 2.23447 10.2615 2.23391 10.2639C2.23325 10.2666 2.23269 10.2694 2.23225 10.2723C2.23175 10.2751 2.23125 10.2778 2.231 10.2806C2.23072 10.2832 2.23059 10.2858 2.23053 10.2884C2.23047 10.2898 2.23009 10.2911 2.23009 10.2925V10.897L1.79375 10.6545V9.97832L2.46131 9.60745L2.89775 9.8499ZM0.830656 9.3L1.36925 9.00079L2.20325 9.46408L1.66472 9.7633L0.830656 9.3ZM3.26641 13.7895L0.701594 12.3646V9.51502L1.53569 9.97835V10.7262C1.53569 10.7705 1.56028 10.8115 1.60019 10.8337L2.29466 11.2195C2.31463 11.2306 2.33691 11.2361 2.35916 11.2361C2.38141 11.2361 2.40366 11.2306 2.42366 11.2195C2.46356 11.1973 2.48816 11.1563 2.48816 11.112V10.5075L3.26634 10.9398V13.7895H3.26641ZM5.60353 9.10188L5.96019 9.30003L3.39547 10.7248L2.61719 10.2924L3.15581 9.99326L3.51281 10.1916C3.51669 10.1937 3.52072 10.1955 3.52478 10.1973C3.52578 10.1977 3.52672 10.1982 3.52778 10.1987C3.53459 10.2014 3.54159 10.2034 3.54872 10.2049C3.55062 10.2053 3.5525 10.2057 3.55447 10.206C3.56197 10.2073 3.56966 10.2082 3.57734 10.2082C3.58503 10.2082 3.59266 10.2073 3.60028 10.206C3.60219 10.2057 3.60409 10.2053 3.606 10.2049C3.61312 10.2034 3.62009 10.2014 3.62691 10.1987C3.62797 10.1982 3.62891 10.1977 3.62994 10.1973C3.63394 10.1955 3.638 10.1937 3.64188 10.1916L5.60353 9.10188ZM3.70637 9.86902V7.71014L5.58116 6.66862C5.62109 6.64646 5.64566 6.60548 5.64566 6.56113V5.9421L6.27119 5.5946V8.44421L3.70637 9.86902ZM5.64566 5.10382L6.14216 5.37961L5.64566 5.6554V5.10382ZM0.883531 8.44421V7.26702L2.62925 8.23683C2.63313 8.23896 2.63716 8.24074 2.64122 8.24248C2.64225 8.24296 2.64322 8.24347 2.64422 8.24393C2.65106 8.24666 2.65806 8.24862 2.66516 8.25018C2.66709 8.2506 2.66897 8.2509 2.67091 8.25126C2.6785 8.25258 2.68612 8.25346 2.69378 8.25346C2.70147 8.25346 2.70909 8.25258 2.71666 8.25126C2.71863 8.2509 2.7205 8.2506 2.72244 8.25018C2.72953 8.24862 2.7365 8.24666 2.74338 8.24393C2.74437 8.24347 2.74531 8.24293 2.74638 8.24248C2.75041 8.24074 2.75447 8.23899 2.75831 8.23683L3.44831 7.85351V9.86902L0.883531 8.44421ZM5.38756 3.63986V6.48947L2.82284 7.91428V5.06467L5.38756 3.63986ZM1.09209 4.10319L3.78591 2.6067L4.22234 2.84914L1.593 4.30976C1.59172 4.31045 1.59078 4.31144 1.58953 4.31217C1.58719 4.31358 1.58491 4.31496 1.58266 4.3165C1.58031 4.31812 1.57816 4.31983 1.57591 4.32161C1.57356 4.32347 1.57131 4.32528 1.56909 4.32726C1.56728 4.32891 1.56553 4.33057 1.56381 4.33234C1.56187 4.3343 1.56009 4.3364 1.55828 4.33851C1.55634 4.34076 1.55444 4.34296 1.55262 4.34533C1.55103 4.34753 1.54959 4.34975 1.54816 4.35207C1.54737 4.35318 1.54644 4.35408 1.54572 4.35522C1.54506 4.3564 1.54475 4.35766 1.54403 4.35883C1.54278 4.36115 1.54147 4.36346 1.54034 4.36587C1.53906 4.36852 1.53803 4.37122 1.537 4.37399C1.53597 4.37657 1.535 4.37913 1.53416 4.38178C1.53347 4.38406 1.53284 4.38629 1.53225 4.38863C1.53156 4.39143 1.53106 4.39422 1.53053 4.39705C1.53006 4.39988 1.52959 4.40264 1.52928 4.40541C1.52903 4.40803 1.52897 4.41058 1.52884 4.4132C1.52881 4.41458 1.52841 4.41587 1.52841 4.41729V5.02179L1.092 4.77934V4.10319H1.09209ZM1.91562 4.41735L4.48037 2.99254L5.25856 3.42484L2.69378 4.84965L1.91562 4.41735ZM2.69378 2L3.52784 2.46336L0.963031 3.88817L0.129031 3.42484L2.69378 2ZM0 6.48947V3.63986L0.834031 4.10322V4.85106C0.834031 4.89541 0.858625 4.93639 0.898531 4.95855L1.593 5.34437C1.61297 5.35543 1.63528 5.36099 1.6575 5.36099C1.67978 5.36099 1.70206 5.35543 1.722 5.34434C1.76191 5.32218 1.7865 5.28116 1.7865 5.23684V4.63237L2.56469 5.06464V7.91425L0 6.48947Z" fill="black"/>
</svg>
