<svg width="16" height="16" viewBox="0 0 16 16" fill="none" xmlns="http://www.w3.org/2000/svg">
<g clip-path="url(#clip0_97_1624)">
<path d="M10.6665 10.6666V11.3333C10.6665 11.6869 10.526 12.026 10.276 12.2761C10.0259 12.5261 9.68679 12.6666 9.33317 12.6666H1.99984C1.64622 12.6666 1.30708 12.5261 1.05703 12.2761C0.80698 12.026 0.666504 11.6869 0.666504 11.3333V4.66659C0.666504 4.31296 0.80698 3.97382 1.05703 3.72378C1.30708 3.47373 1.64622 3.33325 1.99984 3.33325H3.33317M7.1065 3.33325H9.33317C9.68679 3.33325 10.0259 3.47373 10.276 3.72378C10.526 3.97382 10.6665 4.31296 10.6665 4.66659V6.89325L11.3332 7.55992L15.3332 4.66659V11.3333" stroke="#212121" stroke-width="1.33333" stroke-linecap="round" stroke-linejoin="round"/>
<path d="M0.666504 0.666748L15.3332 15.3334" stroke="#212121" stroke-width="1.33333" stroke-linecap="round" stroke-linejoin="round"/>
</g>
<defs>
<clipPath id="clip0_97_1624">
<rect width="16" height="16" fill="white"/>
</clipPath>
</defs>
</svg>
