<svg width="16" height="16" viewBox="0 0 16 16" fill="none" xmlns="http://www.w3.org/2000/svg">
<g clip-path="url(#clip0_97_2471)">
<path d="M15.0732 11.3001C15.288 10.793 15.3737 10.2405 15.3229 9.69212C15.272 9.14373 15.086 8.61649 14.7816 8.15754C14.4772 7.69859 14.0637 7.32221 13.5783 7.06206C13.0929 6.80191 12.5506 6.6661 11.9998 6.66675H11.1598C10.8877 5.59507 10.2892 4.63447 9.44719 3.91785C8.60517 3.20124 7.56123 2.76404 6.45983 2.66675M3.33316 3.33341C2.29188 3.90917 1.47304 4.8166 1.00689 5.91135C0.540743 7.0061 0.454066 8.22529 0.760649 9.37497C1.06723 10.5247 1.74946 11.5388 2.69882 12.2561C3.64818 12.9734 4.81013 13.3526 5.99983 13.3334H11.9998C12.3863 13.333 12.7698 13.2653 13.1332 13.1334" stroke="#212121" stroke-width="1.33333" stroke-linecap="round" stroke-linejoin="round"/>
<path d="M0.666504 0.666748L15.3332 15.3334" stroke="#212121" stroke-width="1.33333" stroke-linecap="round" stroke-linejoin="round"/>
</g>
<defs>
<clipPath id="clip0_97_2471">
<rect width="16" height="16" fill="white"/>
</clipPath>
</defs>
</svg>
