<svg width="16" height="16" viewBox="0 0 16 16" fill="none" xmlns="http://www.w3.org/2000/svg">
<g clip-path="url(#clip0_1391_309)">
<path d="M3.29355 13.1547L1.71303 14.7768C1.48842 15.0075 1.23007 15.0593 0.937961 14.9324C0.645987 14.8053 0.5 14.5784 0.5 14.2517V2.46482C0.5 2.05548 0.638158 1.709 0.914474 1.42539C1.19079 1.14178 1.52836 0.99997 1.92717 0.99997H14.0728C14.4716 0.99997 14.8092 1.14178 15.0855 1.42539C15.3618 1.709 15.5 2.05548 15.5 2.46482V11.6899C15.5 12.0992 15.3618 12.4457 15.0855 12.7293C14.8092 13.0129 14.4716 13.1547 14.0728 13.1547H3.29355ZM4.05263 10.116H8.78948C8.95724 10.116 9.09783 10.0578 9.21125 9.94122C9.3248 9.82467 9.38158 9.6803 9.38158 9.50811C9.38158 9.33578 9.3248 9.19147 9.21125 9.07519C9.09783 8.95878 8.95724 8.90057 8.78948 8.90057H4.05263C3.88487 8.90057 3.74428 8.95884 3.63086 9.0754C3.5173 9.19195 3.46053 9.33632 3.46053 9.50851C3.46053 9.68084 3.5173 9.82514 3.63086 9.94142C3.74428 10.0578 3.88487 10.116 4.05263 10.116ZM4.05263 7.68509H11.9474C12.1151 7.68509 12.2557 7.62682 12.3691 7.51027C12.4827 7.39372 12.5395 7.24934 12.5395 7.07715C12.5395 6.90482 12.4827 6.76052 12.3691 6.64424C12.2557 6.52782 12.1151 6.46962 11.9474 6.46962H4.05263C3.88487 6.46962 3.74428 6.52789 3.63086 6.64444C3.5173 6.76099 3.46053 6.90536 3.46053 7.07756C3.46053 7.24988 3.5173 7.39419 3.63086 7.51047C3.74428 7.62688 3.88487 7.68509 4.05263 7.68509ZM4.05263 5.25414H11.9474C12.1151 5.25414 12.2557 5.19586 12.3691 5.07931C12.4827 4.96276 12.5395 4.81839 12.5395 4.6462C12.5395 4.47387 12.4827 4.32957 12.3691 4.21329C12.2557 4.09687 12.1151 4.03866 11.9474 4.03866H4.05263C3.88487 4.03866 3.74428 4.09694 3.63086 4.21349C3.5173 4.33004 3.46053 4.47441 3.46053 4.6466C3.46053 4.81893 3.5173 4.96324 3.63086 5.07952C3.74428 5.19593 3.88487 5.25414 4.05263 5.25414Z" fill="#212121"/>
</g>
<defs>
<clipPath id="clip0_1391_309">
<rect width="16" height="16" fill="white"/>
</clipPath>
</defs>
</svg>
