<svg width="16" height="16" viewBox="0 0 16 16" fill="none" xmlns="http://www.w3.org/2000/svg">
<g clip-path="url(#clip0_1343_32226)">
<path fill-rule="evenodd" clip-rule="evenodd" d="M1.91921 15.0808C2.19868 15.3603 2.53467 15.5 2.92717 15.5H13.4939C13.8864 15.5 14.2224 15.3603 14.5018 15.0808C14.7813 14.8013 14.9211 14.4653 14.9211 14.0728V3.50612C14.9211 3.11362 14.7813 2.77763 14.5018 2.49816C14.2224 2.21868 13.8864 2.07895 13.4939 2.07895H9.98072C9.93625 1.64066 9.7475 1.26796 9.41447 0.960854C9.08145 0.653618 8.68138 0.5 8.21428 0.5C7.74717 0.5 7.34717 0.653618 7.01428 0.960854C6.68125 1.26796 6.48993 1.64066 6.44033 2.07895H2.92717C2.53467 2.07895 2.19868 2.21868 1.91921 2.49816C1.63974 2.77763 1.5 3.11362 1.5 3.50612V14.0728C1.5 14.4653 1.63974 14.8013 1.91921 15.0808ZM7.42105 12.4483H5.05263C4.88487 12.4483 4.74428 12.3916 4.63086 12.2784C4.5173 12.1649 4.46053 12.0243 4.46053 11.8566C4.46053 11.6887 4.5173 11.548 4.63086 11.4344C4.74428 11.321 4.88487 11.2643 5.05263 11.2643H7.42105C7.58882 11.2643 7.72941 11.3209 7.84283 11.4342C7.95638 11.5476 8.01316 11.6882 8.01316 11.856C8.01316 12.0239 7.95638 12.1645 7.84283 12.278C7.72941 12.3915 7.58882 12.4483 7.42105 12.4483ZM11.3684 9.38158H5.05263C4.88487 9.38158 4.74428 9.32487 4.63086 9.21145C4.5173 9.09816 4.46053 8.95757 4.46053 8.78967C4.46053 8.62191 4.5173 8.48125 4.63086 8.3677C4.74428 8.25415 4.88487 8.19737 5.05263 8.19737H11.3684C11.5362 8.19737 11.6768 8.25408 11.7902 8.3675C11.9038 8.48079 11.9605 8.62138 11.9605 8.78928C11.9605 8.95704 11.9038 9.0977 11.7902 9.21125C11.6768 9.3248 11.5362 9.38158 11.3684 9.38158ZM11.3684 6.31467H5.05263C4.88487 6.31467 4.74428 6.25803 4.63086 6.14474C4.5173 6.03132 4.46053 5.89072 4.46053 5.72296C4.46053 5.55507 4.5173 5.41441 4.63086 5.30099C4.74428 5.18743 4.88487 5.13066 5.05263 5.13066H11.3684C11.5362 5.13066 11.6768 5.1873 11.7902 5.30059C11.9038 5.41401 11.9605 5.55461 11.9605 5.72237C11.9605 5.89026 11.9038 6.03099 11.7902 6.14454C11.6768 6.25796 11.5362 6.31467 11.3684 6.31467ZM8.63487 2.57928C8.52303 2.69112 8.38158 2.74704 8.21053 2.74704C8.03947 2.74704 7.89803 2.69112 7.78618 2.57928C7.67434 2.46743 7.61842 2.32599 7.61842 2.15493C7.61842 1.98388 7.67434 1.84243 7.78618 1.73059C7.89803 1.61875 8.03947 1.56283 8.21053 1.56283C8.38158 1.56283 8.52303 1.61875 8.63487 1.73059C8.74671 1.84243 8.80263 1.98388 8.80263 2.15493C8.80263 2.32599 8.74671 2.46743 8.63487 2.57928ZM11.6261 11.306C11.7951 11.1637 11.8167 10.9113 11.6744 10.7423C11.5321 10.5734 11.2798 10.5517 11.1108 10.694L9.54336 12.014L9.30734 11.7308C9.16592 11.5611 8.91369 11.5381 8.74398 11.6796C8.57427 11.821 8.55134 12.0732 8.69276 12.2429L9.18618 12.835C9.25433 12.9168 9.35225 12.968 9.45829 12.9774C9.56432 12.9868 9.66971 12.9535 9.75113 12.8849L11.6261 11.306Z" fill="#212121"/>
</g>
<defs>
<clipPath id="clip0_1343_32226">
<rect width="16" height="16" fill="white"/>
</clipPath>
</defs>
</svg>
