<svg width="16" height="16" viewBox="0 0 16 16" fill="none" xmlns="http://www.w3.org/2000/svg">
<path d="M2.55556 15C2.12778 15 1.76157 14.8477 1.45694 14.5431C1.15231 14.2384 1 13.8722 1 13.4444V2.55556C1 2.12778 1.15231 1.76157 1.45694 1.45694C1.76157 1.15231 2.12778 1 2.55556 1H13.4444C13.8722 1 14.2384 1.15231 14.5431 1.45694C14.8477 1.76157 15 2.12778 15 2.55556V13.4444C15 13.8722 14.8477 14.2384 14.5431 14.5431C14.2384 14.8477 13.8722 15 13.4444 15H2.55556ZM2.55556 13.4444H13.4444V2.55556H2.55556V13.4444ZM4.88889 6.44444C4.66852 6.44444 4.4838 6.51898 4.33472 6.66806C4.18565 6.81713 4.11111 7.00185 4.11111 7.22222V11.1111C4.11111 11.3315 4.18565 11.5162 4.33472 11.6653C4.4838 11.8144 4.66852 11.8889 4.88889 11.8889C5.10926 11.8889 5.29398 11.8144 5.44306 11.6653C5.59213 11.5162 5.66667 11.3315 5.66667 11.1111V7.22222C5.66667 7.00185 5.59213 6.81713 5.44306 6.66806C5.29398 6.51898 5.10926 6.44444 4.88889 6.44444ZM8 4.11111C7.77963 4.11111 7.59491 4.18565 7.44583 4.33472C7.29676 4.4838 7.22222 4.66852 7.22222 4.88889V11.1111C7.22222 11.3315 7.29676 11.5162 7.44583 11.6653C7.59491 11.8144 7.77963 11.8889 8 11.8889C8.22037 11.8889 8.40509 11.8144 8.55417 11.6653C8.70324 11.5162 8.77778 11.3315 8.77778 11.1111V4.88889C8.77778 4.66852 8.70324 4.4838 8.55417 4.33472C8.40509 4.18565 8.22037 4.11111 8 4.11111ZM11.1111 8.77778C10.8907 8.77778 10.706 8.85231 10.5569 9.00139C10.4079 9.15046 10.3333 9.33519 10.3333 9.55556V11.1111C10.3333 11.3315 10.4079 11.5162 10.5569 11.6653C10.706 11.8144 10.8907 11.8889 11.1111 11.8889C11.3315 11.8889 11.5162 11.8144 11.6653 11.6653C11.8144 11.5162 11.8889 11.3315 11.8889 11.1111V9.55556C11.8889 9.33519 11.8144 9.15046 11.6653 9.00139C11.5162 8.85231 11.3315 8.77778 11.1111 8.77778Z" fill="#212121"/>
</svg>
