<svg width="16" height="16" viewBox="0 0 16 16" fill="none" xmlns="http://www.w3.org/2000/svg">
<path d="M1.67529 2.11694V6.71782V6.69921V14.031V2.11694ZM1.91642 15.148C1.52061 15.148 1.18558 15.0176 0.911351 14.757C0.637117 14.4964 0.5 14.178 0.5 13.8019V2.3461C0.5 1.96994 0.637117 1.65155 0.911351 1.39093C1.18558 1.13031 1.52061 1 1.91642 1H8.13937L12.2529 4.9093V6.96411C12.065 6.89349 11.8731 6.83982 11.6772 6.80308C11.4813 6.76635 11.2814 6.73793 11.0776 6.71782V5.46778H7.55173V2.11694H1.91642C1.85609 2.11694 1.80085 2.14083 1.7507 2.18861C1.70043 2.23627 1.67529 2.28877 1.67529 2.3461V13.8019C1.67529 13.8592 1.70043 13.9117 1.7507 13.9593C1.80085 14.0071 1.85609 14.031 1.91642 14.031H6.53922C6.69292 14.2525 6.86516 14.4571 7.05595 14.6446C7.24687 14.8322 7.45378 15 7.6767 15.148H1.91642ZM10.6858 13.4009C11.2694 13.4009 11.7619 13.2102 12.1632 12.8288C12.5645 12.4474 12.7651 11.9794 12.7651 11.4248C12.7651 10.8702 12.5645 10.4022 12.1632 10.0208C11.7619 9.63944 11.2694 9.44875 10.6858 9.44875C10.1022 9.44875 9.60979 9.63944 9.20849 10.0208C8.80719 10.4022 8.60655 10.8702 8.60655 11.4248C8.60655 11.9794 8.80719 12.4474 9.20849 12.8288C9.60979 13.2102 10.1022 13.4009 10.6858 13.4009ZM14.6818 16L12.5361 13.9608C12.2719 14.1441 11.9824 14.2828 11.6676 14.3769C11.3526 14.4708 11.0254 14.5178 10.6858 14.5178C9.78177 14.5178 9.01333 14.2171 8.3805 13.6157C7.74767 13.0143 7.43126 12.284 7.43126 11.4248C7.43126 10.5656 7.74767 9.83534 8.3805 9.23392C9.01333 8.63251 9.78177 8.33181 10.6858 8.33181C11.5899 8.33181 12.3583 8.63251 12.9912 9.23392C13.624 9.83534 13.9404 10.5656 13.9404 11.4248C13.9404 11.7475 13.891 12.0585 13.7921 12.3578C13.6931 12.657 13.5472 12.9322 13.3543 13.1833L15.5 15.2224L14.6818 16Z" fill="#212121"/>
</svg>
